M48
; DRILL file {KiCad 7.0.8} date Fri Dec 22 16:46:08 2023
; FORMAT={-:-/ absolute / inch / decimal}
; #@! TF.CreationDate,2023-12-22T16:46:08+01:00
; #@! TF.GenerationSoftware,Kicad,Pcbnew,7.0.8
; #@! TF.FileFunction,Plated,1,2,PTH
FMAT,2
INCH
; #@! TA.AperFunction,Plated,PTH,ViaDrill
T1C0.0118
; #@! TA.AperFunction,Plated,PTH,ComponentDrill
T2C0.0197
; #@! TA.AperFunction,Plated,PTH,ComponentDrill
T3C0.0256
; #@! TA.AperFunction,Plated,PTH,ComponentDrill
T4C0.0394
; #@! TA.AperFunction,Plated,PTH,ComponentDrill
T5C0.0433
%
G90
G05
T1
X6.3681Y-4.3602
X6.378Y-3.1201
X6.378Y-3.1496
X6.378Y-3.1791
X6.378Y-3.2087
X6.378Y-3.2382
X6.378Y-3.2677
X6.378Y-3.2972
X6.378Y-3.3268
X6.3878Y-5.2362
X6.3878Y-5.4232
X6.4173Y-5.2362
X6.4173Y-5.5118
X6.437Y-4.065
X6.437Y-4.0945
X6.437Y-4.124
X6.437Y-4.1535
X6.4961Y-2.9232
X6.5256Y-2.9921
X6.5256Y-3.7303
X6.5512Y-3.6909
X6.624Y-5.4331
X6.6437Y-2.9232
X6.67Y-4.6682
X6.6732Y-5.876
X6.6831Y-4.5571
X6.6831Y-4.6968
X6.6929Y-2.8839
X6.7028Y-5.876
X6.7126Y-3.8287
X6.7126Y-4.7736
X6.7126Y-5.1772
X6.7323Y-5.876
X6.7388Y-4.475
X6.7588Y-4.7441
X6.7618Y-5.876
X6.7717Y-3.0807
X6.7913Y-4.4587
X6.7913Y-5.876
X6.8209Y-3.2579
X6.8406Y-2.7953
X6.8504Y-5.7382
X6.8504Y-5.7677
X6.8552Y-4.4852
X6.8602Y-3.1594
X6.8882Y-4.5766
X6.8898Y-5.7382
X6.8996Y-3.7598
X6.9172Y-5.1239
X6.9193Y-5.7382
X6.9291Y-3.7598
X6.9291Y-4.7638
X6.939Y-4.2913
X6.9435Y-4.6896
X6.9586Y-5.0397
X6.9587Y-3.7598
X6.9587Y-4.3701
X6.9587Y-5.7382
X6.9587Y-5.7677
X6.9685Y-4.7619
X6.9685Y-5.0098
X6.9879Y-4.6252
X6.9882Y-3.4646
X6.9882Y-3.7598
X6.9882Y-4.563
X6.9882Y-5.2362
X6.9882Y-5.4232
X7.0079Y-2.9823
X7.0079Y-3.0118
X7.0079Y-3.0413
X7.0079Y-3.0709
X7.0079Y-3.1004
X7.0079Y-3.1299
X7.0079Y-3.1594
X7.0079Y-4.5354
X7.0148Y-4.3316
X7.0177Y-4.813
X7.0177Y-5.2362
X7.0177Y-5.4232
X7.0193Y-5.7071
X7.0276Y-5.0394
X7.0289Y-5.1024
X7.0374Y-3.5925
X7.0472Y-4.5276
X7.0478Y-4.6854
X7.0571Y-3.7106
X7.0571Y-4.9094
X7.0669Y-5.6791
X7.0689Y-5.4724
X7.0768Y-4.4488
X7.0866Y-3.2087
X7.0866Y-3.3071
X7.0906Y-5.6559
X7.0945Y-5.4464
X7.0977Y-4.9626
X7.1014Y-3.6565
X7.1045Y-5.1535
X7.1066Y-4.4588
X7.1081Y-4.5818
X7.1161Y-3.4547
X7.1161Y-3.4843
X7.1161Y-3.5236
X7.1161Y-3.5531
X7.1161Y-5.6765
X7.1163Y-5.4229
X7.126Y-4.1732
X7.1319Y-4.9646
X7.1334Y-4.0138
X7.1412Y-4.0595
X7.1457Y-3.4547
X7.1457Y-3.4843
X7.1457Y-3.5236
X7.1457Y-3.5531
X7.1457Y-4.8425
X7.1476Y-3.9094
X7.1679Y-4.8203
X7.1752Y-3.4547
X7.1752Y-3.4843
X7.1752Y-3.5236
X7.1752Y-3.5531
X7.185Y-3.8189
X7.185Y-3.8819
X7.185Y-4.1535
X7.185Y-5.6633
X7.2006Y-4.5742
X7.2047Y-4.6063
X7.2047Y-4.4783
X7.2047Y-5.0098
X7.2047Y-5.0689
X7.2048Y-4.6377
X7.2146Y-4.5177
X7.2226Y-4.6637
X7.2244Y-5.1998
X7.2306Y-4.7995
X7.2412Y-3.8386
X7.2539Y-5.7382
X7.2539Y-5.7677
X7.2911Y-5.5266
X7.2933Y-3.4547
X7.2933Y-3.4843
X7.2933Y-3.5236
X7.2933Y-3.5531
X7.2933Y-4.4291
X7.2933Y-4.9606
X7.2933Y-5.7382
X7.3012Y-3.8287
X7.3031Y-3.7697
X7.3031Y-4.1339
X7.3219Y-4.6949
X7.3228Y-3.4547
X7.3228Y-3.4843
X7.3228Y-3.5236
X7.3228Y-3.5531
X7.3228Y-4.9606
X7.3228Y-5.7382
X7.3307Y-4.5945
X7.3425Y-3.7303
X7.3425Y-3.8287
X7.3524Y-3.4547
X7.3524Y-3.4843
X7.3524Y-3.5236
X7.3524Y-3.5531
X7.3622Y-5.7382
X7.3622Y-5.7677
X7.3819Y-3.622
X7.3819Y-3.75
X7.3819Y-3.8583
X7.3819Y-4.9606
X7.3937Y-5.4882
X7.4016Y-5.6316
X7.4114Y-4.9606
X7.4213Y-5.876
X7.4449Y-5.689
X7.4508Y-3.9567
X7.4508Y-3.9862
X7.4508Y-4.0157
X7.4508Y-4.0453
X7.4508Y-5.876
X7.4567Y-4.8268
X7.4803Y-5.876
X7.5Y-4.3898
X7.5Y-4.5669
X7.5Y-4.7441
X7.5Y-4.8327
X7.5049Y-3.5974
X7.5098Y-4.7933
X7.5098Y-5.876
X7.5226Y-5.4134
X7.5295Y-4.9409
X7.5295Y-4.9803
X7.5394Y-5.876
X7.5492Y-5.1378
X7.5886Y-3.1496
X7.5886Y-3.1791
X7.6083Y-3.622
X7.6083Y-3.6516
X7.6083Y-3.6811
X7.6083Y-3.7106
X7.6181Y-3.1496
X7.6181Y-3.1791
X7.6181Y-4.4587
X7.6181Y-4.6457
X7.6181Y-4.8031
X7.6476Y-3.1496
X7.6476Y-3.1791
X7.6772Y-3.1496
X7.6772Y-3.1791
X7.7045Y-4.6656
X7.7049Y-4.488
X7.7051Y-4.3119
X7.7067Y-3.1496
X7.7264Y-4.8031
X7.7615Y-4.7289
X7.7756Y-4.9508
X7.7756Y-4.9803
X7.7756Y-5.0098
X7.8051Y-4.9508
X7.8051Y-4.9803
X7.8051Y-5.0098
X7.8346Y-4.9508
X7.8346Y-4.9803
X7.8346Y-5.0098
T2
X6.437Y-3.4941
X6.565Y-3.5925
X6.8307Y-2.7067
X7.1654Y-2.9429
T3
X6.6378Y-4.3996
X6.6878Y-4.3996
T4
X6.3878Y-2.8435
X6.3878Y-2.9435
X6.3976Y-4.485
X6.3976Y-4.585
X6.3976Y-4.685
X6.3976Y-4.785
X6.3976Y-4.885
X6.6063Y-4.8879
X6.7063Y-4.8879
X6.8063Y-4.8879
X6.9063Y-4.8879
X7.0063Y-4.8879
X7.1063Y-4.8879
X7.2063Y-4.8879
X7.3063Y-4.8879
X7.4063Y-4.8879
X7.5063Y-4.8879
X7.6063Y-4.8879
X7.8248Y-2.8435
X7.8248Y-2.9435
T5
X7.7264Y-3.0709
X7.7264Y-3.2087
X7.7264Y-3.3465
X7.7264Y-3.4843
X7.7264Y-3.622
X7.7264Y-3.7598
X7.7264Y-3.8976
X7.7264Y-4.0354
X7.7264Y-4.1732
T0
M30
