%TF.GenerationSoftware,KiCad,Pcbnew,7.0.8*%
%TF.CreationDate,2023-12-22T16:46:09+01:00*%
%TF.ProjectId,AxxSolder,41787853-6f6c-4646-9572-2e6b69636164,rev?*%
%TF.SameCoordinates,Original*%
%TF.FileFunction,Paste,Top*%
%TF.FilePolarity,Positive*%
%FSLAX46Y46*%
G04 Gerber Fmt 4.6, Leading zero omitted, Abs format (unit mm)*
G04 Created by KiCad (PCBNEW 7.0.8) date 2023-12-22 16:46:09*
%MOMM*%
%LPD*%
G01*
G04 APERTURE LIST*
G04 Aperture macros list*
%AMRoundRect*
0 Rectangle with rounded corners*
0 $1 Rounding radius*
0 $2 $3 $4 $5 $6 $7 $8 $9 X,Y pos of 4 corners*
0 Add a 4 corners polygon primitive as box body*
4,1,4,$2,$3,$4,$5,$6,$7,$8,$9,$2,$3,0*
0 Add four circle primitives for the rounded corners*
1,1,$1+$1,$2,$3*
1,1,$1+$1,$4,$5*
1,1,$1+$1,$6,$7*
1,1,$1+$1,$8,$9*
0 Add four rect primitives between the rounded corners*
20,1,$1+$1,$2,$3,$4,$5,0*
20,1,$1+$1,$4,$5,$6,$7,0*
20,1,$1+$1,$6,$7,$8,$9,0*
20,1,$1+$1,$8,$9,$2,$3,0*%
G04 Aperture macros list end*
%ADD10R,3.750000X4.000000*%
%ADD11R,2.500000X2.700000*%
%ADD12R,2.500000X3.200000*%
%ADD13R,1.300000X2.400000*%
%ADD14R,1.300000X1.550000*%
%ADD15R,1.930000X1.000000*%
%ADD16RoundRect,0.200000X0.200000X0.275000X-0.200000X0.275000X-0.200000X-0.275000X0.200000X-0.275000X0*%
%ADD17RoundRect,0.200000X-0.200000X-0.275000X0.200000X-0.275000X0.200000X0.275000X-0.200000X0.275000X0*%
%ADD18RoundRect,0.225000X-0.225000X-0.250000X0.225000X-0.250000X0.225000X0.250000X-0.225000X0.250000X0*%
G04 APERTURE END LIST*
D10*
%TO.C,U3*%
X176625000Y-135400000D03*
D11*
X175250000Y-143050000D03*
D12*
X175250000Y-127500000D03*
D11*
X165250000Y-143050000D03*
D12*
X165250000Y-127500000D03*
D10*
X163875000Y-135400000D03*
D13*
X172750000Y-128400000D03*
X167750000Y-128400000D03*
X172750000Y-142700000D03*
X170250000Y-142700000D03*
X167750000Y-142700000D03*
%TD*%
D14*
%TO.C,S1*%
X168000000Y-139375000D03*
X172500000Y-139375000D03*
X168000000Y-131425000D03*
X172500000Y-131425000D03*
%TD*%
%TO.C,S2*%
X182000000Y-139375000D03*
X186500000Y-139375000D03*
X182000000Y-131425000D03*
X186500000Y-131425000D03*
%TD*%
%TO.C,S3*%
X194000000Y-139375000D03*
X198500000Y-139375000D03*
X194000000Y-131425000D03*
X198500000Y-131425000D03*
%TD*%
D15*
%TO.C,D10*%
X193500000Y-84550000D03*
X193500000Y-88950000D03*
%TD*%
D16*
%TO.C,R33*%
X179325000Y-130250000D03*
X177675000Y-130250000D03*
%TD*%
D17*
%TO.C,R32*%
X177675000Y-128750000D03*
X179325000Y-128750000D03*
%TD*%
%TO.C,R29*%
X189425000Y-136750000D03*
X191075000Y-136750000D03*
%TD*%
%TO.C,R28*%
X189425000Y-139750000D03*
X191075000Y-139750000D03*
%TD*%
%TO.C,R27*%
X182325000Y-127250000D03*
X180675000Y-127250000D03*
%TD*%
D18*
%TO.C,C34*%
X177725000Y-131740000D03*
X179275000Y-131740000D03*
%TD*%
%TO.C,C33*%
X177725000Y-127250000D03*
X179275000Y-127250000D03*
%TD*%
%TO.C,C28*%
X189475000Y-135250000D03*
X191025000Y-135250000D03*
%TD*%
%TO.C,C27*%
X189475000Y-138250000D03*
X191025000Y-138250000D03*
%TD*%
%TO.C,C26*%
X180725000Y-128750000D03*
X182275000Y-128750000D03*
%TD*%
M02*
