M48
; DRILL file {KiCad 7.0.10} date Fri Feb 16 18:39:20 2024
; FORMAT={-:-/ absolute / inch / decimal}
; #@! TF.CreationDate,2024-02-16T18:39:20+01:00
; #@! TF.GenerationSoftware,Kicad,Pcbnew,7.0.10
; #@! TF.FileFunction,Plated,1,2,PTH
FMAT,2
INCH
; #@! TA.AperFunction,Plated,PTH,ViaDrill
T1C0.0118
; #@! TA.AperFunction,Plated,PTH,ComponentDrill
T2C0.0394
; #@! TA.AperFunction,Plated,PTH,ComponentDrill
T3C0.0402
; #@! TA.AperFunction,Plated,PTH,ComponentDrill
T4C0.0433
%
G90
G05
T1
X6.3681Y-3.1201
X6.3681Y-3.1496
X6.3681Y-3.1791
X6.3681Y-3.2087
X6.3681Y-3.2382
X6.3681Y-3.2677
X6.3681Y-3.2972
X6.3681Y-3.3268
X6.3681Y-3.3563
X6.3701Y-4.2441
X6.376Y-4.9617
X6.3878Y-5.2362
X6.3976Y-3.1201
X6.3976Y-3.1496
X6.3976Y-3.1791
X6.3976Y-3.2087
X6.3976Y-3.2382
X6.3976Y-3.2677
X6.3976Y-3.2972
X6.3976Y-3.3268
X6.3976Y-3.3563
X6.4173Y-5.2362
X6.4173Y-5.5118
X6.437Y-4.0354
X6.437Y-4.065
X6.437Y-4.0945
X6.437Y-4.124
X6.4823Y-4.4331
X6.4961Y-4.874
X6.5Y-4.9409
X6.5157Y-5.5591
X6.5295Y-5.126
X6.5354Y-4.4252
X6.5374Y-4.6339
X6.5454Y-4.4551
X6.5512Y-4.7559
X6.5591Y-5.126
X6.5591Y-5.2283
X6.5807Y-4.4252
X6.5827Y-4.6339
X6.5866Y-2.9803
X6.5906Y-5.2283
X6.6102Y-3.6693
X6.6102Y-5.378
X6.6235Y-4.8346
X6.6319Y-4.9508
X6.6491Y-4.813
X6.6614Y-5.4567
X6.6673Y-4.9587
X6.6781Y-3.0358
X6.6929Y-4.4783
X6.6929Y-4.5669
X6.6929Y-4.6555
X6.6929Y-4.7441
X6.6969Y-2.6772
X6.6969Y-2.7047
X6.7008Y-2.9134
X6.7008Y-2.9852
X6.7008Y-5.0157
X6.7126Y-3.8287
X6.7264Y-2.6772
X6.7264Y-2.7047
X6.7362Y-5.1713
X6.7515Y-3.0348
X6.7559Y-2.6772
X6.7559Y-2.7047
X6.7717Y-5.2874
X6.7854Y-2.6772
X6.7854Y-2.7047
X6.8012Y-4.9961
X6.8031Y-2.8819
X6.815Y-2.6772
X6.815Y-2.7047
X6.8287Y-4.9803
X6.8327Y-2.8819
X6.8425Y-5.2874
X6.8445Y-2.6772
X6.8445Y-2.7047
X6.8504Y-3.2579
X6.8504Y-5.7382
X6.8504Y-5.7677
X6.8543Y-4.4094
X6.8622Y-2.8819
X6.8622Y-3.8386
X6.874Y-2.6772
X6.874Y-2.7047
X6.8898Y-5.7382
X6.8917Y-2.8819
X6.8976Y-3.3583
X6.8976Y-3.3898
X6.8976Y-3.4213
X6.9035Y-2.6772
X6.9035Y-2.7047
X6.9055Y-5.4724
X6.9094Y-4.3543
X6.9134Y-4.5256
X6.9193Y-5.7382
X6.9331Y-2.6772
X6.937Y-2.9291
X6.937Y-2.9587
X6.9409Y-3.6142
X6.9409Y-3.6496
X6.9409Y-3.6811
X6.9488Y-4.1713
X6.9528Y-4.5394
X6.9587Y-5.7382
X6.9587Y-5.7677
X6.9606Y-5.2441
X6.9626Y-2.6772
X6.9685Y-4.7008
X6.9783Y-5.5551
X6.9823Y-4.5854
X6.9921Y-2.6772
X7.0023Y-4.5653
X7.0052Y-4.6673
X7.0079Y-3.3031
X7.0079Y-3.7402
X7.0079Y-4.3957
X7.0079Y-4.435
X7.0098Y-4.6985
X7.0105Y-4.4675
X7.0118Y-5.5707
X7.0157Y-4.7913
X7.0453Y-4.4712
X7.0472Y-3.1575
X7.0551Y-5.4587
X7.0591Y-3.2835
X7.063Y-4.0256
X7.063Y-5.6693
X7.0672Y-4.0785
X7.0709Y-5.0157
X7.0768Y-3.1575
X7.0906Y-5.3228
X7.0915Y-3.9032
X7.0945Y-3.2835
X7.0945Y-4.752
X7.0945Y-5.6554
X7.0945Y-4.5253
X7.0965Y-5.5197
X7.0984Y-4.4724
X7.1122Y-5.2126
X7.1161Y-3.5236
X7.1161Y-3.5551
X7.1161Y-3.5866
X7.1171Y-3.8776
X7.1201Y-4.5032
X7.124Y-4.752
X7.126Y-4.4488
X7.1282Y-5.6735
X7.1457Y-3.5236
X7.1457Y-3.5551
X7.1457Y-3.5866
X7.1457Y-4.1516
X7.1654Y-5.0709
X7.1732Y-4.179
X7.1752Y-3.5236
X7.1752Y-3.5551
X7.1752Y-3.5866
X7.1811Y-4.1417
X7.1811Y-5.5707
X7.1811Y-4.5039
X7.1815Y-5.6633
X7.1909Y-4.7943
X7.1929Y-4.9567
X7.1969Y-3.9134
X7.1979Y-5.2924
X7.2006Y-5.7144
X7.2205Y-5.4921
X7.2264Y-5.191
X7.2323Y-4.0748
X7.2412Y-3.8386
X7.2422Y-4.1047
X7.2522Y-5.6931
X7.2539Y-5.7382
X7.2539Y-5.7677
X7.2736Y-5.5276
X7.2795Y-4.2087
X7.2933Y-3.4547
X7.2933Y-3.4843
X7.2933Y-3.5236
X7.2933Y-3.5531
X7.2933Y-4.9606
X7.2933Y-5.7382
X7.3012Y-3.8287
X7.3055Y-3.7702
X7.3189Y-4.7126
X7.3228Y-3.4547
X7.3228Y-3.4843
X7.3228Y-3.5236
X7.3228Y-3.5531
X7.3228Y-4.9606
X7.3228Y-5.7382
X7.3268Y-4.7874
X7.3376Y-3.8337
X7.3392Y-4.7585
X7.3425Y-3.7303
X7.3465Y-4.3425
X7.3504Y-4.4252
X7.3524Y-3.4547
X7.3524Y-3.4843
X7.3524Y-3.5236
X7.3524Y-3.5531
X7.3543Y-4.7018
X7.3597Y-4.4803
X7.3622Y-5.7382
X7.3622Y-5.7677
X7.378Y-4.3661
X7.3819Y-3.622
X7.3819Y-3.75
X7.3819Y-4.9606
X7.3937Y-5.4882
X7.4094Y-5.2175
X7.4114Y-4.9606
X7.4411Y-4.7622
X7.4467Y-4.4096
X7.4724Y-4.4803
X7.4739Y-4.628
X7.5049Y-3.5974
X7.5197Y-5.128
X7.5226Y-5.4134
X7.5295Y-4.9409
X7.5295Y-4.9803
X7.5512Y-5.7953
X7.5807Y-5.7953
X7.5866Y-4.3524
X7.5866Y-4.5295
X7.5866Y-4.7067
X7.5886Y-3.1496
X7.5886Y-3.1791
X7.6102Y-5.7953
X7.6181Y-3.1496
X7.6181Y-3.1791
X7.6181Y-4.4587
X7.6181Y-4.6457
X7.6181Y-4.8031
X7.6476Y-3.1496
X7.6476Y-3.1791
X7.6772Y-3.1496
X7.6772Y-3.1791
X7.7045Y-4.6656
X7.7049Y-4.488
X7.7051Y-4.3119
X7.7067Y-3.1496
X7.748Y-4.8031
X7.7615Y-4.7289
X7.7756Y-4.9508
X7.7756Y-4.9803
X7.7756Y-5.0098
X7.8051Y-4.9508
X7.8051Y-4.9803
X7.8051Y-5.0098
X7.8346Y-4.9508
X7.8346Y-4.9803
X7.8346Y-5.0098
T2
X6.3976Y-4.3035
X6.3976Y-4.4035
X6.3976Y-4.5035
X6.3976Y-4.6035
X6.3976Y-4.7035
X6.3976Y-4.8035
X6.3976Y-4.9035
X6.7071Y-4.8858
X6.8071Y-4.8858
X6.9071Y-4.8858
X7.0071Y-4.8858
X7.1071Y-4.8858
X7.2071Y-4.8858
X7.3071Y-4.8858
X7.4071Y-4.8858
X7.5071Y-4.8858
X7.6293Y-4.8858
X7.7293Y-4.8858
T3
X6.3878Y-2.8435
X6.3878Y-2.9435
X7.8248Y-2.8435
X7.8248Y-2.9435
T4
X7.7264Y-3.0709
X7.7264Y-3.2087
X7.7264Y-3.3465
X7.7264Y-3.4843
X7.7264Y-3.622
X7.7264Y-3.7598
X7.7264Y-3.8976
X7.7264Y-4.0354
X7.7264Y-4.1732
M30
