%TF.GenerationSoftware,KiCad,Pcbnew,7.0.8*%
%TF.CreationDate,2023-12-22T16:46:09+01:00*%
%TF.ProjectId,AxxSolder,41787853-6f6c-4646-9572-2e6b69636164,rev?*%
%TF.SameCoordinates,Original*%
%TF.FileFunction,Paste,Bot*%
%TF.FilePolarity,Positive*%
%FSLAX46Y46*%
G04 Gerber Fmt 4.6, Leading zero omitted, Abs format (unit mm)*
G04 Created by KiCad (PCBNEW 7.0.8) date 2023-12-22 16:46:09*
%MOMM*%
%LPD*%
G01*
G04 APERTURE LIST*
G04 Aperture macros list*
%AMRoundRect*
0 Rectangle with rounded corners*
0 $1 Rounding radius*
0 $2 $3 $4 $5 $6 $7 $8 $9 X,Y pos of 4 corners*
0 Add a 4 corners polygon primitive as box body*
4,1,4,$2,$3,$4,$5,$6,$7,$8,$9,$2,$3,0*
0 Add four circle primitives for the rounded corners*
1,1,$1+$1,$2,$3*
1,1,$1+$1,$4,$5*
1,1,$1+$1,$6,$7*
1,1,$1+$1,$8,$9*
0 Add four rect primitives between the rounded corners*
20,1,$1+$1,$2,$3,$4,$5,0*
20,1,$1+$1,$4,$5,$6,$7,0*
20,1,$1+$1,$6,$7,$8,$9,0*
20,1,$1+$1,$8,$9,$2,$3,0*%
G04 Aperture macros list end*
%ADD10R,0.400000X0.550000*%
%ADD11R,0.400000X0.410000*%
%ADD12R,2.750000X0.250000*%
%ADD13R,2.750000X1.470000*%
%ADD14R,0.300000X0.750000*%
%ADD15R,1.730000X1.850000*%
%ADD16R,1.200000X1.200000*%
%ADD17R,2.180000X2.000000*%
%ADD18R,0.300000X1.150000*%
%ADD19R,0.550000X0.800000*%
%ADD20R,0.750000X0.400000*%
%ADD21R,0.400000X0.530000*%
%ADD22R,2.400000X2.450000*%
%ADD23R,0.500000X1.050000*%
%ADD24R,0.600000X1.250000*%
%ADD25RoundRect,0.200000X-0.200000X-0.275000X0.200000X-0.275000X0.200000X0.275000X-0.200000X0.275000X0*%
%ADD26R,0.700000X0.300000*%
%ADD27R,1.000000X1.700000*%
%ADD28R,0.850000X0.750000*%
%ADD29R,1.050000X0.500000*%
%ADD30RoundRect,0.200000X0.200000X0.275000X-0.200000X0.275000X-0.200000X-0.275000X0.200000X-0.275000X0*%
%ADD31RoundRect,0.200000X-0.275000X0.200000X-0.275000X-0.200000X0.275000X-0.200000X0.275000X0.200000X0*%
%ADD32RoundRect,0.200000X0.275000X-0.200000X0.275000X0.200000X-0.275000X0.200000X-0.275000X-0.200000X0*%
%ADD33R,1.050000X0.600000*%
%ADD34RoundRect,0.225000X0.225000X0.250000X-0.225000X0.250000X-0.225000X-0.250000X0.225000X-0.250000X0*%
%ADD35RoundRect,0.225000X0.250000X-0.225000X0.250000X0.225000X-0.250000X0.225000X-0.250000X-0.225000X0*%
%ADD36RoundRect,0.225000X-0.225000X-0.250000X0.225000X-0.250000X0.225000X0.250000X-0.225000X0.250000X0*%
%ADD37RoundRect,0.225000X-0.250000X0.225000X-0.250000X-0.225000X0.250000X-0.225000X0.250000X0.225000X0*%
%ADD38R,1.650000X0.950000*%
%ADD39R,1.650000X3.250000*%
%ADD40R,3.200000X2.850000*%
%ADD41R,0.600000X0.800000*%
%ADD42R,4.410000X3.655000*%
%ADD43R,0.500000X0.925000*%
%ADD44R,1.425000X0.450000*%
%ADD45R,1.680000X1.880000*%
%ADD46RoundRect,0.250000X0.325000X0.650000X-0.325000X0.650000X-0.325000X-0.650000X0.325000X-0.650000X0*%
%ADD47R,0.600000X1.050000*%
%ADD48R,0.300000X1.475000*%
%ADD49R,1.475000X0.300000*%
%ADD50R,2.200000X2.150000*%
%ADD51R,4.240000X3.810000*%
%ADD52R,2.800000X2.800000*%
%ADD53R,0.800000X0.300000*%
%ADD54R,0.300000X0.800000*%
%ADD55R,2.500000X3.000000*%
%ADD56R,1.900000X3.450000*%
G04 APERTURE END LIST*
D10*
%TO.C,Q3*%
X198700000Y-131790000D03*
X198050000Y-131790000D03*
X197400000Y-131790000D03*
X196750000Y-131790000D03*
D11*
X198700000Y-128920000D03*
X198050000Y-128920000D03*
D12*
X197725000Y-129250000D03*
D13*
X197725000Y-130110000D03*
D11*
X197400000Y-128920000D03*
X196750000Y-128920000D03*
%TD*%
D14*
%TO.C,IC6*%
X195500000Y-133250000D03*
X195000000Y-133250000D03*
X194500000Y-133250000D03*
X194000000Y-133250000D03*
X194000000Y-130250000D03*
X194500000Y-130250000D03*
X195000000Y-130250000D03*
X195500000Y-130250000D03*
D15*
X194750000Y-131750000D03*
%TD*%
D16*
%TO.C,D9*%
X178900000Y-85750000D03*
X176100000Y-85750000D03*
%TD*%
D17*
%TO.C,J1*%
X175390000Y-147077000D03*
X175390000Y-143147000D03*
X185610000Y-147077000D03*
X185610000Y-143147000D03*
D18*
X183550000Y-142572000D03*
X182750000Y-142572000D03*
X182250000Y-142572000D03*
X181250000Y-142572000D03*
X179750000Y-142572000D03*
X178750000Y-142572000D03*
X178250000Y-142572000D03*
X177450000Y-142572000D03*
X177150000Y-142572000D03*
X177950000Y-142572000D03*
X179250000Y-142572000D03*
X180250000Y-142572000D03*
X180750000Y-142572000D03*
X181750000Y-142572000D03*
X183050000Y-142572000D03*
X183850000Y-142572000D03*
%TD*%
D19*
%TO.C,D11*%
X190625000Y-141250000D03*
X191875000Y-141250000D03*
%TD*%
D20*
%TO.C,Q1*%
X193475000Y-138725000D03*
X193475000Y-138075000D03*
X193475000Y-137425000D03*
X193475000Y-136775000D03*
D21*
X195000000Y-139240000D03*
D22*
X195700000Y-137750000D03*
D21*
X195000000Y-136260000D03*
%TD*%
D23*
%TO.C,D3*%
X189650000Y-144550000D03*
X188350000Y-144550000D03*
X189000000Y-142450000D03*
%TD*%
D24*
%TO.C,D12*%
X179550000Y-129650000D03*
X181450000Y-129650000D03*
X180500000Y-131750000D03*
%TD*%
D25*
%TO.C,R40*%
X168425000Y-113500000D03*
X170075000Y-113500000D03*
%TD*%
D26*
%TO.C,IC1*%
X183550000Y-99750000D03*
X183550000Y-100250000D03*
X183550000Y-100750000D03*
X183550000Y-101250000D03*
X181450000Y-101250000D03*
X181450000Y-100750000D03*
X181450000Y-100250000D03*
X181450000Y-99750000D03*
D27*
X182500000Y-100500000D03*
%TD*%
D28*
%TO.C,Y1*%
X177750000Y-108725000D03*
X177750000Y-109775000D03*
X179100000Y-108725000D03*
X179100000Y-109775000D03*
%TD*%
D29*
%TO.C,D1*%
X187550000Y-93000000D03*
X187550000Y-94300000D03*
X185450000Y-93650000D03*
%TD*%
%TO.C,D2*%
X187550000Y-95950000D03*
X187550000Y-97250000D03*
X185450000Y-96600000D03*
%TD*%
D30*
%TO.C,R30*%
X167725000Y-98500000D03*
X166075000Y-98500000D03*
%TD*%
D31*
%TO.C,R25*%
X169150000Y-95425000D03*
X169150000Y-97075000D03*
%TD*%
D30*
%TO.C,R24*%
X191925000Y-127500000D03*
X193575000Y-127500000D03*
%TD*%
D25*
%TO.C,R23*%
X190575000Y-127500000D03*
X188925000Y-127500000D03*
%TD*%
%TO.C,R21*%
X166075000Y-95500000D03*
X167725000Y-95500000D03*
%TD*%
D30*
%TO.C,R15*%
X186075000Y-133750000D03*
X184425000Y-133750000D03*
%TD*%
D25*
%TO.C,R14*%
X188875000Y-134000000D03*
X190525000Y-134000000D03*
%TD*%
D32*
%TO.C,R13*%
X191950000Y-138075000D03*
X191950000Y-136425000D03*
%TD*%
D25*
%TO.C,R12*%
X193175000Y-142750000D03*
X194825000Y-142750000D03*
%TD*%
D30*
%TO.C,R11*%
X193175000Y-141250000D03*
X194825000Y-141250000D03*
%TD*%
%TO.C,R9*%
X183575000Y-96000000D03*
X181925000Y-96000000D03*
%TD*%
D25*
%TO.C,R8*%
X181875000Y-98250000D03*
X183525000Y-98250000D03*
%TD*%
D32*
%TO.C,R7*%
X182000000Y-94575000D03*
X182000000Y-92925000D03*
%TD*%
D31*
%TO.C,R5*%
X189000000Y-95775000D03*
X189000000Y-97425000D03*
%TD*%
%TO.C,R4*%
X183500000Y-92925000D03*
X183500000Y-94575000D03*
%TD*%
D25*
%TO.C,R3*%
X185325000Y-102750000D03*
X183675000Y-102750000D03*
%TD*%
D31*
%TO.C,R2*%
X185250000Y-99675000D03*
X185250000Y-101325000D03*
%TD*%
%TO.C,R1*%
X189000000Y-92755000D03*
X189000000Y-94405000D03*
%TD*%
D33*
%TO.C,D7*%
X172850000Y-95300000D03*
X172850000Y-97200000D03*
X170650000Y-96250000D03*
%TD*%
D34*
%TO.C,C29*%
X167650000Y-97000000D03*
X166100000Y-97000000D03*
%TD*%
D35*
%TO.C,C22*%
X176000000Y-109975000D03*
X176000000Y-111525000D03*
%TD*%
%TO.C,C19*%
X191750000Y-144275000D03*
X191750000Y-142725000D03*
%TD*%
D36*
%TO.C,C18*%
X188925000Y-135750000D03*
X190475000Y-135750000D03*
%TD*%
%TO.C,C17*%
X188925000Y-137250000D03*
X190475000Y-137250000D03*
%TD*%
%TO.C,C16*%
X188925000Y-138750000D03*
X190475000Y-138750000D03*
%TD*%
D34*
%TO.C,C15*%
X171025000Y-122250000D03*
X169475000Y-122250000D03*
%TD*%
D37*
%TO.C,C14*%
X174250000Y-112975000D03*
X174250000Y-114525000D03*
%TD*%
D35*
%TO.C,C13*%
X196250000Y-142775000D03*
X196250000Y-141225000D03*
%TD*%
D37*
%TO.C,C12*%
X180500000Y-110025000D03*
X180500000Y-108475000D03*
%TD*%
D34*
%TO.C,C11*%
X182300000Y-104250000D03*
X180750000Y-104250000D03*
%TD*%
D36*
%TO.C,C10*%
X183725000Y-104250000D03*
X185275000Y-104250000D03*
%TD*%
%TO.C,C3*%
X177725000Y-107250000D03*
X179275000Y-107250000D03*
%TD*%
%TO.C,C1*%
X165700000Y-88250000D03*
X167250000Y-88250000D03*
%TD*%
D38*
%TO.C,PS1*%
X169450000Y-92800000D03*
X169450000Y-90500000D03*
X169450000Y-88200000D03*
D39*
X175750000Y-90500000D03*
%TD*%
D24*
%TO.C,IC3*%
X168200000Y-76750000D03*
X167250000Y-76750000D03*
X166300000Y-76750000D03*
X166300000Y-74250000D03*
X167250000Y-74250000D03*
X168200000Y-74250000D03*
%TD*%
D40*
%TO.C,L1*%
X167250000Y-79550000D03*
X167250000Y-85250000D03*
%TD*%
D41*
%TO.C,U4*%
X184595000Y-76487500D03*
X185865000Y-76487500D03*
D42*
X186500000Y-78712500D03*
D41*
X187135000Y-76487500D03*
X188405000Y-76487500D03*
D43*
X184595000Y-82277500D03*
X185865000Y-82277500D03*
X187135000Y-82277500D03*
X188405000Y-82277500D03*
%TD*%
D44*
%TO.C,IC5*%
X177788000Y-83725000D03*
X177788000Y-83075000D03*
X177788000Y-82425000D03*
X177788000Y-81775000D03*
X182212000Y-81775000D03*
X182212000Y-82425000D03*
X182212000Y-83075000D03*
X182212000Y-83725000D03*
D45*
X180000000Y-82750000D03*
%TD*%
D30*
%TO.C,R35*%
X175825000Y-84000000D03*
X174175000Y-84000000D03*
%TD*%
D25*
%TO.C,R10*%
X168425000Y-69500000D03*
X170075000Y-69500000D03*
%TD*%
D30*
%TO.C,R6*%
X168425000Y-71000000D03*
X170075000Y-71000000D03*
%TD*%
D46*
%TO.C,C9*%
X176475000Y-79000000D03*
X173525000Y-79000000D03*
%TD*%
%TO.C,C8*%
X176475000Y-76750000D03*
X173525000Y-76750000D03*
%TD*%
D36*
%TO.C,C7*%
X168475000Y-72490000D03*
X170025000Y-72490000D03*
%TD*%
D35*
%TO.C,C6*%
X172000000Y-77025000D03*
X172000000Y-75475000D03*
%TD*%
%TO.C,C5*%
X170250000Y-77025000D03*
X170250000Y-75475000D03*
%TD*%
D37*
%TO.C,C4*%
X164750000Y-75225000D03*
X164750000Y-76775000D03*
%TD*%
D47*
%TO.C,Q2*%
X163950000Y-140900000D03*
X162050000Y-140900000D03*
X163000000Y-138700000D03*
%TD*%
D36*
%TO.C,C21*%
X184775000Y-120250000D03*
X186325000Y-120250000D03*
%TD*%
D30*
%TO.C,FB1*%
X181900000Y-106443125D03*
X183550000Y-106443125D03*
%TD*%
D33*
%TO.C,D8*%
X191362500Y-120500000D03*
X193562500Y-121450000D03*
X193562500Y-119550000D03*
%TD*%
%TO.C,D6*%
X191362500Y-116000000D03*
X193562500Y-116950000D03*
X193562500Y-115050000D03*
%TD*%
%TO.C,D5*%
X191362500Y-111500000D03*
X193562500Y-112450000D03*
X193562500Y-110550000D03*
%TD*%
D48*
%TO.C,IC2*%
X177750000Y-111762000D03*
X178250000Y-111762000D03*
X178750000Y-111762000D03*
X179250000Y-111762000D03*
X179750000Y-111762000D03*
X180250000Y-111762000D03*
X180750000Y-111762000D03*
X181250000Y-111762000D03*
X181750000Y-111762000D03*
X182250000Y-111762000D03*
X182750000Y-111762000D03*
X183250000Y-111762000D03*
D49*
X184738000Y-113250000D03*
X184738000Y-113750000D03*
X184738000Y-114250000D03*
X184738000Y-114750000D03*
X184738000Y-115250000D03*
X184738000Y-115750000D03*
X184738000Y-116250000D03*
X184738000Y-116750000D03*
X184738000Y-117250000D03*
X184738000Y-117750000D03*
X184738000Y-118250000D03*
X184738000Y-118750000D03*
D48*
X183250000Y-120238000D03*
X182750000Y-120238000D03*
X182250000Y-120238000D03*
X181750000Y-120238000D03*
X181250000Y-120238000D03*
X180750000Y-120238000D03*
X180250000Y-120238000D03*
X179750000Y-120238000D03*
X179250000Y-120238000D03*
X178750000Y-120238000D03*
X178250000Y-120238000D03*
X177750000Y-120238000D03*
D49*
X176262000Y-118750000D03*
X176262000Y-118250000D03*
X176262000Y-117750000D03*
X176262000Y-117250000D03*
X176262000Y-116750000D03*
X176262000Y-116250000D03*
X176262000Y-115750000D03*
X176262000Y-115250000D03*
X176262000Y-114750000D03*
X176262000Y-114250000D03*
X176262000Y-113750000D03*
X176262000Y-113250000D03*
%TD*%
D50*
%TO.C,D4*%
X179700000Y-71000000D03*
X175300000Y-71000000D03*
%TD*%
D51*
%TO.C,F1*%
X184060000Y-71000000D03*
X190440000Y-71000000D03*
%TD*%
D52*
%TO.C,IC4*%
X185250000Y-137500000D03*
D53*
X187250000Y-138750000D03*
X187250000Y-138250000D03*
X187250000Y-137750000D03*
X187250000Y-137250000D03*
X187250000Y-136750000D03*
X187250000Y-136250000D03*
D54*
X186500000Y-135500000D03*
X186000000Y-135500000D03*
X185500000Y-135500000D03*
X185000000Y-135500000D03*
X184500000Y-135500000D03*
X184000000Y-135500000D03*
D53*
X183250000Y-136250000D03*
X183250000Y-136750000D03*
X183250000Y-137250000D03*
X183250000Y-137750000D03*
X183250000Y-138250000D03*
X183250000Y-138750000D03*
D54*
X184000000Y-139500000D03*
X184500000Y-139500000D03*
X185000000Y-139500000D03*
X185500000Y-139500000D03*
X186000000Y-139500000D03*
X186500000Y-139500000D03*
%TD*%
D55*
%TO.C,LS1*%
X166250000Y-135500000D03*
X166250000Y-127500000D03*
%TD*%
D32*
%TO.C,R34*%
X168500000Y-138975000D03*
X168500000Y-140625000D03*
%TD*%
D31*
%TO.C,R31*%
X167000000Y-140625000D03*
X167000000Y-138975000D03*
%TD*%
D32*
%TO.C,R26*%
X196712500Y-119425000D03*
X196712500Y-121075000D03*
%TD*%
%TO.C,R22*%
X196712500Y-114925000D03*
X196712500Y-116575000D03*
%TD*%
%TO.C,R20*%
X165500000Y-138975000D03*
X165500000Y-140625000D03*
%TD*%
%TO.C,R19*%
X196712500Y-112075000D03*
X196712500Y-110425000D03*
%TD*%
%TO.C,R18*%
X195212500Y-112075000D03*
X195212500Y-110425000D03*
%TD*%
%TO.C,R17*%
X195212500Y-114925000D03*
X195212500Y-116575000D03*
%TD*%
%TO.C,R16*%
X195212500Y-119425000D03*
X195212500Y-121075000D03*
%TD*%
D37*
%TO.C,C37*%
X175750000Y-80975000D03*
X175750000Y-82525000D03*
%TD*%
%TO.C,C36*%
X174250000Y-80975000D03*
X174250000Y-82525000D03*
%TD*%
D34*
%TO.C,C32*%
X195187500Y-109000000D03*
X196737500Y-109000000D03*
%TD*%
%TO.C,C31*%
X195187500Y-113500000D03*
X196737500Y-113500000D03*
%TD*%
%TO.C,C30*%
X195187500Y-118000000D03*
X196737500Y-118000000D03*
%TD*%
%TO.C,C25*%
X181950000Y-107943125D03*
X183500000Y-107943125D03*
%TD*%
%TO.C,C24*%
X181950000Y-109443125D03*
X183500000Y-109443125D03*
%TD*%
D36*
%TO.C,C20*%
X177275000Y-122250000D03*
X178825000Y-122250000D03*
%TD*%
D35*
%TO.C,C2*%
X177750000Y-91275000D03*
X177750000Y-89725000D03*
%TD*%
D46*
%TO.C,C38*%
X182250000Y-76750000D03*
X179300000Y-76750000D03*
%TD*%
%TO.C,C39*%
X182250000Y-79000000D03*
X179300000Y-79000000D03*
%TD*%
D56*
%TO.C,R39*%
X189200000Y-89000000D03*
X183800000Y-89000000D03*
%TD*%
D46*
%TO.C,C35*%
X183475000Y-85750000D03*
X180525000Y-85750000D03*
%TD*%
M02*
