%TF.GenerationSoftware,KiCad,Pcbnew,7.0.10*%
%TF.CreationDate,2024-01-23T14:05:24+01:00*%
%TF.ProjectId,AxxSolder,41787853-6f6c-4646-9572-2e6b69636164,rev?*%
%TF.SameCoordinates,Original*%
%TF.FileFunction,Legend,Top*%
%TF.FilePolarity,Positive*%
%FSLAX46Y46*%
G04 Gerber Fmt 4.6, Leading zero omitted, Abs format (unit mm)*
G04 Created by KiCad (PCBNEW 7.0.10) date 2024-01-23 14:05:24*
%MOMM*%
%LPD*%
G01*
G04 APERTURE LIST*
%ADD10C,0.200000*%
%ADD11C,0.150000*%
%ADD12C,0.254000*%
%ADD13C,0.100000*%
G04 APERTURE END LIST*
D10*
X199250000Y-147000000D02*
G75*
G03*
X194750000Y-147000000I-2250000J0D01*
G01*
X194750000Y-147000000D02*
G75*
G03*
X199250000Y-147000000I2250000J0D01*
G01*
X198000000Y-70000000D02*
G75*
G03*
X193500000Y-70000000I-2250000J0D01*
G01*
X193500000Y-70000000D02*
G75*
G03*
X198000000Y-70000000I2250000J0D01*
G01*
X167500000Y-70000000D02*
G75*
G03*
X163000000Y-70000000I-2250000J0D01*
G01*
X163000000Y-70000000D02*
G75*
G03*
X167500000Y-70000000I2250000J0D01*
G01*
X166250000Y-147000000D02*
G75*
G03*
X161750000Y-147000000I-2250000J0D01*
G01*
X161750000Y-147000000D02*
G75*
G03*
X166250000Y-147000000I2250000J0D01*
G01*
X165309522Y-96452219D02*
X165309522Y-95452219D01*
X165738093Y-96452219D02*
X165738093Y-95928409D01*
X165738093Y-95928409D02*
X165690474Y-95833171D01*
X165690474Y-95833171D02*
X165595236Y-95785552D01*
X165595236Y-95785552D02*
X165452379Y-95785552D01*
X165452379Y-95785552D02*
X165357141Y-95833171D01*
X165357141Y-95833171D02*
X165309522Y-95880790D01*
X166071427Y-95785552D02*
X166452379Y-95785552D01*
X166214284Y-95452219D02*
X166214284Y-96309361D01*
X166214284Y-96309361D02*
X166261903Y-96404600D01*
X166261903Y-96404600D02*
X166357141Y-96452219D01*
X166357141Y-96452219D02*
X166452379Y-96452219D01*
X166642856Y-95785552D02*
X167023808Y-95785552D01*
X166785713Y-95452219D02*
X166785713Y-96309361D01*
X166785713Y-96309361D02*
X166833332Y-96404600D01*
X166833332Y-96404600D02*
X166928570Y-96452219D01*
X166928570Y-96452219D02*
X167023808Y-96452219D01*
X167357142Y-95785552D02*
X167357142Y-96785552D01*
X167357142Y-95833171D02*
X167452380Y-95785552D01*
X167452380Y-95785552D02*
X167642856Y-95785552D01*
X167642856Y-95785552D02*
X167738094Y-95833171D01*
X167738094Y-95833171D02*
X167785713Y-95880790D01*
X167785713Y-95880790D02*
X167833332Y-95976028D01*
X167833332Y-95976028D02*
X167833332Y-96261742D01*
X167833332Y-96261742D02*
X167785713Y-96356980D01*
X167785713Y-96356980D02*
X167738094Y-96404600D01*
X167738094Y-96404600D02*
X167642856Y-96452219D01*
X167642856Y-96452219D02*
X167452380Y-96452219D01*
X167452380Y-96452219D02*
X167357142Y-96404600D01*
X168214285Y-96404600D02*
X168309523Y-96452219D01*
X168309523Y-96452219D02*
X168499999Y-96452219D01*
X168499999Y-96452219D02*
X168595237Y-96404600D01*
X168595237Y-96404600D02*
X168642856Y-96309361D01*
X168642856Y-96309361D02*
X168642856Y-96261742D01*
X168642856Y-96261742D02*
X168595237Y-96166504D01*
X168595237Y-96166504D02*
X168499999Y-96118885D01*
X168499999Y-96118885D02*
X168357142Y-96118885D01*
X168357142Y-96118885D02*
X168261904Y-96071266D01*
X168261904Y-96071266D02*
X168214285Y-95976028D01*
X168214285Y-95976028D02*
X168214285Y-95928409D01*
X168214285Y-95928409D02*
X168261904Y-95833171D01*
X168261904Y-95833171D02*
X168357142Y-95785552D01*
X168357142Y-95785552D02*
X168499999Y-95785552D01*
X168499999Y-95785552D02*
X168595237Y-95833171D01*
X169071428Y-96356980D02*
X169119047Y-96404600D01*
X169119047Y-96404600D02*
X169071428Y-96452219D01*
X169071428Y-96452219D02*
X169023809Y-96404600D01*
X169023809Y-96404600D02*
X169071428Y-96356980D01*
X169071428Y-96356980D02*
X169071428Y-96452219D01*
X169071428Y-95833171D02*
X169119047Y-95880790D01*
X169119047Y-95880790D02*
X169071428Y-95928409D01*
X169071428Y-95928409D02*
X169023809Y-95880790D01*
X169023809Y-95880790D02*
X169071428Y-95833171D01*
X169071428Y-95833171D02*
X169071428Y-95928409D01*
X170261903Y-95404600D02*
X169404761Y-96690314D01*
X171309522Y-95404600D02*
X170452380Y-96690314D01*
X172071427Y-95785552D02*
X172071427Y-96595076D01*
X172071427Y-96595076D02*
X172023808Y-96690314D01*
X172023808Y-96690314D02*
X171976189Y-96737933D01*
X171976189Y-96737933D02*
X171880951Y-96785552D01*
X171880951Y-96785552D02*
X171738094Y-96785552D01*
X171738094Y-96785552D02*
X171642856Y-96737933D01*
X172071427Y-96404600D02*
X171976189Y-96452219D01*
X171976189Y-96452219D02*
X171785713Y-96452219D01*
X171785713Y-96452219D02*
X171690475Y-96404600D01*
X171690475Y-96404600D02*
X171642856Y-96356980D01*
X171642856Y-96356980D02*
X171595237Y-96261742D01*
X171595237Y-96261742D02*
X171595237Y-95976028D01*
X171595237Y-95976028D02*
X171642856Y-95880790D01*
X171642856Y-95880790D02*
X171690475Y-95833171D01*
X171690475Y-95833171D02*
X171785713Y-95785552D01*
X171785713Y-95785552D02*
X171976189Y-95785552D01*
X171976189Y-95785552D02*
X172071427Y-95833171D01*
X172547618Y-96452219D02*
X172547618Y-95785552D01*
X172547618Y-95452219D02*
X172499999Y-95499838D01*
X172499999Y-95499838D02*
X172547618Y-95547457D01*
X172547618Y-95547457D02*
X172595237Y-95499838D01*
X172595237Y-95499838D02*
X172547618Y-95452219D01*
X172547618Y-95452219D02*
X172547618Y-95547457D01*
X172880951Y-95785552D02*
X173261903Y-95785552D01*
X173023808Y-95452219D02*
X173023808Y-96309361D01*
X173023808Y-96309361D02*
X173071427Y-96404600D01*
X173071427Y-96404600D02*
X173166665Y-96452219D01*
X173166665Y-96452219D02*
X173261903Y-96452219D01*
X173595237Y-96452219D02*
X173595237Y-95452219D01*
X174023808Y-96452219D02*
X174023808Y-95928409D01*
X174023808Y-95928409D02*
X173976189Y-95833171D01*
X173976189Y-95833171D02*
X173880951Y-95785552D01*
X173880951Y-95785552D02*
X173738094Y-95785552D01*
X173738094Y-95785552D02*
X173642856Y-95833171D01*
X173642856Y-95833171D02*
X173595237Y-95880790D01*
X174928570Y-95785552D02*
X174928570Y-96452219D01*
X174499999Y-95785552D02*
X174499999Y-96309361D01*
X174499999Y-96309361D02*
X174547618Y-96404600D01*
X174547618Y-96404600D02*
X174642856Y-96452219D01*
X174642856Y-96452219D02*
X174785713Y-96452219D01*
X174785713Y-96452219D02*
X174880951Y-96404600D01*
X174880951Y-96404600D02*
X174928570Y-96356980D01*
X175404761Y-96452219D02*
X175404761Y-95452219D01*
X175404761Y-95833171D02*
X175499999Y-95785552D01*
X175499999Y-95785552D02*
X175690475Y-95785552D01*
X175690475Y-95785552D02*
X175785713Y-95833171D01*
X175785713Y-95833171D02*
X175833332Y-95880790D01*
X175833332Y-95880790D02*
X175880951Y-95976028D01*
X175880951Y-95976028D02*
X175880951Y-96261742D01*
X175880951Y-96261742D02*
X175833332Y-96356980D01*
X175833332Y-96356980D02*
X175785713Y-96404600D01*
X175785713Y-96404600D02*
X175690475Y-96452219D01*
X175690475Y-96452219D02*
X175499999Y-96452219D01*
X175499999Y-96452219D02*
X175404761Y-96404600D01*
X176309523Y-96356980D02*
X176357142Y-96404600D01*
X176357142Y-96404600D02*
X176309523Y-96452219D01*
X176309523Y-96452219D02*
X176261904Y-96404600D01*
X176261904Y-96404600D02*
X176309523Y-96356980D01*
X176309523Y-96356980D02*
X176309523Y-96452219D01*
X177214284Y-96404600D02*
X177119046Y-96452219D01*
X177119046Y-96452219D02*
X176928570Y-96452219D01*
X176928570Y-96452219D02*
X176833332Y-96404600D01*
X176833332Y-96404600D02*
X176785713Y-96356980D01*
X176785713Y-96356980D02*
X176738094Y-96261742D01*
X176738094Y-96261742D02*
X176738094Y-95976028D01*
X176738094Y-95976028D02*
X176785713Y-95880790D01*
X176785713Y-95880790D02*
X176833332Y-95833171D01*
X176833332Y-95833171D02*
X176928570Y-95785552D01*
X176928570Y-95785552D02*
X177119046Y-95785552D01*
X177119046Y-95785552D02*
X177214284Y-95833171D01*
X177785713Y-96452219D02*
X177690475Y-96404600D01*
X177690475Y-96404600D02*
X177642856Y-96356980D01*
X177642856Y-96356980D02*
X177595237Y-96261742D01*
X177595237Y-96261742D02*
X177595237Y-95976028D01*
X177595237Y-95976028D02*
X177642856Y-95880790D01*
X177642856Y-95880790D02*
X177690475Y-95833171D01*
X177690475Y-95833171D02*
X177785713Y-95785552D01*
X177785713Y-95785552D02*
X177928570Y-95785552D01*
X177928570Y-95785552D02*
X178023808Y-95833171D01*
X178023808Y-95833171D02*
X178071427Y-95880790D01*
X178071427Y-95880790D02*
X178119046Y-95976028D01*
X178119046Y-95976028D02*
X178119046Y-96261742D01*
X178119046Y-96261742D02*
X178071427Y-96356980D01*
X178071427Y-96356980D02*
X178023808Y-96404600D01*
X178023808Y-96404600D02*
X177928570Y-96452219D01*
X177928570Y-96452219D02*
X177785713Y-96452219D01*
X178547618Y-96452219D02*
X178547618Y-95785552D01*
X178547618Y-95880790D02*
X178595237Y-95833171D01*
X178595237Y-95833171D02*
X178690475Y-95785552D01*
X178690475Y-95785552D02*
X178833332Y-95785552D01*
X178833332Y-95785552D02*
X178928570Y-95833171D01*
X178928570Y-95833171D02*
X178976189Y-95928409D01*
X178976189Y-95928409D02*
X178976189Y-96452219D01*
X178976189Y-95928409D02*
X179023808Y-95833171D01*
X179023808Y-95833171D02*
X179119046Y-95785552D01*
X179119046Y-95785552D02*
X179261903Y-95785552D01*
X179261903Y-95785552D02*
X179357142Y-95833171D01*
X179357142Y-95833171D02*
X179404761Y-95928409D01*
X179404761Y-95928409D02*
X179404761Y-96452219D01*
X180595236Y-95404600D02*
X179738094Y-96690314D01*
X180880951Y-96166504D02*
X181357141Y-96166504D01*
X180785713Y-96452219D02*
X181119046Y-95452219D01*
X181119046Y-95452219D02*
X181452379Y-96452219D01*
X181690475Y-96452219D02*
X182214284Y-95785552D01*
X181690475Y-95785552D02*
X182214284Y-96452219D01*
X182499999Y-96452219D02*
X183023808Y-95785552D01*
X182499999Y-95785552D02*
X183023808Y-96452219D01*
X183357142Y-96166504D02*
X183833332Y-96166504D01*
X183261904Y-96452219D02*
X183595237Y-95452219D01*
X183595237Y-95452219D02*
X183928570Y-96452219D01*
X184166666Y-96452219D02*
X184690475Y-95785552D01*
X184166666Y-95785552D02*
X184690475Y-96452219D01*
X184976190Y-96452219D02*
X185499999Y-95785552D01*
X184976190Y-95785552D02*
X185499999Y-96452219D01*
X186595237Y-95404600D02*
X185738095Y-96690314D01*
X186880952Y-96166504D02*
X187357142Y-96166504D01*
X186785714Y-96452219D02*
X187119047Y-95452219D01*
X187119047Y-95452219D02*
X187452380Y-96452219D01*
X187690476Y-96452219D02*
X188214285Y-95785552D01*
X187690476Y-95785552D02*
X188214285Y-96452219D01*
X188500000Y-96452219D02*
X189023809Y-95785552D01*
X188500000Y-95785552D02*
X189023809Y-96452219D01*
X189357143Y-96404600D02*
X189500000Y-96452219D01*
X189500000Y-96452219D02*
X189738095Y-96452219D01*
X189738095Y-96452219D02*
X189833333Y-96404600D01*
X189833333Y-96404600D02*
X189880952Y-96356980D01*
X189880952Y-96356980D02*
X189928571Y-96261742D01*
X189928571Y-96261742D02*
X189928571Y-96166504D01*
X189928571Y-96166504D02*
X189880952Y-96071266D01*
X189880952Y-96071266D02*
X189833333Y-96023647D01*
X189833333Y-96023647D02*
X189738095Y-95976028D01*
X189738095Y-95976028D02*
X189547619Y-95928409D01*
X189547619Y-95928409D02*
X189452381Y-95880790D01*
X189452381Y-95880790D02*
X189404762Y-95833171D01*
X189404762Y-95833171D02*
X189357143Y-95737933D01*
X189357143Y-95737933D02*
X189357143Y-95642695D01*
X189357143Y-95642695D02*
X189404762Y-95547457D01*
X189404762Y-95547457D02*
X189452381Y-95499838D01*
X189452381Y-95499838D02*
X189547619Y-95452219D01*
X189547619Y-95452219D02*
X189785714Y-95452219D01*
X189785714Y-95452219D02*
X189928571Y-95499838D01*
X190500000Y-96452219D02*
X190404762Y-96404600D01*
X190404762Y-96404600D02*
X190357143Y-96356980D01*
X190357143Y-96356980D02*
X190309524Y-96261742D01*
X190309524Y-96261742D02*
X190309524Y-95976028D01*
X190309524Y-95976028D02*
X190357143Y-95880790D01*
X190357143Y-95880790D02*
X190404762Y-95833171D01*
X190404762Y-95833171D02*
X190500000Y-95785552D01*
X190500000Y-95785552D02*
X190642857Y-95785552D01*
X190642857Y-95785552D02*
X190738095Y-95833171D01*
X190738095Y-95833171D02*
X190785714Y-95880790D01*
X190785714Y-95880790D02*
X190833333Y-95976028D01*
X190833333Y-95976028D02*
X190833333Y-96261742D01*
X190833333Y-96261742D02*
X190785714Y-96356980D01*
X190785714Y-96356980D02*
X190738095Y-96404600D01*
X190738095Y-96404600D02*
X190642857Y-96452219D01*
X190642857Y-96452219D02*
X190500000Y-96452219D01*
X191404762Y-96452219D02*
X191309524Y-96404600D01*
X191309524Y-96404600D02*
X191261905Y-96309361D01*
X191261905Y-96309361D02*
X191261905Y-95452219D01*
X192214286Y-96452219D02*
X192214286Y-95452219D01*
X192214286Y-96404600D02*
X192119048Y-96452219D01*
X192119048Y-96452219D02*
X191928572Y-96452219D01*
X191928572Y-96452219D02*
X191833334Y-96404600D01*
X191833334Y-96404600D02*
X191785715Y-96356980D01*
X191785715Y-96356980D02*
X191738096Y-96261742D01*
X191738096Y-96261742D02*
X191738096Y-95976028D01*
X191738096Y-95976028D02*
X191785715Y-95880790D01*
X191785715Y-95880790D02*
X191833334Y-95833171D01*
X191833334Y-95833171D02*
X191928572Y-95785552D01*
X191928572Y-95785552D02*
X192119048Y-95785552D01*
X192119048Y-95785552D02*
X192214286Y-95833171D01*
X193071429Y-96404600D02*
X192976191Y-96452219D01*
X192976191Y-96452219D02*
X192785715Y-96452219D01*
X192785715Y-96452219D02*
X192690477Y-96404600D01*
X192690477Y-96404600D02*
X192642858Y-96309361D01*
X192642858Y-96309361D02*
X192642858Y-95928409D01*
X192642858Y-95928409D02*
X192690477Y-95833171D01*
X192690477Y-95833171D02*
X192785715Y-95785552D01*
X192785715Y-95785552D02*
X192976191Y-95785552D01*
X192976191Y-95785552D02*
X193071429Y-95833171D01*
X193071429Y-95833171D02*
X193119048Y-95928409D01*
X193119048Y-95928409D02*
X193119048Y-96023647D01*
X193119048Y-96023647D02*
X192642858Y-96118885D01*
X193547620Y-96452219D02*
X193547620Y-95785552D01*
X193547620Y-95976028D02*
X193595239Y-95880790D01*
X193595239Y-95880790D02*
X193642858Y-95833171D01*
X193642858Y-95833171D02*
X193738096Y-95785552D01*
X193738096Y-95785552D02*
X193833334Y-95785552D01*
X168328571Y-68452219D02*
X168566666Y-69452219D01*
X168566666Y-69452219D02*
X168757142Y-68737933D01*
X168757142Y-68737933D02*
X168947618Y-69452219D01*
X168947618Y-69452219D02*
X169185714Y-68452219D01*
X169995237Y-69452219D02*
X169995237Y-68928409D01*
X169995237Y-68928409D02*
X169947618Y-68833171D01*
X169947618Y-68833171D02*
X169852380Y-68785552D01*
X169852380Y-68785552D02*
X169661904Y-68785552D01*
X169661904Y-68785552D02*
X169566666Y-68833171D01*
X169995237Y-69404600D02*
X169899999Y-69452219D01*
X169899999Y-69452219D02*
X169661904Y-69452219D01*
X169661904Y-69452219D02*
X169566666Y-69404600D01*
X169566666Y-69404600D02*
X169519047Y-69309361D01*
X169519047Y-69309361D02*
X169519047Y-69214123D01*
X169519047Y-69214123D02*
X169566666Y-69118885D01*
X169566666Y-69118885D02*
X169661904Y-69071266D01*
X169661904Y-69071266D02*
X169899999Y-69071266D01*
X169899999Y-69071266D02*
X169995237Y-69023647D01*
X170376190Y-68785552D02*
X170614285Y-69452219D01*
X170852380Y-68785552D02*
X170614285Y-69452219D01*
X170614285Y-69452219D02*
X170519047Y-69690314D01*
X170519047Y-69690314D02*
X170471428Y-69737933D01*
X170471428Y-69737933D02*
X170376190Y-69785552D01*
X171138095Y-68452219D02*
X171376190Y-69452219D01*
X171376190Y-69452219D02*
X171566666Y-68737933D01*
X171566666Y-68737933D02*
X171757142Y-69452219D01*
X171757142Y-69452219D02*
X171995238Y-68452219D01*
X172804761Y-69452219D02*
X172804761Y-68928409D01*
X172804761Y-68928409D02*
X172757142Y-68833171D01*
X172757142Y-68833171D02*
X172661904Y-68785552D01*
X172661904Y-68785552D02*
X172471428Y-68785552D01*
X172471428Y-68785552D02*
X172376190Y-68833171D01*
X172804761Y-69404600D02*
X172709523Y-69452219D01*
X172709523Y-69452219D02*
X172471428Y-69452219D01*
X172471428Y-69452219D02*
X172376190Y-69404600D01*
X172376190Y-69404600D02*
X172328571Y-69309361D01*
X172328571Y-69309361D02*
X172328571Y-69214123D01*
X172328571Y-69214123D02*
X172376190Y-69118885D01*
X172376190Y-69118885D02*
X172471428Y-69071266D01*
X172471428Y-69071266D02*
X172709523Y-69071266D01*
X172709523Y-69071266D02*
X172804761Y-69023647D01*
X173185714Y-68785552D02*
X173423809Y-69452219D01*
X173661904Y-68785552D02*
X173423809Y-69452219D01*
X173423809Y-69452219D02*
X173328571Y-69690314D01*
X173328571Y-69690314D02*
X173280952Y-69737933D01*
X173280952Y-69737933D02*
X173185714Y-69785552D01*
X173947619Y-68452219D02*
X174185714Y-69452219D01*
X174185714Y-69452219D02*
X174376190Y-68737933D01*
X174376190Y-68737933D02*
X174566666Y-69452219D01*
X174566666Y-69452219D02*
X174804762Y-68452219D01*
X175614285Y-69452219D02*
X175614285Y-68928409D01*
X175614285Y-68928409D02*
X175566666Y-68833171D01*
X175566666Y-68833171D02*
X175471428Y-68785552D01*
X175471428Y-68785552D02*
X175280952Y-68785552D01*
X175280952Y-68785552D02*
X175185714Y-68833171D01*
X175614285Y-69404600D02*
X175519047Y-69452219D01*
X175519047Y-69452219D02*
X175280952Y-69452219D01*
X175280952Y-69452219D02*
X175185714Y-69404600D01*
X175185714Y-69404600D02*
X175138095Y-69309361D01*
X175138095Y-69309361D02*
X175138095Y-69214123D01*
X175138095Y-69214123D02*
X175185714Y-69118885D01*
X175185714Y-69118885D02*
X175280952Y-69071266D01*
X175280952Y-69071266D02*
X175519047Y-69071266D01*
X175519047Y-69071266D02*
X175614285Y-69023647D01*
X175995238Y-68785552D02*
X176233333Y-69452219D01*
X176471428Y-68785552D02*
X176233333Y-69452219D01*
X176233333Y-69452219D02*
X176138095Y-69690314D01*
X176138095Y-69690314D02*
X176090476Y-69737933D01*
X176090476Y-69737933D02*
X175995238Y-69785552D01*
X165190476Y-73285552D02*
X164428571Y-73571266D01*
X164428571Y-73571266D02*
X165190476Y-73856980D01*
X165666666Y-73571266D02*
X166428571Y-73571266D01*
X166904761Y-73571266D02*
X167666666Y-73571266D01*
X168142856Y-73571266D02*
X168904761Y-73571266D01*
X169380951Y-73571266D02*
X170142856Y-73571266D01*
X174380952Y-73904600D02*
X174523809Y-73952219D01*
X174523809Y-73952219D02*
X174761904Y-73952219D01*
X174761904Y-73952219D02*
X174857142Y-73904600D01*
X174857142Y-73904600D02*
X174904761Y-73856980D01*
X174904761Y-73856980D02*
X174952380Y-73761742D01*
X174952380Y-73761742D02*
X174952380Y-73666504D01*
X174952380Y-73666504D02*
X174904761Y-73571266D01*
X174904761Y-73571266D02*
X174857142Y-73523647D01*
X174857142Y-73523647D02*
X174761904Y-73476028D01*
X174761904Y-73476028D02*
X174571428Y-73428409D01*
X174571428Y-73428409D02*
X174476190Y-73380790D01*
X174476190Y-73380790D02*
X174428571Y-73333171D01*
X174428571Y-73333171D02*
X174380952Y-73237933D01*
X174380952Y-73237933D02*
X174380952Y-73142695D01*
X174380952Y-73142695D02*
X174428571Y-73047457D01*
X174428571Y-73047457D02*
X174476190Y-72999838D01*
X174476190Y-72999838D02*
X174571428Y-72952219D01*
X174571428Y-72952219D02*
X174809523Y-72952219D01*
X174809523Y-72952219D02*
X174952380Y-72999838D01*
X175952380Y-73856980D02*
X175904761Y-73904600D01*
X175904761Y-73904600D02*
X175761904Y-73952219D01*
X175761904Y-73952219D02*
X175666666Y-73952219D01*
X175666666Y-73952219D02*
X175523809Y-73904600D01*
X175523809Y-73904600D02*
X175428571Y-73809361D01*
X175428571Y-73809361D02*
X175380952Y-73714123D01*
X175380952Y-73714123D02*
X175333333Y-73523647D01*
X175333333Y-73523647D02*
X175333333Y-73380790D01*
X175333333Y-73380790D02*
X175380952Y-73190314D01*
X175380952Y-73190314D02*
X175428571Y-73095076D01*
X175428571Y-73095076D02*
X175523809Y-72999838D01*
X175523809Y-72999838D02*
X175666666Y-72952219D01*
X175666666Y-72952219D02*
X175761904Y-72952219D01*
X175761904Y-72952219D02*
X175904761Y-72999838D01*
X175904761Y-72999838D02*
X175952380Y-73047457D01*
X176952380Y-73952219D02*
X176619047Y-73476028D01*
X176380952Y-73952219D02*
X176380952Y-72952219D01*
X176380952Y-72952219D02*
X176761904Y-72952219D01*
X176761904Y-72952219D02*
X176857142Y-72999838D01*
X176857142Y-72999838D02*
X176904761Y-73047457D01*
X176904761Y-73047457D02*
X176952380Y-73142695D01*
X176952380Y-73142695D02*
X176952380Y-73285552D01*
X176952380Y-73285552D02*
X176904761Y-73380790D01*
X176904761Y-73380790D02*
X176857142Y-73428409D01*
X176857142Y-73428409D02*
X176761904Y-73476028D01*
X176761904Y-73476028D02*
X176380952Y-73476028D01*
X177380952Y-73428409D02*
X177714285Y-73428409D01*
X177857142Y-73952219D02*
X177380952Y-73952219D01*
X177380952Y-73952219D02*
X177380952Y-72952219D01*
X177380952Y-72952219D02*
X177857142Y-72952219D01*
X178285714Y-73428409D02*
X178619047Y-73428409D01*
X178761904Y-73952219D02*
X178285714Y-73952219D01*
X178285714Y-73952219D02*
X178285714Y-72952219D01*
X178285714Y-72952219D02*
X178761904Y-72952219D01*
X179190476Y-73952219D02*
X179190476Y-72952219D01*
X179190476Y-72952219D02*
X179761904Y-73952219D01*
X179761904Y-73952219D02*
X179761904Y-72952219D01*
X180952381Y-73904600D02*
X181095238Y-73952219D01*
X181095238Y-73952219D02*
X181333333Y-73952219D01*
X181333333Y-73952219D02*
X181428571Y-73904600D01*
X181428571Y-73904600D02*
X181476190Y-73856980D01*
X181476190Y-73856980D02*
X181523809Y-73761742D01*
X181523809Y-73761742D02*
X181523809Y-73666504D01*
X181523809Y-73666504D02*
X181476190Y-73571266D01*
X181476190Y-73571266D02*
X181428571Y-73523647D01*
X181428571Y-73523647D02*
X181333333Y-73476028D01*
X181333333Y-73476028D02*
X181142857Y-73428409D01*
X181142857Y-73428409D02*
X181047619Y-73380790D01*
X181047619Y-73380790D02*
X181000000Y-73333171D01*
X181000000Y-73333171D02*
X180952381Y-73237933D01*
X180952381Y-73237933D02*
X180952381Y-73142695D01*
X180952381Y-73142695D02*
X181000000Y-73047457D01*
X181000000Y-73047457D02*
X181047619Y-72999838D01*
X181047619Y-72999838D02*
X181142857Y-72952219D01*
X181142857Y-72952219D02*
X181380952Y-72952219D01*
X181380952Y-72952219D02*
X181523809Y-72999838D01*
X181952381Y-72952219D02*
X181952381Y-73761742D01*
X181952381Y-73761742D02*
X182000000Y-73856980D01*
X182000000Y-73856980D02*
X182047619Y-73904600D01*
X182047619Y-73904600D02*
X182142857Y-73952219D01*
X182142857Y-73952219D02*
X182333333Y-73952219D01*
X182333333Y-73952219D02*
X182428571Y-73904600D01*
X182428571Y-73904600D02*
X182476190Y-73856980D01*
X182476190Y-73856980D02*
X182523809Y-73761742D01*
X182523809Y-73761742D02*
X182523809Y-72952219D01*
X183000000Y-73952219D02*
X183000000Y-72952219D01*
X183000000Y-72952219D02*
X183380952Y-72952219D01*
X183380952Y-72952219D02*
X183476190Y-72999838D01*
X183476190Y-72999838D02*
X183523809Y-73047457D01*
X183523809Y-73047457D02*
X183571428Y-73142695D01*
X183571428Y-73142695D02*
X183571428Y-73285552D01*
X183571428Y-73285552D02*
X183523809Y-73380790D01*
X183523809Y-73380790D02*
X183476190Y-73428409D01*
X183476190Y-73428409D02*
X183380952Y-73476028D01*
X183380952Y-73476028D02*
X183000000Y-73476028D01*
X184000000Y-73952219D02*
X184000000Y-72952219D01*
X184000000Y-72952219D02*
X184380952Y-72952219D01*
X184380952Y-72952219D02*
X184476190Y-72999838D01*
X184476190Y-72999838D02*
X184523809Y-73047457D01*
X184523809Y-73047457D02*
X184571428Y-73142695D01*
X184571428Y-73142695D02*
X184571428Y-73285552D01*
X184571428Y-73285552D02*
X184523809Y-73380790D01*
X184523809Y-73380790D02*
X184476190Y-73428409D01*
X184476190Y-73428409D02*
X184380952Y-73476028D01*
X184380952Y-73476028D02*
X184000000Y-73476028D01*
X185190476Y-72952219D02*
X185380952Y-72952219D01*
X185380952Y-72952219D02*
X185476190Y-72999838D01*
X185476190Y-72999838D02*
X185571428Y-73095076D01*
X185571428Y-73095076D02*
X185619047Y-73285552D01*
X185619047Y-73285552D02*
X185619047Y-73618885D01*
X185619047Y-73618885D02*
X185571428Y-73809361D01*
X185571428Y-73809361D02*
X185476190Y-73904600D01*
X185476190Y-73904600D02*
X185380952Y-73952219D01*
X185380952Y-73952219D02*
X185190476Y-73952219D01*
X185190476Y-73952219D02*
X185095238Y-73904600D01*
X185095238Y-73904600D02*
X185000000Y-73809361D01*
X185000000Y-73809361D02*
X184952381Y-73618885D01*
X184952381Y-73618885D02*
X184952381Y-73285552D01*
X184952381Y-73285552D02*
X185000000Y-73095076D01*
X185000000Y-73095076D02*
X185095238Y-72999838D01*
X185095238Y-72999838D02*
X185190476Y-72952219D01*
X186619047Y-73952219D02*
X186285714Y-73476028D01*
X186047619Y-73952219D02*
X186047619Y-72952219D01*
X186047619Y-72952219D02*
X186428571Y-72952219D01*
X186428571Y-72952219D02*
X186523809Y-72999838D01*
X186523809Y-72999838D02*
X186571428Y-73047457D01*
X186571428Y-73047457D02*
X186619047Y-73142695D01*
X186619047Y-73142695D02*
X186619047Y-73285552D01*
X186619047Y-73285552D02*
X186571428Y-73380790D01*
X186571428Y-73380790D02*
X186523809Y-73428409D01*
X186523809Y-73428409D02*
X186428571Y-73476028D01*
X186428571Y-73476028D02*
X186047619Y-73476028D01*
X186904762Y-72952219D02*
X187476190Y-72952219D01*
X187190476Y-73952219D02*
X187190476Y-72952219D01*
X190857144Y-73571266D02*
X191619049Y-73571266D01*
X192095239Y-73571266D02*
X192857144Y-73571266D01*
X193333334Y-73571266D02*
X194095239Y-73571266D01*
X194571429Y-73571266D02*
X195333334Y-73571266D01*
X195809524Y-73285552D02*
X196571429Y-73571266D01*
X196571429Y-73571266D02*
X195809524Y-73856980D01*
D11*
X194755826Y-129875247D02*
X194870112Y-129913342D01*
X194870112Y-129913342D02*
X194908207Y-129951438D01*
X194908207Y-129951438D02*
X194946303Y-130027628D01*
X194946303Y-130027628D02*
X194946303Y-130141914D01*
X194946303Y-130141914D02*
X194908207Y-130218104D01*
X194908207Y-130218104D02*
X194870112Y-130256200D01*
X194870112Y-130256200D02*
X194793922Y-130294295D01*
X194793922Y-130294295D02*
X194489160Y-130294295D01*
X194489160Y-130294295D02*
X194489160Y-129494295D01*
X194489160Y-129494295D02*
X194755826Y-129494295D01*
X194755826Y-129494295D02*
X194832017Y-129532390D01*
X194832017Y-129532390D02*
X194870112Y-129570485D01*
X194870112Y-129570485D02*
X194908207Y-129646676D01*
X194908207Y-129646676D02*
X194908207Y-129722866D01*
X194908207Y-129722866D02*
X194870112Y-129799057D01*
X194870112Y-129799057D02*
X194832017Y-129837152D01*
X194832017Y-129837152D02*
X194755826Y-129875247D01*
X194755826Y-129875247D02*
X194489160Y-129875247D01*
X195441541Y-129494295D02*
X195593922Y-129494295D01*
X195593922Y-129494295D02*
X195670112Y-129532390D01*
X195670112Y-129532390D02*
X195746303Y-129608580D01*
X195746303Y-129608580D02*
X195784398Y-129760961D01*
X195784398Y-129760961D02*
X195784398Y-130027628D01*
X195784398Y-130027628D02*
X195746303Y-130180009D01*
X195746303Y-130180009D02*
X195670112Y-130256200D01*
X195670112Y-130256200D02*
X195593922Y-130294295D01*
X195593922Y-130294295D02*
X195441541Y-130294295D01*
X195441541Y-130294295D02*
X195365350Y-130256200D01*
X195365350Y-130256200D02*
X195289160Y-130180009D01*
X195289160Y-130180009D02*
X195251064Y-130027628D01*
X195251064Y-130027628D02*
X195251064Y-129760961D01*
X195251064Y-129760961D02*
X195289160Y-129608580D01*
X195289160Y-129608580D02*
X195365350Y-129532390D01*
X195365350Y-129532390D02*
X195441541Y-129494295D01*
X196279636Y-129494295D02*
X196432017Y-129494295D01*
X196432017Y-129494295D02*
X196508207Y-129532390D01*
X196508207Y-129532390D02*
X196584398Y-129608580D01*
X196584398Y-129608580D02*
X196622493Y-129760961D01*
X196622493Y-129760961D02*
X196622493Y-130027628D01*
X196622493Y-130027628D02*
X196584398Y-130180009D01*
X196584398Y-130180009D02*
X196508207Y-130256200D01*
X196508207Y-130256200D02*
X196432017Y-130294295D01*
X196432017Y-130294295D02*
X196279636Y-130294295D01*
X196279636Y-130294295D02*
X196203445Y-130256200D01*
X196203445Y-130256200D02*
X196127255Y-130180009D01*
X196127255Y-130180009D02*
X196089159Y-130027628D01*
X196089159Y-130027628D02*
X196089159Y-129760961D01*
X196089159Y-129760961D02*
X196127255Y-129608580D01*
X196127255Y-129608580D02*
X196203445Y-129532390D01*
X196203445Y-129532390D02*
X196279636Y-129494295D01*
X196851064Y-129494295D02*
X197308207Y-129494295D01*
X197079635Y-130294295D02*
X197079635Y-129494295D01*
X197727255Y-129494295D02*
X197803445Y-129494295D01*
X197803445Y-129494295D02*
X197879636Y-129532390D01*
X197879636Y-129532390D02*
X197917731Y-129570485D01*
X197917731Y-129570485D02*
X197955826Y-129646676D01*
X197955826Y-129646676D02*
X197993921Y-129799057D01*
X197993921Y-129799057D02*
X197993921Y-129989533D01*
X197993921Y-129989533D02*
X197955826Y-130141914D01*
X197955826Y-130141914D02*
X197917731Y-130218104D01*
X197917731Y-130218104D02*
X197879636Y-130256200D01*
X197879636Y-130256200D02*
X197803445Y-130294295D01*
X197803445Y-130294295D02*
X197727255Y-130294295D01*
X197727255Y-130294295D02*
X197651064Y-130256200D01*
X197651064Y-130256200D02*
X197612969Y-130218104D01*
X197612969Y-130218104D02*
X197574874Y-130141914D01*
X197574874Y-130141914D02*
X197536778Y-129989533D01*
X197536778Y-129989533D02*
X197536778Y-129799057D01*
X197536778Y-129799057D02*
X197574874Y-129646676D01*
X197574874Y-129646676D02*
X197612969Y-129570485D01*
X197612969Y-129570485D02*
X197651064Y-129532390D01*
X197651064Y-129532390D02*
X197727255Y-129494295D01*
X167012969Y-147106295D02*
X167203445Y-147906295D01*
X167203445Y-147906295D02*
X167355826Y-147334866D01*
X167355826Y-147334866D02*
X167508207Y-147906295D01*
X167508207Y-147906295D02*
X167698684Y-147106295D01*
X168003446Y-147906295D02*
X168003446Y-147106295D01*
X168003446Y-147487247D02*
X168460589Y-147487247D01*
X168460589Y-147906295D02*
X168460589Y-147106295D01*
X168841541Y-147487247D02*
X169108207Y-147487247D01*
X169222493Y-147906295D02*
X168841541Y-147906295D01*
X168841541Y-147906295D02*
X168841541Y-147106295D01*
X168841541Y-147106295D02*
X169222493Y-147106295D01*
X169565351Y-147906295D02*
X169565351Y-147106295D01*
X169565351Y-147106295D02*
X170022494Y-147906295D01*
X170022494Y-147906295D02*
X170022494Y-147106295D01*
X170898684Y-147106295D02*
X171355827Y-147106295D01*
X171127255Y-147906295D02*
X171127255Y-147106295D01*
X171622494Y-147906295D02*
X171622494Y-147106295D01*
X172003446Y-147906295D02*
X172003446Y-147106295D01*
X172003446Y-147106295D02*
X172308208Y-147106295D01*
X172308208Y-147106295D02*
X172384398Y-147144390D01*
X172384398Y-147144390D02*
X172422493Y-147182485D01*
X172422493Y-147182485D02*
X172460589Y-147258676D01*
X172460589Y-147258676D02*
X172460589Y-147372961D01*
X172460589Y-147372961D02*
X172422493Y-147449152D01*
X172422493Y-147449152D02*
X172384398Y-147487247D01*
X172384398Y-147487247D02*
X172308208Y-147525342D01*
X172308208Y-147525342D02*
X172003446Y-147525342D01*
X173412970Y-147487247D02*
X173679636Y-147487247D01*
X173793922Y-147906295D02*
X173412970Y-147906295D01*
X173412970Y-147906295D02*
X173412970Y-147106295D01*
X173412970Y-147106295D02*
X173793922Y-147106295D01*
X174098684Y-147677723D02*
X174479637Y-147677723D01*
X174022494Y-147906295D02*
X174289161Y-147106295D01*
X174289161Y-147106295D02*
X174555827Y-147906295D01*
X175279637Y-147906295D02*
X175012970Y-147525342D01*
X174822494Y-147906295D02*
X174822494Y-147106295D01*
X174822494Y-147106295D02*
X175127256Y-147106295D01*
X175127256Y-147106295D02*
X175203446Y-147144390D01*
X175203446Y-147144390D02*
X175241541Y-147182485D01*
X175241541Y-147182485D02*
X175279637Y-147258676D01*
X175279637Y-147258676D02*
X175279637Y-147372961D01*
X175279637Y-147372961D02*
X175241541Y-147449152D01*
X175241541Y-147449152D02*
X175203446Y-147487247D01*
X175203446Y-147487247D02*
X175127256Y-147525342D01*
X175127256Y-147525342D02*
X174822494Y-147525342D01*
X175508208Y-147106295D02*
X175965351Y-147106295D01*
X175736779Y-147906295D02*
X175736779Y-147106295D01*
X176232018Y-147906295D02*
X176232018Y-147106295D01*
X176232018Y-147487247D02*
X176689161Y-147487247D01*
X176689161Y-147906295D02*
X176689161Y-147106295D01*
X177070113Y-147906295D02*
X177070113Y-147106295D01*
X177451065Y-147906295D02*
X177451065Y-147106295D01*
X177451065Y-147106295D02*
X177908208Y-147906295D01*
X177908208Y-147906295D02*
X177908208Y-147106295D01*
X178708207Y-147144390D02*
X178632017Y-147106295D01*
X178632017Y-147106295D02*
X178517731Y-147106295D01*
X178517731Y-147106295D02*
X178403445Y-147144390D01*
X178403445Y-147144390D02*
X178327255Y-147220580D01*
X178327255Y-147220580D02*
X178289160Y-147296771D01*
X178289160Y-147296771D02*
X178251064Y-147449152D01*
X178251064Y-147449152D02*
X178251064Y-147563438D01*
X178251064Y-147563438D02*
X178289160Y-147715819D01*
X178289160Y-147715819D02*
X178327255Y-147792009D01*
X178327255Y-147792009D02*
X178403445Y-147868200D01*
X178403445Y-147868200D02*
X178517731Y-147906295D01*
X178517731Y-147906295D02*
X178593922Y-147906295D01*
X178593922Y-147906295D02*
X178708207Y-147868200D01*
X178708207Y-147868200D02*
X178746303Y-147830104D01*
X178746303Y-147830104D02*
X178746303Y-147563438D01*
X178746303Y-147563438D02*
X178593922Y-147563438D01*
X179698684Y-147906295D02*
X179698684Y-147106295D01*
X180041540Y-147868200D02*
X180155826Y-147906295D01*
X180155826Y-147906295D02*
X180346302Y-147906295D01*
X180346302Y-147906295D02*
X180422493Y-147868200D01*
X180422493Y-147868200D02*
X180460588Y-147830104D01*
X180460588Y-147830104D02*
X180498683Y-147753914D01*
X180498683Y-147753914D02*
X180498683Y-147677723D01*
X180498683Y-147677723D02*
X180460588Y-147601533D01*
X180460588Y-147601533D02*
X180422493Y-147563438D01*
X180422493Y-147563438D02*
X180346302Y-147525342D01*
X180346302Y-147525342D02*
X180193921Y-147487247D01*
X180193921Y-147487247D02*
X180117731Y-147449152D01*
X180117731Y-147449152D02*
X180079636Y-147411057D01*
X180079636Y-147411057D02*
X180041540Y-147334866D01*
X180041540Y-147334866D02*
X180041540Y-147258676D01*
X180041540Y-147258676D02*
X180079636Y-147182485D01*
X180079636Y-147182485D02*
X180117731Y-147144390D01*
X180117731Y-147144390D02*
X180193921Y-147106295D01*
X180193921Y-147106295D02*
X180384398Y-147106295D01*
X180384398Y-147106295D02*
X180498683Y-147144390D01*
X181908208Y-147906295D02*
X181641541Y-147525342D01*
X181451065Y-147906295D02*
X181451065Y-147106295D01*
X181451065Y-147106295D02*
X181755827Y-147106295D01*
X181755827Y-147106295D02*
X181832017Y-147144390D01*
X181832017Y-147144390D02*
X181870112Y-147182485D01*
X181870112Y-147182485D02*
X181908208Y-147258676D01*
X181908208Y-147258676D02*
X181908208Y-147372961D01*
X181908208Y-147372961D02*
X181870112Y-147449152D01*
X181870112Y-147449152D02*
X181832017Y-147487247D01*
X181832017Y-147487247D02*
X181755827Y-147525342D01*
X181755827Y-147525342D02*
X181451065Y-147525342D01*
X182251065Y-147487247D02*
X182517731Y-147487247D01*
X182632017Y-147906295D02*
X182251065Y-147906295D01*
X182251065Y-147906295D02*
X182251065Y-147106295D01*
X182251065Y-147106295D02*
X182632017Y-147106295D01*
X183508208Y-147982485D02*
X183432018Y-147944390D01*
X183432018Y-147944390D02*
X183355827Y-147868200D01*
X183355827Y-147868200D02*
X183241541Y-147753914D01*
X183241541Y-147753914D02*
X183165351Y-147715819D01*
X183165351Y-147715819D02*
X183089160Y-147715819D01*
X183127256Y-147906295D02*
X183051065Y-147868200D01*
X183051065Y-147868200D02*
X182974875Y-147792009D01*
X182974875Y-147792009D02*
X182936779Y-147639628D01*
X182936779Y-147639628D02*
X182936779Y-147372961D01*
X182936779Y-147372961D02*
X182974875Y-147220580D01*
X182974875Y-147220580D02*
X183051065Y-147144390D01*
X183051065Y-147144390D02*
X183127256Y-147106295D01*
X183127256Y-147106295D02*
X183279637Y-147106295D01*
X183279637Y-147106295D02*
X183355827Y-147144390D01*
X183355827Y-147144390D02*
X183432018Y-147220580D01*
X183432018Y-147220580D02*
X183470113Y-147372961D01*
X183470113Y-147372961D02*
X183470113Y-147639628D01*
X183470113Y-147639628D02*
X183432018Y-147792009D01*
X183432018Y-147792009D02*
X183355827Y-147868200D01*
X183355827Y-147868200D02*
X183279637Y-147906295D01*
X183279637Y-147906295D02*
X183127256Y-147906295D01*
X183812970Y-147106295D02*
X183812970Y-147753914D01*
X183812970Y-147753914D02*
X183851065Y-147830104D01*
X183851065Y-147830104D02*
X183889160Y-147868200D01*
X183889160Y-147868200D02*
X183965351Y-147906295D01*
X183965351Y-147906295D02*
X184117732Y-147906295D01*
X184117732Y-147906295D02*
X184193922Y-147868200D01*
X184193922Y-147868200D02*
X184232017Y-147830104D01*
X184232017Y-147830104D02*
X184270113Y-147753914D01*
X184270113Y-147753914D02*
X184270113Y-147106295D01*
X184651065Y-147906295D02*
X184651065Y-147106295D01*
X185489160Y-147906295D02*
X185222493Y-147525342D01*
X185032017Y-147906295D02*
X185032017Y-147106295D01*
X185032017Y-147106295D02*
X185336779Y-147106295D01*
X185336779Y-147106295D02*
X185412969Y-147144390D01*
X185412969Y-147144390D02*
X185451064Y-147182485D01*
X185451064Y-147182485D02*
X185489160Y-147258676D01*
X185489160Y-147258676D02*
X185489160Y-147372961D01*
X185489160Y-147372961D02*
X185451064Y-147449152D01*
X185451064Y-147449152D02*
X185412969Y-147487247D01*
X185412969Y-147487247D02*
X185336779Y-147525342D01*
X185336779Y-147525342D02*
X185032017Y-147525342D01*
X185832017Y-147487247D02*
X186098683Y-147487247D01*
X186212969Y-147906295D02*
X185832017Y-147906295D01*
X185832017Y-147906295D02*
X185832017Y-147106295D01*
X185832017Y-147106295D02*
X186212969Y-147106295D01*
X186555827Y-147906295D02*
X186555827Y-147106295D01*
X186555827Y-147106295D02*
X186746303Y-147106295D01*
X186746303Y-147106295D02*
X186860589Y-147144390D01*
X186860589Y-147144390D02*
X186936779Y-147220580D01*
X186936779Y-147220580D02*
X186974874Y-147296771D01*
X186974874Y-147296771D02*
X187012970Y-147449152D01*
X187012970Y-147449152D02*
X187012970Y-147563438D01*
X187012970Y-147563438D02*
X186974874Y-147715819D01*
X186974874Y-147715819D02*
X186936779Y-147792009D01*
X186936779Y-147792009D02*
X186860589Y-147868200D01*
X186860589Y-147868200D02*
X186746303Y-147906295D01*
X186746303Y-147906295D02*
X186555827Y-147906295D01*
X187355827Y-147830104D02*
X187393922Y-147868200D01*
X187393922Y-147868200D02*
X187355827Y-147906295D01*
X187355827Y-147906295D02*
X187317731Y-147868200D01*
X187317731Y-147868200D02*
X187355827Y-147830104D01*
X187355827Y-147830104D02*
X187355827Y-147906295D01*
X187355827Y-147411057D02*
X187393922Y-147449152D01*
X187393922Y-147449152D02*
X187355827Y-147487247D01*
X187355827Y-147487247D02*
X187317731Y-147449152D01*
X187317731Y-147449152D02*
X187355827Y-147411057D01*
X187355827Y-147411057D02*
X187355827Y-147487247D01*
X167089160Y-148394295D02*
X167089160Y-149041914D01*
X167089160Y-149041914D02*
X167127255Y-149118104D01*
X167127255Y-149118104D02*
X167165350Y-149156200D01*
X167165350Y-149156200D02*
X167241541Y-149194295D01*
X167241541Y-149194295D02*
X167393922Y-149194295D01*
X167393922Y-149194295D02*
X167470112Y-149156200D01*
X167470112Y-149156200D02*
X167508207Y-149118104D01*
X167508207Y-149118104D02*
X167546303Y-149041914D01*
X167546303Y-149041914D02*
X167546303Y-148394295D01*
X167889159Y-149156200D02*
X168003445Y-149194295D01*
X168003445Y-149194295D02*
X168193921Y-149194295D01*
X168193921Y-149194295D02*
X168270112Y-149156200D01*
X168270112Y-149156200D02*
X168308207Y-149118104D01*
X168308207Y-149118104D02*
X168346302Y-149041914D01*
X168346302Y-149041914D02*
X168346302Y-148965723D01*
X168346302Y-148965723D02*
X168308207Y-148889533D01*
X168308207Y-148889533D02*
X168270112Y-148851438D01*
X168270112Y-148851438D02*
X168193921Y-148813342D01*
X168193921Y-148813342D02*
X168041540Y-148775247D01*
X168041540Y-148775247D02*
X167965350Y-148737152D01*
X167965350Y-148737152D02*
X167927255Y-148699057D01*
X167927255Y-148699057D02*
X167889159Y-148622866D01*
X167889159Y-148622866D02*
X167889159Y-148546676D01*
X167889159Y-148546676D02*
X167927255Y-148470485D01*
X167927255Y-148470485D02*
X167965350Y-148432390D01*
X167965350Y-148432390D02*
X168041540Y-148394295D01*
X168041540Y-148394295D02*
X168232017Y-148394295D01*
X168232017Y-148394295D02*
X168346302Y-148432390D01*
X168689160Y-148775247D02*
X168955826Y-148775247D01*
X169070112Y-149194295D02*
X168689160Y-149194295D01*
X168689160Y-149194295D02*
X168689160Y-148394295D01*
X168689160Y-148394295D02*
X169070112Y-148394295D01*
X169984398Y-148965723D02*
X170365351Y-148965723D01*
X169908208Y-149194295D02*
X170174875Y-148394295D01*
X170174875Y-148394295D02*
X170441541Y-149194295D01*
X171279636Y-149156200D02*
X171393922Y-149194295D01*
X171393922Y-149194295D02*
X171584398Y-149194295D01*
X171584398Y-149194295D02*
X171660589Y-149156200D01*
X171660589Y-149156200D02*
X171698684Y-149118104D01*
X171698684Y-149118104D02*
X171736779Y-149041914D01*
X171736779Y-149041914D02*
X171736779Y-148965723D01*
X171736779Y-148965723D02*
X171698684Y-148889533D01*
X171698684Y-148889533D02*
X171660589Y-148851438D01*
X171660589Y-148851438D02*
X171584398Y-148813342D01*
X171584398Y-148813342D02*
X171432017Y-148775247D01*
X171432017Y-148775247D02*
X171355827Y-148737152D01*
X171355827Y-148737152D02*
X171317732Y-148699057D01*
X171317732Y-148699057D02*
X171279636Y-148622866D01*
X171279636Y-148622866D02*
X171279636Y-148546676D01*
X171279636Y-148546676D02*
X171317732Y-148470485D01*
X171317732Y-148470485D02*
X171355827Y-148432390D01*
X171355827Y-148432390D02*
X171432017Y-148394295D01*
X171432017Y-148394295D02*
X171622494Y-148394295D01*
X171622494Y-148394295D02*
X171736779Y-148432390D01*
X172079637Y-148394295D02*
X172079637Y-149041914D01*
X172079637Y-149041914D02*
X172117732Y-149118104D01*
X172117732Y-149118104D02*
X172155827Y-149156200D01*
X172155827Y-149156200D02*
X172232018Y-149194295D01*
X172232018Y-149194295D02*
X172384399Y-149194295D01*
X172384399Y-149194295D02*
X172460589Y-149156200D01*
X172460589Y-149156200D02*
X172498684Y-149118104D01*
X172498684Y-149118104D02*
X172536780Y-149041914D01*
X172536780Y-149041914D02*
X172536780Y-148394295D01*
X172917732Y-149194295D02*
X172917732Y-148394295D01*
X172917732Y-148394295D02*
X173222494Y-148394295D01*
X173222494Y-148394295D02*
X173298684Y-148432390D01*
X173298684Y-148432390D02*
X173336779Y-148470485D01*
X173336779Y-148470485D02*
X173374875Y-148546676D01*
X173374875Y-148546676D02*
X173374875Y-148660961D01*
X173374875Y-148660961D02*
X173336779Y-148737152D01*
X173336779Y-148737152D02*
X173298684Y-148775247D01*
X173298684Y-148775247D02*
X173222494Y-148813342D01*
X173222494Y-148813342D02*
X172917732Y-148813342D01*
X173717732Y-149194295D02*
X173717732Y-148394295D01*
X173717732Y-148394295D02*
X174022494Y-148394295D01*
X174022494Y-148394295D02*
X174098684Y-148432390D01*
X174098684Y-148432390D02*
X174136779Y-148470485D01*
X174136779Y-148470485D02*
X174174875Y-148546676D01*
X174174875Y-148546676D02*
X174174875Y-148660961D01*
X174174875Y-148660961D02*
X174136779Y-148737152D01*
X174136779Y-148737152D02*
X174098684Y-148775247D01*
X174098684Y-148775247D02*
X174022494Y-148813342D01*
X174022494Y-148813342D02*
X173717732Y-148813342D01*
X174898684Y-149194295D02*
X174517732Y-149194295D01*
X174517732Y-149194295D02*
X174517732Y-148394295D01*
X175317732Y-148813342D02*
X175317732Y-149194295D01*
X175051065Y-148394295D02*
X175317732Y-148813342D01*
X175317732Y-148813342D02*
X175584398Y-148394295D01*
X176384398Y-148394295D02*
X176574874Y-149194295D01*
X176574874Y-149194295D02*
X176727255Y-148622866D01*
X176727255Y-148622866D02*
X176879636Y-149194295D01*
X176879636Y-149194295D02*
X177070113Y-148394295D01*
X177374875Y-149194295D02*
X177374875Y-148394295D01*
X177641541Y-148394295D02*
X178098684Y-148394295D01*
X177870112Y-149194295D02*
X177870112Y-148394295D01*
X178365351Y-149194295D02*
X178365351Y-148394295D01*
X178365351Y-148775247D02*
X178822494Y-148775247D01*
X178822494Y-149194295D02*
X178822494Y-148394295D01*
X180079636Y-148775247D02*
X179812970Y-148775247D01*
X179812970Y-149194295D02*
X179812970Y-148394295D01*
X179812970Y-148394295D02*
X180193922Y-148394295D01*
X180879636Y-149194295D02*
X180498684Y-149194295D01*
X180498684Y-149194295D02*
X180498684Y-148394295D01*
X181298684Y-148394295D02*
X181451065Y-148394295D01*
X181451065Y-148394295D02*
X181527255Y-148432390D01*
X181527255Y-148432390D02*
X181603446Y-148508580D01*
X181603446Y-148508580D02*
X181641541Y-148660961D01*
X181641541Y-148660961D02*
X181641541Y-148927628D01*
X181641541Y-148927628D02*
X181603446Y-149080009D01*
X181603446Y-149080009D02*
X181527255Y-149156200D01*
X181527255Y-149156200D02*
X181451065Y-149194295D01*
X181451065Y-149194295D02*
X181298684Y-149194295D01*
X181298684Y-149194295D02*
X181222493Y-149156200D01*
X181222493Y-149156200D02*
X181146303Y-149080009D01*
X181146303Y-149080009D02*
X181108207Y-148927628D01*
X181108207Y-148927628D02*
X181108207Y-148660961D01*
X181108207Y-148660961D02*
X181146303Y-148508580D01*
X181146303Y-148508580D02*
X181222493Y-148432390D01*
X181222493Y-148432390D02*
X181298684Y-148394295D01*
X181946302Y-148965723D02*
X182327255Y-148965723D01*
X181870112Y-149194295D02*
X182136779Y-148394295D01*
X182136779Y-148394295D02*
X182403445Y-149194295D01*
X182555826Y-148394295D02*
X183012969Y-148394295D01*
X182784397Y-149194295D02*
X182784397Y-148394295D01*
X183279636Y-149194295D02*
X183279636Y-148394295D01*
X183660588Y-149194295D02*
X183660588Y-148394295D01*
X183660588Y-148394295D02*
X184117731Y-149194295D01*
X184117731Y-149194295D02*
X184117731Y-148394295D01*
X184917730Y-148432390D02*
X184841540Y-148394295D01*
X184841540Y-148394295D02*
X184727254Y-148394295D01*
X184727254Y-148394295D02*
X184612968Y-148432390D01*
X184612968Y-148432390D02*
X184536778Y-148508580D01*
X184536778Y-148508580D02*
X184498683Y-148584771D01*
X184498683Y-148584771D02*
X184460587Y-148737152D01*
X184460587Y-148737152D02*
X184460587Y-148851438D01*
X184460587Y-148851438D02*
X184498683Y-149003819D01*
X184498683Y-149003819D02*
X184536778Y-149080009D01*
X184536778Y-149080009D02*
X184612968Y-149156200D01*
X184612968Y-149156200D02*
X184727254Y-149194295D01*
X184727254Y-149194295D02*
X184803445Y-149194295D01*
X184803445Y-149194295D02*
X184917730Y-149156200D01*
X184917730Y-149156200D02*
X184955826Y-149118104D01*
X184955826Y-149118104D02*
X184955826Y-148851438D01*
X184955826Y-148851438D02*
X184803445Y-148851438D01*
X186060588Y-148394295D02*
X186212969Y-148394295D01*
X186212969Y-148394295D02*
X186289159Y-148432390D01*
X186289159Y-148432390D02*
X186365350Y-148508580D01*
X186365350Y-148508580D02*
X186403445Y-148660961D01*
X186403445Y-148660961D02*
X186403445Y-148927628D01*
X186403445Y-148927628D02*
X186365350Y-149080009D01*
X186365350Y-149080009D02*
X186289159Y-149156200D01*
X186289159Y-149156200D02*
X186212969Y-149194295D01*
X186212969Y-149194295D02*
X186060588Y-149194295D01*
X186060588Y-149194295D02*
X185984397Y-149156200D01*
X185984397Y-149156200D02*
X185908207Y-149080009D01*
X185908207Y-149080009D02*
X185870111Y-148927628D01*
X185870111Y-148927628D02*
X185870111Y-148660961D01*
X185870111Y-148660961D02*
X185908207Y-148508580D01*
X185908207Y-148508580D02*
X185984397Y-148432390D01*
X185984397Y-148432390D02*
X186060588Y-148394295D01*
X186746302Y-148394295D02*
X186746302Y-149041914D01*
X186746302Y-149041914D02*
X186784397Y-149118104D01*
X186784397Y-149118104D02*
X186822492Y-149156200D01*
X186822492Y-149156200D02*
X186898683Y-149194295D01*
X186898683Y-149194295D02*
X187051064Y-149194295D01*
X187051064Y-149194295D02*
X187127254Y-149156200D01*
X187127254Y-149156200D02*
X187165349Y-149118104D01*
X187165349Y-149118104D02*
X187203445Y-149041914D01*
X187203445Y-149041914D02*
X187203445Y-148394295D01*
X187470111Y-148394295D02*
X187927254Y-148394295D01*
X187698682Y-149194295D02*
X187698682Y-148394295D01*
X188193921Y-149194295D02*
X188193921Y-148394295D01*
X188193921Y-148394295D02*
X188498683Y-148394295D01*
X188498683Y-148394295D02*
X188574873Y-148432390D01*
X188574873Y-148432390D02*
X188612968Y-148470485D01*
X188612968Y-148470485D02*
X188651064Y-148546676D01*
X188651064Y-148546676D02*
X188651064Y-148660961D01*
X188651064Y-148660961D02*
X188612968Y-148737152D01*
X188612968Y-148737152D02*
X188574873Y-148775247D01*
X188574873Y-148775247D02*
X188498683Y-148813342D01*
X188498683Y-148813342D02*
X188193921Y-148813342D01*
X188993921Y-148394295D02*
X188993921Y-149041914D01*
X188993921Y-149041914D02*
X189032016Y-149118104D01*
X189032016Y-149118104D02*
X189070111Y-149156200D01*
X189070111Y-149156200D02*
X189146302Y-149194295D01*
X189146302Y-149194295D02*
X189298683Y-149194295D01*
X189298683Y-149194295D02*
X189374873Y-149156200D01*
X189374873Y-149156200D02*
X189412968Y-149118104D01*
X189412968Y-149118104D02*
X189451064Y-149041914D01*
X189451064Y-149041914D02*
X189451064Y-148394295D01*
X189717730Y-148394295D02*
X190174873Y-148394295D01*
X189946301Y-149194295D02*
X189946301Y-148394295D01*
X191279635Y-149499057D02*
X191241540Y-149460961D01*
X191241540Y-149460961D02*
X191165349Y-149346676D01*
X191165349Y-149346676D02*
X191127254Y-149270485D01*
X191127254Y-149270485D02*
X191089159Y-149156200D01*
X191089159Y-149156200D02*
X191051064Y-148965723D01*
X191051064Y-148965723D02*
X191051064Y-148813342D01*
X191051064Y-148813342D02*
X191089159Y-148622866D01*
X191089159Y-148622866D02*
X191127254Y-148508580D01*
X191127254Y-148508580D02*
X191165349Y-148432390D01*
X191165349Y-148432390D02*
X191241540Y-148318104D01*
X191241540Y-148318104D02*
X191279635Y-148280009D01*
X191546301Y-149156200D02*
X191660587Y-149194295D01*
X191660587Y-149194295D02*
X191851063Y-149194295D01*
X191851063Y-149194295D02*
X191927254Y-149156200D01*
X191927254Y-149156200D02*
X191965349Y-149118104D01*
X191965349Y-149118104D02*
X192003444Y-149041914D01*
X192003444Y-149041914D02*
X192003444Y-148965723D01*
X192003444Y-148965723D02*
X191965349Y-148889533D01*
X191965349Y-148889533D02*
X191927254Y-148851438D01*
X191927254Y-148851438D02*
X191851063Y-148813342D01*
X191851063Y-148813342D02*
X191698682Y-148775247D01*
X191698682Y-148775247D02*
X191622492Y-148737152D01*
X191622492Y-148737152D02*
X191584397Y-148699057D01*
X191584397Y-148699057D02*
X191546301Y-148622866D01*
X191546301Y-148622866D02*
X191546301Y-148546676D01*
X191546301Y-148546676D02*
X191584397Y-148470485D01*
X191584397Y-148470485D02*
X191622492Y-148432390D01*
X191622492Y-148432390D02*
X191698682Y-148394295D01*
X191698682Y-148394295D02*
X191889159Y-148394295D01*
X191889159Y-148394295D02*
X192003444Y-148432390D01*
X192346302Y-148775247D02*
X192612968Y-148775247D01*
X192727254Y-149194295D02*
X192346302Y-149194295D01*
X192346302Y-149194295D02*
X192346302Y-148394295D01*
X192346302Y-148394295D02*
X192727254Y-148394295D01*
X193451064Y-149194295D02*
X193070112Y-149194295D01*
X193070112Y-149194295D02*
X193070112Y-148394295D01*
X193603445Y-148394295D02*
X193870112Y-149194295D01*
X193870112Y-149194295D02*
X194136778Y-148394295D01*
X194327254Y-149499057D02*
X194365349Y-149460961D01*
X194365349Y-149460961D02*
X194441540Y-149346676D01*
X194441540Y-149346676D02*
X194479635Y-149270485D01*
X194479635Y-149270485D02*
X194517730Y-149156200D01*
X194517730Y-149156200D02*
X194555826Y-148965723D01*
X194555826Y-148965723D02*
X194555826Y-148813342D01*
X194555826Y-148813342D02*
X194517730Y-148622866D01*
X194517730Y-148622866D02*
X194479635Y-148508580D01*
X194479635Y-148508580D02*
X194441540Y-148432390D01*
X194441540Y-148432390D02*
X194365349Y-148318104D01*
X194365349Y-148318104D02*
X194327254Y-148280009D01*
X174390476Y-140562295D02*
X174390476Y-141209914D01*
X174390476Y-141209914D02*
X174428571Y-141286104D01*
X174428571Y-141286104D02*
X174466666Y-141324200D01*
X174466666Y-141324200D02*
X174542857Y-141362295D01*
X174542857Y-141362295D02*
X174695238Y-141362295D01*
X174695238Y-141362295D02*
X174771428Y-141324200D01*
X174771428Y-141324200D02*
X174809523Y-141286104D01*
X174809523Y-141286104D02*
X174847619Y-141209914D01*
X174847619Y-141209914D02*
X174847619Y-140562295D01*
X175152380Y-140562295D02*
X175647618Y-140562295D01*
X175647618Y-140562295D02*
X175380952Y-140867057D01*
X175380952Y-140867057D02*
X175495237Y-140867057D01*
X175495237Y-140867057D02*
X175571428Y-140905152D01*
X175571428Y-140905152D02*
X175609523Y-140943247D01*
X175609523Y-140943247D02*
X175647618Y-141019438D01*
X175647618Y-141019438D02*
X175647618Y-141209914D01*
X175647618Y-141209914D02*
X175609523Y-141286104D01*
X175609523Y-141286104D02*
X175571428Y-141324200D01*
X175571428Y-141324200D02*
X175495237Y-141362295D01*
X175495237Y-141362295D02*
X175266666Y-141362295D01*
X175266666Y-141362295D02*
X175190475Y-141324200D01*
X175190475Y-141324200D02*
X175152380Y-141286104D01*
X179910476Y-121510295D02*
X179910476Y-122157914D01*
X179910476Y-122157914D02*
X179948571Y-122234104D01*
X179948571Y-122234104D02*
X179986666Y-122272200D01*
X179986666Y-122272200D02*
X180062857Y-122310295D01*
X180062857Y-122310295D02*
X180215238Y-122310295D01*
X180215238Y-122310295D02*
X180291428Y-122272200D01*
X180291428Y-122272200D02*
X180329523Y-122234104D01*
X180329523Y-122234104D02*
X180367619Y-122157914D01*
X180367619Y-122157914D02*
X180367619Y-121510295D01*
X181167618Y-122310295D02*
X180710475Y-122310295D01*
X180939047Y-122310295D02*
X180939047Y-121510295D01*
X180939047Y-121510295D02*
X180862856Y-121624580D01*
X180862856Y-121624580D02*
X180786666Y-121700771D01*
X180786666Y-121700771D02*
X180710475Y-121738866D01*
X169640475Y-131824200D02*
X169754761Y-131862295D01*
X169754761Y-131862295D02*
X169945237Y-131862295D01*
X169945237Y-131862295D02*
X170021428Y-131824200D01*
X170021428Y-131824200D02*
X170059523Y-131786104D01*
X170059523Y-131786104D02*
X170097618Y-131709914D01*
X170097618Y-131709914D02*
X170097618Y-131633723D01*
X170097618Y-131633723D02*
X170059523Y-131557533D01*
X170059523Y-131557533D02*
X170021428Y-131519438D01*
X170021428Y-131519438D02*
X169945237Y-131481342D01*
X169945237Y-131481342D02*
X169792856Y-131443247D01*
X169792856Y-131443247D02*
X169716666Y-131405152D01*
X169716666Y-131405152D02*
X169678571Y-131367057D01*
X169678571Y-131367057D02*
X169640475Y-131290866D01*
X169640475Y-131290866D02*
X169640475Y-131214676D01*
X169640475Y-131214676D02*
X169678571Y-131138485D01*
X169678571Y-131138485D02*
X169716666Y-131100390D01*
X169716666Y-131100390D02*
X169792856Y-131062295D01*
X169792856Y-131062295D02*
X169983333Y-131062295D01*
X169983333Y-131062295D02*
X170097618Y-131100390D01*
X170859523Y-131862295D02*
X170402380Y-131862295D01*
X170630952Y-131862295D02*
X170630952Y-131062295D01*
X170630952Y-131062295D02*
X170554761Y-131176580D01*
X170554761Y-131176580D02*
X170478571Y-131252771D01*
X170478571Y-131252771D02*
X170402380Y-131290866D01*
X195640475Y-131824200D02*
X195754761Y-131862295D01*
X195754761Y-131862295D02*
X195945237Y-131862295D01*
X195945237Y-131862295D02*
X196021428Y-131824200D01*
X196021428Y-131824200D02*
X196059523Y-131786104D01*
X196059523Y-131786104D02*
X196097618Y-131709914D01*
X196097618Y-131709914D02*
X196097618Y-131633723D01*
X196097618Y-131633723D02*
X196059523Y-131557533D01*
X196059523Y-131557533D02*
X196021428Y-131519438D01*
X196021428Y-131519438D02*
X195945237Y-131481342D01*
X195945237Y-131481342D02*
X195792856Y-131443247D01*
X195792856Y-131443247D02*
X195716666Y-131405152D01*
X195716666Y-131405152D02*
X195678571Y-131367057D01*
X195678571Y-131367057D02*
X195640475Y-131290866D01*
X195640475Y-131290866D02*
X195640475Y-131214676D01*
X195640475Y-131214676D02*
X195678571Y-131138485D01*
X195678571Y-131138485D02*
X195716666Y-131100390D01*
X195716666Y-131100390D02*
X195792856Y-131062295D01*
X195792856Y-131062295D02*
X195983333Y-131062295D01*
X195983333Y-131062295D02*
X196097618Y-131100390D01*
X196364285Y-131062295D02*
X196859523Y-131062295D01*
X196859523Y-131062295D02*
X196592857Y-131367057D01*
X196592857Y-131367057D02*
X196707142Y-131367057D01*
X196707142Y-131367057D02*
X196783333Y-131405152D01*
X196783333Y-131405152D02*
X196821428Y-131443247D01*
X196821428Y-131443247D02*
X196859523Y-131519438D01*
X196859523Y-131519438D02*
X196859523Y-131709914D01*
X196859523Y-131709914D02*
X196821428Y-131786104D01*
X196821428Y-131786104D02*
X196783333Y-131824200D01*
X196783333Y-131824200D02*
X196707142Y-131862295D01*
X196707142Y-131862295D02*
X196478571Y-131862295D01*
X196478571Y-131862295D02*
X196402380Y-131824200D01*
X196402380Y-131824200D02*
X196364285Y-131786104D01*
D12*
X2071667Y-8169318D02*
X2071667Y-9076461D01*
X2071667Y-9076461D02*
X2011190Y-9257889D01*
X2011190Y-9257889D02*
X1890238Y-9378842D01*
X1890238Y-9378842D02*
X1708809Y-9439318D01*
X1708809Y-9439318D02*
X1587857Y-9439318D01*
X3281190Y-8169318D02*
X2676428Y-8169318D01*
X2676428Y-8169318D02*
X2615952Y-8774080D01*
X2615952Y-8774080D02*
X2676428Y-8713603D01*
X2676428Y-8713603D02*
X2797381Y-8653127D01*
X2797381Y-8653127D02*
X3099762Y-8653127D01*
X3099762Y-8653127D02*
X3220714Y-8713603D01*
X3220714Y-8713603D02*
X3281190Y-8774080D01*
X3281190Y-8774080D02*
X3341667Y-8895032D01*
X3341667Y-8895032D02*
X3341667Y-9197413D01*
X3341667Y-9197413D02*
X3281190Y-9318365D01*
X3281190Y-9318365D02*
X3220714Y-9378842D01*
X3220714Y-9378842D02*
X3099762Y-9439318D01*
X3099762Y-9439318D02*
X2797381Y-9439318D01*
X2797381Y-9439318D02*
X2676428Y-9378842D01*
X2676428Y-9378842D02*
X2615952Y-9318365D01*
D11*
X183640475Y-131824200D02*
X183754761Y-131862295D01*
X183754761Y-131862295D02*
X183945237Y-131862295D01*
X183945237Y-131862295D02*
X184021428Y-131824200D01*
X184021428Y-131824200D02*
X184059523Y-131786104D01*
X184059523Y-131786104D02*
X184097618Y-131709914D01*
X184097618Y-131709914D02*
X184097618Y-131633723D01*
X184097618Y-131633723D02*
X184059523Y-131557533D01*
X184059523Y-131557533D02*
X184021428Y-131519438D01*
X184021428Y-131519438D02*
X183945237Y-131481342D01*
X183945237Y-131481342D02*
X183792856Y-131443247D01*
X183792856Y-131443247D02*
X183716666Y-131405152D01*
X183716666Y-131405152D02*
X183678571Y-131367057D01*
X183678571Y-131367057D02*
X183640475Y-131290866D01*
X183640475Y-131290866D02*
X183640475Y-131214676D01*
X183640475Y-131214676D02*
X183678571Y-131138485D01*
X183678571Y-131138485D02*
X183716666Y-131100390D01*
X183716666Y-131100390D02*
X183792856Y-131062295D01*
X183792856Y-131062295D02*
X183983333Y-131062295D01*
X183983333Y-131062295D02*
X184097618Y-131100390D01*
X184402380Y-131138485D02*
X184440476Y-131100390D01*
X184440476Y-131100390D02*
X184516666Y-131062295D01*
X184516666Y-131062295D02*
X184707142Y-131062295D01*
X184707142Y-131062295D02*
X184783333Y-131100390D01*
X184783333Y-131100390D02*
X184821428Y-131138485D01*
X184821428Y-131138485D02*
X184859523Y-131214676D01*
X184859523Y-131214676D02*
X184859523Y-131290866D01*
X184859523Y-131290866D02*
X184821428Y-131405152D01*
X184821428Y-131405152D02*
X184364285Y-131862295D01*
X184364285Y-131862295D02*
X184859523Y-131862295D01*
D12*
X2071667Y-1799318D02*
X2071667Y-2706461D01*
X2071667Y-2706461D02*
X2011190Y-2887889D01*
X2011190Y-2887889D02*
X1890238Y-3008842D01*
X1890238Y-3008842D02*
X1708809Y-3069318D01*
X1708809Y-3069318D02*
X1587857Y-3069318D01*
X3220714Y-2222651D02*
X3220714Y-3069318D01*
X2918333Y-1738842D02*
X2615952Y-2645984D01*
X2615952Y-2645984D02*
X3402143Y-2645984D01*
D10*
%TO.C,U3*%
X164400000Y-129400000D02*
X164400000Y-133000000D01*
X164400000Y-137800000D02*
X164400000Y-141400000D01*
D13*
X167750000Y-145500000D02*
X167750000Y-145500000D01*
X167750000Y-145600000D02*
X167750000Y-145600000D01*
D10*
X168750000Y-128300000D02*
X171750000Y-128300000D01*
X176100000Y-129400000D02*
X176100000Y-133000000D01*
X176100000Y-137800000D02*
X176100000Y-141400000D01*
D13*
X167750000Y-145600000D02*
G75*
G03*
X167750000Y-145500000I0J50000D01*
G01*
X167750000Y-145500000D02*
G75*
G03*
X167750000Y-145600000I0J-50000D01*
G01*
%TO.C,S1*%
X172550000Y-130200000D02*
X172550000Y-130200000D01*
X172450000Y-130200000D02*
X172450000Y-130200000D01*
D10*
X171650000Y-132300000D02*
X168850000Y-132300000D01*
X173350000Y-132600000D02*
X173350000Y-138200000D01*
X167150000Y-132600000D02*
X167150000Y-138200000D01*
X171650000Y-138500000D02*
X168850000Y-138500000D01*
D13*
X172450000Y-130200000D02*
G75*
G03*
X172550000Y-130200000I50000J0D01*
G01*
X172550000Y-130200000D02*
G75*
G03*
X172450000Y-130200000I-50000J0D01*
G01*
%TO.C,S3*%
X198550000Y-130200000D02*
X198550000Y-130200000D01*
X198450000Y-130200000D02*
X198450000Y-130200000D01*
D10*
X197650000Y-132300000D02*
X194850000Y-132300000D01*
X199350000Y-132600000D02*
X199350000Y-138200000D01*
X193150000Y-132600000D02*
X193150000Y-138200000D01*
X197650000Y-138500000D02*
X194850000Y-138500000D01*
D13*
X198450000Y-130200000D02*
G75*
G03*
X198550000Y-130200000I50000J0D01*
G01*
X198550000Y-130200000D02*
G75*
G03*
X198450000Y-130200000I-50000J0D01*
G01*
%TO.C,S2*%
X186550000Y-130200000D02*
X186550000Y-130200000D01*
X186450000Y-130200000D02*
X186450000Y-130200000D01*
D10*
X185650000Y-132300000D02*
X182850000Y-132300000D01*
X187350000Y-132600000D02*
X187350000Y-138200000D01*
X181150000Y-132600000D02*
X181150000Y-138200000D01*
X185650000Y-138500000D02*
X182850000Y-138500000D01*
D13*
X186450000Y-130200000D02*
G75*
G03*
X186550000Y-130200000I50000J0D01*
G01*
X186550000Y-130200000D02*
G75*
G03*
X186450000Y-130200000I-50000J0D01*
G01*
%TO.C,G\u002A\u002A\u002A*%
G36*
X174740477Y-78331079D02*
G01*
X174740477Y-79240477D01*
X173831079Y-79240477D01*
X172921681Y-79240477D01*
X172921681Y-78331079D01*
X172921681Y-77421681D01*
X173831079Y-77421681D01*
X174740477Y-77421681D01*
X174740477Y-78331079D01*
G37*
G36*
X174740477Y-91668921D02*
G01*
X174740477Y-92578319D01*
X173831079Y-92578319D01*
X172921681Y-92578319D01*
X172921681Y-91668921D01*
X172921681Y-90759523D01*
X173831079Y-90759523D01*
X174740477Y-90759523D01*
X174740477Y-91668921D01*
G37*
G36*
X178996967Y-92281502D02*
G01*
X178996967Y-92590950D01*
X178687519Y-92590950D01*
X178378071Y-92590950D01*
X178378071Y-92281502D01*
X178378071Y-91972054D01*
X178687519Y-91972054D01*
X178996967Y-91972054D01*
X178996967Y-92281502D01*
G37*
G36*
X180815763Y-77731129D02*
G01*
X180815763Y-78040577D01*
X180506315Y-78040577D01*
X180196867Y-78040577D01*
X180196867Y-77731129D01*
X180196867Y-77421681D01*
X180506315Y-77421681D01*
X180815763Y-77421681D01*
X180815763Y-77731129D01*
G37*
G36*
X184453356Y-76518598D02*
G01*
X184453356Y-76828046D01*
X184143908Y-76828046D01*
X183834460Y-76828046D01*
X183834460Y-76518598D01*
X183834460Y-76209150D01*
X184143908Y-76209150D01*
X184453356Y-76209150D01*
X184453356Y-76518598D01*
G37*
G36*
X184453356Y-80156191D02*
G01*
X184453356Y-80465639D01*
X184143908Y-80465639D01*
X183834460Y-80465639D01*
X183834460Y-80156191D01*
X183834460Y-79846743D01*
X184143908Y-79846743D01*
X184453356Y-79846743D01*
X184453356Y-80156191D01*
G37*
G36*
X185665888Y-89856439D02*
G01*
X185665888Y-90165888D01*
X185356439Y-90165888D01*
X185046991Y-90165888D01*
X185046991Y-89856439D01*
X185046991Y-89546991D01*
X185356439Y-89546991D01*
X185665888Y-89546991D01*
X185665888Y-89856439D01*
G37*
G36*
X188078319Y-78331079D02*
G01*
X188078319Y-79240477D01*
X187168921Y-79240477D01*
X186259523Y-79240477D01*
X186259523Y-78331079D01*
X186259523Y-77421681D01*
X187168921Y-77421681D01*
X188078319Y-77421681D01*
X188078319Y-78331079D01*
G37*
G36*
X189303481Y-81974987D02*
G01*
X189303481Y-82284436D01*
X188994033Y-82284436D01*
X188684585Y-82284436D01*
X188684585Y-81974987D01*
X188684585Y-81665539D01*
X188994033Y-81665539D01*
X189303481Y-81665539D01*
X189303481Y-81974987D01*
G37*
G36*
X189303481Y-84400050D02*
G01*
X189303481Y-84709498D01*
X188994033Y-84709498D01*
X188684585Y-84709498D01*
X188684585Y-84400050D01*
X188684585Y-84090602D01*
X188994033Y-84090602D01*
X189303481Y-84090602D01*
X189303481Y-84400050D01*
G37*
G36*
X189303481Y-86825112D02*
G01*
X189303481Y-87134560D01*
X188994033Y-87134560D01*
X188684585Y-87134560D01*
X188684585Y-86825112D01*
X188684585Y-86515664D01*
X188994033Y-86515664D01*
X189303481Y-86515664D01*
X189303481Y-86825112D01*
G37*
G36*
X183243553Y-76515440D02*
G01*
X183244493Y-76626545D01*
X183244968Y-76752898D01*
X183244977Y-76884487D01*
X183244521Y-77011305D01*
X183243600Y-77123340D01*
X183243546Y-77128021D01*
X183239951Y-77434311D01*
X182930940Y-77434311D01*
X182621929Y-77434311D01*
X182621929Y-76821730D01*
X182621929Y-76209150D01*
X182930947Y-76209150D01*
X183239965Y-76209150D01*
X183243553Y-76515440D01*
G37*
G36*
X175953008Y-78331079D02*
G01*
X175953008Y-80453008D01*
X173831079Y-80453008D01*
X171709150Y-80453008D01*
X171709150Y-78331079D01*
X171709150Y-76815415D01*
X172315415Y-76815415D01*
X172315415Y-78331079D01*
X172315415Y-79846743D01*
X173831079Y-79846743D01*
X175346743Y-79846743D01*
X175346743Y-78331079D01*
X175346743Y-76815415D01*
X173831079Y-76815415D01*
X172315415Y-76815415D01*
X171709150Y-76815415D01*
X171709150Y-76209150D01*
X173831079Y-76209150D01*
X175953008Y-76209150D01*
X175953008Y-78331079D01*
G37*
G36*
X175953008Y-91668921D02*
G01*
X175953008Y-93790850D01*
X173831079Y-93790850D01*
X171709150Y-93790850D01*
X171709150Y-91668921D01*
X171709150Y-90153257D01*
X172315415Y-90153257D01*
X172315415Y-91668921D01*
X172315415Y-93184585D01*
X173831079Y-93184585D01*
X175346743Y-93184585D01*
X175346743Y-91668921D01*
X175346743Y-90153257D01*
X173831079Y-90153257D01*
X172315415Y-90153257D01*
X171709150Y-90153257D01*
X171709150Y-89546991D01*
X173831079Y-89546991D01*
X175953008Y-89546991D01*
X175953008Y-91668921D01*
G37*
G36*
X189290850Y-78331079D02*
G01*
X189290850Y-80453008D01*
X187168921Y-80453008D01*
X185046991Y-80453008D01*
X185046991Y-78331079D01*
X185046991Y-76815415D01*
X185653257Y-76815415D01*
X185653257Y-78331079D01*
X185653257Y-79846743D01*
X187168921Y-79846743D01*
X188684585Y-79846743D01*
X188684585Y-78331079D01*
X188684585Y-76815415D01*
X187168921Y-76815415D01*
X185653257Y-76815415D01*
X185046991Y-76815415D01*
X185046991Y-76209150D01*
X187168921Y-76209150D01*
X189290850Y-76209150D01*
X189290850Y-78331079D01*
G37*
G36*
X177784436Y-93494033D02*
G01*
X177784436Y-93803481D01*
X177494966Y-93803481D01*
X177411274Y-93803618D01*
X177335593Y-93804003D01*
X177271734Y-93804594D01*
X177223507Y-93805352D01*
X177194725Y-93806236D01*
X177188676Y-93806738D01*
X177171781Y-93807508D01*
X177133317Y-93807930D01*
X177076972Y-93808005D01*
X177006437Y-93807737D01*
X176925400Y-93807128D01*
X176865564Y-93806514D01*
X176559274Y-93803032D01*
X176559274Y-93493808D01*
X176559274Y-93184585D01*
X177171855Y-93184585D01*
X177784436Y-93184585D01*
X177784436Y-93494033D01*
G37*
G36*
X182028294Y-76518598D02*
G01*
X182028294Y-76828046D01*
X181738825Y-76828046D01*
X181655133Y-76828183D01*
X181579452Y-76828568D01*
X181515592Y-76829159D01*
X181467366Y-76829917D01*
X181438584Y-76830801D01*
X181432535Y-76831303D01*
X181415640Y-76832073D01*
X181377175Y-76832495D01*
X181320831Y-76832570D01*
X181250296Y-76832302D01*
X181169259Y-76831693D01*
X181109423Y-76831079D01*
X180803133Y-76827597D01*
X180803133Y-76518373D01*
X180803133Y-76209150D01*
X181415713Y-76209150D01*
X182028294Y-76209150D01*
X182028294Y-76518598D01*
G37*
G36*
X179603232Y-76518598D02*
G01*
X179603232Y-76828046D01*
X179303257Y-76828419D01*
X179226177Y-76828560D01*
X179128181Y-76828813D01*
X179013614Y-76829163D01*
X178886821Y-76829593D01*
X178752146Y-76830089D01*
X178613935Y-76830636D01*
X178476532Y-76831219D01*
X178397016Y-76831576D01*
X177790751Y-76834361D01*
X177788112Y-77137494D01*
X177787259Y-77247717D01*
X177786465Y-77372799D01*
X177785782Y-77502779D01*
X177785263Y-77627699D01*
X177784960Y-77737598D01*
X177784955Y-77740373D01*
X177784436Y-78040120D01*
X177484460Y-78043506D01*
X177184485Y-78046892D01*
X177181613Y-79259423D01*
X177181190Y-79440150D01*
X177180779Y-79619206D01*
X177180386Y-79794248D01*
X177180015Y-79962934D01*
X177179671Y-80122918D01*
X177179360Y-80271859D01*
X177179086Y-80407412D01*
X177178854Y-80527234D01*
X177178669Y-80628982D01*
X177178535Y-80710313D01*
X177178459Y-80768883D01*
X177178456Y-80771929D01*
X177178170Y-81071904D01*
X176868722Y-81071904D01*
X176559274Y-81071904D01*
X176559274Y-79246793D01*
X176559274Y-77421681D01*
X176862407Y-77421681D01*
X177165539Y-77421681D01*
X177165539Y-76815415D01*
X177165539Y-76209150D01*
X178384386Y-76209150D01*
X179603232Y-76209150D01*
X179603232Y-76518598D01*
G37*
G36*
X179603232Y-77730900D02*
G01*
X179603232Y-78040120D01*
X179303257Y-78043506D01*
X179003282Y-78046892D01*
X178999891Y-78340552D01*
X178996501Y-78634212D01*
X180209265Y-78634212D01*
X181422029Y-78634212D01*
X181422652Y-78940502D01*
X181422785Y-79050948D01*
X181422785Y-79176020D01*
X181422662Y-79305894D01*
X181422425Y-79430750D01*
X181422083Y-79540765D01*
X181422059Y-79546768D01*
X181420844Y-79846743D01*
X181724569Y-79846743D01*
X182028294Y-79846743D01*
X182028294Y-80156191D01*
X182028294Y-80465639D01*
X181718846Y-80465639D01*
X181409398Y-80465639D01*
X181409398Y-80162273D01*
X181409398Y-79858908D01*
X181115738Y-79862298D01*
X180822078Y-79865689D01*
X180818693Y-80165436D01*
X180815307Y-80465183D01*
X180515560Y-80468568D01*
X180215813Y-80471954D01*
X180212423Y-80765614D01*
X180209032Y-81059274D01*
X181415481Y-81059274D01*
X182621929Y-81059274D01*
X182621929Y-80156191D01*
X182621929Y-79253108D01*
X182318797Y-79253108D01*
X182015664Y-79253108D01*
X182015664Y-78646842D01*
X182015664Y-78040577D01*
X181712531Y-78040577D01*
X181409398Y-78040577D01*
X181409398Y-77731129D01*
X181409398Y-77421681D01*
X181718846Y-77421681D01*
X182028294Y-77421681D01*
X182028294Y-77724813D01*
X182028294Y-78027946D01*
X182331427Y-78027946D01*
X182634560Y-78027946D01*
X182635183Y-78334237D01*
X182635316Y-78444683D01*
X182635317Y-78569754D01*
X182635193Y-78699629D01*
X182634956Y-78824485D01*
X182634614Y-78934500D01*
X182634591Y-78940502D01*
X182633375Y-79240477D01*
X182930785Y-79240477D01*
X183228195Y-79240477D01*
X183228195Y-78634212D01*
X183228195Y-78027946D01*
X183840776Y-78027946D01*
X184453356Y-78027946D01*
X184453980Y-78334237D01*
X184454175Y-78479522D01*
X184454170Y-78618511D01*
X184453975Y-78749085D01*
X184453605Y-78869127D01*
X184453073Y-78976520D01*
X184452389Y-79069144D01*
X184451569Y-79144883D01*
X184450624Y-79201619D01*
X184449566Y-79237233D01*
X184448464Y-79249580D01*
X184435488Y-79250381D01*
X184399727Y-79251251D01*
X184343657Y-79252161D01*
X184269754Y-79253083D01*
X184180494Y-79253990D01*
X184078353Y-79254854D01*
X183965807Y-79255647D01*
X183845965Y-79256338D01*
X183247141Y-79259423D01*
X183244160Y-80159348D01*
X183241179Y-81059274D01*
X183847268Y-81059274D01*
X184453356Y-81059274D01*
X184453701Y-81362407D01*
X184453806Y-81470524D01*
X184453899Y-81594401D01*
X184453973Y-81724539D01*
X184454023Y-81851438D01*
X184454045Y-81965595D01*
X184454045Y-81981303D01*
X184454029Y-82092038D01*
X184453983Y-82216369D01*
X184453912Y-82344971D01*
X184453823Y-82468519D01*
X184453719Y-82577690D01*
X184453701Y-82593884D01*
X184453356Y-82890701D01*
X184143908Y-82890701D01*
X183834460Y-82890701D01*
X183834460Y-82587335D01*
X183834460Y-82283970D01*
X183540800Y-82287360D01*
X183247141Y-82290751D01*
X183244299Y-83200149D01*
X183243811Y-83359214D01*
X183243340Y-83518236D01*
X183242894Y-83674245D01*
X183242481Y-83824272D01*
X183242108Y-83965346D01*
X183241784Y-84094497D01*
X183241516Y-84208755D01*
X183241311Y-84305152D01*
X183241178Y-84380715D01*
X183241141Y-84409294D01*
X183240825Y-84709040D01*
X182940850Y-84712427D01*
X182640875Y-84715813D01*
X182637489Y-85015560D01*
X182634104Y-85315307D01*
X182334357Y-85318693D01*
X182034610Y-85322078D01*
X182031224Y-85621826D01*
X182027838Y-85921573D01*
X181728091Y-85924958D01*
X181428344Y-85928344D01*
X181424954Y-86222004D01*
X181421563Y-86515664D01*
X181724929Y-86515664D01*
X182028294Y-86515664D01*
X182028294Y-86824883D01*
X182028294Y-87134103D01*
X181728319Y-87137489D01*
X181428344Y-87140875D01*
X181424954Y-87434535D01*
X181421563Y-87728195D01*
X181724929Y-87728195D01*
X182028294Y-87728195D01*
X182028294Y-88031328D01*
X182028294Y-88334460D01*
X182331427Y-88334460D01*
X182634560Y-88334460D01*
X182635183Y-88640751D01*
X182635316Y-88751197D01*
X182635317Y-88876268D01*
X182635193Y-89006143D01*
X182634956Y-89130999D01*
X182634614Y-89241014D01*
X182634591Y-89247016D01*
X182633375Y-89546991D01*
X183233918Y-89546991D01*
X183834460Y-89546991D01*
X183834460Y-89250174D01*
X183834460Y-88953356D01*
X183531328Y-88953356D01*
X183228195Y-88953356D01*
X183228195Y-88643908D01*
X183228195Y-88334460D01*
X183531328Y-88334460D01*
X183834460Y-88334460D01*
X185665422Y-88334460D01*
X186271920Y-88334460D01*
X186878419Y-88334460D01*
X186878419Y-88637593D01*
X186878419Y-88940726D01*
X187175236Y-88940726D01*
X187472054Y-88940726D01*
X187472054Y-88637593D01*
X187472054Y-88334460D01*
X187775186Y-88334460D01*
X188078319Y-88334460D01*
X188078319Y-88037643D01*
X188078319Y-87740825D01*
X187775186Y-87740825D01*
X187472054Y-87740825D01*
X187472054Y-87134327D01*
X187472054Y-86527829D01*
X187178394Y-86531219D01*
X186884734Y-86534610D01*
X186881649Y-87133434D01*
X186880940Y-87253904D01*
X186880106Y-87366456D01*
X186879179Y-87468610D01*
X186878188Y-87557886D01*
X186877164Y-87631805D01*
X186876138Y-87687887D01*
X186875141Y-87723652D01*
X186874208Y-87736615D01*
X186861092Y-87737554D01*
X186825195Y-87738552D01*
X186768996Y-87739577D01*
X186694975Y-87740601D01*
X186605612Y-87741591D01*
X186503387Y-87742519D01*
X186390778Y-87743352D01*
X186271028Y-87744056D01*
X185672203Y-87747141D01*
X185668812Y-88040800D01*
X185665422Y-88334460D01*
X183834460Y-88334460D01*
X183834460Y-87734277D01*
X183834460Y-87728195D01*
X184452891Y-87728195D01*
X184749941Y-87728195D01*
X185046991Y-87728195D01*
X185046991Y-87431145D01*
X185046991Y-87134094D01*
X184753332Y-87137485D01*
X184459672Y-87140875D01*
X184456281Y-87434535D01*
X184452891Y-87728195D01*
X183834460Y-87728195D01*
X183834460Y-87134094D01*
X183540800Y-87137485D01*
X183247141Y-87140875D01*
X183243754Y-87440850D01*
X183240368Y-87740825D01*
X182931149Y-87740825D01*
X182621929Y-87740825D01*
X182621929Y-87128245D01*
X182621929Y-87121929D01*
X183847239Y-87121929D01*
X184143983Y-87121929D01*
X184440726Y-87121929D01*
X184440726Y-86521746D01*
X184440726Y-86515664D01*
X185059156Y-86515664D01*
X185356207Y-86515664D01*
X185653257Y-86515664D01*
X186271687Y-86515664D01*
X186568738Y-86515664D01*
X186865788Y-86515664D01*
X186865788Y-86218613D01*
X186865788Y-85921563D01*
X186572128Y-85924954D01*
X186278468Y-85928344D01*
X186275078Y-86222004D01*
X186271687Y-86515664D01*
X185653257Y-86515664D01*
X185653257Y-86218613D01*
X185653257Y-85921563D01*
X185359597Y-85924954D01*
X185065937Y-85928344D01*
X185062547Y-86222004D01*
X185059156Y-86515664D01*
X184440726Y-86515664D01*
X184440726Y-85921563D01*
X184147066Y-85924954D01*
X183853406Y-85928344D01*
X183850323Y-86525137D01*
X183847239Y-87121929D01*
X182621929Y-87121929D01*
X182621929Y-86515664D01*
X182925062Y-86515664D01*
X183228195Y-86515664D01*
X183228195Y-85909398D01*
X186877953Y-85909398D01*
X187478136Y-85909398D01*
X188078319Y-85909398D01*
X188078319Y-85612655D01*
X188078319Y-85315912D01*
X187481527Y-85318995D01*
X186884734Y-85322078D01*
X186881343Y-85615738D01*
X186877953Y-85909398D01*
X183228195Y-85909398D01*
X183228195Y-85303133D01*
X183531328Y-85303133D01*
X183834460Y-85303133D01*
X185059156Y-85303133D01*
X185659339Y-85303133D01*
X186259523Y-85303133D01*
X186259523Y-85006389D01*
X186259523Y-84709646D01*
X185662730Y-84712729D01*
X185065937Y-84715813D01*
X185062547Y-85009473D01*
X185059156Y-85303133D01*
X183834460Y-85303133D01*
X183834460Y-84696867D01*
X183834460Y-84090602D01*
X185350124Y-84090602D01*
X186865788Y-84090602D01*
X186865788Y-83490651D01*
X186865788Y-82890701D01*
X186562655Y-82890701D01*
X186259523Y-82890701D01*
X186259523Y-82586976D01*
X186259523Y-82283251D01*
X185959547Y-82284466D01*
X185850753Y-82284814D01*
X185726520Y-82285058D01*
X185596670Y-82285188D01*
X185471026Y-82285196D01*
X185359408Y-82285071D01*
X185353282Y-82285059D01*
X185046991Y-82284436D01*
X185046991Y-81671855D01*
X185046991Y-81059274D01*
X186568971Y-81059274D01*
X188090950Y-81059274D01*
X188090950Y-81368722D01*
X188090950Y-81678170D01*
X187790975Y-81678689D01*
X187681557Y-81678986D01*
X187556846Y-81679499D01*
X187426808Y-81680178D01*
X187301410Y-81680970D01*
X187190619Y-81681823D01*
X187187867Y-81681847D01*
X186884734Y-81684485D01*
X186881650Y-82281278D01*
X186878567Y-82878071D01*
X187181626Y-82878071D01*
X187484684Y-82878071D01*
X187484684Y-83181203D01*
X187484684Y-83484336D01*
X187781502Y-83484336D01*
X188078319Y-83484336D01*
X188078319Y-83181203D01*
X188078319Y-82878071D01*
X188387767Y-82878071D01*
X188697215Y-82878071D01*
X188697215Y-83187290D01*
X188697215Y-83496509D01*
X188397240Y-83499896D01*
X188097265Y-83503282D01*
X188093879Y-83803257D01*
X188090492Y-84103232D01*
X187790746Y-84103751D01*
X187681413Y-84104048D01*
X187556779Y-84104561D01*
X187426805Y-84105240D01*
X187301450Y-84106032D01*
X187190672Y-84106885D01*
X187187867Y-84106909D01*
X186884734Y-84109547D01*
X186881343Y-84403207D01*
X186877953Y-84696867D01*
X187484451Y-84696867D01*
X188090950Y-84696867D01*
X188090950Y-85000000D01*
X188090950Y-85303133D01*
X188394082Y-85303133D01*
X188697215Y-85303133D01*
X188697215Y-85612352D01*
X188697215Y-85921572D01*
X188397240Y-85924958D01*
X188097265Y-85928344D01*
X188094284Y-86828269D01*
X188091304Y-87728195D01*
X188394259Y-87728195D01*
X188697215Y-87728195D01*
X188697215Y-88031328D01*
X188697215Y-88334460D01*
X189000348Y-88334460D01*
X189303481Y-88334460D01*
X189304104Y-88640751D01*
X189304299Y-88786036D01*
X189304294Y-88925025D01*
X189304100Y-89055599D01*
X189303730Y-89175642D01*
X189303197Y-89283034D01*
X189302514Y-89375659D01*
X189301693Y-89451398D01*
X189300748Y-89508133D01*
X189299691Y-89543747D01*
X189298589Y-89556094D01*
X189285613Y-89556895D01*
X189249852Y-89557765D01*
X189193782Y-89558675D01*
X189119879Y-89559597D01*
X189030619Y-89560504D01*
X188928477Y-89561368D01*
X188815931Y-89562161D01*
X188696090Y-89562853D01*
X188097265Y-89565937D01*
X188093879Y-89865912D01*
X188090492Y-90165888D01*
X187790746Y-90166407D01*
X187681413Y-90166703D01*
X187556779Y-90167217D01*
X187426805Y-90167896D01*
X187301450Y-90168687D01*
X187190672Y-90169540D01*
X187187867Y-90169564D01*
X186884734Y-90172203D01*
X186881650Y-90768995D01*
X186878567Y-91365788D01*
X187175310Y-91365788D01*
X187472054Y-91365788D01*
X187472054Y-91062655D01*
X187472054Y-90759523D01*
X188078319Y-90759523D01*
X188684585Y-90759523D01*
X188684585Y-90456390D01*
X188684585Y-90153257D01*
X188994033Y-90153257D01*
X189303481Y-90153257D01*
X189303481Y-90462476D01*
X189303481Y-90771696D01*
X189003506Y-90775082D01*
X188703530Y-90778468D01*
X188700140Y-91072128D01*
X188696750Y-91365788D01*
X189000115Y-91365788D01*
X189303481Y-91365788D01*
X189303481Y-91675008D01*
X189303481Y-91984227D01*
X189003506Y-91987613D01*
X188703530Y-91990999D01*
X188700892Y-92294132D01*
X188700038Y-92404356D01*
X188699244Y-92529437D01*
X188698562Y-92659418D01*
X188698042Y-92784337D01*
X188697739Y-92894237D01*
X188697734Y-92897011D01*
X188697215Y-93196758D01*
X188397240Y-93200144D01*
X188097265Y-93203530D01*
X188093879Y-93503506D01*
X188090492Y-93803481D01*
X187781273Y-93803481D01*
X187472054Y-93803481D01*
X187472054Y-93500115D01*
X187472054Y-93196750D01*
X187178394Y-93200140D01*
X186884734Y-93203530D01*
X186881348Y-93503506D01*
X186877961Y-93803481D01*
X186581372Y-93803825D01*
X186475597Y-93803930D01*
X186353879Y-93804023D01*
X186225536Y-93804097D01*
X186099885Y-93804147D01*
X185986245Y-93804169D01*
X185969020Y-93804170D01*
X185857644Y-93804153D01*
X185732076Y-93804107D01*
X185601818Y-93804036D01*
X185476370Y-93803946D01*
X185365233Y-93803842D01*
X185350124Y-93803825D01*
X185046991Y-93803481D01*
X185046991Y-93500422D01*
X185046991Y-93197364D01*
X184450199Y-93200447D01*
X183853406Y-93203530D01*
X183850020Y-93503506D01*
X183846634Y-93803481D01*
X183537414Y-93803481D01*
X183228195Y-93803481D01*
X183228195Y-93500348D01*
X183228195Y-93197215D01*
X182925062Y-93197215D01*
X182621929Y-93197215D01*
X182621929Y-93184585D01*
X183240360Y-93184585D01*
X183537410Y-93184585D01*
X183834460Y-93184585D01*
X185059156Y-93184585D01*
X185356207Y-93184585D01*
X185653257Y-93184585D01*
X186271687Y-93184585D01*
X186568738Y-93184585D01*
X186865788Y-93184585D01*
X187484219Y-93184585D01*
X187781269Y-93184585D01*
X188078319Y-93184585D01*
X188078319Y-92887534D01*
X188078319Y-92590484D01*
X187784659Y-92593875D01*
X187490999Y-92597265D01*
X187487609Y-92890925D01*
X187484219Y-93184585D01*
X186865788Y-93184585D01*
X186865788Y-92887534D01*
X186865788Y-92590484D01*
X186572128Y-92593875D01*
X186278468Y-92597265D01*
X186275078Y-92890925D01*
X186271687Y-93184585D01*
X185653257Y-93184585D01*
X185653257Y-92887534D01*
X185653257Y-92590484D01*
X185359597Y-92593875D01*
X185065937Y-92597265D01*
X185062547Y-92890925D01*
X185059156Y-93184585D01*
X183834460Y-93184585D01*
X183834460Y-92887534D01*
X183834460Y-92590484D01*
X183540800Y-92593875D01*
X183247141Y-92597265D01*
X183243750Y-92890925D01*
X183240360Y-93184585D01*
X182621929Y-93184585D01*
X182621929Y-92590717D01*
X182621929Y-91984219D01*
X182328269Y-91987609D01*
X182034610Y-91990999D01*
X182031223Y-92290975D01*
X182027837Y-92590950D01*
X181728091Y-92591469D01*
X181618757Y-92591765D01*
X181494124Y-92592279D01*
X181364150Y-92592958D01*
X181238794Y-92593750D01*
X181128017Y-92594602D01*
X181125211Y-92594626D01*
X180822078Y-92597265D01*
X180818688Y-92890925D01*
X180815298Y-93184585D01*
X181421796Y-93184585D01*
X182028294Y-93184585D01*
X182028294Y-93494033D01*
X182028294Y-93803481D01*
X181738825Y-93803481D01*
X181655133Y-93803618D01*
X181579452Y-93804003D01*
X181515592Y-93804594D01*
X181467366Y-93805352D01*
X181438584Y-93806236D01*
X181432535Y-93806738D01*
X181415640Y-93807508D01*
X181377175Y-93807930D01*
X181320831Y-93808005D01*
X181250296Y-93807737D01*
X181169259Y-93807128D01*
X181109423Y-93806514D01*
X180803133Y-93803032D01*
X180803133Y-93499531D01*
X180803133Y-93196030D01*
X180503158Y-93197246D01*
X180394363Y-93197594D01*
X180270130Y-93197837D01*
X180140281Y-93197968D01*
X180014636Y-93197975D01*
X179903018Y-93197850D01*
X179896892Y-93197838D01*
X179590602Y-93197215D01*
X179590602Y-92887767D01*
X179590602Y-92578319D01*
X179893734Y-92578319D01*
X180196867Y-92578319D01*
X180196867Y-92275186D01*
X180196867Y-91972054D01*
X180803133Y-91972054D01*
X181409398Y-91972054D01*
X182634708Y-91972054D01*
X182931451Y-91972054D01*
X183228195Y-91972054D01*
X184452891Y-91972054D01*
X185659339Y-91972054D01*
X186865788Y-91972054D01*
X186865788Y-91675464D01*
X186865788Y-91378875D01*
X185662730Y-91381804D01*
X184459672Y-91384734D01*
X184456281Y-91678394D01*
X184452891Y-91972054D01*
X183228195Y-91972054D01*
X183228195Y-91668921D01*
X183228195Y-91365788D01*
X183531328Y-91365788D01*
X183834460Y-91365788D01*
X183834460Y-91069045D01*
X183834460Y-90772301D01*
X183237668Y-90775385D01*
X182640875Y-90778468D01*
X182637792Y-91375261D01*
X182634708Y-91972054D01*
X181409398Y-91972054D01*
X181409398Y-91668921D01*
X181409398Y-91365788D01*
X181712531Y-91365788D01*
X182015664Y-91365788D01*
X182015664Y-91068971D01*
X182015664Y-90772153D01*
X181712531Y-90772153D01*
X181409398Y-90772153D01*
X181409398Y-90759523D01*
X182028443Y-90759523D01*
X182325186Y-90759523D01*
X182621929Y-90759523D01*
X184453711Y-90759523D01*
X185356617Y-90759523D01*
X186259523Y-90759523D01*
X186259523Y-89856617D01*
X186259523Y-88953711D01*
X185359597Y-88956691D01*
X184459672Y-88959672D01*
X184456691Y-89859597D01*
X184453711Y-90759523D01*
X182621929Y-90759523D01*
X182621929Y-90159339D01*
X182621929Y-89559156D01*
X182328269Y-89562547D01*
X182034610Y-89565937D01*
X182031526Y-90162730D01*
X182028443Y-90759523D01*
X181409398Y-90759523D01*
X181409398Y-90469094D01*
X181409398Y-90166036D01*
X180812606Y-90169119D01*
X180215813Y-90172203D01*
X180212423Y-90465863D01*
X180209032Y-90759523D01*
X180512398Y-90759523D01*
X180815763Y-90759523D01*
X180815763Y-91068971D01*
X180815763Y-91378419D01*
X180506315Y-91378419D01*
X180196867Y-91378419D01*
X180196867Y-91075053D01*
X180196867Y-90771687D01*
X179903207Y-90775078D01*
X179609547Y-90778468D01*
X179606161Y-91078443D01*
X179602775Y-91378419D01*
X179303028Y-91378792D01*
X179226001Y-91378933D01*
X179128056Y-91379186D01*
X179013536Y-91379536D01*
X178886785Y-91379966D01*
X178752146Y-91380462D01*
X178613961Y-91381009D01*
X178476575Y-91381592D01*
X178397016Y-91381949D01*
X177790751Y-91384734D01*
X177787365Y-91684481D01*
X177783979Y-91984228D01*
X177484232Y-91987614D01*
X177184485Y-91990999D01*
X177181099Y-92290975D01*
X177177713Y-92590950D01*
X176868493Y-92590950D01*
X176559274Y-92590950D01*
X176559274Y-91372103D01*
X176559274Y-90759523D01*
X177783970Y-90759523D01*
X178081020Y-90759523D01*
X178378071Y-90759523D01*
X178378071Y-90462472D01*
X178378071Y-90165422D01*
X178084411Y-90168812D01*
X177790751Y-90172203D01*
X177787360Y-90465863D01*
X177783970Y-90759523D01*
X176559274Y-90759523D01*
X176559274Y-90153257D01*
X176862407Y-90153257D01*
X177165539Y-90153257D01*
X178996501Y-90153257D01*
X179293551Y-90153257D01*
X179590602Y-90153257D01*
X179590602Y-89856207D01*
X179590602Y-89559156D01*
X179296942Y-89562547D01*
X179003282Y-89565937D01*
X178999891Y-89859597D01*
X178996501Y-90153257D01*
X177165539Y-90153257D01*
X177165539Y-89856439D01*
X177165539Y-89559622D01*
X176862407Y-89559622D01*
X176559274Y-89559622D01*
X176559274Y-89546991D01*
X177783970Y-89546991D01*
X178384153Y-89546991D01*
X178984336Y-89546991D01*
X178984336Y-89250248D01*
X178984336Y-88953505D01*
X178387543Y-88956588D01*
X177790751Y-88959672D01*
X177787360Y-89253332D01*
X177783970Y-89546991D01*
X176559274Y-89546991D01*
X176559274Y-89256522D01*
X176559274Y-88953422D01*
X175653033Y-88953744D01*
X175493972Y-88953793D01*
X175334753Y-88953830D01*
X175178377Y-88953855D01*
X175027849Y-88953866D01*
X174886171Y-88953865D01*
X174756345Y-88953852D01*
X174641376Y-88953826D01*
X174544265Y-88953789D01*
X174468016Y-88953738D01*
X174440502Y-88953711D01*
X174134212Y-88953356D01*
X174134212Y-88940726D01*
X176571439Y-88940726D01*
X176868489Y-88940726D01*
X177165539Y-88940726D01*
X177165539Y-88643676D01*
X177165539Y-88346625D01*
X176871880Y-88350016D01*
X176578220Y-88353406D01*
X176574829Y-88647066D01*
X176571439Y-88940726D01*
X174134212Y-88940726D01*
X174134212Y-88643908D01*
X174134212Y-88334460D01*
X175346743Y-88334460D01*
X176559274Y-88334460D01*
X177177704Y-88334460D01*
X177474755Y-88334460D01*
X177771805Y-88334460D01*
X177771805Y-88037410D01*
X177771805Y-87740360D01*
X177478145Y-87743750D01*
X177184485Y-87747141D01*
X177181095Y-88040800D01*
X177177704Y-88334460D01*
X176559274Y-88334460D01*
X176559274Y-88031328D01*
X176559274Y-87728195D01*
X176862407Y-87728195D01*
X177165539Y-87728195D01*
X177783970Y-87728195D01*
X178384153Y-87728195D01*
X178984336Y-87728195D01*
X178984336Y-87431451D01*
X178984336Y-87134708D01*
X178387543Y-87137792D01*
X177790751Y-87140875D01*
X177787360Y-87434535D01*
X177783970Y-87728195D01*
X177165539Y-87728195D01*
X177165539Y-87431451D01*
X177165539Y-87134708D01*
X176568747Y-87137792D01*
X175971954Y-87140875D01*
X175968568Y-87440850D01*
X175965182Y-87740825D01*
X175655962Y-87740825D01*
X175346743Y-87740825D01*
X175346743Y-87437460D01*
X175346743Y-87134094D01*
X175053083Y-87137485D01*
X174759423Y-87140875D01*
X174756038Y-87440414D01*
X174752653Y-87739953D01*
X174446590Y-87743547D01*
X174335568Y-87744489D01*
X174209293Y-87744967D01*
X174077766Y-87744979D01*
X173950991Y-87744526D01*
X173838971Y-87743608D01*
X173834237Y-87743553D01*
X173527946Y-87739965D01*
X173527946Y-87437337D01*
X173527946Y-87134708D01*
X172931154Y-87137792D01*
X172334361Y-87140875D01*
X172331576Y-87747141D01*
X172330979Y-87882004D01*
X172330409Y-88020258D01*
X172329881Y-88157559D01*
X172329410Y-88289561D01*
X172329010Y-88411920D01*
X172328698Y-88520290D01*
X172328489Y-88610327D01*
X172328419Y-88653381D01*
X172328046Y-88953356D01*
X172018598Y-88953356D01*
X171709150Y-88953356D01*
X171709150Y-87121929D01*
X173540725Y-87121929D01*
X173837468Y-87121929D01*
X174134212Y-87121929D01*
X175358908Y-87121929D01*
X175655958Y-87121929D01*
X175953008Y-87121929D01*
X175953008Y-86824879D01*
X175953008Y-86527829D01*
X175659348Y-86531219D01*
X175365689Y-86534610D01*
X175362298Y-86828269D01*
X175358908Y-87121929D01*
X174134212Y-87121929D01*
X174134212Y-86818797D01*
X174134212Y-86515664D01*
X174740477Y-86515664D01*
X175346743Y-86515664D01*
X175965173Y-86515664D01*
X176262224Y-86515664D01*
X176559274Y-86515664D01*
X176559274Y-86218613D01*
X176559274Y-85921563D01*
X176265614Y-85924954D01*
X175971954Y-85928344D01*
X175968564Y-86222004D01*
X175965173Y-86515664D01*
X175346743Y-86515664D01*
X175346743Y-86219023D01*
X175346743Y-85922383D01*
X174446817Y-85925363D01*
X173546892Y-85928344D01*
X173543809Y-86525137D01*
X173540725Y-87121929D01*
X171709150Y-87121929D01*
X171709150Y-86825112D01*
X171709150Y-85909398D01*
X175358908Y-85909398D01*
X175655958Y-85909398D01*
X175953008Y-85909398D01*
X175953008Y-85612348D01*
X175953008Y-85315298D01*
X175659348Y-85318688D01*
X175365689Y-85322078D01*
X175362298Y-85615738D01*
X175358908Y-85909398D01*
X171709150Y-85909398D01*
X171709150Y-84696867D01*
X172315415Y-84696867D01*
X172921681Y-84696867D01*
X172921681Y-84090602D01*
X172921681Y-83484336D01*
X173230699Y-83484336D01*
X173539717Y-83484336D01*
X173543304Y-83790626D01*
X173544245Y-83901708D01*
X173544719Y-84028013D01*
X173544729Y-84159540D01*
X173544273Y-84286287D01*
X173543353Y-84398249D01*
X173543298Y-84402980D01*
X173539704Y-84709043D01*
X173240165Y-84712428D01*
X172940626Y-84715813D01*
X172937236Y-85009473D01*
X172933846Y-85303133D01*
X173534029Y-85303133D01*
X174134212Y-85303133D01*
X174134212Y-84696867D01*
X175358908Y-84696867D01*
X175655958Y-84696867D01*
X175953008Y-84696867D01*
X175953008Y-84399817D01*
X175953008Y-84102767D01*
X175659348Y-84106157D01*
X175365689Y-84109547D01*
X175362298Y-84403207D01*
X175358908Y-84696867D01*
X174134212Y-84696867D01*
X174134212Y-84090602D01*
X174437345Y-84090602D01*
X174740477Y-84090602D01*
X174740477Y-83793784D01*
X174740477Y-83496967D01*
X174437345Y-83496967D01*
X174134212Y-83496967D01*
X174134212Y-82884386D01*
X174134212Y-82271805D01*
X175043610Y-82271805D01*
X175953008Y-82271805D01*
X175953008Y-81975246D01*
X175953008Y-81678687D01*
X174446817Y-81681586D01*
X172940626Y-81684485D01*
X172937988Y-81987618D01*
X172937134Y-82097866D01*
X172936340Y-82222995D01*
X172935657Y-82353038D01*
X172935138Y-82478029D01*
X172934835Y-82588002D01*
X172934830Y-82590726D01*
X172934311Y-82890701D01*
X172624863Y-82890701D01*
X172315415Y-82890701D01*
X172315415Y-82284436D01*
X172315415Y-81678170D01*
X172012282Y-81678170D01*
X171709150Y-81678170D01*
X171709150Y-81368722D01*
X171709150Y-81059274D01*
X172018598Y-81059274D01*
X172328046Y-81059274D01*
X172328046Y-81362407D01*
X172328046Y-81665539D01*
X172624863Y-81665539D01*
X172921681Y-81665539D01*
X172921681Y-81362407D01*
X172921681Y-81059274D01*
X174443660Y-81059274D01*
X175965639Y-81059274D01*
X175965639Y-81362407D01*
X175965639Y-81665539D01*
X176268772Y-81665539D01*
X176571904Y-81665539D01*
X176571904Y-81974759D01*
X176571904Y-82283978D01*
X176271929Y-82287365D01*
X175971954Y-82290751D01*
X175968568Y-82590498D01*
X175965183Y-82890245D01*
X175665436Y-82893631D01*
X175365689Y-82897016D01*
X175362298Y-83190676D01*
X175358908Y-83484336D01*
X176268539Y-83484336D01*
X177178170Y-83484336D01*
X177178793Y-83790626D01*
X177178926Y-83901073D01*
X177178927Y-84026144D01*
X177178803Y-84156019D01*
X177178566Y-84280875D01*
X177178225Y-84390890D01*
X177178201Y-84396892D01*
X177176985Y-84696867D01*
X177474395Y-84696867D01*
X177771805Y-84696867D01*
X177771805Y-84393734D01*
X177771805Y-84090602D01*
X178074938Y-84090602D01*
X178378071Y-84090602D01*
X178378071Y-83793784D01*
X178378071Y-83496967D01*
X178074938Y-83496967D01*
X177771805Y-83496967D01*
X177771805Y-83187519D01*
X177771805Y-82878071D01*
X178081253Y-82878071D01*
X178390701Y-82878071D01*
X178390701Y-83181203D01*
X178390701Y-83484336D01*
X178693834Y-83484336D01*
X178996967Y-83484336D01*
X178996967Y-83793555D01*
X178996967Y-84102775D01*
X178696991Y-84106161D01*
X178397016Y-84109547D01*
X178393933Y-84706340D01*
X178390849Y-85303133D01*
X178693908Y-85303133D01*
X178996967Y-85303133D01*
X178996967Y-85612581D01*
X178996967Y-85922029D01*
X178687519Y-85922029D01*
X178378071Y-85922029D01*
X178378071Y-85618663D01*
X178378071Y-85315298D01*
X178084411Y-85318688D01*
X177790751Y-85322078D01*
X177787365Y-85621826D01*
X177783979Y-85921573D01*
X177484232Y-85924958D01*
X177184485Y-85928344D01*
X177181402Y-86525137D01*
X177178318Y-87121929D01*
X177475062Y-87121929D01*
X177771805Y-87121929D01*
X177771805Y-86818797D01*
X177771805Y-86515664D01*
X178687519Y-86515664D01*
X179603232Y-86515664D01*
X179603587Y-86821954D01*
X179603642Y-86887478D01*
X179603686Y-86975261D01*
X179603717Y-87082298D01*
X179603736Y-87205588D01*
X179603743Y-87342128D01*
X179603737Y-87488914D01*
X179603719Y-87642943D01*
X179603688Y-87801214D01*
X179603644Y-87960722D01*
X179603619Y-88034485D01*
X179603298Y-88940726D01*
X180209530Y-88940726D01*
X180815763Y-88940726D01*
X180815763Y-89243859D01*
X180815763Y-89546991D01*
X181112581Y-89546991D01*
X181409398Y-89546991D01*
X181409398Y-89243859D01*
X181409398Y-88940726D01*
X181712531Y-88940726D01*
X182015664Y-88940726D01*
X182015664Y-88643774D01*
X182015664Y-88346823D01*
X181412556Y-88347387D01*
X181277634Y-88347497D01*
X181138994Y-88347580D01*
X181001053Y-88347635D01*
X180868227Y-88347663D01*
X180744931Y-88347661D01*
X180635581Y-88347630D01*
X180544594Y-88347569D01*
X180503158Y-88347521D01*
X180196867Y-88347091D01*
X180196867Y-88037643D01*
X180196867Y-87728195D01*
X180500000Y-87728195D01*
X180803133Y-87728195D01*
X180803133Y-87425062D01*
X180803133Y-87121929D01*
X181106265Y-87121929D01*
X181409398Y-87121929D01*
X181409398Y-86824519D01*
X181409398Y-86527109D01*
X181109423Y-86528325D01*
X181000629Y-86528673D01*
X180876396Y-86528916D01*
X180746546Y-86529047D01*
X180620901Y-86529054D01*
X180509284Y-86528929D01*
X180503158Y-86528917D01*
X180196867Y-86528294D01*
X180196867Y-86225162D01*
X180196867Y-85922029D01*
X179893734Y-85922029D01*
X179590602Y-85922029D01*
X179590602Y-85909398D01*
X180209032Y-85909398D01*
X180506082Y-85909398D01*
X180803133Y-85909398D01*
X180803133Y-85612348D01*
X180803133Y-85315298D01*
X180509473Y-85318688D01*
X180215813Y-85322078D01*
X180212423Y-85615738D01*
X180209032Y-85909398D01*
X179590602Y-85909398D01*
X179590602Y-85303133D01*
X181421563Y-85303133D01*
X181718613Y-85303133D01*
X182015664Y-85303133D01*
X182015664Y-85006082D01*
X182015664Y-84709032D01*
X181722004Y-84712423D01*
X181428344Y-84715813D01*
X181424954Y-85009473D01*
X181421563Y-85303133D01*
X179590602Y-85303133D01*
X179590602Y-85006315D01*
X179590602Y-84696867D01*
X180815298Y-84696867D01*
X181112348Y-84696867D01*
X181409398Y-84696867D01*
X181409398Y-84399817D01*
X181409398Y-84102767D01*
X181115738Y-84106157D01*
X180822078Y-84109547D01*
X180818688Y-84403207D01*
X180815298Y-84696867D01*
X179590602Y-84696867D01*
X179590602Y-84090602D01*
X180196867Y-84090602D01*
X180803133Y-84090602D01*
X181421563Y-84090602D01*
X181718613Y-84090602D01*
X182015664Y-84090602D01*
X182015664Y-83793551D01*
X182015664Y-83496501D01*
X181722004Y-83499891D01*
X181428344Y-83503282D01*
X181424954Y-83796942D01*
X181421563Y-84090602D01*
X180803133Y-84090602D01*
X180803133Y-83793784D01*
X180803133Y-83496967D01*
X180500000Y-83496967D01*
X180196867Y-83496967D01*
X180196867Y-83484336D01*
X182028443Y-83484336D01*
X182325186Y-83484336D01*
X182621929Y-83484336D01*
X182621929Y-82884153D01*
X182621929Y-82283970D01*
X182328269Y-82287360D01*
X182034610Y-82290751D01*
X182031526Y-82887543D01*
X182028443Y-83484336D01*
X180196867Y-83484336D01*
X180196867Y-83187519D01*
X180196867Y-82878071D01*
X180500000Y-82878071D01*
X180803133Y-82878071D01*
X180803133Y-82574938D01*
X180803133Y-82271805D01*
X181106265Y-82271805D01*
X181409398Y-82271805D01*
X182634708Y-82271805D01*
X182931451Y-82271805D01*
X183228195Y-82271805D01*
X183228195Y-81671622D01*
X183228195Y-81071439D01*
X182934535Y-81074829D01*
X182640875Y-81078220D01*
X182637792Y-81675012D01*
X182634708Y-82271805D01*
X181409398Y-82271805D01*
X181409398Y-81974395D01*
X181409398Y-81676985D01*
X181109423Y-81678201D01*
X181000629Y-81678548D01*
X180876396Y-81678792D01*
X180746546Y-81678923D01*
X180620901Y-81678930D01*
X180509284Y-81678805D01*
X180503158Y-81678793D01*
X180196867Y-81678170D01*
X180196867Y-81375037D01*
X180196867Y-81071904D01*
X179893734Y-81071904D01*
X179590602Y-81071904D01*
X179590602Y-80768772D01*
X179590602Y-80465639D01*
X179287469Y-80465639D01*
X178984336Y-80465639D01*
X178984336Y-80453008D01*
X179602767Y-80453008D01*
X179899817Y-80453008D01*
X180196867Y-80453008D01*
X180196867Y-80155958D01*
X180196867Y-79858908D01*
X179903207Y-79862298D01*
X179609547Y-79865689D01*
X179606157Y-80159348D01*
X179602767Y-80453008D01*
X178984336Y-80453008D01*
X178984336Y-80162273D01*
X178984336Y-79858908D01*
X178690676Y-79862298D01*
X178397016Y-79865689D01*
X178393933Y-80462481D01*
X178390849Y-81059274D01*
X178693908Y-81059274D01*
X178996967Y-81059274D01*
X178996967Y-81362407D01*
X178996967Y-81665539D01*
X179300099Y-81665539D01*
X179603232Y-81665539D01*
X179603232Y-81974987D01*
X179603232Y-82284436D01*
X179293784Y-82284436D01*
X178984336Y-82284436D01*
X178984336Y-81981070D01*
X178984336Y-81677704D01*
X178690676Y-81681095D01*
X178397016Y-81684485D01*
X178393630Y-81984460D01*
X178390244Y-82284436D01*
X178081024Y-82284436D01*
X177771805Y-82284436D01*
X177771805Y-81065589D01*
X177771805Y-79846743D01*
X178074938Y-79846743D01*
X178378071Y-79846743D01*
X178378071Y-78634212D01*
X178378071Y-77421681D01*
X178990651Y-77421681D01*
X179603232Y-77421681D01*
X179603232Y-77730900D01*
G37*
%TD*%
M02*
