%TF.GenerationSoftware,KiCad,Pcbnew,7.0.10*%
%TF.CreationDate,2024-11-01T11:47:07+01:00*%
%TF.ProjectId,AxxSolder,41787853-6f6c-4646-9572-2e6b69636164,rev?*%
%TF.SameCoordinates,Original*%
%TF.FileFunction,Paste,Bot*%
%TF.FilePolarity,Positive*%
%FSLAX46Y46*%
G04 Gerber Fmt 4.6, Leading zero omitted, Abs format (unit mm)*
G04 Created by KiCad (PCBNEW 7.0.10) date 2024-11-01 11:47:07*
%MOMM*%
%LPD*%
G01*
G04 APERTURE LIST*
G04 Aperture macros list*
%AMRoundRect*
0 Rectangle with rounded corners*
0 $1 Rounding radius*
0 $2 $3 $4 $5 $6 $7 $8 $9 X,Y pos of 4 corners*
0 Add a 4 corners polygon primitive as box body*
4,1,4,$2,$3,$4,$5,$6,$7,$8,$9,$2,$3,0*
0 Add four circle primitives for the rounded corners*
1,1,$1+$1,$2,$3*
1,1,$1+$1,$4,$5*
1,1,$1+$1,$6,$7*
1,1,$1+$1,$8,$9*
0 Add four rect primitives between the rounded corners*
20,1,$1+$1,$2,$3,$4,$5,0*
20,1,$1+$1,$4,$5,$6,$7,0*
20,1,$1+$1,$6,$7,$8,$9,0*
20,1,$1+$1,$8,$9,$2,$3,0*%
G04 Aperture macros list end*
%ADD10R,4.250000X2.100000*%
%ADD11R,1.200000X0.600000*%
%ADD12R,0.300000X1.150000*%
%ADD13R,2.180000X2.000000*%
%ADD14RoundRect,0.225000X0.225000X0.250000X-0.225000X0.250000X-0.225000X-0.250000X0.225000X-0.250000X0*%
%ADD15R,3.200000X2.850000*%
%ADD16R,0.400000X0.550000*%
%ADD17R,0.400000X0.410000*%
%ADD18R,2.750000X1.470000*%
%ADD19R,2.750000X0.250000*%
%ADD20R,1.050000X0.600000*%
%ADD21RoundRect,0.200000X-0.200000X-0.275000X0.200000X-0.275000X0.200000X0.275000X-0.200000X0.275000X0*%
%ADD22R,0.300000X1.475000*%
%ADD23R,1.475000X0.300000*%
%ADD24RoundRect,0.200000X0.275000X-0.200000X0.275000X0.200000X-0.275000X0.200000X-0.275000X-0.200000X0*%
%ADD25RoundRect,0.225000X-0.250000X0.225000X-0.250000X-0.225000X0.250000X-0.225000X0.250000X0.225000X0*%
%ADD26RoundRect,0.200000X0.200000X0.275000X-0.200000X0.275000X-0.200000X-0.275000X0.200000X-0.275000X0*%
%ADD27RoundRect,0.225000X-0.225000X-0.250000X0.225000X-0.250000X0.225000X0.250000X-0.225000X0.250000X0*%
%ADD28RoundRect,0.225000X0.250000X-0.225000X0.250000X0.225000X-0.250000X0.225000X-0.250000X-0.225000X0*%
%ADD29RoundRect,0.200000X-0.275000X0.200000X-0.275000X-0.200000X0.275000X-0.200000X0.275000X0.200000X0*%
%ADD30R,1.200000X1.200000*%
%ADD31R,2.500000X3.000000*%
%ADD32RoundRect,0.250000X0.450000X-0.262500X0.450000X0.262500X-0.450000X0.262500X-0.450000X-0.262500X0*%
%ADD33R,1.120000X1.220000*%
%ADD34R,0.500000X0.925000*%
%ADD35R,0.600000X0.800000*%
%ADD36R,4.410000X3.655000*%
%ADD37R,0.700000X0.300000*%
%ADD38R,1.000000X1.700000*%
%ADD39R,1.050000X0.500000*%
%ADD40R,1.900000X3.450000*%
%ADD41R,1.220000X1.120000*%
%ADD42R,2.700000X2.700000*%
%ADD43R,0.800000X0.300000*%
%ADD44R,0.300000X0.800000*%
%ADD45R,0.750000X0.400000*%
%ADD46R,0.400000X0.530000*%
%ADD47R,2.400000X2.450000*%
%ADD48R,1.730000X1.850000*%
%ADD49R,0.300000X0.750000*%
%ADD50R,1.425000X0.450000*%
%ADD51R,1.680000X1.880000*%
%ADD52R,4.240000X3.810000*%
%ADD53R,0.600000X1.050000*%
%ADD54R,2.500000X2.400000*%
%ADD55R,0.600000X0.350000*%
%ADD56R,1.100000X1.700000*%
G04 APERTURE END LIST*
D10*
%TO.C,C37*%
X179000000Y-73800000D03*
X171700000Y-73800000D03*
%TD*%
D11*
%TO.C,IC3*%
X165250000Y-77800000D03*
X165250000Y-76850000D03*
X165250000Y-75900000D03*
X167750000Y-75900000D03*
X167750000Y-76850000D03*
X167750000Y-77800000D03*
%TD*%
%TO.C,IC5*%
X180000000Y-137700000D03*
X180000000Y-138650000D03*
X180000000Y-139600000D03*
X177500000Y-139600000D03*
X177500000Y-138650000D03*
X177500000Y-137700000D03*
%TD*%
D12*
%TO.C,J1*%
X183850000Y-142572000D03*
X183050000Y-142572000D03*
X181750000Y-142572000D03*
X180750000Y-142572000D03*
X180250000Y-142572000D03*
X179250000Y-142572000D03*
X177950000Y-142572000D03*
X177150000Y-142572000D03*
X177450000Y-142572000D03*
X178250000Y-142572000D03*
X178750000Y-142572000D03*
X179750000Y-142572000D03*
X181250000Y-142572000D03*
X182250000Y-142572000D03*
X182750000Y-142572000D03*
X183550000Y-142572000D03*
D13*
X185610000Y-143147000D03*
X175390000Y-143147000D03*
X185610000Y-147077000D03*
X175390000Y-147077000D03*
%TD*%
D14*
%TO.C,C23*%
X180525000Y-126600000D03*
X178975000Y-126600000D03*
%TD*%
D15*
%TO.C,L1*%
X166400000Y-80550000D03*
X166400000Y-86250000D03*
%TD*%
D16*
%TO.C,Q2*%
X198700000Y-131790000D03*
X198050000Y-131790000D03*
X197400000Y-131790000D03*
X196750000Y-131790000D03*
D17*
X198700000Y-128920000D03*
X198050000Y-128920000D03*
D18*
X197725000Y-130110000D03*
D19*
X197725000Y-129250000D03*
D17*
X197400000Y-128920000D03*
X196750000Y-128920000D03*
%TD*%
D14*
%TO.C,C6*%
X181525000Y-104250000D03*
X179975000Y-104250000D03*
%TD*%
D20*
%TO.C,D6*%
X193762500Y-115535000D03*
X193762500Y-117435000D03*
X191562500Y-116485000D03*
%TD*%
D21*
%TO.C,R30*%
X172825000Y-129700000D03*
X174475000Y-129700000D03*
%TD*%
%TO.C,R7*%
X171075000Y-85400000D03*
X172725000Y-85400000D03*
%TD*%
D22*
%TO.C,IC4*%
X178350000Y-107662000D03*
X178850000Y-107662000D03*
X179350000Y-107662000D03*
X179850000Y-107662000D03*
X180350000Y-107662000D03*
X180850000Y-107662000D03*
X181350000Y-107662000D03*
X181850000Y-107662000D03*
X182350000Y-107662000D03*
X182850000Y-107662000D03*
X183350000Y-107662000D03*
X183850000Y-107662000D03*
D23*
X185338000Y-109150000D03*
X185338000Y-109650000D03*
X185338000Y-110150000D03*
X185338000Y-110650000D03*
X185338000Y-111150000D03*
X185338000Y-111650000D03*
X185338000Y-112150000D03*
X185338000Y-112650000D03*
X185338000Y-113150000D03*
X185338000Y-113650000D03*
X185338000Y-114150000D03*
X185338000Y-114650000D03*
D22*
X183850000Y-116138000D03*
X183350000Y-116138000D03*
X182850000Y-116138000D03*
X182350000Y-116138000D03*
X181850000Y-116138000D03*
X181350000Y-116138000D03*
X180850000Y-116138000D03*
X180350000Y-116138000D03*
X179850000Y-116138000D03*
X179350000Y-116138000D03*
X178850000Y-116138000D03*
X178350000Y-116138000D03*
D23*
X176862000Y-114650000D03*
X176862000Y-114150000D03*
X176862000Y-113650000D03*
X176862000Y-113150000D03*
X176862000Y-112650000D03*
X176862000Y-112150000D03*
X176862000Y-111650000D03*
X176862000Y-111150000D03*
X176862000Y-110650000D03*
X176862000Y-110150000D03*
X176862000Y-109650000D03*
X176862000Y-109150000D03*
%TD*%
D24*
%TO.C,R37*%
X168500000Y-140625000D03*
X168500000Y-138975000D03*
%TD*%
D25*
%TO.C,C32*%
X174750000Y-80975000D03*
X174750000Y-82525000D03*
%TD*%
D21*
%TO.C,FB1*%
X187250000Y-116050000D03*
X188900000Y-116050000D03*
%TD*%
%TO.C,R8*%
X171075000Y-86900000D03*
X172725000Y-86900000D03*
%TD*%
%TO.C,R15*%
X188875000Y-134050000D03*
X190525000Y-134050000D03*
%TD*%
D24*
%TO.C,R25*%
X196912500Y-117060000D03*
X196912500Y-115410000D03*
%TD*%
D26*
%TO.C,R11*%
X172725000Y-83900000D03*
X171075000Y-83900000D03*
%TD*%
D27*
%TO.C,C11*%
X188925000Y-138750000D03*
X190475000Y-138750000D03*
%TD*%
D14*
%TO.C,C7*%
X172675000Y-89900000D03*
X171125000Y-89900000D03*
%TD*%
D28*
%TO.C,C5*%
X169400000Y-77900000D03*
X169400000Y-76350000D03*
%TD*%
D27*
%TO.C,C16*%
X184725000Y-117550000D03*
X186275000Y-117550000D03*
%TD*%
D29*
%TO.C,R28*%
X168600000Y-94775000D03*
X168600000Y-96425000D03*
%TD*%
%TO.C,R14*%
X191950000Y-136425000D03*
X191950000Y-138075000D03*
%TD*%
D21*
%TO.C,R46*%
X178925000Y-129600000D03*
X180575000Y-129600000D03*
%TD*%
D30*
%TO.C,D10*%
X186800000Y-85800000D03*
X189600000Y-85800000D03*
%TD*%
D21*
%TO.C,R36*%
X172775000Y-138200000D03*
X174425000Y-138200000D03*
%TD*%
D31*
%TO.C,LS1*%
X166100000Y-127500000D03*
X166100000Y-135500000D03*
%TD*%
D14*
%TO.C,C30*%
X184275000Y-84750000D03*
X182725000Y-84750000D03*
%TD*%
D27*
%TO.C,C35*%
X181925000Y-76000000D03*
X183475000Y-76000000D03*
%TD*%
D26*
%TO.C,R16*%
X174475000Y-131200000D03*
X172825000Y-131200000D03*
%TD*%
D32*
%TO.C,R45*%
X189600000Y-104025000D03*
X189600000Y-102200000D03*
%TD*%
D33*
%TO.C,D3*%
X189000000Y-141200000D03*
X189000000Y-144200000D03*
%TD*%
D26*
%TO.C,R1*%
X190525000Y-92600000D03*
X188875000Y-92600000D03*
%TD*%
%TO.C,R32*%
X180575000Y-128100000D03*
X178925000Y-128100000D03*
%TD*%
D14*
%TO.C,C14*%
X178475000Y-105900000D03*
X176925000Y-105900000D03*
%TD*%
D34*
%TO.C,U3*%
X189700000Y-82700000D03*
X188430000Y-82700000D03*
X187160000Y-82700000D03*
X185890000Y-82700000D03*
D35*
X189700000Y-76910000D03*
X188430000Y-76910000D03*
D36*
X187795000Y-79135000D03*
D35*
X187160000Y-76910000D03*
X185890000Y-76910000D03*
%TD*%
D24*
%TO.C,R23*%
X165500000Y-140625000D03*
X165500000Y-138975000D03*
%TD*%
D37*
%TO.C,IC2*%
X182775000Y-99750000D03*
X182775000Y-100250000D03*
X182775000Y-100750000D03*
X182775000Y-101250000D03*
X180675000Y-101250000D03*
X180675000Y-100750000D03*
X180675000Y-100250000D03*
X180675000Y-99750000D03*
D38*
X181725000Y-100500000D03*
%TD*%
D27*
%TO.C,C19*%
X187300000Y-114550000D03*
X188850000Y-114550000D03*
%TD*%
D26*
%TO.C,R31*%
X180575000Y-134100000D03*
X178925000Y-134100000D03*
%TD*%
D20*
%TO.C,D8*%
X193762500Y-120035000D03*
X193762500Y-121935000D03*
X191562500Y-120985000D03*
%TD*%
D24*
%TO.C,R18*%
X195412500Y-121560000D03*
X195412500Y-119910000D03*
%TD*%
D29*
%TO.C,R34*%
X167000000Y-138975000D03*
X167000000Y-140625000D03*
%TD*%
D14*
%TO.C,C8*%
X172675000Y-88400000D03*
X171125000Y-88400000D03*
%TD*%
%TO.C,C25*%
X196937500Y-118485000D03*
X195387500Y-118485000D03*
%TD*%
D21*
%TO.C,R26*%
X188925000Y-127500000D03*
X190575000Y-127500000D03*
%TD*%
D24*
%TO.C,R22*%
X196912500Y-112560000D03*
X196912500Y-110910000D03*
%TD*%
D26*
%TO.C,R12*%
X194825000Y-140750000D03*
X193175000Y-140750000D03*
%TD*%
D39*
%TO.C,D2*%
X187450000Y-94950000D03*
X187450000Y-96250000D03*
X185350000Y-95600000D03*
%TD*%
D26*
%TO.C,R47*%
X174425000Y-136700000D03*
X172775000Y-136700000D03*
%TD*%
D40*
%TO.C,R42*%
X189200000Y-89000000D03*
X183800000Y-89000000D03*
%TD*%
D26*
%TO.C,R10*%
X183575000Y-96000000D03*
X181925000Y-96000000D03*
%TD*%
D30*
%TO.C,D9*%
X180500000Y-85750000D03*
X177700000Y-85750000D03*
%TD*%
D27*
%TO.C,C34*%
X181925000Y-77400000D03*
X183475000Y-77400000D03*
%TD*%
D26*
%TO.C,R5*%
X190525000Y-95400000D03*
X188875000Y-95400000D03*
%TD*%
%TO.C,R33*%
X167225000Y-97900000D03*
X165575000Y-97900000D03*
%TD*%
D27*
%TO.C,C12*%
X188925000Y-137240000D03*
X190475000Y-137240000D03*
%TD*%
D25*
%TO.C,C17*%
X175500000Y-106725000D03*
X175500000Y-108275000D03*
%TD*%
D27*
%TO.C,C13*%
X188925000Y-135750000D03*
X190475000Y-135750000D03*
%TD*%
D28*
%TO.C,C2*%
X164600000Y-90750000D03*
X164600000Y-89200000D03*
%TD*%
D14*
%TO.C,C28*%
X174425000Y-132700000D03*
X172875000Y-132700000D03*
%TD*%
D21*
%TO.C,R21*%
X165575000Y-93300000D03*
X167225000Y-93300000D03*
%TD*%
D27*
%TO.C,C21*%
X172875000Y-128200000D03*
X174425000Y-128200000D03*
%TD*%
D24*
%TO.C,R29*%
X196912500Y-121560000D03*
X196912500Y-119910000D03*
%TD*%
D21*
%TO.C,R17*%
X184425000Y-133800000D03*
X186075000Y-133800000D03*
%TD*%
D26*
%TO.C,R38*%
X176325000Y-83900000D03*
X174675000Y-83900000D03*
%TD*%
D14*
%TO.C,C29*%
X174375000Y-139700000D03*
X172825000Y-139700000D03*
%TD*%
D41*
%TO.C,D4*%
X183400000Y-79300000D03*
X180400000Y-79300000D03*
%TD*%
D21*
%TO.C,R3*%
X182900000Y-102750000D03*
X184550000Y-102750000D03*
%TD*%
D42*
%TO.C,IC6*%
X185250000Y-137500000D03*
D43*
X187250000Y-138750000D03*
X187250000Y-138250000D03*
X187250000Y-137750000D03*
X187250000Y-137250000D03*
X187250000Y-136750000D03*
X187250000Y-136250000D03*
D44*
X186500000Y-135500000D03*
X186000000Y-135500000D03*
X185500000Y-135500000D03*
X185000000Y-135500000D03*
X184500000Y-135500000D03*
X184000000Y-135500000D03*
D43*
X183250000Y-136250000D03*
X183250000Y-136750000D03*
X183250000Y-137250000D03*
X183250000Y-137750000D03*
X183250000Y-138250000D03*
X183250000Y-138750000D03*
D44*
X184000000Y-139500000D03*
X184500000Y-139500000D03*
X185000000Y-139500000D03*
X185500000Y-139500000D03*
X186000000Y-139500000D03*
X186500000Y-139500000D03*
%TD*%
D28*
%TO.C,C9*%
X196250000Y-142275000D03*
X196250000Y-140725000D03*
%TD*%
D45*
%TO.C,Q1*%
X193475000Y-138725000D03*
X193475000Y-138075000D03*
X193475000Y-137425000D03*
X193475000Y-136775000D03*
D46*
X195000000Y-139240000D03*
D47*
X195700000Y-137750000D03*
D46*
X195000000Y-136260000D03*
%TD*%
D14*
%TO.C,C22*%
X180525000Y-132600000D03*
X178975000Y-132600000D03*
%TD*%
D48*
%TO.C,IC7*%
X193750000Y-131700000D03*
D49*
X194500000Y-130200000D03*
X194000000Y-130200000D03*
X193500000Y-130200000D03*
X193000000Y-130200000D03*
X193000000Y-133200000D03*
X193500000Y-133200000D03*
X194000000Y-133200000D03*
X194500000Y-133200000D03*
%TD*%
D50*
%TO.C,IC8*%
X178676000Y-83200000D03*
X178676000Y-82550000D03*
X178676000Y-81900000D03*
X178676000Y-81250000D03*
X183100000Y-81250000D03*
X183100000Y-81900000D03*
X183100000Y-82550000D03*
X183100000Y-83200000D03*
D51*
X180888000Y-82225000D03*
%TD*%
D28*
%TO.C,C10*%
X191000000Y-144175000D03*
X191000000Y-142625000D03*
%TD*%
D14*
%TO.C,C15*%
X177475000Y-117550000D03*
X175925000Y-117550000D03*
%TD*%
D24*
%TO.C,R19*%
X195412500Y-117060000D03*
X195412500Y-115410000D03*
%TD*%
D20*
%TO.C,D7*%
X172350000Y-94600000D03*
X172350000Y-96500000D03*
X170150000Y-95550000D03*
%TD*%
D27*
%TO.C,C4*%
X182950000Y-104250000D03*
X184500000Y-104250000D03*
%TD*%
D25*
%TO.C,C1*%
X169700000Y-89200000D03*
X169700000Y-90750000D03*
%TD*%
D21*
%TO.C,R9*%
X181975000Y-98000000D03*
X183625000Y-98000000D03*
%TD*%
D27*
%TO.C,C18*%
X187300000Y-113050000D03*
X188850000Y-113050000D03*
%TD*%
D14*
%TO.C,C24*%
X167175000Y-96400000D03*
X165625000Y-96400000D03*
%TD*%
D39*
%TO.C,D1*%
X187450000Y-92000000D03*
X187450000Y-93300000D03*
X185350000Y-92650000D03*
%TD*%
D21*
%TO.C,R43*%
X178925000Y-131100000D03*
X180575000Y-131100000D03*
%TD*%
D52*
%TO.C,F1*%
X184410000Y-70400000D03*
X190790000Y-70400000D03*
%TD*%
D53*
%TO.C,Q3*%
X163950000Y-140900000D03*
X162050000Y-140900000D03*
X163000000Y-138700000D03*
%TD*%
D11*
%TO.C,IC9*%
X187700000Y-107950000D03*
X187700000Y-107000000D03*
X187700000Y-106050000D03*
X190200000Y-106050000D03*
X190200000Y-107950000D03*
%TD*%
D14*
%TO.C,C31*%
X184300000Y-86260000D03*
X182750000Y-86260000D03*
%TD*%
D24*
%TO.C,R6*%
X182000000Y-94575000D03*
X182000000Y-92925000D03*
%TD*%
D21*
%TO.C,R13*%
X193175000Y-142250000D03*
X194825000Y-142250000D03*
%TD*%
D29*
%TO.C,R2*%
X184475000Y-99675000D03*
X184475000Y-101325000D03*
%TD*%
D25*
%TO.C,C33*%
X176250000Y-80975000D03*
X176250000Y-82525000D03*
%TD*%
D54*
%TO.C,F2*%
X187000000Y-103800000D03*
X187000000Y-98400000D03*
%TD*%
D25*
%TO.C,C3*%
X163600000Y-76375000D03*
X163600000Y-77925000D03*
%TD*%
D14*
%TO.C,C26*%
X196937500Y-113985000D03*
X195387500Y-113985000D03*
%TD*%
D20*
%TO.C,D5*%
X193762500Y-111035000D03*
X193762500Y-112935000D03*
X191562500Y-111985000D03*
%TD*%
D26*
%TO.C,R35*%
X174475000Y-134200000D03*
X172825000Y-134200000D03*
%TD*%
%TO.C,R27*%
X193575000Y-127500000D03*
X191925000Y-127500000D03*
%TD*%
D24*
%TO.C,R20*%
X195412500Y-112560000D03*
X195412500Y-110910000D03*
%TD*%
D26*
%TO.C,R48*%
X174425000Y-141200000D03*
X172775000Y-141200000D03*
%TD*%
D55*
%TO.C,IC1*%
X166100000Y-90550000D03*
X166100000Y-89900000D03*
X166100000Y-89250000D03*
X168200000Y-89250000D03*
X168200000Y-89900000D03*
X168200000Y-90550000D03*
D56*
X167150000Y-89900000D03*
%TD*%
D27*
%TO.C,C20*%
X187725000Y-117550000D03*
X189275000Y-117550000D03*
%TD*%
D29*
%TO.C,R4*%
X183500000Y-92925000D03*
X183500000Y-94575000D03*
%TD*%
D26*
%TO.C,R24*%
X167225000Y-94900000D03*
X165575000Y-94900000D03*
%TD*%
D32*
%TO.C,R44*%
X189600000Y-100800000D03*
X189600000Y-98975000D03*
%TD*%
D14*
%TO.C,C27*%
X196937500Y-109485000D03*
X195387500Y-109485000D03*
%TD*%
M02*
