%TF.GenerationSoftware,KiCad,Pcbnew,7.0.8*%
%TF.CreationDate,2023-12-22T16:46:09+01:00*%
%TF.ProjectId,AxxSolder,41787853-6f6c-4646-9572-2e6b69636164,rev?*%
%TF.SameCoordinates,Original*%
%TF.FileFunction,Soldermask,Top*%
%TF.FilePolarity,Negative*%
%FSLAX46Y46*%
G04 Gerber Fmt 4.6, Leading zero omitted, Abs format (unit mm)*
G04 Created by KiCad (PCBNEW 7.0.8) date 2023-12-22 16:46:09*
%MOMM*%
%LPD*%
G01*
G04 APERTURE LIST*
G04 Aperture macros list*
%AMRoundRect*
0 Rectangle with rounded corners*
0 $1 Rounding radius*
0 $2 $3 $4 $5 $6 $7 $8 $9 X,Y pos of 4 corners*
0 Add a 4 corners polygon primitive as box body*
4,1,4,$2,$3,$4,$5,$6,$7,$8,$9,$2,$3,0*
0 Add four circle primitives for the rounded corners*
1,1,$1+$1,$2,$3*
1,1,$1+$1,$4,$5*
1,1,$1+$1,$6,$7*
1,1,$1+$1,$8,$9*
0 Add four rect primitives between the rounded corners*
20,1,$1+$1,$2,$3,$4,$5,0*
20,1,$1+$1,$4,$5,$6,$7,0*
20,1,$1+$1,$6,$7,$8,$9,0*
20,1,$1+$1,$8,$9,$2,$3,0*%
G04 Aperture macros list end*
%ADD10R,3.750000X4.000000*%
%ADD11R,2.500000X2.700000*%
%ADD12R,2.500000X3.200000*%
%ADD13R,1.300000X2.400000*%
%ADD14O,1.650000X2.300000*%
%ADD15C,2.100000*%
%ADD16C,2.500000*%
%ADD17C,0.650000*%
%ADD18R,1.300000X1.550000*%
%ADD19R,1.000000X1.000000*%
%ADD20O,1.000000X1.000000*%
%ADD21C,1.000000*%
%ADD22C,1.700000*%
%ADD23C,1.500000*%
%ADD24R,1.930000X1.000000*%
%ADD25O,1.700000X1.700000*%
%ADD26R,1.700000X1.700000*%
%ADD27C,1.650000*%
%ADD28R,1.650000X1.650000*%
%ADD29RoundRect,0.200000X0.200000X0.275000X-0.200000X0.275000X-0.200000X-0.275000X0.200000X-0.275000X0*%
%ADD30RoundRect,0.200000X-0.200000X-0.275000X0.200000X-0.275000X0.200000X0.275000X-0.200000X0.275000X0*%
%ADD31RoundRect,0.225000X-0.225000X-0.250000X0.225000X-0.250000X0.225000X0.250000X-0.225000X0.250000X0*%
G04 APERTURE END LIST*
D10*
%TO.C,U3*%
X176625000Y-135400000D03*
D11*
X175250000Y-143050000D03*
D12*
X175250000Y-127500000D03*
D11*
X165250000Y-143050000D03*
D12*
X165250000Y-127500000D03*
D10*
X163875000Y-135400000D03*
D13*
X172750000Y-128400000D03*
X167750000Y-128400000D03*
X172750000Y-142700000D03*
X170250000Y-142700000D03*
X167750000Y-142700000D03*
D14*
X170250000Y-139900000D03*
D15*
X170250000Y-135400000D03*
%TD*%
D16*
%TO.C,H1*%
X164000000Y-147000000D03*
%TD*%
%TO.C,H2*%
X197000000Y-147000000D03*
%TD*%
D17*
%TO.C,J1*%
X177610000Y-143647000D03*
X183390000Y-143647000D03*
%TD*%
D18*
%TO.C,S1*%
X168000000Y-139375000D03*
X172500000Y-139375000D03*
X168000000Y-131425000D03*
X172500000Y-131425000D03*
%TD*%
%TO.C,S2*%
X182000000Y-139375000D03*
X186500000Y-139375000D03*
X182000000Y-131425000D03*
X186500000Y-131425000D03*
%TD*%
%TO.C,S3*%
X194000000Y-139375000D03*
X198500000Y-139375000D03*
X194000000Y-131425000D03*
X198500000Y-131425000D03*
%TD*%
D19*
%TO.C,J4*%
X168600000Y-111750000D03*
D20*
X169870000Y-111750000D03*
%TD*%
D21*
%TO.C,TP6*%
X173500000Y-68750000D03*
%TD*%
%TO.C,TP7*%
X182000000Y-74750000D03*
%TD*%
%TO.C,TP2*%
X166750000Y-91250000D03*
%TD*%
%TO.C,TP1*%
X163500000Y-88750000D03*
%TD*%
D22*
%TO.C,U1*%
X193200000Y-124152000D03*
X190660000Y-124152000D03*
X188120000Y-124152000D03*
X185580000Y-124152000D03*
X183040000Y-124152000D03*
X180500000Y-124152000D03*
X177960000Y-124152000D03*
X175420000Y-124152000D03*
X172880000Y-124152000D03*
X170340000Y-124152000D03*
X167800000Y-124152000D03*
D23*
X195740000Y-70050000D03*
X165260000Y-70050000D03*
%TD*%
D24*
%TO.C,D10*%
X193500000Y-84550000D03*
X193500000Y-88950000D03*
%TD*%
D25*
%TO.C,REF\u002A\u002A*%
X198750000Y-74765000D03*
D26*
X198750000Y-72225000D03*
%TD*%
D25*
%TO.C,REF\u002A\u002A*%
X162250000Y-74765000D03*
D26*
X162250000Y-72225000D03*
%TD*%
D27*
%TO.C,J2*%
X196250000Y-78000000D03*
X196250000Y-81500000D03*
X196250000Y-85000000D03*
X196250000Y-88500000D03*
X196250000Y-92000000D03*
X196250000Y-95500000D03*
X196250000Y-99000000D03*
X196250000Y-102500000D03*
D28*
X196250000Y-106000000D03*
%TD*%
D29*
%TO.C,R33*%
X179325000Y-130250000D03*
X177675000Y-130250000D03*
%TD*%
D30*
%TO.C,R32*%
X177675000Y-128750000D03*
X179325000Y-128750000D03*
%TD*%
%TO.C,R29*%
X189425000Y-136750000D03*
X191075000Y-136750000D03*
%TD*%
%TO.C,R28*%
X189425000Y-139750000D03*
X191075000Y-139750000D03*
%TD*%
%TO.C,R27*%
X182325000Y-127250000D03*
X180675000Y-127250000D03*
%TD*%
D31*
%TO.C,C34*%
X177725000Y-131740000D03*
X179275000Y-131740000D03*
%TD*%
%TO.C,C33*%
X177725000Y-127250000D03*
X179275000Y-127250000D03*
%TD*%
%TO.C,C28*%
X189475000Y-135250000D03*
X191025000Y-135250000D03*
%TD*%
%TO.C,C27*%
X189475000Y-138250000D03*
X191025000Y-138250000D03*
%TD*%
%TO.C,C26*%
X180725000Y-128750000D03*
X182275000Y-128750000D03*
%TD*%
D25*
%TO.C,J3*%
X162500000Y-124080000D03*
X162500000Y-121540000D03*
X162500000Y-119000000D03*
X162500000Y-116460000D03*
D26*
X162500000Y-113920000D03*
%TD*%
M02*
