%TF.GenerationSoftware,KiCad,Pcbnew,7.0.10*%
%TF.CreationDate,2025-03-18T18:42:47+01:00*%
%TF.ProjectId,AxxSolder,41787853-6f6c-4646-9572-2e6b69636164,rev?*%
%TF.SameCoordinates,Original*%
%TF.FileFunction,Legend,Top*%
%TF.FilePolarity,Positive*%
%FSLAX46Y46*%
G04 Gerber Fmt 4.6, Leading zero omitted, Abs format (unit mm)*
G04 Created by KiCad (PCBNEW 7.0.10) date 2025-03-18 18:42:47*
%MOMM*%
%LPD*%
G01*
G04 APERTURE LIST*
%ADD10C,0.200000*%
%ADD11C,0.150000*%
%ADD12C,0.100000*%
G04 APERTURE END LIST*
D10*
X199250000Y-147000000D02*
G75*
G03*
X194750000Y-147000000I-2250000J0D01*
G01*
X194750000Y-147000000D02*
G75*
G03*
X199250000Y-147000000I2250000J0D01*
G01*
X198000000Y-70000000D02*
G75*
G03*
X193500000Y-70000000I-2250000J0D01*
G01*
X193500000Y-70000000D02*
G75*
G03*
X198000000Y-70000000I2250000J0D01*
G01*
X167500000Y-70000000D02*
G75*
G03*
X163000000Y-70000000I-2250000J0D01*
G01*
X163000000Y-70000000D02*
G75*
G03*
X167500000Y-70000000I2250000J0D01*
G01*
X166250000Y-147000000D02*
G75*
G03*
X161750000Y-147000000I-2250000J0D01*
G01*
X161750000Y-147000000D02*
G75*
G03*
X166250000Y-147000000I2250000J0D01*
G01*
X165309522Y-96452219D02*
X165309522Y-95452219D01*
X165738093Y-96452219D02*
X165738093Y-95928409D01*
X165738093Y-95928409D02*
X165690474Y-95833171D01*
X165690474Y-95833171D02*
X165595236Y-95785552D01*
X165595236Y-95785552D02*
X165452379Y-95785552D01*
X165452379Y-95785552D02*
X165357141Y-95833171D01*
X165357141Y-95833171D02*
X165309522Y-95880790D01*
X166071427Y-95785552D02*
X166452379Y-95785552D01*
X166214284Y-95452219D02*
X166214284Y-96309361D01*
X166214284Y-96309361D02*
X166261903Y-96404600D01*
X166261903Y-96404600D02*
X166357141Y-96452219D01*
X166357141Y-96452219D02*
X166452379Y-96452219D01*
X166642856Y-95785552D02*
X167023808Y-95785552D01*
X166785713Y-95452219D02*
X166785713Y-96309361D01*
X166785713Y-96309361D02*
X166833332Y-96404600D01*
X166833332Y-96404600D02*
X166928570Y-96452219D01*
X166928570Y-96452219D02*
X167023808Y-96452219D01*
X167357142Y-95785552D02*
X167357142Y-96785552D01*
X167357142Y-95833171D02*
X167452380Y-95785552D01*
X167452380Y-95785552D02*
X167642856Y-95785552D01*
X167642856Y-95785552D02*
X167738094Y-95833171D01*
X167738094Y-95833171D02*
X167785713Y-95880790D01*
X167785713Y-95880790D02*
X167833332Y-95976028D01*
X167833332Y-95976028D02*
X167833332Y-96261742D01*
X167833332Y-96261742D02*
X167785713Y-96356980D01*
X167785713Y-96356980D02*
X167738094Y-96404600D01*
X167738094Y-96404600D02*
X167642856Y-96452219D01*
X167642856Y-96452219D02*
X167452380Y-96452219D01*
X167452380Y-96452219D02*
X167357142Y-96404600D01*
X168214285Y-96404600D02*
X168309523Y-96452219D01*
X168309523Y-96452219D02*
X168499999Y-96452219D01*
X168499999Y-96452219D02*
X168595237Y-96404600D01*
X168595237Y-96404600D02*
X168642856Y-96309361D01*
X168642856Y-96309361D02*
X168642856Y-96261742D01*
X168642856Y-96261742D02*
X168595237Y-96166504D01*
X168595237Y-96166504D02*
X168499999Y-96118885D01*
X168499999Y-96118885D02*
X168357142Y-96118885D01*
X168357142Y-96118885D02*
X168261904Y-96071266D01*
X168261904Y-96071266D02*
X168214285Y-95976028D01*
X168214285Y-95976028D02*
X168214285Y-95928409D01*
X168214285Y-95928409D02*
X168261904Y-95833171D01*
X168261904Y-95833171D02*
X168357142Y-95785552D01*
X168357142Y-95785552D02*
X168499999Y-95785552D01*
X168499999Y-95785552D02*
X168595237Y-95833171D01*
X169071428Y-96356980D02*
X169119047Y-96404600D01*
X169119047Y-96404600D02*
X169071428Y-96452219D01*
X169071428Y-96452219D02*
X169023809Y-96404600D01*
X169023809Y-96404600D02*
X169071428Y-96356980D01*
X169071428Y-96356980D02*
X169071428Y-96452219D01*
X169071428Y-95833171D02*
X169119047Y-95880790D01*
X169119047Y-95880790D02*
X169071428Y-95928409D01*
X169071428Y-95928409D02*
X169023809Y-95880790D01*
X169023809Y-95880790D02*
X169071428Y-95833171D01*
X169071428Y-95833171D02*
X169071428Y-95928409D01*
X170261903Y-95404600D02*
X169404761Y-96690314D01*
X171309522Y-95404600D02*
X170452380Y-96690314D01*
X172071427Y-95785552D02*
X172071427Y-96595076D01*
X172071427Y-96595076D02*
X172023808Y-96690314D01*
X172023808Y-96690314D02*
X171976189Y-96737933D01*
X171976189Y-96737933D02*
X171880951Y-96785552D01*
X171880951Y-96785552D02*
X171738094Y-96785552D01*
X171738094Y-96785552D02*
X171642856Y-96737933D01*
X172071427Y-96404600D02*
X171976189Y-96452219D01*
X171976189Y-96452219D02*
X171785713Y-96452219D01*
X171785713Y-96452219D02*
X171690475Y-96404600D01*
X171690475Y-96404600D02*
X171642856Y-96356980D01*
X171642856Y-96356980D02*
X171595237Y-96261742D01*
X171595237Y-96261742D02*
X171595237Y-95976028D01*
X171595237Y-95976028D02*
X171642856Y-95880790D01*
X171642856Y-95880790D02*
X171690475Y-95833171D01*
X171690475Y-95833171D02*
X171785713Y-95785552D01*
X171785713Y-95785552D02*
X171976189Y-95785552D01*
X171976189Y-95785552D02*
X172071427Y-95833171D01*
X172547618Y-96452219D02*
X172547618Y-95785552D01*
X172547618Y-95452219D02*
X172499999Y-95499838D01*
X172499999Y-95499838D02*
X172547618Y-95547457D01*
X172547618Y-95547457D02*
X172595237Y-95499838D01*
X172595237Y-95499838D02*
X172547618Y-95452219D01*
X172547618Y-95452219D02*
X172547618Y-95547457D01*
X172880951Y-95785552D02*
X173261903Y-95785552D01*
X173023808Y-95452219D02*
X173023808Y-96309361D01*
X173023808Y-96309361D02*
X173071427Y-96404600D01*
X173071427Y-96404600D02*
X173166665Y-96452219D01*
X173166665Y-96452219D02*
X173261903Y-96452219D01*
X173595237Y-96452219D02*
X173595237Y-95452219D01*
X174023808Y-96452219D02*
X174023808Y-95928409D01*
X174023808Y-95928409D02*
X173976189Y-95833171D01*
X173976189Y-95833171D02*
X173880951Y-95785552D01*
X173880951Y-95785552D02*
X173738094Y-95785552D01*
X173738094Y-95785552D02*
X173642856Y-95833171D01*
X173642856Y-95833171D02*
X173595237Y-95880790D01*
X174928570Y-95785552D02*
X174928570Y-96452219D01*
X174499999Y-95785552D02*
X174499999Y-96309361D01*
X174499999Y-96309361D02*
X174547618Y-96404600D01*
X174547618Y-96404600D02*
X174642856Y-96452219D01*
X174642856Y-96452219D02*
X174785713Y-96452219D01*
X174785713Y-96452219D02*
X174880951Y-96404600D01*
X174880951Y-96404600D02*
X174928570Y-96356980D01*
X175404761Y-96452219D02*
X175404761Y-95452219D01*
X175404761Y-95833171D02*
X175499999Y-95785552D01*
X175499999Y-95785552D02*
X175690475Y-95785552D01*
X175690475Y-95785552D02*
X175785713Y-95833171D01*
X175785713Y-95833171D02*
X175833332Y-95880790D01*
X175833332Y-95880790D02*
X175880951Y-95976028D01*
X175880951Y-95976028D02*
X175880951Y-96261742D01*
X175880951Y-96261742D02*
X175833332Y-96356980D01*
X175833332Y-96356980D02*
X175785713Y-96404600D01*
X175785713Y-96404600D02*
X175690475Y-96452219D01*
X175690475Y-96452219D02*
X175499999Y-96452219D01*
X175499999Y-96452219D02*
X175404761Y-96404600D01*
X176309523Y-96356980D02*
X176357142Y-96404600D01*
X176357142Y-96404600D02*
X176309523Y-96452219D01*
X176309523Y-96452219D02*
X176261904Y-96404600D01*
X176261904Y-96404600D02*
X176309523Y-96356980D01*
X176309523Y-96356980D02*
X176309523Y-96452219D01*
X177214284Y-96404600D02*
X177119046Y-96452219D01*
X177119046Y-96452219D02*
X176928570Y-96452219D01*
X176928570Y-96452219D02*
X176833332Y-96404600D01*
X176833332Y-96404600D02*
X176785713Y-96356980D01*
X176785713Y-96356980D02*
X176738094Y-96261742D01*
X176738094Y-96261742D02*
X176738094Y-95976028D01*
X176738094Y-95976028D02*
X176785713Y-95880790D01*
X176785713Y-95880790D02*
X176833332Y-95833171D01*
X176833332Y-95833171D02*
X176928570Y-95785552D01*
X176928570Y-95785552D02*
X177119046Y-95785552D01*
X177119046Y-95785552D02*
X177214284Y-95833171D01*
X177785713Y-96452219D02*
X177690475Y-96404600D01*
X177690475Y-96404600D02*
X177642856Y-96356980D01*
X177642856Y-96356980D02*
X177595237Y-96261742D01*
X177595237Y-96261742D02*
X177595237Y-95976028D01*
X177595237Y-95976028D02*
X177642856Y-95880790D01*
X177642856Y-95880790D02*
X177690475Y-95833171D01*
X177690475Y-95833171D02*
X177785713Y-95785552D01*
X177785713Y-95785552D02*
X177928570Y-95785552D01*
X177928570Y-95785552D02*
X178023808Y-95833171D01*
X178023808Y-95833171D02*
X178071427Y-95880790D01*
X178071427Y-95880790D02*
X178119046Y-95976028D01*
X178119046Y-95976028D02*
X178119046Y-96261742D01*
X178119046Y-96261742D02*
X178071427Y-96356980D01*
X178071427Y-96356980D02*
X178023808Y-96404600D01*
X178023808Y-96404600D02*
X177928570Y-96452219D01*
X177928570Y-96452219D02*
X177785713Y-96452219D01*
X178547618Y-96452219D02*
X178547618Y-95785552D01*
X178547618Y-95880790D02*
X178595237Y-95833171D01*
X178595237Y-95833171D02*
X178690475Y-95785552D01*
X178690475Y-95785552D02*
X178833332Y-95785552D01*
X178833332Y-95785552D02*
X178928570Y-95833171D01*
X178928570Y-95833171D02*
X178976189Y-95928409D01*
X178976189Y-95928409D02*
X178976189Y-96452219D01*
X178976189Y-95928409D02*
X179023808Y-95833171D01*
X179023808Y-95833171D02*
X179119046Y-95785552D01*
X179119046Y-95785552D02*
X179261903Y-95785552D01*
X179261903Y-95785552D02*
X179357142Y-95833171D01*
X179357142Y-95833171D02*
X179404761Y-95928409D01*
X179404761Y-95928409D02*
X179404761Y-96452219D01*
X180595236Y-95404600D02*
X179738094Y-96690314D01*
X180880951Y-96166504D02*
X181357141Y-96166504D01*
X180785713Y-96452219D02*
X181119046Y-95452219D01*
X181119046Y-95452219D02*
X181452379Y-96452219D01*
X181690475Y-96452219D02*
X182214284Y-95785552D01*
X181690475Y-95785552D02*
X182214284Y-96452219D01*
X182499999Y-96452219D02*
X183023808Y-95785552D01*
X182499999Y-95785552D02*
X183023808Y-96452219D01*
X183357142Y-96166504D02*
X183833332Y-96166504D01*
X183261904Y-96452219D02*
X183595237Y-95452219D01*
X183595237Y-95452219D02*
X183928570Y-96452219D01*
X184166666Y-96452219D02*
X184690475Y-95785552D01*
X184166666Y-95785552D02*
X184690475Y-96452219D01*
X184976190Y-96452219D02*
X185499999Y-95785552D01*
X184976190Y-95785552D02*
X185499999Y-96452219D01*
X186595237Y-95404600D02*
X185738095Y-96690314D01*
X186880952Y-96166504D02*
X187357142Y-96166504D01*
X186785714Y-96452219D02*
X187119047Y-95452219D01*
X187119047Y-95452219D02*
X187452380Y-96452219D01*
X187690476Y-96452219D02*
X188214285Y-95785552D01*
X187690476Y-95785552D02*
X188214285Y-96452219D01*
X188500000Y-96452219D02*
X189023809Y-95785552D01*
X188500000Y-95785552D02*
X189023809Y-96452219D01*
X189357143Y-96404600D02*
X189500000Y-96452219D01*
X189500000Y-96452219D02*
X189738095Y-96452219D01*
X189738095Y-96452219D02*
X189833333Y-96404600D01*
X189833333Y-96404600D02*
X189880952Y-96356980D01*
X189880952Y-96356980D02*
X189928571Y-96261742D01*
X189928571Y-96261742D02*
X189928571Y-96166504D01*
X189928571Y-96166504D02*
X189880952Y-96071266D01*
X189880952Y-96071266D02*
X189833333Y-96023647D01*
X189833333Y-96023647D02*
X189738095Y-95976028D01*
X189738095Y-95976028D02*
X189547619Y-95928409D01*
X189547619Y-95928409D02*
X189452381Y-95880790D01*
X189452381Y-95880790D02*
X189404762Y-95833171D01*
X189404762Y-95833171D02*
X189357143Y-95737933D01*
X189357143Y-95737933D02*
X189357143Y-95642695D01*
X189357143Y-95642695D02*
X189404762Y-95547457D01*
X189404762Y-95547457D02*
X189452381Y-95499838D01*
X189452381Y-95499838D02*
X189547619Y-95452219D01*
X189547619Y-95452219D02*
X189785714Y-95452219D01*
X189785714Y-95452219D02*
X189928571Y-95499838D01*
X190500000Y-96452219D02*
X190404762Y-96404600D01*
X190404762Y-96404600D02*
X190357143Y-96356980D01*
X190357143Y-96356980D02*
X190309524Y-96261742D01*
X190309524Y-96261742D02*
X190309524Y-95976028D01*
X190309524Y-95976028D02*
X190357143Y-95880790D01*
X190357143Y-95880790D02*
X190404762Y-95833171D01*
X190404762Y-95833171D02*
X190500000Y-95785552D01*
X190500000Y-95785552D02*
X190642857Y-95785552D01*
X190642857Y-95785552D02*
X190738095Y-95833171D01*
X190738095Y-95833171D02*
X190785714Y-95880790D01*
X190785714Y-95880790D02*
X190833333Y-95976028D01*
X190833333Y-95976028D02*
X190833333Y-96261742D01*
X190833333Y-96261742D02*
X190785714Y-96356980D01*
X190785714Y-96356980D02*
X190738095Y-96404600D01*
X190738095Y-96404600D02*
X190642857Y-96452219D01*
X190642857Y-96452219D02*
X190500000Y-96452219D01*
X191404762Y-96452219D02*
X191309524Y-96404600D01*
X191309524Y-96404600D02*
X191261905Y-96309361D01*
X191261905Y-96309361D02*
X191261905Y-95452219D01*
X192214286Y-96452219D02*
X192214286Y-95452219D01*
X192214286Y-96404600D02*
X192119048Y-96452219D01*
X192119048Y-96452219D02*
X191928572Y-96452219D01*
X191928572Y-96452219D02*
X191833334Y-96404600D01*
X191833334Y-96404600D02*
X191785715Y-96356980D01*
X191785715Y-96356980D02*
X191738096Y-96261742D01*
X191738096Y-96261742D02*
X191738096Y-95976028D01*
X191738096Y-95976028D02*
X191785715Y-95880790D01*
X191785715Y-95880790D02*
X191833334Y-95833171D01*
X191833334Y-95833171D02*
X191928572Y-95785552D01*
X191928572Y-95785552D02*
X192119048Y-95785552D01*
X192119048Y-95785552D02*
X192214286Y-95833171D01*
X193071429Y-96404600D02*
X192976191Y-96452219D01*
X192976191Y-96452219D02*
X192785715Y-96452219D01*
X192785715Y-96452219D02*
X192690477Y-96404600D01*
X192690477Y-96404600D02*
X192642858Y-96309361D01*
X192642858Y-96309361D02*
X192642858Y-95928409D01*
X192642858Y-95928409D02*
X192690477Y-95833171D01*
X192690477Y-95833171D02*
X192785715Y-95785552D01*
X192785715Y-95785552D02*
X192976191Y-95785552D01*
X192976191Y-95785552D02*
X193071429Y-95833171D01*
X193071429Y-95833171D02*
X193119048Y-95928409D01*
X193119048Y-95928409D02*
X193119048Y-96023647D01*
X193119048Y-96023647D02*
X192642858Y-96118885D01*
X193547620Y-96452219D02*
X193547620Y-95785552D01*
X193547620Y-95976028D02*
X193595239Y-95880790D01*
X193595239Y-95880790D02*
X193642858Y-95833171D01*
X193642858Y-95833171D02*
X193738096Y-95785552D01*
X193738096Y-95785552D02*
X193833334Y-95785552D01*
X176928571Y-106952219D02*
X177166666Y-107952219D01*
X177166666Y-107952219D02*
X177357142Y-107237933D01*
X177357142Y-107237933D02*
X177547618Y-107952219D01*
X177547618Y-107952219D02*
X177785714Y-106952219D01*
X178595237Y-107952219D02*
X178595237Y-107428409D01*
X178595237Y-107428409D02*
X178547618Y-107333171D01*
X178547618Y-107333171D02*
X178452380Y-107285552D01*
X178452380Y-107285552D02*
X178261904Y-107285552D01*
X178261904Y-107285552D02*
X178166666Y-107333171D01*
X178595237Y-107904600D02*
X178499999Y-107952219D01*
X178499999Y-107952219D02*
X178261904Y-107952219D01*
X178261904Y-107952219D02*
X178166666Y-107904600D01*
X178166666Y-107904600D02*
X178119047Y-107809361D01*
X178119047Y-107809361D02*
X178119047Y-107714123D01*
X178119047Y-107714123D02*
X178166666Y-107618885D01*
X178166666Y-107618885D02*
X178261904Y-107571266D01*
X178261904Y-107571266D02*
X178499999Y-107571266D01*
X178499999Y-107571266D02*
X178595237Y-107523647D01*
X178976190Y-107285552D02*
X179214285Y-107952219D01*
X179452380Y-107285552D02*
X179214285Y-107952219D01*
X179214285Y-107952219D02*
X179119047Y-108190314D01*
X179119047Y-108190314D02*
X179071428Y-108237933D01*
X179071428Y-108237933D02*
X178976190Y-108285552D01*
X179738095Y-106952219D02*
X179976190Y-107952219D01*
X179976190Y-107952219D02*
X180166666Y-107237933D01*
X180166666Y-107237933D02*
X180357142Y-107952219D01*
X180357142Y-107952219D02*
X180595238Y-106952219D01*
X181404761Y-107952219D02*
X181404761Y-107428409D01*
X181404761Y-107428409D02*
X181357142Y-107333171D01*
X181357142Y-107333171D02*
X181261904Y-107285552D01*
X181261904Y-107285552D02*
X181071428Y-107285552D01*
X181071428Y-107285552D02*
X180976190Y-107333171D01*
X181404761Y-107904600D02*
X181309523Y-107952219D01*
X181309523Y-107952219D02*
X181071428Y-107952219D01*
X181071428Y-107952219D02*
X180976190Y-107904600D01*
X180976190Y-107904600D02*
X180928571Y-107809361D01*
X180928571Y-107809361D02*
X180928571Y-107714123D01*
X180928571Y-107714123D02*
X180976190Y-107618885D01*
X180976190Y-107618885D02*
X181071428Y-107571266D01*
X181071428Y-107571266D02*
X181309523Y-107571266D01*
X181309523Y-107571266D02*
X181404761Y-107523647D01*
X181785714Y-107285552D02*
X182023809Y-107952219D01*
X182261904Y-107285552D02*
X182023809Y-107952219D01*
X182023809Y-107952219D02*
X181928571Y-108190314D01*
X181928571Y-108190314D02*
X181880952Y-108237933D01*
X181880952Y-108237933D02*
X181785714Y-108285552D01*
X182547619Y-106952219D02*
X182785714Y-107952219D01*
X182785714Y-107952219D02*
X182976190Y-107237933D01*
X182976190Y-107237933D02*
X183166666Y-107952219D01*
X183166666Y-107952219D02*
X183404762Y-106952219D01*
X184214285Y-107952219D02*
X184214285Y-107428409D01*
X184214285Y-107428409D02*
X184166666Y-107333171D01*
X184166666Y-107333171D02*
X184071428Y-107285552D01*
X184071428Y-107285552D02*
X183880952Y-107285552D01*
X183880952Y-107285552D02*
X183785714Y-107333171D01*
X184214285Y-107904600D02*
X184119047Y-107952219D01*
X184119047Y-107952219D02*
X183880952Y-107952219D01*
X183880952Y-107952219D02*
X183785714Y-107904600D01*
X183785714Y-107904600D02*
X183738095Y-107809361D01*
X183738095Y-107809361D02*
X183738095Y-107714123D01*
X183738095Y-107714123D02*
X183785714Y-107618885D01*
X183785714Y-107618885D02*
X183880952Y-107571266D01*
X183880952Y-107571266D02*
X184119047Y-107571266D01*
X184119047Y-107571266D02*
X184214285Y-107523647D01*
X184595238Y-107285552D02*
X184833333Y-107952219D01*
X185071428Y-107285552D02*
X184833333Y-107952219D01*
X184833333Y-107952219D02*
X184738095Y-108190314D01*
X184738095Y-108190314D02*
X184690476Y-108237933D01*
X184690476Y-108237933D02*
X184595238Y-108285552D01*
X165190476Y-73985552D02*
X164428571Y-74271266D01*
X164428571Y-74271266D02*
X165190476Y-74556980D01*
X165666666Y-74271266D02*
X166428571Y-74271266D01*
X166904761Y-74271266D02*
X167666666Y-74271266D01*
X168142856Y-74271266D02*
X168904761Y-74271266D01*
X169380951Y-74271266D02*
X170142856Y-74271266D01*
X174380952Y-74604600D02*
X174523809Y-74652219D01*
X174523809Y-74652219D02*
X174761904Y-74652219D01*
X174761904Y-74652219D02*
X174857142Y-74604600D01*
X174857142Y-74604600D02*
X174904761Y-74556980D01*
X174904761Y-74556980D02*
X174952380Y-74461742D01*
X174952380Y-74461742D02*
X174952380Y-74366504D01*
X174952380Y-74366504D02*
X174904761Y-74271266D01*
X174904761Y-74271266D02*
X174857142Y-74223647D01*
X174857142Y-74223647D02*
X174761904Y-74176028D01*
X174761904Y-74176028D02*
X174571428Y-74128409D01*
X174571428Y-74128409D02*
X174476190Y-74080790D01*
X174476190Y-74080790D02*
X174428571Y-74033171D01*
X174428571Y-74033171D02*
X174380952Y-73937933D01*
X174380952Y-73937933D02*
X174380952Y-73842695D01*
X174380952Y-73842695D02*
X174428571Y-73747457D01*
X174428571Y-73747457D02*
X174476190Y-73699838D01*
X174476190Y-73699838D02*
X174571428Y-73652219D01*
X174571428Y-73652219D02*
X174809523Y-73652219D01*
X174809523Y-73652219D02*
X174952380Y-73699838D01*
X175952380Y-74556980D02*
X175904761Y-74604600D01*
X175904761Y-74604600D02*
X175761904Y-74652219D01*
X175761904Y-74652219D02*
X175666666Y-74652219D01*
X175666666Y-74652219D02*
X175523809Y-74604600D01*
X175523809Y-74604600D02*
X175428571Y-74509361D01*
X175428571Y-74509361D02*
X175380952Y-74414123D01*
X175380952Y-74414123D02*
X175333333Y-74223647D01*
X175333333Y-74223647D02*
X175333333Y-74080790D01*
X175333333Y-74080790D02*
X175380952Y-73890314D01*
X175380952Y-73890314D02*
X175428571Y-73795076D01*
X175428571Y-73795076D02*
X175523809Y-73699838D01*
X175523809Y-73699838D02*
X175666666Y-73652219D01*
X175666666Y-73652219D02*
X175761904Y-73652219D01*
X175761904Y-73652219D02*
X175904761Y-73699838D01*
X175904761Y-73699838D02*
X175952380Y-73747457D01*
X176952380Y-74652219D02*
X176619047Y-74176028D01*
X176380952Y-74652219D02*
X176380952Y-73652219D01*
X176380952Y-73652219D02*
X176761904Y-73652219D01*
X176761904Y-73652219D02*
X176857142Y-73699838D01*
X176857142Y-73699838D02*
X176904761Y-73747457D01*
X176904761Y-73747457D02*
X176952380Y-73842695D01*
X176952380Y-73842695D02*
X176952380Y-73985552D01*
X176952380Y-73985552D02*
X176904761Y-74080790D01*
X176904761Y-74080790D02*
X176857142Y-74128409D01*
X176857142Y-74128409D02*
X176761904Y-74176028D01*
X176761904Y-74176028D02*
X176380952Y-74176028D01*
X177380952Y-74128409D02*
X177714285Y-74128409D01*
X177857142Y-74652219D02*
X177380952Y-74652219D01*
X177380952Y-74652219D02*
X177380952Y-73652219D01*
X177380952Y-73652219D02*
X177857142Y-73652219D01*
X178285714Y-74128409D02*
X178619047Y-74128409D01*
X178761904Y-74652219D02*
X178285714Y-74652219D01*
X178285714Y-74652219D02*
X178285714Y-73652219D01*
X178285714Y-73652219D02*
X178761904Y-73652219D01*
X179190476Y-74652219D02*
X179190476Y-73652219D01*
X179190476Y-73652219D02*
X179761904Y-74652219D01*
X179761904Y-74652219D02*
X179761904Y-73652219D01*
X180952381Y-74604600D02*
X181095238Y-74652219D01*
X181095238Y-74652219D02*
X181333333Y-74652219D01*
X181333333Y-74652219D02*
X181428571Y-74604600D01*
X181428571Y-74604600D02*
X181476190Y-74556980D01*
X181476190Y-74556980D02*
X181523809Y-74461742D01*
X181523809Y-74461742D02*
X181523809Y-74366504D01*
X181523809Y-74366504D02*
X181476190Y-74271266D01*
X181476190Y-74271266D02*
X181428571Y-74223647D01*
X181428571Y-74223647D02*
X181333333Y-74176028D01*
X181333333Y-74176028D02*
X181142857Y-74128409D01*
X181142857Y-74128409D02*
X181047619Y-74080790D01*
X181047619Y-74080790D02*
X181000000Y-74033171D01*
X181000000Y-74033171D02*
X180952381Y-73937933D01*
X180952381Y-73937933D02*
X180952381Y-73842695D01*
X180952381Y-73842695D02*
X181000000Y-73747457D01*
X181000000Y-73747457D02*
X181047619Y-73699838D01*
X181047619Y-73699838D02*
X181142857Y-73652219D01*
X181142857Y-73652219D02*
X181380952Y-73652219D01*
X181380952Y-73652219D02*
X181523809Y-73699838D01*
X181952381Y-73652219D02*
X181952381Y-74461742D01*
X181952381Y-74461742D02*
X182000000Y-74556980D01*
X182000000Y-74556980D02*
X182047619Y-74604600D01*
X182047619Y-74604600D02*
X182142857Y-74652219D01*
X182142857Y-74652219D02*
X182333333Y-74652219D01*
X182333333Y-74652219D02*
X182428571Y-74604600D01*
X182428571Y-74604600D02*
X182476190Y-74556980D01*
X182476190Y-74556980D02*
X182523809Y-74461742D01*
X182523809Y-74461742D02*
X182523809Y-73652219D01*
X183000000Y-74652219D02*
X183000000Y-73652219D01*
X183000000Y-73652219D02*
X183380952Y-73652219D01*
X183380952Y-73652219D02*
X183476190Y-73699838D01*
X183476190Y-73699838D02*
X183523809Y-73747457D01*
X183523809Y-73747457D02*
X183571428Y-73842695D01*
X183571428Y-73842695D02*
X183571428Y-73985552D01*
X183571428Y-73985552D02*
X183523809Y-74080790D01*
X183523809Y-74080790D02*
X183476190Y-74128409D01*
X183476190Y-74128409D02*
X183380952Y-74176028D01*
X183380952Y-74176028D02*
X183000000Y-74176028D01*
X184000000Y-74652219D02*
X184000000Y-73652219D01*
X184000000Y-73652219D02*
X184380952Y-73652219D01*
X184380952Y-73652219D02*
X184476190Y-73699838D01*
X184476190Y-73699838D02*
X184523809Y-73747457D01*
X184523809Y-73747457D02*
X184571428Y-73842695D01*
X184571428Y-73842695D02*
X184571428Y-73985552D01*
X184571428Y-73985552D02*
X184523809Y-74080790D01*
X184523809Y-74080790D02*
X184476190Y-74128409D01*
X184476190Y-74128409D02*
X184380952Y-74176028D01*
X184380952Y-74176028D02*
X184000000Y-74176028D01*
X185190476Y-73652219D02*
X185380952Y-73652219D01*
X185380952Y-73652219D02*
X185476190Y-73699838D01*
X185476190Y-73699838D02*
X185571428Y-73795076D01*
X185571428Y-73795076D02*
X185619047Y-73985552D01*
X185619047Y-73985552D02*
X185619047Y-74318885D01*
X185619047Y-74318885D02*
X185571428Y-74509361D01*
X185571428Y-74509361D02*
X185476190Y-74604600D01*
X185476190Y-74604600D02*
X185380952Y-74652219D01*
X185380952Y-74652219D02*
X185190476Y-74652219D01*
X185190476Y-74652219D02*
X185095238Y-74604600D01*
X185095238Y-74604600D02*
X185000000Y-74509361D01*
X185000000Y-74509361D02*
X184952381Y-74318885D01*
X184952381Y-74318885D02*
X184952381Y-73985552D01*
X184952381Y-73985552D02*
X185000000Y-73795076D01*
X185000000Y-73795076D02*
X185095238Y-73699838D01*
X185095238Y-73699838D02*
X185190476Y-73652219D01*
X186619047Y-74652219D02*
X186285714Y-74176028D01*
X186047619Y-74652219D02*
X186047619Y-73652219D01*
X186047619Y-73652219D02*
X186428571Y-73652219D01*
X186428571Y-73652219D02*
X186523809Y-73699838D01*
X186523809Y-73699838D02*
X186571428Y-73747457D01*
X186571428Y-73747457D02*
X186619047Y-73842695D01*
X186619047Y-73842695D02*
X186619047Y-73985552D01*
X186619047Y-73985552D02*
X186571428Y-74080790D01*
X186571428Y-74080790D02*
X186523809Y-74128409D01*
X186523809Y-74128409D02*
X186428571Y-74176028D01*
X186428571Y-74176028D02*
X186047619Y-74176028D01*
X186904762Y-73652219D02*
X187476190Y-73652219D01*
X187190476Y-74652219D02*
X187190476Y-73652219D01*
X190857144Y-74271266D02*
X191619049Y-74271266D01*
X192095239Y-74271266D02*
X192857144Y-74271266D01*
X193333334Y-74271266D02*
X194095239Y-74271266D01*
X194571429Y-74271266D02*
X195333334Y-74271266D01*
X195809524Y-73985552D02*
X196571429Y-74271266D01*
X196571429Y-74271266D02*
X195809524Y-74556980D01*
D11*
X194755826Y-129875247D02*
X194870112Y-129913342D01*
X194870112Y-129913342D02*
X194908207Y-129951438D01*
X194908207Y-129951438D02*
X194946303Y-130027628D01*
X194946303Y-130027628D02*
X194946303Y-130141914D01*
X194946303Y-130141914D02*
X194908207Y-130218104D01*
X194908207Y-130218104D02*
X194870112Y-130256200D01*
X194870112Y-130256200D02*
X194793922Y-130294295D01*
X194793922Y-130294295D02*
X194489160Y-130294295D01*
X194489160Y-130294295D02*
X194489160Y-129494295D01*
X194489160Y-129494295D02*
X194755826Y-129494295D01*
X194755826Y-129494295D02*
X194832017Y-129532390D01*
X194832017Y-129532390D02*
X194870112Y-129570485D01*
X194870112Y-129570485D02*
X194908207Y-129646676D01*
X194908207Y-129646676D02*
X194908207Y-129722866D01*
X194908207Y-129722866D02*
X194870112Y-129799057D01*
X194870112Y-129799057D02*
X194832017Y-129837152D01*
X194832017Y-129837152D02*
X194755826Y-129875247D01*
X194755826Y-129875247D02*
X194489160Y-129875247D01*
X195441541Y-129494295D02*
X195593922Y-129494295D01*
X195593922Y-129494295D02*
X195670112Y-129532390D01*
X195670112Y-129532390D02*
X195746303Y-129608580D01*
X195746303Y-129608580D02*
X195784398Y-129760961D01*
X195784398Y-129760961D02*
X195784398Y-130027628D01*
X195784398Y-130027628D02*
X195746303Y-130180009D01*
X195746303Y-130180009D02*
X195670112Y-130256200D01*
X195670112Y-130256200D02*
X195593922Y-130294295D01*
X195593922Y-130294295D02*
X195441541Y-130294295D01*
X195441541Y-130294295D02*
X195365350Y-130256200D01*
X195365350Y-130256200D02*
X195289160Y-130180009D01*
X195289160Y-130180009D02*
X195251064Y-130027628D01*
X195251064Y-130027628D02*
X195251064Y-129760961D01*
X195251064Y-129760961D02*
X195289160Y-129608580D01*
X195289160Y-129608580D02*
X195365350Y-129532390D01*
X195365350Y-129532390D02*
X195441541Y-129494295D01*
X196279636Y-129494295D02*
X196432017Y-129494295D01*
X196432017Y-129494295D02*
X196508207Y-129532390D01*
X196508207Y-129532390D02*
X196584398Y-129608580D01*
X196584398Y-129608580D02*
X196622493Y-129760961D01*
X196622493Y-129760961D02*
X196622493Y-130027628D01*
X196622493Y-130027628D02*
X196584398Y-130180009D01*
X196584398Y-130180009D02*
X196508207Y-130256200D01*
X196508207Y-130256200D02*
X196432017Y-130294295D01*
X196432017Y-130294295D02*
X196279636Y-130294295D01*
X196279636Y-130294295D02*
X196203445Y-130256200D01*
X196203445Y-130256200D02*
X196127255Y-130180009D01*
X196127255Y-130180009D02*
X196089159Y-130027628D01*
X196089159Y-130027628D02*
X196089159Y-129760961D01*
X196089159Y-129760961D02*
X196127255Y-129608580D01*
X196127255Y-129608580D02*
X196203445Y-129532390D01*
X196203445Y-129532390D02*
X196279636Y-129494295D01*
X196851064Y-129494295D02*
X197308207Y-129494295D01*
X197079635Y-130294295D02*
X197079635Y-129494295D01*
X197727255Y-129494295D02*
X197803445Y-129494295D01*
X197803445Y-129494295D02*
X197879636Y-129532390D01*
X197879636Y-129532390D02*
X197917731Y-129570485D01*
X197917731Y-129570485D02*
X197955826Y-129646676D01*
X197955826Y-129646676D02*
X197993921Y-129799057D01*
X197993921Y-129799057D02*
X197993921Y-129989533D01*
X197993921Y-129989533D02*
X197955826Y-130141914D01*
X197955826Y-130141914D02*
X197917731Y-130218104D01*
X197917731Y-130218104D02*
X197879636Y-130256200D01*
X197879636Y-130256200D02*
X197803445Y-130294295D01*
X197803445Y-130294295D02*
X197727255Y-130294295D01*
X197727255Y-130294295D02*
X197651064Y-130256200D01*
X197651064Y-130256200D02*
X197612969Y-130218104D01*
X197612969Y-130218104D02*
X197574874Y-130141914D01*
X197574874Y-130141914D02*
X197536778Y-129989533D01*
X197536778Y-129989533D02*
X197536778Y-129799057D01*
X197536778Y-129799057D02*
X197574874Y-129646676D01*
X197574874Y-129646676D02*
X197612969Y-129570485D01*
X197612969Y-129570485D02*
X197651064Y-129532390D01*
X197651064Y-129532390D02*
X197727255Y-129494295D01*
X166812969Y-145818295D02*
X167003445Y-146618295D01*
X167003445Y-146618295D02*
X167155826Y-146046866D01*
X167155826Y-146046866D02*
X167308207Y-146618295D01*
X167308207Y-146618295D02*
X167498684Y-145818295D01*
X167803446Y-146618295D02*
X167803446Y-145818295D01*
X167803446Y-146199247D02*
X168260589Y-146199247D01*
X168260589Y-146618295D02*
X168260589Y-145818295D01*
X168641541Y-146199247D02*
X168908207Y-146199247D01*
X169022493Y-146618295D02*
X168641541Y-146618295D01*
X168641541Y-146618295D02*
X168641541Y-145818295D01*
X168641541Y-145818295D02*
X169022493Y-145818295D01*
X169365351Y-146618295D02*
X169365351Y-145818295D01*
X169365351Y-145818295D02*
X169822494Y-146618295D01*
X169822494Y-146618295D02*
X169822494Y-145818295D01*
X170698684Y-145818295D02*
X171155827Y-145818295D01*
X170927255Y-146618295D02*
X170927255Y-145818295D01*
X171422494Y-146618295D02*
X171422494Y-145818295D01*
X171803446Y-146618295D02*
X171803446Y-145818295D01*
X171803446Y-145818295D02*
X172108208Y-145818295D01*
X172108208Y-145818295D02*
X172184398Y-145856390D01*
X172184398Y-145856390D02*
X172222493Y-145894485D01*
X172222493Y-145894485D02*
X172260589Y-145970676D01*
X172260589Y-145970676D02*
X172260589Y-146084961D01*
X172260589Y-146084961D02*
X172222493Y-146161152D01*
X172222493Y-146161152D02*
X172184398Y-146199247D01*
X172184398Y-146199247D02*
X172108208Y-146237342D01*
X172108208Y-146237342D02*
X171803446Y-146237342D01*
X173632017Y-145856390D02*
X173555827Y-145818295D01*
X173555827Y-145818295D02*
X173441541Y-145818295D01*
X173441541Y-145818295D02*
X173327255Y-145856390D01*
X173327255Y-145856390D02*
X173251065Y-145932580D01*
X173251065Y-145932580D02*
X173212970Y-146008771D01*
X173212970Y-146008771D02*
X173174874Y-146161152D01*
X173174874Y-146161152D02*
X173174874Y-146275438D01*
X173174874Y-146275438D02*
X173212970Y-146427819D01*
X173212970Y-146427819D02*
X173251065Y-146504009D01*
X173251065Y-146504009D02*
X173327255Y-146580200D01*
X173327255Y-146580200D02*
X173441541Y-146618295D01*
X173441541Y-146618295D02*
X173517732Y-146618295D01*
X173517732Y-146618295D02*
X173632017Y-146580200D01*
X173632017Y-146580200D02*
X173670113Y-146542104D01*
X173670113Y-146542104D02*
X173670113Y-146275438D01*
X173670113Y-146275438D02*
X173517732Y-146275438D01*
X174470113Y-146618295D02*
X174203446Y-146237342D01*
X174012970Y-146618295D02*
X174012970Y-145818295D01*
X174012970Y-145818295D02*
X174317732Y-145818295D01*
X174317732Y-145818295D02*
X174393922Y-145856390D01*
X174393922Y-145856390D02*
X174432017Y-145894485D01*
X174432017Y-145894485D02*
X174470113Y-145970676D01*
X174470113Y-145970676D02*
X174470113Y-146084961D01*
X174470113Y-146084961D02*
X174432017Y-146161152D01*
X174432017Y-146161152D02*
X174393922Y-146199247D01*
X174393922Y-146199247D02*
X174317732Y-146237342D01*
X174317732Y-146237342D02*
X174012970Y-146237342D01*
X174965351Y-145818295D02*
X175117732Y-145818295D01*
X175117732Y-145818295D02*
X175193922Y-145856390D01*
X175193922Y-145856390D02*
X175270113Y-145932580D01*
X175270113Y-145932580D02*
X175308208Y-146084961D01*
X175308208Y-146084961D02*
X175308208Y-146351628D01*
X175308208Y-146351628D02*
X175270113Y-146504009D01*
X175270113Y-146504009D02*
X175193922Y-146580200D01*
X175193922Y-146580200D02*
X175117732Y-146618295D01*
X175117732Y-146618295D02*
X174965351Y-146618295D01*
X174965351Y-146618295D02*
X174889160Y-146580200D01*
X174889160Y-146580200D02*
X174812970Y-146504009D01*
X174812970Y-146504009D02*
X174774874Y-146351628D01*
X174774874Y-146351628D02*
X174774874Y-146084961D01*
X174774874Y-146084961D02*
X174812970Y-145932580D01*
X174812970Y-145932580D02*
X174889160Y-145856390D01*
X174889160Y-145856390D02*
X174965351Y-145818295D01*
X175651065Y-145818295D02*
X175651065Y-146465914D01*
X175651065Y-146465914D02*
X175689160Y-146542104D01*
X175689160Y-146542104D02*
X175727255Y-146580200D01*
X175727255Y-146580200D02*
X175803446Y-146618295D01*
X175803446Y-146618295D02*
X175955827Y-146618295D01*
X175955827Y-146618295D02*
X176032017Y-146580200D01*
X176032017Y-146580200D02*
X176070112Y-146542104D01*
X176070112Y-146542104D02*
X176108208Y-146465914D01*
X176108208Y-146465914D02*
X176108208Y-145818295D01*
X176489160Y-146618295D02*
X176489160Y-145818295D01*
X176489160Y-145818295D02*
X176946303Y-146618295D01*
X176946303Y-146618295D02*
X176946303Y-145818295D01*
X177327255Y-146618295D02*
X177327255Y-145818295D01*
X177327255Y-145818295D02*
X177517731Y-145818295D01*
X177517731Y-145818295D02*
X177632017Y-145856390D01*
X177632017Y-145856390D02*
X177708207Y-145932580D01*
X177708207Y-145932580D02*
X177746302Y-146008771D01*
X177746302Y-146008771D02*
X177784398Y-146161152D01*
X177784398Y-146161152D02*
X177784398Y-146275438D01*
X177784398Y-146275438D02*
X177746302Y-146427819D01*
X177746302Y-146427819D02*
X177708207Y-146504009D01*
X177708207Y-146504009D02*
X177632017Y-146580200D01*
X177632017Y-146580200D02*
X177517731Y-146618295D01*
X177517731Y-146618295D02*
X177327255Y-146618295D01*
X178127255Y-146618295D02*
X178127255Y-145818295D01*
X178508207Y-146618295D02*
X178508207Y-145818295D01*
X178508207Y-145818295D02*
X178965350Y-146618295D01*
X178965350Y-146618295D02*
X178965350Y-145818295D01*
X179765349Y-145856390D02*
X179689159Y-145818295D01*
X179689159Y-145818295D02*
X179574873Y-145818295D01*
X179574873Y-145818295D02*
X179460587Y-145856390D01*
X179460587Y-145856390D02*
X179384397Y-145932580D01*
X179384397Y-145932580D02*
X179346302Y-146008771D01*
X179346302Y-146008771D02*
X179308206Y-146161152D01*
X179308206Y-146161152D02*
X179308206Y-146275438D01*
X179308206Y-146275438D02*
X179346302Y-146427819D01*
X179346302Y-146427819D02*
X179384397Y-146504009D01*
X179384397Y-146504009D02*
X179460587Y-146580200D01*
X179460587Y-146580200D02*
X179574873Y-146618295D01*
X179574873Y-146618295D02*
X179651064Y-146618295D01*
X179651064Y-146618295D02*
X179765349Y-146580200D01*
X179765349Y-146580200D02*
X179803445Y-146542104D01*
X179803445Y-146542104D02*
X179803445Y-146275438D01*
X179803445Y-146275438D02*
X179651064Y-146275438D01*
X180755826Y-146618295D02*
X180755826Y-145818295D01*
X181098682Y-146580200D02*
X181212968Y-146618295D01*
X181212968Y-146618295D02*
X181403444Y-146618295D01*
X181403444Y-146618295D02*
X181479635Y-146580200D01*
X181479635Y-146580200D02*
X181517730Y-146542104D01*
X181517730Y-146542104D02*
X181555825Y-146465914D01*
X181555825Y-146465914D02*
X181555825Y-146389723D01*
X181555825Y-146389723D02*
X181517730Y-146313533D01*
X181517730Y-146313533D02*
X181479635Y-146275438D01*
X181479635Y-146275438D02*
X181403444Y-146237342D01*
X181403444Y-146237342D02*
X181251063Y-146199247D01*
X181251063Y-146199247D02*
X181174873Y-146161152D01*
X181174873Y-146161152D02*
X181136778Y-146123057D01*
X181136778Y-146123057D02*
X181098682Y-146046866D01*
X181098682Y-146046866D02*
X181098682Y-145970676D01*
X181098682Y-145970676D02*
X181136778Y-145894485D01*
X181136778Y-145894485D02*
X181174873Y-145856390D01*
X181174873Y-145856390D02*
X181251063Y-145818295D01*
X181251063Y-145818295D02*
X181441540Y-145818295D01*
X181441540Y-145818295D02*
X181555825Y-145856390D01*
X182965350Y-146618295D02*
X182698683Y-146237342D01*
X182508207Y-146618295D02*
X182508207Y-145818295D01*
X182508207Y-145818295D02*
X182812969Y-145818295D01*
X182812969Y-145818295D02*
X182889159Y-145856390D01*
X182889159Y-145856390D02*
X182927254Y-145894485D01*
X182927254Y-145894485D02*
X182965350Y-145970676D01*
X182965350Y-145970676D02*
X182965350Y-146084961D01*
X182965350Y-146084961D02*
X182927254Y-146161152D01*
X182927254Y-146161152D02*
X182889159Y-146199247D01*
X182889159Y-146199247D02*
X182812969Y-146237342D01*
X182812969Y-146237342D02*
X182508207Y-146237342D01*
X183308207Y-146199247D02*
X183574873Y-146199247D01*
X183689159Y-146618295D02*
X183308207Y-146618295D01*
X183308207Y-146618295D02*
X183308207Y-145818295D01*
X183308207Y-145818295D02*
X183689159Y-145818295D01*
X184565350Y-146694485D02*
X184489160Y-146656390D01*
X184489160Y-146656390D02*
X184412969Y-146580200D01*
X184412969Y-146580200D02*
X184298683Y-146465914D01*
X184298683Y-146465914D02*
X184222493Y-146427819D01*
X184222493Y-146427819D02*
X184146302Y-146427819D01*
X184184398Y-146618295D02*
X184108207Y-146580200D01*
X184108207Y-146580200D02*
X184032017Y-146504009D01*
X184032017Y-146504009D02*
X183993921Y-146351628D01*
X183993921Y-146351628D02*
X183993921Y-146084961D01*
X183993921Y-146084961D02*
X184032017Y-145932580D01*
X184032017Y-145932580D02*
X184108207Y-145856390D01*
X184108207Y-145856390D02*
X184184398Y-145818295D01*
X184184398Y-145818295D02*
X184336779Y-145818295D01*
X184336779Y-145818295D02*
X184412969Y-145856390D01*
X184412969Y-145856390D02*
X184489160Y-145932580D01*
X184489160Y-145932580D02*
X184527255Y-146084961D01*
X184527255Y-146084961D02*
X184527255Y-146351628D01*
X184527255Y-146351628D02*
X184489160Y-146504009D01*
X184489160Y-146504009D02*
X184412969Y-146580200D01*
X184412969Y-146580200D02*
X184336779Y-146618295D01*
X184336779Y-146618295D02*
X184184398Y-146618295D01*
X184870112Y-145818295D02*
X184870112Y-146465914D01*
X184870112Y-146465914D02*
X184908207Y-146542104D01*
X184908207Y-146542104D02*
X184946302Y-146580200D01*
X184946302Y-146580200D02*
X185022493Y-146618295D01*
X185022493Y-146618295D02*
X185174874Y-146618295D01*
X185174874Y-146618295D02*
X185251064Y-146580200D01*
X185251064Y-146580200D02*
X185289159Y-146542104D01*
X185289159Y-146542104D02*
X185327255Y-146465914D01*
X185327255Y-146465914D02*
X185327255Y-145818295D01*
X185708207Y-146618295D02*
X185708207Y-145818295D01*
X186546302Y-146618295D02*
X186279635Y-146237342D01*
X186089159Y-146618295D02*
X186089159Y-145818295D01*
X186089159Y-145818295D02*
X186393921Y-145818295D01*
X186393921Y-145818295D02*
X186470111Y-145856390D01*
X186470111Y-145856390D02*
X186508206Y-145894485D01*
X186508206Y-145894485D02*
X186546302Y-145970676D01*
X186546302Y-145970676D02*
X186546302Y-146084961D01*
X186546302Y-146084961D02*
X186508206Y-146161152D01*
X186508206Y-146161152D02*
X186470111Y-146199247D01*
X186470111Y-146199247D02*
X186393921Y-146237342D01*
X186393921Y-146237342D02*
X186089159Y-146237342D01*
X186889159Y-146199247D02*
X187155825Y-146199247D01*
X187270111Y-146618295D02*
X186889159Y-146618295D01*
X186889159Y-146618295D02*
X186889159Y-145818295D01*
X186889159Y-145818295D02*
X187270111Y-145818295D01*
X187612969Y-146618295D02*
X187612969Y-145818295D01*
X187612969Y-145818295D02*
X187803445Y-145818295D01*
X187803445Y-145818295D02*
X187917731Y-145856390D01*
X187917731Y-145856390D02*
X187993921Y-145932580D01*
X187993921Y-145932580D02*
X188032016Y-146008771D01*
X188032016Y-146008771D02*
X188070112Y-146161152D01*
X188070112Y-146161152D02*
X188070112Y-146275438D01*
X188070112Y-146275438D02*
X188032016Y-146427819D01*
X188032016Y-146427819D02*
X187993921Y-146504009D01*
X187993921Y-146504009D02*
X187917731Y-146580200D01*
X187917731Y-146580200D02*
X187803445Y-146618295D01*
X187803445Y-146618295D02*
X187612969Y-146618295D01*
X188412969Y-146542104D02*
X188451064Y-146580200D01*
X188451064Y-146580200D02*
X188412969Y-146618295D01*
X188412969Y-146618295D02*
X188374873Y-146580200D01*
X188374873Y-146580200D02*
X188412969Y-146542104D01*
X188412969Y-146542104D02*
X188412969Y-146618295D01*
X188412969Y-146123057D02*
X188451064Y-146161152D01*
X188451064Y-146161152D02*
X188412969Y-146199247D01*
X188412969Y-146199247D02*
X188374873Y-146161152D01*
X188374873Y-146161152D02*
X188412969Y-146123057D01*
X188412969Y-146123057D02*
X188412969Y-146199247D01*
X166889160Y-147106295D02*
X166889160Y-147753914D01*
X166889160Y-147753914D02*
X166927255Y-147830104D01*
X166927255Y-147830104D02*
X166965350Y-147868200D01*
X166965350Y-147868200D02*
X167041541Y-147906295D01*
X167041541Y-147906295D02*
X167193922Y-147906295D01*
X167193922Y-147906295D02*
X167270112Y-147868200D01*
X167270112Y-147868200D02*
X167308207Y-147830104D01*
X167308207Y-147830104D02*
X167346303Y-147753914D01*
X167346303Y-147753914D02*
X167346303Y-147106295D01*
X167689159Y-147868200D02*
X167803445Y-147906295D01*
X167803445Y-147906295D02*
X167993921Y-147906295D01*
X167993921Y-147906295D02*
X168070112Y-147868200D01*
X168070112Y-147868200D02*
X168108207Y-147830104D01*
X168108207Y-147830104D02*
X168146302Y-147753914D01*
X168146302Y-147753914D02*
X168146302Y-147677723D01*
X168146302Y-147677723D02*
X168108207Y-147601533D01*
X168108207Y-147601533D02*
X168070112Y-147563438D01*
X168070112Y-147563438D02*
X167993921Y-147525342D01*
X167993921Y-147525342D02*
X167841540Y-147487247D01*
X167841540Y-147487247D02*
X167765350Y-147449152D01*
X167765350Y-147449152D02*
X167727255Y-147411057D01*
X167727255Y-147411057D02*
X167689159Y-147334866D01*
X167689159Y-147334866D02*
X167689159Y-147258676D01*
X167689159Y-147258676D02*
X167727255Y-147182485D01*
X167727255Y-147182485D02*
X167765350Y-147144390D01*
X167765350Y-147144390D02*
X167841540Y-147106295D01*
X167841540Y-147106295D02*
X168032017Y-147106295D01*
X168032017Y-147106295D02*
X168146302Y-147144390D01*
X168489160Y-147487247D02*
X168755826Y-147487247D01*
X168870112Y-147906295D02*
X168489160Y-147906295D01*
X168489160Y-147906295D02*
X168489160Y-147106295D01*
X168489160Y-147106295D02*
X168870112Y-147106295D01*
X169784398Y-147677723D02*
X170165351Y-147677723D01*
X169708208Y-147906295D02*
X169974875Y-147106295D01*
X169974875Y-147106295D02*
X170241541Y-147906295D01*
X171079636Y-147868200D02*
X171193922Y-147906295D01*
X171193922Y-147906295D02*
X171384398Y-147906295D01*
X171384398Y-147906295D02*
X171460589Y-147868200D01*
X171460589Y-147868200D02*
X171498684Y-147830104D01*
X171498684Y-147830104D02*
X171536779Y-147753914D01*
X171536779Y-147753914D02*
X171536779Y-147677723D01*
X171536779Y-147677723D02*
X171498684Y-147601533D01*
X171498684Y-147601533D02*
X171460589Y-147563438D01*
X171460589Y-147563438D02*
X171384398Y-147525342D01*
X171384398Y-147525342D02*
X171232017Y-147487247D01*
X171232017Y-147487247D02*
X171155827Y-147449152D01*
X171155827Y-147449152D02*
X171117732Y-147411057D01*
X171117732Y-147411057D02*
X171079636Y-147334866D01*
X171079636Y-147334866D02*
X171079636Y-147258676D01*
X171079636Y-147258676D02*
X171117732Y-147182485D01*
X171117732Y-147182485D02*
X171155827Y-147144390D01*
X171155827Y-147144390D02*
X171232017Y-147106295D01*
X171232017Y-147106295D02*
X171422494Y-147106295D01*
X171422494Y-147106295D02*
X171536779Y-147144390D01*
X171879637Y-147106295D02*
X171879637Y-147753914D01*
X171879637Y-147753914D02*
X171917732Y-147830104D01*
X171917732Y-147830104D02*
X171955827Y-147868200D01*
X171955827Y-147868200D02*
X172032018Y-147906295D01*
X172032018Y-147906295D02*
X172184399Y-147906295D01*
X172184399Y-147906295D02*
X172260589Y-147868200D01*
X172260589Y-147868200D02*
X172298684Y-147830104D01*
X172298684Y-147830104D02*
X172336780Y-147753914D01*
X172336780Y-147753914D02*
X172336780Y-147106295D01*
X172717732Y-147906295D02*
X172717732Y-147106295D01*
X172717732Y-147106295D02*
X173022494Y-147106295D01*
X173022494Y-147106295D02*
X173098684Y-147144390D01*
X173098684Y-147144390D02*
X173136779Y-147182485D01*
X173136779Y-147182485D02*
X173174875Y-147258676D01*
X173174875Y-147258676D02*
X173174875Y-147372961D01*
X173174875Y-147372961D02*
X173136779Y-147449152D01*
X173136779Y-147449152D02*
X173098684Y-147487247D01*
X173098684Y-147487247D02*
X173022494Y-147525342D01*
X173022494Y-147525342D02*
X172717732Y-147525342D01*
X173517732Y-147906295D02*
X173517732Y-147106295D01*
X173517732Y-147106295D02*
X173822494Y-147106295D01*
X173822494Y-147106295D02*
X173898684Y-147144390D01*
X173898684Y-147144390D02*
X173936779Y-147182485D01*
X173936779Y-147182485D02*
X173974875Y-147258676D01*
X173974875Y-147258676D02*
X173974875Y-147372961D01*
X173974875Y-147372961D02*
X173936779Y-147449152D01*
X173936779Y-147449152D02*
X173898684Y-147487247D01*
X173898684Y-147487247D02*
X173822494Y-147525342D01*
X173822494Y-147525342D02*
X173517732Y-147525342D01*
X174698684Y-147906295D02*
X174317732Y-147906295D01*
X174317732Y-147906295D02*
X174317732Y-147106295D01*
X175117732Y-147525342D02*
X175117732Y-147906295D01*
X174851065Y-147106295D02*
X175117732Y-147525342D01*
X175117732Y-147525342D02*
X175384398Y-147106295D01*
X176184398Y-147106295D02*
X176374874Y-147906295D01*
X176374874Y-147906295D02*
X176527255Y-147334866D01*
X176527255Y-147334866D02*
X176679636Y-147906295D01*
X176679636Y-147906295D02*
X176870113Y-147106295D01*
X177174875Y-147906295D02*
X177174875Y-147106295D01*
X177441541Y-147106295D02*
X177898684Y-147106295D01*
X177670112Y-147906295D02*
X177670112Y-147106295D01*
X178165351Y-147906295D02*
X178165351Y-147106295D01*
X178165351Y-147487247D02*
X178622494Y-147487247D01*
X178622494Y-147906295D02*
X178622494Y-147106295D01*
X179879636Y-147487247D02*
X179612970Y-147487247D01*
X179612970Y-147906295D02*
X179612970Y-147106295D01*
X179612970Y-147106295D02*
X179993922Y-147106295D01*
X180679636Y-147906295D02*
X180298684Y-147906295D01*
X180298684Y-147906295D02*
X180298684Y-147106295D01*
X181098684Y-147106295D02*
X181251065Y-147106295D01*
X181251065Y-147106295D02*
X181327255Y-147144390D01*
X181327255Y-147144390D02*
X181403446Y-147220580D01*
X181403446Y-147220580D02*
X181441541Y-147372961D01*
X181441541Y-147372961D02*
X181441541Y-147639628D01*
X181441541Y-147639628D02*
X181403446Y-147792009D01*
X181403446Y-147792009D02*
X181327255Y-147868200D01*
X181327255Y-147868200D02*
X181251065Y-147906295D01*
X181251065Y-147906295D02*
X181098684Y-147906295D01*
X181098684Y-147906295D02*
X181022493Y-147868200D01*
X181022493Y-147868200D02*
X180946303Y-147792009D01*
X180946303Y-147792009D02*
X180908207Y-147639628D01*
X180908207Y-147639628D02*
X180908207Y-147372961D01*
X180908207Y-147372961D02*
X180946303Y-147220580D01*
X180946303Y-147220580D02*
X181022493Y-147144390D01*
X181022493Y-147144390D02*
X181098684Y-147106295D01*
X181746302Y-147677723D02*
X182127255Y-147677723D01*
X181670112Y-147906295D02*
X181936779Y-147106295D01*
X181936779Y-147106295D02*
X182203445Y-147906295D01*
X182355826Y-147106295D02*
X182812969Y-147106295D01*
X182584397Y-147906295D02*
X182584397Y-147106295D01*
X183079636Y-147906295D02*
X183079636Y-147106295D01*
X183460588Y-147906295D02*
X183460588Y-147106295D01*
X183460588Y-147106295D02*
X183917731Y-147906295D01*
X183917731Y-147906295D02*
X183917731Y-147106295D01*
X184717730Y-147144390D02*
X184641540Y-147106295D01*
X184641540Y-147106295D02*
X184527254Y-147106295D01*
X184527254Y-147106295D02*
X184412968Y-147144390D01*
X184412968Y-147144390D02*
X184336778Y-147220580D01*
X184336778Y-147220580D02*
X184298683Y-147296771D01*
X184298683Y-147296771D02*
X184260587Y-147449152D01*
X184260587Y-147449152D02*
X184260587Y-147563438D01*
X184260587Y-147563438D02*
X184298683Y-147715819D01*
X184298683Y-147715819D02*
X184336778Y-147792009D01*
X184336778Y-147792009D02*
X184412968Y-147868200D01*
X184412968Y-147868200D02*
X184527254Y-147906295D01*
X184527254Y-147906295D02*
X184603445Y-147906295D01*
X184603445Y-147906295D02*
X184717730Y-147868200D01*
X184717730Y-147868200D02*
X184755826Y-147830104D01*
X184755826Y-147830104D02*
X184755826Y-147563438D01*
X184755826Y-147563438D02*
X184603445Y-147563438D01*
X185860588Y-147106295D02*
X186012969Y-147106295D01*
X186012969Y-147106295D02*
X186089159Y-147144390D01*
X186089159Y-147144390D02*
X186165350Y-147220580D01*
X186165350Y-147220580D02*
X186203445Y-147372961D01*
X186203445Y-147372961D02*
X186203445Y-147639628D01*
X186203445Y-147639628D02*
X186165350Y-147792009D01*
X186165350Y-147792009D02*
X186089159Y-147868200D01*
X186089159Y-147868200D02*
X186012969Y-147906295D01*
X186012969Y-147906295D02*
X185860588Y-147906295D01*
X185860588Y-147906295D02*
X185784397Y-147868200D01*
X185784397Y-147868200D02*
X185708207Y-147792009D01*
X185708207Y-147792009D02*
X185670111Y-147639628D01*
X185670111Y-147639628D02*
X185670111Y-147372961D01*
X185670111Y-147372961D02*
X185708207Y-147220580D01*
X185708207Y-147220580D02*
X185784397Y-147144390D01*
X185784397Y-147144390D02*
X185860588Y-147106295D01*
X186546302Y-147106295D02*
X186546302Y-147753914D01*
X186546302Y-147753914D02*
X186584397Y-147830104D01*
X186584397Y-147830104D02*
X186622492Y-147868200D01*
X186622492Y-147868200D02*
X186698683Y-147906295D01*
X186698683Y-147906295D02*
X186851064Y-147906295D01*
X186851064Y-147906295D02*
X186927254Y-147868200D01*
X186927254Y-147868200D02*
X186965349Y-147830104D01*
X186965349Y-147830104D02*
X187003445Y-147753914D01*
X187003445Y-147753914D02*
X187003445Y-147106295D01*
X187270111Y-147106295D02*
X187727254Y-147106295D01*
X187498682Y-147906295D02*
X187498682Y-147106295D01*
X187993921Y-147906295D02*
X187993921Y-147106295D01*
X187993921Y-147106295D02*
X188298683Y-147106295D01*
X188298683Y-147106295D02*
X188374873Y-147144390D01*
X188374873Y-147144390D02*
X188412968Y-147182485D01*
X188412968Y-147182485D02*
X188451064Y-147258676D01*
X188451064Y-147258676D02*
X188451064Y-147372961D01*
X188451064Y-147372961D02*
X188412968Y-147449152D01*
X188412968Y-147449152D02*
X188374873Y-147487247D01*
X188374873Y-147487247D02*
X188298683Y-147525342D01*
X188298683Y-147525342D02*
X187993921Y-147525342D01*
X188793921Y-147106295D02*
X188793921Y-147753914D01*
X188793921Y-147753914D02*
X188832016Y-147830104D01*
X188832016Y-147830104D02*
X188870111Y-147868200D01*
X188870111Y-147868200D02*
X188946302Y-147906295D01*
X188946302Y-147906295D02*
X189098683Y-147906295D01*
X189098683Y-147906295D02*
X189174873Y-147868200D01*
X189174873Y-147868200D02*
X189212968Y-147830104D01*
X189212968Y-147830104D02*
X189251064Y-147753914D01*
X189251064Y-147753914D02*
X189251064Y-147106295D01*
X189517730Y-147106295D02*
X189974873Y-147106295D01*
X189746301Y-147906295D02*
X189746301Y-147106295D01*
X191079635Y-148211057D02*
X191041540Y-148172961D01*
X191041540Y-148172961D02*
X190965349Y-148058676D01*
X190965349Y-148058676D02*
X190927254Y-147982485D01*
X190927254Y-147982485D02*
X190889159Y-147868200D01*
X190889159Y-147868200D02*
X190851064Y-147677723D01*
X190851064Y-147677723D02*
X190851064Y-147525342D01*
X190851064Y-147525342D02*
X190889159Y-147334866D01*
X190889159Y-147334866D02*
X190927254Y-147220580D01*
X190927254Y-147220580D02*
X190965349Y-147144390D01*
X190965349Y-147144390D02*
X191041540Y-147030104D01*
X191041540Y-147030104D02*
X191079635Y-146992009D01*
X191346301Y-147868200D02*
X191460587Y-147906295D01*
X191460587Y-147906295D02*
X191651063Y-147906295D01*
X191651063Y-147906295D02*
X191727254Y-147868200D01*
X191727254Y-147868200D02*
X191765349Y-147830104D01*
X191765349Y-147830104D02*
X191803444Y-147753914D01*
X191803444Y-147753914D02*
X191803444Y-147677723D01*
X191803444Y-147677723D02*
X191765349Y-147601533D01*
X191765349Y-147601533D02*
X191727254Y-147563438D01*
X191727254Y-147563438D02*
X191651063Y-147525342D01*
X191651063Y-147525342D02*
X191498682Y-147487247D01*
X191498682Y-147487247D02*
X191422492Y-147449152D01*
X191422492Y-147449152D02*
X191384397Y-147411057D01*
X191384397Y-147411057D02*
X191346301Y-147334866D01*
X191346301Y-147334866D02*
X191346301Y-147258676D01*
X191346301Y-147258676D02*
X191384397Y-147182485D01*
X191384397Y-147182485D02*
X191422492Y-147144390D01*
X191422492Y-147144390D02*
X191498682Y-147106295D01*
X191498682Y-147106295D02*
X191689159Y-147106295D01*
X191689159Y-147106295D02*
X191803444Y-147144390D01*
X192146302Y-147487247D02*
X192412968Y-147487247D01*
X192527254Y-147906295D02*
X192146302Y-147906295D01*
X192146302Y-147906295D02*
X192146302Y-147106295D01*
X192146302Y-147106295D02*
X192527254Y-147106295D01*
X193251064Y-147906295D02*
X192870112Y-147906295D01*
X192870112Y-147906295D02*
X192870112Y-147106295D01*
X193403445Y-147106295D02*
X193670112Y-147906295D01*
X193670112Y-147906295D02*
X193936778Y-147106295D01*
X194127254Y-148211057D02*
X194165349Y-148172961D01*
X194165349Y-148172961D02*
X194241540Y-148058676D01*
X194241540Y-148058676D02*
X194279635Y-147982485D01*
X194279635Y-147982485D02*
X194317730Y-147868200D01*
X194317730Y-147868200D02*
X194355826Y-147677723D01*
X194355826Y-147677723D02*
X194355826Y-147525342D01*
X194355826Y-147525342D02*
X194317730Y-147334866D01*
X194317730Y-147334866D02*
X194279635Y-147220580D01*
X194279635Y-147220580D02*
X194241540Y-147144390D01*
X194241540Y-147144390D02*
X194165349Y-147030104D01*
X194165349Y-147030104D02*
X194127254Y-146992009D01*
X166889160Y-149194295D02*
X166889160Y-148394295D01*
X166889160Y-148394295D02*
X167346303Y-149194295D01*
X167346303Y-149194295D02*
X167346303Y-148394295D01*
X167879636Y-148394295D02*
X168032017Y-148394295D01*
X168032017Y-148394295D02*
X168108207Y-148432390D01*
X168108207Y-148432390D02*
X168184398Y-148508580D01*
X168184398Y-148508580D02*
X168222493Y-148660961D01*
X168222493Y-148660961D02*
X168222493Y-148927628D01*
X168222493Y-148927628D02*
X168184398Y-149080009D01*
X168184398Y-149080009D02*
X168108207Y-149156200D01*
X168108207Y-149156200D02*
X168032017Y-149194295D01*
X168032017Y-149194295D02*
X167879636Y-149194295D01*
X167879636Y-149194295D02*
X167803445Y-149156200D01*
X167803445Y-149156200D02*
X167727255Y-149080009D01*
X167727255Y-149080009D02*
X167689159Y-148927628D01*
X167689159Y-148927628D02*
X167689159Y-148660961D01*
X167689159Y-148660961D02*
X167727255Y-148508580D01*
X167727255Y-148508580D02*
X167803445Y-148432390D01*
X167803445Y-148432390D02*
X167879636Y-148394295D01*
X169593921Y-148432390D02*
X169517731Y-148394295D01*
X169517731Y-148394295D02*
X169403445Y-148394295D01*
X169403445Y-148394295D02*
X169289159Y-148432390D01*
X169289159Y-148432390D02*
X169212969Y-148508580D01*
X169212969Y-148508580D02*
X169174874Y-148584771D01*
X169174874Y-148584771D02*
X169136778Y-148737152D01*
X169136778Y-148737152D02*
X169136778Y-148851438D01*
X169136778Y-148851438D02*
X169174874Y-149003819D01*
X169174874Y-149003819D02*
X169212969Y-149080009D01*
X169212969Y-149080009D02*
X169289159Y-149156200D01*
X169289159Y-149156200D02*
X169403445Y-149194295D01*
X169403445Y-149194295D02*
X169479636Y-149194295D01*
X169479636Y-149194295D02*
X169593921Y-149156200D01*
X169593921Y-149156200D02*
X169632017Y-149118104D01*
X169632017Y-149118104D02*
X169632017Y-148851438D01*
X169632017Y-148851438D02*
X169479636Y-148851438D01*
X170432017Y-149194295D02*
X170165350Y-148813342D01*
X169974874Y-149194295D02*
X169974874Y-148394295D01*
X169974874Y-148394295D02*
X170279636Y-148394295D01*
X170279636Y-148394295D02*
X170355826Y-148432390D01*
X170355826Y-148432390D02*
X170393921Y-148470485D01*
X170393921Y-148470485D02*
X170432017Y-148546676D01*
X170432017Y-148546676D02*
X170432017Y-148660961D01*
X170432017Y-148660961D02*
X170393921Y-148737152D01*
X170393921Y-148737152D02*
X170355826Y-148775247D01*
X170355826Y-148775247D02*
X170279636Y-148813342D01*
X170279636Y-148813342D02*
X169974874Y-148813342D01*
X170927255Y-148394295D02*
X171079636Y-148394295D01*
X171079636Y-148394295D02*
X171155826Y-148432390D01*
X171155826Y-148432390D02*
X171232017Y-148508580D01*
X171232017Y-148508580D02*
X171270112Y-148660961D01*
X171270112Y-148660961D02*
X171270112Y-148927628D01*
X171270112Y-148927628D02*
X171232017Y-149080009D01*
X171232017Y-149080009D02*
X171155826Y-149156200D01*
X171155826Y-149156200D02*
X171079636Y-149194295D01*
X171079636Y-149194295D02*
X170927255Y-149194295D01*
X170927255Y-149194295D02*
X170851064Y-149156200D01*
X170851064Y-149156200D02*
X170774874Y-149080009D01*
X170774874Y-149080009D02*
X170736778Y-148927628D01*
X170736778Y-148927628D02*
X170736778Y-148660961D01*
X170736778Y-148660961D02*
X170774874Y-148508580D01*
X170774874Y-148508580D02*
X170851064Y-148432390D01*
X170851064Y-148432390D02*
X170927255Y-148394295D01*
X171612969Y-148394295D02*
X171612969Y-149041914D01*
X171612969Y-149041914D02*
X171651064Y-149118104D01*
X171651064Y-149118104D02*
X171689159Y-149156200D01*
X171689159Y-149156200D02*
X171765350Y-149194295D01*
X171765350Y-149194295D02*
X171917731Y-149194295D01*
X171917731Y-149194295D02*
X171993921Y-149156200D01*
X171993921Y-149156200D02*
X172032016Y-149118104D01*
X172032016Y-149118104D02*
X172070112Y-149041914D01*
X172070112Y-149041914D02*
X172070112Y-148394295D01*
X172451064Y-149194295D02*
X172451064Y-148394295D01*
X172451064Y-148394295D02*
X172908207Y-149194295D01*
X172908207Y-149194295D02*
X172908207Y-148394295D01*
X173289159Y-149194295D02*
X173289159Y-148394295D01*
X173289159Y-148394295D02*
X173479635Y-148394295D01*
X173479635Y-148394295D02*
X173593921Y-148432390D01*
X173593921Y-148432390D02*
X173670111Y-148508580D01*
X173670111Y-148508580D02*
X173708206Y-148584771D01*
X173708206Y-148584771D02*
X173746302Y-148737152D01*
X173746302Y-148737152D02*
X173746302Y-148851438D01*
X173746302Y-148851438D02*
X173708206Y-149003819D01*
X173708206Y-149003819D02*
X173670111Y-149080009D01*
X173670111Y-149080009D02*
X173593921Y-149156200D01*
X173593921Y-149156200D02*
X173479635Y-149194295D01*
X173479635Y-149194295D02*
X173289159Y-149194295D01*
X174089159Y-148775247D02*
X174355825Y-148775247D01*
X174470111Y-149194295D02*
X174089159Y-149194295D01*
X174089159Y-149194295D02*
X174089159Y-148394295D01*
X174089159Y-148394295D02*
X174470111Y-148394295D01*
X174812969Y-149194295D02*
X174812969Y-148394295D01*
X174812969Y-148394295D02*
X175003445Y-148394295D01*
X175003445Y-148394295D02*
X175117731Y-148432390D01*
X175117731Y-148432390D02*
X175193921Y-148508580D01*
X175193921Y-148508580D02*
X175232016Y-148584771D01*
X175232016Y-148584771D02*
X175270112Y-148737152D01*
X175270112Y-148737152D02*
X175270112Y-148851438D01*
X175270112Y-148851438D02*
X175232016Y-149003819D01*
X175232016Y-149003819D02*
X175193921Y-149080009D01*
X175193921Y-149080009D02*
X175117731Y-149156200D01*
X175117731Y-149156200D02*
X175003445Y-149194295D01*
X175003445Y-149194295D02*
X174812969Y-149194295D01*
X176222493Y-148394295D02*
X176222493Y-149041914D01*
X176222493Y-149041914D02*
X176260588Y-149118104D01*
X176260588Y-149118104D02*
X176298683Y-149156200D01*
X176298683Y-149156200D02*
X176374874Y-149194295D01*
X176374874Y-149194295D02*
X176527255Y-149194295D01*
X176527255Y-149194295D02*
X176603445Y-149156200D01*
X176603445Y-149156200D02*
X176641540Y-149118104D01*
X176641540Y-149118104D02*
X176679636Y-149041914D01*
X176679636Y-149041914D02*
X176679636Y-148394295D01*
X177022492Y-149156200D02*
X177136778Y-149194295D01*
X177136778Y-149194295D02*
X177327254Y-149194295D01*
X177327254Y-149194295D02*
X177403445Y-149156200D01*
X177403445Y-149156200D02*
X177441540Y-149118104D01*
X177441540Y-149118104D02*
X177479635Y-149041914D01*
X177479635Y-149041914D02*
X177479635Y-148965723D01*
X177479635Y-148965723D02*
X177441540Y-148889533D01*
X177441540Y-148889533D02*
X177403445Y-148851438D01*
X177403445Y-148851438D02*
X177327254Y-148813342D01*
X177327254Y-148813342D02*
X177174873Y-148775247D01*
X177174873Y-148775247D02*
X177098683Y-148737152D01*
X177098683Y-148737152D02*
X177060588Y-148699057D01*
X177060588Y-148699057D02*
X177022492Y-148622866D01*
X177022492Y-148622866D02*
X177022492Y-148546676D01*
X177022492Y-148546676D02*
X177060588Y-148470485D01*
X177060588Y-148470485D02*
X177098683Y-148432390D01*
X177098683Y-148432390D02*
X177174873Y-148394295D01*
X177174873Y-148394295D02*
X177365350Y-148394295D01*
X177365350Y-148394295D02*
X177479635Y-148432390D01*
X178089159Y-148775247D02*
X178203445Y-148813342D01*
X178203445Y-148813342D02*
X178241540Y-148851438D01*
X178241540Y-148851438D02*
X178279636Y-148927628D01*
X178279636Y-148927628D02*
X178279636Y-149041914D01*
X178279636Y-149041914D02*
X178241540Y-149118104D01*
X178241540Y-149118104D02*
X178203445Y-149156200D01*
X178203445Y-149156200D02*
X178127255Y-149194295D01*
X178127255Y-149194295D02*
X177822493Y-149194295D01*
X177822493Y-149194295D02*
X177822493Y-148394295D01*
X177822493Y-148394295D02*
X178089159Y-148394295D01*
X178089159Y-148394295D02*
X178165350Y-148432390D01*
X178165350Y-148432390D02*
X178203445Y-148470485D01*
X178203445Y-148470485D02*
X178241540Y-148546676D01*
X178241540Y-148546676D02*
X178241540Y-148622866D01*
X178241540Y-148622866D02*
X178203445Y-148699057D01*
X178203445Y-148699057D02*
X178165350Y-148737152D01*
X178165350Y-148737152D02*
X178089159Y-148775247D01*
X178089159Y-148775247D02*
X177822493Y-148775247D01*
X179689160Y-149118104D02*
X179651064Y-149156200D01*
X179651064Y-149156200D02*
X179536779Y-149194295D01*
X179536779Y-149194295D02*
X179460588Y-149194295D01*
X179460588Y-149194295D02*
X179346302Y-149156200D01*
X179346302Y-149156200D02*
X179270112Y-149080009D01*
X179270112Y-149080009D02*
X179232017Y-149003819D01*
X179232017Y-149003819D02*
X179193921Y-148851438D01*
X179193921Y-148851438D02*
X179193921Y-148737152D01*
X179193921Y-148737152D02*
X179232017Y-148584771D01*
X179232017Y-148584771D02*
X179270112Y-148508580D01*
X179270112Y-148508580D02*
X179346302Y-148432390D01*
X179346302Y-148432390D02*
X179460588Y-148394295D01*
X179460588Y-148394295D02*
X179536779Y-148394295D01*
X179536779Y-148394295D02*
X179651064Y-148432390D01*
X179651064Y-148432390D02*
X179689160Y-148470485D01*
X180184398Y-148394295D02*
X180336779Y-148394295D01*
X180336779Y-148394295D02*
X180412969Y-148432390D01*
X180412969Y-148432390D02*
X180489160Y-148508580D01*
X180489160Y-148508580D02*
X180527255Y-148660961D01*
X180527255Y-148660961D02*
X180527255Y-148927628D01*
X180527255Y-148927628D02*
X180489160Y-149080009D01*
X180489160Y-149080009D02*
X180412969Y-149156200D01*
X180412969Y-149156200D02*
X180336779Y-149194295D01*
X180336779Y-149194295D02*
X180184398Y-149194295D01*
X180184398Y-149194295D02*
X180108207Y-149156200D01*
X180108207Y-149156200D02*
X180032017Y-149080009D01*
X180032017Y-149080009D02*
X179993921Y-148927628D01*
X179993921Y-148927628D02*
X179993921Y-148660961D01*
X179993921Y-148660961D02*
X180032017Y-148508580D01*
X180032017Y-148508580D02*
X180108207Y-148432390D01*
X180108207Y-148432390D02*
X180184398Y-148394295D01*
X180870112Y-149194295D02*
X180870112Y-148394295D01*
X180870112Y-148394295D02*
X181327255Y-149194295D01*
X181327255Y-149194295D02*
X181327255Y-148394295D01*
X181708207Y-149194295D02*
X181708207Y-148394295D01*
X181708207Y-148394295D02*
X182165350Y-149194295D01*
X182165350Y-149194295D02*
X182165350Y-148394295D01*
X182546302Y-148775247D02*
X182812968Y-148775247D01*
X182927254Y-149194295D02*
X182546302Y-149194295D01*
X182546302Y-149194295D02*
X182546302Y-148394295D01*
X182546302Y-148394295D02*
X182927254Y-148394295D01*
X183727255Y-149118104D02*
X183689159Y-149156200D01*
X183689159Y-149156200D02*
X183574874Y-149194295D01*
X183574874Y-149194295D02*
X183498683Y-149194295D01*
X183498683Y-149194295D02*
X183384397Y-149156200D01*
X183384397Y-149156200D02*
X183308207Y-149080009D01*
X183308207Y-149080009D02*
X183270112Y-149003819D01*
X183270112Y-149003819D02*
X183232016Y-148851438D01*
X183232016Y-148851438D02*
X183232016Y-148737152D01*
X183232016Y-148737152D02*
X183270112Y-148584771D01*
X183270112Y-148584771D02*
X183308207Y-148508580D01*
X183308207Y-148508580D02*
X183384397Y-148432390D01*
X183384397Y-148432390D02*
X183498683Y-148394295D01*
X183498683Y-148394295D02*
X183574874Y-148394295D01*
X183574874Y-148394295D02*
X183689159Y-148432390D01*
X183689159Y-148432390D02*
X183727255Y-148470485D01*
X183955826Y-148394295D02*
X184412969Y-148394295D01*
X184184397Y-149194295D02*
X184184397Y-148394295D01*
X184679636Y-149194295D02*
X184679636Y-148394295D01*
X185212969Y-148394295D02*
X185365350Y-148394295D01*
X185365350Y-148394295D02*
X185441540Y-148432390D01*
X185441540Y-148432390D02*
X185517731Y-148508580D01*
X185517731Y-148508580D02*
X185555826Y-148660961D01*
X185555826Y-148660961D02*
X185555826Y-148927628D01*
X185555826Y-148927628D02*
X185517731Y-149080009D01*
X185517731Y-149080009D02*
X185441540Y-149156200D01*
X185441540Y-149156200D02*
X185365350Y-149194295D01*
X185365350Y-149194295D02*
X185212969Y-149194295D01*
X185212969Y-149194295D02*
X185136778Y-149156200D01*
X185136778Y-149156200D02*
X185060588Y-149080009D01*
X185060588Y-149080009D02*
X185022492Y-148927628D01*
X185022492Y-148927628D02*
X185022492Y-148660961D01*
X185022492Y-148660961D02*
X185060588Y-148508580D01*
X185060588Y-148508580D02*
X185136778Y-148432390D01*
X185136778Y-148432390D02*
X185212969Y-148394295D01*
X185898683Y-149194295D02*
X185898683Y-148394295D01*
X185898683Y-148394295D02*
X186355826Y-149194295D01*
X186355826Y-149194295D02*
X186355826Y-148394295D01*
X179262857Y-121510295D02*
X179720000Y-121510295D01*
X179491428Y-122310295D02*
X179491428Y-121510295D01*
X180253333Y-121891247D02*
X179986667Y-121891247D01*
X179986667Y-122310295D02*
X179986667Y-121510295D01*
X179986667Y-121510295D02*
X180367619Y-121510295D01*
X180558095Y-121510295D02*
X181015238Y-121510295D01*
X180786666Y-122310295D02*
X180786666Y-121510295D01*
X181700952Y-122310295D02*
X181243809Y-122310295D01*
X181472381Y-122310295D02*
X181472381Y-121510295D01*
X181472381Y-121510295D02*
X181396190Y-121624580D01*
X181396190Y-121624580D02*
X181320000Y-121700771D01*
X181320000Y-121700771D02*
X181243809Y-121738866D01*
X176890475Y-127524200D02*
X177004761Y-127562295D01*
X177004761Y-127562295D02*
X177195237Y-127562295D01*
X177195237Y-127562295D02*
X177271428Y-127524200D01*
X177271428Y-127524200D02*
X177309523Y-127486104D01*
X177309523Y-127486104D02*
X177347618Y-127409914D01*
X177347618Y-127409914D02*
X177347618Y-127333723D01*
X177347618Y-127333723D02*
X177309523Y-127257533D01*
X177309523Y-127257533D02*
X177271428Y-127219438D01*
X177271428Y-127219438D02*
X177195237Y-127181342D01*
X177195237Y-127181342D02*
X177042856Y-127143247D01*
X177042856Y-127143247D02*
X176966666Y-127105152D01*
X176966666Y-127105152D02*
X176928571Y-127067057D01*
X176928571Y-127067057D02*
X176890475Y-126990866D01*
X176890475Y-126990866D02*
X176890475Y-126914676D01*
X176890475Y-126914676D02*
X176928571Y-126838485D01*
X176928571Y-126838485D02*
X176966666Y-126800390D01*
X176966666Y-126800390D02*
X177042856Y-126762295D01*
X177042856Y-126762295D02*
X177233333Y-126762295D01*
X177233333Y-126762295D02*
X177347618Y-126800390D01*
X178109523Y-127562295D02*
X177652380Y-127562295D01*
X177880952Y-127562295D02*
X177880952Y-126762295D01*
X177880952Y-126762295D02*
X177804761Y-126876580D01*
X177804761Y-126876580D02*
X177728571Y-126952771D01*
X177728571Y-126952771D02*
X177652380Y-126990866D01*
X167783333Y-123612295D02*
X167783333Y-124183723D01*
X167783333Y-124183723D02*
X167745238Y-124298009D01*
X167745238Y-124298009D02*
X167669047Y-124374200D01*
X167669047Y-124374200D02*
X167554762Y-124412295D01*
X167554762Y-124412295D02*
X167478571Y-124412295D01*
X168088095Y-123612295D02*
X168621429Y-123612295D01*
X168621429Y-123612295D02*
X168278571Y-124412295D01*
X195640475Y-131574200D02*
X195754761Y-131612295D01*
X195754761Y-131612295D02*
X195945237Y-131612295D01*
X195945237Y-131612295D02*
X196021428Y-131574200D01*
X196021428Y-131574200D02*
X196059523Y-131536104D01*
X196059523Y-131536104D02*
X196097618Y-131459914D01*
X196097618Y-131459914D02*
X196097618Y-131383723D01*
X196097618Y-131383723D02*
X196059523Y-131307533D01*
X196059523Y-131307533D02*
X196021428Y-131269438D01*
X196021428Y-131269438D02*
X195945237Y-131231342D01*
X195945237Y-131231342D02*
X195792856Y-131193247D01*
X195792856Y-131193247D02*
X195716666Y-131155152D01*
X195716666Y-131155152D02*
X195678571Y-131117057D01*
X195678571Y-131117057D02*
X195640475Y-131040866D01*
X195640475Y-131040866D02*
X195640475Y-130964676D01*
X195640475Y-130964676D02*
X195678571Y-130888485D01*
X195678571Y-130888485D02*
X195716666Y-130850390D01*
X195716666Y-130850390D02*
X195792856Y-130812295D01*
X195792856Y-130812295D02*
X195983333Y-130812295D01*
X195983333Y-130812295D02*
X196097618Y-130850390D01*
X196364285Y-130812295D02*
X196859523Y-130812295D01*
X196859523Y-130812295D02*
X196592857Y-131117057D01*
X196592857Y-131117057D02*
X196707142Y-131117057D01*
X196707142Y-131117057D02*
X196783333Y-131155152D01*
X196783333Y-131155152D02*
X196821428Y-131193247D01*
X196821428Y-131193247D02*
X196859523Y-131269438D01*
X196859523Y-131269438D02*
X196859523Y-131459914D01*
X196859523Y-131459914D02*
X196821428Y-131536104D01*
X196821428Y-131536104D02*
X196783333Y-131574200D01*
X196783333Y-131574200D02*
X196707142Y-131612295D01*
X196707142Y-131612295D02*
X196478571Y-131612295D01*
X196478571Y-131612295D02*
X196402380Y-131574200D01*
X196402380Y-131574200D02*
X196364285Y-131536104D01*
X174290476Y-140262295D02*
X174290476Y-140909914D01*
X174290476Y-140909914D02*
X174328571Y-140986104D01*
X174328571Y-140986104D02*
X174366666Y-141024200D01*
X174366666Y-141024200D02*
X174442857Y-141062295D01*
X174442857Y-141062295D02*
X174595238Y-141062295D01*
X174595238Y-141062295D02*
X174671428Y-141024200D01*
X174671428Y-141024200D02*
X174709523Y-140986104D01*
X174709523Y-140986104D02*
X174747619Y-140909914D01*
X174747619Y-140909914D02*
X174747619Y-140262295D01*
X175090475Y-140338485D02*
X175128571Y-140300390D01*
X175128571Y-140300390D02*
X175204761Y-140262295D01*
X175204761Y-140262295D02*
X175395237Y-140262295D01*
X175395237Y-140262295D02*
X175471428Y-140300390D01*
X175471428Y-140300390D02*
X175509523Y-140338485D01*
X175509523Y-140338485D02*
X175547618Y-140414676D01*
X175547618Y-140414676D02*
X175547618Y-140490866D01*
X175547618Y-140490866D02*
X175509523Y-140605152D01*
X175509523Y-140605152D02*
X175052380Y-141062295D01*
X175052380Y-141062295D02*
X175547618Y-141062295D01*
X183640475Y-131574200D02*
X183754761Y-131612295D01*
X183754761Y-131612295D02*
X183945237Y-131612295D01*
X183945237Y-131612295D02*
X184021428Y-131574200D01*
X184021428Y-131574200D02*
X184059523Y-131536104D01*
X184059523Y-131536104D02*
X184097618Y-131459914D01*
X184097618Y-131459914D02*
X184097618Y-131383723D01*
X184097618Y-131383723D02*
X184059523Y-131307533D01*
X184059523Y-131307533D02*
X184021428Y-131269438D01*
X184021428Y-131269438D02*
X183945237Y-131231342D01*
X183945237Y-131231342D02*
X183792856Y-131193247D01*
X183792856Y-131193247D02*
X183716666Y-131155152D01*
X183716666Y-131155152D02*
X183678571Y-131117057D01*
X183678571Y-131117057D02*
X183640475Y-131040866D01*
X183640475Y-131040866D02*
X183640475Y-130964676D01*
X183640475Y-130964676D02*
X183678571Y-130888485D01*
X183678571Y-130888485D02*
X183716666Y-130850390D01*
X183716666Y-130850390D02*
X183792856Y-130812295D01*
X183792856Y-130812295D02*
X183983333Y-130812295D01*
X183983333Y-130812295D02*
X184097618Y-130850390D01*
X184402380Y-130888485D02*
X184440476Y-130850390D01*
X184440476Y-130850390D02*
X184516666Y-130812295D01*
X184516666Y-130812295D02*
X184707142Y-130812295D01*
X184707142Y-130812295D02*
X184783333Y-130850390D01*
X184783333Y-130850390D02*
X184821428Y-130888485D01*
X184821428Y-130888485D02*
X184859523Y-130964676D01*
X184859523Y-130964676D02*
X184859523Y-131040866D01*
X184859523Y-131040866D02*
X184821428Y-131155152D01*
X184821428Y-131155152D02*
X184364285Y-131612295D01*
X184364285Y-131612295D02*
X184859523Y-131612295D01*
X164233333Y-108862295D02*
X164233333Y-109433723D01*
X164233333Y-109433723D02*
X164195238Y-109548009D01*
X164195238Y-109548009D02*
X164119047Y-109624200D01*
X164119047Y-109624200D02*
X164004762Y-109662295D01*
X164004762Y-109662295D02*
X163928571Y-109662295D01*
X164957143Y-109128961D02*
X164957143Y-109662295D01*
X164766667Y-108824200D02*
X164576190Y-109395628D01*
X164576190Y-109395628D02*
X165071429Y-109395628D01*
D12*
%TO.C,TP18*%
X189390000Y-122810000D02*
X191930000Y-122810000D01*
X189390000Y-125350000D02*
X189390000Y-122810000D01*
X191930000Y-122810000D02*
X191930000Y-125350000D01*
X191930000Y-125350000D02*
X189390000Y-125350000D01*
D10*
X190660000Y-125830000D02*
G75*
G03*
X190560000Y-125830000I-50000J0D01*
G01*
X190560000Y-125830000D02*
G75*
G03*
X190660000Y-125830000I50000J0D01*
G01*
D12*
%TO.C,S1*%
X172550000Y-130200000D02*
X172550000Y-130200000D01*
X172450000Y-130200000D02*
X172450000Y-130200000D01*
D10*
X171650000Y-132300000D02*
X168850000Y-132300000D01*
X173350000Y-132600000D02*
X173350000Y-138200000D01*
X167150000Y-132600000D02*
X167150000Y-138200000D01*
X171650000Y-138500000D02*
X168850000Y-138500000D01*
D12*
X172450000Y-130200000D02*
G75*
G03*
X172550000Y-130200000I50000J0D01*
G01*
X172550000Y-130200000D02*
G75*
G03*
X172450000Y-130200000I-50000J0D01*
G01*
%TO.C,J7*%
X169070000Y-122810000D02*
X189390000Y-122810000D01*
X169070000Y-125350000D02*
X169070000Y-122810000D01*
X189390000Y-122810000D02*
X189390000Y-125350000D01*
X189390000Y-125350000D02*
X169070000Y-125350000D01*
D10*
X170340000Y-125830000D02*
G75*
G03*
X170240000Y-125830000I-50000J0D01*
G01*
X170240000Y-125830000D02*
G75*
G03*
X170340000Y-125830000I50000J0D01*
G01*
D12*
%TO.C,S3*%
X198550000Y-130200000D02*
X198550000Y-130200000D01*
X198450000Y-130200000D02*
X198450000Y-130200000D01*
D10*
X197650000Y-132300000D02*
X194850000Y-132300000D01*
X199350000Y-132600000D02*
X199350000Y-138200000D01*
X193150000Y-132600000D02*
X193150000Y-138200000D01*
X197650000Y-138500000D02*
X194850000Y-138500000D01*
D12*
X198450000Y-130200000D02*
G75*
G03*
X198550000Y-130200000I50000J0D01*
G01*
X198550000Y-130200000D02*
G75*
G03*
X198450000Y-130200000I-50000J0D01*
G01*
D10*
%TO.C,U2*%
X164400000Y-129400000D02*
X164400000Y-133000000D01*
X164400000Y-137800000D02*
X164400000Y-141400000D01*
D12*
X167750000Y-145500000D02*
X167750000Y-145500000D01*
X167750000Y-145600000D02*
X167750000Y-145600000D01*
D10*
X168750000Y-128300000D02*
X171750000Y-128300000D01*
X176100000Y-129400000D02*
X176100000Y-133000000D01*
X176100000Y-137800000D02*
X176100000Y-141400000D01*
D12*
X167750000Y-145600000D02*
G75*
G03*
X167750000Y-145500000I0J50000D01*
G01*
X167750000Y-145500000D02*
G75*
G03*
X167750000Y-145600000I0J-50000D01*
G01*
%TO.C,S2*%
X186550000Y-130200000D02*
X186550000Y-130200000D01*
X186450000Y-130200000D02*
X186450000Y-130200000D01*
D10*
X185650000Y-132300000D02*
X182850000Y-132300000D01*
X187350000Y-132600000D02*
X187350000Y-138200000D01*
X181150000Y-132600000D02*
X181150000Y-138200000D01*
X185650000Y-138500000D02*
X182850000Y-138500000D01*
D12*
X186450000Y-130200000D02*
G75*
G03*
X186550000Y-130200000I50000J0D01*
G01*
X186550000Y-130200000D02*
G75*
G03*
X186450000Y-130200000I-50000J0D01*
G01*
%TO.C,G\u002A\u002A\u002A*%
G36*
X174740477Y-78331079D02*
G01*
X174740477Y-79240477D01*
X173831079Y-79240477D01*
X172921681Y-79240477D01*
X172921681Y-78331079D01*
X172921681Y-77421681D01*
X173831079Y-77421681D01*
X174740477Y-77421681D01*
X174740477Y-78331079D01*
G37*
G36*
X174740477Y-91668921D02*
G01*
X174740477Y-92578319D01*
X173831079Y-92578319D01*
X172921681Y-92578319D01*
X172921681Y-91668921D01*
X172921681Y-90759523D01*
X173831079Y-90759523D01*
X174740477Y-90759523D01*
X174740477Y-91668921D01*
G37*
G36*
X178996967Y-92281502D02*
G01*
X178996967Y-92590950D01*
X178687519Y-92590950D01*
X178378071Y-92590950D01*
X178378071Y-92281502D01*
X178378071Y-91972054D01*
X178687519Y-91972054D01*
X178996967Y-91972054D01*
X178996967Y-92281502D01*
G37*
G36*
X180815763Y-77731129D02*
G01*
X180815763Y-78040577D01*
X180506315Y-78040577D01*
X180196867Y-78040577D01*
X180196867Y-77731129D01*
X180196867Y-77421681D01*
X180506315Y-77421681D01*
X180815763Y-77421681D01*
X180815763Y-77731129D01*
G37*
G36*
X184453356Y-76518598D02*
G01*
X184453356Y-76828046D01*
X184143908Y-76828046D01*
X183834460Y-76828046D01*
X183834460Y-76518598D01*
X183834460Y-76209150D01*
X184143908Y-76209150D01*
X184453356Y-76209150D01*
X184453356Y-76518598D01*
G37*
G36*
X184453356Y-80156191D02*
G01*
X184453356Y-80465639D01*
X184143908Y-80465639D01*
X183834460Y-80465639D01*
X183834460Y-80156191D01*
X183834460Y-79846743D01*
X184143908Y-79846743D01*
X184453356Y-79846743D01*
X184453356Y-80156191D01*
G37*
G36*
X185665888Y-89856439D02*
G01*
X185665888Y-90165888D01*
X185356439Y-90165888D01*
X185046991Y-90165888D01*
X185046991Y-89856439D01*
X185046991Y-89546991D01*
X185356439Y-89546991D01*
X185665888Y-89546991D01*
X185665888Y-89856439D01*
G37*
G36*
X188078319Y-78331079D02*
G01*
X188078319Y-79240477D01*
X187168921Y-79240477D01*
X186259523Y-79240477D01*
X186259523Y-78331079D01*
X186259523Y-77421681D01*
X187168921Y-77421681D01*
X188078319Y-77421681D01*
X188078319Y-78331079D01*
G37*
G36*
X189303481Y-81974987D02*
G01*
X189303481Y-82284436D01*
X188994033Y-82284436D01*
X188684585Y-82284436D01*
X188684585Y-81974987D01*
X188684585Y-81665539D01*
X188994033Y-81665539D01*
X189303481Y-81665539D01*
X189303481Y-81974987D01*
G37*
G36*
X189303481Y-84400050D02*
G01*
X189303481Y-84709498D01*
X188994033Y-84709498D01*
X188684585Y-84709498D01*
X188684585Y-84400050D01*
X188684585Y-84090602D01*
X188994033Y-84090602D01*
X189303481Y-84090602D01*
X189303481Y-84400050D01*
G37*
G36*
X189303481Y-86825112D02*
G01*
X189303481Y-87134560D01*
X188994033Y-87134560D01*
X188684585Y-87134560D01*
X188684585Y-86825112D01*
X188684585Y-86515664D01*
X188994033Y-86515664D01*
X189303481Y-86515664D01*
X189303481Y-86825112D01*
G37*
G36*
X183243553Y-76515440D02*
G01*
X183244493Y-76626545D01*
X183244968Y-76752898D01*
X183244977Y-76884487D01*
X183244521Y-77011305D01*
X183243600Y-77123340D01*
X183243546Y-77128021D01*
X183239951Y-77434311D01*
X182930940Y-77434311D01*
X182621929Y-77434311D01*
X182621929Y-76821730D01*
X182621929Y-76209150D01*
X182930947Y-76209150D01*
X183239965Y-76209150D01*
X183243553Y-76515440D01*
G37*
G36*
X175953008Y-78331079D02*
G01*
X175953008Y-80453008D01*
X173831079Y-80453008D01*
X171709150Y-80453008D01*
X171709150Y-78331079D01*
X171709150Y-76815415D01*
X172315415Y-76815415D01*
X172315415Y-78331079D01*
X172315415Y-79846743D01*
X173831079Y-79846743D01*
X175346743Y-79846743D01*
X175346743Y-78331079D01*
X175346743Y-76815415D01*
X173831079Y-76815415D01*
X172315415Y-76815415D01*
X171709150Y-76815415D01*
X171709150Y-76209150D01*
X173831079Y-76209150D01*
X175953008Y-76209150D01*
X175953008Y-78331079D01*
G37*
G36*
X175953008Y-91668921D02*
G01*
X175953008Y-93790850D01*
X173831079Y-93790850D01*
X171709150Y-93790850D01*
X171709150Y-91668921D01*
X171709150Y-90153257D01*
X172315415Y-90153257D01*
X172315415Y-91668921D01*
X172315415Y-93184585D01*
X173831079Y-93184585D01*
X175346743Y-93184585D01*
X175346743Y-91668921D01*
X175346743Y-90153257D01*
X173831079Y-90153257D01*
X172315415Y-90153257D01*
X171709150Y-90153257D01*
X171709150Y-89546991D01*
X173831079Y-89546991D01*
X175953008Y-89546991D01*
X175953008Y-91668921D01*
G37*
G36*
X189290850Y-78331079D02*
G01*
X189290850Y-80453008D01*
X187168921Y-80453008D01*
X185046991Y-80453008D01*
X185046991Y-78331079D01*
X185046991Y-76815415D01*
X185653257Y-76815415D01*
X185653257Y-78331079D01*
X185653257Y-79846743D01*
X187168921Y-79846743D01*
X188684585Y-79846743D01*
X188684585Y-78331079D01*
X188684585Y-76815415D01*
X187168921Y-76815415D01*
X185653257Y-76815415D01*
X185046991Y-76815415D01*
X185046991Y-76209150D01*
X187168921Y-76209150D01*
X189290850Y-76209150D01*
X189290850Y-78331079D01*
G37*
G36*
X177784436Y-93494033D02*
G01*
X177784436Y-93803481D01*
X177494966Y-93803481D01*
X177411274Y-93803618D01*
X177335593Y-93804003D01*
X177271734Y-93804594D01*
X177223507Y-93805352D01*
X177194725Y-93806236D01*
X177188676Y-93806738D01*
X177171781Y-93807508D01*
X177133317Y-93807930D01*
X177076972Y-93808005D01*
X177006437Y-93807737D01*
X176925400Y-93807128D01*
X176865564Y-93806514D01*
X176559274Y-93803032D01*
X176559274Y-93493808D01*
X176559274Y-93184585D01*
X177171855Y-93184585D01*
X177784436Y-93184585D01*
X177784436Y-93494033D01*
G37*
G36*
X182028294Y-76518598D02*
G01*
X182028294Y-76828046D01*
X181738825Y-76828046D01*
X181655133Y-76828183D01*
X181579452Y-76828568D01*
X181515592Y-76829159D01*
X181467366Y-76829917D01*
X181438584Y-76830801D01*
X181432535Y-76831303D01*
X181415640Y-76832073D01*
X181377175Y-76832495D01*
X181320831Y-76832570D01*
X181250296Y-76832302D01*
X181169259Y-76831693D01*
X181109423Y-76831079D01*
X180803133Y-76827597D01*
X180803133Y-76518373D01*
X180803133Y-76209150D01*
X181415713Y-76209150D01*
X182028294Y-76209150D01*
X182028294Y-76518598D01*
G37*
G36*
X179603232Y-76518598D02*
G01*
X179603232Y-76828046D01*
X179303257Y-76828419D01*
X179226177Y-76828560D01*
X179128181Y-76828813D01*
X179013614Y-76829163D01*
X178886821Y-76829593D01*
X178752146Y-76830089D01*
X178613935Y-76830636D01*
X178476532Y-76831219D01*
X178397016Y-76831576D01*
X177790751Y-76834361D01*
X177788112Y-77137494D01*
X177787259Y-77247717D01*
X177786465Y-77372799D01*
X177785782Y-77502779D01*
X177785263Y-77627699D01*
X177784960Y-77737598D01*
X177784955Y-77740373D01*
X177784436Y-78040120D01*
X177484460Y-78043506D01*
X177184485Y-78046892D01*
X177181613Y-79259423D01*
X177181190Y-79440150D01*
X177180779Y-79619206D01*
X177180386Y-79794248D01*
X177180015Y-79962934D01*
X177179671Y-80122918D01*
X177179360Y-80271859D01*
X177179086Y-80407412D01*
X177178854Y-80527234D01*
X177178669Y-80628982D01*
X177178535Y-80710313D01*
X177178459Y-80768883D01*
X177178456Y-80771929D01*
X177178170Y-81071904D01*
X176868722Y-81071904D01*
X176559274Y-81071904D01*
X176559274Y-79246793D01*
X176559274Y-77421681D01*
X176862407Y-77421681D01*
X177165539Y-77421681D01*
X177165539Y-76815415D01*
X177165539Y-76209150D01*
X178384386Y-76209150D01*
X179603232Y-76209150D01*
X179603232Y-76518598D01*
G37*
G36*
X179603232Y-77730900D02*
G01*
X179603232Y-78040120D01*
X179303257Y-78043506D01*
X179003282Y-78046892D01*
X178999891Y-78340552D01*
X178996501Y-78634212D01*
X180209265Y-78634212D01*
X181422029Y-78634212D01*
X181422652Y-78940502D01*
X181422785Y-79050948D01*
X181422785Y-79176020D01*
X181422662Y-79305894D01*
X181422425Y-79430750D01*
X181422083Y-79540765D01*
X181422059Y-79546768D01*
X181420844Y-79846743D01*
X181724569Y-79846743D01*
X182028294Y-79846743D01*
X182028294Y-80156191D01*
X182028294Y-80465639D01*
X181718846Y-80465639D01*
X181409398Y-80465639D01*
X181409398Y-80162273D01*
X181409398Y-79858908D01*
X181115738Y-79862298D01*
X180822078Y-79865689D01*
X180818693Y-80165436D01*
X180815307Y-80465183D01*
X180515560Y-80468568D01*
X180215813Y-80471954D01*
X180212423Y-80765614D01*
X180209032Y-81059274D01*
X181415481Y-81059274D01*
X182621929Y-81059274D01*
X182621929Y-80156191D01*
X182621929Y-79253108D01*
X182318797Y-79253108D01*
X182015664Y-79253108D01*
X182015664Y-78646842D01*
X182015664Y-78040577D01*
X181712531Y-78040577D01*
X181409398Y-78040577D01*
X181409398Y-77731129D01*
X181409398Y-77421681D01*
X181718846Y-77421681D01*
X182028294Y-77421681D01*
X182028294Y-77724813D01*
X182028294Y-78027946D01*
X182331427Y-78027946D01*
X182634560Y-78027946D01*
X182635183Y-78334237D01*
X182635316Y-78444683D01*
X182635317Y-78569754D01*
X182635193Y-78699629D01*
X182634956Y-78824485D01*
X182634614Y-78934500D01*
X182634591Y-78940502D01*
X182633375Y-79240477D01*
X182930785Y-79240477D01*
X183228195Y-79240477D01*
X183228195Y-78634212D01*
X183228195Y-78027946D01*
X183840776Y-78027946D01*
X184453356Y-78027946D01*
X184453980Y-78334237D01*
X184454175Y-78479522D01*
X184454170Y-78618511D01*
X184453975Y-78749085D01*
X184453605Y-78869127D01*
X184453073Y-78976520D01*
X184452389Y-79069144D01*
X184451569Y-79144883D01*
X184450624Y-79201619D01*
X184449566Y-79237233D01*
X184448464Y-79249580D01*
X184435488Y-79250381D01*
X184399727Y-79251251D01*
X184343657Y-79252161D01*
X184269754Y-79253083D01*
X184180494Y-79253990D01*
X184078353Y-79254854D01*
X183965807Y-79255647D01*
X183845965Y-79256338D01*
X183247141Y-79259423D01*
X183244160Y-80159348D01*
X183241179Y-81059274D01*
X183847268Y-81059274D01*
X184453356Y-81059274D01*
X184453701Y-81362407D01*
X184453806Y-81470524D01*
X184453899Y-81594401D01*
X184453973Y-81724539D01*
X184454023Y-81851438D01*
X184454045Y-81965595D01*
X184454045Y-81981303D01*
X184454029Y-82092038D01*
X184453983Y-82216369D01*
X184453912Y-82344971D01*
X184453823Y-82468519D01*
X184453719Y-82577690D01*
X184453701Y-82593884D01*
X184453356Y-82890701D01*
X184143908Y-82890701D01*
X183834460Y-82890701D01*
X183834460Y-82587335D01*
X183834460Y-82283970D01*
X183540800Y-82287360D01*
X183247141Y-82290751D01*
X183244299Y-83200149D01*
X183243811Y-83359214D01*
X183243340Y-83518236D01*
X183242894Y-83674245D01*
X183242481Y-83824272D01*
X183242108Y-83965346D01*
X183241784Y-84094497D01*
X183241516Y-84208755D01*
X183241311Y-84305152D01*
X183241178Y-84380715D01*
X183241141Y-84409294D01*
X183240825Y-84709040D01*
X182940850Y-84712427D01*
X182640875Y-84715813D01*
X182637489Y-85015560D01*
X182634104Y-85315307D01*
X182334357Y-85318693D01*
X182034610Y-85322078D01*
X182031224Y-85621826D01*
X182027838Y-85921573D01*
X181728091Y-85924958D01*
X181428344Y-85928344D01*
X181424954Y-86222004D01*
X181421563Y-86515664D01*
X181724929Y-86515664D01*
X182028294Y-86515664D01*
X182028294Y-86824883D01*
X182028294Y-87134103D01*
X181728319Y-87137489D01*
X181428344Y-87140875D01*
X181424954Y-87434535D01*
X181421563Y-87728195D01*
X181724929Y-87728195D01*
X182028294Y-87728195D01*
X182028294Y-88031328D01*
X182028294Y-88334460D01*
X182331427Y-88334460D01*
X182634560Y-88334460D01*
X182635183Y-88640751D01*
X182635316Y-88751197D01*
X182635317Y-88876268D01*
X182635193Y-89006143D01*
X182634956Y-89130999D01*
X182634614Y-89241014D01*
X182634591Y-89247016D01*
X182633375Y-89546991D01*
X183233918Y-89546991D01*
X183834460Y-89546991D01*
X183834460Y-89250174D01*
X183834460Y-88953356D01*
X183531328Y-88953356D01*
X183228195Y-88953356D01*
X183228195Y-88643908D01*
X183228195Y-88334460D01*
X183531328Y-88334460D01*
X183834460Y-88334460D01*
X185665422Y-88334460D01*
X186271920Y-88334460D01*
X186878419Y-88334460D01*
X186878419Y-88637593D01*
X186878419Y-88940726D01*
X187175236Y-88940726D01*
X187472054Y-88940726D01*
X187472054Y-88637593D01*
X187472054Y-88334460D01*
X187775186Y-88334460D01*
X188078319Y-88334460D01*
X188078319Y-88037643D01*
X188078319Y-87740825D01*
X187775186Y-87740825D01*
X187472054Y-87740825D01*
X187472054Y-87134327D01*
X187472054Y-86527829D01*
X187178394Y-86531219D01*
X186884734Y-86534610D01*
X186881649Y-87133434D01*
X186880940Y-87253904D01*
X186880106Y-87366456D01*
X186879179Y-87468610D01*
X186878188Y-87557886D01*
X186877164Y-87631805D01*
X186876138Y-87687887D01*
X186875141Y-87723652D01*
X186874208Y-87736615D01*
X186861092Y-87737554D01*
X186825195Y-87738552D01*
X186768996Y-87739577D01*
X186694975Y-87740601D01*
X186605612Y-87741591D01*
X186503387Y-87742519D01*
X186390778Y-87743352D01*
X186271028Y-87744056D01*
X185672203Y-87747141D01*
X185668812Y-88040800D01*
X185665422Y-88334460D01*
X183834460Y-88334460D01*
X183834460Y-87734277D01*
X183834460Y-87728195D01*
X184452891Y-87728195D01*
X184749941Y-87728195D01*
X185046991Y-87728195D01*
X185046991Y-87431145D01*
X185046991Y-87134094D01*
X184753332Y-87137485D01*
X184459672Y-87140875D01*
X184456281Y-87434535D01*
X184452891Y-87728195D01*
X183834460Y-87728195D01*
X183834460Y-87134094D01*
X183540800Y-87137485D01*
X183247141Y-87140875D01*
X183243754Y-87440850D01*
X183240368Y-87740825D01*
X182931149Y-87740825D01*
X182621929Y-87740825D01*
X182621929Y-87128245D01*
X182621929Y-87121929D01*
X183847239Y-87121929D01*
X184143983Y-87121929D01*
X184440726Y-87121929D01*
X184440726Y-86521746D01*
X184440726Y-86515664D01*
X185059156Y-86515664D01*
X185356207Y-86515664D01*
X185653257Y-86515664D01*
X186271687Y-86515664D01*
X186568738Y-86515664D01*
X186865788Y-86515664D01*
X186865788Y-86218613D01*
X186865788Y-85921563D01*
X186572128Y-85924954D01*
X186278468Y-85928344D01*
X186275078Y-86222004D01*
X186271687Y-86515664D01*
X185653257Y-86515664D01*
X185653257Y-86218613D01*
X185653257Y-85921563D01*
X185359597Y-85924954D01*
X185065937Y-85928344D01*
X185062547Y-86222004D01*
X185059156Y-86515664D01*
X184440726Y-86515664D01*
X184440726Y-85921563D01*
X184147066Y-85924954D01*
X183853406Y-85928344D01*
X183850323Y-86525137D01*
X183847239Y-87121929D01*
X182621929Y-87121929D01*
X182621929Y-86515664D01*
X182925062Y-86515664D01*
X183228195Y-86515664D01*
X183228195Y-85909398D01*
X186877953Y-85909398D01*
X187478136Y-85909398D01*
X188078319Y-85909398D01*
X188078319Y-85612655D01*
X188078319Y-85315912D01*
X187481527Y-85318995D01*
X186884734Y-85322078D01*
X186881343Y-85615738D01*
X186877953Y-85909398D01*
X183228195Y-85909398D01*
X183228195Y-85303133D01*
X183531328Y-85303133D01*
X183834460Y-85303133D01*
X185059156Y-85303133D01*
X185659339Y-85303133D01*
X186259523Y-85303133D01*
X186259523Y-85006389D01*
X186259523Y-84709646D01*
X185662730Y-84712729D01*
X185065937Y-84715813D01*
X185062547Y-85009473D01*
X185059156Y-85303133D01*
X183834460Y-85303133D01*
X183834460Y-84696867D01*
X183834460Y-84090602D01*
X185350124Y-84090602D01*
X186865788Y-84090602D01*
X186865788Y-83490651D01*
X186865788Y-82890701D01*
X186562655Y-82890701D01*
X186259523Y-82890701D01*
X186259523Y-82586976D01*
X186259523Y-82283251D01*
X185959547Y-82284466D01*
X185850753Y-82284814D01*
X185726520Y-82285058D01*
X185596670Y-82285188D01*
X185471026Y-82285196D01*
X185359408Y-82285071D01*
X185353282Y-82285059D01*
X185046991Y-82284436D01*
X185046991Y-81671855D01*
X185046991Y-81059274D01*
X186568971Y-81059274D01*
X188090950Y-81059274D01*
X188090950Y-81368722D01*
X188090950Y-81678170D01*
X187790975Y-81678689D01*
X187681557Y-81678986D01*
X187556846Y-81679499D01*
X187426808Y-81680178D01*
X187301410Y-81680970D01*
X187190619Y-81681823D01*
X187187867Y-81681847D01*
X186884734Y-81684485D01*
X186881650Y-82281278D01*
X186878567Y-82878071D01*
X187181626Y-82878071D01*
X187484684Y-82878071D01*
X187484684Y-83181203D01*
X187484684Y-83484336D01*
X187781502Y-83484336D01*
X188078319Y-83484336D01*
X188078319Y-83181203D01*
X188078319Y-82878071D01*
X188387767Y-82878071D01*
X188697215Y-82878071D01*
X188697215Y-83187290D01*
X188697215Y-83496509D01*
X188397240Y-83499896D01*
X188097265Y-83503282D01*
X188093879Y-83803257D01*
X188090492Y-84103232D01*
X187790746Y-84103751D01*
X187681413Y-84104048D01*
X187556779Y-84104561D01*
X187426805Y-84105240D01*
X187301450Y-84106032D01*
X187190672Y-84106885D01*
X187187867Y-84106909D01*
X186884734Y-84109547D01*
X186881343Y-84403207D01*
X186877953Y-84696867D01*
X187484451Y-84696867D01*
X188090950Y-84696867D01*
X188090950Y-85000000D01*
X188090950Y-85303133D01*
X188394082Y-85303133D01*
X188697215Y-85303133D01*
X188697215Y-85612352D01*
X188697215Y-85921572D01*
X188397240Y-85924958D01*
X188097265Y-85928344D01*
X188094284Y-86828269D01*
X188091304Y-87728195D01*
X188394259Y-87728195D01*
X188697215Y-87728195D01*
X188697215Y-88031328D01*
X188697215Y-88334460D01*
X189000348Y-88334460D01*
X189303481Y-88334460D01*
X189304104Y-88640751D01*
X189304299Y-88786036D01*
X189304294Y-88925025D01*
X189304100Y-89055599D01*
X189303730Y-89175642D01*
X189303197Y-89283034D01*
X189302514Y-89375659D01*
X189301693Y-89451398D01*
X189300748Y-89508133D01*
X189299691Y-89543747D01*
X189298589Y-89556094D01*
X189285613Y-89556895D01*
X189249852Y-89557765D01*
X189193782Y-89558675D01*
X189119879Y-89559597D01*
X189030619Y-89560504D01*
X188928477Y-89561368D01*
X188815931Y-89562161D01*
X188696090Y-89562853D01*
X188097265Y-89565937D01*
X188093879Y-89865912D01*
X188090492Y-90165888D01*
X187790746Y-90166407D01*
X187681413Y-90166703D01*
X187556779Y-90167217D01*
X187426805Y-90167896D01*
X187301450Y-90168687D01*
X187190672Y-90169540D01*
X187187867Y-90169564D01*
X186884734Y-90172203D01*
X186881650Y-90768995D01*
X186878567Y-91365788D01*
X187175310Y-91365788D01*
X187472054Y-91365788D01*
X187472054Y-91062655D01*
X187472054Y-90759523D01*
X188078319Y-90759523D01*
X188684585Y-90759523D01*
X188684585Y-90456390D01*
X188684585Y-90153257D01*
X188994033Y-90153257D01*
X189303481Y-90153257D01*
X189303481Y-90462476D01*
X189303481Y-90771696D01*
X189003506Y-90775082D01*
X188703530Y-90778468D01*
X188700140Y-91072128D01*
X188696750Y-91365788D01*
X189000115Y-91365788D01*
X189303481Y-91365788D01*
X189303481Y-91675008D01*
X189303481Y-91984227D01*
X189003506Y-91987613D01*
X188703530Y-91990999D01*
X188700892Y-92294132D01*
X188700038Y-92404356D01*
X188699244Y-92529437D01*
X188698562Y-92659418D01*
X188698042Y-92784337D01*
X188697739Y-92894237D01*
X188697734Y-92897011D01*
X188697215Y-93196758D01*
X188397240Y-93200144D01*
X188097265Y-93203530D01*
X188093879Y-93503506D01*
X188090492Y-93803481D01*
X187781273Y-93803481D01*
X187472054Y-93803481D01*
X187472054Y-93500115D01*
X187472054Y-93196750D01*
X187178394Y-93200140D01*
X186884734Y-93203530D01*
X186881348Y-93503506D01*
X186877961Y-93803481D01*
X186581372Y-93803825D01*
X186475597Y-93803930D01*
X186353879Y-93804023D01*
X186225536Y-93804097D01*
X186099885Y-93804147D01*
X185986245Y-93804169D01*
X185969020Y-93804170D01*
X185857644Y-93804153D01*
X185732076Y-93804107D01*
X185601818Y-93804036D01*
X185476370Y-93803946D01*
X185365233Y-93803842D01*
X185350124Y-93803825D01*
X185046991Y-93803481D01*
X185046991Y-93500422D01*
X185046991Y-93197364D01*
X184450199Y-93200447D01*
X183853406Y-93203530D01*
X183850020Y-93503506D01*
X183846634Y-93803481D01*
X183537414Y-93803481D01*
X183228195Y-93803481D01*
X183228195Y-93500348D01*
X183228195Y-93197215D01*
X182925062Y-93197215D01*
X182621929Y-93197215D01*
X182621929Y-93184585D01*
X183240360Y-93184585D01*
X183537410Y-93184585D01*
X183834460Y-93184585D01*
X185059156Y-93184585D01*
X185356207Y-93184585D01*
X185653257Y-93184585D01*
X186271687Y-93184585D01*
X186568738Y-93184585D01*
X186865788Y-93184585D01*
X187484219Y-93184585D01*
X187781269Y-93184585D01*
X188078319Y-93184585D01*
X188078319Y-92887534D01*
X188078319Y-92590484D01*
X187784659Y-92593875D01*
X187490999Y-92597265D01*
X187487609Y-92890925D01*
X187484219Y-93184585D01*
X186865788Y-93184585D01*
X186865788Y-92887534D01*
X186865788Y-92590484D01*
X186572128Y-92593875D01*
X186278468Y-92597265D01*
X186275078Y-92890925D01*
X186271687Y-93184585D01*
X185653257Y-93184585D01*
X185653257Y-92887534D01*
X185653257Y-92590484D01*
X185359597Y-92593875D01*
X185065937Y-92597265D01*
X185062547Y-92890925D01*
X185059156Y-93184585D01*
X183834460Y-93184585D01*
X183834460Y-92887534D01*
X183834460Y-92590484D01*
X183540800Y-92593875D01*
X183247141Y-92597265D01*
X183243750Y-92890925D01*
X183240360Y-93184585D01*
X182621929Y-93184585D01*
X182621929Y-92590717D01*
X182621929Y-91984219D01*
X182328269Y-91987609D01*
X182034610Y-91990999D01*
X182031223Y-92290975D01*
X182027837Y-92590950D01*
X181728091Y-92591469D01*
X181618757Y-92591765D01*
X181494124Y-92592279D01*
X181364150Y-92592958D01*
X181238794Y-92593750D01*
X181128017Y-92594602D01*
X181125211Y-92594626D01*
X180822078Y-92597265D01*
X180818688Y-92890925D01*
X180815298Y-93184585D01*
X181421796Y-93184585D01*
X182028294Y-93184585D01*
X182028294Y-93494033D01*
X182028294Y-93803481D01*
X181738825Y-93803481D01*
X181655133Y-93803618D01*
X181579452Y-93804003D01*
X181515592Y-93804594D01*
X181467366Y-93805352D01*
X181438584Y-93806236D01*
X181432535Y-93806738D01*
X181415640Y-93807508D01*
X181377175Y-93807930D01*
X181320831Y-93808005D01*
X181250296Y-93807737D01*
X181169259Y-93807128D01*
X181109423Y-93806514D01*
X180803133Y-93803032D01*
X180803133Y-93499531D01*
X180803133Y-93196030D01*
X180503158Y-93197246D01*
X180394363Y-93197594D01*
X180270130Y-93197837D01*
X180140281Y-93197968D01*
X180014636Y-93197975D01*
X179903018Y-93197850D01*
X179896892Y-93197838D01*
X179590602Y-93197215D01*
X179590602Y-92887767D01*
X179590602Y-92578319D01*
X179893734Y-92578319D01*
X180196867Y-92578319D01*
X180196867Y-92275186D01*
X180196867Y-91972054D01*
X180803133Y-91972054D01*
X181409398Y-91972054D01*
X182634708Y-91972054D01*
X182931451Y-91972054D01*
X183228195Y-91972054D01*
X184452891Y-91972054D01*
X185659339Y-91972054D01*
X186865788Y-91972054D01*
X186865788Y-91675464D01*
X186865788Y-91378875D01*
X185662730Y-91381804D01*
X184459672Y-91384734D01*
X184456281Y-91678394D01*
X184452891Y-91972054D01*
X183228195Y-91972054D01*
X183228195Y-91668921D01*
X183228195Y-91365788D01*
X183531328Y-91365788D01*
X183834460Y-91365788D01*
X183834460Y-91069045D01*
X183834460Y-90772301D01*
X183237668Y-90775385D01*
X182640875Y-90778468D01*
X182637792Y-91375261D01*
X182634708Y-91972054D01*
X181409398Y-91972054D01*
X181409398Y-91668921D01*
X181409398Y-91365788D01*
X181712531Y-91365788D01*
X182015664Y-91365788D01*
X182015664Y-91068971D01*
X182015664Y-90772153D01*
X181712531Y-90772153D01*
X181409398Y-90772153D01*
X181409398Y-90759523D01*
X182028443Y-90759523D01*
X182325186Y-90759523D01*
X182621929Y-90759523D01*
X184453711Y-90759523D01*
X185356617Y-90759523D01*
X186259523Y-90759523D01*
X186259523Y-89856617D01*
X186259523Y-88953711D01*
X185359597Y-88956691D01*
X184459672Y-88959672D01*
X184456691Y-89859597D01*
X184453711Y-90759523D01*
X182621929Y-90759523D01*
X182621929Y-90159339D01*
X182621929Y-89559156D01*
X182328269Y-89562547D01*
X182034610Y-89565937D01*
X182031526Y-90162730D01*
X182028443Y-90759523D01*
X181409398Y-90759523D01*
X181409398Y-90469094D01*
X181409398Y-90166036D01*
X180812606Y-90169119D01*
X180215813Y-90172203D01*
X180212423Y-90465863D01*
X180209032Y-90759523D01*
X180512398Y-90759523D01*
X180815763Y-90759523D01*
X180815763Y-91068971D01*
X180815763Y-91378419D01*
X180506315Y-91378419D01*
X180196867Y-91378419D01*
X180196867Y-91075053D01*
X180196867Y-90771687D01*
X179903207Y-90775078D01*
X179609547Y-90778468D01*
X179606161Y-91078443D01*
X179602775Y-91378419D01*
X179303028Y-91378792D01*
X179226001Y-91378933D01*
X179128056Y-91379186D01*
X179013536Y-91379536D01*
X178886785Y-91379966D01*
X178752146Y-91380462D01*
X178613961Y-91381009D01*
X178476575Y-91381592D01*
X178397016Y-91381949D01*
X177790751Y-91384734D01*
X177787365Y-91684481D01*
X177783979Y-91984228D01*
X177484232Y-91987614D01*
X177184485Y-91990999D01*
X177181099Y-92290975D01*
X177177713Y-92590950D01*
X176868493Y-92590950D01*
X176559274Y-92590950D01*
X176559274Y-91372103D01*
X176559274Y-90759523D01*
X177783970Y-90759523D01*
X178081020Y-90759523D01*
X178378071Y-90759523D01*
X178378071Y-90462472D01*
X178378071Y-90165422D01*
X178084411Y-90168812D01*
X177790751Y-90172203D01*
X177787360Y-90465863D01*
X177783970Y-90759523D01*
X176559274Y-90759523D01*
X176559274Y-90153257D01*
X176862407Y-90153257D01*
X177165539Y-90153257D01*
X178996501Y-90153257D01*
X179293551Y-90153257D01*
X179590602Y-90153257D01*
X179590602Y-89856207D01*
X179590602Y-89559156D01*
X179296942Y-89562547D01*
X179003282Y-89565937D01*
X178999891Y-89859597D01*
X178996501Y-90153257D01*
X177165539Y-90153257D01*
X177165539Y-89856439D01*
X177165539Y-89559622D01*
X176862407Y-89559622D01*
X176559274Y-89559622D01*
X176559274Y-89546991D01*
X177783970Y-89546991D01*
X178384153Y-89546991D01*
X178984336Y-89546991D01*
X178984336Y-89250248D01*
X178984336Y-88953505D01*
X178387543Y-88956588D01*
X177790751Y-88959672D01*
X177787360Y-89253332D01*
X177783970Y-89546991D01*
X176559274Y-89546991D01*
X176559274Y-89256522D01*
X176559274Y-88953422D01*
X175653033Y-88953744D01*
X175493972Y-88953793D01*
X175334753Y-88953830D01*
X175178377Y-88953855D01*
X175027849Y-88953866D01*
X174886171Y-88953865D01*
X174756345Y-88953852D01*
X174641376Y-88953826D01*
X174544265Y-88953789D01*
X174468016Y-88953738D01*
X174440502Y-88953711D01*
X174134212Y-88953356D01*
X174134212Y-88940726D01*
X176571439Y-88940726D01*
X176868489Y-88940726D01*
X177165539Y-88940726D01*
X177165539Y-88643676D01*
X177165539Y-88346625D01*
X176871880Y-88350016D01*
X176578220Y-88353406D01*
X176574829Y-88647066D01*
X176571439Y-88940726D01*
X174134212Y-88940726D01*
X174134212Y-88643908D01*
X174134212Y-88334460D01*
X175346743Y-88334460D01*
X176559274Y-88334460D01*
X177177704Y-88334460D01*
X177474755Y-88334460D01*
X177771805Y-88334460D01*
X177771805Y-88037410D01*
X177771805Y-87740360D01*
X177478145Y-87743750D01*
X177184485Y-87747141D01*
X177181095Y-88040800D01*
X177177704Y-88334460D01*
X176559274Y-88334460D01*
X176559274Y-88031328D01*
X176559274Y-87728195D01*
X176862407Y-87728195D01*
X177165539Y-87728195D01*
X177783970Y-87728195D01*
X178384153Y-87728195D01*
X178984336Y-87728195D01*
X178984336Y-87431451D01*
X178984336Y-87134708D01*
X178387543Y-87137792D01*
X177790751Y-87140875D01*
X177787360Y-87434535D01*
X177783970Y-87728195D01*
X177165539Y-87728195D01*
X177165539Y-87431451D01*
X177165539Y-87134708D01*
X176568747Y-87137792D01*
X175971954Y-87140875D01*
X175968568Y-87440850D01*
X175965182Y-87740825D01*
X175655962Y-87740825D01*
X175346743Y-87740825D01*
X175346743Y-87437460D01*
X175346743Y-87134094D01*
X175053083Y-87137485D01*
X174759423Y-87140875D01*
X174756038Y-87440414D01*
X174752653Y-87739953D01*
X174446590Y-87743547D01*
X174335568Y-87744489D01*
X174209293Y-87744967D01*
X174077766Y-87744979D01*
X173950991Y-87744526D01*
X173838971Y-87743608D01*
X173834237Y-87743553D01*
X173527946Y-87739965D01*
X173527946Y-87437337D01*
X173527946Y-87134708D01*
X172931154Y-87137792D01*
X172334361Y-87140875D01*
X172331576Y-87747141D01*
X172330979Y-87882004D01*
X172330409Y-88020258D01*
X172329881Y-88157559D01*
X172329410Y-88289561D01*
X172329010Y-88411920D01*
X172328698Y-88520290D01*
X172328489Y-88610327D01*
X172328419Y-88653381D01*
X172328046Y-88953356D01*
X172018598Y-88953356D01*
X171709150Y-88953356D01*
X171709150Y-87121929D01*
X173540725Y-87121929D01*
X173837468Y-87121929D01*
X174134212Y-87121929D01*
X175358908Y-87121929D01*
X175655958Y-87121929D01*
X175953008Y-87121929D01*
X175953008Y-86824879D01*
X175953008Y-86527829D01*
X175659348Y-86531219D01*
X175365689Y-86534610D01*
X175362298Y-86828269D01*
X175358908Y-87121929D01*
X174134212Y-87121929D01*
X174134212Y-86818797D01*
X174134212Y-86515664D01*
X174740477Y-86515664D01*
X175346743Y-86515664D01*
X175965173Y-86515664D01*
X176262224Y-86515664D01*
X176559274Y-86515664D01*
X176559274Y-86218613D01*
X176559274Y-85921563D01*
X176265614Y-85924954D01*
X175971954Y-85928344D01*
X175968564Y-86222004D01*
X175965173Y-86515664D01*
X175346743Y-86515664D01*
X175346743Y-86219023D01*
X175346743Y-85922383D01*
X174446817Y-85925363D01*
X173546892Y-85928344D01*
X173543809Y-86525137D01*
X173540725Y-87121929D01*
X171709150Y-87121929D01*
X171709150Y-86825112D01*
X171709150Y-85909398D01*
X175358908Y-85909398D01*
X175655958Y-85909398D01*
X175953008Y-85909398D01*
X175953008Y-85612348D01*
X175953008Y-85315298D01*
X175659348Y-85318688D01*
X175365689Y-85322078D01*
X175362298Y-85615738D01*
X175358908Y-85909398D01*
X171709150Y-85909398D01*
X171709150Y-84696867D01*
X172315415Y-84696867D01*
X172921681Y-84696867D01*
X172921681Y-84090602D01*
X172921681Y-83484336D01*
X173230699Y-83484336D01*
X173539717Y-83484336D01*
X173543304Y-83790626D01*
X173544245Y-83901708D01*
X173544719Y-84028013D01*
X173544729Y-84159540D01*
X173544273Y-84286287D01*
X173543353Y-84398249D01*
X173543298Y-84402980D01*
X173539704Y-84709043D01*
X173240165Y-84712428D01*
X172940626Y-84715813D01*
X172937236Y-85009473D01*
X172933846Y-85303133D01*
X173534029Y-85303133D01*
X174134212Y-85303133D01*
X174134212Y-84696867D01*
X175358908Y-84696867D01*
X175655958Y-84696867D01*
X175953008Y-84696867D01*
X175953008Y-84399817D01*
X175953008Y-84102767D01*
X175659348Y-84106157D01*
X175365689Y-84109547D01*
X175362298Y-84403207D01*
X175358908Y-84696867D01*
X174134212Y-84696867D01*
X174134212Y-84090602D01*
X174437345Y-84090602D01*
X174740477Y-84090602D01*
X174740477Y-83793784D01*
X174740477Y-83496967D01*
X174437345Y-83496967D01*
X174134212Y-83496967D01*
X174134212Y-82884386D01*
X174134212Y-82271805D01*
X175043610Y-82271805D01*
X175953008Y-82271805D01*
X175953008Y-81975246D01*
X175953008Y-81678687D01*
X174446817Y-81681586D01*
X172940626Y-81684485D01*
X172937988Y-81987618D01*
X172937134Y-82097866D01*
X172936340Y-82222995D01*
X172935657Y-82353038D01*
X172935138Y-82478029D01*
X172934835Y-82588002D01*
X172934830Y-82590726D01*
X172934311Y-82890701D01*
X172624863Y-82890701D01*
X172315415Y-82890701D01*
X172315415Y-82284436D01*
X172315415Y-81678170D01*
X172012282Y-81678170D01*
X171709150Y-81678170D01*
X171709150Y-81368722D01*
X171709150Y-81059274D01*
X172018598Y-81059274D01*
X172328046Y-81059274D01*
X172328046Y-81362407D01*
X172328046Y-81665539D01*
X172624863Y-81665539D01*
X172921681Y-81665539D01*
X172921681Y-81362407D01*
X172921681Y-81059274D01*
X174443660Y-81059274D01*
X175965639Y-81059274D01*
X175965639Y-81362407D01*
X175965639Y-81665539D01*
X176268772Y-81665539D01*
X176571904Y-81665539D01*
X176571904Y-81974759D01*
X176571904Y-82283978D01*
X176271929Y-82287365D01*
X175971954Y-82290751D01*
X175968568Y-82590498D01*
X175965183Y-82890245D01*
X175665436Y-82893631D01*
X175365689Y-82897016D01*
X175362298Y-83190676D01*
X175358908Y-83484336D01*
X176268539Y-83484336D01*
X177178170Y-83484336D01*
X177178793Y-83790626D01*
X177178926Y-83901073D01*
X177178927Y-84026144D01*
X177178803Y-84156019D01*
X177178566Y-84280875D01*
X177178225Y-84390890D01*
X177178201Y-84396892D01*
X177176985Y-84696867D01*
X177474395Y-84696867D01*
X177771805Y-84696867D01*
X177771805Y-84393734D01*
X177771805Y-84090602D01*
X178074938Y-84090602D01*
X178378071Y-84090602D01*
X178378071Y-83793784D01*
X178378071Y-83496967D01*
X178074938Y-83496967D01*
X177771805Y-83496967D01*
X177771805Y-83187519D01*
X177771805Y-82878071D01*
X178081253Y-82878071D01*
X178390701Y-82878071D01*
X178390701Y-83181203D01*
X178390701Y-83484336D01*
X178693834Y-83484336D01*
X178996967Y-83484336D01*
X178996967Y-83793555D01*
X178996967Y-84102775D01*
X178696991Y-84106161D01*
X178397016Y-84109547D01*
X178393933Y-84706340D01*
X178390849Y-85303133D01*
X178693908Y-85303133D01*
X178996967Y-85303133D01*
X178996967Y-85612581D01*
X178996967Y-85922029D01*
X178687519Y-85922029D01*
X178378071Y-85922029D01*
X178378071Y-85618663D01*
X178378071Y-85315298D01*
X178084411Y-85318688D01*
X177790751Y-85322078D01*
X177787365Y-85621826D01*
X177783979Y-85921573D01*
X177484232Y-85924958D01*
X177184485Y-85928344D01*
X177181402Y-86525137D01*
X177178318Y-87121929D01*
X177475062Y-87121929D01*
X177771805Y-87121929D01*
X177771805Y-86818797D01*
X177771805Y-86515664D01*
X178687519Y-86515664D01*
X179603232Y-86515664D01*
X179603587Y-86821954D01*
X179603642Y-86887478D01*
X179603686Y-86975261D01*
X179603717Y-87082298D01*
X179603736Y-87205588D01*
X179603743Y-87342128D01*
X179603737Y-87488914D01*
X179603719Y-87642943D01*
X179603688Y-87801214D01*
X179603644Y-87960722D01*
X179603619Y-88034485D01*
X179603298Y-88940726D01*
X180209530Y-88940726D01*
X180815763Y-88940726D01*
X180815763Y-89243859D01*
X180815763Y-89546991D01*
X181112581Y-89546991D01*
X181409398Y-89546991D01*
X181409398Y-89243859D01*
X181409398Y-88940726D01*
X181712531Y-88940726D01*
X182015664Y-88940726D01*
X182015664Y-88643774D01*
X182015664Y-88346823D01*
X181412556Y-88347387D01*
X181277634Y-88347497D01*
X181138994Y-88347580D01*
X181001053Y-88347635D01*
X180868227Y-88347663D01*
X180744931Y-88347661D01*
X180635581Y-88347630D01*
X180544594Y-88347569D01*
X180503158Y-88347521D01*
X180196867Y-88347091D01*
X180196867Y-88037643D01*
X180196867Y-87728195D01*
X180500000Y-87728195D01*
X180803133Y-87728195D01*
X180803133Y-87425062D01*
X180803133Y-87121929D01*
X181106265Y-87121929D01*
X181409398Y-87121929D01*
X181409398Y-86824519D01*
X181409398Y-86527109D01*
X181109423Y-86528325D01*
X181000629Y-86528673D01*
X180876396Y-86528916D01*
X180746546Y-86529047D01*
X180620901Y-86529054D01*
X180509284Y-86528929D01*
X180503158Y-86528917D01*
X180196867Y-86528294D01*
X180196867Y-86225162D01*
X180196867Y-85922029D01*
X179893734Y-85922029D01*
X179590602Y-85922029D01*
X179590602Y-85909398D01*
X180209032Y-85909398D01*
X180506082Y-85909398D01*
X180803133Y-85909398D01*
X180803133Y-85612348D01*
X180803133Y-85315298D01*
X180509473Y-85318688D01*
X180215813Y-85322078D01*
X180212423Y-85615738D01*
X180209032Y-85909398D01*
X179590602Y-85909398D01*
X179590602Y-85303133D01*
X181421563Y-85303133D01*
X181718613Y-85303133D01*
X182015664Y-85303133D01*
X182015664Y-85006082D01*
X182015664Y-84709032D01*
X181722004Y-84712423D01*
X181428344Y-84715813D01*
X181424954Y-85009473D01*
X181421563Y-85303133D01*
X179590602Y-85303133D01*
X179590602Y-85006315D01*
X179590602Y-84696867D01*
X180815298Y-84696867D01*
X181112348Y-84696867D01*
X181409398Y-84696867D01*
X181409398Y-84399817D01*
X181409398Y-84102767D01*
X181115738Y-84106157D01*
X180822078Y-84109547D01*
X180818688Y-84403207D01*
X180815298Y-84696867D01*
X179590602Y-84696867D01*
X179590602Y-84090602D01*
X180196867Y-84090602D01*
X180803133Y-84090602D01*
X181421563Y-84090602D01*
X181718613Y-84090602D01*
X182015664Y-84090602D01*
X182015664Y-83793551D01*
X182015664Y-83496501D01*
X181722004Y-83499891D01*
X181428344Y-83503282D01*
X181424954Y-83796942D01*
X181421563Y-84090602D01*
X180803133Y-84090602D01*
X180803133Y-83793784D01*
X180803133Y-83496967D01*
X180500000Y-83496967D01*
X180196867Y-83496967D01*
X180196867Y-83484336D01*
X182028443Y-83484336D01*
X182325186Y-83484336D01*
X182621929Y-83484336D01*
X182621929Y-82884153D01*
X182621929Y-82283970D01*
X182328269Y-82287360D01*
X182034610Y-82290751D01*
X182031526Y-82887543D01*
X182028443Y-83484336D01*
X180196867Y-83484336D01*
X180196867Y-83187519D01*
X180196867Y-82878071D01*
X180500000Y-82878071D01*
X180803133Y-82878071D01*
X180803133Y-82574938D01*
X180803133Y-82271805D01*
X181106265Y-82271805D01*
X181409398Y-82271805D01*
X182634708Y-82271805D01*
X182931451Y-82271805D01*
X183228195Y-82271805D01*
X183228195Y-81671622D01*
X183228195Y-81071439D01*
X182934535Y-81074829D01*
X182640875Y-81078220D01*
X182637792Y-81675012D01*
X182634708Y-82271805D01*
X181409398Y-82271805D01*
X181409398Y-81974395D01*
X181409398Y-81676985D01*
X181109423Y-81678201D01*
X181000629Y-81678548D01*
X180876396Y-81678792D01*
X180746546Y-81678923D01*
X180620901Y-81678930D01*
X180509284Y-81678805D01*
X180503158Y-81678793D01*
X180196867Y-81678170D01*
X180196867Y-81375037D01*
X180196867Y-81071904D01*
X179893734Y-81071904D01*
X179590602Y-81071904D01*
X179590602Y-80768772D01*
X179590602Y-80465639D01*
X179287469Y-80465639D01*
X178984336Y-80465639D01*
X178984336Y-80453008D01*
X179602767Y-80453008D01*
X179899817Y-80453008D01*
X180196867Y-80453008D01*
X180196867Y-80155958D01*
X180196867Y-79858908D01*
X179903207Y-79862298D01*
X179609547Y-79865689D01*
X179606157Y-80159348D01*
X179602767Y-80453008D01*
X178984336Y-80453008D01*
X178984336Y-80162273D01*
X178984336Y-79858908D01*
X178690676Y-79862298D01*
X178397016Y-79865689D01*
X178393933Y-80462481D01*
X178390849Y-81059274D01*
X178693908Y-81059274D01*
X178996967Y-81059274D01*
X178996967Y-81362407D01*
X178996967Y-81665539D01*
X179300099Y-81665539D01*
X179603232Y-81665539D01*
X179603232Y-81974987D01*
X179603232Y-82284436D01*
X179293784Y-82284436D01*
X178984336Y-82284436D01*
X178984336Y-81981070D01*
X178984336Y-81677704D01*
X178690676Y-81681095D01*
X178397016Y-81684485D01*
X178393630Y-81984460D01*
X178390244Y-82284436D01*
X178081024Y-82284436D01*
X177771805Y-82284436D01*
X177771805Y-81065589D01*
X177771805Y-79846743D01*
X178074938Y-79846743D01*
X178378071Y-79846743D01*
X178378071Y-78634212D01*
X178378071Y-77421681D01*
X178990651Y-77421681D01*
X179603232Y-77421681D01*
X179603232Y-77730900D01*
G37*
%TO.C,J6*%
X199750000Y-71925000D02*
X197750000Y-71925000D01*
X197750000Y-71925000D02*
X197750000Y-76525000D01*
X199750000Y-76525000D02*
X199750000Y-71925000D01*
X197750000Y-76525000D02*
X199750000Y-76525000D01*
%TO.C,J5*%
X163250000Y-71925000D02*
X161250000Y-71925000D01*
X161250000Y-71925000D02*
X161250000Y-76525000D01*
X163250000Y-76525000D02*
X163250000Y-71925000D01*
X161250000Y-76525000D02*
X163250000Y-76525000D01*
%TD*%
M02*
