M48
; DRILL file {KiCad 7.0.10} date Tue Mar 18 18:42:49 2025
; FORMAT={-:-/ absolute / inch / decimal}
; #@! TF.CreationDate,2025-03-18T18:42:49+01:00
; #@! TF.GenerationSoftware,Kicad,Pcbnew,7.0.10
; #@! TF.FileFunction,Plated,1,2,PTH
FMAT,2
INCH
; #@! TA.AperFunction,Plated,PTH,ViaDrill
T1C0.0118
; #@! TA.AperFunction,Plated,PTH,ComponentDrill
T2C0.0394
; #@! TA.AperFunction,Plated,PTH,ComponentDrill
T3C0.0402
; #@! TA.AperFunction,Plated,PTH,ComponentDrill
T4C0.0433
%
G90
G05
T1
X6.3681Y-3.1496
X6.3681Y-3.1791
X6.3681Y-3.2087
X6.3681Y-3.2382
X6.3681Y-3.2677
X6.3681Y-3.2972
X6.3681Y-3.3268
X6.3681Y-3.3563
X6.372Y-4.2504
X6.374Y-4.9724
X6.3878Y-5.2362
X6.3976Y-3.1496
X6.3976Y-3.1791
X6.3976Y-3.2087
X6.3976Y-3.2382
X6.3976Y-3.2677
X6.3976Y-3.2972
X6.3976Y-3.3268
X6.3976Y-3.3563
X6.4016Y-3.5906
X6.4016Y-3.622
X6.4173Y-5.2362
X6.4173Y-5.5118
X6.4211Y-5.6226
X6.4331Y-3.5591
X6.4331Y-3.5906
X6.4331Y-3.622
X6.437Y-4.0354
X6.437Y-4.065
X6.437Y-4.0945
X6.437Y-4.124
X6.4685Y-4.0354
X6.4685Y-4.065
X6.4685Y-4.0945
X6.4685Y-4.124
X6.4823Y-4.4331
X6.5Y-4.9409
X6.513Y-3.5134
X6.5157Y-5.5591
X6.5295Y-5.126
X6.5354Y-4.4252
X6.5433Y-4.874
X6.5454Y-4.4551
X6.5492Y-5.4154
X6.5512Y-4.7559
X6.5531Y-4.6339
X6.5565Y-3.0256
X6.5591Y-5.126
X6.5591Y-5.2283
X6.5807Y-3.5807
X6.5807Y-4.4252
X6.5827Y-4.6339
X6.5906Y-5.2283
X6.6028Y-4.8091
X6.6102Y-3.6732
X6.6255Y-4.8366
X6.6319Y-4.9173
X6.6465Y-3.0441
X6.6535Y-2.9685
X6.6614Y-5.626
X6.6673Y-4.9587
X6.6713Y-5.126
X6.6745Y-3.0295
X6.6929Y-4.4783
X6.6929Y-4.5669
X6.6929Y-4.6555
X6.6929Y-4.7441
X6.6969Y-2.6791
X6.6969Y-2.7067
X6.7008Y-5.0157
X6.7008Y-5.126
X6.7124Y-3.0324
X6.7126Y-3.8287
X6.7264Y-2.6791
X6.7264Y-2.7067
X6.7382Y-5.1732
X6.7468Y-5.4469
X6.75Y-2.8504
X6.75Y-2.9606
X6.7559Y-2.6791
X6.7559Y-2.7067
X6.7697Y-5.2323
X6.7717Y-5.2874
X6.7756Y-3.3031
X6.7795Y-2.8504
X6.7795Y-2.9606
X6.7854Y-2.6791
X6.7854Y-2.7067
X6.8091Y-2.8504
X6.8091Y-2.9606
X6.815Y-2.6791
X6.815Y-2.7067
X6.8287Y-4.9803
X6.8295Y-5.4104
X6.8307Y-4.4331
X6.8362Y-5.5331
X6.8386Y-2.8504
X6.8386Y-2.9606
X6.8445Y-2.6791
X6.8445Y-2.7067
X6.8543Y-4.4094
X6.8622Y-3.8386
X6.874Y-2.6791
X6.874Y-2.7067
X6.878Y-3.3268
X6.878Y-4.3858
X6.8863Y-4.5517
X6.8976Y-3.3898
X6.9035Y-2.6791
X6.9035Y-2.7067
X6.9094Y-4.3543
X6.9134Y-4.5256
X6.9134Y-5.4567
X6.9134Y-5.4862
X6.9252Y-3.3898
X6.9331Y-2.6791
X6.9331Y-2.7067
X6.9332Y-4.7069
X6.9528Y-3.6024
X6.9528Y-3.6417
X6.9528Y-3.6811
X6.9528Y-4.5394
X6.9606Y-5.2441
X6.9626Y-2.6791
X6.9626Y-2.7067
X6.9644Y-5.6971
X6.9685Y-4.7008
X6.9687Y-5.5748
X6.9823Y-4.5854
X6.9866Y-5.7244
X6.9892Y-4.1726
X6.9921Y-2.6791
X6.9921Y-2.7067
X6.9941Y-4.7815
X6.9961Y-4.2402
X7.0023Y-4.5653
X7.0052Y-4.6673
X7.0079Y-3.7402
X7.0079Y-4.3957
X7.0079Y-4.435
X7.0098Y-4.6985
X7.0105Y-4.4675
X7.0118Y-5.5707
X7.0354Y-3.0787
X7.0354Y-3.1654
X7.0453Y-4.4712
X7.0551Y-5.3248
X7.0591Y-4.0276
X7.063Y-3.0787
X7.063Y-3.1654
X7.063Y-5.6693
X7.0672Y-4.0785
X7.0709Y-5.0157
X7.0768Y-5.1258
X7.0906Y-3.0787
X7.0906Y-3.1654
X7.0945Y-4.752
X7.0945Y-4.5253
X7.0984Y-4.4724
X7.1022Y-3.9068
X7.1083Y-5.6831
X7.1161Y-3.5236
X7.1161Y-3.5551
X7.1181Y-3.0787
X7.1181Y-3.1654
X7.1201Y-5.1823
X7.1201Y-4.5032
X7.122Y-3.2874
X7.124Y-4.752
X7.124Y-5.5354
X7.126Y-4.4488
X7.1306Y-4.6227
X7.1383Y-3.906
X7.1457Y-3.1654
X7.1457Y-3.5236
X7.1457Y-3.5551
X7.1522Y-4.1541
X7.1594Y-4.0197
X7.1693Y-4.185
X7.1752Y-3.5236
X7.1752Y-3.5551
X7.1811Y-4.1417
X7.1811Y-5.5707
X7.1811Y-5.7126
X7.1811Y-4.5039
X7.185Y-5.6614
X7.1929Y-4.9567
X7.1979Y-5.2924
X7.2122Y-4.7782
X7.2146Y-3.9134
X7.2205Y-5.4921
X7.2238Y-5.7127
X7.2264Y-5.191
X7.2402Y-4.0787
X7.2441Y-4.1555
X7.2446Y-5.6386
X7.2579Y-4.9606
X7.2638Y-3.8386
X7.2736Y-5.5276
X7.2795Y-4.2087
X7.2933Y-3.4547
X7.2933Y-3.4843
X7.2933Y-3.5236
X7.2933Y-3.5531
X7.2933Y-4.9606
X7.2972Y-3.7894
X7.2992Y-5.0492
X7.3016Y-3.7308
X7.3228Y-3.4547
X7.3228Y-3.4843
X7.3228Y-3.5236
X7.3228Y-3.5531
X7.3228Y-4.7087
X7.3228Y-4.9606
X7.3268Y-4.7874
X7.3386Y-3.622
X7.3386Y-3.6909
X7.3386Y-3.7904
X7.3392Y-4.7585
X7.3443Y-4.4803
X7.3443Y-4.4213
X7.3465Y-4.3425
X7.3504Y-4.252
X7.3524Y-3.4547
X7.3524Y-3.4843
X7.3524Y-3.5236
X7.3524Y-3.5531
X7.3543Y-4.7018
X7.3736Y-4.3665
X7.378Y-3.7106
X7.3819Y-4.9606
X7.3937Y-5.4882
X7.3957Y-4.3917
X7.4094Y-5.2175
X7.4114Y-4.9606
X7.4154Y-4.7874
X7.4411Y-4.7622
X7.4626Y-4.2854
X7.4724Y-4.4803
X7.4818Y-4.5945
X7.5049Y-3.5974
X7.5118Y-4.3209
X7.5226Y-5.4035
X7.5256Y-5.3445
X7.5256Y-5.2165
X7.5295Y-4.9409
X7.5354Y-4.7953
X7.5492Y-4.9823
X7.5492Y-5.128
X7.5512Y-5.2165
X7.5551Y-5.7697
X7.5846Y-5.7697
X7.5886Y-3.1496
X7.5886Y-3.1791
X7.5945Y-4.3715
X7.5945Y-4.5486
X7.5945Y-4.7258
X7.6142Y-5.7697
X7.6181Y-3.1496
X7.6181Y-3.1791
X7.626Y-4.4778
X7.626Y-4.6648
X7.626Y-4.8222
X7.6476Y-3.1496
X7.6476Y-3.1791
X7.6535Y-5.065
X7.6772Y-3.1496
X7.6772Y-3.1791
X7.6909Y-5.1713
X7.7067Y-3.1496
X7.7124Y-4.6847
X7.7128Y-4.5071
X7.713Y-4.331
X7.7638Y-4.7504
X7.7661Y-4.8222
X7.7756Y-4.9508
X7.7756Y-4.9803
X7.7756Y-5.0098
X7.8031Y-4.8917
X7.8031Y-4.9213
X7.8031Y-4.9508
X7.8031Y-4.9803
X7.8031Y-5.0098
X7.8307Y-4.8917
X7.8307Y-4.9213
X7.8307Y-4.9508
X7.8307Y-4.9803
X7.8307Y-5.0098
T2
X6.3976Y-4.3035
X6.3976Y-4.4035
X6.3976Y-4.5035
X6.3976Y-4.6035
X6.3976Y-4.7035
X6.3976Y-4.8035
X7.6431Y-4.8858
X7.7431Y-4.8858
T3
X6.3878Y-2.8711
X6.3878Y-2.9711
X6.3976Y-4.9035
X6.7063Y-4.885
X6.8063Y-4.885
X6.9063Y-4.885
X7.0063Y-4.885
X7.1063Y-4.885
X7.2063Y-4.885
X7.3063Y-4.885
X7.4063Y-4.885
X7.5063Y-4.885
X7.8248Y-2.8711
X7.8248Y-2.9711
T4
X7.7264Y-3.0787
X7.7264Y-3.2165
X7.7264Y-3.3543
X7.7264Y-3.4921
X7.7264Y-3.6299
X7.7264Y-3.7677
X7.7264Y-3.9055
X7.7264Y-4.0433
X7.7264Y-4.1811
M30
