%TF.GenerationSoftware,KiCad,Pcbnew,7.0.10*%
%TF.CreationDate,2024-01-23T14:05:24+01:00*%
%TF.ProjectId,AxxSolder,41787853-6f6c-4646-9572-2e6b69636164,rev?*%
%TF.SameCoordinates,Original*%
%TF.FileFunction,Soldermask,Bot*%
%TF.FilePolarity,Negative*%
%FSLAX46Y46*%
G04 Gerber Fmt 4.6, Leading zero omitted, Abs format (unit mm)*
G04 Created by KiCad (PCBNEW 7.0.10) date 2024-01-23 14:05:24*
%MOMM*%
%LPD*%
G01*
G04 APERTURE LIST*
G04 Aperture macros list*
%AMRoundRect*
0 Rectangle with rounded corners*
0 $1 Rounding radius*
0 $2 $3 $4 $5 $6 $7 $8 $9 X,Y pos of 4 corners*
0 Add a 4 corners polygon primitive as box body*
4,1,4,$2,$3,$4,$5,$6,$7,$8,$9,$2,$3,0*
0 Add four circle primitives for the rounded corners*
1,1,$1+$1,$2,$3*
1,1,$1+$1,$4,$5*
1,1,$1+$1,$6,$7*
1,1,$1+$1,$8,$9*
0 Add four rect primitives between the rounded corners*
20,1,$1+$1,$2,$3,$4,$5,0*
20,1,$1+$1,$4,$5,$6,$7,0*
20,1,$1+$1,$6,$7,$8,$9,0*
20,1,$1+$1,$8,$9,$2,$3,0*%
G04 Aperture macros list end*
%ADD10C,0.150000*%
%ADD11C,0.200000*%
%ADD12C,1.300000*%
%ADD13C,2.050000*%
%ADD14O,1.550000X2.300000*%
%ADD15C,1.100000*%
%ADD16C,1.500000*%
%ADD17C,1.700000*%
%ADD18C,2.500000*%
%ADD19C,1.550000*%
%ADD20RoundRect,0.225000X0.225000X0.250000X-0.225000X0.250000X-0.225000X-0.250000X0.225000X-0.250000X0*%
%ADD21R,0.400000X0.550000*%
%ADD22R,0.400000X0.410000*%
%ADD23R,2.750000X1.470000*%
%ADD24R,2.750000X0.250000*%
%ADD25C,1.000000*%
%ADD26R,1.650000X1.650000*%
%ADD27C,1.650000*%
%ADD28R,1.050000X0.600000*%
%ADD29RoundRect,0.200000X-0.200000X-0.275000X0.200000X-0.275000X0.200000X0.275000X-0.200000X0.275000X0*%
%ADD30R,0.600000X1.250000*%
%ADD31R,0.300000X1.475000*%
%ADD32R,1.475000X0.300000*%
%ADD33RoundRect,0.200000X0.275000X-0.200000X0.275000X0.200000X-0.275000X0.200000X-0.275000X-0.200000X0*%
%ADD34RoundRect,0.225000X-0.250000X0.225000X-0.250000X-0.225000X0.250000X-0.225000X0.250000X0.225000X0*%
%ADD35C,2.000000*%
%ADD36RoundRect,0.200000X0.200000X0.275000X-0.200000X0.275000X-0.200000X-0.275000X0.200000X-0.275000X0*%
%ADD37RoundRect,0.225000X-0.225000X-0.250000X0.225000X-0.250000X0.225000X0.250000X-0.225000X0.250000X0*%
%ADD38RoundRect,0.225000X0.250000X-0.225000X0.250000X0.225000X-0.250000X0.225000X-0.250000X-0.225000X0*%
%ADD39R,1.700000X1.700000*%
%ADD40O,1.700000X1.700000*%
%ADD41RoundRect,0.200000X-0.275000X0.200000X-0.275000X-0.200000X0.275000X-0.200000X0.275000X0.200000X0*%
%ADD42R,1.200000X1.200000*%
%ADD43R,2.500000X3.000000*%
%ADD44RoundRect,0.250000X0.325000X0.650000X-0.325000X0.650000X-0.325000X-0.650000X0.325000X-0.650000X0*%
%ADD45R,0.475000X0.300000*%
%ADD46R,1.120000X1.220000*%
%ADD47R,0.500000X0.925000*%
%ADD48R,0.600000X0.800000*%
%ADD49R,4.410000X3.655000*%
%ADD50R,0.700000X0.300000*%
%ADD51R,1.000000X1.700000*%
%ADD52R,1.050000X0.500000*%
%ADD53R,1.900000X3.450000*%
%ADD54C,0.650000*%
%ADD55R,0.300000X1.150000*%
%ADD56R,2.180000X2.000000*%
%ADD57R,1.220000X1.120000*%
%ADD58RoundRect,0.250000X-0.625000X0.312500X-0.625000X-0.312500X0.625000X-0.312500X0.625000X0.312500X0*%
%ADD59R,0.300000X0.800000*%
%ADD60R,0.800000X0.300000*%
%ADD61R,2.700000X2.700000*%
%ADD62R,0.750000X0.400000*%
%ADD63R,0.400000X0.530000*%
%ADD64R,2.400000X2.450000*%
%ADD65R,0.300000X0.750000*%
%ADD66R,1.730000X1.850000*%
%ADD67R,1.425000X0.450000*%
%ADD68R,1.680000X1.880000*%
%ADD69R,4.240000X3.810000*%
%ADD70R,1.650000X0.950000*%
%ADD71R,1.650000X3.250000*%
%ADD72R,0.600000X1.050000*%
%ADD73R,2.500000X2.400000*%
%ADD74R,3.200000X2.850000*%
G04 APERTURE END LIST*
D10*
X172056790Y-109552970D02*
G75*
G03*
X172018692Y-109000256I-176990J265470D01*
G01*
X172616904Y-109575359D02*
G75*
G03*
X172638131Y-110137664I183096J-274641D01*
G01*
X171446701Y-109562836D02*
G75*
G03*
X171467975Y-110125212I183099J-274664D01*
G01*
X171456790Y-109552970D02*
G75*
G03*
X171418692Y-109000256I-176990J265470D01*
G01*
X172046701Y-109562836D02*
G75*
G03*
X172067975Y-110125212I183099J-274664D01*
G01*
X172626995Y-109565496D02*
G75*
G03*
X172588848Y-109012708I-176995J265496D01*
G01*
X172800000Y-112650000D02*
X171100000Y-112650000D01*
X171100000Y-110450000D01*
X172800000Y-110450000D01*
X172800000Y-112650000D01*
G36*
X172800000Y-112650000D02*
G01*
X171100000Y-112650000D01*
X171100000Y-110450000D01*
X172800000Y-110450000D01*
X172800000Y-112650000D01*
G37*
D11*
X171151968Y-111089371D02*
G75*
G03*
X171100000Y-111949998I-351968J-410629D01*
G01*
X194193482Y-148347457D02*
X194145863Y-148299838D01*
X194145863Y-148299838D02*
X194050625Y-148252219D01*
X194050625Y-148252219D02*
X193812530Y-148252219D01*
X193812530Y-148252219D02*
X193717292Y-148299838D01*
X193717292Y-148299838D02*
X193669673Y-148347457D01*
X193669673Y-148347457D02*
X193622054Y-148442695D01*
X193622054Y-148442695D02*
X193622054Y-148537933D01*
X193622054Y-148537933D02*
X193669673Y-148680790D01*
X193669673Y-148680790D02*
X194241101Y-149252219D01*
X194241101Y-149252219D02*
X193622054Y-149252219D01*
X193003006Y-148252219D02*
X192907768Y-148252219D01*
X192907768Y-148252219D02*
X192812530Y-148299838D01*
X192812530Y-148299838D02*
X192764911Y-148347457D01*
X192764911Y-148347457D02*
X192717292Y-148442695D01*
X192717292Y-148442695D02*
X192669673Y-148633171D01*
X192669673Y-148633171D02*
X192669673Y-148871266D01*
X192669673Y-148871266D02*
X192717292Y-149061742D01*
X192717292Y-149061742D02*
X192764911Y-149156980D01*
X192764911Y-149156980D02*
X192812530Y-149204600D01*
X192812530Y-149204600D02*
X192907768Y-149252219D01*
X192907768Y-149252219D02*
X193003006Y-149252219D01*
X193003006Y-149252219D02*
X193098244Y-149204600D01*
X193098244Y-149204600D02*
X193145863Y-149156980D01*
X193145863Y-149156980D02*
X193193482Y-149061742D01*
X193193482Y-149061742D02*
X193241101Y-148871266D01*
X193241101Y-148871266D02*
X193241101Y-148633171D01*
X193241101Y-148633171D02*
X193193482Y-148442695D01*
X193193482Y-148442695D02*
X193145863Y-148347457D01*
X193145863Y-148347457D02*
X193098244Y-148299838D01*
X193098244Y-148299838D02*
X193003006Y-148252219D01*
X192288720Y-148347457D02*
X192241101Y-148299838D01*
X192241101Y-148299838D02*
X192145863Y-148252219D01*
X192145863Y-148252219D02*
X191907768Y-148252219D01*
X191907768Y-148252219D02*
X191812530Y-148299838D01*
X191812530Y-148299838D02*
X191764911Y-148347457D01*
X191764911Y-148347457D02*
X191717292Y-148442695D01*
X191717292Y-148442695D02*
X191717292Y-148537933D01*
X191717292Y-148537933D02*
X191764911Y-148680790D01*
X191764911Y-148680790D02*
X192336339Y-149252219D01*
X192336339Y-149252219D02*
X191717292Y-149252219D01*
X190860149Y-148585552D02*
X190860149Y-149252219D01*
X191098244Y-148204600D02*
X191336339Y-148918885D01*
X191336339Y-148918885D02*
X190717292Y-148918885D01*
X190336339Y-148871266D02*
X189574435Y-148871266D01*
X188907768Y-148252219D02*
X188812530Y-148252219D01*
X188812530Y-148252219D02*
X188717292Y-148299838D01*
X188717292Y-148299838D02*
X188669673Y-148347457D01*
X188669673Y-148347457D02*
X188622054Y-148442695D01*
X188622054Y-148442695D02*
X188574435Y-148633171D01*
X188574435Y-148633171D02*
X188574435Y-148871266D01*
X188574435Y-148871266D02*
X188622054Y-149061742D01*
X188622054Y-149061742D02*
X188669673Y-149156980D01*
X188669673Y-149156980D02*
X188717292Y-149204600D01*
X188717292Y-149204600D02*
X188812530Y-149252219D01*
X188812530Y-149252219D02*
X188907768Y-149252219D01*
X188907768Y-149252219D02*
X189003006Y-149204600D01*
X189003006Y-149204600D02*
X189050625Y-149156980D01*
X189050625Y-149156980D02*
X189098244Y-149061742D01*
X189098244Y-149061742D02*
X189145863Y-148871266D01*
X189145863Y-148871266D02*
X189145863Y-148633171D01*
X189145863Y-148633171D02*
X189098244Y-148442695D01*
X189098244Y-148442695D02*
X189050625Y-148347457D01*
X189050625Y-148347457D02*
X189003006Y-148299838D01*
X189003006Y-148299838D02*
X188907768Y-148252219D01*
X187622054Y-149252219D02*
X188193482Y-149252219D01*
X187907768Y-149252219D02*
X187907768Y-148252219D01*
X187907768Y-148252219D02*
X188003006Y-148395076D01*
X188003006Y-148395076D02*
X188098244Y-148490314D01*
X188098244Y-148490314D02*
X188193482Y-148537933D01*
X173343483Y-148966504D02*
X172867293Y-148966504D01*
X173438721Y-149252219D02*
X173105388Y-148252219D01*
X173105388Y-148252219D02*
X172772055Y-149252219D01*
X172533959Y-149252219D02*
X172010150Y-148585552D01*
X172533959Y-148585552D02*
X172010150Y-149252219D01*
X171724435Y-149252219D02*
X171200626Y-148585552D01*
X171724435Y-148585552D02*
X171200626Y-149252219D01*
X170867292Y-148966504D02*
X170391102Y-148966504D01*
X170962530Y-149252219D02*
X170629197Y-148252219D01*
X170629197Y-148252219D02*
X170295864Y-149252219D01*
X170057768Y-149252219D02*
X169533959Y-148585552D01*
X170057768Y-148585552D02*
X169533959Y-149252219D01*
X169248244Y-149252219D02*
X168724435Y-148585552D01*
X169248244Y-148585552D02*
X168724435Y-149252219D01*
D12*
%TO.C,U3*%
X168250000Y-135400000D03*
D13*
X170250000Y-135400000D03*
D14*
X170250000Y-139900000D03*
D15*
X172750000Y-135400000D03*
%TD*%
D16*
%TO.C,U1*%
X165280000Y-69998000D03*
X195760000Y-69998000D03*
D17*
X170360000Y-124100000D03*
X172900000Y-124100000D03*
X175440000Y-124100000D03*
X177980000Y-124100000D03*
X180520000Y-124100000D03*
X183060000Y-124100000D03*
X185600000Y-124100000D03*
X188140000Y-124100000D03*
X190680000Y-124100000D03*
%TD*%
D18*
%TO.C,H2*%
X197000000Y-147000000D03*
%TD*%
D19*
%TO.C,J5*%
X2495000Y-8865000D03*
X5035000Y-8865000D03*
%TD*%
D18*
%TO.C,H1*%
X164000000Y-147000000D03*
%TD*%
D19*
%TO.C,J4*%
X2495000Y-2495000D03*
X5035000Y-2495000D03*
%TD*%
D20*
%TO.C,C28*%
X180525000Y-126600000D03*
X178975000Y-126600000D03*
%TD*%
D21*
%TO.C,Q3*%
X198700000Y-131790000D03*
X198050000Y-131790000D03*
X197400000Y-131790000D03*
X196750000Y-131790000D03*
D22*
X198700000Y-128920000D03*
X198050000Y-128920000D03*
D23*
X197725000Y-130110000D03*
D24*
X197725000Y-129250000D03*
D22*
X197400000Y-128920000D03*
X196750000Y-128920000D03*
%TD*%
D25*
%TO.C,TP19*%
X185427179Y-120400000D03*
%TD*%
%TO.C,TP10*%
X170000000Y-116000000D03*
%TD*%
D20*
%TO.C,C11*%
X181525000Y-104250000D03*
X179975000Y-104250000D03*
%TD*%
D26*
%TO.C,J2*%
X196250000Y-106000000D03*
D27*
X196250000Y-102500000D03*
X196250000Y-99000000D03*
X196250000Y-95500000D03*
X196250000Y-92000000D03*
X196250000Y-88500000D03*
X196250000Y-85000000D03*
X196250000Y-81500000D03*
X196250000Y-78000000D03*
%TD*%
D28*
%TO.C,D6*%
X193562500Y-115050000D03*
X193562500Y-116950000D03*
X191362500Y-116000000D03*
%TD*%
D29*
%TO.C,R27*%
X172825000Y-131200000D03*
X174475000Y-131200000D03*
%TD*%
D30*
%TO.C,IC3*%
X168200000Y-76750000D03*
X167250000Y-76750000D03*
X166300000Y-76750000D03*
X166300000Y-74250000D03*
X167250000Y-74250000D03*
X168200000Y-74250000D03*
%TD*%
D31*
%TO.C,IC7*%
X178350000Y-107662000D03*
X178850000Y-107662000D03*
X179350000Y-107662000D03*
X179850000Y-107662000D03*
X180350000Y-107662000D03*
X180850000Y-107662000D03*
X181350000Y-107662000D03*
X181850000Y-107662000D03*
X182350000Y-107662000D03*
X182850000Y-107662000D03*
X183350000Y-107662000D03*
X183850000Y-107662000D03*
D32*
X185338000Y-109150000D03*
X185338000Y-109650000D03*
X185338000Y-110150000D03*
X185338000Y-110650000D03*
X185338000Y-111150000D03*
X185338000Y-111650000D03*
X185338000Y-112150000D03*
X185338000Y-112650000D03*
X185338000Y-113150000D03*
X185338000Y-113650000D03*
X185338000Y-114150000D03*
X185338000Y-114650000D03*
D31*
X183850000Y-116138000D03*
X183350000Y-116138000D03*
X182850000Y-116138000D03*
X182350000Y-116138000D03*
X181850000Y-116138000D03*
X181350000Y-116138000D03*
X180850000Y-116138000D03*
X180350000Y-116138000D03*
X179850000Y-116138000D03*
X179350000Y-116138000D03*
X178850000Y-116138000D03*
X178350000Y-116138000D03*
D32*
X176862000Y-114650000D03*
X176862000Y-114150000D03*
X176862000Y-113650000D03*
X176862000Y-113150000D03*
X176862000Y-112650000D03*
X176862000Y-112150000D03*
X176862000Y-111650000D03*
X176862000Y-111150000D03*
X176862000Y-110650000D03*
X176862000Y-110150000D03*
X176862000Y-109650000D03*
X176862000Y-109150000D03*
%TD*%
D33*
%TO.C,R34*%
X168500000Y-140625000D03*
X168500000Y-138975000D03*
%TD*%
D34*
%TO.C,C36*%
X174250000Y-80975000D03*
X174250000Y-82525000D03*
%TD*%
D29*
%TO.C,FB1*%
X187675000Y-116050000D03*
X189325000Y-116050000D03*
%TD*%
D35*
%TO.C,TP6*%
X194200000Y-124150000D03*
%TD*%
D29*
%TO.C,R14*%
X188875000Y-134050000D03*
X190525000Y-134050000D03*
%TD*%
D33*
%TO.C,R22*%
X196712500Y-116575000D03*
X196712500Y-114925000D03*
%TD*%
D16*
%TO.C,FID1*%
X174000000Y-71000000D03*
%TD*%
D36*
%TO.C,R10*%
X170075000Y-69500000D03*
X168425000Y-69500000D03*
%TD*%
D37*
%TO.C,C16*%
X188925000Y-138750000D03*
X190475000Y-138750000D03*
%TD*%
D38*
%TO.C,C6*%
X171900000Y-77025000D03*
X171900000Y-75475000D03*
%TD*%
D39*
%TO.C,J3*%
X162500000Y-111350000D03*
D40*
X162500000Y-113890000D03*
X162500000Y-116430000D03*
X162500000Y-118970000D03*
X162500000Y-121510000D03*
X162500000Y-124050000D03*
%TD*%
D37*
%TO.C,C21*%
X184725000Y-117550000D03*
X186275000Y-117550000D03*
%TD*%
D41*
%TO.C,R25*%
X169150000Y-95075000D03*
X169150000Y-96725000D03*
%TD*%
%TO.C,R13*%
X191950000Y-136425000D03*
X191950000Y-138075000D03*
%TD*%
D42*
%TO.C,D13*%
X186800000Y-85800000D03*
X189600000Y-85800000D03*
%TD*%
D29*
%TO.C,R33*%
X172825000Y-136710000D03*
X174475000Y-136710000D03*
%TD*%
D43*
%TO.C,LS1*%
X166100000Y-127500000D03*
X166100000Y-135500000D03*
%TD*%
D25*
%TO.C,TP11*%
X187250000Y-127500000D03*
%TD*%
D44*
%TO.C,C38*%
X182250000Y-76750000D03*
X179300000Y-76750000D03*
%TD*%
D25*
%TO.C,TP17*%
X185700000Y-131750000D03*
%TD*%
D38*
%TO.C,C5*%
X170250000Y-77025000D03*
X170250000Y-75475000D03*
%TD*%
D25*
%TO.C,TP7*%
X182000000Y-74750000D03*
%TD*%
D45*
%TO.C,IC2*%
X181338000Y-140100000D03*
X181338000Y-140600000D03*
X181338000Y-141100000D03*
X179662000Y-141100000D03*
X179662000Y-140600000D03*
X179662000Y-140100000D03*
%TD*%
D44*
%TO.C,C9*%
X176475000Y-79000000D03*
X173525000Y-79000000D03*
%TD*%
D46*
%TO.C,D3*%
X189000000Y-141200000D03*
X189000000Y-144200000D03*
%TD*%
D25*
%TO.C,TP9*%
X170000000Y-113750000D03*
%TD*%
D36*
%TO.C,R1*%
X190625000Y-93600000D03*
X188975000Y-93600000D03*
%TD*%
%TO.C,R29*%
X180575000Y-128100000D03*
X178925000Y-128100000D03*
%TD*%
D20*
%TO.C,C14*%
X178675000Y-105900000D03*
X177125000Y-105900000D03*
%TD*%
D47*
%TO.C,U4*%
X188405000Y-82277500D03*
X187135000Y-82277500D03*
X185865000Y-82277500D03*
X184595000Y-82277500D03*
D48*
X188405000Y-76487500D03*
X187135000Y-76487500D03*
D49*
X186500000Y-78712500D03*
D48*
X185865000Y-76487500D03*
X184595000Y-76487500D03*
%TD*%
D33*
%TO.C,R20*%
X165500000Y-140625000D03*
X165500000Y-138975000D03*
%TD*%
D50*
%TO.C,IC1*%
X182775000Y-99750000D03*
X182775000Y-100250000D03*
X182775000Y-100750000D03*
X182775000Y-101250000D03*
X180675000Y-101250000D03*
X180675000Y-100750000D03*
X180675000Y-100250000D03*
X180675000Y-99750000D03*
D51*
X181725000Y-100500000D03*
%TD*%
D37*
%TO.C,C25*%
X187725000Y-114550000D03*
X189275000Y-114550000D03*
%TD*%
D36*
%TO.C,R28*%
X180575000Y-131100000D03*
X178925000Y-131100000D03*
%TD*%
D28*
%TO.C,D8*%
X193562500Y-119550000D03*
X193562500Y-121450000D03*
X191362500Y-120500000D03*
%TD*%
D33*
%TO.C,R16*%
X195212500Y-121075000D03*
X195212500Y-119425000D03*
%TD*%
D41*
%TO.C,R31*%
X167000000Y-138975000D03*
X167000000Y-140625000D03*
%TD*%
D44*
%TO.C,C39*%
X182250000Y-79000000D03*
X179300000Y-79000000D03*
%TD*%
D16*
%TO.C,FID3*%
X168000000Y-110000000D03*
%TD*%
D20*
%TO.C,C30*%
X196737500Y-118000000D03*
X195187500Y-118000000D03*
%TD*%
D25*
%TO.C,TP12*%
X195250000Y-127500000D03*
%TD*%
D29*
%TO.C,R23*%
X188925000Y-127500000D03*
X190575000Y-127500000D03*
%TD*%
D33*
%TO.C,R19*%
X196712500Y-112075000D03*
X196712500Y-110425000D03*
%TD*%
D36*
%TO.C,R11*%
X194825000Y-140750000D03*
X193175000Y-140750000D03*
%TD*%
D52*
%TO.C,D2*%
X187550000Y-95950000D03*
X187550000Y-97250000D03*
X185450000Y-96600000D03*
%TD*%
D53*
%TO.C,R39*%
X189200000Y-89000000D03*
X183800000Y-89000000D03*
%TD*%
D36*
%TO.C,R9*%
X183575000Y-96000000D03*
X181925000Y-96000000D03*
%TD*%
D37*
%TO.C,C1*%
X165725000Y-88200000D03*
X167275000Y-88200000D03*
%TD*%
D42*
%TO.C,D9*%
X178900000Y-85750000D03*
X176100000Y-85750000D03*
%TD*%
D36*
%TO.C,R5*%
X190625000Y-96700000D03*
X188975000Y-96700000D03*
%TD*%
D54*
%TO.C,J1*%
X183390000Y-143647000D03*
X177610000Y-143647000D03*
D55*
X183850000Y-142572000D03*
X183050000Y-142572000D03*
X181750000Y-142572000D03*
X180750000Y-142572000D03*
X180250000Y-142572000D03*
X179250000Y-142572000D03*
X177950000Y-142572000D03*
X177150000Y-142572000D03*
X177450000Y-142572000D03*
X178250000Y-142572000D03*
X178750000Y-142572000D03*
X179750000Y-142572000D03*
X181250000Y-142572000D03*
X182250000Y-142572000D03*
X182750000Y-142572000D03*
X183550000Y-142572000D03*
D56*
X185610000Y-147077000D03*
X185610000Y-143147000D03*
X175390000Y-147077000D03*
X175390000Y-143147000D03*
%TD*%
D36*
%TO.C,R30*%
X167725000Y-98500000D03*
X166075000Y-98500000D03*
%TD*%
D25*
%TO.C,TP14*%
X176725000Y-99000000D03*
%TD*%
D37*
%TO.C,C15*%
X188925000Y-137240000D03*
X190475000Y-137240000D03*
%TD*%
D34*
%TO.C,C22*%
X175500000Y-106725000D03*
X175500000Y-108275000D03*
%TD*%
D37*
%TO.C,C12*%
X188925000Y-135750000D03*
X190475000Y-135750000D03*
%TD*%
D20*
%TO.C,C2*%
X167275000Y-90500000D03*
X165725000Y-90500000D03*
%TD*%
%TO.C,C33*%
X174425000Y-132700000D03*
X172875000Y-132700000D03*
%TD*%
D29*
%TO.C,R41*%
X166075000Y-94000000D03*
X167725000Y-94000000D03*
%TD*%
D37*
%TO.C,C26*%
X172875000Y-129700000D03*
X174425000Y-129700000D03*
%TD*%
D33*
%TO.C,R26*%
X196712500Y-121075000D03*
X196712500Y-119425000D03*
%TD*%
D29*
%TO.C,R15*%
X184425000Y-133800000D03*
X186075000Y-133800000D03*
%TD*%
D36*
%TO.C,R35*%
X175825000Y-83900000D03*
X174175000Y-83900000D03*
%TD*%
D19*
%TO.C,J4*%
X162250000Y-72225000D03*
X162250000Y-74765000D03*
%TD*%
D20*
%TO.C,C34*%
X174425000Y-138200000D03*
X172875000Y-138200000D03*
%TD*%
D57*
%TO.C,D4*%
X179900000Y-71000000D03*
X176900000Y-71000000D03*
%TD*%
D58*
%TO.C,R40*%
X189900000Y-101037500D03*
X189900000Y-103962500D03*
%TD*%
D44*
%TO.C,C8*%
X176475000Y-76750000D03*
X173525000Y-76750000D03*
%TD*%
D19*
%TO.C,J5*%
X198750000Y-72225000D03*
X198750000Y-74765000D03*
%TD*%
D29*
%TO.C,R3*%
X182900000Y-102750000D03*
X184550000Y-102750000D03*
%TD*%
D59*
%TO.C,IC4*%
X186500000Y-139500000D03*
X186000000Y-139500000D03*
X185500000Y-139500000D03*
X185000000Y-139500000D03*
X184500000Y-139500000D03*
X184000000Y-139500000D03*
D60*
X183250000Y-138750000D03*
X183250000Y-138250000D03*
X183250000Y-137750000D03*
X183250000Y-137250000D03*
X183250000Y-136750000D03*
X183250000Y-136250000D03*
D59*
X184000000Y-135500000D03*
X184500000Y-135500000D03*
X185000000Y-135500000D03*
X185500000Y-135500000D03*
X186000000Y-135500000D03*
X186500000Y-135500000D03*
D60*
X187250000Y-136250000D03*
X187250000Y-136750000D03*
X187250000Y-137250000D03*
X187250000Y-137750000D03*
X187250000Y-138250000D03*
X187250000Y-138750000D03*
D61*
X185250000Y-137500000D03*
%TD*%
D38*
%TO.C,C13*%
X196250000Y-142275000D03*
X196250000Y-140725000D03*
%TD*%
D25*
%TO.C,TP16*%
X187650000Y-131750000D03*
%TD*%
D62*
%TO.C,Q1*%
X193475000Y-138725000D03*
X193475000Y-138075000D03*
X193475000Y-137425000D03*
X193475000Y-136775000D03*
D63*
X195000000Y-139240000D03*
D64*
X195700000Y-137750000D03*
D63*
X195000000Y-136260000D03*
%TD*%
D25*
%TO.C,TP2*%
X167000000Y-92300000D03*
%TD*%
D20*
%TO.C,C27*%
X180525000Y-129600000D03*
X178975000Y-129600000D03*
%TD*%
D65*
%TO.C,IC6*%
X194500000Y-133200000D03*
X194000000Y-133200000D03*
X193500000Y-133200000D03*
X193000000Y-133200000D03*
X193000000Y-130200000D03*
X193500000Y-130200000D03*
X194000000Y-130200000D03*
X194500000Y-130200000D03*
D66*
X193750000Y-131700000D03*
%TD*%
D67*
%TO.C,IC5*%
X177488000Y-83075000D03*
X177488000Y-82425000D03*
X177488000Y-81775000D03*
X177488000Y-81125000D03*
X181912000Y-81125000D03*
X181912000Y-81775000D03*
X181912000Y-82425000D03*
X181912000Y-83075000D03*
D68*
X179700000Y-82100000D03*
%TD*%
D69*
%TO.C,F1*%
X184060000Y-71000000D03*
X190440000Y-71000000D03*
%TD*%
D70*
%TO.C,PS1*%
X169450000Y-92800000D03*
X169450000Y-90500000D03*
X169450000Y-88200000D03*
D71*
X175750000Y-90500000D03*
%TD*%
D44*
%TO.C,C35*%
X184225000Y-85750000D03*
X181275000Y-85750000D03*
%TD*%
D38*
%TO.C,C19*%
X191000000Y-144175000D03*
X191000000Y-142625000D03*
%TD*%
D20*
%TO.C,C20*%
X177475000Y-117550000D03*
X175925000Y-117550000D03*
%TD*%
D33*
%TO.C,R17*%
X195212500Y-116575000D03*
X195212500Y-114925000D03*
%TD*%
D28*
%TO.C,D7*%
X172850000Y-95300000D03*
X172850000Y-97200000D03*
X170650000Y-96250000D03*
%TD*%
D37*
%TO.C,C10*%
X182950000Y-104250000D03*
X184500000Y-104250000D03*
%TD*%
D29*
%TO.C,R8*%
X181675000Y-98000000D03*
X183325000Y-98000000D03*
%TD*%
D37*
%TO.C,C24*%
X187725000Y-113050000D03*
X189275000Y-113050000D03*
%TD*%
D20*
%TO.C,C29*%
X167675000Y-97000000D03*
X166125000Y-97000000D03*
%TD*%
D25*
%TO.C,TP5*%
X184900000Y-106900000D03*
%TD*%
D52*
%TO.C,D1*%
X187550000Y-93000000D03*
X187550000Y-94300000D03*
X185450000Y-93650000D03*
%TD*%
D25*
%TO.C,TP1*%
X170000000Y-118250000D03*
%TD*%
D72*
%TO.C,Q2*%
X163950000Y-140900000D03*
X162050000Y-140900000D03*
X163000000Y-138700000D03*
%TD*%
D36*
%TO.C,R6*%
X170075000Y-71000000D03*
X168425000Y-71000000D03*
%TD*%
D33*
%TO.C,R7*%
X182000000Y-94575000D03*
X182000000Y-92925000D03*
%TD*%
D29*
%TO.C,R12*%
X193175000Y-142250000D03*
X194825000Y-142250000D03*
%TD*%
D41*
%TO.C,R2*%
X184475000Y-99675000D03*
X184475000Y-101325000D03*
%TD*%
D34*
%TO.C,C37*%
X175750000Y-80975000D03*
X175750000Y-82525000D03*
%TD*%
D73*
%TO.C,F2*%
X187100000Y-105200000D03*
X187100000Y-99800000D03*
%TD*%
D34*
%TO.C,C4*%
X164750000Y-75225000D03*
X164750000Y-76775000D03*
%TD*%
D25*
%TO.C,TP4*%
X179700000Y-102250000D03*
%TD*%
D37*
%TO.C,C7*%
X168475000Y-72490000D03*
X170025000Y-72490000D03*
%TD*%
D20*
%TO.C,C31*%
X196737500Y-113500000D03*
X195187500Y-113500000D03*
%TD*%
D28*
%TO.C,D5*%
X193562500Y-110550000D03*
X193562500Y-112450000D03*
X191362500Y-111500000D03*
%TD*%
D25*
%TO.C,TP13*%
X170000000Y-120500000D03*
%TD*%
D36*
%TO.C,R32*%
X174475000Y-134200000D03*
X172825000Y-134200000D03*
%TD*%
D25*
%TO.C,TP18*%
X187372699Y-120395198D03*
%TD*%
D36*
%TO.C,R24*%
X193575000Y-127500000D03*
X191925000Y-127500000D03*
%TD*%
D33*
%TO.C,R18*%
X195212500Y-112075000D03*
X195212500Y-110425000D03*
%TD*%
D16*
%TO.C,FID2*%
X174000000Y-140000000D03*
%TD*%
D37*
%TO.C,C3*%
X187725000Y-117550000D03*
X189275000Y-117550000D03*
%TD*%
D41*
%TO.C,R4*%
X183500000Y-92925000D03*
X183500000Y-94575000D03*
%TD*%
D74*
%TO.C,L1*%
X167250000Y-79550000D03*
X167250000Y-85250000D03*
%TD*%
D25*
%TO.C,TP8*%
X178025000Y-96800000D03*
%TD*%
D36*
%TO.C,R21*%
X167725000Y-95500000D03*
X166075000Y-95500000D03*
%TD*%
D20*
%TO.C,C32*%
X196737500Y-109000000D03*
X195187500Y-109000000D03*
%TD*%
M02*
