%TF.GenerationSoftware,KiCad,Pcbnew,7.0.10*%
%TF.CreationDate,2025-03-18T18:42:47+01:00*%
%TF.ProjectId,AxxSolder,41787853-6f6c-4646-9572-2e6b69636164,rev?*%
%TF.SameCoordinates,Original*%
%TF.FileFunction,Soldermask,Top*%
%TF.FilePolarity,Negative*%
%FSLAX46Y46*%
G04 Gerber Fmt 4.6, Leading zero omitted, Abs format (unit mm)*
G04 Created by KiCad (PCBNEW 7.0.10) date 2025-03-18 18:42:47*
%MOMM*%
%LPD*%
G01*
G04 APERTURE LIST*
%ADD10C,1.550000*%
%ADD11C,1.500000*%
%ADD12R,1.300000X1.550000*%
%ADD13C,2.500000*%
%ADD14C,1.300000*%
%ADD15C,2.050000*%
%ADD16O,1.550000X2.300000*%
%ADD17C,1.100000*%
%ADD18R,1.300000X2.400000*%
%ADD19R,3.750000X4.000000*%
%ADD20R,2.500000X3.200000*%
%ADD21R,2.500000X2.700000*%
%ADD22R,1.650000X1.650000*%
%ADD23C,1.650000*%
%ADD24R,1.700000X1.700000*%
%ADD25O,1.700000X1.700000*%
%ADD26C,0.650000*%
G04 APERTURE END LIST*
D10*
%TO.C,TP18*%
X190660000Y-124080000D03*
%TD*%
D11*
%TO.C,TFT1*%
X165280000Y-69998000D03*
X195760000Y-69998000D03*
%TD*%
D12*
%TO.C,S1*%
X172500000Y-131425000D03*
X168000000Y-131425000D03*
X172500000Y-139375000D03*
X168000000Y-139375000D03*
%TD*%
D10*
%TO.C,J7*%
X170340000Y-124080000D03*
X172880000Y-124080000D03*
X175420000Y-124080000D03*
X177960000Y-124080000D03*
X180500000Y-124080000D03*
X183040000Y-124080000D03*
X185580000Y-124080000D03*
X188120000Y-124080000D03*
%TD*%
D12*
%TO.C,S3*%
X198500000Y-131425000D03*
X194000000Y-131425000D03*
X198500000Y-139375000D03*
X194000000Y-139375000D03*
%TD*%
D13*
%TO.C,H2*%
X197000000Y-147000000D03*
%TD*%
D14*
%TO.C,U2*%
X168250000Y-135400000D03*
D15*
X170250000Y-135400000D03*
D16*
X170250000Y-139900000D03*
D17*
X172750000Y-135400000D03*
D18*
X167750000Y-142700000D03*
X170250000Y-142700000D03*
X172750000Y-142700000D03*
X167750000Y-128400000D03*
X172750000Y-128400000D03*
D19*
X163875000Y-135400000D03*
D20*
X165250000Y-127500000D03*
D21*
X165250000Y-143050000D03*
D20*
X175250000Y-127500000D03*
D21*
X175250000Y-143050000D03*
D19*
X176625000Y-135400000D03*
%TD*%
D10*
%TO.C,TP13*%
X162500000Y-124550000D03*
%TD*%
D12*
%TO.C,S2*%
X186500000Y-131425000D03*
X182000000Y-131425000D03*
X186500000Y-139375000D03*
X182000000Y-139375000D03*
%TD*%
D13*
%TO.C,H1*%
X164000000Y-147000000D03*
%TD*%
D22*
%TO.C,J2*%
X196250000Y-106200000D03*
D23*
X196250000Y-102700000D03*
X196250000Y-99200000D03*
X196250000Y-95700000D03*
X196250000Y-92200000D03*
X196250000Y-88700000D03*
X196250000Y-85200000D03*
X196250000Y-81700000D03*
X196250000Y-78200000D03*
%TD*%
D24*
%TO.C,J3*%
X196675000Y-124100000D03*
D25*
X194135000Y-124100000D03*
%TD*%
D24*
%TO.C,J4*%
X162500000Y-109310000D03*
D25*
X162500000Y-111850000D03*
X162500000Y-114390000D03*
X162500000Y-116930000D03*
X162500000Y-119470000D03*
X162500000Y-122010000D03*
%TD*%
D26*
%TO.C,J1*%
X183390000Y-143647000D03*
X177610000Y-143647000D03*
%TD*%
D10*
%TO.C,J6*%
X198750000Y-72925000D03*
X198750000Y-75465000D03*
%TD*%
%TO.C,J5*%
X162250000Y-72925000D03*
X162250000Y-75465000D03*
%TD*%
M02*
