%TF.GenerationSoftware,KiCad,Pcbnew,7.0.10*%
%TF.CreationDate,2024-11-01T11:47:07+01:00*%
%TF.ProjectId,AxxSolder,41787853-6f6c-4646-9572-2e6b69636164,rev?*%
%TF.SameCoordinates,Original*%
%TF.FileFunction,Soldermask,Bot*%
%TF.FilePolarity,Negative*%
%FSLAX46Y46*%
G04 Gerber Fmt 4.6, Leading zero omitted, Abs format (unit mm)*
G04 Created by KiCad (PCBNEW 7.0.10) date 2024-11-01 11:47:07*
%MOMM*%
%LPD*%
G01*
G04 APERTURE LIST*
G04 Aperture macros list*
%AMRoundRect*
0 Rectangle with rounded corners*
0 $1 Rounding radius*
0 $2 $3 $4 $5 $6 $7 $8 $9 X,Y pos of 4 corners*
0 Add a 4 corners polygon primitive as box body*
4,1,4,$2,$3,$4,$5,$6,$7,$8,$9,$2,$3,0*
0 Add four circle primitives for the rounded corners*
1,1,$1+$1,$2,$3*
1,1,$1+$1,$4,$5*
1,1,$1+$1,$6,$7*
1,1,$1+$1,$8,$9*
0 Add four rect primitives between the rounded corners*
20,1,$1+$1,$2,$3,$4,$5,0*
20,1,$1+$1,$4,$5,$6,$7,0*
20,1,$1+$1,$6,$7,$8,$9,0*
20,1,$1+$1,$8,$9,$2,$3,0*%
G04 Aperture macros list end*
%ADD10C,0.150000*%
%ADD11C,0.200000*%
%ADD12R,4.250000X2.100000*%
%ADD13R,1.200000X0.600000*%
%ADD14C,0.650000*%
%ADD15R,0.300000X1.150000*%
%ADD16R,2.180000X2.000000*%
%ADD17C,1.550000*%
%ADD18C,1.500000*%
%ADD19C,2.500000*%
%ADD20C,1.100000*%
%ADD21O,1.550000X2.300000*%
%ADD22C,2.050000*%
%ADD23C,1.300000*%
%ADD24RoundRect,0.225000X0.225000X0.250000X-0.225000X0.250000X-0.225000X-0.250000X0.225000X-0.250000X0*%
%ADD25R,3.200000X2.850000*%
%ADD26R,0.400000X0.550000*%
%ADD27R,0.400000X0.410000*%
%ADD28R,2.750000X1.470000*%
%ADD29R,2.750000X0.250000*%
%ADD30C,1.000000*%
%ADD31R,1.650000X1.650000*%
%ADD32C,1.650000*%
%ADD33R,1.050000X0.600000*%
%ADD34RoundRect,0.200000X-0.200000X-0.275000X0.200000X-0.275000X0.200000X0.275000X-0.200000X0.275000X0*%
%ADD35R,0.300000X1.475000*%
%ADD36R,1.475000X0.300000*%
%ADD37R,1.700000X1.700000*%
%ADD38O,1.700000X1.700000*%
%ADD39RoundRect,0.200000X0.275000X-0.200000X0.275000X0.200000X-0.275000X0.200000X-0.275000X-0.200000X0*%
%ADD40RoundRect,0.225000X-0.250000X0.225000X-0.250000X-0.225000X0.250000X-0.225000X0.250000X0.225000X0*%
%ADD41RoundRect,0.200000X0.200000X0.275000X-0.200000X0.275000X-0.200000X-0.275000X0.200000X-0.275000X0*%
%ADD42RoundRect,0.225000X-0.225000X-0.250000X0.225000X-0.250000X0.225000X0.250000X-0.225000X0.250000X0*%
%ADD43RoundRect,0.225000X0.250000X-0.225000X0.250000X0.225000X-0.250000X0.225000X-0.250000X-0.225000X0*%
%ADD44RoundRect,0.200000X-0.275000X0.200000X-0.275000X-0.200000X0.275000X-0.200000X0.275000X0.200000X0*%
%ADD45R,1.200000X1.200000*%
%ADD46R,2.500000X3.000000*%
%ADD47RoundRect,0.250000X0.450000X-0.262500X0.450000X0.262500X-0.450000X0.262500X-0.450000X-0.262500X0*%
%ADD48R,1.120000X1.220000*%
%ADD49R,0.500000X0.925000*%
%ADD50R,0.600000X0.800000*%
%ADD51R,4.410000X3.655000*%
%ADD52R,0.700000X0.300000*%
%ADD53R,1.000000X1.700000*%
%ADD54R,1.050000X0.500000*%
%ADD55R,1.900000X3.450000*%
%ADD56R,1.220000X1.120000*%
%ADD57R,2.700000X2.700000*%
%ADD58R,0.800000X0.300000*%
%ADD59R,0.300000X0.800000*%
%ADD60R,0.750000X0.400000*%
%ADD61R,0.400000X0.530000*%
%ADD62R,2.400000X2.450000*%
%ADD63R,1.730000X1.850000*%
%ADD64R,0.300000X0.750000*%
%ADD65R,1.425000X0.450000*%
%ADD66R,1.680000X1.880000*%
%ADD67R,4.240000X3.810000*%
%ADD68R,0.600000X1.050000*%
%ADD69R,2.500000X2.400000*%
%ADD70R,0.600000X0.350000*%
%ADD71R,1.100000X1.700000*%
G04 APERTURE END LIST*
D10*
X172056790Y-109552970D02*
G75*
G03*
X172018692Y-109000256I-176990J265470D01*
G01*
X172616904Y-109575359D02*
G75*
G03*
X172638131Y-110137664I183096J-274641D01*
G01*
X171446701Y-109562836D02*
G75*
G03*
X171467975Y-110125212I183099J-274664D01*
G01*
X171456790Y-109552970D02*
G75*
G03*
X171418692Y-109000256I-176990J265470D01*
G01*
X172046701Y-109562836D02*
G75*
G03*
X172067975Y-110125212I183099J-274664D01*
G01*
X172626995Y-109565496D02*
G75*
G03*
X172588848Y-109012708I-176995J265496D01*
G01*
X172800000Y-112650000D02*
X171100000Y-112650000D01*
X171100000Y-110450000D01*
X172800000Y-110450000D01*
X172800000Y-112650000D01*
G36*
X172800000Y-112650000D02*
G01*
X171100000Y-112650000D01*
X171100000Y-110450000D01*
X172800000Y-110450000D01*
X172800000Y-112650000D01*
G37*
D11*
X171151968Y-111089371D02*
G75*
G03*
X171100000Y-111949998I-351968J-410629D01*
G01*
X194193482Y-148347457D02*
X194145863Y-148299838D01*
X194145863Y-148299838D02*
X194050625Y-148252219D01*
X194050625Y-148252219D02*
X193812530Y-148252219D01*
X193812530Y-148252219D02*
X193717292Y-148299838D01*
X193717292Y-148299838D02*
X193669673Y-148347457D01*
X193669673Y-148347457D02*
X193622054Y-148442695D01*
X193622054Y-148442695D02*
X193622054Y-148537933D01*
X193622054Y-148537933D02*
X193669673Y-148680790D01*
X193669673Y-148680790D02*
X194241101Y-149252219D01*
X194241101Y-149252219D02*
X193622054Y-149252219D01*
X193003006Y-148252219D02*
X192907768Y-148252219D01*
X192907768Y-148252219D02*
X192812530Y-148299838D01*
X192812530Y-148299838D02*
X192764911Y-148347457D01*
X192764911Y-148347457D02*
X192717292Y-148442695D01*
X192717292Y-148442695D02*
X192669673Y-148633171D01*
X192669673Y-148633171D02*
X192669673Y-148871266D01*
X192669673Y-148871266D02*
X192717292Y-149061742D01*
X192717292Y-149061742D02*
X192764911Y-149156980D01*
X192764911Y-149156980D02*
X192812530Y-149204600D01*
X192812530Y-149204600D02*
X192907768Y-149252219D01*
X192907768Y-149252219D02*
X193003006Y-149252219D01*
X193003006Y-149252219D02*
X193098244Y-149204600D01*
X193098244Y-149204600D02*
X193145863Y-149156980D01*
X193145863Y-149156980D02*
X193193482Y-149061742D01*
X193193482Y-149061742D02*
X193241101Y-148871266D01*
X193241101Y-148871266D02*
X193241101Y-148633171D01*
X193241101Y-148633171D02*
X193193482Y-148442695D01*
X193193482Y-148442695D02*
X193145863Y-148347457D01*
X193145863Y-148347457D02*
X193098244Y-148299838D01*
X193098244Y-148299838D02*
X193003006Y-148252219D01*
X192288720Y-148347457D02*
X192241101Y-148299838D01*
X192241101Y-148299838D02*
X192145863Y-148252219D01*
X192145863Y-148252219D02*
X191907768Y-148252219D01*
X191907768Y-148252219D02*
X191812530Y-148299838D01*
X191812530Y-148299838D02*
X191764911Y-148347457D01*
X191764911Y-148347457D02*
X191717292Y-148442695D01*
X191717292Y-148442695D02*
X191717292Y-148537933D01*
X191717292Y-148537933D02*
X191764911Y-148680790D01*
X191764911Y-148680790D02*
X192336339Y-149252219D01*
X192336339Y-149252219D02*
X191717292Y-149252219D01*
X190860149Y-148585552D02*
X190860149Y-149252219D01*
X191098244Y-148204600D02*
X191336339Y-148918885D01*
X191336339Y-148918885D02*
X190717292Y-148918885D01*
X190336339Y-148871266D02*
X189574435Y-148871266D01*
X188907768Y-148252219D02*
X188812530Y-148252219D01*
X188812530Y-148252219D02*
X188717292Y-148299838D01*
X188717292Y-148299838D02*
X188669673Y-148347457D01*
X188669673Y-148347457D02*
X188622054Y-148442695D01*
X188622054Y-148442695D02*
X188574435Y-148633171D01*
X188574435Y-148633171D02*
X188574435Y-148871266D01*
X188574435Y-148871266D02*
X188622054Y-149061742D01*
X188622054Y-149061742D02*
X188669673Y-149156980D01*
X188669673Y-149156980D02*
X188717292Y-149204600D01*
X188717292Y-149204600D02*
X188812530Y-149252219D01*
X188812530Y-149252219D02*
X188907768Y-149252219D01*
X188907768Y-149252219D02*
X189003006Y-149204600D01*
X189003006Y-149204600D02*
X189050625Y-149156980D01*
X189050625Y-149156980D02*
X189098244Y-149061742D01*
X189098244Y-149061742D02*
X189145863Y-148871266D01*
X189145863Y-148871266D02*
X189145863Y-148633171D01*
X189145863Y-148633171D02*
X189098244Y-148442695D01*
X189098244Y-148442695D02*
X189050625Y-148347457D01*
X189050625Y-148347457D02*
X189003006Y-148299838D01*
X189003006Y-148299838D02*
X188907768Y-148252219D01*
X188098244Y-149252219D02*
X187907768Y-149252219D01*
X187907768Y-149252219D02*
X187812530Y-149204600D01*
X187812530Y-149204600D02*
X187764911Y-149156980D01*
X187764911Y-149156980D02*
X187669673Y-149014123D01*
X187669673Y-149014123D02*
X187622054Y-148823647D01*
X187622054Y-148823647D02*
X187622054Y-148442695D01*
X187622054Y-148442695D02*
X187669673Y-148347457D01*
X187669673Y-148347457D02*
X187717292Y-148299838D01*
X187717292Y-148299838D02*
X187812530Y-148252219D01*
X187812530Y-148252219D02*
X188003006Y-148252219D01*
X188003006Y-148252219D02*
X188098244Y-148299838D01*
X188098244Y-148299838D02*
X188145863Y-148347457D01*
X188145863Y-148347457D02*
X188193482Y-148442695D01*
X188193482Y-148442695D02*
X188193482Y-148680790D01*
X188193482Y-148680790D02*
X188145863Y-148776028D01*
X188145863Y-148776028D02*
X188098244Y-148823647D01*
X188098244Y-148823647D02*
X188003006Y-148871266D01*
X188003006Y-148871266D02*
X187812530Y-148871266D01*
X187812530Y-148871266D02*
X187717292Y-148823647D01*
X187717292Y-148823647D02*
X187669673Y-148776028D01*
X187669673Y-148776028D02*
X187622054Y-148680790D01*
X173343483Y-148966504D02*
X172867293Y-148966504D01*
X173438721Y-149252219D02*
X173105388Y-148252219D01*
X173105388Y-148252219D02*
X172772055Y-149252219D01*
X172533959Y-149252219D02*
X172010150Y-148585552D01*
X172533959Y-148585552D02*
X172010150Y-149252219D01*
X171724435Y-149252219D02*
X171200626Y-148585552D01*
X171724435Y-148585552D02*
X171200626Y-149252219D01*
X170867292Y-148966504D02*
X170391102Y-148966504D01*
X170962530Y-149252219D02*
X170629197Y-148252219D01*
X170629197Y-148252219D02*
X170295864Y-149252219D01*
X170057768Y-149252219D02*
X169533959Y-148585552D01*
X170057768Y-148585552D02*
X169533959Y-149252219D01*
X169248244Y-149252219D02*
X168724435Y-148585552D01*
X169248244Y-148585552D02*
X168724435Y-149252219D01*
D12*
%TO.C,C37*%
X179000000Y-73800000D03*
X171700000Y-73800000D03*
%TD*%
D13*
%TO.C,IC3*%
X165250000Y-77800000D03*
X165250000Y-76850000D03*
X165250000Y-75900000D03*
X167750000Y-75900000D03*
X167750000Y-76850000D03*
X167750000Y-77800000D03*
%TD*%
%TO.C,IC5*%
X180000000Y-137700000D03*
X180000000Y-138650000D03*
X180000000Y-139600000D03*
X177500000Y-139600000D03*
X177500000Y-138650000D03*
X177500000Y-137700000D03*
%TD*%
D14*
%TO.C,J1*%
X183390000Y-143647000D03*
X177610000Y-143647000D03*
D15*
X183850000Y-142572000D03*
X183050000Y-142572000D03*
X181750000Y-142572000D03*
X180750000Y-142572000D03*
X180250000Y-142572000D03*
X179250000Y-142572000D03*
X177950000Y-142572000D03*
X177150000Y-142572000D03*
X177450000Y-142572000D03*
X178250000Y-142572000D03*
X178750000Y-142572000D03*
X179750000Y-142572000D03*
X181250000Y-142572000D03*
X182250000Y-142572000D03*
X182750000Y-142572000D03*
X183550000Y-142572000D03*
D16*
X185610000Y-143147000D03*
X175390000Y-143147000D03*
X185610000Y-147077000D03*
X175390000Y-147077000D03*
%TD*%
D17*
%TO.C,J7*%
X170340000Y-124080000D03*
X172880000Y-124080000D03*
X175420000Y-124080000D03*
X177960000Y-124080000D03*
X180500000Y-124080000D03*
X183040000Y-124080000D03*
X185580000Y-124080000D03*
X188120000Y-124080000D03*
%TD*%
%TO.C,TP18*%
X190660000Y-124080000D03*
%TD*%
D18*
%TO.C,TFT1*%
X195760000Y-69998000D03*
X165280000Y-69998000D03*
%TD*%
D19*
%TO.C,H2*%
X197000000Y-147000000D03*
%TD*%
D20*
%TO.C,U2*%
X172750000Y-135400000D03*
D21*
X170250000Y-139900000D03*
D22*
X170250000Y-135400000D03*
D23*
X168250000Y-135400000D03*
%TD*%
D17*
%TO.C,TP13*%
X162500000Y-124550000D03*
%TD*%
D19*
%TO.C,H1*%
X164000000Y-147000000D03*
%TD*%
D24*
%TO.C,C23*%
X180525000Y-126600000D03*
X178975000Y-126600000D03*
%TD*%
D25*
%TO.C,L1*%
X166400000Y-80550000D03*
X166400000Y-86250000D03*
%TD*%
D26*
%TO.C,Q2*%
X198700000Y-131790000D03*
X198050000Y-131790000D03*
X197400000Y-131790000D03*
X196750000Y-131790000D03*
D27*
X198700000Y-128920000D03*
X198050000Y-128920000D03*
D28*
X197725000Y-130110000D03*
D29*
X197725000Y-129250000D03*
D27*
X197400000Y-128920000D03*
X196750000Y-128920000D03*
%TD*%
D30*
%TO.C,TP2*%
X185427179Y-120400000D03*
%TD*%
%TO.C,TP6*%
X170000000Y-116000000D03*
%TD*%
D24*
%TO.C,C6*%
X181525000Y-104250000D03*
X179975000Y-104250000D03*
%TD*%
D31*
%TO.C,J2*%
X196250000Y-106200000D03*
D32*
X196250000Y-102700000D03*
X196250000Y-99200000D03*
X196250000Y-95700000D03*
X196250000Y-92200000D03*
X196250000Y-88700000D03*
X196250000Y-85200000D03*
X196250000Y-81700000D03*
X196250000Y-78200000D03*
%TD*%
D30*
%TO.C,TP9*%
X190800000Y-109750000D03*
%TD*%
D33*
%TO.C,D6*%
X193762500Y-115535000D03*
X193762500Y-117435000D03*
X191562500Y-116485000D03*
%TD*%
D34*
%TO.C,R30*%
X172825000Y-129700000D03*
X174475000Y-129700000D03*
%TD*%
%TO.C,R7*%
X171075000Y-85400000D03*
X172725000Y-85400000D03*
%TD*%
D35*
%TO.C,IC4*%
X178350000Y-107662000D03*
X178850000Y-107662000D03*
X179350000Y-107662000D03*
X179850000Y-107662000D03*
X180350000Y-107662000D03*
X180850000Y-107662000D03*
X181350000Y-107662000D03*
X181850000Y-107662000D03*
X182350000Y-107662000D03*
X182850000Y-107662000D03*
X183350000Y-107662000D03*
X183850000Y-107662000D03*
D36*
X185338000Y-109150000D03*
X185338000Y-109650000D03*
X185338000Y-110150000D03*
X185338000Y-110650000D03*
X185338000Y-111150000D03*
X185338000Y-111650000D03*
X185338000Y-112150000D03*
X185338000Y-112650000D03*
X185338000Y-113150000D03*
X185338000Y-113650000D03*
X185338000Y-114150000D03*
X185338000Y-114650000D03*
D35*
X183850000Y-116138000D03*
X183350000Y-116138000D03*
X182850000Y-116138000D03*
X182350000Y-116138000D03*
X181850000Y-116138000D03*
X181350000Y-116138000D03*
X180850000Y-116138000D03*
X180350000Y-116138000D03*
X179850000Y-116138000D03*
X179350000Y-116138000D03*
X178850000Y-116138000D03*
X178350000Y-116138000D03*
D36*
X176862000Y-114650000D03*
X176862000Y-114150000D03*
X176862000Y-113650000D03*
X176862000Y-113150000D03*
X176862000Y-112650000D03*
X176862000Y-112150000D03*
X176862000Y-111650000D03*
X176862000Y-111150000D03*
X176862000Y-110650000D03*
X176862000Y-110150000D03*
X176862000Y-109650000D03*
X176862000Y-109150000D03*
%TD*%
D37*
%TO.C,J3*%
X196675000Y-124100000D03*
D38*
X194135000Y-124100000D03*
%TD*%
D39*
%TO.C,R37*%
X168500000Y-140625000D03*
X168500000Y-138975000D03*
%TD*%
D40*
%TO.C,C32*%
X174750000Y-80975000D03*
X174750000Y-82525000D03*
%TD*%
D34*
%TO.C,FB1*%
X187250000Y-116050000D03*
X188900000Y-116050000D03*
%TD*%
%TO.C,R8*%
X171075000Y-86900000D03*
X172725000Y-86900000D03*
%TD*%
%TO.C,R15*%
X188875000Y-134050000D03*
X190525000Y-134050000D03*
%TD*%
D39*
%TO.C,R25*%
X196912500Y-117060000D03*
X196912500Y-115410000D03*
%TD*%
D18*
%TO.C,FID3*%
X169000000Y-71000000D03*
%TD*%
D41*
%TO.C,R11*%
X172725000Y-83900000D03*
X171075000Y-83900000D03*
%TD*%
D42*
%TO.C,C11*%
X188925000Y-138750000D03*
X190475000Y-138750000D03*
%TD*%
D24*
%TO.C,C7*%
X172675000Y-89900000D03*
X171125000Y-89900000D03*
%TD*%
D43*
%TO.C,C5*%
X169400000Y-77900000D03*
X169400000Y-76350000D03*
%TD*%
D37*
%TO.C,J4*%
X162500000Y-109310000D03*
D38*
X162500000Y-111850000D03*
X162500000Y-114390000D03*
X162500000Y-116930000D03*
X162500000Y-119470000D03*
X162500000Y-122010000D03*
%TD*%
D42*
%TO.C,C16*%
X184725000Y-117550000D03*
X186275000Y-117550000D03*
%TD*%
D44*
%TO.C,R28*%
X168600000Y-94775000D03*
X168600000Y-96425000D03*
%TD*%
%TO.C,R14*%
X191950000Y-136425000D03*
X191950000Y-138075000D03*
%TD*%
D34*
%TO.C,R46*%
X178925000Y-129600000D03*
X180575000Y-129600000D03*
%TD*%
D45*
%TO.C,D10*%
X186800000Y-85800000D03*
X189600000Y-85800000D03*
%TD*%
D34*
%TO.C,R36*%
X172775000Y-138200000D03*
X174425000Y-138200000D03*
%TD*%
D46*
%TO.C,LS1*%
X166100000Y-127500000D03*
X166100000Y-135500000D03*
%TD*%
D30*
%TO.C,TP15*%
X187250000Y-127500000D03*
%TD*%
D24*
%TO.C,C30*%
X184275000Y-84750000D03*
X182725000Y-84750000D03*
%TD*%
D42*
%TO.C,C35*%
X181925000Y-76000000D03*
X183475000Y-76000000D03*
%TD*%
D30*
%TO.C,TP8*%
X185700000Y-131300000D03*
%TD*%
D41*
%TO.C,R16*%
X174475000Y-131200000D03*
X172825000Y-131200000D03*
%TD*%
D47*
%TO.C,R45*%
X189600000Y-104025000D03*
X189600000Y-102200000D03*
%TD*%
D48*
%TO.C,D3*%
X189000000Y-141200000D03*
X189000000Y-144200000D03*
%TD*%
D30*
%TO.C,TP4*%
X170000000Y-113750000D03*
%TD*%
D41*
%TO.C,R1*%
X190525000Y-92600000D03*
X188875000Y-92600000D03*
%TD*%
%TO.C,R32*%
X180575000Y-128100000D03*
X178925000Y-128100000D03*
%TD*%
D24*
%TO.C,C14*%
X178475000Y-105900000D03*
X176925000Y-105900000D03*
%TD*%
D49*
%TO.C,U3*%
X189700000Y-82700000D03*
X188430000Y-82700000D03*
X187160000Y-82700000D03*
X185890000Y-82700000D03*
D50*
X189700000Y-76910000D03*
X188430000Y-76910000D03*
D51*
X187795000Y-79135000D03*
D50*
X187160000Y-76910000D03*
X185890000Y-76910000D03*
%TD*%
D39*
%TO.C,R23*%
X165500000Y-140625000D03*
X165500000Y-138975000D03*
%TD*%
D52*
%TO.C,IC2*%
X182775000Y-99750000D03*
X182775000Y-100250000D03*
X182775000Y-100750000D03*
X182775000Y-101250000D03*
X180675000Y-101250000D03*
X180675000Y-100750000D03*
X180675000Y-100250000D03*
X180675000Y-99750000D03*
D53*
X181725000Y-100500000D03*
%TD*%
D42*
%TO.C,C19*%
X187300000Y-114550000D03*
X188850000Y-114550000D03*
%TD*%
D41*
%TO.C,R31*%
X180575000Y-134100000D03*
X178925000Y-134100000D03*
%TD*%
D33*
%TO.C,D8*%
X193762500Y-120035000D03*
X193762500Y-121935000D03*
X191562500Y-120985000D03*
%TD*%
D39*
%TO.C,R18*%
X195412500Y-121560000D03*
X195412500Y-119910000D03*
%TD*%
D44*
%TO.C,R34*%
X167000000Y-138975000D03*
X167000000Y-140625000D03*
%TD*%
D18*
%TO.C,FID1*%
X168000000Y-110000000D03*
%TD*%
D24*
%TO.C,C8*%
X172675000Y-88400000D03*
X171125000Y-88400000D03*
%TD*%
%TO.C,C25*%
X196937500Y-118485000D03*
X195387500Y-118485000D03*
%TD*%
D30*
%TO.C,TP16*%
X195250000Y-127500000D03*
%TD*%
D34*
%TO.C,R26*%
X188925000Y-127500000D03*
X190575000Y-127500000D03*
%TD*%
D39*
%TO.C,R22*%
X196912500Y-112560000D03*
X196912500Y-110910000D03*
%TD*%
D41*
%TO.C,R12*%
X194825000Y-140750000D03*
X193175000Y-140750000D03*
%TD*%
D54*
%TO.C,D2*%
X187450000Y-94950000D03*
X187450000Y-96250000D03*
X185350000Y-95600000D03*
%TD*%
D41*
%TO.C,R47*%
X174425000Y-136700000D03*
X172775000Y-136700000D03*
%TD*%
D55*
%TO.C,R42*%
X189200000Y-89000000D03*
X183800000Y-89000000D03*
%TD*%
D41*
%TO.C,R10*%
X183575000Y-96000000D03*
X181925000Y-96000000D03*
%TD*%
D45*
%TO.C,D9*%
X180500000Y-85750000D03*
X177700000Y-85750000D03*
%TD*%
D42*
%TO.C,C34*%
X181925000Y-77400000D03*
X183475000Y-77400000D03*
%TD*%
D41*
%TO.C,R5*%
X190525000Y-95400000D03*
X188875000Y-95400000D03*
%TD*%
%TO.C,R33*%
X167225000Y-97900000D03*
X165575000Y-97900000D03*
%TD*%
D30*
%TO.C,TP12*%
X176600000Y-92500000D03*
%TD*%
D42*
%TO.C,C12*%
X188925000Y-137240000D03*
X190475000Y-137240000D03*
%TD*%
D40*
%TO.C,C17*%
X175500000Y-106725000D03*
X175500000Y-108275000D03*
%TD*%
D42*
%TO.C,C13*%
X188925000Y-135750000D03*
X190475000Y-135750000D03*
%TD*%
D43*
%TO.C,C2*%
X164600000Y-90750000D03*
X164600000Y-89200000D03*
%TD*%
D24*
%TO.C,C28*%
X174425000Y-132700000D03*
X172875000Y-132700000D03*
%TD*%
D34*
%TO.C,R21*%
X165575000Y-93300000D03*
X167225000Y-93300000D03*
%TD*%
D42*
%TO.C,C21*%
X172875000Y-128200000D03*
X174425000Y-128200000D03*
%TD*%
D39*
%TO.C,R29*%
X196912500Y-121560000D03*
X196912500Y-119910000D03*
%TD*%
D34*
%TO.C,R17*%
X184425000Y-133800000D03*
X186075000Y-133800000D03*
%TD*%
D41*
%TO.C,R38*%
X176325000Y-83900000D03*
X174675000Y-83900000D03*
%TD*%
D24*
%TO.C,C29*%
X174375000Y-139700000D03*
X172825000Y-139700000D03*
%TD*%
D56*
%TO.C,D4*%
X183400000Y-79300000D03*
X180400000Y-79300000D03*
%TD*%
D34*
%TO.C,R3*%
X182900000Y-102750000D03*
X184550000Y-102750000D03*
%TD*%
D57*
%TO.C,IC6*%
X185250000Y-137500000D03*
D58*
X187250000Y-138750000D03*
X187250000Y-138250000D03*
X187250000Y-137750000D03*
X187250000Y-137250000D03*
X187250000Y-136750000D03*
X187250000Y-136250000D03*
D59*
X186500000Y-135500000D03*
X186000000Y-135500000D03*
X185500000Y-135500000D03*
X185000000Y-135500000D03*
X184500000Y-135500000D03*
X184000000Y-135500000D03*
D58*
X183250000Y-136250000D03*
X183250000Y-136750000D03*
X183250000Y-137250000D03*
X183250000Y-137750000D03*
X183250000Y-138250000D03*
X183250000Y-138750000D03*
D59*
X184000000Y-139500000D03*
X184500000Y-139500000D03*
X185000000Y-139500000D03*
X185500000Y-139500000D03*
X186000000Y-139500000D03*
X186500000Y-139500000D03*
%TD*%
D43*
%TO.C,C9*%
X196250000Y-142275000D03*
X196250000Y-140725000D03*
%TD*%
D30*
%TO.C,TP7*%
X187650000Y-131300000D03*
%TD*%
D60*
%TO.C,Q1*%
X193475000Y-138725000D03*
X193475000Y-138075000D03*
X193475000Y-137425000D03*
X193475000Y-136775000D03*
D61*
X195000000Y-139240000D03*
D62*
X195700000Y-137750000D03*
D61*
X195000000Y-136260000D03*
%TD*%
D30*
%TO.C,TP3*%
X174300000Y-97500000D03*
%TD*%
D24*
%TO.C,C22*%
X180525000Y-132600000D03*
X178975000Y-132600000D03*
%TD*%
D63*
%TO.C,IC7*%
X193750000Y-131700000D03*
D64*
X194500000Y-130200000D03*
X194000000Y-130200000D03*
X193500000Y-130200000D03*
X193000000Y-130200000D03*
X193000000Y-133200000D03*
X193500000Y-133200000D03*
X194000000Y-133200000D03*
X194500000Y-133200000D03*
%TD*%
D65*
%TO.C,IC8*%
X178676000Y-83200000D03*
X178676000Y-82550000D03*
X178676000Y-81900000D03*
X178676000Y-81250000D03*
X183100000Y-81250000D03*
X183100000Y-81900000D03*
X183100000Y-82550000D03*
X183100000Y-83200000D03*
D66*
X180888000Y-82225000D03*
%TD*%
D17*
%TO.C,J6*%
X198750000Y-72925000D03*
X198750000Y-75465000D03*
%TD*%
D43*
%TO.C,C10*%
X191000000Y-144175000D03*
X191000000Y-142625000D03*
%TD*%
D24*
%TO.C,C15*%
X177475000Y-117550000D03*
X175925000Y-117550000D03*
%TD*%
D39*
%TO.C,R19*%
X195412500Y-117060000D03*
X195412500Y-115410000D03*
%TD*%
D33*
%TO.C,D7*%
X172350000Y-94600000D03*
X172350000Y-96500000D03*
X170150000Y-95550000D03*
%TD*%
D42*
%TO.C,C4*%
X182950000Y-104250000D03*
X184500000Y-104250000D03*
%TD*%
D40*
%TO.C,C1*%
X169700000Y-89200000D03*
X169700000Y-90750000D03*
%TD*%
D34*
%TO.C,R9*%
X181975000Y-98000000D03*
X183625000Y-98000000D03*
%TD*%
D42*
%TO.C,C18*%
X187300000Y-113050000D03*
X188850000Y-113050000D03*
%TD*%
D24*
%TO.C,C24*%
X167175000Y-96400000D03*
X165625000Y-96400000D03*
%TD*%
D30*
%TO.C,TP11*%
X184900000Y-106900000D03*
%TD*%
D54*
%TO.C,D1*%
X187450000Y-92000000D03*
X187450000Y-93300000D03*
X185350000Y-92650000D03*
%TD*%
D34*
%TO.C,R43*%
X178925000Y-131100000D03*
X180575000Y-131100000D03*
%TD*%
D67*
%TO.C,F1*%
X184410000Y-70400000D03*
X190790000Y-70400000D03*
%TD*%
D30*
%TO.C,TP5*%
X170000000Y-118250000D03*
%TD*%
D68*
%TO.C,Q3*%
X163950000Y-140900000D03*
X162050000Y-140900000D03*
X163000000Y-138700000D03*
%TD*%
D13*
%TO.C,IC9*%
X187700000Y-107950000D03*
X187700000Y-107000000D03*
X187700000Y-106050000D03*
X190200000Y-106050000D03*
X190200000Y-107950000D03*
%TD*%
D24*
%TO.C,C31*%
X184300000Y-86260000D03*
X182750000Y-86260000D03*
%TD*%
D39*
%TO.C,R6*%
X182000000Y-94575000D03*
X182000000Y-92925000D03*
%TD*%
D34*
%TO.C,R13*%
X193175000Y-142250000D03*
X194825000Y-142250000D03*
%TD*%
D44*
%TO.C,R2*%
X184475000Y-99675000D03*
X184475000Y-101325000D03*
%TD*%
D40*
%TO.C,C33*%
X176250000Y-80975000D03*
X176250000Y-82525000D03*
%TD*%
D69*
%TO.C,F2*%
X187000000Y-103800000D03*
X187000000Y-98400000D03*
%TD*%
D40*
%TO.C,C3*%
X163600000Y-76375000D03*
X163600000Y-77925000D03*
%TD*%
D17*
%TO.C,J5*%
X162250000Y-72925000D03*
X162250000Y-75465000D03*
%TD*%
D30*
%TO.C,TP10*%
X179400000Y-102250000D03*
%TD*%
D24*
%TO.C,C26*%
X196937500Y-113985000D03*
X195387500Y-113985000D03*
%TD*%
D33*
%TO.C,D5*%
X193762500Y-111035000D03*
X193762500Y-112935000D03*
X191562500Y-111985000D03*
%TD*%
D30*
%TO.C,TP14*%
X170000000Y-120500000D03*
%TD*%
D41*
%TO.C,R35*%
X174475000Y-134200000D03*
X172825000Y-134200000D03*
%TD*%
D30*
%TO.C,TP1*%
X187372699Y-120395198D03*
%TD*%
D41*
%TO.C,R27*%
X193575000Y-127500000D03*
X191925000Y-127500000D03*
%TD*%
D39*
%TO.C,R20*%
X195412500Y-112560000D03*
X195412500Y-110910000D03*
%TD*%
D18*
%TO.C,FID2*%
X172000000Y-143000000D03*
%TD*%
D41*
%TO.C,R48*%
X174425000Y-141200000D03*
X172775000Y-141200000D03*
%TD*%
D70*
%TO.C,IC1*%
X166100000Y-90550000D03*
X166100000Y-89900000D03*
X166100000Y-89250000D03*
X168200000Y-89250000D03*
X168200000Y-89900000D03*
X168200000Y-90550000D03*
D71*
X167150000Y-89900000D03*
%TD*%
D42*
%TO.C,C20*%
X187725000Y-117550000D03*
X189275000Y-117550000D03*
%TD*%
D44*
%TO.C,R4*%
X183500000Y-92925000D03*
X183500000Y-94575000D03*
%TD*%
D30*
%TO.C,TP17*%
X178000000Y-95000000D03*
%TD*%
D41*
%TO.C,R24*%
X167225000Y-94900000D03*
X165575000Y-94900000D03*
%TD*%
D47*
%TO.C,R44*%
X189600000Y-100800000D03*
X189600000Y-98975000D03*
%TD*%
D24*
%TO.C,C27*%
X196937500Y-109485000D03*
X195387500Y-109485000D03*
%TD*%
M02*
