%TF.GenerationSoftware,KiCad,Pcbnew,7.0.10*%
%TF.CreationDate,2025-06-29T16:51:36+02:00*%
%TF.ProjectId,Display_Carrier,44697370-6c61-4795-9f43-617272696572,rev?*%
%TF.SameCoordinates,Original*%
%TF.FileFunction,Copper,L1,Top*%
%TF.FilePolarity,Positive*%
%FSLAX46Y46*%
G04 Gerber Fmt 4.6, Leading zero omitted, Abs format (unit mm)*
G04 Created by KiCad (PCBNEW 7.0.10) date 2025-06-29 16:51:36*
%MOMM*%
%LPD*%
G01*
G04 APERTURE LIST*
G04 Aperture macros list*
%AMRoundRect*
0 Rectangle with rounded corners*
0 $1 Rounding radius*
0 $2 $3 $4 $5 $6 $7 $8 $9 X,Y pos of 4 corners*
0 Add a 4 corners polygon primitive as box body*
4,1,4,$2,$3,$4,$5,$6,$7,$8,$9,$2,$3,0*
0 Add four circle primitives for the rounded corners*
1,1,$1+$1,$2,$3*
1,1,$1+$1,$4,$5*
1,1,$1+$1,$6,$7*
1,1,$1+$1,$8,$9*
0 Add four rect primitives between the rounded corners*
20,1,$1+$1,$2,$3,$4,$5,0*
20,1,$1+$1,$4,$5,$6,$7,0*
20,1,$1+$1,$6,$7,$8,$9,0*
20,1,$1+$1,$8,$9,$2,$3,0*%
G04 Aperture macros list end*
%TA.AperFunction,SMDPad,CuDef*%
%ADD10R,0.400000X2.000000*%
%TD*%
%TA.AperFunction,SMDPad,CuDef*%
%ADD11RoundRect,0.250000X0.262500X0.450000X-0.262500X0.450000X-0.262500X-0.450000X0.262500X-0.450000X0*%
%TD*%
%TA.AperFunction,SMDPad,CuDef*%
%ADD12RoundRect,0.250000X-0.250000X-0.475000X0.250000X-0.475000X0.250000X0.475000X-0.250000X0.475000X0*%
%TD*%
%TA.AperFunction,ComponentPad*%
%ADD13R,1.700000X1.700000*%
%TD*%
%TA.AperFunction,ComponentPad*%
%ADD14O,1.700000X1.700000*%
%TD*%
%TA.AperFunction,ViaPad*%
%ADD15C,0.800000*%
%TD*%
%TA.AperFunction,Conductor*%
%ADD16C,0.400000*%
%TD*%
%TA.AperFunction,Conductor*%
%ADD17C,0.800000*%
%TD*%
%TA.AperFunction,Conductor*%
%ADD18C,0.600000*%
%TD*%
%TA.AperFunction,Conductor*%
%ADD19C,0.500000*%
%TD*%
G04 APERTURE END LIST*
D10*
%TO.P,J2,1,Pin_1*%
%TO.N,GND*%
X106250000Y-80000000D03*
%TO.P,J2,2,Pin_2*%
%TO.N,Net-(J2-Pin_2)*%
X105450000Y-80000000D03*
%TO.P,J2,3,Pin_3*%
%TO.N,+3.3V*%
X104650000Y-80000000D03*
%TO.P,J2,4,Pin_4*%
X103850000Y-80000000D03*
%TO.P,J2,5,Pin_5*%
%TO.N,GND*%
X103050000Y-80000000D03*
%TO.P,J2,6,Pin_6*%
X102250000Y-80000000D03*
%TO.P,J2,7,Pin_7*%
%TO.N,/DC*%
X101450000Y-80000000D03*
%TO.P,J2,8,Pin_8*%
%TO.N,/CS*%
X100650000Y-80000000D03*
%TO.P,J2,9,Pin_9*%
%TO.N,/SCK*%
X99850000Y-80000000D03*
%TO.P,J2,10,Pin_10*%
%TO.N,/MOSI*%
X99050000Y-80000000D03*
%TO.P,J2,11,Pin_11*%
%TO.N,/RESET*%
X98250000Y-80000000D03*
%TO.P,J2,12,Pin_12*%
%TO.N,GND*%
X97450000Y-80000000D03*
%TD*%
D11*
%TO.P,R1,1*%
%TO.N,+3.3V*%
X87162500Y-97075000D03*
%TO.P,R1,2*%
%TO.N,/RESET*%
X85337500Y-97075000D03*
%TD*%
%TO.P,R2,1*%
%TO.N,Net-(J2-Pin_2)*%
X112112500Y-98975000D03*
%TO.P,R2,2*%
%TO.N,GND*%
X110287500Y-98975000D03*
%TD*%
D12*
%TO.P,C1,1*%
%TO.N,GND*%
X85300000Y-98975000D03*
%TO.P,C1,2*%
%TO.N,+3.3V*%
X87200000Y-98975000D03*
%TD*%
D13*
%TO.P,J1,1,Pin_1*%
%TO.N,+3.3V*%
X89840000Y-98475000D03*
D14*
%TO.P,J1,2,Pin_2*%
%TO.N,GND*%
X92380000Y-98475000D03*
%TO.P,J1,3,Pin_3*%
%TO.N,/SCK*%
X94920000Y-98475000D03*
%TO.P,J1,4,Pin_4*%
%TO.N,/MISO*%
X97460000Y-98475000D03*
%TO.P,J1,5,Pin_5*%
%TO.N,/MOSI*%
X100000000Y-98475000D03*
%TO.P,J1,6,Pin_6*%
%TO.N,/CS*%
X102540000Y-98475000D03*
%TO.P,J1,7,Pin_7*%
%TO.N,/RESET*%
X105080000Y-98475000D03*
%TO.P,J1,8,Pin_8*%
%TO.N,/DC*%
X107620000Y-98475000D03*
%TD*%
D15*
%TO.N,GND*%
X103500000Y-84362735D03*
X103500000Y-85375000D03*
%TO.N,+3.3V*%
X104243904Y-78483096D03*
%TO.N,/SCK*%
X99850000Y-87150000D03*
%TO.N,/MOSI*%
X99051944Y-89350000D03*
%TO.N,/CS*%
X100650000Y-88150000D03*
%TO.N,/RESET*%
X86265212Y-95918107D03*
X98250000Y-81711000D03*
%TD*%
D16*
%TO.N,Net-(J2-Pin_2)*%
X105450000Y-92304000D02*
X105450000Y-80000000D01*
X112112500Y-98966500D02*
X105450000Y-92304000D01*
X112112500Y-98975000D02*
X112112500Y-98966500D01*
%TO.N,GND*%
X109537500Y-99725000D02*
X93630000Y-99725000D01*
X110287500Y-98975000D02*
X109537500Y-99725000D01*
X93630000Y-99725000D02*
X92380000Y-98475000D01*
X105125000Y-77475000D02*
X103500000Y-77475000D01*
X88680000Y-94775000D02*
X92380000Y-98475000D01*
X84250000Y-94775000D02*
X88680000Y-94775000D01*
X106250000Y-80000000D02*
X106250000Y-81250000D01*
X97714000Y-78409000D02*
X97450000Y-78673000D01*
X97450000Y-93405000D02*
X92380000Y-98475000D01*
D17*
X102650000Y-79475000D02*
X102650000Y-80000000D01*
D16*
X84000000Y-95025000D02*
X84250000Y-94775000D01*
X103500000Y-77475000D02*
X102650000Y-78325000D01*
X106250000Y-78600000D02*
X105125000Y-77475000D01*
X97450000Y-78673000D02*
X97450000Y-80000000D01*
X102650000Y-78325000D02*
X102650000Y-79475000D01*
X97450000Y-80000000D02*
X97450000Y-93405000D01*
X106250000Y-80000000D02*
X106250000Y-78600000D01*
X102484000Y-78409000D02*
X97714000Y-78409000D01*
X103050000Y-80000000D02*
X102250000Y-80000000D01*
X84450000Y-98975000D02*
X84000000Y-98525000D01*
X85300000Y-99075000D02*
X85300000Y-99014000D01*
X85200000Y-98975000D02*
X84450000Y-98975000D01*
X85300000Y-98875000D02*
X85200000Y-98975000D01*
D17*
X102650000Y-78575000D02*
X102650000Y-79475000D01*
D16*
X102650000Y-80000000D02*
X102250000Y-80000000D01*
X84000000Y-98525000D02*
X84000000Y-95025000D01*
X102650000Y-78575000D02*
X102484000Y-78409000D01*
%TO.N,+3.3V*%
X104650000Y-80000000D02*
X103850000Y-80000000D01*
D18*
X87509000Y-98475000D02*
X87200000Y-98784000D01*
D17*
X104243904Y-79993904D02*
X104250000Y-80000000D01*
D18*
X89840000Y-98475000D02*
X87509000Y-98475000D01*
D16*
X87059000Y-98933000D02*
X87109000Y-98983000D01*
D18*
X87200000Y-98975000D02*
X87109000Y-98884000D01*
D19*
X87175000Y-96925000D02*
X87175000Y-98850000D01*
D18*
X87200000Y-98784000D02*
X87200000Y-98975000D01*
D16*
X103850000Y-80000000D02*
X104250000Y-80000000D01*
X87175000Y-98850000D02*
X87200000Y-98875000D01*
D17*
X104243904Y-78483096D02*
X104243904Y-79993904D01*
D18*
X87109000Y-98884000D02*
X87109000Y-97205000D01*
D16*
%TO.N,/SCK*%
X99850000Y-87150000D02*
X99850000Y-80000000D01*
%TO.N,/MOSI*%
X99051944Y-89350000D02*
X99050000Y-89348056D01*
X99050000Y-89348056D02*
X99050000Y-80000000D01*
%TO.N,/CS*%
X100650000Y-80000000D02*
X100650000Y-88150000D01*
%TO.N,/RESET*%
X98250000Y-80000000D02*
X98251944Y-80001944D01*
X98251944Y-80001944D02*
X98251944Y-90386944D01*
X98251944Y-90386944D02*
X105080000Y-97215000D01*
X105080000Y-97215000D02*
X105080000Y-98475000D01*
X86265212Y-95918107D02*
X85337500Y-96845819D01*
X85337500Y-96845819D02*
X85337500Y-97083500D01*
X85337500Y-97083500D02*
X85459000Y-97205000D01*
%TO.N,/DC*%
X101450000Y-91200000D02*
X107620000Y-97370000D01*
X101450000Y-80000000D02*
X101450000Y-91200000D01*
X107620000Y-97370000D02*
X107620000Y-98475000D01*
%TD*%
%TA.AperFunction,Conductor*%
%TO.N,GND*%
G36*
X115784042Y-41833764D02*
G01*
X115863586Y-41838978D01*
X115863767Y-41838991D01*
X116041587Y-41851709D01*
X116056904Y-41853772D01*
X116168378Y-41875945D01*
X116170437Y-41876374D01*
X116310240Y-41906786D01*
X116323703Y-41910522D01*
X116437725Y-41949228D01*
X116441074Y-41950420D01*
X116568808Y-41998062D01*
X116580300Y-42003024D01*
X116690687Y-42057461D01*
X116695187Y-42059798D01*
X116812478Y-42123844D01*
X116821942Y-42129574D01*
X116925269Y-42198615D01*
X116930688Y-42202450D01*
X117036727Y-42281830D01*
X117044145Y-42287844D01*
X117137976Y-42370131D01*
X117143898Y-42375678D01*
X117237320Y-42469100D01*
X117242867Y-42475022D01*
X117325150Y-42568848D01*
X117331173Y-42576278D01*
X117368691Y-42626396D01*
X117410548Y-42682310D01*
X117414383Y-42687729D01*
X117483424Y-42791056D01*
X117489154Y-42800520D01*
X117553183Y-42917779D01*
X117555556Y-42922348D01*
X117565511Y-42942534D01*
X117609969Y-43032687D01*
X117614938Y-43044196D01*
X117662556Y-43171863D01*
X117663793Y-43175338D01*
X117702470Y-43289276D01*
X117706217Y-43302777D01*
X117736613Y-43442508D01*
X117737064Y-43444675D01*
X117759224Y-43556080D01*
X117761291Y-43571425D01*
X117773995Y-43749046D01*
X117774045Y-43749781D01*
X117779234Y-43828941D01*
X117779500Y-43837052D01*
X117779500Y-97994947D01*
X117779234Y-98003058D01*
X117774045Y-98082217D01*
X117773995Y-98082952D01*
X117761291Y-98260573D01*
X117759224Y-98275918D01*
X117737064Y-98387323D01*
X117736613Y-98389490D01*
X117706217Y-98529221D01*
X117702470Y-98542722D01*
X117663793Y-98656660D01*
X117662556Y-98660135D01*
X117614938Y-98787802D01*
X117609969Y-98799311D01*
X117555564Y-98909635D01*
X117553183Y-98914219D01*
X117489154Y-99031478D01*
X117483424Y-99040942D01*
X117414383Y-99144269D01*
X117410548Y-99149688D01*
X117331181Y-99255711D01*
X117325142Y-99263160D01*
X117242867Y-99356976D01*
X117237320Y-99362898D01*
X117143898Y-99456320D01*
X117137976Y-99461867D01*
X117044160Y-99544142D01*
X117036711Y-99550181D01*
X116930688Y-99629548D01*
X116925269Y-99633383D01*
X116821942Y-99702424D01*
X116812478Y-99708154D01*
X116695219Y-99772183D01*
X116690635Y-99774564D01*
X116580311Y-99828969D01*
X116568802Y-99833938D01*
X116441135Y-99881556D01*
X116437660Y-99882793D01*
X116323722Y-99921470D01*
X116310221Y-99925217D01*
X116170490Y-99955613D01*
X116168323Y-99956064D01*
X116056918Y-99978224D01*
X116041573Y-99980291D01*
X115863952Y-99992995D01*
X115863217Y-99993045D01*
X115784058Y-99998234D01*
X115775947Y-99998500D01*
X112815954Y-99998500D01*
X112748915Y-99978815D01*
X112703160Y-99926011D01*
X112693216Y-99856853D01*
X112722241Y-99793297D01*
X112728273Y-99786819D01*
X112732542Y-99782548D01*
X112732546Y-99782546D01*
X112818796Y-99667331D01*
X112869091Y-99532483D01*
X112875500Y-99472873D01*
X112875499Y-98477128D01*
X112869091Y-98417517D01*
X112857829Y-98387323D01*
X112818797Y-98282671D01*
X112818793Y-98282664D01*
X112732547Y-98167455D01*
X112732544Y-98167452D01*
X112617335Y-98081206D01*
X112617328Y-98081202D01*
X112482482Y-98030908D01*
X112482483Y-98030908D01*
X112422883Y-98024501D01*
X112422881Y-98024500D01*
X112422873Y-98024500D01*
X112422865Y-98024500D01*
X111858966Y-98024500D01*
X111791927Y-98004815D01*
X111771285Y-97988181D01*
X105936819Y-92153715D01*
X105903334Y-92092392D01*
X105900500Y-92066034D01*
X105900500Y-81374000D01*
X105920185Y-81306961D01*
X105972989Y-81261206D01*
X106024500Y-81250000D01*
X106474626Y-81250000D01*
X106474628Y-81249999D01*
X106547540Y-81235496D01*
X106547544Y-81235494D01*
X106630239Y-81180239D01*
X106685494Y-81097544D01*
X106685496Y-81097540D01*
X106699999Y-81024628D01*
X106700000Y-81024626D01*
X106700000Y-80626777D01*
X106160904Y-80087681D01*
X106127419Y-80026358D01*
X106129304Y-80000000D01*
X106426777Y-80000000D01*
X106699999Y-80273223D01*
X106700000Y-80273222D01*
X106700000Y-79726777D01*
X106699999Y-79726776D01*
X106426777Y-79999999D01*
X106426777Y-80000000D01*
X106129304Y-80000000D01*
X106132403Y-79956666D01*
X106160904Y-79912319D01*
X106699999Y-79373223D01*
X106700000Y-79373222D01*
X106700000Y-78975373D01*
X106699999Y-78975371D01*
X106685496Y-78902459D01*
X106685494Y-78902455D01*
X106630239Y-78819760D01*
X106547544Y-78764505D01*
X106547540Y-78764503D01*
X106474627Y-78750000D01*
X106025373Y-78750000D01*
X105952459Y-78764503D01*
X105952454Y-78764505D01*
X105919338Y-78786632D01*
X105852660Y-78807508D01*
X105785281Y-78789022D01*
X105781561Y-78786631D01*
X105747742Y-78764035D01*
X105747735Y-78764032D01*
X105674677Y-78749500D01*
X105674674Y-78749500D01*
X105225326Y-78749500D01*
X105225323Y-78749500D01*
X105152264Y-78764032D01*
X105152257Y-78764035D01*
X105118888Y-78786331D01*
X105052210Y-78807208D01*
X104984830Y-78788722D01*
X104981142Y-78786352D01*
X104949511Y-78765217D01*
X104904707Y-78711604D01*
X104894404Y-78662116D01*
X104894404Y-78529947D01*
X104895308Y-78515000D01*
X104899182Y-78483096D01*
X104895041Y-78448994D01*
X104894438Y-78442445D01*
X104894404Y-78442175D01*
X104894404Y-78442171D01*
X104889484Y-78403227D01*
X104880141Y-78326278D01*
X104879750Y-78323057D01*
X104878975Y-78320043D01*
X104878975Y-78320038D01*
X104850800Y-78248878D01*
X104850159Y-78247222D01*
X104824126Y-78178577D01*
X104822478Y-78175438D01*
X104819912Y-78169844D01*
X104818470Y-78167222D01*
X104775679Y-78108324D01*
X104773947Y-78105879D01*
X104734387Y-78048566D01*
X104734382Y-78048562D01*
X104729410Y-78042949D01*
X104729796Y-78042606D01*
X104727304Y-78039861D01*
X104727211Y-78039950D01*
X104721866Y-78034258D01*
X104668662Y-77990244D01*
X104665477Y-77987517D01*
X104616150Y-77943818D01*
X104616148Y-77943816D01*
X104616144Y-77943813D01*
X104616138Y-77943810D01*
X104609975Y-77939556D01*
X104610008Y-77939507D01*
X104596310Y-77930389D01*
X104595229Y-77929494D01*
X104536152Y-77901695D01*
X104531325Y-77899294D01*
X104476273Y-77870401D01*
X104476271Y-77870400D01*
X104474794Y-77870036D01*
X104474315Y-77869918D01*
X104451210Y-77861725D01*
X104446517Y-77859517D01*
X104386009Y-77847973D01*
X104379601Y-77846573D01*
X104322889Y-77832596D01*
X104317114Y-77832596D01*
X104293882Y-77830400D01*
X104285074Y-77828720D01*
X104285071Y-77828719D01*
X104227361Y-77832351D01*
X104219575Y-77832596D01*
X104164919Y-77832596D01*
X104155637Y-77834883D01*
X104133758Y-77838240D01*
X104121042Y-77839040D01*
X104121041Y-77839040D01*
X104069609Y-77855750D01*
X104060973Y-77858214D01*
X104011540Y-77870399D01*
X104011537Y-77870400D01*
X103999737Y-77876593D01*
X103980441Y-77884723D01*
X103964734Y-77889827D01*
X103922231Y-77916800D01*
X103913418Y-77921897D01*
X103871666Y-77943811D01*
X103858865Y-77955151D01*
X103843089Y-77967025D01*
X103825965Y-77977892D01*
X103825963Y-77977894D01*
X103794070Y-78011855D01*
X103785910Y-78019781D01*
X103753427Y-78048559D01*
X103753419Y-78048567D01*
X103741567Y-78065738D01*
X103729917Y-78080172D01*
X103713457Y-78097701D01*
X103713452Y-78097707D01*
X103692822Y-78135233D01*
X103686214Y-78145931D01*
X103663682Y-78178575D01*
X103654949Y-78201600D01*
X103647673Y-78217357D01*
X103634278Y-78241724D01*
X103634275Y-78241731D01*
X103624554Y-78279589D01*
X103620395Y-78292715D01*
X103607666Y-78326280D01*
X103604245Y-78354455D01*
X103601254Y-78370339D01*
X103593405Y-78400912D01*
X103593404Y-78400920D01*
X103593404Y-78436244D01*
X103592500Y-78451190D01*
X103588626Y-78483095D01*
X103592500Y-78515000D01*
X103593404Y-78529947D01*
X103593404Y-78670263D01*
X103573719Y-78737302D01*
X103538292Y-78773367D01*
X103518437Y-78786633D01*
X103451759Y-78807509D01*
X103384380Y-78789023D01*
X103380658Y-78786631D01*
X103347544Y-78764504D01*
X103347540Y-78764503D01*
X103274627Y-78750000D01*
X102825373Y-78750000D01*
X102752459Y-78764503D01*
X102752455Y-78764505D01*
X102718891Y-78786932D01*
X102652213Y-78807810D01*
X102584833Y-78789325D01*
X102581109Y-78786932D01*
X102547544Y-78764505D01*
X102547540Y-78764503D01*
X102474627Y-78750000D01*
X102025373Y-78750000D01*
X101952459Y-78764503D01*
X101952454Y-78764505D01*
X101919338Y-78786632D01*
X101852660Y-78807508D01*
X101785281Y-78789022D01*
X101781561Y-78786631D01*
X101747742Y-78764035D01*
X101747735Y-78764032D01*
X101674677Y-78749500D01*
X101674674Y-78749500D01*
X101225326Y-78749500D01*
X101225323Y-78749500D01*
X101152264Y-78764032D01*
X101152260Y-78764033D01*
X101118890Y-78786331D01*
X101052212Y-78807208D01*
X100984832Y-78788723D01*
X100981110Y-78786331D01*
X100947739Y-78764033D01*
X100947735Y-78764032D01*
X100874677Y-78749500D01*
X100874674Y-78749500D01*
X100425326Y-78749500D01*
X100425323Y-78749500D01*
X100352264Y-78764032D01*
X100352260Y-78764033D01*
X100318890Y-78786331D01*
X100252212Y-78807208D01*
X100184832Y-78788723D01*
X100181110Y-78786331D01*
X100147739Y-78764033D01*
X100147735Y-78764032D01*
X100074677Y-78749500D01*
X100074674Y-78749500D01*
X99625326Y-78749500D01*
X99625323Y-78749500D01*
X99552264Y-78764032D01*
X99552260Y-78764033D01*
X99518890Y-78786331D01*
X99452212Y-78807208D01*
X99384832Y-78788723D01*
X99381110Y-78786331D01*
X99347739Y-78764033D01*
X99347735Y-78764032D01*
X99274677Y-78749500D01*
X99274674Y-78749500D01*
X98825326Y-78749500D01*
X98825323Y-78749500D01*
X98752264Y-78764032D01*
X98752260Y-78764033D01*
X98718890Y-78786331D01*
X98652212Y-78807208D01*
X98584832Y-78788723D01*
X98581110Y-78786331D01*
X98547739Y-78764033D01*
X98547735Y-78764032D01*
X98474677Y-78749500D01*
X98474674Y-78749500D01*
X98025326Y-78749500D01*
X98025323Y-78749500D01*
X97952264Y-78764032D01*
X97952257Y-78764034D01*
X97918437Y-78786632D01*
X97851759Y-78807508D01*
X97784379Y-78789022D01*
X97780660Y-78786631D01*
X97747546Y-78764505D01*
X97747540Y-78764503D01*
X97674627Y-78750000D01*
X97225373Y-78750000D01*
X97152459Y-78764503D01*
X97152455Y-78764505D01*
X97069760Y-78819760D01*
X97014505Y-78902455D01*
X97014503Y-78902459D01*
X97000000Y-78975371D01*
X97000000Y-79373223D01*
X97539096Y-79912319D01*
X97572581Y-79973642D01*
X97567597Y-80043334D01*
X97539096Y-80087681D01*
X97000000Y-80626776D01*
X97000000Y-81024628D01*
X97014503Y-81097540D01*
X97014505Y-81097544D01*
X97069760Y-81180239D01*
X97152455Y-81235494D01*
X97152459Y-81235496D01*
X97225371Y-81249999D01*
X97225374Y-81250000D01*
X97549479Y-81250000D01*
X97616518Y-81269685D01*
X97662273Y-81322489D01*
X97672217Y-81391647D01*
X97665421Y-81417971D01*
X97613763Y-81554181D01*
X97594722Y-81710999D01*
X97594722Y-81711000D01*
X97613762Y-81867818D01*
X97669780Y-82015523D01*
X97759517Y-82145530D01*
X97759662Y-82145659D01*
X97759739Y-82145781D01*
X97764491Y-82151145D01*
X97763599Y-82151934D01*
X97796794Y-82204844D01*
X97801444Y-82238481D01*
X97801444Y-90354682D01*
X97800664Y-90368567D01*
X97796673Y-90403980D01*
X97807299Y-90460140D01*
X97808076Y-90464709D01*
X97816596Y-90521235D01*
X97819106Y-90529371D01*
X97821920Y-90537414D01*
X97848632Y-90587955D01*
X97850720Y-90592093D01*
X97875518Y-90643585D01*
X97880306Y-90650609D01*
X97885375Y-90657476D01*
X97885378Y-90657482D01*
X97885382Y-90657486D01*
X97925791Y-90697895D01*
X97929008Y-90701234D01*
X97967891Y-90743140D01*
X97975154Y-90748932D01*
X97974633Y-90749585D01*
X97986874Y-90758978D01*
X104554598Y-97326702D01*
X104588083Y-97388025D01*
X104583099Y-97457717D01*
X104541227Y-97513650D01*
X104532195Y-97519810D01*
X104413957Y-97593020D01*
X104263237Y-97730418D01*
X104140327Y-97893178D01*
X104049422Y-98075739D01*
X104049417Y-98075752D01*
X103993602Y-98271917D01*
X103974785Y-98474999D01*
X103974785Y-98475000D01*
X103993602Y-98678082D01*
X104049417Y-98874247D01*
X104049422Y-98874260D01*
X104140327Y-99056821D01*
X104263237Y-99219581D01*
X104413958Y-99356980D01*
X104413960Y-99356982D01*
X104423515Y-99362898D01*
X104587363Y-99464348D01*
X104777544Y-99538024D01*
X104978024Y-99575500D01*
X104978026Y-99575500D01*
X105181974Y-99575500D01*
X105181976Y-99575500D01*
X105382456Y-99538024D01*
X105572637Y-99464348D01*
X105746041Y-99356981D01*
X105896764Y-99219579D01*
X106019673Y-99056821D01*
X106110582Y-98874250D01*
X106166397Y-98678083D01*
X106185215Y-98475000D01*
X106179888Y-98417516D01*
X106166397Y-98271917D01*
X106151866Y-98220848D01*
X106110582Y-98075750D01*
X106110139Y-98074861D01*
X106060415Y-97975000D01*
X106019673Y-97893179D01*
X105896764Y-97730421D01*
X105896762Y-97730418D01*
X105746042Y-97593020D01*
X105746041Y-97593019D01*
X105589221Y-97495920D01*
X105542587Y-97443893D01*
X105530500Y-97390494D01*
X105530500Y-97247261D01*
X105531280Y-97233376D01*
X105531889Y-97227976D01*
X105535270Y-97197965D01*
X105524633Y-97141753D01*
X105523864Y-97137219D01*
X105520268Y-97113358D01*
X105515348Y-97080713D01*
X105515346Y-97080709D01*
X105512836Y-97072571D01*
X105510024Y-97064534D01*
X105510023Y-97064528D01*
X105483285Y-97013941D01*
X105481223Y-97009854D01*
X105456425Y-96958358D01*
X105456423Y-96958356D01*
X105456423Y-96958355D01*
X105451642Y-96951342D01*
X105446566Y-96944465D01*
X105446565Y-96944462D01*
X105406165Y-96904062D01*
X105402947Y-96900721D01*
X105364060Y-96858809D01*
X105356792Y-96853014D01*
X105357312Y-96852361D01*
X105345067Y-96842964D01*
X98738763Y-90236660D01*
X98705278Y-90175337D01*
X98702444Y-90148979D01*
X98702444Y-90092099D01*
X98722129Y-90025060D01*
X98774933Y-89979305D01*
X98844091Y-89969361D01*
X98856116Y-89971701D01*
X98972959Y-90000500D01*
X99130929Y-90000500D01*
X99284309Y-89962696D01*
X99424184Y-89889283D01*
X99542427Y-89784530D01*
X99632164Y-89654523D01*
X99688181Y-89506818D01*
X99707222Y-89350000D01*
X99688181Y-89193182D01*
X99632164Y-89045477D01*
X99542427Y-88915470D01*
X99542425Y-88915468D01*
X99542273Y-88915333D01*
X99542192Y-88915205D01*
X99537453Y-88909855D01*
X99538342Y-88909066D01*
X99505146Y-88856144D01*
X99500500Y-88822518D01*
X99500500Y-87892099D01*
X99520185Y-87825060D01*
X99572989Y-87779305D01*
X99642147Y-87769361D01*
X99654172Y-87771701D01*
X99771015Y-87800500D01*
X99907192Y-87800500D01*
X99974231Y-87820185D01*
X100019986Y-87872989D01*
X100029930Y-87942147D01*
X100023134Y-87968470D01*
X100013763Y-87993178D01*
X100013763Y-87993180D01*
X99994722Y-88149999D01*
X99994722Y-88150000D01*
X100013762Y-88306818D01*
X100069780Y-88454523D01*
X100159517Y-88584530D01*
X100277760Y-88689283D01*
X100277762Y-88689284D01*
X100417634Y-88762696D01*
X100571014Y-88800500D01*
X100571015Y-88800500D01*
X100728985Y-88800500D01*
X100845825Y-88771702D01*
X100915628Y-88774771D01*
X100972690Y-88815091D01*
X100998895Y-88879861D01*
X100999500Y-88892099D01*
X100999500Y-91167738D01*
X100998720Y-91181623D01*
X100994729Y-91217036D01*
X101005355Y-91273196D01*
X101006132Y-91277765D01*
X101014652Y-91334291D01*
X101017162Y-91342427D01*
X101019976Y-91350470D01*
X101046688Y-91401011D01*
X101048776Y-91405149D01*
X101073574Y-91456641D01*
X101078362Y-91463665D01*
X101083431Y-91470532D01*
X101083434Y-91470538D01*
X101083438Y-91470542D01*
X101123847Y-91510951D01*
X101127064Y-91514290D01*
X101165947Y-91556196D01*
X101173210Y-91561988D01*
X101172689Y-91562641D01*
X101184930Y-91572034D01*
X106998871Y-97385974D01*
X107032356Y-97447297D01*
X107027372Y-97516989D01*
X106985500Y-97572922D01*
X106976468Y-97579082D01*
X106953957Y-97593020D01*
X106803237Y-97730418D01*
X106680327Y-97893178D01*
X106589422Y-98075739D01*
X106589417Y-98075752D01*
X106533602Y-98271917D01*
X106514785Y-98474999D01*
X106514785Y-98475000D01*
X106533602Y-98678082D01*
X106589417Y-98874247D01*
X106589422Y-98874260D01*
X106680327Y-99056821D01*
X106803237Y-99219581D01*
X106953958Y-99356980D01*
X106953960Y-99356982D01*
X106963515Y-99362898D01*
X107127363Y-99464348D01*
X107317544Y-99538024D01*
X107518024Y-99575500D01*
X107518026Y-99575500D01*
X107721974Y-99575500D01*
X107721976Y-99575500D01*
X107922456Y-99538024D01*
X108112637Y-99464348D01*
X108286041Y-99356981D01*
X108436764Y-99219579D01*
X108559673Y-99056821D01*
X108650582Y-98874250D01*
X108657482Y-98850000D01*
X109525000Y-98850000D01*
X110162500Y-98850000D01*
X110162500Y-98025000D01*
X109977155Y-98025000D01*
X109917627Y-98031401D01*
X109917620Y-98031403D01*
X109782913Y-98081645D01*
X109782906Y-98081649D01*
X109667812Y-98167809D01*
X109667809Y-98167812D01*
X109581649Y-98282906D01*
X109581645Y-98282913D01*
X109531403Y-98417620D01*
X109531401Y-98417627D01*
X109525000Y-98477155D01*
X109525000Y-98850000D01*
X108657482Y-98850000D01*
X108706397Y-98678083D01*
X108725215Y-98475000D01*
X108719888Y-98417516D01*
X108706397Y-98271917D01*
X108691866Y-98220848D01*
X108650582Y-98075750D01*
X108650139Y-98074861D01*
X108600415Y-97975000D01*
X108559673Y-97893179D01*
X108436764Y-97730421D01*
X108436762Y-97730418D01*
X108286042Y-97593020D01*
X108286041Y-97593019D01*
X108130461Y-97496688D01*
X108083826Y-97444660D01*
X108072519Y-97377376D01*
X108075270Y-97352965D01*
X108064637Y-97296770D01*
X108063864Y-97292217D01*
X108055348Y-97235713D01*
X108055347Y-97235711D01*
X108055347Y-97235709D01*
X108052831Y-97227552D01*
X108050024Y-97219528D01*
X108023306Y-97168977D01*
X108021215Y-97164835D01*
X107996425Y-97113358D01*
X107996424Y-97113357D01*
X107996424Y-97113356D01*
X107991642Y-97106342D01*
X107986567Y-97099466D01*
X107986566Y-97099463D01*
X107946165Y-97059062D01*
X107942947Y-97055721D01*
X107904060Y-97013809D01*
X107896792Y-97008014D01*
X107897312Y-97007361D01*
X107885067Y-96997964D01*
X101936819Y-91049716D01*
X101903334Y-90988393D01*
X101900500Y-90962035D01*
X101900500Y-81374000D01*
X101920185Y-81306961D01*
X101972989Y-81261206D01*
X102024500Y-81250000D01*
X102474626Y-81250000D01*
X102474628Y-81249999D01*
X102547540Y-81235496D01*
X102547545Y-81235494D01*
X102581108Y-81213068D01*
X102647785Y-81192189D01*
X102715165Y-81210673D01*
X102718892Y-81213068D01*
X102752454Y-81235494D01*
X102752459Y-81235496D01*
X102825371Y-81249999D01*
X102825374Y-81250000D01*
X103274626Y-81250000D01*
X103274628Y-81249999D01*
X103347540Y-81235496D01*
X103347544Y-81235495D01*
X103380658Y-81213369D01*
X103447335Y-81192491D01*
X103514715Y-81210975D01*
X103518438Y-81213368D01*
X103551554Y-81235494D01*
X103552260Y-81235966D01*
X103552263Y-81235966D01*
X103552264Y-81235967D01*
X103625321Y-81250499D01*
X103625324Y-81250500D01*
X103625326Y-81250500D01*
X104074676Y-81250500D01*
X104074677Y-81250499D01*
X104147735Y-81235967D01*
X104147737Y-81235967D01*
X104147737Y-81235966D01*
X104147740Y-81235966D01*
X104181112Y-81213667D01*
X104247786Y-81192791D01*
X104315166Y-81211275D01*
X104318829Y-81213628D01*
X104352260Y-81235966D01*
X104352262Y-81235966D01*
X104352263Y-81235967D01*
X104425321Y-81250499D01*
X104425324Y-81250500D01*
X104875500Y-81250500D01*
X104942539Y-81270185D01*
X104988294Y-81322989D01*
X104999500Y-81374500D01*
X104999500Y-92271738D01*
X104998720Y-92285623D01*
X104994729Y-92321036D01*
X105005355Y-92377196D01*
X105006132Y-92381765D01*
X105014652Y-92438291D01*
X105017162Y-92446427D01*
X105019976Y-92454470D01*
X105046688Y-92505011D01*
X105048776Y-92509149D01*
X105073574Y-92560641D01*
X105078362Y-92567665D01*
X105083431Y-92574532D01*
X105083434Y-92574538D01*
X105083438Y-92574542D01*
X105123847Y-92614951D01*
X105127064Y-92618290D01*
X105165947Y-92660196D01*
X105173210Y-92665988D01*
X105172689Y-92666641D01*
X105184930Y-92676034D01*
X108122480Y-95613584D01*
X110385517Y-97876620D01*
X110419002Y-97937943D01*
X110414018Y-98007635D01*
X110412500Y-98009997D01*
X110412500Y-98850000D01*
X111050000Y-98850000D01*
X111050000Y-98840465D01*
X111069685Y-98773426D01*
X111122489Y-98727671D01*
X111191647Y-98717727D01*
X111255203Y-98746752D01*
X111261681Y-98752784D01*
X111313181Y-98804284D01*
X111346666Y-98865607D01*
X111349500Y-98891965D01*
X111349500Y-99472870D01*
X111349501Y-99472876D01*
X111355908Y-99532483D01*
X111406202Y-99667328D01*
X111406206Y-99667335D01*
X111492452Y-99782544D01*
X111496727Y-99786819D01*
X111530212Y-99848142D01*
X111525228Y-99917834D01*
X111483356Y-99973767D01*
X111417892Y-99998184D01*
X111409046Y-99998500D01*
X110990240Y-99998500D01*
X110923201Y-99978815D01*
X110877446Y-99926011D01*
X110867502Y-99856853D01*
X110896527Y-99793297D01*
X110902559Y-99786819D01*
X110907190Y-99782187D01*
X110993350Y-99667093D01*
X110993354Y-99667086D01*
X111043596Y-99532379D01*
X111043598Y-99532372D01*
X111049999Y-99472844D01*
X111050000Y-99472827D01*
X111050000Y-99100000D01*
X109525000Y-99100000D01*
X109525000Y-99472844D01*
X109531401Y-99532372D01*
X109531403Y-99532379D01*
X109581645Y-99667086D01*
X109581649Y-99667093D01*
X109667809Y-99782187D01*
X109672441Y-99786819D01*
X109705926Y-99848142D01*
X109700942Y-99917834D01*
X109659070Y-99973767D01*
X109593606Y-99998184D01*
X109584760Y-99998500D01*
X87912320Y-99998500D01*
X87845281Y-99978815D01*
X87799526Y-99926011D01*
X87789582Y-99856853D01*
X87813054Y-99800189D01*
X87893793Y-99692335D01*
X87893792Y-99692335D01*
X87893796Y-99692331D01*
X87944091Y-99557483D01*
X87950500Y-99497873D01*
X87950500Y-99149500D01*
X87970185Y-99082461D01*
X88022989Y-99036706D01*
X88074500Y-99025500D01*
X88615500Y-99025500D01*
X88682539Y-99045185D01*
X88728294Y-99097989D01*
X88739500Y-99149500D01*
X88739500Y-99349678D01*
X88754032Y-99422735D01*
X88754033Y-99422739D01*
X88754034Y-99422740D01*
X88809399Y-99505601D01*
X88867081Y-99544142D01*
X88892260Y-99560966D01*
X88892264Y-99560967D01*
X88965321Y-99575499D01*
X88965324Y-99575500D01*
X88965326Y-99575500D01*
X90714676Y-99575500D01*
X90714677Y-99575499D01*
X90787740Y-99560966D01*
X90870601Y-99505601D01*
X90925966Y-99422740D01*
X90940500Y-99349674D01*
X90940500Y-98349999D01*
X91286869Y-98349999D01*
X91286870Y-98350000D01*
X91895595Y-98350000D01*
X91880000Y-98403111D01*
X91880000Y-98546889D01*
X91895595Y-98600000D01*
X91286870Y-98600000D01*
X91294097Y-98677989D01*
X91294097Y-98677992D01*
X91349883Y-98874063D01*
X91349886Y-98874069D01*
X91440754Y-99056556D01*
X91563608Y-99219242D01*
X91714260Y-99356578D01*
X91887584Y-99463897D01*
X92077678Y-99537539D01*
X92255000Y-99570686D01*
X92255000Y-98962169D01*
X92344237Y-98975000D01*
X92415763Y-98975000D01*
X92505000Y-98962169D01*
X92505000Y-99570686D01*
X92682321Y-99537539D01*
X92872415Y-99463897D01*
X93045739Y-99356578D01*
X93196391Y-99219242D01*
X93319245Y-99056556D01*
X93410113Y-98874069D01*
X93410116Y-98874063D01*
X93465902Y-98677992D01*
X93465902Y-98677989D01*
X93473130Y-98600000D01*
X92864405Y-98600000D01*
X92880000Y-98546889D01*
X92880000Y-98475000D01*
X93814785Y-98475000D01*
X93833602Y-98678082D01*
X93889417Y-98874247D01*
X93889422Y-98874260D01*
X93980327Y-99056821D01*
X94103237Y-99219581D01*
X94253958Y-99356980D01*
X94253960Y-99356982D01*
X94263515Y-99362898D01*
X94427363Y-99464348D01*
X94617544Y-99538024D01*
X94818024Y-99575500D01*
X94818026Y-99575500D01*
X95021974Y-99575500D01*
X95021976Y-99575500D01*
X95222456Y-99538024D01*
X95412637Y-99464348D01*
X95586041Y-99356981D01*
X95736764Y-99219579D01*
X95859673Y-99056821D01*
X95950582Y-98874250D01*
X96006397Y-98678083D01*
X96025215Y-98475000D01*
X96354785Y-98475000D01*
X96373602Y-98678082D01*
X96429417Y-98874247D01*
X96429422Y-98874260D01*
X96520327Y-99056821D01*
X96643237Y-99219581D01*
X96793958Y-99356980D01*
X96793960Y-99356982D01*
X96803515Y-99362898D01*
X96967363Y-99464348D01*
X97157544Y-99538024D01*
X97358024Y-99575500D01*
X97358026Y-99575500D01*
X97561974Y-99575500D01*
X97561976Y-99575500D01*
X97762456Y-99538024D01*
X97952637Y-99464348D01*
X98126041Y-99356981D01*
X98276764Y-99219579D01*
X98399673Y-99056821D01*
X98490582Y-98874250D01*
X98546397Y-98678083D01*
X98565215Y-98475000D01*
X98894785Y-98475000D01*
X98913602Y-98678082D01*
X98969417Y-98874247D01*
X98969422Y-98874260D01*
X99060327Y-99056821D01*
X99183237Y-99219581D01*
X99333958Y-99356980D01*
X99333960Y-99356982D01*
X99343515Y-99362898D01*
X99507363Y-99464348D01*
X99697544Y-99538024D01*
X99898024Y-99575500D01*
X99898026Y-99575500D01*
X100101974Y-99575500D01*
X100101976Y-99575500D01*
X100302456Y-99538024D01*
X100492637Y-99464348D01*
X100666041Y-99356981D01*
X100816764Y-99219579D01*
X100939673Y-99056821D01*
X101030582Y-98874250D01*
X101086397Y-98678083D01*
X101105215Y-98475000D01*
X101434785Y-98475000D01*
X101453602Y-98678082D01*
X101509417Y-98874247D01*
X101509422Y-98874260D01*
X101600327Y-99056821D01*
X101723237Y-99219581D01*
X101873958Y-99356980D01*
X101873960Y-99356982D01*
X101883515Y-99362898D01*
X102047363Y-99464348D01*
X102237544Y-99538024D01*
X102438024Y-99575500D01*
X102438026Y-99575500D01*
X102641974Y-99575500D01*
X102641976Y-99575500D01*
X102842456Y-99538024D01*
X103032637Y-99464348D01*
X103206041Y-99356981D01*
X103356764Y-99219579D01*
X103479673Y-99056821D01*
X103570582Y-98874250D01*
X103626397Y-98678083D01*
X103645215Y-98475000D01*
X103639888Y-98417516D01*
X103626397Y-98271917D01*
X103611866Y-98220848D01*
X103570582Y-98075750D01*
X103570139Y-98074861D01*
X103520415Y-97975000D01*
X103479673Y-97893179D01*
X103356764Y-97730421D01*
X103356762Y-97730418D01*
X103206041Y-97593019D01*
X103206039Y-97593017D01*
X103032642Y-97485655D01*
X103032635Y-97485651D01*
X102843705Y-97412460D01*
X102842456Y-97411976D01*
X102641976Y-97374500D01*
X102438024Y-97374500D01*
X102237544Y-97411976D01*
X102237541Y-97411976D01*
X102237541Y-97411977D01*
X102047364Y-97485651D01*
X102047357Y-97485655D01*
X101873960Y-97593017D01*
X101873958Y-97593019D01*
X101723237Y-97730418D01*
X101600327Y-97893178D01*
X101509422Y-98075739D01*
X101509417Y-98075752D01*
X101453602Y-98271917D01*
X101434785Y-98474999D01*
X101434785Y-98475000D01*
X101105215Y-98475000D01*
X101099888Y-98417516D01*
X101086397Y-98271917D01*
X101071866Y-98220848D01*
X101030582Y-98075750D01*
X101030139Y-98074861D01*
X100980415Y-97975000D01*
X100939673Y-97893179D01*
X100816764Y-97730421D01*
X100816762Y-97730418D01*
X100666041Y-97593019D01*
X100666039Y-97593017D01*
X100492642Y-97485655D01*
X100492635Y-97485651D01*
X100303705Y-97412460D01*
X100302456Y-97411976D01*
X100101976Y-97374500D01*
X99898024Y-97374500D01*
X99697544Y-97411976D01*
X99697541Y-97411976D01*
X99697541Y-97411977D01*
X99507364Y-97485651D01*
X99507357Y-97485655D01*
X99333960Y-97593017D01*
X99333958Y-97593019D01*
X99183237Y-97730418D01*
X99060327Y-97893178D01*
X98969422Y-98075739D01*
X98969417Y-98075752D01*
X98913602Y-98271917D01*
X98894785Y-98474999D01*
X98894785Y-98475000D01*
X98565215Y-98475000D01*
X98559888Y-98417516D01*
X98546397Y-98271917D01*
X98531866Y-98220848D01*
X98490582Y-98075750D01*
X98490139Y-98074861D01*
X98440415Y-97975000D01*
X98399673Y-97893179D01*
X98276764Y-97730421D01*
X98276762Y-97730418D01*
X98126041Y-97593019D01*
X98126039Y-97593017D01*
X97952642Y-97485655D01*
X97952635Y-97485651D01*
X97763705Y-97412460D01*
X97762456Y-97411976D01*
X97561976Y-97374500D01*
X97358024Y-97374500D01*
X97157544Y-97411976D01*
X97157541Y-97411976D01*
X97157541Y-97411977D01*
X96967364Y-97485651D01*
X96967357Y-97485655D01*
X96793960Y-97593017D01*
X96793958Y-97593019D01*
X96643237Y-97730418D01*
X96520327Y-97893178D01*
X96429422Y-98075739D01*
X96429417Y-98075752D01*
X96373602Y-98271917D01*
X96354785Y-98474999D01*
X96354785Y-98475000D01*
X96025215Y-98475000D01*
X96019888Y-98417516D01*
X96006397Y-98271917D01*
X95991866Y-98220848D01*
X95950582Y-98075750D01*
X95950139Y-98074861D01*
X95900415Y-97975000D01*
X95859673Y-97893179D01*
X95736764Y-97730421D01*
X95736762Y-97730418D01*
X95586041Y-97593019D01*
X95586039Y-97593017D01*
X95412642Y-97485655D01*
X95412635Y-97485651D01*
X95223705Y-97412460D01*
X95222456Y-97411976D01*
X95021976Y-97374500D01*
X94818024Y-97374500D01*
X94617544Y-97411976D01*
X94617541Y-97411976D01*
X94617541Y-97411977D01*
X94427364Y-97485651D01*
X94427357Y-97485655D01*
X94253960Y-97593017D01*
X94253958Y-97593019D01*
X94103237Y-97730418D01*
X93980327Y-97893178D01*
X93889422Y-98075739D01*
X93889417Y-98075752D01*
X93833602Y-98271917D01*
X93814785Y-98474999D01*
X93814785Y-98475000D01*
X92880000Y-98475000D01*
X92880000Y-98403111D01*
X92864405Y-98350000D01*
X93473130Y-98350000D01*
X93473130Y-98349999D01*
X93465902Y-98272010D01*
X93465902Y-98272007D01*
X93410116Y-98075936D01*
X93410113Y-98075930D01*
X93319245Y-97893443D01*
X93196391Y-97730757D01*
X93045739Y-97593421D01*
X92872415Y-97486102D01*
X92682321Y-97412460D01*
X92505000Y-97379312D01*
X92505000Y-97987830D01*
X92415763Y-97975000D01*
X92344237Y-97975000D01*
X92255000Y-97987830D01*
X92255000Y-97379312D01*
X92077678Y-97412460D01*
X91887584Y-97486102D01*
X91714260Y-97593421D01*
X91563608Y-97730757D01*
X91440754Y-97893443D01*
X91349886Y-98075930D01*
X91349883Y-98075936D01*
X91294097Y-98272007D01*
X91294097Y-98272010D01*
X91286869Y-98349999D01*
X90940500Y-98349999D01*
X90940500Y-97600326D01*
X90940500Y-97600323D01*
X90940499Y-97600321D01*
X90925967Y-97527264D01*
X90925966Y-97527260D01*
X90916872Y-97513650D01*
X90870601Y-97444399D01*
X90797118Y-97395300D01*
X90787739Y-97389033D01*
X90787735Y-97389032D01*
X90714677Y-97374500D01*
X90714674Y-97374500D01*
X88965326Y-97374500D01*
X88965323Y-97374500D01*
X88892264Y-97389032D01*
X88892260Y-97389033D01*
X88809399Y-97444399D01*
X88754033Y-97527260D01*
X88754032Y-97527264D01*
X88739500Y-97600321D01*
X88739500Y-97800500D01*
X88719815Y-97867539D01*
X88667011Y-97913294D01*
X88615500Y-97924500D01*
X87988769Y-97924500D01*
X87921730Y-97904815D01*
X87875975Y-97852011D01*
X87866031Y-97782853D01*
X87872587Y-97757167D01*
X87919091Y-97632482D01*
X87922548Y-97600326D01*
X87925500Y-97572873D01*
X87925499Y-96577128D01*
X87919091Y-96517517D01*
X87868796Y-96382669D01*
X87868795Y-96382668D01*
X87868793Y-96382664D01*
X87782547Y-96267455D01*
X87782544Y-96267452D01*
X87667335Y-96181206D01*
X87667328Y-96181202D01*
X87532482Y-96130908D01*
X87532483Y-96130908D01*
X87472883Y-96124501D01*
X87472881Y-96124500D01*
X87472873Y-96124500D01*
X87472865Y-96124500D01*
X87035397Y-96124500D01*
X86968358Y-96104815D01*
X86922603Y-96052011D01*
X86912301Y-95985554D01*
X86920490Y-95918107D01*
X86920490Y-95918106D01*
X86901449Y-95761288D01*
X86880204Y-95705271D01*
X86845432Y-95613584D01*
X86755695Y-95483577D01*
X86637452Y-95378824D01*
X86637450Y-95378823D01*
X86637449Y-95378822D01*
X86497577Y-95305410D01*
X86344198Y-95267607D01*
X86344197Y-95267607D01*
X86186227Y-95267607D01*
X86186226Y-95267607D01*
X86032846Y-95305410D01*
X85892974Y-95378822D01*
X85774728Y-95483578D01*
X85684993Y-95613582D01*
X85684992Y-95613583D01*
X85628975Y-95761287D01*
X85612579Y-95896315D01*
X85584957Y-95960493D01*
X85577165Y-95969049D01*
X85458034Y-96088181D01*
X85396711Y-96121666D01*
X85370352Y-96124500D01*
X85027130Y-96124500D01*
X85027123Y-96124501D01*
X84967516Y-96130908D01*
X84832671Y-96181202D01*
X84832664Y-96181206D01*
X84717455Y-96267452D01*
X84717452Y-96267455D01*
X84631206Y-96382664D01*
X84631202Y-96382671D01*
X84580908Y-96517517D01*
X84576946Y-96554373D01*
X84574501Y-96577123D01*
X84574500Y-96577135D01*
X84574500Y-97572870D01*
X84574501Y-97572876D01*
X84580908Y-97632483D01*
X84631202Y-97767328D01*
X84631206Y-97767335D01*
X84717452Y-97882544D01*
X84717453Y-97882545D01*
X84717454Y-97882546D01*
X84732010Y-97893443D01*
X84746363Y-97904187D01*
X84788235Y-97960120D01*
X84793219Y-98029812D01*
X84759734Y-98091135D01*
X84746365Y-98102720D01*
X84692809Y-98142812D01*
X84606649Y-98257906D01*
X84606645Y-98257913D01*
X84556403Y-98392620D01*
X84556401Y-98392627D01*
X84550000Y-98452155D01*
X84550000Y-98850000D01*
X86050000Y-98850000D01*
X86050000Y-98452172D01*
X86049999Y-98452155D01*
X86043598Y-98392627D01*
X86043596Y-98392620D01*
X85993354Y-98257913D01*
X85993350Y-98257906D01*
X85907190Y-98142812D01*
X85907189Y-98142811D01*
X85891136Y-98130794D01*
X85849264Y-98074861D01*
X85844280Y-98005169D01*
X85877764Y-97943846D01*
X85891123Y-97932269D01*
X85957546Y-97882546D01*
X86043796Y-97767331D01*
X86094091Y-97632483D01*
X86100500Y-97572873D01*
X86100499Y-96771283D01*
X86120183Y-96704245D01*
X86136813Y-96683608D01*
X86187821Y-96632600D01*
X86249142Y-96599117D01*
X86318834Y-96604101D01*
X86374767Y-96645973D01*
X86399184Y-96711437D01*
X86399500Y-96720283D01*
X86399500Y-97572870D01*
X86399501Y-97572876D01*
X86405908Y-97632483D01*
X86456202Y-97767328D01*
X86456204Y-97767331D01*
X86533766Y-97870941D01*
X86558184Y-97936403D01*
X86558500Y-97945251D01*
X86558500Y-98146538D01*
X86538815Y-98213577D01*
X86533767Y-98220848D01*
X86506206Y-98257664D01*
X86506202Y-98257671D01*
X86455908Y-98392517D01*
X86449501Y-98452116D01*
X86449500Y-98452135D01*
X86449500Y-99497870D01*
X86449501Y-99497876D01*
X86455908Y-99557483D01*
X86506202Y-99692328D01*
X86506206Y-99692335D01*
X86586946Y-99800189D01*
X86611364Y-99865653D01*
X86596513Y-99933926D01*
X86547108Y-99983332D01*
X86487680Y-99998500D01*
X86011696Y-99998500D01*
X85944657Y-99978815D01*
X85898902Y-99926011D01*
X85888958Y-99856853D01*
X85912429Y-99800189D01*
X85993353Y-99692088D01*
X85993354Y-99692086D01*
X86043596Y-99557379D01*
X86043598Y-99557372D01*
X86049999Y-99497844D01*
X86050000Y-99497827D01*
X86050000Y-99100000D01*
X84550000Y-99100000D01*
X84550000Y-99497844D01*
X84556401Y-99557372D01*
X84556403Y-99557379D01*
X84606645Y-99692086D01*
X84606646Y-99692088D01*
X84687571Y-99800189D01*
X84711988Y-99865653D01*
X84697137Y-99933926D01*
X84647732Y-99983332D01*
X84588304Y-99998500D01*
X84224053Y-99998500D01*
X84215942Y-99998234D01*
X84136781Y-99993045D01*
X84136046Y-99992995D01*
X83958425Y-99980291D01*
X83943080Y-99978224D01*
X83831675Y-99956064D01*
X83829508Y-99955613D01*
X83689777Y-99925217D01*
X83676276Y-99921470D01*
X83562338Y-99882793D01*
X83558863Y-99881556D01*
X83431196Y-99833938D01*
X83419687Y-99828969D01*
X83354947Y-99797043D01*
X83309348Y-99774556D01*
X83304779Y-99772183D01*
X83187520Y-99708154D01*
X83178056Y-99702424D01*
X83074729Y-99633383D01*
X83069310Y-99629548D01*
X82977696Y-99560967D01*
X82963278Y-99550173D01*
X82955848Y-99544150D01*
X82862022Y-99461867D01*
X82856100Y-99456320D01*
X82762678Y-99362898D01*
X82757131Y-99356976D01*
X82725450Y-99320851D01*
X82674844Y-99263145D01*
X82668830Y-99255727D01*
X82589450Y-99149688D01*
X82585615Y-99144269D01*
X82516574Y-99040942D01*
X82510844Y-99031478D01*
X82507580Y-99025500D01*
X82446798Y-98914187D01*
X82444461Y-98909687D01*
X82390024Y-98799300D01*
X82385060Y-98787802D01*
X82371999Y-98752784D01*
X82337420Y-98660074D01*
X82336228Y-98656725D01*
X82297522Y-98542703D01*
X82293786Y-98529240D01*
X82263374Y-98389437D01*
X82262945Y-98387378D01*
X82240772Y-98275904D01*
X82238709Y-98260587D01*
X82225991Y-98082767D01*
X82225978Y-98082586D01*
X82220765Y-98003043D01*
X82220500Y-97994934D01*
X82220500Y-79726776D01*
X97000000Y-79726776D01*
X97000000Y-80273223D01*
X97273223Y-80000000D01*
X97273223Y-79999999D01*
X97000000Y-79726776D01*
X82220500Y-79726776D01*
X82220500Y-44373000D01*
X83154551Y-44373000D01*
X83174317Y-44624151D01*
X83233126Y-44869110D01*
X83329533Y-45101859D01*
X83461160Y-45316653D01*
X83461161Y-45316656D01*
X83461164Y-45316659D01*
X83624776Y-45508224D01*
X83773066Y-45634875D01*
X83816343Y-45671838D01*
X83816346Y-45671839D01*
X84031140Y-45803466D01*
X84263889Y-45899873D01*
X84508852Y-45958683D01*
X84697118Y-45973500D01*
X84697126Y-45973500D01*
X84822874Y-45973500D01*
X84822882Y-45973500D01*
X85011148Y-45958683D01*
X85256111Y-45899873D01*
X85488859Y-45803466D01*
X85703659Y-45671836D01*
X85895224Y-45508224D01*
X86058836Y-45316659D01*
X86190466Y-45101859D01*
X86286873Y-44869111D01*
X86345683Y-44624148D01*
X86365449Y-44373000D01*
X113634551Y-44373000D01*
X113654317Y-44624151D01*
X113713126Y-44869110D01*
X113809533Y-45101859D01*
X113941160Y-45316653D01*
X113941161Y-45316656D01*
X113941164Y-45316659D01*
X114104776Y-45508224D01*
X114253066Y-45634875D01*
X114296343Y-45671838D01*
X114296346Y-45671839D01*
X114511140Y-45803466D01*
X114743889Y-45899873D01*
X114988852Y-45958683D01*
X115177118Y-45973500D01*
X115177126Y-45973500D01*
X115302874Y-45973500D01*
X115302882Y-45973500D01*
X115491148Y-45958683D01*
X115736111Y-45899873D01*
X115968859Y-45803466D01*
X116183659Y-45671836D01*
X116375224Y-45508224D01*
X116538836Y-45316659D01*
X116670466Y-45101859D01*
X116766873Y-44869111D01*
X116825683Y-44624148D01*
X116845449Y-44373000D01*
X116825683Y-44121852D01*
X116766873Y-43876889D01*
X116747012Y-43828941D01*
X116670466Y-43644140D01*
X116538839Y-43429346D01*
X116538838Y-43429343D01*
X116501875Y-43386066D01*
X116375224Y-43237776D01*
X116248571Y-43129604D01*
X116183656Y-43074161D01*
X116183653Y-43074160D01*
X115968859Y-42942533D01*
X115736110Y-42846126D01*
X115491151Y-42787317D01*
X115302887Y-42772500D01*
X115302882Y-42772500D01*
X115177118Y-42772500D01*
X115177112Y-42772500D01*
X114988848Y-42787317D01*
X114743889Y-42846126D01*
X114511140Y-42942533D01*
X114296346Y-43074160D01*
X114296343Y-43074161D01*
X114104776Y-43237776D01*
X113941161Y-43429343D01*
X113941160Y-43429346D01*
X113809533Y-43644140D01*
X113713126Y-43876889D01*
X113654317Y-44121848D01*
X113634551Y-44373000D01*
X86365449Y-44373000D01*
X86345683Y-44121852D01*
X86286873Y-43876889D01*
X86267012Y-43828941D01*
X86190466Y-43644140D01*
X86058839Y-43429346D01*
X86058838Y-43429343D01*
X86021875Y-43386066D01*
X85895224Y-43237776D01*
X85768571Y-43129604D01*
X85703656Y-43074161D01*
X85703653Y-43074160D01*
X85488859Y-42942533D01*
X85256110Y-42846126D01*
X85011151Y-42787317D01*
X84822887Y-42772500D01*
X84822882Y-42772500D01*
X84697118Y-42772500D01*
X84697112Y-42772500D01*
X84508848Y-42787317D01*
X84263889Y-42846126D01*
X84031140Y-42942533D01*
X83816346Y-43074160D01*
X83816343Y-43074161D01*
X83624776Y-43237776D01*
X83461161Y-43429343D01*
X83461160Y-43429346D01*
X83329533Y-43644140D01*
X83233126Y-43876889D01*
X83174317Y-44121848D01*
X83154551Y-44373000D01*
X82220500Y-44373000D01*
X82220500Y-43837065D01*
X82220765Y-43828956D01*
X82225954Y-43749781D01*
X82225979Y-43749401D01*
X82226004Y-43749046D01*
X82238709Y-43571407D01*
X82240771Y-43556099D01*
X82262955Y-43444573D01*
X82263364Y-43442606D01*
X82293788Y-43302749D01*
X82297519Y-43289305D01*
X82336243Y-43175230D01*
X82337404Y-43171967D01*
X82385068Y-43044177D01*
X82390017Y-43032713D01*
X82444481Y-42922272D01*
X82446777Y-42917851D01*
X82510855Y-42800501D01*
X82516562Y-42791075D01*
X82585639Y-42687694D01*
X82589425Y-42682344D01*
X82668850Y-42576246D01*
X82674823Y-42568878D01*
X82757161Y-42474989D01*
X82762648Y-42469131D01*
X82856131Y-42375648D01*
X82861989Y-42370161D01*
X82955878Y-42287823D01*
X82963246Y-42281850D01*
X83069344Y-42202425D01*
X83074694Y-42198639D01*
X83178075Y-42129562D01*
X83187501Y-42123855D01*
X83304851Y-42059777D01*
X83309272Y-42057481D01*
X83419713Y-42003017D01*
X83431177Y-41998068D01*
X83558967Y-41950404D01*
X83562230Y-41949243D01*
X83676305Y-41910519D01*
X83689749Y-41906788D01*
X83829606Y-41876364D01*
X83831573Y-41875955D01*
X83943099Y-41853771D01*
X83958407Y-41851709D01*
X84136193Y-41838992D01*
X84215957Y-41833764D01*
X84224065Y-41833500D01*
X115775935Y-41833500D01*
X115784042Y-41833764D01*
G37*
%TD.AperFunction*%
%TD*%
M02*
