%TF.GenerationSoftware,KiCad,Pcbnew,7.0.10*%
%TF.CreationDate,2025-06-29T16:51:36+02:00*%
%TF.ProjectId,Display_Carrier,44697370-6c61-4795-9f43-617272696572,rev?*%
%TF.SameCoordinates,Original*%
%TF.FileFunction,Legend,Bot*%
%TF.FilePolarity,Positive*%
%FSLAX46Y46*%
G04 Gerber Fmt 4.6, Leading zero omitted, Abs format (unit mm)*
G04 Created by KiCad (PCBNEW 7.0.10) date 2025-06-29 16:51:36*
%MOMM*%
%LPD*%
G01*
G04 APERTURE LIST*
%ADD10C,0.150000*%
%ADD11C,0.120000*%
G04 APERTURE END LIST*
D10*
X116287030Y-92569295D02*
X116096554Y-93369295D01*
X116096554Y-93369295D02*
X115944173Y-92797866D01*
X115944173Y-92797866D02*
X115791792Y-93369295D01*
X115791792Y-93369295D02*
X115601316Y-92569295D01*
X114953696Y-93369295D02*
X114953696Y-92950247D01*
X114953696Y-92950247D02*
X114991791Y-92874057D01*
X114991791Y-92874057D02*
X115067982Y-92835961D01*
X115067982Y-92835961D02*
X115220363Y-92835961D01*
X115220363Y-92835961D02*
X115296553Y-92874057D01*
X114953696Y-93331200D02*
X115029887Y-93369295D01*
X115029887Y-93369295D02*
X115220363Y-93369295D01*
X115220363Y-93369295D02*
X115296553Y-93331200D01*
X115296553Y-93331200D02*
X115334649Y-93255009D01*
X115334649Y-93255009D02*
X115334649Y-93178819D01*
X115334649Y-93178819D02*
X115296553Y-93102628D01*
X115296553Y-93102628D02*
X115220363Y-93064533D01*
X115220363Y-93064533D02*
X115029887Y-93064533D01*
X115029887Y-93064533D02*
X114953696Y-93026438D01*
X114648934Y-92835961D02*
X114458458Y-93369295D01*
X114267981Y-92835961D02*
X114458458Y-93369295D01*
X114458458Y-93369295D02*
X114534648Y-93559771D01*
X114534648Y-93559771D02*
X114572743Y-93597866D01*
X114572743Y-93597866D02*
X114648934Y-93635961D01*
X114039410Y-92569295D02*
X113848934Y-93369295D01*
X113848934Y-93369295D02*
X113696553Y-92797866D01*
X113696553Y-92797866D02*
X113544172Y-93369295D01*
X113544172Y-93369295D02*
X113353696Y-92569295D01*
X112706076Y-93369295D02*
X112706076Y-92950247D01*
X112706076Y-92950247D02*
X112744171Y-92874057D01*
X112744171Y-92874057D02*
X112820362Y-92835961D01*
X112820362Y-92835961D02*
X112972743Y-92835961D01*
X112972743Y-92835961D02*
X113048933Y-92874057D01*
X112706076Y-93331200D02*
X112782267Y-93369295D01*
X112782267Y-93369295D02*
X112972743Y-93369295D01*
X112972743Y-93369295D02*
X113048933Y-93331200D01*
X113048933Y-93331200D02*
X113087029Y-93255009D01*
X113087029Y-93255009D02*
X113087029Y-93178819D01*
X113087029Y-93178819D02*
X113048933Y-93102628D01*
X113048933Y-93102628D02*
X112972743Y-93064533D01*
X112972743Y-93064533D02*
X112782267Y-93064533D01*
X112782267Y-93064533D02*
X112706076Y-93026438D01*
X112401314Y-92835961D02*
X112210838Y-93369295D01*
X112020361Y-92835961D02*
X112210838Y-93369295D01*
X112210838Y-93369295D02*
X112287028Y-93559771D01*
X112287028Y-93559771D02*
X112325123Y-93597866D01*
X112325123Y-93597866D02*
X112401314Y-93635961D01*
X111791790Y-92569295D02*
X111601314Y-93369295D01*
X111601314Y-93369295D02*
X111448933Y-92797866D01*
X111448933Y-92797866D02*
X111296552Y-93369295D01*
X111296552Y-93369295D02*
X111106076Y-92569295D01*
X110458456Y-93369295D02*
X110458456Y-92950247D01*
X110458456Y-92950247D02*
X110496551Y-92874057D01*
X110496551Y-92874057D02*
X110572742Y-92835961D01*
X110572742Y-92835961D02*
X110725123Y-92835961D01*
X110725123Y-92835961D02*
X110801313Y-92874057D01*
X110458456Y-93331200D02*
X110534647Y-93369295D01*
X110534647Y-93369295D02*
X110725123Y-93369295D01*
X110725123Y-93369295D02*
X110801313Y-93331200D01*
X110801313Y-93331200D02*
X110839409Y-93255009D01*
X110839409Y-93255009D02*
X110839409Y-93178819D01*
X110839409Y-93178819D02*
X110801313Y-93102628D01*
X110801313Y-93102628D02*
X110725123Y-93064533D01*
X110725123Y-93064533D02*
X110534647Y-93064533D01*
X110534647Y-93064533D02*
X110458456Y-93026438D01*
X110153694Y-92835961D02*
X109963218Y-93369295D01*
X109772741Y-92835961D02*
X109963218Y-93369295D01*
X109963218Y-93369295D02*
X110039408Y-93559771D01*
X110039408Y-93559771D02*
X110077503Y-93597866D01*
X110077503Y-93597866D02*
X110153694Y-93635961D01*
X91860390Y-94708207D02*
X91822295Y-94632017D01*
X91822295Y-94632017D02*
X91822295Y-94517731D01*
X91822295Y-94517731D02*
X91860390Y-94403445D01*
X91860390Y-94403445D02*
X91936580Y-94327255D01*
X91936580Y-94327255D02*
X92012771Y-94289160D01*
X92012771Y-94289160D02*
X92165152Y-94251064D01*
X92165152Y-94251064D02*
X92279438Y-94251064D01*
X92279438Y-94251064D02*
X92431819Y-94289160D01*
X92431819Y-94289160D02*
X92508009Y-94327255D01*
X92508009Y-94327255D02*
X92584200Y-94403445D01*
X92584200Y-94403445D02*
X92622295Y-94517731D01*
X92622295Y-94517731D02*
X92622295Y-94593922D01*
X92622295Y-94593922D02*
X92584200Y-94708207D01*
X92584200Y-94708207D02*
X92546104Y-94746303D01*
X92546104Y-94746303D02*
X92279438Y-94746303D01*
X92279438Y-94746303D02*
X92279438Y-94593922D01*
X92622295Y-95089160D02*
X91822295Y-95089160D01*
X91822295Y-95089160D02*
X92622295Y-95546303D01*
X92622295Y-95546303D02*
X91822295Y-95546303D01*
X92622295Y-95927255D02*
X91822295Y-95927255D01*
X91822295Y-95927255D02*
X91822295Y-96117731D01*
X91822295Y-96117731D02*
X91860390Y-96232017D01*
X91860390Y-96232017D02*
X91936580Y-96308207D01*
X91936580Y-96308207D02*
X92012771Y-96346302D01*
X92012771Y-96346302D02*
X92165152Y-96384398D01*
X92165152Y-96384398D02*
X92279438Y-96384398D01*
X92279438Y-96384398D02*
X92431819Y-96346302D01*
X92431819Y-96346302D02*
X92508009Y-96308207D01*
X92508009Y-96308207D02*
X92584200Y-96232017D01*
X92584200Y-96232017D02*
X92622295Y-96117731D01*
X92622295Y-96117731D02*
X92622295Y-95927255D01*
X95184200Y-94251064D02*
X95222295Y-94365350D01*
X95222295Y-94365350D02*
X95222295Y-94555826D01*
X95222295Y-94555826D02*
X95184200Y-94632017D01*
X95184200Y-94632017D02*
X95146104Y-94670112D01*
X95146104Y-94670112D02*
X95069914Y-94708207D01*
X95069914Y-94708207D02*
X94993723Y-94708207D01*
X94993723Y-94708207D02*
X94917533Y-94670112D01*
X94917533Y-94670112D02*
X94879438Y-94632017D01*
X94879438Y-94632017D02*
X94841342Y-94555826D01*
X94841342Y-94555826D02*
X94803247Y-94403445D01*
X94803247Y-94403445D02*
X94765152Y-94327255D01*
X94765152Y-94327255D02*
X94727057Y-94289160D01*
X94727057Y-94289160D02*
X94650866Y-94251064D01*
X94650866Y-94251064D02*
X94574676Y-94251064D01*
X94574676Y-94251064D02*
X94498485Y-94289160D01*
X94498485Y-94289160D02*
X94460390Y-94327255D01*
X94460390Y-94327255D02*
X94422295Y-94403445D01*
X94422295Y-94403445D02*
X94422295Y-94593922D01*
X94422295Y-94593922D02*
X94460390Y-94708207D01*
X95146104Y-95508208D02*
X95184200Y-95470112D01*
X95184200Y-95470112D02*
X95222295Y-95355827D01*
X95222295Y-95355827D02*
X95222295Y-95279636D01*
X95222295Y-95279636D02*
X95184200Y-95165350D01*
X95184200Y-95165350D02*
X95108009Y-95089160D01*
X95108009Y-95089160D02*
X95031819Y-95051065D01*
X95031819Y-95051065D02*
X94879438Y-95012969D01*
X94879438Y-95012969D02*
X94765152Y-95012969D01*
X94765152Y-95012969D02*
X94612771Y-95051065D01*
X94612771Y-95051065D02*
X94536580Y-95089160D01*
X94536580Y-95089160D02*
X94460390Y-95165350D01*
X94460390Y-95165350D02*
X94422295Y-95279636D01*
X94422295Y-95279636D02*
X94422295Y-95355827D01*
X94422295Y-95355827D02*
X94460390Y-95470112D01*
X94460390Y-95470112D02*
X94498485Y-95508208D01*
X95222295Y-95851065D02*
X94422295Y-95851065D01*
X95222295Y-96308208D02*
X94765152Y-95965350D01*
X94422295Y-96308208D02*
X94879438Y-95851065D01*
X100222295Y-94289160D02*
X99422295Y-94289160D01*
X99422295Y-94289160D02*
X99993723Y-94555826D01*
X99993723Y-94555826D02*
X99422295Y-94822493D01*
X99422295Y-94822493D02*
X100222295Y-94822493D01*
X99422295Y-95355827D02*
X99422295Y-95508208D01*
X99422295Y-95508208D02*
X99460390Y-95584398D01*
X99460390Y-95584398D02*
X99536580Y-95660589D01*
X99536580Y-95660589D02*
X99688961Y-95698684D01*
X99688961Y-95698684D02*
X99955628Y-95698684D01*
X99955628Y-95698684D02*
X100108009Y-95660589D01*
X100108009Y-95660589D02*
X100184200Y-95584398D01*
X100184200Y-95584398D02*
X100222295Y-95508208D01*
X100222295Y-95508208D02*
X100222295Y-95355827D01*
X100222295Y-95355827D02*
X100184200Y-95279636D01*
X100184200Y-95279636D02*
X100108009Y-95203446D01*
X100108009Y-95203446D02*
X99955628Y-95165350D01*
X99955628Y-95165350D02*
X99688961Y-95165350D01*
X99688961Y-95165350D02*
X99536580Y-95203446D01*
X99536580Y-95203446D02*
X99460390Y-95279636D01*
X99460390Y-95279636D02*
X99422295Y-95355827D01*
X100184200Y-96003445D02*
X100222295Y-96117731D01*
X100222295Y-96117731D02*
X100222295Y-96308207D01*
X100222295Y-96308207D02*
X100184200Y-96384398D01*
X100184200Y-96384398D02*
X100146104Y-96422493D01*
X100146104Y-96422493D02*
X100069914Y-96460588D01*
X100069914Y-96460588D02*
X99993723Y-96460588D01*
X99993723Y-96460588D02*
X99917533Y-96422493D01*
X99917533Y-96422493D02*
X99879438Y-96384398D01*
X99879438Y-96384398D02*
X99841342Y-96308207D01*
X99841342Y-96308207D02*
X99803247Y-96155826D01*
X99803247Y-96155826D02*
X99765152Y-96079636D01*
X99765152Y-96079636D02*
X99727057Y-96041541D01*
X99727057Y-96041541D02*
X99650866Y-96003445D01*
X99650866Y-96003445D02*
X99574676Y-96003445D01*
X99574676Y-96003445D02*
X99498485Y-96041541D01*
X99498485Y-96041541D02*
X99460390Y-96079636D01*
X99460390Y-96079636D02*
X99422295Y-96155826D01*
X99422295Y-96155826D02*
X99422295Y-96346303D01*
X99422295Y-96346303D02*
X99460390Y-96460588D01*
X100222295Y-96803446D02*
X99422295Y-96803446D01*
X105422295Y-94746303D02*
X105041342Y-94479636D01*
X105422295Y-94289160D02*
X104622295Y-94289160D01*
X104622295Y-94289160D02*
X104622295Y-94593922D01*
X104622295Y-94593922D02*
X104660390Y-94670112D01*
X104660390Y-94670112D02*
X104698485Y-94708207D01*
X104698485Y-94708207D02*
X104774676Y-94746303D01*
X104774676Y-94746303D02*
X104888961Y-94746303D01*
X104888961Y-94746303D02*
X104965152Y-94708207D01*
X104965152Y-94708207D02*
X105003247Y-94670112D01*
X105003247Y-94670112D02*
X105041342Y-94593922D01*
X105041342Y-94593922D02*
X105041342Y-94289160D01*
X105384200Y-95051064D02*
X105422295Y-95165350D01*
X105422295Y-95165350D02*
X105422295Y-95355826D01*
X105422295Y-95355826D02*
X105384200Y-95432017D01*
X105384200Y-95432017D02*
X105346104Y-95470112D01*
X105346104Y-95470112D02*
X105269914Y-95508207D01*
X105269914Y-95508207D02*
X105193723Y-95508207D01*
X105193723Y-95508207D02*
X105117533Y-95470112D01*
X105117533Y-95470112D02*
X105079438Y-95432017D01*
X105079438Y-95432017D02*
X105041342Y-95355826D01*
X105041342Y-95355826D02*
X105003247Y-95203445D01*
X105003247Y-95203445D02*
X104965152Y-95127255D01*
X104965152Y-95127255D02*
X104927057Y-95089160D01*
X104927057Y-95089160D02*
X104850866Y-95051064D01*
X104850866Y-95051064D02*
X104774676Y-95051064D01*
X104774676Y-95051064D02*
X104698485Y-95089160D01*
X104698485Y-95089160D02*
X104660390Y-95127255D01*
X104660390Y-95127255D02*
X104622295Y-95203445D01*
X104622295Y-95203445D02*
X104622295Y-95393922D01*
X104622295Y-95393922D02*
X104660390Y-95508207D01*
X104622295Y-95736779D02*
X104622295Y-96193922D01*
X105422295Y-95965350D02*
X104622295Y-95965350D01*
X108022295Y-94489160D02*
X107222295Y-94489160D01*
X107222295Y-94489160D02*
X107222295Y-94679636D01*
X107222295Y-94679636D02*
X107260390Y-94793922D01*
X107260390Y-94793922D02*
X107336580Y-94870112D01*
X107336580Y-94870112D02*
X107412771Y-94908207D01*
X107412771Y-94908207D02*
X107565152Y-94946303D01*
X107565152Y-94946303D02*
X107679438Y-94946303D01*
X107679438Y-94946303D02*
X107831819Y-94908207D01*
X107831819Y-94908207D02*
X107908009Y-94870112D01*
X107908009Y-94870112D02*
X107984200Y-94793922D01*
X107984200Y-94793922D02*
X108022295Y-94679636D01*
X108022295Y-94679636D02*
X108022295Y-94489160D01*
X107946104Y-95746303D02*
X107984200Y-95708207D01*
X107984200Y-95708207D02*
X108022295Y-95593922D01*
X108022295Y-95593922D02*
X108022295Y-95517731D01*
X108022295Y-95517731D02*
X107984200Y-95403445D01*
X107984200Y-95403445D02*
X107908009Y-95327255D01*
X107908009Y-95327255D02*
X107831819Y-95289160D01*
X107831819Y-95289160D02*
X107679438Y-95251064D01*
X107679438Y-95251064D02*
X107565152Y-95251064D01*
X107565152Y-95251064D02*
X107412771Y-95289160D01*
X107412771Y-95289160D02*
X107336580Y-95327255D01*
X107336580Y-95327255D02*
X107260390Y-95403445D01*
X107260390Y-95403445D02*
X107222295Y-95517731D01*
X107222295Y-95517731D02*
X107222295Y-95593922D01*
X107222295Y-95593922D02*
X107260390Y-95708207D01*
X107260390Y-95708207D02*
X107298485Y-95746303D01*
X89422295Y-94212969D02*
X89422295Y-94708207D01*
X89422295Y-94708207D02*
X89727057Y-94441541D01*
X89727057Y-94441541D02*
X89727057Y-94555826D01*
X89727057Y-94555826D02*
X89765152Y-94632017D01*
X89765152Y-94632017D02*
X89803247Y-94670112D01*
X89803247Y-94670112D02*
X89879438Y-94708207D01*
X89879438Y-94708207D02*
X90069914Y-94708207D01*
X90069914Y-94708207D02*
X90146104Y-94670112D01*
X90146104Y-94670112D02*
X90184200Y-94632017D01*
X90184200Y-94632017D02*
X90222295Y-94555826D01*
X90222295Y-94555826D02*
X90222295Y-94327255D01*
X90222295Y-94327255D02*
X90184200Y-94251064D01*
X90184200Y-94251064D02*
X90146104Y-94212969D01*
X90146104Y-95051065D02*
X90184200Y-95089160D01*
X90184200Y-95089160D02*
X90222295Y-95051065D01*
X90222295Y-95051065D02*
X90184200Y-95012969D01*
X90184200Y-95012969D02*
X90146104Y-95051065D01*
X90146104Y-95051065D02*
X90222295Y-95051065D01*
X89422295Y-95355826D02*
X89422295Y-95851064D01*
X89422295Y-95851064D02*
X89727057Y-95584398D01*
X89727057Y-95584398D02*
X89727057Y-95698683D01*
X89727057Y-95698683D02*
X89765152Y-95774874D01*
X89765152Y-95774874D02*
X89803247Y-95812969D01*
X89803247Y-95812969D02*
X89879438Y-95851064D01*
X89879438Y-95851064D02*
X90069914Y-95851064D01*
X90069914Y-95851064D02*
X90146104Y-95812969D01*
X90146104Y-95812969D02*
X90184200Y-95774874D01*
X90184200Y-95774874D02*
X90222295Y-95698683D01*
X90222295Y-95698683D02*
X90222295Y-95470112D01*
X90222295Y-95470112D02*
X90184200Y-95393921D01*
X90184200Y-95393921D02*
X90146104Y-95355826D01*
X89422295Y-96079636D02*
X90222295Y-96346303D01*
X90222295Y-96346303D02*
X89422295Y-96612969D01*
X102746104Y-94746303D02*
X102784200Y-94708207D01*
X102784200Y-94708207D02*
X102822295Y-94593922D01*
X102822295Y-94593922D02*
X102822295Y-94517731D01*
X102822295Y-94517731D02*
X102784200Y-94403445D01*
X102784200Y-94403445D02*
X102708009Y-94327255D01*
X102708009Y-94327255D02*
X102631819Y-94289160D01*
X102631819Y-94289160D02*
X102479438Y-94251064D01*
X102479438Y-94251064D02*
X102365152Y-94251064D01*
X102365152Y-94251064D02*
X102212771Y-94289160D01*
X102212771Y-94289160D02*
X102136580Y-94327255D01*
X102136580Y-94327255D02*
X102060390Y-94403445D01*
X102060390Y-94403445D02*
X102022295Y-94517731D01*
X102022295Y-94517731D02*
X102022295Y-94593922D01*
X102022295Y-94593922D02*
X102060390Y-94708207D01*
X102060390Y-94708207D02*
X102098485Y-94746303D01*
X102784200Y-95051064D02*
X102822295Y-95165350D01*
X102822295Y-95165350D02*
X102822295Y-95355826D01*
X102822295Y-95355826D02*
X102784200Y-95432017D01*
X102784200Y-95432017D02*
X102746104Y-95470112D01*
X102746104Y-95470112D02*
X102669914Y-95508207D01*
X102669914Y-95508207D02*
X102593723Y-95508207D01*
X102593723Y-95508207D02*
X102517533Y-95470112D01*
X102517533Y-95470112D02*
X102479438Y-95432017D01*
X102479438Y-95432017D02*
X102441342Y-95355826D01*
X102441342Y-95355826D02*
X102403247Y-95203445D01*
X102403247Y-95203445D02*
X102365152Y-95127255D01*
X102365152Y-95127255D02*
X102327057Y-95089160D01*
X102327057Y-95089160D02*
X102250866Y-95051064D01*
X102250866Y-95051064D02*
X102174676Y-95051064D01*
X102174676Y-95051064D02*
X102098485Y-95089160D01*
X102098485Y-95089160D02*
X102060390Y-95127255D01*
X102060390Y-95127255D02*
X102022295Y-95203445D01*
X102022295Y-95203445D02*
X102022295Y-95393922D01*
X102022295Y-95393922D02*
X102060390Y-95508207D01*
X87766666Y-98087295D02*
X87766666Y-98658723D01*
X87766666Y-98658723D02*
X87804761Y-98773009D01*
X87804761Y-98773009D02*
X87880952Y-98849200D01*
X87880952Y-98849200D02*
X87995237Y-98887295D01*
X87995237Y-98887295D02*
X88071428Y-98887295D01*
X86966666Y-98887295D02*
X87423809Y-98887295D01*
X87195237Y-98887295D02*
X87195237Y-98087295D01*
X87195237Y-98087295D02*
X87271428Y-98201580D01*
X87271428Y-98201580D02*
X87347618Y-98277771D01*
X87347618Y-98277771D02*
X87423809Y-98315866D01*
D11*
%TO.C,J1*%
X108950000Y-97145000D02*
X108950000Y-99805000D01*
X91110000Y-97145000D02*
X108950000Y-97145000D01*
X91110000Y-97145000D02*
X91110000Y-99805000D01*
X88510000Y-98475000D02*
X88510000Y-99805000D01*
X91110000Y-99805000D02*
X108950000Y-99805000D01*
X88510000Y-99805000D02*
X89840000Y-99805000D01*
%TD*%
M02*
