%TF.GenerationSoftware,KiCad,Pcbnew,7.0.10*%
%TF.CreationDate,2025-06-29T16:51:36+02:00*%
%TF.ProjectId,Display_Carrier,44697370-6c61-4795-9f43-617272696572,rev?*%
%TF.SameCoordinates,Original*%
%TF.FileFunction,Legend,Top*%
%TF.FilePolarity,Positive*%
%FSLAX46Y46*%
G04 Gerber Fmt 4.6, Leading zero omitted, Abs format (unit mm)*
G04 Created by KiCad (PCBNEW 7.0.10) date 2025-06-29 16:51:36*
%MOMM*%
%LPD*%
G01*
G04 APERTURE LIST*
%ADD10C,0.150000*%
%ADD11C,0.300000*%
%ADD12C,0.200000*%
%ADD13C,0.250000*%
%ADD14C,0.120000*%
G04 APERTURE END LIST*
D10*
X106855826Y-46150247D02*
X106970112Y-46188342D01*
X106970112Y-46188342D02*
X107008207Y-46226438D01*
X107008207Y-46226438D02*
X107046303Y-46302628D01*
X107046303Y-46302628D02*
X107046303Y-46416914D01*
X107046303Y-46416914D02*
X107008207Y-46493104D01*
X107008207Y-46493104D02*
X106970112Y-46531200D01*
X106970112Y-46531200D02*
X106893922Y-46569295D01*
X106893922Y-46569295D02*
X106589160Y-46569295D01*
X106589160Y-46569295D02*
X106589160Y-45769295D01*
X106589160Y-45769295D02*
X106855826Y-45769295D01*
X106855826Y-45769295D02*
X106932017Y-45807390D01*
X106932017Y-45807390D02*
X106970112Y-45845485D01*
X106970112Y-45845485D02*
X107008207Y-45921676D01*
X107008207Y-45921676D02*
X107008207Y-45997866D01*
X107008207Y-45997866D02*
X106970112Y-46074057D01*
X106970112Y-46074057D02*
X106932017Y-46112152D01*
X106932017Y-46112152D02*
X106855826Y-46150247D01*
X106855826Y-46150247D02*
X106589160Y-46150247D01*
X107312969Y-46035961D02*
X107503445Y-46569295D01*
X107693922Y-46035961D02*
X107503445Y-46569295D01*
X107503445Y-46569295D02*
X107427255Y-46759771D01*
X107427255Y-46759771D02*
X107389160Y-46797866D01*
X107389160Y-46797866D02*
X107312969Y-46835961D01*
X108570112Y-46340723D02*
X108951065Y-46340723D01*
X108493922Y-46569295D02*
X108760589Y-45769295D01*
X108760589Y-45769295D02*
X109027255Y-46569295D01*
X109217731Y-46569295D02*
X109636779Y-46035961D01*
X109217731Y-46035961D02*
X109636779Y-46569295D01*
X109865350Y-46569295D02*
X110284398Y-46035961D01*
X109865350Y-46035961D02*
X110284398Y-46569295D01*
X110551064Y-46340723D02*
X110932017Y-46340723D01*
X110474874Y-46569295D02*
X110741541Y-45769295D01*
X110741541Y-45769295D02*
X111008207Y-46569295D01*
X111198683Y-46569295D02*
X111617731Y-46035961D01*
X111198683Y-46035961D02*
X111617731Y-46569295D01*
X111846302Y-46569295D02*
X112265350Y-46035961D01*
X111846302Y-46035961D02*
X112265350Y-46569295D01*
D11*
X82700000Y-47575000D02*
X117300000Y-47575000D01*
D12*
X108950000Y-79975000D02*
X106650000Y-79975000D01*
D11*
X117300000Y-95375000D02*
X82700000Y-95375000D01*
D12*
X97050000Y-79975000D02*
X94750000Y-79975000D01*
X95900000Y-79975000D02*
X95900000Y-94525000D01*
D13*
X88500187Y-42846285D02*
X88571615Y-42774857D01*
X88571615Y-42774857D02*
X88714473Y-42703428D01*
X88714473Y-42703428D02*
X89071615Y-42703428D01*
X89071615Y-42703428D02*
X89214473Y-42774857D01*
X89214473Y-42774857D02*
X89285901Y-42846285D01*
X89285901Y-42846285D02*
X89357330Y-42989142D01*
X89357330Y-42989142D02*
X89357330Y-43132000D01*
X89357330Y-43132000D02*
X89285901Y-43346285D01*
X89285901Y-43346285D02*
X88428758Y-44203428D01*
X88428758Y-44203428D02*
X89357330Y-44203428D01*
X90000186Y-44060571D02*
X90071615Y-44132000D01*
X90071615Y-44132000D02*
X90000186Y-44203428D01*
X90000186Y-44203428D02*
X89928758Y-44132000D01*
X89928758Y-44132000D02*
X90000186Y-44060571D01*
X90000186Y-44060571D02*
X90000186Y-44203428D01*
X91000187Y-42703428D02*
X91143044Y-42703428D01*
X91143044Y-42703428D02*
X91285901Y-42774857D01*
X91285901Y-42774857D02*
X91357330Y-42846285D01*
X91357330Y-42846285D02*
X91428758Y-42989142D01*
X91428758Y-42989142D02*
X91500187Y-43274857D01*
X91500187Y-43274857D02*
X91500187Y-43632000D01*
X91500187Y-43632000D02*
X91428758Y-43917714D01*
X91428758Y-43917714D02*
X91357330Y-44060571D01*
X91357330Y-44060571D02*
X91285901Y-44132000D01*
X91285901Y-44132000D02*
X91143044Y-44203428D01*
X91143044Y-44203428D02*
X91000187Y-44203428D01*
X91000187Y-44203428D02*
X90857330Y-44132000D01*
X90857330Y-44132000D02*
X90785901Y-44060571D01*
X90785901Y-44060571D02*
X90714472Y-43917714D01*
X90714472Y-43917714D02*
X90643044Y-43632000D01*
X90643044Y-43632000D02*
X90643044Y-43274857D01*
X90643044Y-43274857D02*
X90714472Y-42989142D01*
X90714472Y-42989142D02*
X90785901Y-42846285D01*
X90785901Y-42846285D02*
X90857330Y-42774857D01*
X90857330Y-42774857D02*
X91000187Y-42703428D01*
X92071615Y-42703428D02*
X92071615Y-42989142D01*
X92643043Y-42703428D02*
X92643043Y-42989142D01*
X94357329Y-42846285D02*
X94428757Y-42774857D01*
X94428757Y-42774857D02*
X94571615Y-42703428D01*
X94571615Y-42703428D02*
X94928757Y-42703428D01*
X94928757Y-42703428D02*
X95071615Y-42774857D01*
X95071615Y-42774857D02*
X95143043Y-42846285D01*
X95143043Y-42846285D02*
X95214472Y-42989142D01*
X95214472Y-42989142D02*
X95214472Y-43132000D01*
X95214472Y-43132000D02*
X95143043Y-43346285D01*
X95143043Y-43346285D02*
X94285900Y-44203428D01*
X94285900Y-44203428D02*
X95214472Y-44203428D01*
X96500186Y-43203428D02*
X96500186Y-44203428D01*
X96143043Y-42632000D02*
X95785900Y-43703428D01*
X95785900Y-43703428D02*
X96714471Y-43703428D01*
X97571614Y-42703428D02*
X97714471Y-42703428D01*
X97714471Y-42703428D02*
X97857328Y-42774857D01*
X97857328Y-42774857D02*
X97928757Y-42846285D01*
X97928757Y-42846285D02*
X98000185Y-42989142D01*
X98000185Y-42989142D02*
X98071614Y-43274857D01*
X98071614Y-43274857D02*
X98071614Y-43632000D01*
X98071614Y-43632000D02*
X98000185Y-43917714D01*
X98000185Y-43917714D02*
X97928757Y-44060571D01*
X97928757Y-44060571D02*
X97857328Y-44132000D01*
X97857328Y-44132000D02*
X97714471Y-44203428D01*
X97714471Y-44203428D02*
X97571614Y-44203428D01*
X97571614Y-44203428D02*
X97428757Y-44132000D01*
X97428757Y-44132000D02*
X97357328Y-44060571D01*
X97357328Y-44060571D02*
X97285899Y-43917714D01*
X97285899Y-43917714D02*
X97214471Y-43632000D01*
X97214471Y-43632000D02*
X97214471Y-43274857D01*
X97214471Y-43274857D02*
X97285899Y-42989142D01*
X97285899Y-42989142D02*
X97357328Y-42846285D01*
X97357328Y-42846285D02*
X97428757Y-42774857D01*
X97428757Y-42774857D02*
X97571614Y-42703428D01*
X98571613Y-44203428D02*
X99357328Y-43203428D01*
X98571613Y-43203428D02*
X99357328Y-44203428D01*
X99785899Y-42703428D02*
X100714471Y-42703428D01*
X100714471Y-42703428D02*
X100214471Y-43274857D01*
X100214471Y-43274857D02*
X100428756Y-43274857D01*
X100428756Y-43274857D02*
X100571614Y-43346285D01*
X100571614Y-43346285D02*
X100643042Y-43417714D01*
X100643042Y-43417714D02*
X100714471Y-43560571D01*
X100714471Y-43560571D02*
X100714471Y-43917714D01*
X100714471Y-43917714D02*
X100643042Y-44060571D01*
X100643042Y-44060571D02*
X100571614Y-44132000D01*
X100571614Y-44132000D02*
X100428756Y-44203428D01*
X100428756Y-44203428D02*
X100000185Y-44203428D01*
X100000185Y-44203428D02*
X99857328Y-44132000D01*
X99857328Y-44132000D02*
X99785899Y-44060571D01*
X101285899Y-42846285D02*
X101357327Y-42774857D01*
X101357327Y-42774857D02*
X101500185Y-42703428D01*
X101500185Y-42703428D02*
X101857327Y-42703428D01*
X101857327Y-42703428D02*
X102000185Y-42774857D01*
X102000185Y-42774857D02*
X102071613Y-42846285D01*
X102071613Y-42846285D02*
X102143042Y-42989142D01*
X102143042Y-42989142D02*
X102143042Y-43132000D01*
X102143042Y-43132000D02*
X102071613Y-43346285D01*
X102071613Y-43346285D02*
X101214470Y-44203428D01*
X101214470Y-44203428D02*
X102143042Y-44203428D01*
X103071613Y-42703428D02*
X103214470Y-42703428D01*
X103214470Y-42703428D02*
X103357327Y-42774857D01*
X103357327Y-42774857D02*
X103428756Y-42846285D01*
X103428756Y-42846285D02*
X103500184Y-42989142D01*
X103500184Y-42989142D02*
X103571613Y-43274857D01*
X103571613Y-43274857D02*
X103571613Y-43632000D01*
X103571613Y-43632000D02*
X103500184Y-43917714D01*
X103500184Y-43917714D02*
X103428756Y-44060571D01*
X103428756Y-44060571D02*
X103357327Y-44132000D01*
X103357327Y-44132000D02*
X103214470Y-44203428D01*
X103214470Y-44203428D02*
X103071613Y-44203428D01*
X103071613Y-44203428D02*
X102928756Y-44132000D01*
X102928756Y-44132000D02*
X102857327Y-44060571D01*
X102857327Y-44060571D02*
X102785898Y-43917714D01*
X102785898Y-43917714D02*
X102714470Y-43632000D01*
X102714470Y-43632000D02*
X102714470Y-43274857D01*
X102714470Y-43274857D02*
X102785898Y-42989142D01*
X102785898Y-42989142D02*
X102857327Y-42846285D01*
X102857327Y-42846285D02*
X102928756Y-42774857D01*
X102928756Y-42774857D02*
X103071613Y-42703428D01*
X105143041Y-42703428D02*
X106000184Y-42703428D01*
X105571612Y-44203428D02*
X105571612Y-42703428D01*
X107000183Y-43417714D02*
X106500183Y-43417714D01*
X106500183Y-44203428D02*
X106500183Y-42703428D01*
X106500183Y-42703428D02*
X107214469Y-42703428D01*
X107571612Y-42703428D02*
X108428755Y-42703428D01*
X108000183Y-44203428D02*
X108000183Y-42703428D01*
D10*
X107147160Y-97353295D02*
X107147160Y-96553295D01*
X107147160Y-96553295D02*
X107337636Y-96553295D01*
X107337636Y-96553295D02*
X107451922Y-96591390D01*
X107451922Y-96591390D02*
X107528112Y-96667580D01*
X107528112Y-96667580D02*
X107566207Y-96743771D01*
X107566207Y-96743771D02*
X107604303Y-96896152D01*
X107604303Y-96896152D02*
X107604303Y-97010438D01*
X107604303Y-97010438D02*
X107566207Y-97162819D01*
X107566207Y-97162819D02*
X107528112Y-97239009D01*
X107528112Y-97239009D02*
X107451922Y-97315200D01*
X107451922Y-97315200D02*
X107337636Y-97353295D01*
X107337636Y-97353295D02*
X107147160Y-97353295D01*
X108404303Y-97277104D02*
X108366207Y-97315200D01*
X108366207Y-97315200D02*
X108251922Y-97353295D01*
X108251922Y-97353295D02*
X108175731Y-97353295D01*
X108175731Y-97353295D02*
X108061445Y-97315200D01*
X108061445Y-97315200D02*
X107985255Y-97239009D01*
X107985255Y-97239009D02*
X107947160Y-97162819D01*
X107947160Y-97162819D02*
X107909064Y-97010438D01*
X107909064Y-97010438D02*
X107909064Y-96896152D01*
X107909064Y-96896152D02*
X107947160Y-96743771D01*
X107947160Y-96743771D02*
X107985255Y-96667580D01*
X107985255Y-96667580D02*
X108061445Y-96591390D01*
X108061445Y-96591390D02*
X108175731Y-96553295D01*
X108175731Y-96553295D02*
X108251922Y-96553295D01*
X108251922Y-96553295D02*
X108366207Y-96591390D01*
X108366207Y-96591390D02*
X108404303Y-96629485D01*
X102368303Y-97277104D02*
X102330207Y-97315200D01*
X102330207Y-97315200D02*
X102215922Y-97353295D01*
X102215922Y-97353295D02*
X102139731Y-97353295D01*
X102139731Y-97353295D02*
X102025445Y-97315200D01*
X102025445Y-97315200D02*
X101949255Y-97239009D01*
X101949255Y-97239009D02*
X101911160Y-97162819D01*
X101911160Y-97162819D02*
X101873064Y-97010438D01*
X101873064Y-97010438D02*
X101873064Y-96896152D01*
X101873064Y-96896152D02*
X101911160Y-96743771D01*
X101911160Y-96743771D02*
X101949255Y-96667580D01*
X101949255Y-96667580D02*
X102025445Y-96591390D01*
X102025445Y-96591390D02*
X102139731Y-96553295D01*
X102139731Y-96553295D02*
X102215922Y-96553295D01*
X102215922Y-96553295D02*
X102330207Y-96591390D01*
X102330207Y-96591390D02*
X102368303Y-96629485D01*
X102673064Y-97315200D02*
X102787350Y-97353295D01*
X102787350Y-97353295D02*
X102977826Y-97353295D01*
X102977826Y-97353295D02*
X103054017Y-97315200D01*
X103054017Y-97315200D02*
X103092112Y-97277104D01*
X103092112Y-97277104D02*
X103130207Y-97200914D01*
X103130207Y-97200914D02*
X103130207Y-97124723D01*
X103130207Y-97124723D02*
X103092112Y-97048533D01*
X103092112Y-97048533D02*
X103054017Y-97010438D01*
X103054017Y-97010438D02*
X102977826Y-96972342D01*
X102977826Y-96972342D02*
X102825445Y-96934247D01*
X102825445Y-96934247D02*
X102749255Y-96896152D01*
X102749255Y-96896152D02*
X102711160Y-96858057D01*
X102711160Y-96858057D02*
X102673064Y-96781866D01*
X102673064Y-96781866D02*
X102673064Y-96705676D01*
X102673064Y-96705676D02*
X102711160Y-96629485D01*
X102711160Y-96629485D02*
X102749255Y-96591390D01*
X102749255Y-96591390D02*
X102825445Y-96553295D01*
X102825445Y-96553295D02*
X103015922Y-96553295D01*
X103015922Y-96553295D02*
X103130207Y-96591390D01*
X104568303Y-97353295D02*
X104301636Y-96972342D01*
X104111160Y-97353295D02*
X104111160Y-96553295D01*
X104111160Y-96553295D02*
X104415922Y-96553295D01*
X104415922Y-96553295D02*
X104492112Y-96591390D01*
X104492112Y-96591390D02*
X104530207Y-96629485D01*
X104530207Y-96629485D02*
X104568303Y-96705676D01*
X104568303Y-96705676D02*
X104568303Y-96819961D01*
X104568303Y-96819961D02*
X104530207Y-96896152D01*
X104530207Y-96896152D02*
X104492112Y-96934247D01*
X104492112Y-96934247D02*
X104415922Y-96972342D01*
X104415922Y-96972342D02*
X104111160Y-96972342D01*
X104873064Y-97315200D02*
X104987350Y-97353295D01*
X104987350Y-97353295D02*
X105177826Y-97353295D01*
X105177826Y-97353295D02*
X105254017Y-97315200D01*
X105254017Y-97315200D02*
X105292112Y-97277104D01*
X105292112Y-97277104D02*
X105330207Y-97200914D01*
X105330207Y-97200914D02*
X105330207Y-97124723D01*
X105330207Y-97124723D02*
X105292112Y-97048533D01*
X105292112Y-97048533D02*
X105254017Y-97010438D01*
X105254017Y-97010438D02*
X105177826Y-96972342D01*
X105177826Y-96972342D02*
X105025445Y-96934247D01*
X105025445Y-96934247D02*
X104949255Y-96896152D01*
X104949255Y-96896152D02*
X104911160Y-96858057D01*
X104911160Y-96858057D02*
X104873064Y-96781866D01*
X104873064Y-96781866D02*
X104873064Y-96705676D01*
X104873064Y-96705676D02*
X104911160Y-96629485D01*
X104911160Y-96629485D02*
X104949255Y-96591390D01*
X104949255Y-96591390D02*
X105025445Y-96553295D01*
X105025445Y-96553295D02*
X105215922Y-96553295D01*
X105215922Y-96553295D02*
X105330207Y-96591390D01*
X105558779Y-96553295D02*
X106015922Y-96553295D01*
X105787350Y-97353295D02*
X105787350Y-96553295D01*
X88412969Y-96553295D02*
X88908207Y-96553295D01*
X88908207Y-96553295D02*
X88641541Y-96858057D01*
X88641541Y-96858057D02*
X88755826Y-96858057D01*
X88755826Y-96858057D02*
X88832017Y-96896152D01*
X88832017Y-96896152D02*
X88870112Y-96934247D01*
X88870112Y-96934247D02*
X88908207Y-97010438D01*
X88908207Y-97010438D02*
X88908207Y-97200914D01*
X88908207Y-97200914D02*
X88870112Y-97277104D01*
X88870112Y-97277104D02*
X88832017Y-97315200D01*
X88832017Y-97315200D02*
X88755826Y-97353295D01*
X88755826Y-97353295D02*
X88527255Y-97353295D01*
X88527255Y-97353295D02*
X88451064Y-97315200D01*
X88451064Y-97315200D02*
X88412969Y-97277104D01*
X89251065Y-97277104D02*
X89289160Y-97315200D01*
X89289160Y-97315200D02*
X89251065Y-97353295D01*
X89251065Y-97353295D02*
X89212969Y-97315200D01*
X89212969Y-97315200D02*
X89251065Y-97277104D01*
X89251065Y-97277104D02*
X89251065Y-97353295D01*
X89555826Y-96553295D02*
X90051064Y-96553295D01*
X90051064Y-96553295D02*
X89784398Y-96858057D01*
X89784398Y-96858057D02*
X89898683Y-96858057D01*
X89898683Y-96858057D02*
X89974874Y-96896152D01*
X89974874Y-96896152D02*
X90012969Y-96934247D01*
X90012969Y-96934247D02*
X90051064Y-97010438D01*
X90051064Y-97010438D02*
X90051064Y-97200914D01*
X90051064Y-97200914D02*
X90012969Y-97277104D01*
X90012969Y-97277104D02*
X89974874Y-97315200D01*
X89974874Y-97315200D02*
X89898683Y-97353295D01*
X89898683Y-97353295D02*
X89670112Y-97353295D01*
X89670112Y-97353295D02*
X89593921Y-97315200D01*
X89593921Y-97315200D02*
X89555826Y-97277104D01*
X90279636Y-96553295D02*
X90546303Y-97353295D01*
X90546303Y-97353295D02*
X90812969Y-96553295D01*
D12*
X88410149Y-46460600D02*
X88581578Y-46517742D01*
X88581578Y-46517742D02*
X88867292Y-46517742D01*
X88867292Y-46517742D02*
X88981578Y-46460600D01*
X88981578Y-46460600D02*
X89038720Y-46403457D01*
X89038720Y-46403457D02*
X89095863Y-46289171D01*
X89095863Y-46289171D02*
X89095863Y-46174885D01*
X89095863Y-46174885D02*
X89038720Y-46060600D01*
X89038720Y-46060600D02*
X88981578Y-46003457D01*
X88981578Y-46003457D02*
X88867292Y-45946314D01*
X88867292Y-45946314D02*
X88638720Y-45889171D01*
X88638720Y-45889171D02*
X88524435Y-45832028D01*
X88524435Y-45832028D02*
X88467292Y-45774885D01*
X88467292Y-45774885D02*
X88410149Y-45660600D01*
X88410149Y-45660600D02*
X88410149Y-45546314D01*
X88410149Y-45546314D02*
X88467292Y-45432028D01*
X88467292Y-45432028D02*
X88524435Y-45374885D01*
X88524435Y-45374885D02*
X88638720Y-45317742D01*
X88638720Y-45317742D02*
X88924435Y-45317742D01*
X88924435Y-45317742D02*
X89095863Y-45374885D01*
X89438720Y-45317742D02*
X90124435Y-45317742D01*
X89781577Y-46517742D02*
X89781577Y-45317742D01*
X90410149Y-45317742D02*
X91210149Y-45317742D01*
X91210149Y-45317742D02*
X90695863Y-46517742D01*
X91553006Y-45317742D02*
X92353006Y-45317742D01*
X92353006Y-45317742D02*
X91838720Y-46517742D01*
X92981577Y-45832028D02*
X92867292Y-45774885D01*
X92867292Y-45774885D02*
X92810149Y-45717742D01*
X92810149Y-45717742D02*
X92753006Y-45603457D01*
X92753006Y-45603457D02*
X92753006Y-45546314D01*
X92753006Y-45546314D02*
X92810149Y-45432028D01*
X92810149Y-45432028D02*
X92867292Y-45374885D01*
X92867292Y-45374885D02*
X92981577Y-45317742D01*
X92981577Y-45317742D02*
X93210149Y-45317742D01*
X93210149Y-45317742D02*
X93324435Y-45374885D01*
X93324435Y-45374885D02*
X93381577Y-45432028D01*
X93381577Y-45432028D02*
X93438720Y-45546314D01*
X93438720Y-45546314D02*
X93438720Y-45603457D01*
X93438720Y-45603457D02*
X93381577Y-45717742D01*
X93381577Y-45717742D02*
X93324435Y-45774885D01*
X93324435Y-45774885D02*
X93210149Y-45832028D01*
X93210149Y-45832028D02*
X92981577Y-45832028D01*
X92981577Y-45832028D02*
X92867292Y-45889171D01*
X92867292Y-45889171D02*
X92810149Y-45946314D01*
X92810149Y-45946314D02*
X92753006Y-46060600D01*
X92753006Y-46060600D02*
X92753006Y-46289171D01*
X92753006Y-46289171D02*
X92810149Y-46403457D01*
X92810149Y-46403457D02*
X92867292Y-46460600D01*
X92867292Y-46460600D02*
X92981577Y-46517742D01*
X92981577Y-46517742D02*
X93210149Y-46517742D01*
X93210149Y-46517742D02*
X93324435Y-46460600D01*
X93324435Y-46460600D02*
X93381577Y-46403457D01*
X93381577Y-46403457D02*
X93438720Y-46289171D01*
X93438720Y-46289171D02*
X93438720Y-46060600D01*
X93438720Y-46060600D02*
X93381577Y-45946314D01*
X93381577Y-45946314D02*
X93324435Y-45889171D01*
X93324435Y-45889171D02*
X93210149Y-45832028D01*
X94010149Y-46517742D02*
X94238720Y-46517742D01*
X94238720Y-46517742D02*
X94353006Y-46460600D01*
X94353006Y-46460600D02*
X94410149Y-46403457D01*
X94410149Y-46403457D02*
X94524434Y-46232028D01*
X94524434Y-46232028D02*
X94581577Y-46003457D01*
X94581577Y-46003457D02*
X94581577Y-45546314D01*
X94581577Y-45546314D02*
X94524434Y-45432028D01*
X94524434Y-45432028D02*
X94467292Y-45374885D01*
X94467292Y-45374885D02*
X94353006Y-45317742D01*
X94353006Y-45317742D02*
X94124434Y-45317742D01*
X94124434Y-45317742D02*
X94010149Y-45374885D01*
X94010149Y-45374885D02*
X93953006Y-45432028D01*
X93953006Y-45432028D02*
X93895863Y-45546314D01*
X93895863Y-45546314D02*
X93895863Y-45832028D01*
X93895863Y-45832028D02*
X93953006Y-45946314D01*
X93953006Y-45946314D02*
X94010149Y-46003457D01*
X94010149Y-46003457D02*
X94124434Y-46060600D01*
X94124434Y-46060600D02*
X94353006Y-46060600D01*
X94353006Y-46060600D02*
X94467292Y-46003457D01*
X94467292Y-46003457D02*
X94524434Y-45946314D01*
X94524434Y-45946314D02*
X94581577Y-45832028D01*
D10*
X91808207Y-96591390D02*
X91732017Y-96553295D01*
X91732017Y-96553295D02*
X91617731Y-96553295D01*
X91617731Y-96553295D02*
X91503445Y-96591390D01*
X91503445Y-96591390D02*
X91427255Y-96667580D01*
X91427255Y-96667580D02*
X91389160Y-96743771D01*
X91389160Y-96743771D02*
X91351064Y-96896152D01*
X91351064Y-96896152D02*
X91351064Y-97010438D01*
X91351064Y-97010438D02*
X91389160Y-97162819D01*
X91389160Y-97162819D02*
X91427255Y-97239009D01*
X91427255Y-97239009D02*
X91503445Y-97315200D01*
X91503445Y-97315200D02*
X91617731Y-97353295D01*
X91617731Y-97353295D02*
X91693922Y-97353295D01*
X91693922Y-97353295D02*
X91808207Y-97315200D01*
X91808207Y-97315200D02*
X91846303Y-97277104D01*
X91846303Y-97277104D02*
X91846303Y-97010438D01*
X91846303Y-97010438D02*
X91693922Y-97010438D01*
X92189160Y-97353295D02*
X92189160Y-96553295D01*
X92189160Y-96553295D02*
X92646303Y-97353295D01*
X92646303Y-97353295D02*
X92646303Y-96553295D01*
X93027255Y-97353295D02*
X93027255Y-96553295D01*
X93027255Y-96553295D02*
X93217731Y-96553295D01*
X93217731Y-96553295D02*
X93332017Y-96591390D01*
X93332017Y-96591390D02*
X93408207Y-96667580D01*
X93408207Y-96667580D02*
X93446302Y-96743771D01*
X93446302Y-96743771D02*
X93484398Y-96896152D01*
X93484398Y-96896152D02*
X93484398Y-97010438D01*
X93484398Y-97010438D02*
X93446302Y-97162819D01*
X93446302Y-97162819D02*
X93408207Y-97239009D01*
X93408207Y-97239009D02*
X93332017Y-97315200D01*
X93332017Y-97315200D02*
X93217731Y-97353295D01*
X93217731Y-97353295D02*
X93027255Y-97353295D01*
X94073064Y-97315200D02*
X94187350Y-97353295D01*
X94187350Y-97353295D02*
X94377826Y-97353295D01*
X94377826Y-97353295D02*
X94454017Y-97315200D01*
X94454017Y-97315200D02*
X94492112Y-97277104D01*
X94492112Y-97277104D02*
X94530207Y-97200914D01*
X94530207Y-97200914D02*
X94530207Y-97124723D01*
X94530207Y-97124723D02*
X94492112Y-97048533D01*
X94492112Y-97048533D02*
X94454017Y-97010438D01*
X94454017Y-97010438D02*
X94377826Y-96972342D01*
X94377826Y-96972342D02*
X94225445Y-96934247D01*
X94225445Y-96934247D02*
X94149255Y-96896152D01*
X94149255Y-96896152D02*
X94111160Y-96858057D01*
X94111160Y-96858057D02*
X94073064Y-96781866D01*
X94073064Y-96781866D02*
X94073064Y-96705676D01*
X94073064Y-96705676D02*
X94111160Y-96629485D01*
X94111160Y-96629485D02*
X94149255Y-96591390D01*
X94149255Y-96591390D02*
X94225445Y-96553295D01*
X94225445Y-96553295D02*
X94415922Y-96553295D01*
X94415922Y-96553295D02*
X94530207Y-96591390D01*
X95330208Y-97277104D02*
X95292112Y-97315200D01*
X95292112Y-97315200D02*
X95177827Y-97353295D01*
X95177827Y-97353295D02*
X95101636Y-97353295D01*
X95101636Y-97353295D02*
X94987350Y-97315200D01*
X94987350Y-97315200D02*
X94911160Y-97239009D01*
X94911160Y-97239009D02*
X94873065Y-97162819D01*
X94873065Y-97162819D02*
X94834969Y-97010438D01*
X94834969Y-97010438D02*
X94834969Y-96896152D01*
X94834969Y-96896152D02*
X94873065Y-96743771D01*
X94873065Y-96743771D02*
X94911160Y-96667580D01*
X94911160Y-96667580D02*
X94987350Y-96591390D01*
X94987350Y-96591390D02*
X95101636Y-96553295D01*
X95101636Y-96553295D02*
X95177827Y-96553295D01*
X95177827Y-96553295D02*
X95292112Y-96591390D01*
X95292112Y-96591390D02*
X95330208Y-96629485D01*
X95673065Y-97353295D02*
X95673065Y-96553295D01*
X96130208Y-97353295D02*
X95787350Y-96896152D01*
X96130208Y-96553295D02*
X95673065Y-97010438D01*
X98511160Y-97353295D02*
X98511160Y-96553295D01*
X98511160Y-96553295D02*
X98777826Y-97124723D01*
X98777826Y-97124723D02*
X99044493Y-96553295D01*
X99044493Y-96553295D02*
X99044493Y-97353295D01*
X99577827Y-96553295D02*
X99730208Y-96553295D01*
X99730208Y-96553295D02*
X99806398Y-96591390D01*
X99806398Y-96591390D02*
X99882589Y-96667580D01*
X99882589Y-96667580D02*
X99920684Y-96819961D01*
X99920684Y-96819961D02*
X99920684Y-97086628D01*
X99920684Y-97086628D02*
X99882589Y-97239009D01*
X99882589Y-97239009D02*
X99806398Y-97315200D01*
X99806398Y-97315200D02*
X99730208Y-97353295D01*
X99730208Y-97353295D02*
X99577827Y-97353295D01*
X99577827Y-97353295D02*
X99501636Y-97315200D01*
X99501636Y-97315200D02*
X99425446Y-97239009D01*
X99425446Y-97239009D02*
X99387350Y-97086628D01*
X99387350Y-97086628D02*
X99387350Y-96819961D01*
X99387350Y-96819961D02*
X99425446Y-96667580D01*
X99425446Y-96667580D02*
X99501636Y-96591390D01*
X99501636Y-96591390D02*
X99577827Y-96553295D01*
X100225445Y-97315200D02*
X100339731Y-97353295D01*
X100339731Y-97353295D02*
X100530207Y-97353295D01*
X100530207Y-97353295D02*
X100606398Y-97315200D01*
X100606398Y-97315200D02*
X100644493Y-97277104D01*
X100644493Y-97277104D02*
X100682588Y-97200914D01*
X100682588Y-97200914D02*
X100682588Y-97124723D01*
X100682588Y-97124723D02*
X100644493Y-97048533D01*
X100644493Y-97048533D02*
X100606398Y-97010438D01*
X100606398Y-97010438D02*
X100530207Y-96972342D01*
X100530207Y-96972342D02*
X100377826Y-96934247D01*
X100377826Y-96934247D02*
X100301636Y-96896152D01*
X100301636Y-96896152D02*
X100263541Y-96858057D01*
X100263541Y-96858057D02*
X100225445Y-96781866D01*
X100225445Y-96781866D02*
X100225445Y-96705676D01*
X100225445Y-96705676D02*
X100263541Y-96629485D01*
X100263541Y-96629485D02*
X100301636Y-96591390D01*
X100301636Y-96591390D02*
X100377826Y-96553295D01*
X100377826Y-96553295D02*
X100568303Y-96553295D01*
X100568303Y-96553295D02*
X100682588Y-96591390D01*
X101025446Y-97353295D02*
X101025446Y-96553295D01*
X101583333Y-77537295D02*
X101583333Y-78108723D01*
X101583333Y-78108723D02*
X101545238Y-78223009D01*
X101545238Y-78223009D02*
X101469047Y-78299200D01*
X101469047Y-78299200D02*
X101354762Y-78337295D01*
X101354762Y-78337295D02*
X101278571Y-78337295D01*
X101926190Y-77613485D02*
X101964286Y-77575390D01*
X101964286Y-77575390D02*
X102040476Y-77537295D01*
X102040476Y-77537295D02*
X102230952Y-77537295D01*
X102230952Y-77537295D02*
X102307143Y-77575390D01*
X102307143Y-77575390D02*
X102345238Y-77613485D01*
X102345238Y-77613485D02*
X102383333Y-77689676D01*
X102383333Y-77689676D02*
X102383333Y-77765866D01*
X102383333Y-77765866D02*
X102345238Y-77880152D01*
X102345238Y-77880152D02*
X101888095Y-78337295D01*
X101888095Y-78337295D02*
X102383333Y-78337295D01*
X83666667Y-97407295D02*
X83400000Y-97026342D01*
X83209524Y-97407295D02*
X83209524Y-96607295D01*
X83209524Y-96607295D02*
X83514286Y-96607295D01*
X83514286Y-96607295D02*
X83590476Y-96645390D01*
X83590476Y-96645390D02*
X83628571Y-96683485D01*
X83628571Y-96683485D02*
X83666667Y-96759676D01*
X83666667Y-96759676D02*
X83666667Y-96873961D01*
X83666667Y-96873961D02*
X83628571Y-96950152D01*
X83628571Y-96950152D02*
X83590476Y-96988247D01*
X83590476Y-96988247D02*
X83514286Y-97026342D01*
X83514286Y-97026342D02*
X83209524Y-97026342D01*
X84428571Y-97407295D02*
X83971428Y-97407295D01*
X84200000Y-97407295D02*
X84200000Y-96607295D01*
X84200000Y-96607295D02*
X84123809Y-96721580D01*
X84123809Y-96721580D02*
X84047619Y-96797771D01*
X84047619Y-96797771D02*
X83971428Y-96835866D01*
X113466667Y-99337295D02*
X113200000Y-98956342D01*
X113009524Y-99337295D02*
X113009524Y-98537295D01*
X113009524Y-98537295D02*
X113314286Y-98537295D01*
X113314286Y-98537295D02*
X113390476Y-98575390D01*
X113390476Y-98575390D02*
X113428571Y-98613485D01*
X113428571Y-98613485D02*
X113466667Y-98689676D01*
X113466667Y-98689676D02*
X113466667Y-98803961D01*
X113466667Y-98803961D02*
X113428571Y-98880152D01*
X113428571Y-98880152D02*
X113390476Y-98918247D01*
X113390476Y-98918247D02*
X113314286Y-98956342D01*
X113314286Y-98956342D02*
X113009524Y-98956342D01*
X113771428Y-98613485D02*
X113809524Y-98575390D01*
X113809524Y-98575390D02*
X113885714Y-98537295D01*
X113885714Y-98537295D02*
X114076190Y-98537295D01*
X114076190Y-98537295D02*
X114152381Y-98575390D01*
X114152381Y-98575390D02*
X114190476Y-98613485D01*
X114190476Y-98613485D02*
X114228571Y-98689676D01*
X114228571Y-98689676D02*
X114228571Y-98765866D01*
X114228571Y-98765866D02*
X114190476Y-98880152D01*
X114190476Y-98880152D02*
X113733333Y-99337295D01*
X113733333Y-99337295D02*
X114228571Y-99337295D01*
X83666667Y-99261104D02*
X83628571Y-99299200D01*
X83628571Y-99299200D02*
X83514286Y-99337295D01*
X83514286Y-99337295D02*
X83438095Y-99337295D01*
X83438095Y-99337295D02*
X83323809Y-99299200D01*
X83323809Y-99299200D02*
X83247619Y-99223009D01*
X83247619Y-99223009D02*
X83209524Y-99146819D01*
X83209524Y-99146819D02*
X83171428Y-98994438D01*
X83171428Y-98994438D02*
X83171428Y-98880152D01*
X83171428Y-98880152D02*
X83209524Y-98727771D01*
X83209524Y-98727771D02*
X83247619Y-98651580D01*
X83247619Y-98651580D02*
X83323809Y-98575390D01*
X83323809Y-98575390D02*
X83438095Y-98537295D01*
X83438095Y-98537295D02*
X83514286Y-98537295D01*
X83514286Y-98537295D02*
X83628571Y-98575390D01*
X83628571Y-98575390D02*
X83666667Y-98613485D01*
X84428571Y-99337295D02*
X83971428Y-99337295D01*
X84200000Y-99337295D02*
X84200000Y-98537295D01*
X84200000Y-98537295D02*
X84123809Y-98651580D01*
X84123809Y-98651580D02*
X84047619Y-98727771D01*
X84047619Y-98727771D02*
X83971428Y-98765866D01*
D14*
%TO.C,R1*%
X86477064Y-97810000D02*
X86022936Y-97810000D01*
X86477064Y-96340000D02*
X86022936Y-96340000D01*
%TO.C,R2*%
X111427064Y-99710000D02*
X110972936Y-99710000D01*
X111427064Y-98240000D02*
X110972936Y-98240000D01*
%TO.C,C1*%
X85988748Y-98240000D02*
X86511252Y-98240000D01*
X85988748Y-99710000D02*
X86511252Y-99710000D01*
%TD*%
M02*
