%TF.GenerationSoftware,KiCad,Pcbnew,7.0.10*%
%TF.CreationDate,2025-06-29T16:51:36+02:00*%
%TF.ProjectId,Display_Carrier,44697370-6c61-4795-9f43-617272696572,rev?*%
%TF.SameCoordinates,Original*%
%TF.FileFunction,Copper,L2,Bot*%
%TF.FilePolarity,Positive*%
%FSLAX46Y46*%
G04 Gerber Fmt 4.6, Leading zero omitted, Abs format (unit mm)*
G04 Created by KiCad (PCBNEW 7.0.10) date 2025-06-29 16:51:36*
%MOMM*%
%LPD*%
G01*
G04 APERTURE LIST*
%TA.AperFunction,ComponentPad*%
%ADD10R,1.700000X1.700000*%
%TD*%
%TA.AperFunction,ComponentPad*%
%ADD11O,1.700000X1.700000*%
%TD*%
%TA.AperFunction,ViaPad*%
%ADD12C,0.800000*%
%TD*%
%TA.AperFunction,Conductor*%
%ADD13C,0.600000*%
%TD*%
%TA.AperFunction,Conductor*%
%ADD14C,0.400000*%
%TD*%
G04 APERTURE END LIST*
D10*
%TO.P,J1,1,Pin_1*%
%TO.N,+3.3V*%
X89840000Y-98475000D03*
D11*
%TO.P,J1,2,Pin_2*%
%TO.N,GND*%
X92380000Y-98475000D03*
%TO.P,J1,3,Pin_3*%
%TO.N,/SCK*%
X94920000Y-98475000D03*
%TO.P,J1,4,Pin_4*%
%TO.N,/MISO*%
X97460000Y-98475000D03*
%TO.P,J1,5,Pin_5*%
%TO.N,/MOSI*%
X100000000Y-98475000D03*
%TO.P,J1,6,Pin_6*%
%TO.N,/CS*%
X102540000Y-98475000D03*
%TO.P,J1,7,Pin_7*%
%TO.N,/RESET*%
X105080000Y-98475000D03*
%TO.P,J1,8,Pin_8*%
%TO.N,/DC*%
X107620000Y-98475000D03*
%TD*%
D12*
%TO.N,GND*%
X103500000Y-84362735D03*
X103500000Y-85375000D03*
%TO.N,+3.3V*%
X104243904Y-78483096D03*
%TO.N,/SCK*%
X99850000Y-87150000D03*
%TO.N,/MOSI*%
X99051944Y-89350000D03*
%TO.N,/CS*%
X100650000Y-88150000D03*
%TO.N,/RESET*%
X86265212Y-95918107D03*
X98250000Y-81711000D03*
%TD*%
D13*
%TO.N,+3.3V*%
X104318000Y-78557192D02*
X104318000Y-81409207D01*
X89840000Y-95887207D02*
X89840000Y-98475000D01*
X104243904Y-78483096D02*
X104318000Y-78557192D01*
X104318000Y-81409207D02*
X89840000Y-95887207D01*
D14*
%TO.N,/SCK*%
X99800000Y-87150000D02*
X94920000Y-92030000D01*
X99850000Y-87150000D02*
X99800000Y-87150000D01*
X94920000Y-92030000D02*
X94920000Y-98500000D01*
%TO.N,/MOSI*%
X99000000Y-89401944D02*
X99000000Y-96325000D01*
X99000000Y-96325000D02*
X100000000Y-97325000D01*
X99051944Y-89350000D02*
X99000000Y-89401944D01*
X100000000Y-97325000D02*
X100000000Y-98475000D01*
%TO.N,/CS*%
X100650000Y-88150000D02*
X100650000Y-95435000D01*
X102540000Y-97325000D02*
X102540000Y-98475000D01*
X100650000Y-95435000D02*
X102540000Y-97325000D01*
%TO.N,/RESET*%
X98250000Y-86255000D02*
X98250000Y-81711000D01*
X86265212Y-95918107D02*
X88586893Y-95918107D01*
X88586893Y-95918107D02*
X98250000Y-86255000D01*
%TD*%
%TA.AperFunction,Conductor*%
%TO.N,GND*%
G36*
X115784042Y-41833764D02*
G01*
X115863586Y-41838978D01*
X115863767Y-41838991D01*
X116041587Y-41851709D01*
X116056904Y-41853772D01*
X116168378Y-41875945D01*
X116170437Y-41876374D01*
X116310240Y-41906786D01*
X116323703Y-41910522D01*
X116437725Y-41949228D01*
X116441074Y-41950420D01*
X116568808Y-41998062D01*
X116580300Y-42003024D01*
X116690687Y-42057461D01*
X116695187Y-42059798D01*
X116812478Y-42123844D01*
X116821942Y-42129574D01*
X116925269Y-42198615D01*
X116930688Y-42202450D01*
X117036727Y-42281830D01*
X117044145Y-42287844D01*
X117137976Y-42370131D01*
X117143898Y-42375678D01*
X117237320Y-42469100D01*
X117242867Y-42475022D01*
X117325150Y-42568848D01*
X117331173Y-42576278D01*
X117368691Y-42626396D01*
X117410548Y-42682310D01*
X117414383Y-42687729D01*
X117483424Y-42791056D01*
X117489154Y-42800520D01*
X117553183Y-42917779D01*
X117555556Y-42922348D01*
X117565511Y-42942534D01*
X117609969Y-43032687D01*
X117614938Y-43044196D01*
X117662556Y-43171863D01*
X117663793Y-43175338D01*
X117702470Y-43289276D01*
X117706217Y-43302777D01*
X117736613Y-43442508D01*
X117737064Y-43444675D01*
X117759224Y-43556080D01*
X117761291Y-43571425D01*
X117773995Y-43749046D01*
X117774045Y-43749781D01*
X117779234Y-43828941D01*
X117779500Y-43837052D01*
X117779500Y-97994947D01*
X117779234Y-98003058D01*
X117774045Y-98082217D01*
X117773995Y-98082952D01*
X117761291Y-98260573D01*
X117759224Y-98275918D01*
X117737064Y-98387323D01*
X117736613Y-98389490D01*
X117706217Y-98529221D01*
X117702470Y-98542722D01*
X117663793Y-98656660D01*
X117662556Y-98660135D01*
X117614938Y-98787802D01*
X117609969Y-98799311D01*
X117555564Y-98909635D01*
X117553183Y-98914219D01*
X117489154Y-99031478D01*
X117483424Y-99040942D01*
X117414383Y-99144269D01*
X117410548Y-99149688D01*
X117331181Y-99255711D01*
X117325142Y-99263160D01*
X117242867Y-99356976D01*
X117237320Y-99362898D01*
X117143898Y-99456320D01*
X117137976Y-99461867D01*
X117044160Y-99544142D01*
X117036711Y-99550181D01*
X116930688Y-99629548D01*
X116925269Y-99633383D01*
X116821942Y-99702424D01*
X116812478Y-99708154D01*
X116695219Y-99772183D01*
X116690635Y-99774564D01*
X116580311Y-99828969D01*
X116568802Y-99833938D01*
X116441135Y-99881556D01*
X116437660Y-99882793D01*
X116323722Y-99921470D01*
X116310221Y-99925217D01*
X116170490Y-99955613D01*
X116168323Y-99956064D01*
X116056918Y-99978224D01*
X116041573Y-99980291D01*
X115863952Y-99992995D01*
X115863217Y-99993045D01*
X115784058Y-99998234D01*
X115775947Y-99998500D01*
X84224053Y-99998500D01*
X84215942Y-99998234D01*
X84136781Y-99993045D01*
X84136046Y-99992995D01*
X83958425Y-99980291D01*
X83943080Y-99978224D01*
X83831675Y-99956064D01*
X83829508Y-99955613D01*
X83689777Y-99925217D01*
X83676276Y-99921470D01*
X83562338Y-99882793D01*
X83558863Y-99881556D01*
X83431196Y-99833938D01*
X83419687Y-99828969D01*
X83354947Y-99797043D01*
X83309348Y-99774556D01*
X83304779Y-99772183D01*
X83187520Y-99708154D01*
X83178056Y-99702424D01*
X83074729Y-99633383D01*
X83069310Y-99629548D01*
X82977696Y-99560967D01*
X82963278Y-99550173D01*
X82955848Y-99544150D01*
X82862022Y-99461867D01*
X82856100Y-99456320D01*
X82762678Y-99362898D01*
X82757131Y-99356976D01*
X82725450Y-99320851D01*
X82674844Y-99263145D01*
X82668830Y-99255727D01*
X82589450Y-99149688D01*
X82585615Y-99144269D01*
X82516574Y-99040942D01*
X82510844Y-99031478D01*
X82446798Y-98914187D01*
X82444461Y-98909687D01*
X82390024Y-98799300D01*
X82385060Y-98787802D01*
X82337420Y-98660074D01*
X82336228Y-98656725D01*
X82297522Y-98542703D01*
X82293786Y-98529240D01*
X82263374Y-98389437D01*
X82262945Y-98387378D01*
X82240772Y-98275904D01*
X82238709Y-98260587D01*
X82225991Y-98082767D01*
X82225978Y-98082586D01*
X82220765Y-98003043D01*
X82220500Y-97994934D01*
X82220500Y-95918107D01*
X85609934Y-95918107D01*
X85628974Y-96074925D01*
X85684992Y-96222630D01*
X85774729Y-96352637D01*
X85892972Y-96457390D01*
X85892974Y-96457391D01*
X86032846Y-96530803D01*
X86186226Y-96568607D01*
X86186227Y-96568607D01*
X86344197Y-96568607D01*
X86497577Y-96530803D01*
X86506707Y-96526011D01*
X86637452Y-96457390D01*
X86702468Y-96399790D01*
X86765702Y-96370070D01*
X86784695Y-96368607D01*
X88554631Y-96368607D01*
X88568513Y-96369386D01*
X88574577Y-96370070D01*
X88603926Y-96373377D01*
X88603926Y-96373376D01*
X88603928Y-96373377D01*
X88660129Y-96362742D01*
X88664619Y-96361979D01*
X88721180Y-96353455D01*
X88721184Y-96353452D01*
X88729340Y-96350937D01*
X88737362Y-96348131D01*
X88737363Y-96348130D01*
X88737365Y-96348130D01*
X88787981Y-96321377D01*
X88791986Y-96319355D01*
X88843535Y-96294532D01*
X88843536Y-96294530D01*
X88843538Y-96294530D01*
X88850588Y-96289723D01*
X88857427Y-96284674D01*
X88857431Y-96284673D01*
X88897868Y-96244234D01*
X88901154Y-96241068D01*
X88943087Y-96202162D01*
X88943089Y-96202157D01*
X88948880Y-96194897D01*
X88949536Y-96195420D01*
X88958922Y-96183180D01*
X89077821Y-96064281D01*
X89139142Y-96030799D01*
X89208834Y-96035783D01*
X89264767Y-96077655D01*
X89289184Y-96143119D01*
X89289500Y-96151965D01*
X89289500Y-97250500D01*
X89269815Y-97317539D01*
X89217011Y-97363294D01*
X89165500Y-97374500D01*
X88965323Y-97374500D01*
X88892264Y-97389032D01*
X88892260Y-97389033D01*
X88809399Y-97444399D01*
X88754033Y-97527260D01*
X88754032Y-97527264D01*
X88739500Y-97600321D01*
X88739500Y-99349678D01*
X88754032Y-99422735D01*
X88754033Y-99422739D01*
X88754034Y-99422740D01*
X88809399Y-99505601D01*
X88867081Y-99544142D01*
X88892260Y-99560966D01*
X88892264Y-99560967D01*
X88965321Y-99575499D01*
X88965324Y-99575500D01*
X88965326Y-99575500D01*
X90714676Y-99575500D01*
X90714677Y-99575499D01*
X90787740Y-99560966D01*
X90870601Y-99505601D01*
X90925966Y-99422740D01*
X90940500Y-99349674D01*
X90940500Y-98349999D01*
X91286869Y-98349999D01*
X91286870Y-98350000D01*
X91895595Y-98350000D01*
X91880000Y-98403111D01*
X91880000Y-98546889D01*
X91895595Y-98600000D01*
X91286870Y-98600000D01*
X91294097Y-98677989D01*
X91294097Y-98677992D01*
X91349883Y-98874063D01*
X91349886Y-98874069D01*
X91440754Y-99056556D01*
X91563608Y-99219242D01*
X91714260Y-99356578D01*
X91887584Y-99463897D01*
X92077678Y-99537539D01*
X92255000Y-99570686D01*
X92255000Y-98962169D01*
X92344237Y-98975000D01*
X92415763Y-98975000D01*
X92505000Y-98962169D01*
X92505000Y-99570686D01*
X92682321Y-99537539D01*
X92872415Y-99463897D01*
X93045739Y-99356578D01*
X93196391Y-99219242D01*
X93319245Y-99056556D01*
X93410113Y-98874069D01*
X93410116Y-98874063D01*
X93465902Y-98677992D01*
X93465902Y-98677989D01*
X93473130Y-98600000D01*
X92864405Y-98600000D01*
X92880000Y-98546889D01*
X92880000Y-98403111D01*
X92864405Y-98350000D01*
X93473130Y-98350000D01*
X93473130Y-98349999D01*
X93465902Y-98272010D01*
X93465902Y-98272007D01*
X93410116Y-98075936D01*
X93410113Y-98075930D01*
X93319245Y-97893443D01*
X93196391Y-97730757D01*
X93045739Y-97593421D01*
X92872415Y-97486102D01*
X92682321Y-97412460D01*
X92505000Y-97379312D01*
X92505000Y-97987830D01*
X92415763Y-97975000D01*
X92344237Y-97975000D01*
X92255000Y-97987830D01*
X92255000Y-97379312D01*
X92077678Y-97412460D01*
X91887584Y-97486102D01*
X91714260Y-97593421D01*
X91563608Y-97730757D01*
X91440754Y-97893443D01*
X91349886Y-98075930D01*
X91349883Y-98075936D01*
X91294097Y-98272007D01*
X91294097Y-98272010D01*
X91286869Y-98349999D01*
X90940500Y-98349999D01*
X90940500Y-97600326D01*
X90940500Y-97600323D01*
X90940499Y-97600321D01*
X90925967Y-97527264D01*
X90925966Y-97527260D01*
X90907605Y-97499781D01*
X90870601Y-97444399D01*
X90815235Y-97407405D01*
X90787739Y-97389033D01*
X90787735Y-97389032D01*
X90714677Y-97374500D01*
X90714674Y-97374500D01*
X90514500Y-97374500D01*
X90447461Y-97354815D01*
X90401706Y-97302011D01*
X90390500Y-97250500D01*
X90390500Y-96166593D01*
X90410185Y-96099554D01*
X90426814Y-96078917D01*
X94257819Y-92247911D01*
X94319142Y-92214427D01*
X94388834Y-92219411D01*
X94444767Y-92261283D01*
X94469184Y-92326747D01*
X94469500Y-92335593D01*
X94469500Y-97390494D01*
X94449815Y-97457533D01*
X94410778Y-97495921D01*
X94253957Y-97593020D01*
X94103237Y-97730418D01*
X93980327Y-97893178D01*
X93889422Y-98075739D01*
X93889417Y-98075752D01*
X93833602Y-98271917D01*
X93814785Y-98474999D01*
X93814785Y-98475000D01*
X93833602Y-98678082D01*
X93889417Y-98874247D01*
X93889422Y-98874260D01*
X93980327Y-99056821D01*
X94103237Y-99219581D01*
X94253958Y-99356980D01*
X94253960Y-99356982D01*
X94263515Y-99362898D01*
X94427363Y-99464348D01*
X94617544Y-99538024D01*
X94818024Y-99575500D01*
X94818026Y-99575500D01*
X95021974Y-99575500D01*
X95021976Y-99575500D01*
X95222456Y-99538024D01*
X95412637Y-99464348D01*
X95586041Y-99356981D01*
X95736764Y-99219579D01*
X95859673Y-99056821D01*
X95950582Y-98874250D01*
X96006397Y-98678083D01*
X96025215Y-98475000D01*
X96354785Y-98475000D01*
X96373602Y-98678082D01*
X96429417Y-98874247D01*
X96429422Y-98874260D01*
X96520327Y-99056821D01*
X96643237Y-99219581D01*
X96793958Y-99356980D01*
X96793960Y-99356982D01*
X96803515Y-99362898D01*
X96967363Y-99464348D01*
X97157544Y-99538024D01*
X97358024Y-99575500D01*
X97358026Y-99575500D01*
X97561974Y-99575500D01*
X97561976Y-99575500D01*
X97762456Y-99538024D01*
X97952637Y-99464348D01*
X98126041Y-99356981D01*
X98276764Y-99219579D01*
X98399673Y-99056821D01*
X98490582Y-98874250D01*
X98546397Y-98678083D01*
X98565215Y-98475000D01*
X98546397Y-98271917D01*
X98490582Y-98075750D01*
X98454378Y-98003043D01*
X98399804Y-97893443D01*
X98399673Y-97893179D01*
X98276764Y-97730421D01*
X98276762Y-97730418D01*
X98126041Y-97593019D01*
X98126039Y-97593017D01*
X97952642Y-97485655D01*
X97952635Y-97485651D01*
X97763705Y-97412460D01*
X97762456Y-97411976D01*
X97561976Y-97374500D01*
X97358024Y-97374500D01*
X97157544Y-97411976D01*
X97157541Y-97411976D01*
X97157541Y-97411977D01*
X96967364Y-97485651D01*
X96967357Y-97485655D01*
X96793960Y-97593017D01*
X96793958Y-97593019D01*
X96643237Y-97730418D01*
X96520327Y-97893178D01*
X96429422Y-98075739D01*
X96429417Y-98075752D01*
X96373602Y-98271917D01*
X96354785Y-98474999D01*
X96354785Y-98475000D01*
X96025215Y-98475000D01*
X96006397Y-98271917D01*
X95950582Y-98075750D01*
X95914378Y-98003043D01*
X95859804Y-97893443D01*
X95859673Y-97893179D01*
X95736764Y-97730421D01*
X95736762Y-97730418D01*
X95586042Y-97593020D01*
X95586041Y-97593019D01*
X95429221Y-97495920D01*
X95382587Y-97443893D01*
X95370500Y-97390494D01*
X95370500Y-92267964D01*
X95390185Y-92200925D01*
X95406814Y-92180288D01*
X98199311Y-89387790D01*
X98260632Y-89354307D01*
X98330324Y-89359291D01*
X98386257Y-89401163D01*
X98410086Y-89460526D01*
X98415707Y-89506818D01*
X98471724Y-89654523D01*
X98527551Y-89735402D01*
X98549433Y-89801754D01*
X98549500Y-89805840D01*
X98549500Y-96292738D01*
X98548720Y-96306623D01*
X98544729Y-96342036D01*
X98555355Y-96398196D01*
X98556132Y-96402765D01*
X98564652Y-96459291D01*
X98567162Y-96467427D01*
X98569976Y-96475470D01*
X98596688Y-96526011D01*
X98598776Y-96530149D01*
X98623574Y-96581641D01*
X98628362Y-96588665D01*
X98633431Y-96595532D01*
X98633434Y-96595538D01*
X98633438Y-96595542D01*
X98673846Y-96635950D01*
X98677063Y-96639289D01*
X98715947Y-96681196D01*
X98723210Y-96686988D01*
X98722689Y-96687641D01*
X98734930Y-96697034D01*
X99106254Y-97068358D01*
X99406663Y-97368766D01*
X99440148Y-97430089D01*
X99435164Y-97499780D01*
X99393293Y-97555714D01*
X99384260Y-97561874D01*
X99333957Y-97593020D01*
X99183237Y-97730418D01*
X99060327Y-97893178D01*
X98969422Y-98075739D01*
X98969417Y-98075752D01*
X98913602Y-98271917D01*
X98894785Y-98474999D01*
X98894785Y-98475000D01*
X98913602Y-98678082D01*
X98969417Y-98874247D01*
X98969422Y-98874260D01*
X99060327Y-99056821D01*
X99183237Y-99219581D01*
X99333958Y-99356980D01*
X99333960Y-99356982D01*
X99343515Y-99362898D01*
X99507363Y-99464348D01*
X99697544Y-99538024D01*
X99898024Y-99575500D01*
X99898026Y-99575500D01*
X100101974Y-99575500D01*
X100101976Y-99575500D01*
X100302456Y-99538024D01*
X100492637Y-99464348D01*
X100666041Y-99356981D01*
X100816764Y-99219579D01*
X100939673Y-99056821D01*
X101030582Y-98874250D01*
X101086397Y-98678083D01*
X101105215Y-98475000D01*
X101086397Y-98271917D01*
X101030582Y-98075750D01*
X100994378Y-98003043D01*
X100939804Y-97893443D01*
X100939673Y-97893179D01*
X100816764Y-97730421D01*
X100816762Y-97730418D01*
X100666042Y-97593020D01*
X100666041Y-97593019D01*
X100509221Y-97495920D01*
X100462587Y-97443893D01*
X100450500Y-97390494D01*
X100450500Y-97357261D01*
X100451280Y-97343376D01*
X100455270Y-97307965D01*
X100444641Y-97251791D01*
X100443864Y-97247217D01*
X100435347Y-97190709D01*
X100432831Y-97182552D01*
X100430024Y-97174528D01*
X100403306Y-97123977D01*
X100401215Y-97119835D01*
X100376424Y-97068356D01*
X100371642Y-97061342D01*
X100366567Y-97054466D01*
X100366566Y-97054463D01*
X100326165Y-97014062D01*
X100322947Y-97010721D01*
X100284060Y-96968809D01*
X100276792Y-96963014D01*
X100277312Y-96962361D01*
X100265067Y-96952964D01*
X99486819Y-96174716D01*
X99453334Y-96113393D01*
X99450500Y-96087035D01*
X99450500Y-89921777D01*
X99470185Y-89854738D01*
X99492274Y-89828961D01*
X99542426Y-89784531D01*
X99554388Y-89767201D01*
X99632164Y-89654523D01*
X99688181Y-89506818D01*
X99707222Y-89350000D01*
X99688181Y-89193182D01*
X99632164Y-89045477D01*
X99542427Y-88915470D01*
X99424184Y-88810717D01*
X99424182Y-88810716D01*
X99424181Y-88810715D01*
X99284309Y-88737303D01*
X99284310Y-88737303D01*
X99149187Y-88704000D01*
X99088806Y-88668844D01*
X99057017Y-88606625D01*
X99063913Y-88537096D01*
X99091178Y-88495924D01*
X99750284Y-87836819D01*
X99811607Y-87803334D01*
X99837965Y-87800500D01*
X99907192Y-87800500D01*
X99974231Y-87820185D01*
X100019986Y-87872989D01*
X100029930Y-87942147D01*
X100023134Y-87968470D01*
X100013763Y-87993178D01*
X100013763Y-87993180D01*
X99994722Y-88149999D01*
X99994722Y-88150000D01*
X100013762Y-88306818D01*
X100069780Y-88454523D01*
X100069781Y-88454524D01*
X100159518Y-88584532D01*
X100164491Y-88590145D01*
X100163044Y-88591426D01*
X100194850Y-88642120D01*
X100199500Y-88675759D01*
X100199500Y-95402738D01*
X100198720Y-95416623D01*
X100194729Y-95452036D01*
X100205355Y-95508196D01*
X100206132Y-95512765D01*
X100214652Y-95569291D01*
X100217162Y-95577427D01*
X100219976Y-95585470D01*
X100246688Y-95636011D01*
X100248776Y-95640149D01*
X100273574Y-95691641D01*
X100278362Y-95698665D01*
X100283431Y-95705532D01*
X100283434Y-95705538D01*
X100283438Y-95705542D01*
X100323846Y-95745950D01*
X100327063Y-95749289D01*
X100365947Y-95791196D01*
X100373210Y-95796988D01*
X100372689Y-95797641D01*
X100384930Y-95807034D01*
X101215495Y-96637599D01*
X101946663Y-97368766D01*
X101980148Y-97430089D01*
X101975164Y-97499781D01*
X101933292Y-97555714D01*
X101924260Y-97561874D01*
X101873957Y-97593020D01*
X101723237Y-97730418D01*
X101600327Y-97893178D01*
X101509422Y-98075739D01*
X101509417Y-98075752D01*
X101453602Y-98271917D01*
X101434785Y-98474999D01*
X101434785Y-98475000D01*
X101453602Y-98678082D01*
X101509417Y-98874247D01*
X101509422Y-98874260D01*
X101600327Y-99056821D01*
X101723237Y-99219581D01*
X101873958Y-99356980D01*
X101873960Y-99356982D01*
X101883515Y-99362898D01*
X102047363Y-99464348D01*
X102237544Y-99538024D01*
X102438024Y-99575500D01*
X102438026Y-99575500D01*
X102641974Y-99575500D01*
X102641976Y-99575500D01*
X102842456Y-99538024D01*
X103032637Y-99464348D01*
X103206041Y-99356981D01*
X103356764Y-99219579D01*
X103479673Y-99056821D01*
X103570582Y-98874250D01*
X103626397Y-98678083D01*
X103645215Y-98475000D01*
X103974785Y-98475000D01*
X103993602Y-98678082D01*
X104049417Y-98874247D01*
X104049422Y-98874260D01*
X104140327Y-99056821D01*
X104263237Y-99219581D01*
X104413958Y-99356980D01*
X104413960Y-99356982D01*
X104423515Y-99362898D01*
X104587363Y-99464348D01*
X104777544Y-99538024D01*
X104978024Y-99575500D01*
X104978026Y-99575500D01*
X105181974Y-99575500D01*
X105181976Y-99575500D01*
X105382456Y-99538024D01*
X105572637Y-99464348D01*
X105746041Y-99356981D01*
X105896764Y-99219579D01*
X106019673Y-99056821D01*
X106110582Y-98874250D01*
X106166397Y-98678083D01*
X106185215Y-98475000D01*
X106514785Y-98475000D01*
X106533602Y-98678082D01*
X106589417Y-98874247D01*
X106589422Y-98874260D01*
X106680327Y-99056821D01*
X106803237Y-99219581D01*
X106953958Y-99356980D01*
X106953960Y-99356982D01*
X106963515Y-99362898D01*
X107127363Y-99464348D01*
X107317544Y-99538024D01*
X107518024Y-99575500D01*
X107518026Y-99575500D01*
X107721974Y-99575500D01*
X107721976Y-99575500D01*
X107922456Y-99538024D01*
X108112637Y-99464348D01*
X108286041Y-99356981D01*
X108436764Y-99219579D01*
X108559673Y-99056821D01*
X108650582Y-98874250D01*
X108706397Y-98678083D01*
X108725215Y-98475000D01*
X108706397Y-98271917D01*
X108650582Y-98075750D01*
X108614378Y-98003043D01*
X108559804Y-97893443D01*
X108559673Y-97893179D01*
X108436764Y-97730421D01*
X108436762Y-97730418D01*
X108286041Y-97593019D01*
X108286039Y-97593017D01*
X108112642Y-97485655D01*
X108112635Y-97485651D01*
X107923705Y-97412460D01*
X107922456Y-97411976D01*
X107721976Y-97374500D01*
X107518024Y-97374500D01*
X107317544Y-97411976D01*
X107317541Y-97411976D01*
X107317541Y-97411977D01*
X107127364Y-97485651D01*
X107127357Y-97485655D01*
X106953960Y-97593017D01*
X106953958Y-97593019D01*
X106803237Y-97730418D01*
X106680327Y-97893178D01*
X106589422Y-98075739D01*
X106589417Y-98075752D01*
X106533602Y-98271917D01*
X106514785Y-98474999D01*
X106514785Y-98475000D01*
X106185215Y-98475000D01*
X106166397Y-98271917D01*
X106110582Y-98075750D01*
X106074378Y-98003043D01*
X106019804Y-97893443D01*
X106019673Y-97893179D01*
X105896764Y-97730421D01*
X105896762Y-97730418D01*
X105746041Y-97593019D01*
X105746039Y-97593017D01*
X105572642Y-97485655D01*
X105572635Y-97485651D01*
X105383705Y-97412460D01*
X105382456Y-97411976D01*
X105181976Y-97374500D01*
X104978024Y-97374500D01*
X104777544Y-97411976D01*
X104777541Y-97411976D01*
X104777541Y-97411977D01*
X104587364Y-97485651D01*
X104587357Y-97485655D01*
X104413960Y-97593017D01*
X104413958Y-97593019D01*
X104263237Y-97730418D01*
X104140327Y-97893178D01*
X104049422Y-98075739D01*
X104049417Y-98075752D01*
X103993602Y-98271917D01*
X103974785Y-98474999D01*
X103974785Y-98475000D01*
X103645215Y-98475000D01*
X103626397Y-98271917D01*
X103570582Y-98075750D01*
X103534378Y-98003043D01*
X103479804Y-97893443D01*
X103479673Y-97893179D01*
X103356764Y-97730421D01*
X103356762Y-97730418D01*
X103206042Y-97593020D01*
X103206041Y-97593019D01*
X103049221Y-97495920D01*
X103002587Y-97443893D01*
X102990500Y-97390494D01*
X102990500Y-97357261D01*
X102991280Y-97343376D01*
X102995270Y-97307965D01*
X102984641Y-97251791D01*
X102983864Y-97247217D01*
X102975347Y-97190709D01*
X102972831Y-97182552D01*
X102970024Y-97174528D01*
X102943306Y-97123977D01*
X102941215Y-97119835D01*
X102916424Y-97068356D01*
X102911642Y-97061342D01*
X102906567Y-97054466D01*
X102906566Y-97054463D01*
X102866165Y-97014062D01*
X102862947Y-97010721D01*
X102824060Y-96968809D01*
X102816792Y-96963014D01*
X102817312Y-96962361D01*
X102805067Y-96952964D01*
X101136819Y-95284716D01*
X101103334Y-95223393D01*
X101100500Y-95197035D01*
X101100500Y-88675759D01*
X101120185Y-88608720D01*
X101135846Y-88590444D01*
X101135509Y-88590145D01*
X101140481Y-88584532D01*
X101140481Y-88584531D01*
X101140483Y-88584530D01*
X101230220Y-88454523D01*
X101286237Y-88306818D01*
X101305278Y-88150000D01*
X101286237Y-87993182D01*
X101286236Y-87993180D01*
X101264992Y-87937164D01*
X101230220Y-87845477D01*
X101140483Y-87715470D01*
X101022240Y-87610717D01*
X101022238Y-87610716D01*
X101022237Y-87610715D01*
X100882365Y-87537303D01*
X100728986Y-87499500D01*
X100728985Y-87499500D01*
X100592808Y-87499500D01*
X100525769Y-87479815D01*
X100480014Y-87427011D01*
X100470070Y-87357853D01*
X100476866Y-87331530D01*
X100486236Y-87306821D01*
X100486236Y-87306820D01*
X100486237Y-87306818D01*
X100505278Y-87150000D01*
X100486237Y-86993182D01*
X100430220Y-86845477D01*
X100340483Y-86715470D01*
X100222240Y-86610717D01*
X100222238Y-86610716D01*
X100222237Y-86610715D01*
X100156860Y-86576402D01*
X100106647Y-86527817D01*
X100090673Y-86459798D01*
X100114008Y-86393941D01*
X100126799Y-86378931D01*
X104699145Y-81806585D01*
X104702130Y-81803700D01*
X104749044Y-81759887D01*
X104770392Y-81724779D01*
X104777525Y-81714298D01*
X104802361Y-81681549D01*
X104808943Y-81664855D01*
X104818344Y-81645926D01*
X104827672Y-81630589D01*
X104838760Y-81591012D01*
X104842800Y-81578999D01*
X104857876Y-81540771D01*
X104859711Y-81522923D01*
X104863658Y-81502151D01*
X104868500Y-81484872D01*
X104868500Y-81443788D01*
X104869150Y-81431108D01*
X104871682Y-81406475D01*
X104873352Y-81390235D01*
X104870303Y-81372550D01*
X104868500Y-81351482D01*
X104868500Y-78693333D01*
X104876559Y-78649359D01*
X104880141Y-78639914D01*
X104899182Y-78483096D01*
X104899182Y-78483095D01*
X104880141Y-78326277D01*
X104858896Y-78270260D01*
X104824124Y-78178573D01*
X104734387Y-78048566D01*
X104616144Y-77943813D01*
X104616142Y-77943812D01*
X104616141Y-77943811D01*
X104476269Y-77870399D01*
X104322890Y-77832596D01*
X104322889Y-77832596D01*
X104164919Y-77832596D01*
X104164918Y-77832596D01*
X104011538Y-77870399D01*
X103871666Y-77943811D01*
X103753420Y-78048567D01*
X103663685Y-78178571D01*
X103663684Y-78178572D01*
X103607666Y-78326277D01*
X103588626Y-78483095D01*
X103588626Y-78483096D01*
X103607666Y-78639914D01*
X103663684Y-78787619D01*
X103663685Y-78787620D01*
X103745550Y-78906223D01*
X103767433Y-78972578D01*
X103767500Y-78976663D01*
X103767500Y-81129819D01*
X103747815Y-81196858D01*
X103731181Y-81217500D01*
X98912181Y-86036500D01*
X98850858Y-86069985D01*
X98781166Y-86065001D01*
X98725233Y-86023129D01*
X98700816Y-85957665D01*
X98700500Y-85948819D01*
X98700500Y-82236759D01*
X98720185Y-82169720D01*
X98735846Y-82151444D01*
X98735509Y-82151145D01*
X98740481Y-82145532D01*
X98740481Y-82145531D01*
X98740483Y-82145530D01*
X98830220Y-82015523D01*
X98886237Y-81867818D01*
X98905278Y-81711000D01*
X98895515Y-81630589D01*
X98886237Y-81554181D01*
X98844370Y-81443788D01*
X98830220Y-81406477D01*
X98740483Y-81276470D01*
X98622240Y-81171717D01*
X98622238Y-81171716D01*
X98622237Y-81171715D01*
X98482365Y-81098303D01*
X98328986Y-81060500D01*
X98328985Y-81060500D01*
X98171015Y-81060500D01*
X98171014Y-81060500D01*
X98017634Y-81098303D01*
X97877762Y-81171715D01*
X97759516Y-81276471D01*
X97669781Y-81406475D01*
X97669780Y-81406476D01*
X97613762Y-81554181D01*
X97594722Y-81710999D01*
X97594722Y-81711000D01*
X97613762Y-81867818D01*
X97669780Y-82015523D01*
X97669781Y-82015524D01*
X97759518Y-82145532D01*
X97764491Y-82151145D01*
X97763044Y-82152426D01*
X97794850Y-82203120D01*
X97799500Y-82236759D01*
X97799500Y-86017034D01*
X97779815Y-86084073D01*
X97763181Y-86104715D01*
X88436609Y-95431288D01*
X88375286Y-95464773D01*
X88348928Y-95467607D01*
X86784695Y-95467607D01*
X86717656Y-95447922D01*
X86702468Y-95436423D01*
X86696672Y-95431288D01*
X86637452Y-95378824D01*
X86637450Y-95378823D01*
X86637449Y-95378822D01*
X86497577Y-95305410D01*
X86344198Y-95267607D01*
X86344197Y-95267607D01*
X86186227Y-95267607D01*
X86186226Y-95267607D01*
X86032846Y-95305410D01*
X85892974Y-95378822D01*
X85774728Y-95483578D01*
X85684993Y-95613582D01*
X85684992Y-95613583D01*
X85628974Y-95761288D01*
X85609934Y-95918106D01*
X85609934Y-95918107D01*
X82220500Y-95918107D01*
X82220500Y-44373000D01*
X83154551Y-44373000D01*
X83174317Y-44624151D01*
X83233126Y-44869110D01*
X83329533Y-45101859D01*
X83461160Y-45316653D01*
X83461161Y-45316656D01*
X83461164Y-45316659D01*
X83624776Y-45508224D01*
X83773066Y-45634875D01*
X83816343Y-45671838D01*
X83816346Y-45671839D01*
X84031140Y-45803466D01*
X84263889Y-45899873D01*
X84508852Y-45958683D01*
X84697118Y-45973500D01*
X84697126Y-45973500D01*
X84822874Y-45973500D01*
X84822882Y-45973500D01*
X85011148Y-45958683D01*
X85256111Y-45899873D01*
X85488859Y-45803466D01*
X85703659Y-45671836D01*
X85895224Y-45508224D01*
X86058836Y-45316659D01*
X86190466Y-45101859D01*
X86286873Y-44869111D01*
X86345683Y-44624148D01*
X86365449Y-44373000D01*
X113634551Y-44373000D01*
X113654317Y-44624151D01*
X113713126Y-44869110D01*
X113809533Y-45101859D01*
X113941160Y-45316653D01*
X113941161Y-45316656D01*
X113941164Y-45316659D01*
X114104776Y-45508224D01*
X114253066Y-45634875D01*
X114296343Y-45671838D01*
X114296346Y-45671839D01*
X114511140Y-45803466D01*
X114743889Y-45899873D01*
X114988852Y-45958683D01*
X115177118Y-45973500D01*
X115177126Y-45973500D01*
X115302874Y-45973500D01*
X115302882Y-45973500D01*
X115491148Y-45958683D01*
X115736111Y-45899873D01*
X115968859Y-45803466D01*
X116183659Y-45671836D01*
X116375224Y-45508224D01*
X116538836Y-45316659D01*
X116670466Y-45101859D01*
X116766873Y-44869111D01*
X116825683Y-44624148D01*
X116845449Y-44373000D01*
X116825683Y-44121852D01*
X116766873Y-43876889D01*
X116747012Y-43828941D01*
X116670466Y-43644140D01*
X116538839Y-43429346D01*
X116538838Y-43429343D01*
X116501875Y-43386066D01*
X116375224Y-43237776D01*
X116248571Y-43129604D01*
X116183656Y-43074161D01*
X116183653Y-43074160D01*
X115968859Y-42942533D01*
X115736110Y-42846126D01*
X115491151Y-42787317D01*
X115302887Y-42772500D01*
X115302882Y-42772500D01*
X115177118Y-42772500D01*
X115177112Y-42772500D01*
X114988848Y-42787317D01*
X114743889Y-42846126D01*
X114511140Y-42942533D01*
X114296346Y-43074160D01*
X114296343Y-43074161D01*
X114104776Y-43237776D01*
X113941161Y-43429343D01*
X113941160Y-43429346D01*
X113809533Y-43644140D01*
X113713126Y-43876889D01*
X113654317Y-44121848D01*
X113634551Y-44373000D01*
X86365449Y-44373000D01*
X86345683Y-44121852D01*
X86286873Y-43876889D01*
X86267012Y-43828941D01*
X86190466Y-43644140D01*
X86058839Y-43429346D01*
X86058838Y-43429343D01*
X86021875Y-43386066D01*
X85895224Y-43237776D01*
X85768571Y-43129604D01*
X85703656Y-43074161D01*
X85703653Y-43074160D01*
X85488859Y-42942533D01*
X85256110Y-42846126D01*
X85011151Y-42787317D01*
X84822887Y-42772500D01*
X84822882Y-42772500D01*
X84697118Y-42772500D01*
X84697112Y-42772500D01*
X84508848Y-42787317D01*
X84263889Y-42846126D01*
X84031140Y-42942533D01*
X83816346Y-43074160D01*
X83816343Y-43074161D01*
X83624776Y-43237776D01*
X83461161Y-43429343D01*
X83461160Y-43429346D01*
X83329533Y-43644140D01*
X83233126Y-43876889D01*
X83174317Y-44121848D01*
X83154551Y-44373000D01*
X82220500Y-44373000D01*
X82220500Y-43837065D01*
X82220765Y-43828956D01*
X82225954Y-43749781D01*
X82225979Y-43749401D01*
X82226004Y-43749046D01*
X82238709Y-43571407D01*
X82240771Y-43556099D01*
X82262955Y-43444573D01*
X82263364Y-43442606D01*
X82293788Y-43302749D01*
X82297519Y-43289305D01*
X82336243Y-43175230D01*
X82337404Y-43171967D01*
X82385068Y-43044177D01*
X82390017Y-43032713D01*
X82444481Y-42922272D01*
X82446777Y-42917851D01*
X82510855Y-42800501D01*
X82516562Y-42791075D01*
X82585639Y-42687694D01*
X82589425Y-42682344D01*
X82668850Y-42576246D01*
X82674823Y-42568878D01*
X82757161Y-42474989D01*
X82762648Y-42469131D01*
X82856131Y-42375648D01*
X82861989Y-42370161D01*
X82955878Y-42287823D01*
X82963246Y-42281850D01*
X83069344Y-42202425D01*
X83074694Y-42198639D01*
X83178075Y-42129562D01*
X83187501Y-42123855D01*
X83304851Y-42059777D01*
X83309272Y-42057481D01*
X83419713Y-42003017D01*
X83431177Y-41998068D01*
X83558967Y-41950404D01*
X83562230Y-41949243D01*
X83676305Y-41910519D01*
X83689749Y-41906788D01*
X83829606Y-41876364D01*
X83831573Y-41875955D01*
X83943099Y-41853771D01*
X83958407Y-41851709D01*
X84136193Y-41838992D01*
X84215957Y-41833764D01*
X84224065Y-41833500D01*
X115775935Y-41833500D01*
X115784042Y-41833764D01*
G37*
%TD.AperFunction*%
%TD*%
M02*
