%TF.GenerationSoftware,KiCad,Pcbnew,7.0.8*%
%TF.CreationDate,2023-10-18T12:59:10+02:00*%
%TF.ProjectId,AxxSolder,41787853-6f6c-4646-9572-2e6b69636164,rev?*%
%TF.SameCoordinates,Original*%
%TF.FileFunction,Soldermask,Bot*%
%TF.FilePolarity,Negative*%
%FSLAX46Y46*%
G04 Gerber Fmt 4.6, Leading zero omitted, Abs format (unit mm)*
G04 Created by KiCad (PCBNEW 7.0.8) date 2023-10-18 12:59:10*
%MOMM*%
%LPD*%
G01*
G04 APERTURE LIST*
G04 Aperture macros list*
%AMRoundRect*
0 Rectangle with rounded corners*
0 $1 Rounding radius*
0 $2 $3 $4 $5 $6 $7 $8 $9 X,Y pos of 4 corners*
0 Add a 4 corners polygon primitive as box body*
4,1,4,$2,$3,$4,$5,$6,$7,$8,$9,$2,$3,0*
0 Add four circle primitives for the rounded corners*
1,1,$1+$1,$2,$3*
1,1,$1+$1,$4,$5*
1,1,$1+$1,$6,$7*
1,1,$1+$1,$8,$9*
0 Add four rect primitives between the rounded corners*
20,1,$1+$1,$2,$3,$4,$5,0*
20,1,$1+$1,$4,$5,$6,$7,0*
20,1,$1+$1,$6,$7,$8,$9,0*
20,1,$1+$1,$8,$9,$2,$3,0*%
G04 Aperture macros list end*
%ADD10C,1.800000*%
%ADD11O,3.600000X2.900000*%
%ADD12C,3.000000*%
%ADD13C,1.000000*%
%ADD14C,1.524000*%
%ADD15C,5.400000*%
%ADD16R,0.600000X1.050000*%
%ADD17C,2.000000*%
%ADD18R,1.450000X3.450000*%
%ADD19RoundRect,0.250000X-0.450000X0.262500X-0.450000X-0.262500X0.450000X-0.262500X0.450000X0.262500X0*%
%ADD20RoundRect,0.250000X0.475000X-0.250000X0.475000X0.250000X-0.475000X0.250000X-0.475000X-0.250000X0*%
%ADD21R,0.500000X0.925000*%
%ADD22R,0.600000X0.800000*%
%ADD23R,4.410000X3.655000*%
%ADD24RoundRect,0.250000X0.450000X-0.262500X0.450000X0.262500X-0.450000X0.262500X-0.450000X-0.262500X0*%
%ADD25RoundRect,0.250000X0.250000X0.475000X-0.250000X0.475000X-0.250000X-0.475000X0.250000X-0.475000X0*%
%ADD26R,0.850000X0.350000*%
%ADD27R,1.300000X2.450000*%
%ADD28R,2.850000X3.200000*%
%ADD29RoundRect,0.250000X0.650000X-0.325000X0.650000X0.325000X-0.650000X0.325000X-0.650000X-0.325000X0*%
%ADD30RoundRect,0.250000X-0.250000X-0.475000X0.250000X-0.475000X0.250000X0.475000X-0.250000X0.475000X0*%
%ADD31RoundRect,0.250000X-0.475000X0.250000X-0.475000X-0.250000X0.475000X-0.250000X0.475000X0.250000X0*%
%ADD32RoundRect,0.250000X-0.262500X-0.450000X0.262500X-0.450000X0.262500X0.450000X-0.262500X0.450000X0*%
%ADD33R,1.050000X0.600000*%
%ADD34R,1.700000X1.700000*%
%ADD35O,1.700000X1.700000*%
%ADD36R,0.600000X1.250000*%
%ADD37RoundRect,0.250000X0.262500X0.450000X-0.262500X0.450000X-0.262500X-0.450000X0.262500X-0.450000X0*%
%ADD38R,1.250000X0.600000*%
%ADD39C,2.400000*%
%ADD40R,1.200000X1.200000*%
%ADD41R,1.425000X0.450000*%
%ADD42R,1.680000X1.880000*%
%ADD43RoundRect,0.250000X-0.325000X-0.650000X0.325000X-0.650000X0.325000X0.650000X-0.325000X0.650000X0*%
%ADD44RoundRect,0.062500X0.062500X-0.375000X0.062500X0.375000X-0.062500X0.375000X-0.062500X-0.375000X0*%
%ADD45RoundRect,0.062500X0.375000X-0.062500X0.375000X0.062500X-0.375000X0.062500X-0.375000X-0.062500X0*%
%ADD46R,1.750000X1.750000*%
%ADD47R,4.150000X2.100000*%
%ADD48R,0.600000X1.475000*%
%ADD49R,1.475000X0.600000*%
G04 APERTURE END LIST*
D10*
%TO.C,U1*%
X100275000Y-109000000D03*
X100275000Y-104000000D03*
X114775000Y-109000000D03*
D11*
X107275000Y-112200000D03*
D10*
X114775000Y-106500000D03*
D11*
X107275000Y-100800000D03*
D10*
X114775000Y-104000000D03*
%TD*%
D12*
%TO.C,H2*%
X100000000Y-115000000D03*
%TD*%
%TO.C,H3*%
X133000000Y-50000000D03*
%TD*%
D13*
%TO.C,TP3*%
X119750000Y-53750000D03*
%TD*%
D14*
%TO.C,D4*%
X125390000Y-56320000D03*
D15*
X132500000Y-95820000D03*
X132500000Y-56320000D03*
D14*
X122850000Y-56320000D03*
D15*
X100500000Y-95820000D03*
X100500000Y-56320000D03*
D14*
X120310000Y-56320000D03*
X117770000Y-56320000D03*
X115230000Y-56320000D03*
X112690000Y-56320000D03*
X110150000Y-56320000D03*
X107610000Y-56320000D03*
%TD*%
D12*
%TO.C,H4*%
X100000000Y-50000000D03*
%TD*%
D16*
%TO.C,D3*%
X109950000Y-69525000D03*
X111850000Y-69525000D03*
X110900000Y-71725000D03*
%TD*%
D17*
%TO.C,J1*%
X101400000Y-67370000D03*
X101400000Y-71180000D03*
X101400000Y-74990000D03*
X101400000Y-78800000D03*
X101400000Y-82610000D03*
X101400000Y-86420000D03*
X101400000Y-90230000D03*
%TD*%
D18*
%TO.C,R10*%
X112200000Y-83100000D03*
X106400000Y-83100000D03*
%TD*%
D19*
%TO.C,R28*%
X106500000Y-60337500D03*
X106500000Y-62162500D03*
%TD*%
D20*
%TO.C,C1*%
X126500000Y-84450000D03*
X126500000Y-82550000D03*
%TD*%
D13*
%TO.C,TP6*%
X122725000Y-76475000D03*
%TD*%
D21*
%TO.C,U2*%
X110895000Y-86272500D03*
X112165000Y-86272500D03*
X113435000Y-86272500D03*
X114705000Y-86272500D03*
D22*
X110895000Y-92062500D03*
X112165000Y-92062500D03*
D23*
X112800000Y-89837500D03*
D22*
X113435000Y-92062500D03*
X114705000Y-92062500D03*
%TD*%
D13*
%TO.C,TP1*%
X133200000Y-91800000D03*
%TD*%
D19*
%TO.C,R6*%
X108250000Y-69387500D03*
X108250000Y-71212500D03*
%TD*%
%TO.C,R21*%
X108250000Y-76587500D03*
X108250000Y-78412500D03*
%TD*%
D24*
%TO.C,R19*%
X106250000Y-74812500D03*
X106250000Y-72987500D03*
%TD*%
D25*
%TO.C,C3*%
X123950000Y-89500000D03*
X122050000Y-89500000D03*
%TD*%
D26*
%TO.C,IC4*%
X113475000Y-75775000D03*
X113475000Y-75125000D03*
X113475000Y-74475000D03*
X113475000Y-73825000D03*
X116375000Y-73825000D03*
X116375000Y-74475000D03*
X116375000Y-75125000D03*
X116375000Y-75775000D03*
D27*
X114925000Y-74800000D03*
%TD*%
D28*
%TO.C,L1*%
X113900000Y-61250000D03*
X119600000Y-61250000D03*
%TD*%
D13*
%TO.C,TP2*%
X130000000Y-74250000D03*
%TD*%
D29*
%TO.C,C17*%
X119750000Y-91725000D03*
X119750000Y-88775000D03*
%TD*%
D24*
%TO.C,R20*%
X106250000Y-78412500D03*
X106250000Y-76587500D03*
%TD*%
D30*
%TO.C,C5*%
X133300000Y-83250000D03*
X135200000Y-83250000D03*
%TD*%
D31*
%TO.C,C14*%
X99900000Y-61550000D03*
X99900000Y-63450000D03*
%TD*%
%TO.C,C16*%
X116300000Y-78300000D03*
X116300000Y-80200000D03*
%TD*%
D32*
%TO.C,R2*%
X122087500Y-91500000D03*
X123912500Y-91500000D03*
%TD*%
%TO.C,R3*%
X125587500Y-91500000D03*
X127412500Y-91500000D03*
%TD*%
D33*
%TO.C,D12*%
X127800000Y-85950000D03*
X127800000Y-87850000D03*
X125600000Y-86900000D03*
%TD*%
D16*
%TO.C,D1*%
X109950000Y-66150000D03*
X111850000Y-66150000D03*
X110900000Y-68350000D03*
%TD*%
D24*
%TO.C,R8*%
X106250000Y-67662500D03*
X106250000Y-65837500D03*
%TD*%
D29*
%TO.C,C18*%
X117250000Y-91725000D03*
X117250000Y-88775000D03*
%TD*%
D24*
%TO.C,R22*%
X108250000Y-74812500D03*
X108250000Y-72987500D03*
%TD*%
D34*
%TO.C,J4*%
X134225000Y-80600000D03*
D35*
X134225000Y-78060000D03*
X134225000Y-75520000D03*
X134225000Y-72980000D03*
X134225000Y-70440000D03*
X134225000Y-67900000D03*
X134225000Y-65360000D03*
%TD*%
D36*
%TO.C,IC3*%
X133300000Y-85200000D03*
X135200000Y-85200000D03*
X134250000Y-87300000D03*
%TD*%
D37*
%TO.C,R29*%
X106512500Y-63800000D03*
X104687500Y-63800000D03*
%TD*%
D32*
%TO.C,R14*%
X127962500Y-80300000D03*
X129787500Y-80300000D03*
%TD*%
D24*
%TO.C,R26*%
X120750000Y-79125000D03*
X120750000Y-77300000D03*
%TD*%
D13*
%TO.C,TP9*%
X122000000Y-53750000D03*
%TD*%
D19*
%TO.C,R23*%
X120750000Y-73987500D03*
X120750000Y-75812500D03*
%TD*%
D24*
%TO.C,R5*%
X108250000Y-67662500D03*
X108250000Y-65837500D03*
%TD*%
D31*
%TO.C,C11*%
X118600000Y-69050000D03*
X118600000Y-70950000D03*
%TD*%
D32*
%TO.C,R18*%
X124587500Y-80300000D03*
X126412500Y-80300000D03*
%TD*%
D13*
%TO.C,TP5*%
X124700000Y-77700000D03*
%TD*%
D12*
%TO.C,H1*%
X133000000Y-115000000D03*
%TD*%
D13*
%TO.C,TP7*%
X124250000Y-53750000D03*
%TD*%
D29*
%TO.C,C27*%
X125100000Y-62975000D03*
X125100000Y-60025000D03*
%TD*%
D38*
%TO.C,IC6*%
X111000000Y-60300000D03*
X111000000Y-61250000D03*
X111000000Y-62200000D03*
X108500000Y-62200000D03*
X108500000Y-61250000D03*
X108500000Y-60300000D03*
%TD*%
D39*
%TO.C,F1*%
X125950000Y-98700000D03*
X125950000Y-95300000D03*
X112480000Y-98700000D03*
X112480000Y-95300000D03*
%TD*%
D40*
%TO.C,D2*%
X121200000Y-86250000D03*
X124000000Y-86250000D03*
%TD*%
D16*
%TO.C,D5*%
X109950000Y-72925000D03*
X111850000Y-72925000D03*
X110900000Y-75125000D03*
%TD*%
D41*
%TO.C,IC1*%
X122462000Y-82325000D03*
X122462000Y-82975000D03*
X122462000Y-83625000D03*
X122462000Y-84275000D03*
X118038000Y-84275000D03*
X118038000Y-83625000D03*
X118038000Y-82975000D03*
X118038000Y-82325000D03*
D42*
X120250000Y-83300000D03*
%TD*%
D43*
%TO.C,C4*%
X116625000Y-86300000D03*
X119575000Y-86300000D03*
%TD*%
D19*
%TO.C,R24*%
X118750000Y-77300000D03*
X118750000Y-79125000D03*
%TD*%
D44*
%TO.C,IC5*%
X127250000Y-72187500D03*
X126750000Y-72187500D03*
X126250000Y-72187500D03*
X125750000Y-72187500D03*
X125250000Y-72187500D03*
X124750000Y-72187500D03*
X124250000Y-72187500D03*
X123750000Y-72187500D03*
D45*
X123062500Y-71500000D03*
X123062500Y-71000000D03*
X123062500Y-70500000D03*
X123062500Y-70000000D03*
X123062500Y-69500000D03*
X123062500Y-69000000D03*
X123062500Y-68500000D03*
X123062500Y-68000000D03*
D44*
X123750000Y-67312500D03*
X124250000Y-67312500D03*
X124750000Y-67312500D03*
X125250000Y-67312500D03*
X125750000Y-67312500D03*
X126250000Y-67312500D03*
X126750000Y-67312500D03*
X127250000Y-67312500D03*
D45*
X127937500Y-68000000D03*
X127937500Y-68500000D03*
X127937500Y-69000000D03*
X127937500Y-69500000D03*
X127937500Y-70000000D03*
X127937500Y-70500000D03*
X127937500Y-71000000D03*
X127937500Y-71500000D03*
D46*
X125500000Y-69750000D03*
%TD*%
D25*
%TO.C,C7*%
X128200000Y-76250000D03*
X126300000Y-76250000D03*
%TD*%
D19*
%TO.C,R9*%
X106250000Y-69387500D03*
X106250000Y-71212500D03*
%TD*%
D29*
%TO.C,C25*%
X122800000Y-62975000D03*
X122800000Y-60025000D03*
%TD*%
D13*
%TO.C,TP8*%
X126500000Y-53750000D03*
%TD*%
D31*
%TO.C,C21*%
X101800000Y-61550000D03*
X101800000Y-63450000D03*
%TD*%
D32*
%TO.C,R15*%
X126337500Y-78250000D03*
X128162500Y-78250000D03*
%TD*%
%TO.C,R1*%
X125587500Y-89500000D03*
X127412500Y-89500000D03*
%TD*%
D19*
%TO.C,R25*%
X118750000Y-73987500D03*
X118750000Y-75812500D03*
%TD*%
D31*
%TO.C,C12*%
X116600000Y-69050000D03*
X116600000Y-70950000D03*
%TD*%
D30*
%TO.C,C24*%
X108800000Y-58600000D03*
X110700000Y-58600000D03*
%TD*%
D20*
%TO.C,C2*%
X124500000Y-84450000D03*
X124500000Y-82550000D03*
%TD*%
D47*
%TO.C,C23*%
X130750000Y-106000000D03*
X122250000Y-106000000D03*
%TD*%
D16*
%TO.C,D6*%
X109950000Y-76375000D03*
X111850000Y-76375000D03*
X110900000Y-78575000D03*
%TD*%
D25*
%TO.C,C20*%
X135150000Y-89300000D03*
X133250000Y-89300000D03*
%TD*%
D20*
%TO.C,C26*%
X104550000Y-62200000D03*
X104550000Y-60300000D03*
%TD*%
D31*
%TO.C,C15*%
X114250000Y-78300000D03*
X114250000Y-80200000D03*
%TD*%
D48*
%TO.C,IC2*%
X128300000Y-73988000D03*
X127500000Y-73988000D03*
X126700000Y-73988000D03*
X125900000Y-73988000D03*
X125100000Y-73988000D03*
X124300000Y-73988000D03*
X123500000Y-73988000D03*
X122700000Y-73988000D03*
D49*
X121262000Y-72550000D03*
X121262000Y-71750000D03*
X121262000Y-70950000D03*
X121262000Y-70150000D03*
X121262000Y-69350000D03*
X121262000Y-68550000D03*
X121262000Y-67750000D03*
X121262000Y-66950000D03*
D48*
X122700000Y-65512000D03*
X123500000Y-65512000D03*
X124300000Y-65512000D03*
X125100000Y-65512000D03*
X125900000Y-65512000D03*
X126700000Y-65512000D03*
X127500000Y-65512000D03*
X128300000Y-65512000D03*
D49*
X129738000Y-66950000D03*
X129738000Y-67750000D03*
X129738000Y-68550000D03*
X129738000Y-69350000D03*
X129738000Y-70150000D03*
X129738000Y-70950000D03*
X129738000Y-71750000D03*
X129738000Y-72550000D03*
%TD*%
M02*
