%TF.GenerationSoftware,KiCad,Pcbnew,7.0.8*%
%TF.CreationDate,2023-10-07T14:56:38+02:00*%
%TF.ProjectId,AxxSolder,41787853-6f6c-4646-9572-2e6b69636164,rev?*%
%TF.SameCoordinates,Original*%
%TF.FileFunction,Legend,Bot*%
%TF.FilePolarity,Positive*%
%FSLAX46Y46*%
G04 Gerber Fmt 4.6, Leading zero omitted, Abs format (unit mm)*
G04 Created by KiCad (PCBNEW 7.0.8) date 2023-10-07 14:56:38*
%MOMM*%
%LPD*%
G01*
G04 APERTURE LIST*
%ADD10C,0.200000*%
%ADD11C,0.150000*%
%ADD12C,0.500000*%
%ADD13C,0.120000*%
%ADD14C,0.100000*%
%ADD15C,0.250000*%
%ADD16C,0.254000*%
%ADD17C,0.400000*%
G04 APERTURE END LIST*
D10*
X120868034Y-53750000D02*
G75*
G03*
X120868034Y-53750000I-1118034J0D01*
G01*
D11*
X124128571Y-78562295D02*
X123671428Y-78562295D01*
X123900000Y-79362295D02*
X123900000Y-78562295D01*
X132138094Y-75962295D02*
X132404761Y-75581342D01*
X132595237Y-75962295D02*
X132595237Y-75162295D01*
X132595237Y-75162295D02*
X132290475Y-75162295D01*
X132290475Y-75162295D02*
X132214285Y-75200390D01*
X132214285Y-75200390D02*
X132176190Y-75238485D01*
X132176190Y-75238485D02*
X132138094Y-75314676D01*
X132138094Y-75314676D02*
X132138094Y-75428961D01*
X132138094Y-75428961D02*
X132176190Y-75505152D01*
X132176190Y-75505152D02*
X132214285Y-75543247D01*
X132214285Y-75543247D02*
X132290475Y-75581342D01*
X132290475Y-75581342D02*
X132595237Y-75581342D01*
X131833333Y-75924200D02*
X131719047Y-75962295D01*
X131719047Y-75962295D02*
X131528571Y-75962295D01*
X131528571Y-75962295D02*
X131452380Y-75924200D01*
X131452380Y-75924200D02*
X131414285Y-75886104D01*
X131414285Y-75886104D02*
X131376190Y-75809914D01*
X131376190Y-75809914D02*
X131376190Y-75733723D01*
X131376190Y-75733723D02*
X131414285Y-75657533D01*
X131414285Y-75657533D02*
X131452380Y-75619438D01*
X131452380Y-75619438D02*
X131528571Y-75581342D01*
X131528571Y-75581342D02*
X131680952Y-75543247D01*
X131680952Y-75543247D02*
X131757142Y-75505152D01*
X131757142Y-75505152D02*
X131795237Y-75467057D01*
X131795237Y-75467057D02*
X131833333Y-75390866D01*
X131833333Y-75390866D02*
X131833333Y-75314676D01*
X131833333Y-75314676D02*
X131795237Y-75238485D01*
X131795237Y-75238485D02*
X131757142Y-75200390D01*
X131757142Y-75200390D02*
X131680952Y-75162295D01*
X131680952Y-75162295D02*
X131490475Y-75162295D01*
X131490475Y-75162295D02*
X131376190Y-75200390D01*
X131147618Y-75162295D02*
X130690475Y-75162295D01*
X130919047Y-75962295D02*
X130919047Y-75162295D01*
D12*
X105657142Y-86481000D02*
X107942857Y-86481000D01*
D11*
X132609523Y-67462295D02*
X132152380Y-67462295D01*
X132380952Y-68262295D02*
X132380952Y-67462295D01*
X131961904Y-67462295D02*
X131428570Y-68262295D01*
X131428570Y-67462295D02*
X131961904Y-68262295D01*
X132133332Y-65762295D02*
X132399999Y-65381342D01*
X132590475Y-65762295D02*
X132590475Y-64962295D01*
X132590475Y-64962295D02*
X132285713Y-64962295D01*
X132285713Y-64962295D02*
X132209523Y-65000390D01*
X132209523Y-65000390D02*
X132171428Y-65038485D01*
X132171428Y-65038485D02*
X132133332Y-65114676D01*
X132133332Y-65114676D02*
X132133332Y-65228961D01*
X132133332Y-65228961D02*
X132171428Y-65305152D01*
X132171428Y-65305152D02*
X132209523Y-65343247D01*
X132209523Y-65343247D02*
X132285713Y-65381342D01*
X132285713Y-65381342D02*
X132590475Y-65381342D01*
X131866666Y-64962295D02*
X131333332Y-65762295D01*
X131333332Y-64962295D02*
X131866666Y-65762295D01*
X132176189Y-73286104D02*
X132214285Y-73324200D01*
X132214285Y-73324200D02*
X132328570Y-73362295D01*
X132328570Y-73362295D02*
X132404761Y-73362295D01*
X132404761Y-73362295D02*
X132519047Y-73324200D01*
X132519047Y-73324200D02*
X132595237Y-73248009D01*
X132595237Y-73248009D02*
X132633332Y-73171819D01*
X132633332Y-73171819D02*
X132671428Y-73019438D01*
X132671428Y-73019438D02*
X132671428Y-72905152D01*
X132671428Y-72905152D02*
X132633332Y-72752771D01*
X132633332Y-72752771D02*
X132595237Y-72676580D01*
X132595237Y-72676580D02*
X132519047Y-72600390D01*
X132519047Y-72600390D02*
X132404761Y-72562295D01*
X132404761Y-72562295D02*
X132328570Y-72562295D01*
X132328570Y-72562295D02*
X132214285Y-72600390D01*
X132214285Y-72600390D02*
X132176189Y-72638485D01*
X131452380Y-73362295D02*
X131833332Y-73362295D01*
X131833332Y-73362295D02*
X131833332Y-72562295D01*
X131185713Y-73362295D02*
X131185713Y-72562295D01*
X130728570Y-73362295D02*
X131071428Y-72905152D01*
X130728570Y-72562295D02*
X131185713Y-73019438D01*
X132619046Y-70862295D02*
X132619046Y-70062295D01*
X132619046Y-70062295D02*
X132428570Y-70062295D01*
X132428570Y-70062295D02*
X132314284Y-70100390D01*
X132314284Y-70100390D02*
X132238094Y-70176580D01*
X132238094Y-70176580D02*
X132199999Y-70252771D01*
X132199999Y-70252771D02*
X132161903Y-70405152D01*
X132161903Y-70405152D02*
X132161903Y-70519438D01*
X132161903Y-70519438D02*
X132199999Y-70671819D01*
X132199999Y-70671819D02*
X132238094Y-70748009D01*
X132238094Y-70748009D02*
X132314284Y-70824200D01*
X132314284Y-70824200D02*
X132428570Y-70862295D01*
X132428570Y-70862295D02*
X132619046Y-70862295D01*
X131819046Y-70862295D02*
X131819046Y-70062295D01*
X131285713Y-70062295D02*
X131133332Y-70062295D01*
X131133332Y-70062295D02*
X131057142Y-70100390D01*
X131057142Y-70100390D02*
X130980951Y-70176580D01*
X130980951Y-70176580D02*
X130942856Y-70328961D01*
X130942856Y-70328961D02*
X130942856Y-70595628D01*
X130942856Y-70595628D02*
X130980951Y-70748009D01*
X130980951Y-70748009D02*
X131057142Y-70824200D01*
X131057142Y-70824200D02*
X131133332Y-70862295D01*
X131133332Y-70862295D02*
X131285713Y-70862295D01*
X131285713Y-70862295D02*
X131361904Y-70824200D01*
X131361904Y-70824200D02*
X131438094Y-70748009D01*
X131438094Y-70748009D02*
X131476190Y-70595628D01*
X131476190Y-70595628D02*
X131476190Y-70328961D01*
X131476190Y-70328961D02*
X131438094Y-70176580D01*
X131438094Y-70176580D02*
X131361904Y-70100390D01*
X131361904Y-70100390D02*
X131285713Y-70062295D01*
X126204819Y-49666667D02*
X127204819Y-50000000D01*
X127204819Y-50000000D02*
X126204819Y-50333333D01*
X127204819Y-50666667D02*
X126204819Y-50666667D01*
X126204819Y-50666667D02*
X126204819Y-50904762D01*
X126204819Y-50904762D02*
X126252438Y-51047619D01*
X126252438Y-51047619D02*
X126347676Y-51142857D01*
X126347676Y-51142857D02*
X126442914Y-51190476D01*
X126442914Y-51190476D02*
X126633390Y-51238095D01*
X126633390Y-51238095D02*
X126776247Y-51238095D01*
X126776247Y-51238095D02*
X126966723Y-51190476D01*
X126966723Y-51190476D02*
X127061961Y-51142857D01*
X127061961Y-51142857D02*
X127157200Y-51047619D01*
X127157200Y-51047619D02*
X127204819Y-50904762D01*
X127204819Y-50904762D02*
X127204819Y-50666667D01*
X127204819Y-51666667D02*
X126204819Y-51666667D01*
X126204819Y-51666667D02*
X126204819Y-51904762D01*
X126204819Y-51904762D02*
X126252438Y-52047619D01*
X126252438Y-52047619D02*
X126347676Y-52142857D01*
X126347676Y-52142857D02*
X126442914Y-52190476D01*
X126442914Y-52190476D02*
X126633390Y-52238095D01*
X126633390Y-52238095D02*
X126776247Y-52238095D01*
X126776247Y-52238095D02*
X126966723Y-52190476D01*
X126966723Y-52190476D02*
X127061961Y-52142857D01*
X127061961Y-52142857D02*
X127157200Y-52047619D01*
X127157200Y-52047619D02*
X127204819Y-51904762D01*
X127204819Y-51904762D02*
X127204819Y-51666667D01*
X132109523Y-80300390D02*
X132185713Y-80262295D01*
X132185713Y-80262295D02*
X132299999Y-80262295D01*
X132299999Y-80262295D02*
X132414285Y-80300390D01*
X132414285Y-80300390D02*
X132490475Y-80376580D01*
X132490475Y-80376580D02*
X132528570Y-80452771D01*
X132528570Y-80452771D02*
X132566666Y-80605152D01*
X132566666Y-80605152D02*
X132566666Y-80719438D01*
X132566666Y-80719438D02*
X132528570Y-80871819D01*
X132528570Y-80871819D02*
X132490475Y-80948009D01*
X132490475Y-80948009D02*
X132414285Y-81024200D01*
X132414285Y-81024200D02*
X132299999Y-81062295D01*
X132299999Y-81062295D02*
X132223808Y-81062295D01*
X132223808Y-81062295D02*
X132109523Y-81024200D01*
X132109523Y-81024200D02*
X132071427Y-80986104D01*
X132071427Y-80986104D02*
X132071427Y-80719438D01*
X132071427Y-80719438D02*
X132223808Y-80719438D01*
X131728570Y-81062295D02*
X131728570Y-80262295D01*
X131728570Y-80262295D02*
X131271427Y-81062295D01*
X131271427Y-81062295D02*
X131271427Y-80262295D01*
X130890475Y-81062295D02*
X130890475Y-80262295D01*
X130890475Y-80262295D02*
X130699999Y-80262295D01*
X130699999Y-80262295D02*
X130585713Y-80300390D01*
X130585713Y-80300390D02*
X130509523Y-80376580D01*
X130509523Y-80376580D02*
X130471428Y-80452771D01*
X130471428Y-80452771D02*
X130433332Y-80605152D01*
X130433332Y-80605152D02*
X130433332Y-80719438D01*
X130433332Y-80719438D02*
X130471428Y-80871819D01*
X130471428Y-80871819D02*
X130509523Y-80948009D01*
X130509523Y-80948009D02*
X130585713Y-81024200D01*
X130585713Y-81024200D02*
X130699999Y-81062295D01*
X130699999Y-81062295D02*
X130890475Y-81062295D01*
X131162295Y-90814285D02*
X131162295Y-91271428D01*
X131962295Y-91042856D02*
X131162295Y-91042856D01*
X131962295Y-91538095D02*
X131162295Y-91538095D01*
X131162295Y-91538095D02*
X131733723Y-91804761D01*
X131733723Y-91804761D02*
X131162295Y-92071428D01*
X131162295Y-92071428D02*
X131962295Y-92071428D01*
X131962295Y-92452381D02*
X131162295Y-92452381D01*
X131162295Y-92452381D02*
X131162295Y-92757143D01*
X131162295Y-92757143D02*
X131200390Y-92833333D01*
X131200390Y-92833333D02*
X131238485Y-92871428D01*
X131238485Y-92871428D02*
X131314676Y-92909524D01*
X131314676Y-92909524D02*
X131428961Y-92909524D01*
X131428961Y-92909524D02*
X131505152Y-92871428D01*
X131505152Y-92871428D02*
X131543247Y-92833333D01*
X131543247Y-92833333D02*
X131581342Y-92757143D01*
X131581342Y-92757143D02*
X131581342Y-92452381D01*
X121454819Y-49333334D02*
X121454819Y-49952381D01*
X121454819Y-49952381D02*
X121835771Y-49619048D01*
X121835771Y-49619048D02*
X121835771Y-49761905D01*
X121835771Y-49761905D02*
X121883390Y-49857143D01*
X121883390Y-49857143D02*
X121931009Y-49904762D01*
X121931009Y-49904762D02*
X122026247Y-49952381D01*
X122026247Y-49952381D02*
X122264342Y-49952381D01*
X122264342Y-49952381D02*
X122359580Y-49904762D01*
X122359580Y-49904762D02*
X122407200Y-49857143D01*
X122407200Y-49857143D02*
X122454819Y-49761905D01*
X122454819Y-49761905D02*
X122454819Y-49476191D01*
X122454819Y-49476191D02*
X122407200Y-49380953D01*
X122407200Y-49380953D02*
X122359580Y-49333334D01*
X122359580Y-50380953D02*
X122407200Y-50428572D01*
X122407200Y-50428572D02*
X122454819Y-50380953D01*
X122454819Y-50380953D02*
X122407200Y-50333334D01*
X122407200Y-50333334D02*
X122359580Y-50380953D01*
X122359580Y-50380953D02*
X122454819Y-50380953D01*
X121454819Y-50761905D02*
X121454819Y-51380952D01*
X121454819Y-51380952D02*
X121835771Y-51047619D01*
X121835771Y-51047619D02*
X121835771Y-51190476D01*
X121835771Y-51190476D02*
X121883390Y-51285714D01*
X121883390Y-51285714D02*
X121931009Y-51333333D01*
X121931009Y-51333333D02*
X122026247Y-51380952D01*
X122026247Y-51380952D02*
X122264342Y-51380952D01*
X122264342Y-51380952D02*
X122359580Y-51333333D01*
X122359580Y-51333333D02*
X122407200Y-51285714D01*
X122407200Y-51285714D02*
X122454819Y-51190476D01*
X122454819Y-51190476D02*
X122454819Y-50904762D01*
X122454819Y-50904762D02*
X122407200Y-50809524D01*
X122407200Y-50809524D02*
X122359580Y-50761905D01*
X121454819Y-51666667D02*
X122454819Y-52000000D01*
X122454819Y-52000000D02*
X121454819Y-52333333D01*
X132580952Y-77762295D02*
X132085714Y-77762295D01*
X132085714Y-77762295D02*
X132352380Y-78067057D01*
X132352380Y-78067057D02*
X132238095Y-78067057D01*
X132238095Y-78067057D02*
X132161904Y-78105152D01*
X132161904Y-78105152D02*
X132123809Y-78143247D01*
X132123809Y-78143247D02*
X132085714Y-78219438D01*
X132085714Y-78219438D02*
X132085714Y-78409914D01*
X132085714Y-78409914D02*
X132123809Y-78486104D01*
X132123809Y-78486104D02*
X132161904Y-78524200D01*
X132161904Y-78524200D02*
X132238095Y-78562295D01*
X132238095Y-78562295D02*
X132466666Y-78562295D01*
X132466666Y-78562295D02*
X132542857Y-78524200D01*
X132542857Y-78524200D02*
X132580952Y-78486104D01*
X131742856Y-78486104D02*
X131704761Y-78524200D01*
X131704761Y-78524200D02*
X131742856Y-78562295D01*
X131742856Y-78562295D02*
X131780952Y-78524200D01*
X131780952Y-78524200D02*
X131742856Y-78486104D01*
X131742856Y-78486104D02*
X131742856Y-78562295D01*
X131438095Y-77762295D02*
X130942857Y-77762295D01*
X130942857Y-77762295D02*
X131209523Y-78067057D01*
X131209523Y-78067057D02*
X131095238Y-78067057D01*
X131095238Y-78067057D02*
X131019047Y-78105152D01*
X131019047Y-78105152D02*
X130980952Y-78143247D01*
X130980952Y-78143247D02*
X130942857Y-78219438D01*
X130942857Y-78219438D02*
X130942857Y-78409914D01*
X130942857Y-78409914D02*
X130980952Y-78486104D01*
X130980952Y-78486104D02*
X131019047Y-78524200D01*
X131019047Y-78524200D02*
X131095238Y-78562295D01*
X131095238Y-78562295D02*
X131323809Y-78562295D01*
X131323809Y-78562295D02*
X131400000Y-78524200D01*
X131400000Y-78524200D02*
X131438095Y-78486104D01*
X130714285Y-77762295D02*
X130447618Y-78562295D01*
X130447618Y-78562295D02*
X130180952Y-77762295D01*
X135285714Y-62524200D02*
X135171428Y-62562295D01*
X135171428Y-62562295D02*
X134980952Y-62562295D01*
X134980952Y-62562295D02*
X134904761Y-62524200D01*
X134904761Y-62524200D02*
X134866666Y-62486104D01*
X134866666Y-62486104D02*
X134828571Y-62409914D01*
X134828571Y-62409914D02*
X134828571Y-62333723D01*
X134828571Y-62333723D02*
X134866666Y-62257533D01*
X134866666Y-62257533D02*
X134904761Y-62219438D01*
X134904761Y-62219438D02*
X134980952Y-62181342D01*
X134980952Y-62181342D02*
X135133333Y-62143247D01*
X135133333Y-62143247D02*
X135209523Y-62105152D01*
X135209523Y-62105152D02*
X135247618Y-62067057D01*
X135247618Y-62067057D02*
X135285714Y-61990866D01*
X135285714Y-61990866D02*
X135285714Y-61914676D01*
X135285714Y-61914676D02*
X135247618Y-61838485D01*
X135247618Y-61838485D02*
X135209523Y-61800390D01*
X135209523Y-61800390D02*
X135133333Y-61762295D01*
X135133333Y-61762295D02*
X134942856Y-61762295D01*
X134942856Y-61762295D02*
X134828571Y-61800390D01*
X134561904Y-61762295D02*
X134371428Y-62562295D01*
X134371428Y-62562295D02*
X134219047Y-61990866D01*
X134219047Y-61990866D02*
X134066666Y-62562295D01*
X134066666Y-62562295D02*
X133876190Y-61762295D01*
X133571427Y-62562295D02*
X133571427Y-61762295D01*
X133571427Y-61762295D02*
X133380951Y-61762295D01*
X133380951Y-61762295D02*
X133266665Y-61800390D01*
X133266665Y-61800390D02*
X133190475Y-61876580D01*
X133190475Y-61876580D02*
X133152380Y-61952771D01*
X133152380Y-61952771D02*
X133114284Y-62105152D01*
X133114284Y-62105152D02*
X133114284Y-62219438D01*
X133114284Y-62219438D02*
X133152380Y-62371819D01*
X133152380Y-62371819D02*
X133190475Y-62448009D01*
X133190475Y-62448009D02*
X133266665Y-62524200D01*
X133266665Y-62524200D02*
X133380951Y-62562295D01*
X133380951Y-62562295D02*
X133571427Y-62562295D01*
X119302105Y-50142857D02*
X119254486Y-50047619D01*
X119254486Y-50047619D02*
X119254486Y-49904762D01*
X119254486Y-49904762D02*
X119302105Y-49761905D01*
X119302105Y-49761905D02*
X119397343Y-49666667D01*
X119397343Y-49666667D02*
X119492581Y-49619048D01*
X119492581Y-49619048D02*
X119683057Y-49571429D01*
X119683057Y-49571429D02*
X119825914Y-49571429D01*
X119825914Y-49571429D02*
X120016390Y-49619048D01*
X120016390Y-49619048D02*
X120111628Y-49666667D01*
X120111628Y-49666667D02*
X120206867Y-49761905D01*
X120206867Y-49761905D02*
X120254486Y-49904762D01*
X120254486Y-49904762D02*
X120254486Y-50000000D01*
X120254486Y-50000000D02*
X120206867Y-50142857D01*
X120206867Y-50142857D02*
X120159247Y-50190476D01*
X120159247Y-50190476D02*
X119825914Y-50190476D01*
X119825914Y-50190476D02*
X119825914Y-50000000D01*
X120254486Y-50619048D02*
X119254486Y-50619048D01*
X119254486Y-50619048D02*
X120254486Y-51190476D01*
X120254486Y-51190476D02*
X119254486Y-51190476D01*
X120254486Y-51666667D02*
X119254486Y-51666667D01*
X119254486Y-51666667D02*
X119254486Y-51904762D01*
X119254486Y-51904762D02*
X119302105Y-52047619D01*
X119302105Y-52047619D02*
X119397343Y-52142857D01*
X119397343Y-52142857D02*
X119492581Y-52190476D01*
X119492581Y-52190476D02*
X119683057Y-52238095D01*
X119683057Y-52238095D02*
X119825914Y-52238095D01*
X119825914Y-52238095D02*
X120016390Y-52190476D01*
X120016390Y-52190476D02*
X120111628Y-52142857D01*
X120111628Y-52142857D02*
X120206867Y-52047619D01*
X120206867Y-52047619D02*
X120254486Y-51904762D01*
X120254486Y-51904762D02*
X120254486Y-51666667D01*
D10*
X108133332Y-92402219D02*
X107799999Y-93402219D01*
X107799999Y-93402219D02*
X107466666Y-92402219D01*
X107133332Y-93402219D02*
X107133332Y-92402219D01*
X107133332Y-92402219D02*
X106895237Y-92402219D01*
X106895237Y-92402219D02*
X106752380Y-92449838D01*
X106752380Y-92449838D02*
X106657142Y-92545076D01*
X106657142Y-92545076D02*
X106609523Y-92640314D01*
X106609523Y-92640314D02*
X106561904Y-92830790D01*
X106561904Y-92830790D02*
X106561904Y-92973647D01*
X106561904Y-92973647D02*
X106609523Y-93164123D01*
X106609523Y-93164123D02*
X106657142Y-93259361D01*
X106657142Y-93259361D02*
X106752380Y-93354600D01*
X106752380Y-93354600D02*
X106895237Y-93402219D01*
X106895237Y-93402219D02*
X107133332Y-93402219D01*
X106133332Y-93402219D02*
X106133332Y-92402219D01*
X106133332Y-92402219D02*
X105895237Y-92402219D01*
X105895237Y-92402219D02*
X105752380Y-92449838D01*
X105752380Y-92449838D02*
X105657142Y-92545076D01*
X105657142Y-92545076D02*
X105609523Y-92640314D01*
X105609523Y-92640314D02*
X105561904Y-92830790D01*
X105561904Y-92830790D02*
X105561904Y-92973647D01*
X105561904Y-92973647D02*
X105609523Y-93164123D01*
X105609523Y-93164123D02*
X105657142Y-93259361D01*
X105657142Y-93259361D02*
X105752380Y-93354600D01*
X105752380Y-93354600D02*
X105895237Y-93402219D01*
X105895237Y-93402219D02*
X106133332Y-93402219D01*
D11*
X122152380Y-78286104D02*
X122190476Y-78324200D01*
X122190476Y-78324200D02*
X122304761Y-78362295D01*
X122304761Y-78362295D02*
X122380952Y-78362295D01*
X122380952Y-78362295D02*
X122495238Y-78324200D01*
X122495238Y-78324200D02*
X122571428Y-78248009D01*
X122571428Y-78248009D02*
X122609523Y-78171819D01*
X122609523Y-78171819D02*
X122647619Y-78019438D01*
X122647619Y-78019438D02*
X122647619Y-77905152D01*
X122647619Y-77905152D02*
X122609523Y-77752771D01*
X122609523Y-77752771D02*
X122571428Y-77676580D01*
X122571428Y-77676580D02*
X122495238Y-77600390D01*
X122495238Y-77600390D02*
X122380952Y-77562295D01*
X122380952Y-77562295D02*
X122304761Y-77562295D01*
X122304761Y-77562295D02*
X122190476Y-77600390D01*
X122190476Y-77600390D02*
X122152380Y-77638485D01*
D12*
X107942857Y-90419000D02*
X105657143Y-90419000D01*
X106800000Y-91561857D02*
X106800000Y-89276142D01*
D11*
X123704819Y-51333332D02*
X123704819Y-50857142D01*
X123704819Y-50857142D02*
X124181009Y-50809523D01*
X124181009Y-50809523D02*
X124133390Y-50857142D01*
X124133390Y-50857142D02*
X124085771Y-50952380D01*
X124085771Y-50952380D02*
X124085771Y-51190475D01*
X124085771Y-51190475D02*
X124133390Y-51285713D01*
X124133390Y-51285713D02*
X124181009Y-51333332D01*
X124181009Y-51333332D02*
X124276247Y-51380951D01*
X124276247Y-51380951D02*
X124514342Y-51380951D01*
X124514342Y-51380951D02*
X124609580Y-51333332D01*
X124609580Y-51333332D02*
X124657200Y-51285713D01*
X124657200Y-51285713D02*
X124704819Y-51190475D01*
X124704819Y-51190475D02*
X124704819Y-50952380D01*
X124704819Y-50952380D02*
X124657200Y-50857142D01*
X124657200Y-50857142D02*
X124609580Y-50809523D01*
X123704819Y-51666666D02*
X124704819Y-51999999D01*
X124704819Y-51999999D02*
X123704819Y-52333332D01*
X114090475Y-68462295D02*
X114090475Y-67662295D01*
X114090475Y-67662295D02*
X113899999Y-67662295D01*
X113899999Y-67662295D02*
X113785713Y-67700390D01*
X113785713Y-67700390D02*
X113709523Y-67776580D01*
X113709523Y-67776580D02*
X113671428Y-67852771D01*
X113671428Y-67852771D02*
X113633332Y-68005152D01*
X113633332Y-68005152D02*
X113633332Y-68119438D01*
X113633332Y-68119438D02*
X113671428Y-68271819D01*
X113671428Y-68271819D02*
X113709523Y-68348009D01*
X113709523Y-68348009D02*
X113785713Y-68424200D01*
X113785713Y-68424200D02*
X113899999Y-68462295D01*
X113899999Y-68462295D02*
X114090475Y-68462295D01*
X113366666Y-67662295D02*
X112871428Y-67662295D01*
X112871428Y-67662295D02*
X113138094Y-67967057D01*
X113138094Y-67967057D02*
X113023809Y-67967057D01*
X113023809Y-67967057D02*
X112947618Y-68005152D01*
X112947618Y-68005152D02*
X112909523Y-68043247D01*
X112909523Y-68043247D02*
X112871428Y-68119438D01*
X112871428Y-68119438D02*
X112871428Y-68309914D01*
X112871428Y-68309914D02*
X112909523Y-68386104D01*
X112909523Y-68386104D02*
X112947618Y-68424200D01*
X112947618Y-68424200D02*
X113023809Y-68462295D01*
X113023809Y-68462295D02*
X113252380Y-68462295D01*
X113252380Y-68462295D02*
X113328571Y-68424200D01*
X113328571Y-68424200D02*
X113366666Y-68386104D01*
X99266666Y-66562295D02*
X99266666Y-67133723D01*
X99266666Y-67133723D02*
X99304761Y-67248009D01*
X99304761Y-67248009D02*
X99380952Y-67324200D01*
X99380952Y-67324200D02*
X99495237Y-67362295D01*
X99495237Y-67362295D02*
X99571428Y-67362295D01*
X98466666Y-67362295D02*
X98923809Y-67362295D01*
X98695237Y-67362295D02*
X98695237Y-66562295D01*
X98695237Y-66562295D02*
X98771428Y-66676580D01*
X98771428Y-66676580D02*
X98847618Y-66752771D01*
X98847618Y-66752771D02*
X98923809Y-66790866D01*
X109814285Y-81012295D02*
X110080952Y-80631342D01*
X110271428Y-81012295D02*
X110271428Y-80212295D01*
X110271428Y-80212295D02*
X109966666Y-80212295D01*
X109966666Y-80212295D02*
X109890476Y-80250390D01*
X109890476Y-80250390D02*
X109852381Y-80288485D01*
X109852381Y-80288485D02*
X109814285Y-80364676D01*
X109814285Y-80364676D02*
X109814285Y-80478961D01*
X109814285Y-80478961D02*
X109852381Y-80555152D01*
X109852381Y-80555152D02*
X109890476Y-80593247D01*
X109890476Y-80593247D02*
X109966666Y-80631342D01*
X109966666Y-80631342D02*
X110271428Y-80631342D01*
X109052381Y-81012295D02*
X109509524Y-81012295D01*
X109280952Y-81012295D02*
X109280952Y-80212295D01*
X109280952Y-80212295D02*
X109357143Y-80326580D01*
X109357143Y-80326580D02*
X109433333Y-80402771D01*
X109433333Y-80402771D02*
X109509524Y-80440866D01*
X108557142Y-80212295D02*
X108480952Y-80212295D01*
X108480952Y-80212295D02*
X108404761Y-80250390D01*
X108404761Y-80250390D02*
X108366666Y-80288485D01*
X108366666Y-80288485D02*
X108328571Y-80364676D01*
X108328571Y-80364676D02*
X108290476Y-80517057D01*
X108290476Y-80517057D02*
X108290476Y-80707533D01*
X108290476Y-80707533D02*
X108328571Y-80859914D01*
X108328571Y-80859914D02*
X108366666Y-80936104D01*
X108366666Y-80936104D02*
X108404761Y-80974200D01*
X108404761Y-80974200D02*
X108480952Y-81012295D01*
X108480952Y-81012295D02*
X108557142Y-81012295D01*
X108557142Y-81012295D02*
X108633333Y-80974200D01*
X108633333Y-80974200D02*
X108671428Y-80936104D01*
X108671428Y-80936104D02*
X108709523Y-80859914D01*
X108709523Y-80859914D02*
X108747619Y-80707533D01*
X108747619Y-80707533D02*
X108747619Y-80517057D01*
X108747619Y-80517057D02*
X108709523Y-80364676D01*
X108709523Y-80364676D02*
X108671428Y-80288485D01*
X108671428Y-80288485D02*
X108633333Y-80250390D01*
X108633333Y-80250390D02*
X108557142Y-80212295D01*
X106837295Y-58010714D02*
X106456342Y-57744047D01*
X106837295Y-57553571D02*
X106037295Y-57553571D01*
X106037295Y-57553571D02*
X106037295Y-57858333D01*
X106037295Y-57858333D02*
X106075390Y-57934523D01*
X106075390Y-57934523D02*
X106113485Y-57972618D01*
X106113485Y-57972618D02*
X106189676Y-58010714D01*
X106189676Y-58010714D02*
X106303961Y-58010714D01*
X106303961Y-58010714D02*
X106380152Y-57972618D01*
X106380152Y-57972618D02*
X106418247Y-57934523D01*
X106418247Y-57934523D02*
X106456342Y-57858333D01*
X106456342Y-57858333D02*
X106456342Y-57553571D01*
X106113485Y-58315475D02*
X106075390Y-58353571D01*
X106075390Y-58353571D02*
X106037295Y-58429761D01*
X106037295Y-58429761D02*
X106037295Y-58620237D01*
X106037295Y-58620237D02*
X106075390Y-58696428D01*
X106075390Y-58696428D02*
X106113485Y-58734523D01*
X106113485Y-58734523D02*
X106189676Y-58772618D01*
X106189676Y-58772618D02*
X106265866Y-58772618D01*
X106265866Y-58772618D02*
X106380152Y-58734523D01*
X106380152Y-58734523D02*
X106837295Y-58277380D01*
X106837295Y-58277380D02*
X106837295Y-58772618D01*
X106380152Y-59229761D02*
X106342057Y-59153571D01*
X106342057Y-59153571D02*
X106303961Y-59115476D01*
X106303961Y-59115476D02*
X106227771Y-59077380D01*
X106227771Y-59077380D02*
X106189676Y-59077380D01*
X106189676Y-59077380D02*
X106113485Y-59115476D01*
X106113485Y-59115476D02*
X106075390Y-59153571D01*
X106075390Y-59153571D02*
X106037295Y-59229761D01*
X106037295Y-59229761D02*
X106037295Y-59382142D01*
X106037295Y-59382142D02*
X106075390Y-59458333D01*
X106075390Y-59458333D02*
X106113485Y-59496428D01*
X106113485Y-59496428D02*
X106189676Y-59534523D01*
X106189676Y-59534523D02*
X106227771Y-59534523D01*
X106227771Y-59534523D02*
X106303961Y-59496428D01*
X106303961Y-59496428D02*
X106342057Y-59458333D01*
X106342057Y-59458333D02*
X106380152Y-59382142D01*
X106380152Y-59382142D02*
X106380152Y-59229761D01*
X106380152Y-59229761D02*
X106418247Y-59153571D01*
X106418247Y-59153571D02*
X106456342Y-59115476D01*
X106456342Y-59115476D02*
X106532533Y-59077380D01*
X106532533Y-59077380D02*
X106684914Y-59077380D01*
X106684914Y-59077380D02*
X106761104Y-59115476D01*
X106761104Y-59115476D02*
X106799200Y-59153571D01*
X106799200Y-59153571D02*
X106837295Y-59229761D01*
X106837295Y-59229761D02*
X106837295Y-59382142D01*
X106837295Y-59382142D02*
X106799200Y-59458333D01*
X106799200Y-59458333D02*
X106761104Y-59496428D01*
X106761104Y-59496428D02*
X106684914Y-59534523D01*
X106684914Y-59534523D02*
X106532533Y-59534523D01*
X106532533Y-59534523D02*
X106456342Y-59496428D01*
X106456342Y-59496428D02*
X106418247Y-59458333D01*
X106418247Y-59458333D02*
X106380152Y-59382142D01*
X129486104Y-83366667D02*
X129524200Y-83328571D01*
X129524200Y-83328571D02*
X129562295Y-83214286D01*
X129562295Y-83214286D02*
X129562295Y-83138095D01*
X129562295Y-83138095D02*
X129524200Y-83023809D01*
X129524200Y-83023809D02*
X129448009Y-82947619D01*
X129448009Y-82947619D02*
X129371819Y-82909524D01*
X129371819Y-82909524D02*
X129219438Y-82871428D01*
X129219438Y-82871428D02*
X129105152Y-82871428D01*
X129105152Y-82871428D02*
X128952771Y-82909524D01*
X128952771Y-82909524D02*
X128876580Y-82947619D01*
X128876580Y-82947619D02*
X128800390Y-83023809D01*
X128800390Y-83023809D02*
X128762295Y-83138095D01*
X128762295Y-83138095D02*
X128762295Y-83214286D01*
X128762295Y-83214286D02*
X128800390Y-83328571D01*
X128800390Y-83328571D02*
X128838485Y-83366667D01*
X129562295Y-84128571D02*
X129562295Y-83671428D01*
X129562295Y-83900000D02*
X128762295Y-83900000D01*
X128762295Y-83900000D02*
X128876580Y-83823809D01*
X128876580Y-83823809D02*
X128952771Y-83747619D01*
X128952771Y-83747619D02*
X128990866Y-83671428D01*
X109809523Y-91162295D02*
X109809523Y-91809914D01*
X109809523Y-91809914D02*
X109771428Y-91886104D01*
X109771428Y-91886104D02*
X109733333Y-91924200D01*
X109733333Y-91924200D02*
X109657142Y-91962295D01*
X109657142Y-91962295D02*
X109504761Y-91962295D01*
X109504761Y-91962295D02*
X109428571Y-91924200D01*
X109428571Y-91924200D02*
X109390476Y-91886104D01*
X109390476Y-91886104D02*
X109352380Y-91809914D01*
X109352380Y-91809914D02*
X109352380Y-91162295D01*
X109009524Y-91238485D02*
X108971428Y-91200390D01*
X108971428Y-91200390D02*
X108895238Y-91162295D01*
X108895238Y-91162295D02*
X108704762Y-91162295D01*
X108704762Y-91162295D02*
X108628571Y-91200390D01*
X108628571Y-91200390D02*
X108590476Y-91238485D01*
X108590476Y-91238485D02*
X108552381Y-91314676D01*
X108552381Y-91314676D02*
X108552381Y-91390866D01*
X108552381Y-91390866D02*
X108590476Y-91505152D01*
X108590476Y-91505152D02*
X109047619Y-91962295D01*
X109047619Y-91962295D02*
X108552381Y-91962295D01*
X129033332Y-89886104D02*
X129071428Y-89924200D01*
X129071428Y-89924200D02*
X129185713Y-89962295D01*
X129185713Y-89962295D02*
X129261904Y-89962295D01*
X129261904Y-89962295D02*
X129376190Y-89924200D01*
X129376190Y-89924200D02*
X129452380Y-89848009D01*
X129452380Y-89848009D02*
X129490475Y-89771819D01*
X129490475Y-89771819D02*
X129528571Y-89619438D01*
X129528571Y-89619438D02*
X129528571Y-89505152D01*
X129528571Y-89505152D02*
X129490475Y-89352771D01*
X129490475Y-89352771D02*
X129452380Y-89276580D01*
X129452380Y-89276580D02*
X129376190Y-89200390D01*
X129376190Y-89200390D02*
X129261904Y-89162295D01*
X129261904Y-89162295D02*
X129185713Y-89162295D01*
X129185713Y-89162295D02*
X129071428Y-89200390D01*
X129071428Y-89200390D02*
X129033332Y-89238485D01*
X128766666Y-89162295D02*
X128271428Y-89162295D01*
X128271428Y-89162295D02*
X128538094Y-89467057D01*
X128538094Y-89467057D02*
X128423809Y-89467057D01*
X128423809Y-89467057D02*
X128347618Y-89505152D01*
X128347618Y-89505152D02*
X128309523Y-89543247D01*
X128309523Y-89543247D02*
X128271428Y-89619438D01*
X128271428Y-89619438D02*
X128271428Y-89809914D01*
X128271428Y-89809914D02*
X128309523Y-89886104D01*
X128309523Y-89886104D02*
X128347618Y-89924200D01*
X128347618Y-89924200D02*
X128423809Y-89962295D01*
X128423809Y-89962295D02*
X128652380Y-89962295D01*
X128652380Y-89962295D02*
X128728571Y-89924200D01*
X128728571Y-89924200D02*
X128766666Y-89886104D01*
X115680951Y-73087295D02*
X115680951Y-72287295D01*
X114842856Y-73011104D02*
X114880952Y-73049200D01*
X114880952Y-73049200D02*
X114995237Y-73087295D01*
X114995237Y-73087295D02*
X115071428Y-73087295D01*
X115071428Y-73087295D02*
X115185714Y-73049200D01*
X115185714Y-73049200D02*
X115261904Y-72973009D01*
X115261904Y-72973009D02*
X115299999Y-72896819D01*
X115299999Y-72896819D02*
X115338095Y-72744438D01*
X115338095Y-72744438D02*
X115338095Y-72630152D01*
X115338095Y-72630152D02*
X115299999Y-72477771D01*
X115299999Y-72477771D02*
X115261904Y-72401580D01*
X115261904Y-72401580D02*
X115185714Y-72325390D01*
X115185714Y-72325390D02*
X115071428Y-72287295D01*
X115071428Y-72287295D02*
X114995237Y-72287295D01*
X114995237Y-72287295D02*
X114880952Y-72325390D01*
X114880952Y-72325390D02*
X114842856Y-72363485D01*
X114157142Y-72553961D02*
X114157142Y-73087295D01*
X114347618Y-72249200D02*
X114538095Y-72820628D01*
X114538095Y-72820628D02*
X114042856Y-72820628D01*
X116883333Y-61612295D02*
X117264285Y-61612295D01*
X117264285Y-61612295D02*
X117264285Y-60812295D01*
X116197619Y-61612295D02*
X116654762Y-61612295D01*
X116426190Y-61612295D02*
X116426190Y-60812295D01*
X116426190Y-60812295D02*
X116502381Y-60926580D01*
X116502381Y-60926580D02*
X116578571Y-61002771D01*
X116578571Y-61002771D02*
X116654762Y-61040866D01*
X120264285Y-93286104D02*
X120302381Y-93324200D01*
X120302381Y-93324200D02*
X120416666Y-93362295D01*
X120416666Y-93362295D02*
X120492857Y-93362295D01*
X120492857Y-93362295D02*
X120607143Y-93324200D01*
X120607143Y-93324200D02*
X120683333Y-93248009D01*
X120683333Y-93248009D02*
X120721428Y-93171819D01*
X120721428Y-93171819D02*
X120759524Y-93019438D01*
X120759524Y-93019438D02*
X120759524Y-92905152D01*
X120759524Y-92905152D02*
X120721428Y-92752771D01*
X120721428Y-92752771D02*
X120683333Y-92676580D01*
X120683333Y-92676580D02*
X120607143Y-92600390D01*
X120607143Y-92600390D02*
X120492857Y-92562295D01*
X120492857Y-92562295D02*
X120416666Y-92562295D01*
X120416666Y-92562295D02*
X120302381Y-92600390D01*
X120302381Y-92600390D02*
X120264285Y-92638485D01*
X119502381Y-93362295D02*
X119959524Y-93362295D01*
X119730952Y-93362295D02*
X119730952Y-92562295D01*
X119730952Y-92562295D02*
X119807143Y-92676580D01*
X119807143Y-92676580D02*
X119883333Y-92752771D01*
X119883333Y-92752771D02*
X119959524Y-92790866D01*
X119235714Y-92562295D02*
X118702380Y-92562295D01*
X118702380Y-92562295D02*
X119045238Y-93362295D01*
X131833332Y-83536104D02*
X131871428Y-83574200D01*
X131871428Y-83574200D02*
X131985713Y-83612295D01*
X131985713Y-83612295D02*
X132061904Y-83612295D01*
X132061904Y-83612295D02*
X132176190Y-83574200D01*
X132176190Y-83574200D02*
X132252380Y-83498009D01*
X132252380Y-83498009D02*
X132290475Y-83421819D01*
X132290475Y-83421819D02*
X132328571Y-83269438D01*
X132328571Y-83269438D02*
X132328571Y-83155152D01*
X132328571Y-83155152D02*
X132290475Y-83002771D01*
X132290475Y-83002771D02*
X132252380Y-82926580D01*
X132252380Y-82926580D02*
X132176190Y-82850390D01*
X132176190Y-82850390D02*
X132061904Y-82812295D01*
X132061904Y-82812295D02*
X131985713Y-82812295D01*
X131985713Y-82812295D02*
X131871428Y-82850390D01*
X131871428Y-82850390D02*
X131833332Y-82888485D01*
X131109523Y-82812295D02*
X131490475Y-82812295D01*
X131490475Y-82812295D02*
X131528571Y-83193247D01*
X131528571Y-83193247D02*
X131490475Y-83155152D01*
X131490475Y-83155152D02*
X131414285Y-83117057D01*
X131414285Y-83117057D02*
X131223809Y-83117057D01*
X131223809Y-83117057D02*
X131147618Y-83155152D01*
X131147618Y-83155152D02*
X131109523Y-83193247D01*
X131109523Y-83193247D02*
X131071428Y-83269438D01*
X131071428Y-83269438D02*
X131071428Y-83459914D01*
X131071428Y-83459914D02*
X131109523Y-83536104D01*
X131109523Y-83536104D02*
X131147618Y-83574200D01*
X131147618Y-83574200D02*
X131223809Y-83612295D01*
X131223809Y-83612295D02*
X131414285Y-83612295D01*
X131414285Y-83612295D02*
X131490475Y-83574200D01*
X131490475Y-83574200D02*
X131528571Y-83536104D01*
X99914285Y-60486104D02*
X99952381Y-60524200D01*
X99952381Y-60524200D02*
X100066666Y-60562295D01*
X100066666Y-60562295D02*
X100142857Y-60562295D01*
X100142857Y-60562295D02*
X100257143Y-60524200D01*
X100257143Y-60524200D02*
X100333333Y-60448009D01*
X100333333Y-60448009D02*
X100371428Y-60371819D01*
X100371428Y-60371819D02*
X100409524Y-60219438D01*
X100409524Y-60219438D02*
X100409524Y-60105152D01*
X100409524Y-60105152D02*
X100371428Y-59952771D01*
X100371428Y-59952771D02*
X100333333Y-59876580D01*
X100333333Y-59876580D02*
X100257143Y-59800390D01*
X100257143Y-59800390D02*
X100142857Y-59762295D01*
X100142857Y-59762295D02*
X100066666Y-59762295D01*
X100066666Y-59762295D02*
X99952381Y-59800390D01*
X99952381Y-59800390D02*
X99914285Y-59838485D01*
X99152381Y-60562295D02*
X99609524Y-60562295D01*
X99380952Y-60562295D02*
X99380952Y-59762295D01*
X99380952Y-59762295D02*
X99457143Y-59876580D01*
X99457143Y-59876580D02*
X99533333Y-59952771D01*
X99533333Y-59952771D02*
X99609524Y-59990866D01*
X98466666Y-60028961D02*
X98466666Y-60562295D01*
X98657142Y-59724200D02*
X98847619Y-60295628D01*
X98847619Y-60295628D02*
X98352380Y-60295628D01*
X116786104Y-81385714D02*
X116824200Y-81347618D01*
X116824200Y-81347618D02*
X116862295Y-81233333D01*
X116862295Y-81233333D02*
X116862295Y-81157142D01*
X116862295Y-81157142D02*
X116824200Y-81042856D01*
X116824200Y-81042856D02*
X116748009Y-80966666D01*
X116748009Y-80966666D02*
X116671819Y-80928571D01*
X116671819Y-80928571D02*
X116519438Y-80890475D01*
X116519438Y-80890475D02*
X116405152Y-80890475D01*
X116405152Y-80890475D02*
X116252771Y-80928571D01*
X116252771Y-80928571D02*
X116176580Y-80966666D01*
X116176580Y-80966666D02*
X116100390Y-81042856D01*
X116100390Y-81042856D02*
X116062295Y-81157142D01*
X116062295Y-81157142D02*
X116062295Y-81233333D01*
X116062295Y-81233333D02*
X116100390Y-81347618D01*
X116100390Y-81347618D02*
X116138485Y-81385714D01*
X116862295Y-82147618D02*
X116862295Y-81690475D01*
X116862295Y-81919047D02*
X116062295Y-81919047D01*
X116062295Y-81919047D02*
X116176580Y-81842856D01*
X116176580Y-81842856D02*
X116252771Y-81766666D01*
X116252771Y-81766666D02*
X116290866Y-81690475D01*
X116062295Y-82833333D02*
X116062295Y-82680952D01*
X116062295Y-82680952D02*
X116100390Y-82604761D01*
X116100390Y-82604761D02*
X116138485Y-82566666D01*
X116138485Y-82566666D02*
X116252771Y-82490476D01*
X116252771Y-82490476D02*
X116405152Y-82452380D01*
X116405152Y-82452380D02*
X116709914Y-82452380D01*
X116709914Y-82452380D02*
X116786104Y-82490476D01*
X116786104Y-82490476D02*
X116824200Y-82528571D01*
X116824200Y-82528571D02*
X116862295Y-82604761D01*
X116862295Y-82604761D02*
X116862295Y-82757142D01*
X116862295Y-82757142D02*
X116824200Y-82833333D01*
X116824200Y-82833333D02*
X116786104Y-82871428D01*
X116786104Y-82871428D02*
X116709914Y-82909523D01*
X116709914Y-82909523D02*
X116519438Y-82909523D01*
X116519438Y-82909523D02*
X116443247Y-82871428D01*
X116443247Y-82871428D02*
X116405152Y-82833333D01*
X116405152Y-82833333D02*
X116367057Y-82757142D01*
X116367057Y-82757142D02*
X116367057Y-82604761D01*
X116367057Y-82604761D02*
X116405152Y-82528571D01*
X116405152Y-82528571D02*
X116443247Y-82490476D01*
X116443247Y-82490476D02*
X116519438Y-82452380D01*
X124033332Y-93262295D02*
X124299999Y-92881342D01*
X124490475Y-93262295D02*
X124490475Y-92462295D01*
X124490475Y-92462295D02*
X124185713Y-92462295D01*
X124185713Y-92462295D02*
X124109523Y-92500390D01*
X124109523Y-92500390D02*
X124071428Y-92538485D01*
X124071428Y-92538485D02*
X124033332Y-92614676D01*
X124033332Y-92614676D02*
X124033332Y-92728961D01*
X124033332Y-92728961D02*
X124071428Y-92805152D01*
X124071428Y-92805152D02*
X124109523Y-92843247D01*
X124109523Y-92843247D02*
X124185713Y-92881342D01*
X124185713Y-92881342D02*
X124490475Y-92881342D01*
X123728571Y-92538485D02*
X123690475Y-92500390D01*
X123690475Y-92500390D02*
X123614285Y-92462295D01*
X123614285Y-92462295D02*
X123423809Y-92462295D01*
X123423809Y-92462295D02*
X123347618Y-92500390D01*
X123347618Y-92500390D02*
X123309523Y-92538485D01*
X123309523Y-92538485D02*
X123271428Y-92614676D01*
X123271428Y-92614676D02*
X123271428Y-92690866D01*
X123271428Y-92690866D02*
X123309523Y-92805152D01*
X123309523Y-92805152D02*
X123766666Y-93262295D01*
X123766666Y-93262295D02*
X123271428Y-93262295D01*
X126033332Y-93262295D02*
X126299999Y-92881342D01*
X126490475Y-93262295D02*
X126490475Y-92462295D01*
X126490475Y-92462295D02*
X126185713Y-92462295D01*
X126185713Y-92462295D02*
X126109523Y-92500390D01*
X126109523Y-92500390D02*
X126071428Y-92538485D01*
X126071428Y-92538485D02*
X126033332Y-92614676D01*
X126033332Y-92614676D02*
X126033332Y-92728961D01*
X126033332Y-92728961D02*
X126071428Y-92805152D01*
X126071428Y-92805152D02*
X126109523Y-92843247D01*
X126109523Y-92843247D02*
X126185713Y-92881342D01*
X126185713Y-92881342D02*
X126490475Y-92881342D01*
X125766666Y-92462295D02*
X125271428Y-92462295D01*
X125271428Y-92462295D02*
X125538094Y-92767057D01*
X125538094Y-92767057D02*
X125423809Y-92767057D01*
X125423809Y-92767057D02*
X125347618Y-92805152D01*
X125347618Y-92805152D02*
X125309523Y-92843247D01*
X125309523Y-92843247D02*
X125271428Y-92919438D01*
X125271428Y-92919438D02*
X125271428Y-93109914D01*
X125271428Y-93109914D02*
X125309523Y-93186104D01*
X125309523Y-93186104D02*
X125347618Y-93224200D01*
X125347618Y-93224200D02*
X125423809Y-93262295D01*
X125423809Y-93262295D02*
X125652380Y-93262295D01*
X125652380Y-93262295D02*
X125728571Y-93224200D01*
X125728571Y-93224200D02*
X125766666Y-93186104D01*
X129471428Y-87262295D02*
X129471428Y-86462295D01*
X129471428Y-86462295D02*
X129280952Y-86462295D01*
X129280952Y-86462295D02*
X129166666Y-86500390D01*
X129166666Y-86500390D02*
X129090476Y-86576580D01*
X129090476Y-86576580D02*
X129052381Y-86652771D01*
X129052381Y-86652771D02*
X129014285Y-86805152D01*
X129014285Y-86805152D02*
X129014285Y-86919438D01*
X129014285Y-86919438D02*
X129052381Y-87071819D01*
X129052381Y-87071819D02*
X129090476Y-87148009D01*
X129090476Y-87148009D02*
X129166666Y-87224200D01*
X129166666Y-87224200D02*
X129280952Y-87262295D01*
X129280952Y-87262295D02*
X129471428Y-87262295D01*
X128252381Y-87262295D02*
X128709524Y-87262295D01*
X128480952Y-87262295D02*
X128480952Y-86462295D01*
X128480952Y-86462295D02*
X128557143Y-86576580D01*
X128557143Y-86576580D02*
X128633333Y-86652771D01*
X128633333Y-86652771D02*
X128709524Y-86690866D01*
X127947619Y-86538485D02*
X127909523Y-86500390D01*
X127909523Y-86500390D02*
X127833333Y-86462295D01*
X127833333Y-86462295D02*
X127642857Y-86462295D01*
X127642857Y-86462295D02*
X127566666Y-86500390D01*
X127566666Y-86500390D02*
X127528571Y-86538485D01*
X127528571Y-86538485D02*
X127490476Y-86614676D01*
X127490476Y-86614676D02*
X127490476Y-86690866D01*
X127490476Y-86690866D02*
X127528571Y-86805152D01*
X127528571Y-86805152D02*
X127985714Y-87262295D01*
X127985714Y-87262295D02*
X127490476Y-87262295D01*
X114090475Y-67262295D02*
X114090475Y-66462295D01*
X114090475Y-66462295D02*
X113899999Y-66462295D01*
X113899999Y-66462295D02*
X113785713Y-66500390D01*
X113785713Y-66500390D02*
X113709523Y-66576580D01*
X113709523Y-66576580D02*
X113671428Y-66652771D01*
X113671428Y-66652771D02*
X113633332Y-66805152D01*
X113633332Y-66805152D02*
X113633332Y-66919438D01*
X113633332Y-66919438D02*
X113671428Y-67071819D01*
X113671428Y-67071819D02*
X113709523Y-67148009D01*
X113709523Y-67148009D02*
X113785713Y-67224200D01*
X113785713Y-67224200D02*
X113899999Y-67262295D01*
X113899999Y-67262295D02*
X114090475Y-67262295D01*
X112871428Y-67262295D02*
X113328571Y-67262295D01*
X113099999Y-67262295D02*
X113099999Y-66462295D01*
X113099999Y-66462295D02*
X113176190Y-66576580D01*
X113176190Y-66576580D02*
X113252380Y-66652771D01*
X113252380Y-66652771D02*
X113328571Y-66690866D01*
X117814285Y-93286104D02*
X117852381Y-93324200D01*
X117852381Y-93324200D02*
X117966666Y-93362295D01*
X117966666Y-93362295D02*
X118042857Y-93362295D01*
X118042857Y-93362295D02*
X118157143Y-93324200D01*
X118157143Y-93324200D02*
X118233333Y-93248009D01*
X118233333Y-93248009D02*
X118271428Y-93171819D01*
X118271428Y-93171819D02*
X118309524Y-93019438D01*
X118309524Y-93019438D02*
X118309524Y-92905152D01*
X118309524Y-92905152D02*
X118271428Y-92752771D01*
X118271428Y-92752771D02*
X118233333Y-92676580D01*
X118233333Y-92676580D02*
X118157143Y-92600390D01*
X118157143Y-92600390D02*
X118042857Y-92562295D01*
X118042857Y-92562295D02*
X117966666Y-92562295D01*
X117966666Y-92562295D02*
X117852381Y-92600390D01*
X117852381Y-92600390D02*
X117814285Y-92638485D01*
X117052381Y-93362295D02*
X117509524Y-93362295D01*
X117280952Y-93362295D02*
X117280952Y-92562295D01*
X117280952Y-92562295D02*
X117357143Y-92676580D01*
X117357143Y-92676580D02*
X117433333Y-92752771D01*
X117433333Y-92752771D02*
X117509524Y-92790866D01*
X116595238Y-92905152D02*
X116671428Y-92867057D01*
X116671428Y-92867057D02*
X116709523Y-92828961D01*
X116709523Y-92828961D02*
X116747619Y-92752771D01*
X116747619Y-92752771D02*
X116747619Y-92714676D01*
X116747619Y-92714676D02*
X116709523Y-92638485D01*
X116709523Y-92638485D02*
X116671428Y-92600390D01*
X116671428Y-92600390D02*
X116595238Y-92562295D01*
X116595238Y-92562295D02*
X116442857Y-92562295D01*
X116442857Y-92562295D02*
X116366666Y-92600390D01*
X116366666Y-92600390D02*
X116328571Y-92638485D01*
X116328571Y-92638485D02*
X116290476Y-92714676D01*
X116290476Y-92714676D02*
X116290476Y-92752771D01*
X116290476Y-92752771D02*
X116328571Y-92828961D01*
X116328571Y-92828961D02*
X116366666Y-92867057D01*
X116366666Y-92867057D02*
X116442857Y-92905152D01*
X116442857Y-92905152D02*
X116595238Y-92905152D01*
X116595238Y-92905152D02*
X116671428Y-92943247D01*
X116671428Y-92943247D02*
X116709523Y-92981342D01*
X116709523Y-92981342D02*
X116747619Y-93057533D01*
X116747619Y-93057533D02*
X116747619Y-93209914D01*
X116747619Y-93209914D02*
X116709523Y-93286104D01*
X116709523Y-93286104D02*
X116671428Y-93324200D01*
X116671428Y-93324200D02*
X116595238Y-93362295D01*
X116595238Y-93362295D02*
X116442857Y-93362295D01*
X116442857Y-93362295D02*
X116366666Y-93324200D01*
X116366666Y-93324200D02*
X116328571Y-93286104D01*
X116328571Y-93286104D02*
X116290476Y-93209914D01*
X116290476Y-93209914D02*
X116290476Y-93057533D01*
X116290476Y-93057533D02*
X116328571Y-92981342D01*
X116328571Y-92981342D02*
X116366666Y-92943247D01*
X116366666Y-92943247D02*
X116442857Y-92905152D01*
X135041666Y-62912295D02*
X135041666Y-63483723D01*
X135041666Y-63483723D02*
X135079761Y-63598009D01*
X135079761Y-63598009D02*
X135155952Y-63674200D01*
X135155952Y-63674200D02*
X135270237Y-63712295D01*
X135270237Y-63712295D02*
X135346428Y-63712295D01*
X134317856Y-63178961D02*
X134317856Y-63712295D01*
X134508332Y-62874200D02*
X134698809Y-63445628D01*
X134698809Y-63445628D02*
X134203570Y-63445628D01*
X132280951Y-86562295D02*
X132280951Y-85762295D01*
X131442856Y-86486104D02*
X131480952Y-86524200D01*
X131480952Y-86524200D02*
X131595237Y-86562295D01*
X131595237Y-86562295D02*
X131671428Y-86562295D01*
X131671428Y-86562295D02*
X131785714Y-86524200D01*
X131785714Y-86524200D02*
X131861904Y-86448009D01*
X131861904Y-86448009D02*
X131899999Y-86371819D01*
X131899999Y-86371819D02*
X131938095Y-86219438D01*
X131938095Y-86219438D02*
X131938095Y-86105152D01*
X131938095Y-86105152D02*
X131899999Y-85952771D01*
X131899999Y-85952771D02*
X131861904Y-85876580D01*
X131861904Y-85876580D02*
X131785714Y-85800390D01*
X131785714Y-85800390D02*
X131671428Y-85762295D01*
X131671428Y-85762295D02*
X131595237Y-85762295D01*
X131595237Y-85762295D02*
X131480952Y-85800390D01*
X131480952Y-85800390D02*
X131442856Y-85838485D01*
X131176190Y-85762295D02*
X130680952Y-85762295D01*
X130680952Y-85762295D02*
X130947618Y-86067057D01*
X130947618Y-86067057D02*
X130833333Y-86067057D01*
X130833333Y-86067057D02*
X130757142Y-86105152D01*
X130757142Y-86105152D02*
X130719047Y-86143247D01*
X130719047Y-86143247D02*
X130680952Y-86219438D01*
X130680952Y-86219438D02*
X130680952Y-86409914D01*
X130680952Y-86409914D02*
X130719047Y-86486104D01*
X130719047Y-86486104D02*
X130757142Y-86524200D01*
X130757142Y-86524200D02*
X130833333Y-86562295D01*
X130833333Y-86562295D02*
X131061904Y-86562295D01*
X131061904Y-86562295D02*
X131138095Y-86524200D01*
X131138095Y-86524200D02*
X131176190Y-86486104D01*
X104214285Y-64712295D02*
X104480952Y-64331342D01*
X104671428Y-64712295D02*
X104671428Y-63912295D01*
X104671428Y-63912295D02*
X104366666Y-63912295D01*
X104366666Y-63912295D02*
X104290476Y-63950390D01*
X104290476Y-63950390D02*
X104252381Y-63988485D01*
X104252381Y-63988485D02*
X104214285Y-64064676D01*
X104214285Y-64064676D02*
X104214285Y-64178961D01*
X104214285Y-64178961D02*
X104252381Y-64255152D01*
X104252381Y-64255152D02*
X104290476Y-64293247D01*
X104290476Y-64293247D02*
X104366666Y-64331342D01*
X104366666Y-64331342D02*
X104671428Y-64331342D01*
X103909524Y-63988485D02*
X103871428Y-63950390D01*
X103871428Y-63950390D02*
X103795238Y-63912295D01*
X103795238Y-63912295D02*
X103604762Y-63912295D01*
X103604762Y-63912295D02*
X103528571Y-63950390D01*
X103528571Y-63950390D02*
X103490476Y-63988485D01*
X103490476Y-63988485D02*
X103452381Y-64064676D01*
X103452381Y-64064676D02*
X103452381Y-64140866D01*
X103452381Y-64140866D02*
X103490476Y-64255152D01*
X103490476Y-64255152D02*
X103947619Y-64712295D01*
X103947619Y-64712295D02*
X103452381Y-64712295D01*
X103071428Y-64712295D02*
X102919047Y-64712295D01*
X102919047Y-64712295D02*
X102842857Y-64674200D01*
X102842857Y-64674200D02*
X102804761Y-64636104D01*
X102804761Y-64636104D02*
X102728571Y-64521819D01*
X102728571Y-64521819D02*
X102690476Y-64369438D01*
X102690476Y-64369438D02*
X102690476Y-64064676D01*
X102690476Y-64064676D02*
X102728571Y-63988485D01*
X102728571Y-63988485D02*
X102766666Y-63950390D01*
X102766666Y-63950390D02*
X102842857Y-63912295D01*
X102842857Y-63912295D02*
X102995238Y-63912295D01*
X102995238Y-63912295D02*
X103071428Y-63950390D01*
X103071428Y-63950390D02*
X103109523Y-63988485D01*
X103109523Y-63988485D02*
X103147619Y-64064676D01*
X103147619Y-64064676D02*
X103147619Y-64255152D01*
X103147619Y-64255152D02*
X103109523Y-64331342D01*
X103109523Y-64331342D02*
X103071428Y-64369438D01*
X103071428Y-64369438D02*
X102995238Y-64407533D01*
X102995238Y-64407533D02*
X102842857Y-64407533D01*
X102842857Y-64407533D02*
X102766666Y-64369438D01*
X102766666Y-64369438D02*
X102728571Y-64331342D01*
X102728571Y-64331342D02*
X102690476Y-64255152D01*
X129389285Y-82012295D02*
X129655952Y-81631342D01*
X129846428Y-82012295D02*
X129846428Y-81212295D01*
X129846428Y-81212295D02*
X129541666Y-81212295D01*
X129541666Y-81212295D02*
X129465476Y-81250390D01*
X129465476Y-81250390D02*
X129427381Y-81288485D01*
X129427381Y-81288485D02*
X129389285Y-81364676D01*
X129389285Y-81364676D02*
X129389285Y-81478961D01*
X129389285Y-81478961D02*
X129427381Y-81555152D01*
X129427381Y-81555152D02*
X129465476Y-81593247D01*
X129465476Y-81593247D02*
X129541666Y-81631342D01*
X129541666Y-81631342D02*
X129846428Y-81631342D01*
X128627381Y-82012295D02*
X129084524Y-82012295D01*
X128855952Y-82012295D02*
X128855952Y-81212295D01*
X128855952Y-81212295D02*
X128932143Y-81326580D01*
X128932143Y-81326580D02*
X129008333Y-81402771D01*
X129008333Y-81402771D02*
X129084524Y-81440866D01*
X127941666Y-81478961D02*
X127941666Y-82012295D01*
X128132142Y-81174200D02*
X128322619Y-81745628D01*
X128322619Y-81745628D02*
X127827380Y-81745628D01*
X118886104Y-66235714D02*
X118924200Y-66197618D01*
X118924200Y-66197618D02*
X118962295Y-66083333D01*
X118962295Y-66083333D02*
X118962295Y-66007142D01*
X118962295Y-66007142D02*
X118924200Y-65892856D01*
X118924200Y-65892856D02*
X118848009Y-65816666D01*
X118848009Y-65816666D02*
X118771819Y-65778571D01*
X118771819Y-65778571D02*
X118619438Y-65740475D01*
X118619438Y-65740475D02*
X118505152Y-65740475D01*
X118505152Y-65740475D02*
X118352771Y-65778571D01*
X118352771Y-65778571D02*
X118276580Y-65816666D01*
X118276580Y-65816666D02*
X118200390Y-65892856D01*
X118200390Y-65892856D02*
X118162295Y-66007142D01*
X118162295Y-66007142D02*
X118162295Y-66083333D01*
X118162295Y-66083333D02*
X118200390Y-66197618D01*
X118200390Y-66197618D02*
X118238485Y-66235714D01*
X118962295Y-66997618D02*
X118962295Y-66540475D01*
X118962295Y-66769047D02*
X118162295Y-66769047D01*
X118162295Y-66769047D02*
X118276580Y-66692856D01*
X118276580Y-66692856D02*
X118352771Y-66616666D01*
X118352771Y-66616666D02*
X118390866Y-66540475D01*
X118962295Y-67759523D02*
X118962295Y-67302380D01*
X118962295Y-67530952D02*
X118162295Y-67530952D01*
X118162295Y-67530952D02*
X118276580Y-67454761D01*
X118276580Y-67454761D02*
X118352771Y-67378571D01*
X118352771Y-67378571D02*
X118390866Y-67302380D01*
X126114285Y-81962295D02*
X126380952Y-81581342D01*
X126571428Y-81962295D02*
X126571428Y-81162295D01*
X126571428Y-81162295D02*
X126266666Y-81162295D01*
X126266666Y-81162295D02*
X126190476Y-81200390D01*
X126190476Y-81200390D02*
X126152381Y-81238485D01*
X126152381Y-81238485D02*
X126114285Y-81314676D01*
X126114285Y-81314676D02*
X126114285Y-81428961D01*
X126114285Y-81428961D02*
X126152381Y-81505152D01*
X126152381Y-81505152D02*
X126190476Y-81543247D01*
X126190476Y-81543247D02*
X126266666Y-81581342D01*
X126266666Y-81581342D02*
X126571428Y-81581342D01*
X125352381Y-81962295D02*
X125809524Y-81962295D01*
X125580952Y-81962295D02*
X125580952Y-81162295D01*
X125580952Y-81162295D02*
X125657143Y-81276580D01*
X125657143Y-81276580D02*
X125733333Y-81352771D01*
X125733333Y-81352771D02*
X125809524Y-81390866D01*
X124895238Y-81505152D02*
X124971428Y-81467057D01*
X124971428Y-81467057D02*
X125009523Y-81428961D01*
X125009523Y-81428961D02*
X125047619Y-81352771D01*
X125047619Y-81352771D02*
X125047619Y-81314676D01*
X125047619Y-81314676D02*
X125009523Y-81238485D01*
X125009523Y-81238485D02*
X124971428Y-81200390D01*
X124971428Y-81200390D02*
X124895238Y-81162295D01*
X124895238Y-81162295D02*
X124742857Y-81162295D01*
X124742857Y-81162295D02*
X124666666Y-81200390D01*
X124666666Y-81200390D02*
X124628571Y-81238485D01*
X124628571Y-81238485D02*
X124590476Y-81314676D01*
X124590476Y-81314676D02*
X124590476Y-81352771D01*
X124590476Y-81352771D02*
X124628571Y-81428961D01*
X124628571Y-81428961D02*
X124666666Y-81467057D01*
X124666666Y-81467057D02*
X124742857Y-81505152D01*
X124742857Y-81505152D02*
X124895238Y-81505152D01*
X124895238Y-81505152D02*
X124971428Y-81543247D01*
X124971428Y-81543247D02*
X125009523Y-81581342D01*
X125009523Y-81581342D02*
X125047619Y-81657533D01*
X125047619Y-81657533D02*
X125047619Y-81809914D01*
X125047619Y-81809914D02*
X125009523Y-81886104D01*
X125009523Y-81886104D02*
X124971428Y-81924200D01*
X124971428Y-81924200D02*
X124895238Y-81962295D01*
X124895238Y-81962295D02*
X124742857Y-81962295D01*
X124742857Y-81962295D02*
X124666666Y-81924200D01*
X124666666Y-81924200D02*
X124628571Y-81886104D01*
X124628571Y-81886104D02*
X124590476Y-81809914D01*
X124590476Y-81809914D02*
X124590476Y-81657533D01*
X124590476Y-81657533D02*
X124628571Y-81581342D01*
X124628571Y-81581342D02*
X124666666Y-81543247D01*
X124666666Y-81543247D02*
X124742857Y-81505152D01*
X130666666Y-99943247D02*
X130933332Y-99943247D01*
X130933332Y-100362295D02*
X130933332Y-99562295D01*
X130933332Y-99562295D02*
X130552380Y-99562295D01*
X129828571Y-100362295D02*
X130285714Y-100362295D01*
X130057142Y-100362295D02*
X130057142Y-99562295D01*
X130057142Y-99562295D02*
X130133333Y-99676580D01*
X130133333Y-99676580D02*
X130209523Y-99752771D01*
X130209523Y-99752771D02*
X130285714Y-99790866D01*
X123190475Y-88362295D02*
X123190475Y-87562295D01*
X123190475Y-87562295D02*
X122999999Y-87562295D01*
X122999999Y-87562295D02*
X122885713Y-87600390D01*
X122885713Y-87600390D02*
X122809523Y-87676580D01*
X122809523Y-87676580D02*
X122771428Y-87752771D01*
X122771428Y-87752771D02*
X122733332Y-87905152D01*
X122733332Y-87905152D02*
X122733332Y-88019438D01*
X122733332Y-88019438D02*
X122771428Y-88171819D01*
X122771428Y-88171819D02*
X122809523Y-88248009D01*
X122809523Y-88248009D02*
X122885713Y-88324200D01*
X122885713Y-88324200D02*
X122999999Y-88362295D01*
X122999999Y-88362295D02*
X123190475Y-88362295D01*
X122428571Y-87638485D02*
X122390475Y-87600390D01*
X122390475Y-87600390D02*
X122314285Y-87562295D01*
X122314285Y-87562295D02*
X122123809Y-87562295D01*
X122123809Y-87562295D02*
X122047618Y-87600390D01*
X122047618Y-87600390D02*
X122009523Y-87638485D01*
X122009523Y-87638485D02*
X121971428Y-87714676D01*
X121971428Y-87714676D02*
X121971428Y-87790866D01*
X121971428Y-87790866D02*
X122009523Y-87905152D01*
X122009523Y-87905152D02*
X122466666Y-88362295D01*
X122466666Y-88362295D02*
X121971428Y-88362295D01*
X114090475Y-69662295D02*
X114090475Y-68862295D01*
X114090475Y-68862295D02*
X113899999Y-68862295D01*
X113899999Y-68862295D02*
X113785713Y-68900390D01*
X113785713Y-68900390D02*
X113709523Y-68976580D01*
X113709523Y-68976580D02*
X113671428Y-69052771D01*
X113671428Y-69052771D02*
X113633332Y-69205152D01*
X113633332Y-69205152D02*
X113633332Y-69319438D01*
X113633332Y-69319438D02*
X113671428Y-69471819D01*
X113671428Y-69471819D02*
X113709523Y-69548009D01*
X113709523Y-69548009D02*
X113785713Y-69624200D01*
X113785713Y-69624200D02*
X113899999Y-69662295D01*
X113899999Y-69662295D02*
X114090475Y-69662295D01*
X112909523Y-68862295D02*
X113290475Y-68862295D01*
X113290475Y-68862295D02*
X113328571Y-69243247D01*
X113328571Y-69243247D02*
X113290475Y-69205152D01*
X113290475Y-69205152D02*
X113214285Y-69167057D01*
X113214285Y-69167057D02*
X113023809Y-69167057D01*
X113023809Y-69167057D02*
X112947618Y-69205152D01*
X112947618Y-69205152D02*
X112909523Y-69243247D01*
X112909523Y-69243247D02*
X112871428Y-69319438D01*
X112871428Y-69319438D02*
X112871428Y-69509914D01*
X112871428Y-69509914D02*
X112909523Y-69586104D01*
X112909523Y-69586104D02*
X112947618Y-69624200D01*
X112947618Y-69624200D02*
X113023809Y-69662295D01*
X113023809Y-69662295D02*
X113214285Y-69662295D01*
X113214285Y-69662295D02*
X113290475Y-69624200D01*
X113290475Y-69624200D02*
X113328571Y-69586104D01*
X121030951Y-81412295D02*
X121030951Y-80612295D01*
X120192856Y-81336104D02*
X120230952Y-81374200D01*
X120230952Y-81374200D02*
X120345237Y-81412295D01*
X120345237Y-81412295D02*
X120421428Y-81412295D01*
X120421428Y-81412295D02*
X120535714Y-81374200D01*
X120535714Y-81374200D02*
X120611904Y-81298009D01*
X120611904Y-81298009D02*
X120649999Y-81221819D01*
X120649999Y-81221819D02*
X120688095Y-81069438D01*
X120688095Y-81069438D02*
X120688095Y-80955152D01*
X120688095Y-80955152D02*
X120649999Y-80802771D01*
X120649999Y-80802771D02*
X120611904Y-80726580D01*
X120611904Y-80726580D02*
X120535714Y-80650390D01*
X120535714Y-80650390D02*
X120421428Y-80612295D01*
X120421428Y-80612295D02*
X120345237Y-80612295D01*
X120345237Y-80612295D02*
X120230952Y-80650390D01*
X120230952Y-80650390D02*
X120192856Y-80688485D01*
X119430952Y-81412295D02*
X119888095Y-81412295D01*
X119659523Y-81412295D02*
X119659523Y-80612295D01*
X119659523Y-80612295D02*
X119735714Y-80726580D01*
X119735714Y-80726580D02*
X119811904Y-80802771D01*
X119811904Y-80802771D02*
X119888095Y-80840866D01*
X116333332Y-84886104D02*
X116371428Y-84924200D01*
X116371428Y-84924200D02*
X116485713Y-84962295D01*
X116485713Y-84962295D02*
X116561904Y-84962295D01*
X116561904Y-84962295D02*
X116676190Y-84924200D01*
X116676190Y-84924200D02*
X116752380Y-84848009D01*
X116752380Y-84848009D02*
X116790475Y-84771819D01*
X116790475Y-84771819D02*
X116828571Y-84619438D01*
X116828571Y-84619438D02*
X116828571Y-84505152D01*
X116828571Y-84505152D02*
X116790475Y-84352771D01*
X116790475Y-84352771D02*
X116752380Y-84276580D01*
X116752380Y-84276580D02*
X116676190Y-84200390D01*
X116676190Y-84200390D02*
X116561904Y-84162295D01*
X116561904Y-84162295D02*
X116485713Y-84162295D01*
X116485713Y-84162295D02*
X116371428Y-84200390D01*
X116371428Y-84200390D02*
X116333332Y-84238485D01*
X115647618Y-84428961D02*
X115647618Y-84962295D01*
X115838094Y-84124200D02*
X116028571Y-84695628D01*
X116028571Y-84695628D02*
X115533332Y-84695628D01*
X129786104Y-75766667D02*
X129824200Y-75728571D01*
X129824200Y-75728571D02*
X129862295Y-75614286D01*
X129862295Y-75614286D02*
X129862295Y-75538095D01*
X129862295Y-75538095D02*
X129824200Y-75423809D01*
X129824200Y-75423809D02*
X129748009Y-75347619D01*
X129748009Y-75347619D02*
X129671819Y-75309524D01*
X129671819Y-75309524D02*
X129519438Y-75271428D01*
X129519438Y-75271428D02*
X129405152Y-75271428D01*
X129405152Y-75271428D02*
X129252771Y-75309524D01*
X129252771Y-75309524D02*
X129176580Y-75347619D01*
X129176580Y-75347619D02*
X129100390Y-75423809D01*
X129100390Y-75423809D02*
X129062295Y-75538095D01*
X129062295Y-75538095D02*
X129062295Y-75614286D01*
X129062295Y-75614286D02*
X129100390Y-75728571D01*
X129100390Y-75728571D02*
X129138485Y-75766667D01*
X129062295Y-76033333D02*
X129062295Y-76566667D01*
X129062295Y-76566667D02*
X129862295Y-76223809D01*
X124966104Y-60985714D02*
X125004200Y-60947618D01*
X125004200Y-60947618D02*
X125042295Y-60833333D01*
X125042295Y-60833333D02*
X125042295Y-60757142D01*
X125042295Y-60757142D02*
X125004200Y-60642856D01*
X125004200Y-60642856D02*
X124928009Y-60566666D01*
X124928009Y-60566666D02*
X124851819Y-60528571D01*
X124851819Y-60528571D02*
X124699438Y-60490475D01*
X124699438Y-60490475D02*
X124585152Y-60490475D01*
X124585152Y-60490475D02*
X124432771Y-60528571D01*
X124432771Y-60528571D02*
X124356580Y-60566666D01*
X124356580Y-60566666D02*
X124280390Y-60642856D01*
X124280390Y-60642856D02*
X124242295Y-60757142D01*
X124242295Y-60757142D02*
X124242295Y-60833333D01*
X124242295Y-60833333D02*
X124280390Y-60947618D01*
X124280390Y-60947618D02*
X124318485Y-60985714D01*
X124318485Y-61290475D02*
X124280390Y-61328571D01*
X124280390Y-61328571D02*
X124242295Y-61404761D01*
X124242295Y-61404761D02*
X124242295Y-61595237D01*
X124242295Y-61595237D02*
X124280390Y-61671428D01*
X124280390Y-61671428D02*
X124318485Y-61709523D01*
X124318485Y-61709523D02*
X124394676Y-61747618D01*
X124394676Y-61747618D02*
X124470866Y-61747618D01*
X124470866Y-61747618D02*
X124585152Y-61709523D01*
X124585152Y-61709523D02*
X125042295Y-61252380D01*
X125042295Y-61252380D02*
X125042295Y-61747618D01*
X124242295Y-62471428D02*
X124242295Y-62090476D01*
X124242295Y-62090476D02*
X124623247Y-62052380D01*
X124623247Y-62052380D02*
X124585152Y-62090476D01*
X124585152Y-62090476D02*
X124547057Y-62166666D01*
X124547057Y-62166666D02*
X124547057Y-62357142D01*
X124547057Y-62357142D02*
X124585152Y-62433333D01*
X124585152Y-62433333D02*
X124623247Y-62471428D01*
X124623247Y-62471428D02*
X124699438Y-62509523D01*
X124699438Y-62509523D02*
X124889914Y-62509523D01*
X124889914Y-62509523D02*
X124966104Y-62471428D01*
X124966104Y-62471428D02*
X125004200Y-62433333D01*
X125004200Y-62433333D02*
X125042295Y-62357142D01*
X125042295Y-62357142D02*
X125042295Y-62166666D01*
X125042295Y-62166666D02*
X125004200Y-62090476D01*
X125004200Y-62090476D02*
X124966104Y-62052380D01*
X102314285Y-60486104D02*
X102352381Y-60524200D01*
X102352381Y-60524200D02*
X102466666Y-60562295D01*
X102466666Y-60562295D02*
X102542857Y-60562295D01*
X102542857Y-60562295D02*
X102657143Y-60524200D01*
X102657143Y-60524200D02*
X102733333Y-60448009D01*
X102733333Y-60448009D02*
X102771428Y-60371819D01*
X102771428Y-60371819D02*
X102809524Y-60219438D01*
X102809524Y-60219438D02*
X102809524Y-60105152D01*
X102809524Y-60105152D02*
X102771428Y-59952771D01*
X102771428Y-59952771D02*
X102733333Y-59876580D01*
X102733333Y-59876580D02*
X102657143Y-59800390D01*
X102657143Y-59800390D02*
X102542857Y-59762295D01*
X102542857Y-59762295D02*
X102466666Y-59762295D01*
X102466666Y-59762295D02*
X102352381Y-59800390D01*
X102352381Y-59800390D02*
X102314285Y-59838485D01*
X102009524Y-59838485D02*
X101971428Y-59800390D01*
X101971428Y-59800390D02*
X101895238Y-59762295D01*
X101895238Y-59762295D02*
X101704762Y-59762295D01*
X101704762Y-59762295D02*
X101628571Y-59800390D01*
X101628571Y-59800390D02*
X101590476Y-59838485D01*
X101590476Y-59838485D02*
X101552381Y-59914676D01*
X101552381Y-59914676D02*
X101552381Y-59990866D01*
X101552381Y-59990866D02*
X101590476Y-60105152D01*
X101590476Y-60105152D02*
X102047619Y-60562295D01*
X102047619Y-60562295D02*
X101552381Y-60562295D01*
X100790476Y-60562295D02*
X101247619Y-60562295D01*
X101019047Y-60562295D02*
X101019047Y-59762295D01*
X101019047Y-59762295D02*
X101095238Y-59876580D01*
X101095238Y-59876580D02*
X101171428Y-59952771D01*
X101171428Y-59952771D02*
X101247619Y-59990866D01*
X129862295Y-77785714D02*
X129481342Y-77519047D01*
X129862295Y-77328571D02*
X129062295Y-77328571D01*
X129062295Y-77328571D02*
X129062295Y-77633333D01*
X129062295Y-77633333D02*
X129100390Y-77709523D01*
X129100390Y-77709523D02*
X129138485Y-77747618D01*
X129138485Y-77747618D02*
X129214676Y-77785714D01*
X129214676Y-77785714D02*
X129328961Y-77785714D01*
X129328961Y-77785714D02*
X129405152Y-77747618D01*
X129405152Y-77747618D02*
X129443247Y-77709523D01*
X129443247Y-77709523D02*
X129481342Y-77633333D01*
X129481342Y-77633333D02*
X129481342Y-77328571D01*
X129862295Y-78547618D02*
X129862295Y-78090475D01*
X129862295Y-78319047D02*
X129062295Y-78319047D01*
X129062295Y-78319047D02*
X129176580Y-78242856D01*
X129176580Y-78242856D02*
X129252771Y-78166666D01*
X129252771Y-78166666D02*
X129290866Y-78090475D01*
X129062295Y-79271428D02*
X129062295Y-78890476D01*
X129062295Y-78890476D02*
X129443247Y-78852380D01*
X129443247Y-78852380D02*
X129405152Y-78890476D01*
X129405152Y-78890476D02*
X129367057Y-78966666D01*
X129367057Y-78966666D02*
X129367057Y-79157142D01*
X129367057Y-79157142D02*
X129405152Y-79233333D01*
X129405152Y-79233333D02*
X129443247Y-79271428D01*
X129443247Y-79271428D02*
X129519438Y-79309523D01*
X129519438Y-79309523D02*
X129709914Y-79309523D01*
X129709914Y-79309523D02*
X129786104Y-79271428D01*
X129786104Y-79271428D02*
X129824200Y-79233333D01*
X129824200Y-79233333D02*
X129862295Y-79157142D01*
X129862295Y-79157142D02*
X129862295Y-78966666D01*
X129862295Y-78966666D02*
X129824200Y-78890476D01*
X129824200Y-78890476D02*
X129786104Y-78852380D01*
X130633332Y-89962295D02*
X130899999Y-89581342D01*
X131090475Y-89962295D02*
X131090475Y-89162295D01*
X131090475Y-89162295D02*
X130785713Y-89162295D01*
X130785713Y-89162295D02*
X130709523Y-89200390D01*
X130709523Y-89200390D02*
X130671428Y-89238485D01*
X130671428Y-89238485D02*
X130633332Y-89314676D01*
X130633332Y-89314676D02*
X130633332Y-89428961D01*
X130633332Y-89428961D02*
X130671428Y-89505152D01*
X130671428Y-89505152D02*
X130709523Y-89543247D01*
X130709523Y-89543247D02*
X130785713Y-89581342D01*
X130785713Y-89581342D02*
X131090475Y-89581342D01*
X129871428Y-89962295D02*
X130328571Y-89962295D01*
X130099999Y-89962295D02*
X130099999Y-89162295D01*
X130099999Y-89162295D02*
X130176190Y-89276580D01*
X130176190Y-89276580D02*
X130252380Y-89352771D01*
X130252380Y-89352771D02*
X130328571Y-89390866D01*
X116886104Y-66235714D02*
X116924200Y-66197618D01*
X116924200Y-66197618D02*
X116962295Y-66083333D01*
X116962295Y-66083333D02*
X116962295Y-66007142D01*
X116962295Y-66007142D02*
X116924200Y-65892856D01*
X116924200Y-65892856D02*
X116848009Y-65816666D01*
X116848009Y-65816666D02*
X116771819Y-65778571D01*
X116771819Y-65778571D02*
X116619438Y-65740475D01*
X116619438Y-65740475D02*
X116505152Y-65740475D01*
X116505152Y-65740475D02*
X116352771Y-65778571D01*
X116352771Y-65778571D02*
X116276580Y-65816666D01*
X116276580Y-65816666D02*
X116200390Y-65892856D01*
X116200390Y-65892856D02*
X116162295Y-66007142D01*
X116162295Y-66007142D02*
X116162295Y-66083333D01*
X116162295Y-66083333D02*
X116200390Y-66197618D01*
X116200390Y-66197618D02*
X116238485Y-66235714D01*
X116962295Y-66997618D02*
X116962295Y-66540475D01*
X116962295Y-66769047D02*
X116162295Y-66769047D01*
X116162295Y-66769047D02*
X116276580Y-66692856D01*
X116276580Y-66692856D02*
X116352771Y-66616666D01*
X116352771Y-66616666D02*
X116390866Y-66540475D01*
X116238485Y-67302380D02*
X116200390Y-67340476D01*
X116200390Y-67340476D02*
X116162295Y-67416666D01*
X116162295Y-67416666D02*
X116162295Y-67607142D01*
X116162295Y-67607142D02*
X116200390Y-67683333D01*
X116200390Y-67683333D02*
X116238485Y-67721428D01*
X116238485Y-67721428D02*
X116314676Y-67759523D01*
X116314676Y-67759523D02*
X116390866Y-67759523D01*
X116390866Y-67759523D02*
X116505152Y-67721428D01*
X116505152Y-67721428D02*
X116962295Y-67264285D01*
X116962295Y-67264285D02*
X116962295Y-67759523D01*
X107936104Y-57935714D02*
X107974200Y-57897618D01*
X107974200Y-57897618D02*
X108012295Y-57783333D01*
X108012295Y-57783333D02*
X108012295Y-57707142D01*
X108012295Y-57707142D02*
X107974200Y-57592856D01*
X107974200Y-57592856D02*
X107898009Y-57516666D01*
X107898009Y-57516666D02*
X107821819Y-57478571D01*
X107821819Y-57478571D02*
X107669438Y-57440475D01*
X107669438Y-57440475D02*
X107555152Y-57440475D01*
X107555152Y-57440475D02*
X107402771Y-57478571D01*
X107402771Y-57478571D02*
X107326580Y-57516666D01*
X107326580Y-57516666D02*
X107250390Y-57592856D01*
X107250390Y-57592856D02*
X107212295Y-57707142D01*
X107212295Y-57707142D02*
X107212295Y-57783333D01*
X107212295Y-57783333D02*
X107250390Y-57897618D01*
X107250390Y-57897618D02*
X107288485Y-57935714D01*
X107288485Y-58240475D02*
X107250390Y-58278571D01*
X107250390Y-58278571D02*
X107212295Y-58354761D01*
X107212295Y-58354761D02*
X107212295Y-58545237D01*
X107212295Y-58545237D02*
X107250390Y-58621428D01*
X107250390Y-58621428D02*
X107288485Y-58659523D01*
X107288485Y-58659523D02*
X107364676Y-58697618D01*
X107364676Y-58697618D02*
X107440866Y-58697618D01*
X107440866Y-58697618D02*
X107555152Y-58659523D01*
X107555152Y-58659523D02*
X108012295Y-58202380D01*
X108012295Y-58202380D02*
X108012295Y-58697618D01*
X107478961Y-59383333D02*
X108012295Y-59383333D01*
X107174200Y-59192857D02*
X107745628Y-59002380D01*
X107745628Y-59002380D02*
X107745628Y-59497619D01*
X128386104Y-83366667D02*
X128424200Y-83328571D01*
X128424200Y-83328571D02*
X128462295Y-83214286D01*
X128462295Y-83214286D02*
X128462295Y-83138095D01*
X128462295Y-83138095D02*
X128424200Y-83023809D01*
X128424200Y-83023809D02*
X128348009Y-82947619D01*
X128348009Y-82947619D02*
X128271819Y-82909524D01*
X128271819Y-82909524D02*
X128119438Y-82871428D01*
X128119438Y-82871428D02*
X128005152Y-82871428D01*
X128005152Y-82871428D02*
X127852771Y-82909524D01*
X127852771Y-82909524D02*
X127776580Y-82947619D01*
X127776580Y-82947619D02*
X127700390Y-83023809D01*
X127700390Y-83023809D02*
X127662295Y-83138095D01*
X127662295Y-83138095D02*
X127662295Y-83214286D01*
X127662295Y-83214286D02*
X127700390Y-83328571D01*
X127700390Y-83328571D02*
X127738485Y-83366667D01*
X127738485Y-83671428D02*
X127700390Y-83709524D01*
X127700390Y-83709524D02*
X127662295Y-83785714D01*
X127662295Y-83785714D02*
X127662295Y-83976190D01*
X127662295Y-83976190D02*
X127700390Y-84052381D01*
X127700390Y-84052381D02*
X127738485Y-84090476D01*
X127738485Y-84090476D02*
X127814676Y-84128571D01*
X127814676Y-84128571D02*
X127890866Y-84128571D01*
X127890866Y-84128571D02*
X128005152Y-84090476D01*
X128005152Y-84090476D02*
X128462295Y-83633333D01*
X128462295Y-83633333D02*
X128462295Y-84128571D01*
X127014285Y-106286104D02*
X127052381Y-106324200D01*
X127052381Y-106324200D02*
X127166666Y-106362295D01*
X127166666Y-106362295D02*
X127242857Y-106362295D01*
X127242857Y-106362295D02*
X127357143Y-106324200D01*
X127357143Y-106324200D02*
X127433333Y-106248009D01*
X127433333Y-106248009D02*
X127471428Y-106171819D01*
X127471428Y-106171819D02*
X127509524Y-106019438D01*
X127509524Y-106019438D02*
X127509524Y-105905152D01*
X127509524Y-105905152D02*
X127471428Y-105752771D01*
X127471428Y-105752771D02*
X127433333Y-105676580D01*
X127433333Y-105676580D02*
X127357143Y-105600390D01*
X127357143Y-105600390D02*
X127242857Y-105562295D01*
X127242857Y-105562295D02*
X127166666Y-105562295D01*
X127166666Y-105562295D02*
X127052381Y-105600390D01*
X127052381Y-105600390D02*
X127014285Y-105638485D01*
X126709524Y-105638485D02*
X126671428Y-105600390D01*
X126671428Y-105600390D02*
X126595238Y-105562295D01*
X126595238Y-105562295D02*
X126404762Y-105562295D01*
X126404762Y-105562295D02*
X126328571Y-105600390D01*
X126328571Y-105600390D02*
X126290476Y-105638485D01*
X126290476Y-105638485D02*
X126252381Y-105714676D01*
X126252381Y-105714676D02*
X126252381Y-105790866D01*
X126252381Y-105790866D02*
X126290476Y-105905152D01*
X126290476Y-105905152D02*
X126747619Y-106362295D01*
X126747619Y-106362295D02*
X126252381Y-106362295D01*
X125985714Y-105562295D02*
X125490476Y-105562295D01*
X125490476Y-105562295D02*
X125757142Y-105867057D01*
X125757142Y-105867057D02*
X125642857Y-105867057D01*
X125642857Y-105867057D02*
X125566666Y-105905152D01*
X125566666Y-105905152D02*
X125528571Y-105943247D01*
X125528571Y-105943247D02*
X125490476Y-106019438D01*
X125490476Y-106019438D02*
X125490476Y-106209914D01*
X125490476Y-106209914D02*
X125528571Y-106286104D01*
X125528571Y-106286104D02*
X125566666Y-106324200D01*
X125566666Y-106324200D02*
X125642857Y-106362295D01*
X125642857Y-106362295D02*
X125871428Y-106362295D01*
X125871428Y-106362295D02*
X125947619Y-106324200D01*
X125947619Y-106324200D02*
X125985714Y-106286104D01*
X112639285Y-65412295D02*
X112905952Y-65031342D01*
X113096428Y-65412295D02*
X113096428Y-64612295D01*
X113096428Y-64612295D02*
X112791666Y-64612295D01*
X112791666Y-64612295D02*
X112715476Y-64650390D01*
X112715476Y-64650390D02*
X112677381Y-64688485D01*
X112677381Y-64688485D02*
X112639285Y-64764676D01*
X112639285Y-64764676D02*
X112639285Y-64878961D01*
X112639285Y-64878961D02*
X112677381Y-64955152D01*
X112677381Y-64955152D02*
X112715476Y-64993247D01*
X112715476Y-64993247D02*
X112791666Y-65031342D01*
X112791666Y-65031342D02*
X113096428Y-65031342D01*
X112334524Y-64688485D02*
X112296428Y-64650390D01*
X112296428Y-64650390D02*
X112220238Y-64612295D01*
X112220238Y-64612295D02*
X112029762Y-64612295D01*
X112029762Y-64612295D02*
X111953571Y-64650390D01*
X111953571Y-64650390D02*
X111915476Y-64688485D01*
X111915476Y-64688485D02*
X111877381Y-64764676D01*
X111877381Y-64764676D02*
X111877381Y-64840866D01*
X111877381Y-64840866D02*
X111915476Y-64955152D01*
X111915476Y-64955152D02*
X112372619Y-65412295D01*
X112372619Y-65412295D02*
X111877381Y-65412295D01*
X111610714Y-64612295D02*
X111077380Y-64612295D01*
X111077380Y-64612295D02*
X111420238Y-65412295D01*
X114090475Y-70862295D02*
X114090475Y-70062295D01*
X114090475Y-70062295D02*
X113899999Y-70062295D01*
X113899999Y-70062295D02*
X113785713Y-70100390D01*
X113785713Y-70100390D02*
X113709523Y-70176580D01*
X113709523Y-70176580D02*
X113671428Y-70252771D01*
X113671428Y-70252771D02*
X113633332Y-70405152D01*
X113633332Y-70405152D02*
X113633332Y-70519438D01*
X113633332Y-70519438D02*
X113671428Y-70671819D01*
X113671428Y-70671819D02*
X113709523Y-70748009D01*
X113709523Y-70748009D02*
X113785713Y-70824200D01*
X113785713Y-70824200D02*
X113899999Y-70862295D01*
X113899999Y-70862295D02*
X114090475Y-70862295D01*
X112947618Y-70062295D02*
X113099999Y-70062295D01*
X113099999Y-70062295D02*
X113176190Y-70100390D01*
X113176190Y-70100390D02*
X113214285Y-70138485D01*
X113214285Y-70138485D02*
X113290475Y-70252771D01*
X113290475Y-70252771D02*
X113328571Y-70405152D01*
X113328571Y-70405152D02*
X113328571Y-70709914D01*
X113328571Y-70709914D02*
X113290475Y-70786104D01*
X113290475Y-70786104D02*
X113252380Y-70824200D01*
X113252380Y-70824200D02*
X113176190Y-70862295D01*
X113176190Y-70862295D02*
X113023809Y-70862295D01*
X113023809Y-70862295D02*
X112947618Y-70824200D01*
X112947618Y-70824200D02*
X112909523Y-70786104D01*
X112909523Y-70786104D02*
X112871428Y-70709914D01*
X112871428Y-70709914D02*
X112871428Y-70519438D01*
X112871428Y-70519438D02*
X112909523Y-70443247D01*
X112909523Y-70443247D02*
X112947618Y-70405152D01*
X112947618Y-70405152D02*
X113023809Y-70367057D01*
X113023809Y-70367057D02*
X113176190Y-70367057D01*
X113176190Y-70367057D02*
X113252380Y-70405152D01*
X113252380Y-70405152D02*
X113290475Y-70443247D01*
X113290475Y-70443247D02*
X113328571Y-70519438D01*
X135314285Y-91186104D02*
X135352381Y-91224200D01*
X135352381Y-91224200D02*
X135466666Y-91262295D01*
X135466666Y-91262295D02*
X135542857Y-91262295D01*
X135542857Y-91262295D02*
X135657143Y-91224200D01*
X135657143Y-91224200D02*
X135733333Y-91148009D01*
X135733333Y-91148009D02*
X135771428Y-91071819D01*
X135771428Y-91071819D02*
X135809524Y-90919438D01*
X135809524Y-90919438D02*
X135809524Y-90805152D01*
X135809524Y-90805152D02*
X135771428Y-90652771D01*
X135771428Y-90652771D02*
X135733333Y-90576580D01*
X135733333Y-90576580D02*
X135657143Y-90500390D01*
X135657143Y-90500390D02*
X135542857Y-90462295D01*
X135542857Y-90462295D02*
X135466666Y-90462295D01*
X135466666Y-90462295D02*
X135352381Y-90500390D01*
X135352381Y-90500390D02*
X135314285Y-90538485D01*
X135009524Y-90538485D02*
X134971428Y-90500390D01*
X134971428Y-90500390D02*
X134895238Y-90462295D01*
X134895238Y-90462295D02*
X134704762Y-90462295D01*
X134704762Y-90462295D02*
X134628571Y-90500390D01*
X134628571Y-90500390D02*
X134590476Y-90538485D01*
X134590476Y-90538485D02*
X134552381Y-90614676D01*
X134552381Y-90614676D02*
X134552381Y-90690866D01*
X134552381Y-90690866D02*
X134590476Y-90805152D01*
X134590476Y-90805152D02*
X135047619Y-91262295D01*
X135047619Y-91262295D02*
X134552381Y-91262295D01*
X134057142Y-90462295D02*
X133980952Y-90462295D01*
X133980952Y-90462295D02*
X133904761Y-90500390D01*
X133904761Y-90500390D02*
X133866666Y-90538485D01*
X133866666Y-90538485D02*
X133828571Y-90614676D01*
X133828571Y-90614676D02*
X133790476Y-90767057D01*
X133790476Y-90767057D02*
X133790476Y-90957533D01*
X133790476Y-90957533D02*
X133828571Y-91109914D01*
X133828571Y-91109914D02*
X133866666Y-91186104D01*
X133866666Y-91186104D02*
X133904761Y-91224200D01*
X133904761Y-91224200D02*
X133980952Y-91262295D01*
X133980952Y-91262295D02*
X134057142Y-91262295D01*
X134057142Y-91262295D02*
X134133333Y-91224200D01*
X134133333Y-91224200D02*
X134171428Y-91186104D01*
X134171428Y-91186104D02*
X134209523Y-91109914D01*
X134209523Y-91109914D02*
X134247619Y-90957533D01*
X134247619Y-90957533D02*
X134247619Y-90767057D01*
X134247619Y-90767057D02*
X134209523Y-90614676D01*
X134209523Y-90614676D02*
X134171428Y-90538485D01*
X134171428Y-90538485D02*
X134133333Y-90500390D01*
X134133333Y-90500390D02*
X134057142Y-90462295D01*
X104886104Y-57935714D02*
X104924200Y-57897618D01*
X104924200Y-57897618D02*
X104962295Y-57783333D01*
X104962295Y-57783333D02*
X104962295Y-57707142D01*
X104962295Y-57707142D02*
X104924200Y-57592856D01*
X104924200Y-57592856D02*
X104848009Y-57516666D01*
X104848009Y-57516666D02*
X104771819Y-57478571D01*
X104771819Y-57478571D02*
X104619438Y-57440475D01*
X104619438Y-57440475D02*
X104505152Y-57440475D01*
X104505152Y-57440475D02*
X104352771Y-57478571D01*
X104352771Y-57478571D02*
X104276580Y-57516666D01*
X104276580Y-57516666D02*
X104200390Y-57592856D01*
X104200390Y-57592856D02*
X104162295Y-57707142D01*
X104162295Y-57707142D02*
X104162295Y-57783333D01*
X104162295Y-57783333D02*
X104200390Y-57897618D01*
X104200390Y-57897618D02*
X104238485Y-57935714D01*
X104238485Y-58240475D02*
X104200390Y-58278571D01*
X104200390Y-58278571D02*
X104162295Y-58354761D01*
X104162295Y-58354761D02*
X104162295Y-58545237D01*
X104162295Y-58545237D02*
X104200390Y-58621428D01*
X104200390Y-58621428D02*
X104238485Y-58659523D01*
X104238485Y-58659523D02*
X104314676Y-58697618D01*
X104314676Y-58697618D02*
X104390866Y-58697618D01*
X104390866Y-58697618D02*
X104505152Y-58659523D01*
X104505152Y-58659523D02*
X104962295Y-58202380D01*
X104962295Y-58202380D02*
X104962295Y-58697618D01*
X104162295Y-59383333D02*
X104162295Y-59230952D01*
X104162295Y-59230952D02*
X104200390Y-59154761D01*
X104200390Y-59154761D02*
X104238485Y-59116666D01*
X104238485Y-59116666D02*
X104352771Y-59040476D01*
X104352771Y-59040476D02*
X104505152Y-59002380D01*
X104505152Y-59002380D02*
X104809914Y-59002380D01*
X104809914Y-59002380D02*
X104886104Y-59040476D01*
X104886104Y-59040476D02*
X104924200Y-59078571D01*
X104924200Y-59078571D02*
X104962295Y-59154761D01*
X104962295Y-59154761D02*
X104962295Y-59307142D01*
X104962295Y-59307142D02*
X104924200Y-59383333D01*
X104924200Y-59383333D02*
X104886104Y-59421428D01*
X104886104Y-59421428D02*
X104809914Y-59459523D01*
X104809914Y-59459523D02*
X104619438Y-59459523D01*
X104619438Y-59459523D02*
X104543247Y-59421428D01*
X104543247Y-59421428D02*
X104505152Y-59383333D01*
X104505152Y-59383333D02*
X104467057Y-59307142D01*
X104467057Y-59307142D02*
X104467057Y-59154761D01*
X104467057Y-59154761D02*
X104505152Y-59078571D01*
X104505152Y-59078571D02*
X104543247Y-59040476D01*
X104543247Y-59040476D02*
X104619438Y-59002380D01*
X114486104Y-81385714D02*
X114524200Y-81347618D01*
X114524200Y-81347618D02*
X114562295Y-81233333D01*
X114562295Y-81233333D02*
X114562295Y-81157142D01*
X114562295Y-81157142D02*
X114524200Y-81042856D01*
X114524200Y-81042856D02*
X114448009Y-80966666D01*
X114448009Y-80966666D02*
X114371819Y-80928571D01*
X114371819Y-80928571D02*
X114219438Y-80890475D01*
X114219438Y-80890475D02*
X114105152Y-80890475D01*
X114105152Y-80890475D02*
X113952771Y-80928571D01*
X113952771Y-80928571D02*
X113876580Y-80966666D01*
X113876580Y-80966666D02*
X113800390Y-81042856D01*
X113800390Y-81042856D02*
X113762295Y-81157142D01*
X113762295Y-81157142D02*
X113762295Y-81233333D01*
X113762295Y-81233333D02*
X113800390Y-81347618D01*
X113800390Y-81347618D02*
X113838485Y-81385714D01*
X114562295Y-82147618D02*
X114562295Y-81690475D01*
X114562295Y-81919047D02*
X113762295Y-81919047D01*
X113762295Y-81919047D02*
X113876580Y-81842856D01*
X113876580Y-81842856D02*
X113952771Y-81766666D01*
X113952771Y-81766666D02*
X113990866Y-81690475D01*
X113762295Y-82871428D02*
X113762295Y-82490476D01*
X113762295Y-82490476D02*
X114143247Y-82452380D01*
X114143247Y-82452380D02*
X114105152Y-82490476D01*
X114105152Y-82490476D02*
X114067057Y-82566666D01*
X114067057Y-82566666D02*
X114067057Y-82757142D01*
X114067057Y-82757142D02*
X114105152Y-82833333D01*
X114105152Y-82833333D02*
X114143247Y-82871428D01*
X114143247Y-82871428D02*
X114219438Y-82909523D01*
X114219438Y-82909523D02*
X114409914Y-82909523D01*
X114409914Y-82909523D02*
X114486104Y-82871428D01*
X114486104Y-82871428D02*
X114524200Y-82833333D01*
X114524200Y-82833333D02*
X114562295Y-82757142D01*
X114562295Y-82757142D02*
X114562295Y-82566666D01*
X114562295Y-82566666D02*
X114524200Y-82490476D01*
X114524200Y-82490476D02*
X114486104Y-82452380D01*
D10*
%TO.C,D3*%
X109400000Y-69000000D02*
X109400000Y-70050000D01*
X112350000Y-70400000D02*
X109450000Y-70400000D01*
X109450000Y-70400000D02*
X109450000Y-70850000D01*
X112350000Y-70850000D02*
X112350000Y-70400000D01*
X109450000Y-70850000D02*
X112350000Y-70850000D01*
D13*
%TO.C,J1*%
X97900000Y-65465000D02*
X104900000Y-65465000D01*
X104900000Y-65465000D02*
X104900000Y-92135000D01*
X104900000Y-92135000D02*
X97900000Y-92135000D01*
X97900000Y-92135000D02*
X97900000Y-65465000D01*
D10*
%TO.C,R10*%
X109300000Y-81610000D02*
X109300000Y-84590000D01*
D13*
%TO.C,R28*%
X107235000Y-61022936D02*
X107235000Y-61477064D01*
X105765000Y-61022936D02*
X105765000Y-61477064D01*
%TO.C,C1*%
X125765000Y-83761252D02*
X125765000Y-83238748D01*
X127235000Y-83761252D02*
X127235000Y-83238748D01*
%TO.C,TP6*%
X123425000Y-76475000D02*
G75*
G03*
X123425000Y-76475000I-700000J0D01*
G01*
D14*
%TO.C,U2*%
X110140000Y-92212500D02*
X110140000Y-86062500D01*
D10*
X110895000Y-84937500D02*
X110895000Y-84937500D01*
X110895000Y-85137500D02*
X110895000Y-85137500D01*
D14*
X115460000Y-92212500D02*
X115460000Y-86062500D01*
D10*
X110895000Y-85137500D02*
G75*
G03*
X110895000Y-84937500I0J100000D01*
G01*
X110895000Y-84937500D02*
G75*
G03*
X110895000Y-85137500I0J-100000D01*
G01*
D13*
%TO.C,TP1*%
X133900000Y-91800000D02*
G75*
G03*
X133900000Y-91800000I-700000J0D01*
G01*
%TO.C,R6*%
X108985000Y-70072936D02*
X108985000Y-70527064D01*
X107515000Y-70072936D02*
X107515000Y-70527064D01*
%TO.C,R21*%
X108985000Y-77272936D02*
X108985000Y-77727064D01*
X107515000Y-77272936D02*
X107515000Y-77727064D01*
%TO.C,R19*%
X105515000Y-74127064D02*
X105515000Y-73672936D01*
X106985000Y-74127064D02*
X106985000Y-73672936D01*
%TO.C,C3*%
X123261252Y-90235000D02*
X122738748Y-90235000D01*
X123261252Y-88765000D02*
X122738748Y-88765000D01*
D15*
%TO.C,IC4*%
X113175000Y-76450000D02*
G75*
G03*
X113175000Y-76450000I-125000J0D01*
G01*
D10*
%TO.C,L1*%
X113100000Y-57950000D02*
X120400000Y-57950000D01*
X120400000Y-64550000D02*
X113100000Y-64550000D01*
D13*
%TO.C,TP2*%
X130700000Y-74250000D02*
G75*
G03*
X130700000Y-74250000I-700000J0D01*
G01*
%TO.C,C17*%
X118840000Y-90961252D02*
X118840000Y-89538748D01*
X120660000Y-90961252D02*
X120660000Y-89538748D01*
%TO.C,R20*%
X105515000Y-77727064D02*
X105515000Y-77272936D01*
X106985000Y-77727064D02*
X106985000Y-77272936D01*
%TO.C,C5*%
X133988748Y-82515000D02*
X134511252Y-82515000D01*
X133988748Y-83985000D02*
X134511252Y-83985000D01*
%TO.C,C14*%
X100635000Y-62238748D02*
X100635000Y-62761252D01*
X99165000Y-62238748D02*
X99165000Y-62761252D01*
%TO.C,C16*%
X117235000Y-78988748D02*
X117235000Y-79511252D01*
X115765000Y-78988748D02*
X115765000Y-79511252D01*
%TO.C,R2*%
X122772936Y-90765000D02*
X123227064Y-90765000D01*
X122772936Y-92235000D02*
X123227064Y-92235000D01*
%TO.C,R3*%
X126272936Y-90765000D02*
X126727064Y-90765000D01*
X126272936Y-92235000D02*
X126727064Y-92235000D01*
D10*
%TO.C,D12*%
X128325000Y-85400000D02*
X127275000Y-85400000D01*
X126925000Y-88350000D02*
X126925000Y-85450000D01*
X126925000Y-85450000D02*
X126475000Y-85450000D01*
X126475000Y-88350000D02*
X126925000Y-88350000D01*
X126475000Y-85450000D02*
X126475000Y-88350000D01*
%TO.C,D1*%
X109400000Y-65625000D02*
X109400000Y-66675000D01*
X112350000Y-67025000D02*
X109450000Y-67025000D01*
X109450000Y-67025000D02*
X109450000Y-67475000D01*
X112350000Y-67475000D02*
X112350000Y-67025000D01*
X109450000Y-67475000D02*
X112350000Y-67475000D01*
D13*
%TO.C,R8*%
X105515000Y-66977064D02*
X105515000Y-66522936D01*
X106985000Y-66977064D02*
X106985000Y-66522936D01*
%TO.C,C18*%
X116340000Y-90961252D02*
X116340000Y-89538748D01*
X118160000Y-90961252D02*
X118160000Y-89538748D01*
%TO.C,R22*%
X107515000Y-74127064D02*
X107515000Y-73672936D01*
X108985000Y-74127064D02*
X108985000Y-73672936D01*
%TO.C,J4*%
X132895000Y-64030000D02*
X135555000Y-64030000D01*
X132895000Y-79330000D02*
X132895000Y-64030000D01*
X132895000Y-79330000D02*
X135555000Y-79330000D01*
X134225000Y-81930000D02*
X135555000Y-81930000D01*
X135555000Y-79330000D02*
X135555000Y-64030000D01*
X135555000Y-81930000D02*
X135555000Y-80600000D01*
D10*
%TO.C,IC3*%
X132750000Y-84575000D02*
X132750000Y-85825000D01*
X135710000Y-86175000D02*
X132790000Y-86175000D01*
X132790000Y-86175000D02*
X132790000Y-86325000D01*
X135710000Y-86325000D02*
X135710000Y-86175000D01*
X132790000Y-86325000D02*
X135710000Y-86325000D01*
D13*
%TO.C,R29*%
X106527064Y-64535000D02*
X106072936Y-64535000D01*
X106527064Y-63065000D02*
X106072936Y-63065000D01*
%TO.C,R14*%
X128647936Y-79565000D02*
X129102064Y-79565000D01*
X128647936Y-81035000D02*
X129102064Y-81035000D01*
%TO.C,R26*%
X120015000Y-78727064D02*
X120015000Y-78272936D01*
X121485000Y-78727064D02*
X121485000Y-78272936D01*
%TO.C,TP9*%
X122700000Y-53750000D02*
G75*
G03*
X122700000Y-53750000I-700000J0D01*
G01*
%TO.C,R23*%
X121485000Y-74772936D02*
X121485000Y-75227064D01*
X120015000Y-74772936D02*
X120015000Y-75227064D01*
%TO.C,R5*%
X107515000Y-66977064D02*
X107515000Y-66522936D01*
X108985000Y-66977064D02*
X108985000Y-66522936D01*
%TO.C,C11*%
X119335000Y-69738748D02*
X119335000Y-70261252D01*
X117865000Y-69738748D02*
X117865000Y-70261252D01*
%TO.C,R18*%
X125272936Y-79565000D02*
X125727064Y-79565000D01*
X125272936Y-81035000D02*
X125727064Y-81035000D01*
%TO.C,TP5*%
X125400000Y-77700000D02*
G75*
G03*
X125400000Y-77700000I-700000J0D01*
G01*
%TO.C,TP7*%
X124950000Y-53750000D02*
G75*
G03*
X124950000Y-53750000I-700000J0D01*
G01*
D10*
%TO.C,IC6*%
X111625000Y-59650000D02*
X110375000Y-59650000D01*
X110025000Y-62700000D02*
X110025000Y-59800000D01*
X110025000Y-59800000D02*
X109475000Y-59800000D01*
X109475000Y-62700000D02*
X110025000Y-62700000D01*
X109475000Y-59800000D02*
X109475000Y-62700000D01*
D16*
%TO.C,F1*%
X129120000Y-100365000D02*
X109310000Y-100365000D01*
X129120000Y-93635000D02*
X129120000Y-100365000D01*
X109310000Y-100365000D02*
X109310000Y-93635000D01*
X109310000Y-93635000D02*
X129120000Y-93635000D01*
D14*
%TO.C,D2*%
X120000000Y-86250000D02*
X120000000Y-86250000D01*
X120100000Y-86250000D02*
X120100000Y-86250000D01*
D10*
X122200000Y-85400000D02*
X123000000Y-85400000D01*
X122200000Y-87100000D02*
X123000000Y-87100000D01*
D14*
X120100000Y-86250000D02*
G75*
G03*
X120000000Y-86250000I-50000J0D01*
G01*
X120000000Y-86250000D02*
G75*
G03*
X120100000Y-86250000I50000J0D01*
G01*
D10*
%TO.C,D5*%
X109400000Y-72400000D02*
X109400000Y-73450000D01*
X112350000Y-73800000D02*
X109450000Y-73800000D01*
X109450000Y-73800000D02*
X109450000Y-74250000D01*
X112350000Y-74250000D02*
X112350000Y-73800000D01*
X109450000Y-74250000D02*
X112350000Y-74250000D01*
%TO.C,IC1*%
X123175000Y-81750000D02*
X121750000Y-81750000D01*
D13*
%TO.C,C4*%
X117388748Y-85390000D02*
X118811252Y-85390000D01*
X117388748Y-87210000D02*
X118811252Y-87210000D01*
%TO.C,R24*%
X119485000Y-78272936D02*
X119485000Y-78727064D01*
X118015000Y-78272936D02*
X118015000Y-78727064D01*
%TO.C,IC5*%
X122890000Y-72360000D02*
X123365000Y-72360000D01*
X122890000Y-71885000D02*
X122890000Y-72360000D01*
X128110000Y-71885000D02*
X128110000Y-72360000D01*
X122890000Y-67615000D02*
X122890000Y-67140000D01*
X128110000Y-67615000D02*
X128110000Y-67140000D01*
X122890000Y-67140000D02*
X123365000Y-67140000D01*
X128110000Y-67140000D02*
X127635000Y-67140000D01*
%TO.C,C7*%
X127511252Y-76985000D02*
X126988748Y-76985000D01*
X127511252Y-75515000D02*
X126988748Y-75515000D01*
%TO.C,R9*%
X106985000Y-70072936D02*
X106985000Y-70527064D01*
X105515000Y-70072936D02*
X105515000Y-70527064D01*
%TO.C,C25*%
X122265000Y-61761252D02*
X122265000Y-61238748D01*
X123735000Y-61761252D02*
X123735000Y-61238748D01*
%TO.C,TP8*%
X127200000Y-53750000D02*
G75*
G03*
X127200000Y-53750000I-700000J0D01*
G01*
%TO.C,C21*%
X102535000Y-62238748D02*
X102535000Y-62761252D01*
X101065000Y-62238748D02*
X101065000Y-62761252D01*
%TO.C,R15*%
X127022936Y-77515000D02*
X127477064Y-77515000D01*
X127022936Y-78985000D02*
X127477064Y-78985000D01*
%TO.C,R1*%
X126272936Y-88765000D02*
X126727064Y-88765000D01*
X126272936Y-90235000D02*
X126727064Y-90235000D01*
%TO.C,R25*%
X119485000Y-74772936D02*
X119485000Y-75227064D01*
X118015000Y-74772936D02*
X118015000Y-75227064D01*
%TO.C,C12*%
X117335000Y-69738748D02*
X117335000Y-70261252D01*
X115865000Y-69738748D02*
X115865000Y-70261252D01*
%TO.C,C24*%
X109488748Y-57765000D02*
X110011252Y-57765000D01*
X109488748Y-59235000D02*
X110011252Y-59235000D01*
%TO.C,C2*%
X123765000Y-83761252D02*
X123765000Y-83238748D01*
X125235000Y-83761252D02*
X125235000Y-83238748D01*
D10*
%TO.C,C23*%
X132825000Y-100850000D02*
X121350000Y-100850000D01*
X129075000Y-111150000D02*
X121350000Y-111150000D01*
D13*
%TO.C,R27*%
X109522936Y-63065000D02*
X109977064Y-63065000D01*
X109522936Y-64535000D02*
X109977064Y-64535000D01*
D10*
%TO.C,D6*%
X109400000Y-75850000D02*
X109400000Y-76900000D01*
X112350000Y-77250000D02*
X109450000Y-77250000D01*
X109450000Y-77250000D02*
X109450000Y-77700000D01*
X112350000Y-77700000D02*
X112350000Y-77250000D01*
X109450000Y-77700000D02*
X112350000Y-77700000D01*
D13*
%TO.C,C20*%
X134461252Y-90035000D02*
X133938748Y-90035000D01*
X134461252Y-88565000D02*
X133938748Y-88565000D01*
%TO.C,C26*%
X103815000Y-61511252D02*
X103815000Y-60988748D01*
X105285000Y-61511252D02*
X105285000Y-60988748D01*
%TO.C,C15*%
X114985000Y-78988748D02*
X114985000Y-79511252D01*
X113515000Y-78988748D02*
X113515000Y-79511252D01*
D10*
%TO.C,IC2*%
X122350000Y-72900000D02*
X128650000Y-72900000D01*
X128650000Y-72900000D02*
X128650000Y-66600000D01*
X122350000Y-66600000D02*
X122350000Y-72900000D01*
X128650000Y-66600000D02*
X122350000Y-66600000D01*
D17*
X129410000Y-73560000D02*
G75*
G03*
X129410000Y-73560000I-100000J0D01*
G01*
%TD*%
M02*
