%TF.GenerationSoftware,KiCad,Pcbnew,7.0.8*%
%TF.CreationDate,2023-10-15T13:57:05+02:00*%
%TF.ProjectId,AxxSolder,41787853-6f6c-4646-9572-2e6b69636164,rev?*%
%TF.SameCoordinates,Original*%
%TF.FileFunction,Copper,L1,Top*%
%TF.FilePolarity,Positive*%
%FSLAX46Y46*%
G04 Gerber Fmt 4.6, Leading zero omitted, Abs format (unit mm)*
G04 Created by KiCad (PCBNEW 7.0.8) date 2023-10-15 13:57:05*
%MOMM*%
%LPD*%
G01*
G04 APERTURE LIST*
G04 Aperture macros list*
%AMRoundRect*
0 Rectangle with rounded corners*
0 $1 Rounding radius*
0 $2 $3 $4 $5 $6 $7 $8 $9 X,Y pos of 4 corners*
0 Add a 4 corners polygon primitive as box body*
4,1,4,$2,$3,$4,$5,$6,$7,$8,$9,$2,$3,0*
0 Add four circle primitives for the rounded corners*
1,1,$1+$1,$2,$3*
1,1,$1+$1,$4,$5*
1,1,$1+$1,$6,$7*
1,1,$1+$1,$8,$9*
0 Add four rect primitives between the rounded corners*
20,1,$1+$1,$2,$3,$4,$5,0*
20,1,$1+$1,$4,$5,$6,$7,0*
20,1,$1+$1,$6,$7,$8,$9,0*
20,1,$1+$1,$8,$9,$2,$3,0*%
G04 Aperture macros list end*
%TA.AperFunction,SMDPad,CuDef*%
%ADD10RoundRect,0.250000X0.250000X0.475000X-0.250000X0.475000X-0.250000X-0.475000X0.250000X-0.475000X0*%
%TD*%
%TA.AperFunction,SMDPad,CuDef*%
%ADD11RoundRect,0.250000X-0.250000X-0.475000X0.250000X-0.475000X0.250000X0.475000X-0.250000X0.475000X0*%
%TD*%
%TA.AperFunction,SMDPad,CuDef*%
%ADD12RoundRect,0.250000X0.475000X-0.250000X0.475000X0.250000X-0.475000X0.250000X-0.475000X-0.250000X0*%
%TD*%
%TA.AperFunction,SMDPad,CuDef*%
%ADD13RoundRect,0.250000X0.262500X0.450000X-0.262500X0.450000X-0.262500X-0.450000X0.262500X-0.450000X0*%
%TD*%
%TA.AperFunction,SMDPad,CuDef*%
%ADD14R,1.050000X0.600000*%
%TD*%
%TA.AperFunction,SMDPad,CuDef*%
%ADD15R,3.150000X2.200000*%
%TD*%
%TA.AperFunction,SMDPad,CuDef*%
%ADD16RoundRect,0.250000X-0.262500X-0.450000X0.262500X-0.450000X0.262500X0.450000X-0.262500X0.450000X0*%
%TD*%
%TA.AperFunction,SMDPad,CuDef*%
%ADD17R,2.500000X3.000000*%
%TD*%
%TA.AperFunction,SMDPad,CuDef*%
%ADD18RoundRect,0.250000X-0.475000X0.250000X-0.475000X-0.250000X0.475000X-0.250000X0.475000X0.250000X0*%
%TD*%
%TA.AperFunction,SMDPad,CuDef*%
%ADD19R,1.930000X1.000000*%
%TD*%
%TA.AperFunction,ComponentPad*%
%ADD20C,1.000000*%
%TD*%
%TA.AperFunction,SMDPad,CuDef*%
%ADD21R,0.950000X1.650000*%
%TD*%
%TA.AperFunction,SMDPad,CuDef*%
%ADD22R,3.250000X1.650000*%
%TD*%
%TA.AperFunction,ComponentPad*%
%ADD23C,1.800000*%
%TD*%
%TA.AperFunction,ComponentPad*%
%ADD24C,4.000000*%
%TD*%
%TA.AperFunction,ComponentPad*%
%ADD25C,1.524000*%
%TD*%
%TA.AperFunction,ComponentPad*%
%ADD26C,5.400000*%
%TD*%
%TA.AperFunction,ComponentPad*%
%ADD27C,2.000000*%
%TD*%
%TA.AperFunction,ComponentPad*%
%ADD28R,1.700000X1.700000*%
%TD*%
%TA.AperFunction,ComponentPad*%
%ADD29O,1.700000X1.700000*%
%TD*%
%TA.AperFunction,ComponentPad*%
%ADD30C,2.400000*%
%TD*%
%TA.AperFunction,ViaPad*%
%ADD31C,0.600000*%
%TD*%
%TA.AperFunction,Conductor*%
%ADD32C,0.800000*%
%TD*%
%TA.AperFunction,Conductor*%
%ADD33C,0.300000*%
%TD*%
%TA.AperFunction,Conductor*%
%ADD34C,0.600000*%
%TD*%
%TA.AperFunction,Conductor*%
%ADD35C,0.200000*%
%TD*%
G04 APERTURE END LIST*
D10*
%TO.P,C9,1*%
%TO.N,/ENC_B*%
X122450000Y-99500000D03*
%TO.P,C9,2*%
%TO.N,GND*%
X120550000Y-99500000D03*
%TD*%
D11*
%TO.P,C10,1*%
%TO.N,/ENC_A*%
X117050000Y-103500000D03*
%TO.P,C10,2*%
%TO.N,GND*%
X118950000Y-103500000D03*
%TD*%
D12*
%TO.P,C13,1*%
%TO.N,GND*%
X123000000Y-62200000D03*
%TO.P,C13,2*%
%TO.N,+5V*%
X123000000Y-60300000D03*
%TD*%
D13*
%TO.P,R12,1*%
%TO.N,+3.3V*%
X118912500Y-99500000D03*
%TO.P,R12,2*%
%TO.N,/ENC_Button*%
X117087500Y-99500000D03*
%TD*%
D12*
%TO.P,C6,1*%
%TO.N,GND*%
X125000000Y-62200000D03*
%TO.P,C6,2*%
%TO.N,+5V*%
X125000000Y-60300000D03*
%TD*%
D14*
%TO.P,Q2,1*%
%TO.N,Net-(Q2-Pad1)*%
X120700000Y-103550000D03*
%TO.P,Q2,2*%
%TO.N,GND*%
X120700000Y-105450000D03*
%TO.P,Q2,3*%
%TO.N,Net-(LS1--)*%
X122900000Y-104500000D03*
%TD*%
D13*
%TO.P,R16,1*%
%TO.N,Net-(Q2-Pad1)*%
X122412500Y-101500000D03*
%TO.P,R16,2*%
%TO.N,GND*%
X120587500Y-101500000D03*
%TD*%
D15*
%TO.P,D8,1*%
%TO.N,GND*%
X107500000Y-97000000D03*
%TO.P,D8,2*%
%TO.N,Net-(J1-Pin_7)*%
X107500000Y-90000000D03*
%TD*%
D16*
%TO.P,R11,1*%
%TO.N,/ENC_B*%
X117087500Y-107350000D03*
%TO.P,R11,2*%
%TO.N,+3.3V*%
X118912500Y-107350000D03*
%TD*%
D17*
%TO.P,LS1,1,-*%
%TO.N,Net-(LS1--)*%
X128750000Y-103000000D03*
%TO.P,LS1,2,+*%
%TO.N,+5V*%
X128750000Y-111000000D03*
%TD*%
D16*
%TO.P,R17,1*%
%TO.N,+5V*%
X120587500Y-107500000D03*
%TO.P,R17,2*%
%TO.N,Net-(LS1--)*%
X122412500Y-107500000D03*
%TD*%
D18*
%TO.P,C19,1*%
%TO.N,+3.3V*%
X111250000Y-63050000D03*
%TO.P,C19,2*%
%TO.N,GND*%
X111250000Y-64950000D03*
%TD*%
D19*
%TO.P,D7,1*%
%TO.N,/RED*%
X104500000Y-82900000D03*
%TO.P,D7,2*%
%TO.N,/BLUE*%
X104500000Y-78500000D03*
%TD*%
D20*
%TO.P,TP3,1,1*%
%TO.N,GND*%
X119750000Y-53750000D03*
%TD*%
D21*
%TO.P,PS1,1,ADJ/GND*%
%TO.N,GND*%
X115700000Y-64900000D03*
%TO.P,PS1,2,VOUT_1*%
%TO.N,+3.3V*%
X118000000Y-64900000D03*
%TO.P,PS1,3,VIN*%
%TO.N,+5V*%
X120300000Y-64900000D03*
D22*
%TO.P,PS1,4,VOUT_2*%
%TO.N,+3.3V*%
X118000000Y-58600000D03*
%TD*%
D18*
%TO.P,C22,1*%
%TO.N,+3.3V*%
X113250000Y-63050000D03*
%TO.P,C22,2*%
%TO.N,GND*%
X113250000Y-64950000D03*
%TD*%
D13*
%TO.P,R13,1*%
%TO.N,+3.3V*%
X118912500Y-105500000D03*
%TO.P,R13,2*%
%TO.N,/ENC_A*%
X117087500Y-105500000D03*
%TD*%
D23*
%TO.P,U1,1,1*%
%TO.N,/ENC_Button*%
X100275000Y-109000000D03*
%TO.P,U1,2,2*%
%TO.N,GND*%
X100275000Y-104000000D03*
%TO.P,U1,3,3*%
%TO.N,/ENC_B*%
X114775000Y-109000000D03*
D24*
%TO.P,U1,4,4*%
%TO.N,GND*%
X107275000Y-112200000D03*
D23*
X114775000Y-106500000D03*
D24*
X107275000Y-100800000D03*
D23*
%TO.P,U1,5,5*%
%TO.N,/ENC_A*%
X114775000Y-104000000D03*
%TD*%
D25*
%TO.P,D4,1,VCC*%
%TO.N,+5V*%
X125390000Y-56320000D03*
D26*
%TO.P,D4,2,GND*%
%TO.N,GND*%
X132500000Y-95820000D03*
X132500000Y-56320000D03*
D25*
X122850000Y-56320000D03*
D26*
X100500000Y-95820000D03*
X100500000Y-56320000D03*
D25*
%TO.P,D4,3,NC*%
%TO.N,unconnected-(D4-NC-Pad3)*%
X120310000Y-56320000D03*
%TO.P,D4,4,DIN*%
%TO.N,/SPI_MOSI*%
X117770000Y-56320000D03*
%TO.P,D4,5,CLK*%
%TO.N,/SPI_SCK*%
X115230000Y-56320000D03*
%TO.P,D4,6,CS*%
%TO.N,/SPI_CS*%
X112690000Y-56320000D03*
%TO.P,D4,7,DC*%
%TO.N,/SPI_DC*%
X110150000Y-56320000D03*
%TO.P,D4,8,RST*%
%TO.N,/SPI_RST*%
X107610000Y-56320000D03*
%TD*%
D11*
%TO.P,C8,1*%
%TO.N,/ENC_Button*%
X117050000Y-101500000D03*
%TO.P,C8,2*%
%TO.N,GND*%
X118950000Y-101500000D03*
%TD*%
D27*
%TO.P,J1,1,Pin_1*%
%TO.N,/Stand_sense*%
X101400000Y-67370000D03*
%TO.P,J1,2,Pin_2*%
%TO.N,/Handle_sense*%
X101400000Y-71180000D03*
%TO.P,J1,3,Pin_3*%
%TO.N,/GREEN*%
X101400000Y-74990000D03*
%TO.P,J1,4,Pin_4*%
%TO.N,/BLUE*%
X101400000Y-78800000D03*
%TO.P,J1,5,Pin_5*%
%TO.N,/RED*%
X101400000Y-82610000D03*
%TO.P,J1,6,Pin_6*%
%TO.N,GND*%
X101400000Y-86420000D03*
%TO.P,J1,7,Pin_7*%
%TO.N,Net-(J1-Pin_7)*%
X101400000Y-90230000D03*
%TD*%
D20*
%TO.P,TP1,1,1*%
%TO.N,/Ambient_temp*%
X133200000Y-91800000D03*
%TD*%
D28*
%TO.P,J4,1,Pin_1*%
%TO.N,GND*%
X134225000Y-80600000D03*
D29*
%TO.P,J4,2,Pin_2*%
%TO.N,+3.3V*%
X134225000Y-78060000D03*
%TO.P,J4,3,Pin_3*%
%TO.N,/NRST*%
X134225000Y-75520000D03*
%TO.P,J4,4,Pin_4*%
%TO.N,/SWCLK*%
X134225000Y-72980000D03*
%TO.P,J4,5,Pin_5*%
%TO.N,/SWDIO*%
X134225000Y-70440000D03*
%TO.P,J4,6,Pin_6*%
%TO.N,/MCU_TX*%
X134225000Y-67900000D03*
%TO.P,J4,7,Pin_7*%
%TO.N,/MCU_RX*%
X134225000Y-65360000D03*
%TD*%
D20*
%TO.P,TP9,1,1*%
%TO.N,+3.3V*%
X122000000Y-53750000D03*
%TD*%
%TO.P,TP7,1,1*%
%TO.N,+5V*%
X124250000Y-53750000D03*
%TD*%
D30*
%TO.P,F1,1*%
%TO.N,VDD*%
X125950000Y-98700000D03*
X125950000Y-95300000D03*
%TO.P,F1,2*%
%TO.N,Net-(J1-Pin_7)*%
X112480000Y-98700000D03*
X112480000Y-95300000D03*
%TD*%
D20*
%TO.P,TP8,1,1*%
%TO.N,VDD*%
X126500000Y-53750000D03*
%TD*%
D31*
%TO.N,/Ambient_temp*%
X135500000Y-87750000D03*
X123649500Y-75649608D03*
%TO.N,+3.3V*%
X116500000Y-68000000D03*
X128829977Y-73670023D03*
X112500000Y-66250000D03*
X109477735Y-68425782D03*
X118113830Y-104589863D03*
X126907326Y-71157326D03*
X116126283Y-76755668D03*
X133250000Y-87000000D03*
X128475500Y-88500000D03*
X112000000Y-71500000D03*
X112505338Y-69009913D03*
X111799502Y-75500000D03*
X124120011Y-56798283D03*
X124104278Y-68699500D03*
X118250000Y-99500000D03*
X121988000Y-65512000D03*
X131250000Y-71000000D03*
%TO.N,/ENC_B*%
X121639769Y-98896782D03*
X120057030Y-71050500D03*
X117324500Y-98175500D03*
%TO.N,/ENC_A*%
X120198132Y-72552878D03*
X116000000Y-100850500D03*
%TO.N,/ENC_Button*%
X112658032Y-101494005D03*
X131200000Y-73400000D03*
X125975072Y-68375500D03*
X131250000Y-84500000D03*
%TO.N,/Heater*%
X123999500Y-81450882D03*
X119693356Y-70117517D03*
%TO.N,/SWCLK*%
X132581868Y-64900595D03*
X127500000Y-64174998D03*
%TO.N,/SWDIO*%
X126899190Y-68514097D03*
%TO.N,+5V*%
X119750000Y-63750000D03*
X107500000Y-59300000D03*
X130250000Y-90000000D03*
X127403508Y-83713462D03*
X113300000Y-59050500D03*
X127619285Y-81721794D03*
%TO.N,/RED*%
X109500000Y-87500000D03*
X108000000Y-86750000D03*
X109500000Y-86000000D03*
X108750000Y-86750000D03*
X108750000Y-86000000D03*
X108750000Y-87500000D03*
X108000000Y-86000000D03*
X109500000Y-86750000D03*
X107250000Y-86750000D03*
X106750000Y-77699500D03*
X107250000Y-86000000D03*
X107250000Y-87500000D03*
X108000000Y-87500000D03*
%TO.N,Net-(Q2-Pad1)*%
X129540734Y-92740734D03*
%TO.N,/BLUE*%
X112750000Y-80250000D03*
X118750000Y-75199500D03*
%TO.N,/Busvoltage*%
X119989481Y-69120473D03*
X125250000Y-86000000D03*
%TO.N,Net-(D6-common)*%
X111750000Y-78500000D03*
X112749501Y-73117550D03*
%TO.N,/SPI_CS*%
X118750000Y-55000000D03*
%TO.N,/MCU_RX*%
X129750000Y-66500000D03*
%TO.N,/MCU_TX*%
X124499500Y-71230091D03*
%TO.N,/Buzzer*%
X121223732Y-81024500D03*
X118975767Y-72049500D03*
%TO.N,GND*%
X110950498Y-69474502D03*
X120500000Y-87750000D03*
X110550000Y-112200000D03*
X107500000Y-82250000D03*
X103250000Y-100000000D03*
X97900000Y-75875000D03*
X104000000Y-112250000D03*
X130500000Y-83000000D03*
X119000000Y-87750000D03*
X119601475Y-68198314D03*
X109850000Y-72125000D03*
X104750000Y-111500000D03*
X111250000Y-111450000D03*
X128720023Y-85029977D03*
X104000000Y-100000000D03*
X104750000Y-113000000D03*
X109849808Y-101484302D03*
X124600000Y-107200000D03*
X117250000Y-111750000D03*
X103250000Y-101500000D03*
X110550000Y-112950000D03*
X119500000Y-87750000D03*
X97900000Y-85250000D03*
X97900000Y-69625000D03*
X103250000Y-113000000D03*
X118700000Y-112500000D03*
X110550000Y-111450000D03*
X120250000Y-84000000D03*
X121597889Y-63026633D03*
X104750000Y-100000000D03*
X118500000Y-87750000D03*
X103500000Y-87250000D03*
X109800000Y-112950000D03*
X114400000Y-73300000D03*
X125700000Y-71100000D03*
X108000000Y-77699500D03*
X118000000Y-112500000D03*
X117719773Y-80470273D03*
X109800000Y-112200000D03*
X104000000Y-113000000D03*
X118000000Y-111000000D03*
X110599808Y-101484302D03*
X117250000Y-111000000D03*
X112750000Y-79000000D03*
X118050000Y-72550000D03*
X120250000Y-81250000D03*
X118000000Y-87750000D03*
X102750000Y-87250000D03*
X121526273Y-79286227D03*
X102750000Y-86500000D03*
X120000000Y-87750000D03*
X115750000Y-66000000D03*
X117250000Y-112500000D03*
X111349808Y-101484302D03*
X109800000Y-111450000D03*
X104000000Y-100750000D03*
X118779727Y-66749500D03*
X111250000Y-112200000D03*
X118700000Y-111000000D03*
X97900000Y-82125000D03*
X103500000Y-86500000D03*
X103250000Y-100750000D03*
X120250000Y-82500000D03*
X118000000Y-111750000D03*
X102750000Y-85750000D03*
X115350500Y-73332591D03*
X119225498Y-64750500D03*
X97900000Y-72750000D03*
X104750000Y-100750000D03*
X104000000Y-111500000D03*
X112250000Y-58750000D03*
X118700000Y-111750000D03*
X109849808Y-100734302D03*
X128650000Y-72550000D03*
X117500000Y-87750000D03*
X121000000Y-87750000D03*
X118049500Y-103500000D03*
X109900000Y-74974500D03*
X104750000Y-112250000D03*
X130562500Y-77062500D03*
X103250000Y-111500000D03*
X114500000Y-83000000D03*
X104250000Y-85750000D03*
X115500000Y-82000000D03*
X119750000Y-75000000D03*
X104750000Y-101500000D03*
X103250000Y-112250000D03*
X104250000Y-87250000D03*
X105000000Y-87250000D03*
X111349808Y-100734302D03*
X111250000Y-112950000D03*
X103500000Y-85750000D03*
X97900000Y-79000000D03*
X97900000Y-66500000D03*
X104250000Y-86500000D03*
X110599808Y-100734302D03*
X104000000Y-101500000D03*
%TO.N,VDD*%
X109750000Y-62750000D03*
X106250000Y-58499500D03*
X103150000Y-63500000D03*
%TO.N,Net-(IC2-PB8-BOOT0)*%
X129950000Y-81575000D03*
X131824500Y-79475000D03*
%TO.N,/NRST*%
X127100500Y-75915233D03*
%TD*%
D32*
%TO.N,VDD*%
X106124967Y-63456637D02*
X103193363Y-63456637D01*
X106124967Y-63456637D02*
X109043363Y-63456637D01*
D33*
%TO.N,/ENC_Button*%
X125975072Y-68588171D02*
X125975072Y-68375500D01*
X127636901Y-70250000D02*
X125975072Y-68588171D01*
X131560661Y-70250000D02*
X127636901Y-70250000D01*
X132000000Y-72600000D02*
X132000000Y-70689339D01*
X131200000Y-73400000D02*
X132000000Y-72600000D01*
X132000000Y-70689339D02*
X131560661Y-70250000D01*
D34*
%TO.N,+3.3V*%
X113250000Y-63050000D02*
X118000000Y-63050000D01*
X118000000Y-58000000D02*
X118000000Y-64900000D01*
D33*
%TO.N,+5V*%
X130400000Y-100200000D02*
X130400000Y-109350000D01*
X130400000Y-109350000D02*
X128750000Y-111000000D01*
X129200000Y-99000000D02*
X130400000Y-100200000D01*
X129200000Y-94000000D02*
X129200000Y-99000000D01*
X130250000Y-92950000D02*
X129200000Y-94000000D01*
X130250000Y-90000000D02*
X130250000Y-92950000D01*
%TO.N,Net-(Q2-Pad1)*%
X126100000Y-101500000D02*
X122412500Y-101500000D01*
X128600000Y-93681468D02*
X128600000Y-99000000D01*
X129540734Y-92740734D02*
X128600000Y-93681468D01*
X128600000Y-99000000D02*
X126100000Y-101500000D01*
%TO.N,+3.3V*%
X129707106Y-87000000D02*
X128475500Y-88231606D01*
X133250000Y-87000000D02*
X129707106Y-87000000D01*
X128475500Y-88231606D02*
X128475500Y-88500000D01*
X119000000Y-98500000D02*
X118912500Y-98587500D01*
X118912500Y-98587500D02*
X118912500Y-99500000D01*
X128207106Y-88500000D02*
X119000000Y-97707106D01*
X128475500Y-88500000D02*
X128207106Y-88500000D01*
X119000000Y-97707106D02*
X119000000Y-98500000D01*
X126757326Y-71157326D02*
X126907326Y-71157326D01*
X124299500Y-68699500D02*
X126757326Y-71157326D01*
X124104278Y-68699500D02*
X124299500Y-68699500D01*
%TO.N,/MCU_TX*%
X121200000Y-65880761D02*
X121550000Y-66230761D01*
X121550000Y-68280591D02*
X124499500Y-71230091D01*
X121200000Y-65239339D02*
X121200000Y-65880761D01*
X124162000Y-64762000D02*
X121677339Y-64762000D01*
X126600000Y-67200000D02*
X124162000Y-64762000D01*
X133025000Y-67200000D02*
X126600000Y-67200000D01*
X121550000Y-66230761D02*
X121550000Y-68280591D01*
X133725000Y-67900000D02*
X133025000Y-67200000D01*
X121677339Y-64762000D02*
X121200000Y-65239339D01*
%TO.N,Net-(Q2-Pad1)*%
X122412500Y-101837500D02*
X120700000Y-103550000D01*
X122412500Y-101500000D02*
X122412500Y-101837500D01*
%TO.N,/ENC_A*%
X121500000Y-73854746D02*
X120198132Y-72552878D01*
X121500000Y-77457106D02*
X121500000Y-73854746D01*
X123000000Y-78957106D02*
X121500000Y-77457106D01*
X123000000Y-80682614D02*
X123000000Y-78957106D01*
X122750000Y-80932614D02*
X123000000Y-80682614D01*
X117060288Y-97525500D02*
X122750000Y-91835788D01*
X116000000Y-98580761D02*
X117055261Y-97525500D01*
X116000000Y-100850500D02*
X116000000Y-98580761D01*
X122750000Y-91835788D02*
X122750000Y-80932614D01*
X117055261Y-97525500D02*
X117060288Y-97525500D01*
%TO.N,GND*%
X118950000Y-103500000D02*
X118049500Y-103500000D01*
%TO.N,+3.3V*%
X122050000Y-66450000D02*
X124104278Y-68504278D01*
X122050000Y-65574000D02*
X122050000Y-66450000D01*
X124104278Y-68504278D02*
X124104278Y-68699500D01*
X121988000Y-65512000D02*
X122050000Y-65574000D01*
%TO.N,GND*%
X114300000Y-73400000D02*
X114400000Y-73300000D01*
X113800000Y-73400000D02*
X114300000Y-73400000D01*
X113800000Y-73000000D02*
X113800000Y-73400000D01*
%TO.N,/Ambient_temp*%
X126753508Y-81775255D02*
X126753508Y-83982701D01*
X130950000Y-82250000D02*
X135500000Y-86800000D01*
X125529977Y-80551725D02*
X126753508Y-81775255D01*
X127134269Y-84363462D02*
X127929432Y-84363462D01*
X135500000Y-86800000D02*
X135500000Y-87750000D01*
X127929432Y-84363462D02*
X130042894Y-82250000D01*
X130042894Y-82250000D02*
X130950000Y-82250000D01*
X123649500Y-76710161D02*
X125529977Y-78590638D01*
X123649500Y-75649608D02*
X123649500Y-76710161D01*
X125529977Y-78590638D02*
X125529977Y-80551725D01*
X126753508Y-83982701D02*
X127134269Y-84363462D01*
%TO.N,+3.3V*%
X112000000Y-71500000D02*
X112000000Y-69515251D01*
X112500000Y-66250000D02*
X112500000Y-69004575D01*
X118250000Y-99500000D02*
X118912500Y-99500000D01*
X118912500Y-105388533D02*
X118113830Y-104589863D01*
X109477735Y-69062400D02*
X109477735Y-68425782D01*
D35*
X131250000Y-71250000D02*
X131250000Y-71000000D01*
D34*
X111250000Y-63050000D02*
X113250000Y-63050000D01*
D33*
X110699500Y-70300500D02*
X110775498Y-70224502D01*
X116100000Y-68400000D02*
X116500000Y-68000000D01*
X115490087Y-69009913D02*
X116500000Y-68000000D01*
X118000000Y-106437500D02*
X118000000Y-106000000D01*
X111025498Y-70224502D02*
X110639837Y-70224502D01*
X110639837Y-70224502D02*
X109477735Y-69062400D01*
X111275498Y-70224502D02*
X111025498Y-70224502D01*
X118100000Y-58500000D02*
X118000000Y-58600000D01*
X111799502Y-75500000D02*
X110699500Y-74399998D01*
X128829977Y-73670023D02*
X131250000Y-71250000D01*
X118000000Y-106000000D02*
X118500000Y-105500000D01*
X118912500Y-107350000D02*
X118000000Y-106437500D01*
X116100000Y-76729385D02*
X116100000Y-68400000D01*
X112500000Y-69004575D02*
X112505338Y-69009913D01*
X127064652Y-71000000D02*
X126907326Y-71157326D01*
X116126283Y-76755668D02*
X116100000Y-76729385D01*
X131250000Y-71000000D02*
X127064652Y-71000000D01*
X118912500Y-105500000D02*
X118912500Y-105388533D01*
X112000000Y-69515251D02*
X112505338Y-69009913D01*
X112490087Y-69009913D02*
X111275498Y-70224502D01*
X110699500Y-74399998D02*
X110699500Y-70300500D01*
X122418294Y-58500000D02*
X118100000Y-58500000D01*
X118000000Y-66500000D02*
X116500000Y-68000000D01*
X112505338Y-69009913D02*
X115490087Y-69009913D01*
X118500000Y-105500000D02*
X118912500Y-105500000D01*
X118000000Y-64900000D02*
X118000000Y-66500000D01*
X124120011Y-56798283D02*
X122418294Y-58500000D01*
X112505338Y-69009913D02*
X112490087Y-69009913D01*
X110775498Y-70224502D02*
X111025498Y-70224502D01*
%TO.N,/ENC_B*%
X120057030Y-71050500D02*
X120057030Y-71057030D01*
X122000000Y-77250000D02*
X123500000Y-78750000D01*
X122000000Y-73000000D02*
X122000000Y-77250000D01*
X121846782Y-98896782D02*
X122450000Y-99500000D01*
X123500000Y-78750000D02*
X123500000Y-80889721D01*
X116425000Y-107350000D02*
X114775000Y-109000000D01*
X123500000Y-80889721D02*
X123250000Y-81139721D01*
X123250000Y-81139721D02*
X123250000Y-92042894D01*
X117324500Y-97968394D02*
X117324500Y-98175500D01*
X123250000Y-92042894D02*
X117324500Y-97968394D01*
X117087500Y-107350000D02*
X116425000Y-107350000D01*
X120057030Y-71057030D02*
X122000000Y-73000000D01*
X121639769Y-98896782D02*
X121846782Y-98896782D01*
%TO.N,/ENC_A*%
X115275000Y-103500000D02*
X114775000Y-104000000D01*
X117050000Y-105462500D02*
X117087500Y-105500000D01*
X117050000Y-103500000D02*
X115275000Y-103500000D01*
X117050000Y-103500000D02*
X117050000Y-105462500D01*
%TO.N,/ENC_Button*%
X113500000Y-101500000D02*
X117050000Y-101500000D01*
X112658032Y-101494005D02*
X113494005Y-101494005D01*
X117087500Y-98925500D02*
X117087500Y-99500000D01*
X118074500Y-98486161D02*
X117635161Y-98925500D01*
X117087500Y-99500000D02*
X117087500Y-101462500D01*
X118074500Y-97925500D02*
X118074500Y-98486161D01*
X131250000Y-84750000D02*
X118074500Y-97925500D01*
X117635161Y-98925500D02*
X117087500Y-98925500D01*
X113494005Y-101494005D02*
X113500000Y-101500000D01*
X117087500Y-101462500D02*
X117050000Y-101500000D01*
X131250000Y-84500000D02*
X131250000Y-84750000D01*
%TO.N,/Heater*%
X122500000Y-77042893D02*
X123999500Y-78542393D01*
X122500000Y-72239339D02*
X122500000Y-77042893D01*
X119693356Y-70117517D02*
X120378178Y-70117517D01*
X123999500Y-78542393D02*
X123999500Y-81450882D01*
X120378178Y-70117517D02*
X122500000Y-72239339D01*
%TO.N,/SWCLK*%
X132581868Y-64900595D02*
X131856271Y-64174998D01*
X131856271Y-64174998D02*
X127500000Y-64174998D01*
%TO.N,/SWDIO*%
X127447562Y-69000000D02*
X132785000Y-69000000D01*
X132785000Y-69000000D02*
X134225000Y-70440000D01*
X126899190Y-68514097D02*
X126961659Y-68514097D01*
X126961659Y-68514097D02*
X127447562Y-69000000D01*
D34*
%TO.N,+5V*%
X127619285Y-81721794D02*
X126179977Y-80282486D01*
X128750000Y-111000000D02*
X127750000Y-111000000D01*
X123750000Y-71830762D02*
X120900000Y-68980762D01*
X120300000Y-65900000D02*
X120300000Y-64900000D01*
X120100000Y-63750000D02*
X120300000Y-63950000D01*
X120900000Y-68980762D02*
X120900000Y-66500000D01*
X123750000Y-74485029D02*
X123750000Y-71830762D01*
X126179977Y-80282486D02*
X126179977Y-78179977D01*
X119750000Y-63750000D02*
X120100000Y-63750000D01*
X125390000Y-56320000D02*
X125390000Y-58110000D01*
D33*
X121787500Y-108700000D02*
X120587500Y-107500000D01*
D34*
X125390000Y-58110000D02*
X125000000Y-58500000D01*
X120900000Y-66500000D02*
X120300000Y-65900000D01*
D33*
X113300000Y-59050500D02*
X112950500Y-59400000D01*
D34*
X122200000Y-60300000D02*
X120300000Y-62200000D01*
X125000000Y-60300000D02*
X123000000Y-60300000D01*
X124649500Y-76649500D02*
X124649500Y-75384529D01*
X125000000Y-58500000D02*
X125000000Y-60300000D01*
D33*
X107600000Y-59400000D02*
X107500000Y-59300000D01*
D34*
X127600000Y-83516970D02*
X127403508Y-83713462D01*
D33*
X112950500Y-59400000D02*
X107600000Y-59400000D01*
D34*
X124649500Y-75384529D02*
X123750000Y-74485029D01*
X120300000Y-62200000D02*
X120300000Y-63950000D01*
X127619285Y-81721794D02*
X127600000Y-81741079D01*
X127600000Y-81741079D02*
X127600000Y-83516970D01*
D33*
X127750000Y-111000000D02*
X125450000Y-108700000D01*
D34*
X126179977Y-78179977D02*
X124649500Y-76649500D01*
X123000000Y-60300000D02*
X122200000Y-60300000D01*
D33*
X125450000Y-108700000D02*
X121787500Y-108700000D01*
D34*
X120300000Y-63950000D02*
X120300000Y-64900000D01*
D33*
%TO.N,/RED*%
X106750000Y-79500000D02*
X103750000Y-82500000D01*
X103750000Y-82560000D02*
X103700000Y-82610000D01*
X104500000Y-82900000D02*
X101690000Y-82900000D01*
X103700000Y-82610000D02*
X101400000Y-82610000D01*
X107440000Y-86250000D02*
X108000000Y-86250000D01*
X103750000Y-82560000D02*
X107440000Y-86250000D01*
X101690000Y-82900000D02*
X101400000Y-82610000D01*
X106750000Y-77699500D02*
X106750000Y-79500000D01*
X103750000Y-82500000D02*
X103750000Y-82560000D01*
%TO.N,/BLUE*%
X115494332Y-77505668D02*
X116244332Y-77505668D01*
X116443832Y-77505668D02*
X118750000Y-75199500D01*
X115505668Y-77505668D02*
X116244332Y-77505668D01*
D34*
X101700000Y-78500000D02*
X101400000Y-78800000D01*
D33*
X116244332Y-77505668D02*
X116443832Y-77505668D01*
X101650000Y-78550000D02*
X101400000Y-78800000D01*
D34*
X104500000Y-78500000D02*
X101700000Y-78500000D01*
D33*
X112750000Y-80250000D02*
X115494332Y-77505668D01*
%TO.N,/Busvoltage*%
X123000000Y-76767767D02*
X124750000Y-78517767D01*
X124750000Y-85500000D02*
X125250000Y-86000000D01*
X120120473Y-69120473D02*
X119989481Y-69120473D01*
X123000000Y-72000000D02*
X120120473Y-69120473D01*
X123000000Y-72000000D02*
X123000000Y-76767767D01*
X124750000Y-78517767D02*
X124750000Y-85500000D01*
%TO.N,Net-(D6-common)*%
X113200000Y-73568049D02*
X113200000Y-77050000D01*
X112749501Y-73117550D02*
X113200000Y-73568049D01*
X113200000Y-77050000D02*
X111750000Y-78500000D01*
D34*
%TO.N,Net-(J1-Pin_7)*%
X103905000Y-90180000D02*
X101450000Y-90180000D01*
X109025000Y-95300000D02*
X103905000Y-90180000D01*
D33*
X107500000Y-90000000D02*
X104085000Y-90000000D01*
D34*
X101450000Y-90180000D02*
X101400000Y-90230000D01*
D33*
X104085000Y-90000000D02*
X103905000Y-90180000D01*
D34*
X112765000Y-95300000D02*
X109025000Y-95300000D01*
D33*
X103905000Y-90180000D02*
X103855000Y-90230000D01*
%TO.N,/SPI_CS*%
X114010000Y-55000000D02*
X112690000Y-56320000D01*
X118750000Y-55000000D02*
X114010000Y-55000000D01*
%TO.N,/MCU_RX*%
X129750000Y-66500000D02*
X130250000Y-66000000D01*
X133750000Y-66000000D02*
X134225000Y-65525000D01*
X130250000Y-66000000D02*
X133750000Y-66000000D01*
X134225000Y-65525000D02*
X134225000Y-65360000D01*
%TO.N,/Buzzer*%
X121223732Y-81024500D02*
X121575500Y-81024500D01*
X122300000Y-80300000D02*
X122300000Y-79000000D01*
X121575500Y-81024500D02*
X122300000Y-80300000D01*
X122300000Y-79000000D02*
X121000000Y-77700000D01*
X121000000Y-74415407D02*
X118975767Y-72391174D01*
X121000000Y-77700000D02*
X121000000Y-74415407D01*
X118975767Y-72391174D02*
X118975767Y-72049500D01*
%TO.N,GND*%
X106400000Y-54600000D02*
X105500000Y-55500000D01*
X113702893Y-54600000D02*
X106400000Y-54600000D01*
D34*
X125854738Y-55000000D02*
X124170000Y-55000000D01*
D33*
X113800000Y-77950000D02*
X113800000Y-73000000D01*
X120550000Y-99500000D02*
X120550000Y-101462500D01*
X105500000Y-58750000D02*
X104250000Y-60000000D01*
D34*
X119250000Y-64775002D02*
X119225498Y-64750500D01*
D33*
X112600000Y-75000000D02*
X112600000Y-76000000D01*
X120550000Y-101462500D02*
X120587500Y-101500000D01*
X135500000Y-75000000D02*
X135500000Y-79325000D01*
X107500000Y-97250000D02*
X104750000Y-100000000D01*
X132500000Y-56320000D02*
X127174738Y-56320000D01*
X109800000Y-112200000D02*
X110550000Y-112200000D01*
X118500000Y-87750000D02*
X119500000Y-87750000D01*
D34*
X119100000Y-66350000D02*
X118779727Y-66670273D01*
D33*
X115688841Y-81811159D02*
X119561159Y-81811159D01*
X110550000Y-112200000D02*
X109750000Y-112200000D01*
D34*
X107500000Y-81250000D02*
X108600000Y-80150000D01*
X108000000Y-77699500D02*
X108600000Y-78299500D01*
D33*
X110950498Y-69474502D02*
X110950498Y-65249502D01*
X105500000Y-55500000D02*
X105500000Y-58500000D01*
X98000000Y-85700000D02*
X98000000Y-65250000D01*
X98000000Y-63750000D02*
X98000000Y-65250000D01*
X110950498Y-65249502D02*
X111250000Y-64950000D01*
X130500000Y-83000000D02*
X128720023Y-84779977D01*
X109800000Y-112950000D02*
X108025000Y-112950000D01*
X115700000Y-65950000D02*
X115700000Y-64300000D01*
X107275000Y-112200000D02*
X109800000Y-112200000D01*
D34*
X107500000Y-82250000D02*
X107500000Y-81250000D01*
X115700000Y-64900000D02*
X110150000Y-64900000D01*
D33*
X119750000Y-53750000D02*
X114552893Y-53750000D01*
X118779727Y-66749500D02*
X118050000Y-67479227D01*
X107500000Y-97000000D02*
X107500000Y-97250000D01*
D34*
X124170000Y-55000000D02*
X122850000Y-56320000D01*
D33*
X101750000Y-57570000D02*
X101750000Y-60000000D01*
D34*
X122173367Y-63026633D02*
X123000000Y-62200000D01*
D33*
X134600000Y-80600000D02*
X134225000Y-80600000D01*
X116392894Y-79400000D02*
X114284513Y-81508381D01*
X105500000Y-58500000D02*
X105500000Y-58750000D01*
X112271789Y-72367550D02*
X111950000Y-72689339D01*
X119750000Y-74250000D02*
X119750000Y-75000000D01*
X109750000Y-72225000D02*
X109750000Y-74824500D01*
X132180000Y-74320000D02*
X134820000Y-74320000D01*
D34*
X123000000Y-62200000D02*
X125000000Y-62200000D01*
D33*
X101750000Y-60000000D02*
X98000000Y-63750000D01*
X104075000Y-104000000D02*
X107275000Y-100800000D01*
X122850000Y-56320000D02*
X122570000Y-56320000D01*
X132021268Y-74478732D02*
X132180000Y-74320000D01*
X109900000Y-74974500D02*
X109925500Y-75000000D01*
X114284513Y-81508381D02*
X108241619Y-81508381D01*
D34*
X108600000Y-78299500D02*
X108600000Y-79650000D01*
D33*
X128650000Y-72550000D02*
X128000000Y-73200000D01*
X122570000Y-56320000D02*
X120250000Y-54000000D01*
X120700000Y-105450000D02*
X119700000Y-104450000D01*
X115350500Y-73332591D02*
X114432591Y-73332591D01*
X114552893Y-53750000D02*
X113702893Y-54600000D01*
X120250000Y-54000000D02*
X120250000Y-53750000D01*
X107275000Y-100800000D02*
X107275000Y-112200000D01*
X115750000Y-66000000D02*
X115700000Y-65950000D01*
X113800000Y-73000000D02*
X113167550Y-72367550D01*
X130562500Y-77062500D02*
X130687500Y-77062500D01*
X128720023Y-84779977D02*
X128720023Y-85029977D01*
X112600000Y-76000000D02*
X112000000Y-76600000D01*
X130687500Y-77062500D02*
X134225000Y-80600000D01*
X128403732Y-74478732D02*
X132021268Y-74478732D01*
D34*
X121597889Y-63026633D02*
X122173367Y-63026633D01*
D33*
X98000000Y-65125000D02*
X98375000Y-64750000D01*
X106475000Y-100000000D02*
X107275000Y-100800000D01*
X109849808Y-100734302D02*
X107340698Y-100734302D01*
X110000000Y-64750000D02*
X110150000Y-64900000D01*
X109900000Y-75000000D02*
X109900000Y-74974500D01*
X100275000Y-104000000D02*
X104075000Y-104000000D01*
X118950000Y-101500000D02*
X118950000Y-103500000D01*
D34*
X126050000Y-62200000D02*
X127000000Y-61250000D01*
D33*
X118950000Y-103500000D02*
X118950000Y-103700000D01*
X121412500Y-79400000D02*
X116392894Y-79400000D01*
X104750000Y-113000000D02*
X106475000Y-113000000D01*
X117500000Y-87750000D02*
X118000000Y-87750000D01*
X119561159Y-81811159D02*
X120250000Y-82500000D01*
D34*
X106750000Y-100275000D02*
X107275000Y-100800000D01*
D33*
X105500000Y-57850000D02*
X105500000Y-58500000D01*
X118050000Y-67479227D02*
X118050000Y-72550000D01*
X112750000Y-79000000D02*
X112100000Y-79650000D01*
X112750000Y-79000000D02*
X113800000Y-77950000D01*
X112000000Y-76600000D02*
X111500000Y-76600000D01*
X121526273Y-79286227D02*
X121412500Y-79400000D01*
X114432591Y-73332591D02*
X114400000Y-73300000D01*
D34*
X119250000Y-66279227D02*
X119250000Y-64775002D01*
D33*
X127174738Y-56320000D02*
X127000000Y-56145262D01*
X135500000Y-79325000D02*
X134225000Y-80600000D01*
X112250000Y-58750000D02*
X111350000Y-57850000D01*
X119601475Y-67571248D02*
X118779727Y-66749500D01*
X115500000Y-82000000D02*
X115688841Y-81811159D01*
X118000000Y-87750000D02*
X118500000Y-87750000D01*
D34*
X118779727Y-66670273D02*
X118779727Y-66749500D01*
D33*
X104250000Y-60000000D02*
X101750000Y-60000000D01*
D35*
X127150000Y-72550000D02*
X128650000Y-72550000D01*
D33*
X109750000Y-111525000D02*
X114775000Y-106500000D01*
X128000000Y-74075000D02*
X128403732Y-74478732D01*
D34*
X108600000Y-80150000D02*
X108600000Y-79650000D01*
D33*
X98720000Y-86420000D02*
X98000000Y-85700000D01*
D34*
X125000000Y-62200000D02*
X126050000Y-62200000D01*
D33*
X109850000Y-72125000D02*
X109750000Y-72225000D01*
X108241619Y-81508381D02*
X107500000Y-82250000D01*
X112100000Y-79650000D02*
X108600000Y-79650000D01*
X117719773Y-80470273D02*
X117029727Y-80470273D01*
D34*
X127000000Y-61250000D02*
X127000000Y-56145262D01*
D33*
X120587500Y-101500000D02*
X118950000Y-101500000D01*
X111500000Y-76600000D02*
X109900000Y-75000000D01*
X134820000Y-74320000D02*
X135500000Y-75000000D01*
X117029727Y-80470273D02*
X115500000Y-82000000D01*
X109750000Y-74824500D02*
X109900000Y-74974500D01*
X128000000Y-73200000D02*
X128000000Y-74075000D01*
D34*
X127000000Y-56145262D02*
X125854738Y-55000000D01*
D33*
X111950000Y-72689339D02*
X111950000Y-74350000D01*
X104750000Y-100000000D02*
X106475000Y-100000000D01*
X107340698Y-100734302D02*
X107275000Y-100800000D01*
X101400000Y-86420000D02*
X98720000Y-86420000D01*
X118050000Y-72550000D02*
X119750000Y-74250000D01*
X119601475Y-68198314D02*
X119601475Y-67571248D01*
X118950000Y-103700000D02*
X120700000Y-105450000D01*
X106475000Y-113000000D02*
X107275000Y-112200000D01*
X111350000Y-57850000D02*
X105500000Y-57850000D01*
D34*
X118779727Y-66749500D02*
X119250000Y-66279227D01*
D35*
X125700000Y-71100000D02*
X127150000Y-72550000D01*
D33*
X113167550Y-72367550D02*
X112271789Y-72367550D01*
X108025000Y-112950000D02*
X107275000Y-112200000D01*
X98000000Y-65250000D02*
X98000000Y-65125000D01*
X109750000Y-112200000D02*
X109750000Y-111525000D01*
X100500000Y-56320000D02*
X101750000Y-57570000D01*
X98375000Y-64750000D02*
X110000000Y-64750000D01*
X111950000Y-74350000D02*
X112600000Y-75000000D01*
%TO.N,VDD*%
X106250000Y-59250000D02*
X109750000Y-62750000D01*
X103193363Y-63456637D02*
X103150000Y-63500000D01*
X106250000Y-58499500D02*
X106250000Y-59250000D01*
D32*
X109043363Y-63456637D02*
X109750000Y-62750000D01*
D33*
%TO.N,Net-(IC2-PB8-BOOT0)*%
X131824500Y-79475000D02*
X131824500Y-79700500D01*
X131824500Y-79700500D02*
X129950000Y-81575000D01*
%TO.N,Net-(LS1--)*%
X128750000Y-103000000D02*
X126500000Y-103000000D01*
X126500000Y-103000000D02*
X125000000Y-104500000D01*
X122900000Y-104500000D02*
X122900000Y-107012500D01*
X122900000Y-107012500D02*
X122412500Y-107500000D01*
X125000000Y-104500000D02*
X122900000Y-104500000D01*
%TO.N,/NRST*%
X127100500Y-75915233D02*
X127765733Y-75250000D01*
X127765733Y-75250000D02*
X133955000Y-75250000D01*
X133955000Y-75250000D02*
X134225000Y-75520000D01*
%TD*%
%TA.AperFunction,Conductor*%
%TO.N,/RED*%
G36*
X106887621Y-81520002D02*
G01*
X106934114Y-81573658D01*
X106945500Y-81626000D01*
X106945500Y-82209520D01*
X106944960Y-82217751D01*
X106940715Y-82249998D01*
X106940715Y-82250001D01*
X106945016Y-82282674D01*
X106945408Y-82286595D01*
X106945498Y-82287914D01*
X106950433Y-82323822D01*
X106959855Y-82395386D01*
X106960856Y-82400341D01*
X106961042Y-82401005D01*
X106961043Y-82401009D01*
X106974310Y-82431553D01*
X106989506Y-82466539D01*
X107015646Y-82529647D01*
X107018981Y-82535422D01*
X107021357Y-82540139D01*
X107021772Y-82540821D01*
X107064882Y-82593810D01*
X107104529Y-82645478D01*
X107110365Y-82651314D01*
X107109891Y-82651787D01*
X107111503Y-82653353D01*
X107111669Y-82653176D01*
X107117963Y-82659055D01*
X107117966Y-82659058D01*
X107117968Y-82659059D01*
X107117972Y-82659063D01*
X107171192Y-82696629D01*
X107220357Y-82734355D01*
X107220363Y-82734357D01*
X107227508Y-82738482D01*
X107227432Y-82738613D01*
X107242197Y-82746750D01*
X107242495Y-82746961D01*
X107263628Y-82754471D01*
X107299410Y-82767187D01*
X107302371Y-82768325D01*
X107355246Y-82790228D01*
X107356321Y-82790369D01*
X107382069Y-82796565D01*
X107386123Y-82798006D01*
X107442881Y-82801887D01*
X107446778Y-82802278D01*
X107453069Y-82803106D01*
X107500000Y-82809285D01*
X107504959Y-82808631D01*
X107530011Y-82807848D01*
X107538193Y-82808408D01*
X107538193Y-82808407D01*
X107538196Y-82808408D01*
X107590464Y-82797545D01*
X107595017Y-82796774D01*
X107644754Y-82790228D01*
X107652988Y-82786816D01*
X107675566Y-82779862D01*
X107687436Y-82777396D01*
X107731679Y-82754471D01*
X107736543Y-82752207D01*
X107779643Y-82734355D01*
X107789809Y-82726553D01*
X107808545Y-82714641D01*
X107822775Y-82707269D01*
X107856640Y-82675639D01*
X107861253Y-82671731D01*
X107895474Y-82645474D01*
X107905653Y-82632208D01*
X107919604Y-82616836D01*
X107934176Y-82603228D01*
X107956413Y-82566658D01*
X107960242Y-82561065D01*
X107984355Y-82529643D01*
X107992250Y-82510581D01*
X108000991Y-82493351D01*
X108013375Y-82472990D01*
X108023972Y-82435163D01*
X108026419Y-82428087D01*
X108040228Y-82394754D01*
X108043428Y-82370438D01*
X108047019Y-82352909D01*
X108054500Y-82326214D01*
X108054500Y-82319739D01*
X108074502Y-82251618D01*
X108091405Y-82230643D01*
X108285145Y-82036904D01*
X108347457Y-82002879D01*
X108374240Y-82000000D01*
X109874000Y-82000000D01*
X109942121Y-82020002D01*
X109988614Y-82073658D01*
X110000000Y-82126000D01*
X110000000Y-87874000D01*
X109979998Y-87942121D01*
X109926342Y-87988614D01*
X109874000Y-88000000D01*
X107302190Y-88000000D01*
X107234069Y-87979998D01*
X107213095Y-87963095D01*
X104761975Y-85511975D01*
X104738818Y-85477318D01*
X104738485Y-85477511D01*
X104735548Y-85472424D01*
X104734660Y-85471096D01*
X104734355Y-85470358D01*
X104645474Y-85354526D01*
X104645472Y-85354524D01*
X104645471Y-85354523D01*
X104529642Y-85265644D01*
X104529641Y-85265643D01*
X104528896Y-85265335D01*
X104527556Y-85264439D01*
X104522486Y-85261512D01*
X104522677Y-85261179D01*
X104515645Y-85256480D01*
X104484353Y-85243519D01*
X104468718Y-85240409D01*
X104394752Y-85209771D01*
X104250000Y-85190715D01*
X104105246Y-85209771D01*
X104105245Y-85209772D01*
X104031282Y-85240409D01*
X103983064Y-85250000D01*
X103766936Y-85250000D01*
X103718718Y-85240409D01*
X103644752Y-85209771D01*
X103500000Y-85190715D01*
X103355246Y-85209771D01*
X103355245Y-85209772D01*
X103281282Y-85240409D01*
X103233064Y-85250000D01*
X103016936Y-85250000D01*
X102968718Y-85240409D01*
X102894752Y-85209771D01*
X102750000Y-85190715D01*
X102605246Y-85209771D01*
X102605245Y-85209772D01*
X102531282Y-85240409D01*
X102483064Y-85250000D01*
X101887260Y-85250000D01*
X101834011Y-85238195D01*
X101830711Y-85236656D01*
X101830700Y-85236652D01*
X101741091Y-85212641D01*
X101618674Y-85179839D01*
X101400000Y-85160708D01*
X101181326Y-85179839D01*
X100969299Y-85236652D01*
X100969288Y-85236656D01*
X100965989Y-85238195D01*
X100912740Y-85250000D01*
X100126000Y-85250000D01*
X100057879Y-85229998D01*
X100011386Y-85176342D01*
X100000000Y-85124000D01*
X100000000Y-81626000D01*
X100020002Y-81557879D01*
X100073658Y-81511386D01*
X100126000Y-81500000D01*
X106819500Y-81500000D01*
X106887621Y-81520002D01*
G37*
%TD.AperFunction*%
%TD*%
%TA.AperFunction,Conductor*%
%TO.N,GND*%
G36*
X133001619Y-47000584D02*
G01*
X133133628Y-47007503D01*
X133317027Y-47017803D01*
X133323212Y-47018465D01*
X133475647Y-47042608D01*
X133638194Y-47070226D01*
X133643811Y-47071453D01*
X133796693Y-47112418D01*
X133889122Y-47139046D01*
X133951724Y-47157082D01*
X133956759Y-47158769D01*
X134106183Y-47216127D01*
X134254007Y-47277358D01*
X134258412Y-47279388D01*
X134324180Y-47312899D01*
X134401921Y-47352511D01*
X134477428Y-47394241D01*
X134541480Y-47429641D01*
X134545215Y-47431882D01*
X134619487Y-47480115D01*
X134680872Y-47519980D01*
X134768357Y-47582053D01*
X134810764Y-47612142D01*
X134813886Y-47614510D01*
X134938748Y-47715621D01*
X134941034Y-47717567D01*
X135058721Y-47822738D01*
X135061248Y-47825128D01*
X135174870Y-47938750D01*
X135177260Y-47941277D01*
X135282431Y-48058964D01*
X135284385Y-48061260D01*
X135385480Y-48186102D01*
X135387862Y-48189243D01*
X135480019Y-48319127D01*
X135533758Y-48401875D01*
X135568106Y-48454767D01*
X135570364Y-48458531D01*
X135647488Y-48598078D01*
X135720604Y-48741575D01*
X135722643Y-48745997D01*
X135783877Y-48893829D01*
X135841221Y-49043217D01*
X135842916Y-49048273D01*
X135887579Y-49203297D01*
X135928541Y-49356171D01*
X135929778Y-49361835D01*
X135957394Y-49524369D01*
X135981530Y-49676758D01*
X135982196Y-49682985D01*
X135992509Y-49866617D01*
X135999415Y-49998377D01*
X135999500Y-50001623D01*
X135999500Y-86433744D01*
X135979815Y-86500783D01*
X135927011Y-86546538D01*
X135857853Y-86556482D01*
X135794297Y-86527457D01*
X135787819Y-86521425D01*
X131209287Y-81942893D01*
X131209256Y-81942864D01*
X131188342Y-81921950D01*
X131188341Y-81921949D01*
X131168600Y-81911890D01*
X131152014Y-81901726D01*
X131134090Y-81888704D01*
X131134091Y-81888704D01*
X131113018Y-81881857D01*
X131095045Y-81874412D01*
X131075307Y-81864355D01*
X131075304Y-81864354D01*
X131053418Y-81860887D01*
X131034507Y-81856346D01*
X131013439Y-81849501D01*
X131013434Y-81849500D01*
X131013433Y-81849500D01*
X131013429Y-81849500D01*
X130610506Y-81849500D01*
X130543467Y-81829815D01*
X130497712Y-81777011D01*
X130487567Y-81709317D01*
X130493405Y-81664965D01*
X130498066Y-81629563D01*
X130526330Y-81565669D01*
X130533311Y-81558080D01*
X132129983Y-79961409D01*
X132152550Y-79938842D01*
X132157942Y-79928258D01*
X132192941Y-79886174D01*
X132217121Y-79867621D01*
X132305361Y-79752625D01*
X132360830Y-79618709D01*
X132379750Y-79475000D01*
X132360830Y-79331291D01*
X132305361Y-79197375D01*
X132217121Y-79082379D01*
X132102125Y-78994139D01*
X132102124Y-78994138D01*
X132102122Y-78994137D01*
X131968212Y-78938671D01*
X131968210Y-78938670D01*
X131968209Y-78938670D01*
X131896354Y-78929210D01*
X131824501Y-78919750D01*
X131824499Y-78919750D01*
X131680791Y-78938670D01*
X131680787Y-78938671D01*
X131546877Y-78994137D01*
X131431879Y-79082379D01*
X131343637Y-79197377D01*
X131288171Y-79331287D01*
X131288170Y-79331291D01*
X131269250Y-79475000D01*
X131286157Y-79603422D01*
X131286206Y-79603790D01*
X131275441Y-79672826D01*
X131250948Y-79707657D01*
X129966930Y-80991675D01*
X129905607Y-81025160D01*
X129895436Y-81026933D01*
X129806289Y-81038670D01*
X129672377Y-81094137D01*
X129557379Y-81182379D01*
X129469137Y-81297377D01*
X129413671Y-81431287D01*
X129413670Y-81431291D01*
X129395298Y-81570841D01*
X129394750Y-81575000D01*
X129412694Y-81711299D01*
X129413670Y-81718708D01*
X129413671Y-81718712D01*
X129469137Y-81852622D01*
X129469138Y-81852624D01*
X129469139Y-81852625D01*
X129539648Y-81944513D01*
X129557380Y-81967622D01*
X129559222Y-81969035D01*
X129560382Y-81970624D01*
X129563126Y-81973368D01*
X129562697Y-81973796D01*
X129600421Y-82025465D01*
X129604573Y-82095211D01*
X129571411Y-82155088D01*
X128362181Y-83364319D01*
X128300858Y-83397804D01*
X128231166Y-83392820D01*
X128175233Y-83350948D01*
X128150816Y-83285484D01*
X128150500Y-83276638D01*
X128150500Y-81900916D01*
X128154724Y-81868828D01*
X128157334Y-81859085D01*
X128158984Y-81854081D01*
X128159160Y-81853362D01*
X128159160Y-81853360D01*
X128159161Y-81853358D01*
X128159807Y-81847066D01*
X128164970Y-81822230D01*
X128166881Y-81816210D01*
X128168452Y-81770220D01*
X128168946Y-81764240D01*
X128174535Y-81721793D01*
X128174535Y-81713666D01*
X128175187Y-81713666D01*
X128175152Y-81711291D01*
X128174926Y-81711299D01*
X128174636Y-81702829D01*
X128174637Y-81702822D01*
X128173561Y-81696582D01*
X128171830Y-81671292D01*
X128172047Y-81664968D01*
X128161979Y-81623656D01*
X128160748Y-81617080D01*
X128155615Y-81578085D01*
X128155611Y-81578076D01*
X128153510Y-81570230D01*
X128153643Y-81570194D01*
X128149008Y-81554177D01*
X128148925Y-81553694D01*
X128146207Y-81547980D01*
X128137713Y-81524078D01*
X128136218Y-81517942D01*
X128117090Y-81483924D01*
X128113854Y-81477264D01*
X128110901Y-81470136D01*
X128100146Y-81444169D01*
X128099419Y-81443221D01*
X128085816Y-81420993D01*
X128083934Y-81417035D01*
X128083931Y-81417031D01*
X128082280Y-81415138D01*
X128079770Y-81412259D01*
X128065149Y-81391543D01*
X128062054Y-81386039D01*
X128062051Y-81386035D01*
X128036936Y-81360920D01*
X128031582Y-81354815D01*
X128011906Y-81329173D01*
X128007884Y-81326087D01*
X127989911Y-81309205D01*
X127984478Y-81302974D01*
X127984477Y-81302973D01*
X127979182Y-81299500D01*
X127959514Y-81283498D01*
X126766796Y-80090780D01*
X126733311Y-80029457D01*
X126730477Y-80003099D01*
X126730477Y-78189373D01*
X126731058Y-78172357D01*
X126732739Y-78123151D01*
X126732159Y-78120772D01*
X126722260Y-78080151D01*
X126721073Y-78073908D01*
X126719161Y-78060000D01*
X133119785Y-78060000D01*
X133138602Y-78263082D01*
X133194417Y-78459247D01*
X133194422Y-78459260D01*
X133285327Y-78641821D01*
X133408237Y-78804581D01*
X133558958Y-78941980D01*
X133558960Y-78941982D01*
X133621752Y-78980861D01*
X133732363Y-79049348D01*
X133922544Y-79123024D01*
X134123024Y-79160500D01*
X134123026Y-79160500D01*
X134326974Y-79160500D01*
X134326976Y-79160500D01*
X134527456Y-79123024D01*
X134717637Y-79049348D01*
X134891041Y-78941981D01*
X135041764Y-78804579D01*
X135164673Y-78641821D01*
X135255582Y-78459250D01*
X135311397Y-78263083D01*
X135330215Y-78060000D01*
X135327440Y-78030057D01*
X135311397Y-77856917D01*
X135298376Y-77811154D01*
X135255582Y-77660750D01*
X135243540Y-77636567D01*
X135197808Y-77544723D01*
X135164673Y-77478179D01*
X135041764Y-77315421D01*
X135041762Y-77315418D01*
X134891041Y-77178019D01*
X134891039Y-77178017D01*
X134717642Y-77070655D01*
X134717635Y-77070651D01*
X134621202Y-77033293D01*
X134527456Y-76996976D01*
X134326976Y-76959500D01*
X134123024Y-76959500D01*
X133922544Y-76996976D01*
X133922541Y-76996976D01*
X133922541Y-76996977D01*
X133732364Y-77070651D01*
X133732357Y-77070655D01*
X133558960Y-77178017D01*
X133558958Y-77178019D01*
X133408237Y-77315418D01*
X133285327Y-77478178D01*
X133194422Y-77660739D01*
X133194417Y-77660752D01*
X133138602Y-77856917D01*
X133119785Y-78059999D01*
X133119785Y-78060000D01*
X126719161Y-78060000D01*
X126718736Y-78056905D01*
X126715047Y-78030057D01*
X126710304Y-78019139D01*
X126707898Y-78013599D01*
X126701157Y-77993555D01*
X126696910Y-77976125D01*
X126689749Y-77963390D01*
X126675216Y-77937541D01*
X126672391Y-77931853D01*
X126659536Y-77902260D01*
X126654757Y-77891257D01*
X126643431Y-77877336D01*
X126631533Y-77859854D01*
X126628210Y-77853944D01*
X126622742Y-77844218D01*
X126591442Y-77812916D01*
X126587193Y-77808209D01*
X126559255Y-77773869D01*
X126545321Y-77764033D01*
X126544590Y-77763517D01*
X126528418Y-77749894D01*
X125236319Y-76457794D01*
X125202834Y-76396471D01*
X125200000Y-76370113D01*
X125200000Y-75915233D01*
X126545250Y-75915233D01*
X126564170Y-76058941D01*
X126564171Y-76058945D01*
X126619637Y-76192855D01*
X126619638Y-76192857D01*
X126619639Y-76192858D01*
X126707879Y-76307854D01*
X126822875Y-76396094D01*
X126822876Y-76396094D01*
X126822877Y-76396095D01*
X126837090Y-76401982D01*
X126956791Y-76451563D01*
X127083780Y-76468281D01*
X127100499Y-76470483D01*
X127100500Y-76470483D01*
X127100501Y-76470483D01*
X127115477Y-76468511D01*
X127244209Y-76451563D01*
X127378125Y-76396094D01*
X127493121Y-76307854D01*
X127581361Y-76192858D01*
X127636830Y-76058942D01*
X127648566Y-75969795D01*
X127676831Y-75905901D01*
X127683798Y-75898326D01*
X127895308Y-75686816D01*
X127956630Y-75653334D01*
X127982988Y-75650500D01*
X133024311Y-75650500D01*
X133091350Y-75670185D01*
X133137105Y-75722989D01*
X133143577Y-75740565D01*
X133194417Y-75919247D01*
X133194422Y-75919260D01*
X133285327Y-76101821D01*
X133408237Y-76264581D01*
X133558958Y-76401980D01*
X133558960Y-76401982D01*
X133639035Y-76451562D01*
X133732363Y-76509348D01*
X133922544Y-76583024D01*
X134123024Y-76620500D01*
X134123026Y-76620500D01*
X134326974Y-76620500D01*
X134326976Y-76620500D01*
X134527456Y-76583024D01*
X134717637Y-76509348D01*
X134891041Y-76401981D01*
X135041764Y-76264579D01*
X135164673Y-76101821D01*
X135255582Y-75919250D01*
X135311397Y-75723083D01*
X135330215Y-75520000D01*
X135311397Y-75316917D01*
X135255582Y-75120750D01*
X135251861Y-75113278D01*
X135201810Y-75012760D01*
X135164673Y-74938179D01*
X135065520Y-74806879D01*
X135041762Y-74775418D01*
X134891041Y-74638019D01*
X134891039Y-74638017D01*
X134717642Y-74530655D01*
X134717635Y-74530651D01*
X134598517Y-74484505D01*
X134527456Y-74456976D01*
X134326976Y-74419500D01*
X134123024Y-74419500D01*
X133922544Y-74456976D01*
X133922541Y-74456976D01*
X133922541Y-74456977D01*
X133732364Y-74530651D01*
X133732357Y-74530655D01*
X133558960Y-74638017D01*
X133558958Y-74638019D01*
X133408236Y-74775419D01*
X133389502Y-74800228D01*
X133333393Y-74841863D01*
X133290549Y-74849500D01*
X127829166Y-74849500D01*
X127702300Y-74849500D01*
X127684358Y-74855328D01*
X127681224Y-74856347D01*
X127662320Y-74860885D01*
X127640429Y-74864353D01*
X127620689Y-74874411D01*
X127602720Y-74881854D01*
X127581645Y-74888702D01*
X127581644Y-74888702D01*
X127563714Y-74901729D01*
X127547130Y-74911891D01*
X127527393Y-74921947D01*
X127527393Y-74921948D01*
X127504827Y-74944513D01*
X127504824Y-74944516D01*
X127117430Y-75331908D01*
X127056107Y-75365393D01*
X127045936Y-75367166D01*
X126956789Y-75378903D01*
X126822877Y-75434370D01*
X126707879Y-75522612D01*
X126619637Y-75637610D01*
X126564171Y-75771520D01*
X126564170Y-75771524D01*
X126545250Y-75915232D01*
X126545250Y-75915233D01*
X125200000Y-75915233D01*
X125200000Y-75393926D01*
X125200914Y-75367166D01*
X125202262Y-75327703D01*
X125191783Y-75284703D01*
X125190596Y-75278460D01*
X125184570Y-75234611D01*
X125184570Y-75234609D01*
X125177421Y-75218151D01*
X125170680Y-75198107D01*
X125166433Y-75180677D01*
X125159272Y-75167942D01*
X125144739Y-75142093D01*
X125141914Y-75136405D01*
X125131868Y-75113278D01*
X125124280Y-75095809D01*
X125112954Y-75081888D01*
X125101056Y-75064406D01*
X125092264Y-75048769D01*
X125060972Y-75017477D01*
X125056715Y-75012760D01*
X125028778Y-74978421D01*
X125014113Y-74968069D01*
X124997941Y-74954446D01*
X124336819Y-74293323D01*
X124303334Y-74232000D01*
X124300500Y-74205642D01*
X124300500Y-71900536D01*
X124320185Y-71833497D01*
X124372989Y-71787742D01*
X124440683Y-71777597D01*
X124499500Y-71785341D01*
X124643209Y-71766421D01*
X124777125Y-71710952D01*
X124892121Y-71622712D01*
X124980361Y-71507716D01*
X125035830Y-71373800D01*
X125054750Y-71230091D01*
X125035830Y-71086382D01*
X124980361Y-70952466D01*
X124892121Y-70837470D01*
X124777125Y-70749230D01*
X124777124Y-70749229D01*
X124777122Y-70749228D01*
X124643212Y-70693762D01*
X124643210Y-70693761D01*
X124643209Y-70693761D01*
X124594509Y-70687349D01*
X124554063Y-70682024D01*
X124490166Y-70653757D01*
X124482568Y-70646766D01*
X121986819Y-68151017D01*
X121953334Y-68089694D01*
X121950500Y-68063336D01*
X121950500Y-67216255D01*
X121970185Y-67149216D01*
X122022989Y-67103461D01*
X122092147Y-67093517D01*
X122155703Y-67122542D01*
X122162181Y-67128574D01*
X123527203Y-68493596D01*
X123560688Y-68554919D01*
X123562461Y-68597462D01*
X123549684Y-68694516D01*
X123549028Y-68699500D01*
X123567900Y-68842848D01*
X123567948Y-68843208D01*
X123567949Y-68843212D01*
X123623415Y-68977122D01*
X123623416Y-68977124D01*
X123623417Y-68977125D01*
X123711657Y-69092121D01*
X123826653Y-69180361D01*
X123960569Y-69235830D01*
X124087558Y-69252548D01*
X124104277Y-69254750D01*
X124104278Y-69254750D01*
X124104279Y-69254750D01*
X124127123Y-69251742D01*
X124206315Y-69241316D01*
X124275349Y-69252081D01*
X124310181Y-69276574D01*
X126379259Y-71345652D01*
X126406139Y-71385880D01*
X126426465Y-71434951D01*
X126514705Y-71549947D01*
X126629701Y-71638187D01*
X126629702Y-71638187D01*
X126629703Y-71638188D01*
X126658394Y-71650072D01*
X126763617Y-71693656D01*
X126890606Y-71710374D01*
X126907325Y-71712576D01*
X126907326Y-71712576D01*
X126907327Y-71712576D01*
X126922303Y-71710604D01*
X127051035Y-71693656D01*
X127184951Y-71638187D01*
X127299947Y-71549947D01*
X127377397Y-71449011D01*
X127433824Y-71407811D01*
X127475772Y-71400500D01*
X130233746Y-71400500D01*
X130300785Y-71420185D01*
X130346540Y-71472989D01*
X130356484Y-71542147D01*
X130327459Y-71605703D01*
X130321430Y-71612177D01*
X130054107Y-71879500D01*
X128846907Y-73086698D01*
X128785584Y-73120183D01*
X128775413Y-73121956D01*
X128686266Y-73133693D01*
X128552354Y-73189160D01*
X128437356Y-73277402D01*
X128349114Y-73392400D01*
X128293648Y-73526310D01*
X128293647Y-73526314D01*
X128274727Y-73670022D01*
X128274727Y-73670023D01*
X128293647Y-73813731D01*
X128293648Y-73813735D01*
X128349114Y-73947645D01*
X128349115Y-73947647D01*
X128349116Y-73947648D01*
X128437356Y-74062644D01*
X128552352Y-74150884D01*
X128686268Y-74206353D01*
X128813257Y-74223071D01*
X128829976Y-74225273D01*
X128829977Y-74225273D01*
X128829978Y-74225273D01*
X128844954Y-74223301D01*
X128973686Y-74206353D01*
X129107602Y-74150884D01*
X129222598Y-74062644D01*
X129310838Y-73947648D01*
X129366307Y-73813732D01*
X129378043Y-73724585D01*
X129406308Y-73660691D01*
X129413288Y-73653103D01*
X131387819Y-71678573D01*
X131449142Y-71645088D01*
X131518834Y-71650072D01*
X131574767Y-71691944D01*
X131599184Y-71757408D01*
X131599500Y-71766254D01*
X131599500Y-72382744D01*
X131579815Y-72449783D01*
X131563181Y-72470425D01*
X131216930Y-72816675D01*
X131155607Y-72850160D01*
X131145436Y-72851933D01*
X131056289Y-72863670D01*
X130922377Y-72919137D01*
X130807379Y-73007379D01*
X130719137Y-73122377D01*
X130663671Y-73256287D01*
X130663670Y-73256291D01*
X130645751Y-73392400D01*
X130644750Y-73400000D01*
X130659254Y-73510170D01*
X130663670Y-73543708D01*
X130663671Y-73543712D01*
X130719137Y-73677622D01*
X130719138Y-73677624D01*
X130719139Y-73677625D01*
X130807379Y-73792621D01*
X130922375Y-73880861D01*
X131056291Y-73936330D01*
X131183280Y-73953048D01*
X131199999Y-73955250D01*
X131200000Y-73955250D01*
X131200001Y-73955250D01*
X131214977Y-73953278D01*
X131343709Y-73936330D01*
X131477625Y-73880861D01*
X131592621Y-73792621D01*
X131680861Y-73677625D01*
X131736330Y-73543709D01*
X131748066Y-73454562D01*
X131776331Y-73390668D01*
X131783310Y-73383081D01*
X132186393Y-72980000D01*
X133119785Y-72980000D01*
X133138602Y-73183082D01*
X133194417Y-73379247D01*
X133194422Y-73379260D01*
X133285327Y-73561821D01*
X133408237Y-73724581D01*
X133558958Y-73861980D01*
X133558960Y-73861982D01*
X133658141Y-73923392D01*
X133732363Y-73969348D01*
X133922544Y-74043024D01*
X134123024Y-74080500D01*
X134123026Y-74080500D01*
X134326974Y-74080500D01*
X134326976Y-74080500D01*
X134527456Y-74043024D01*
X134717637Y-73969348D01*
X134891041Y-73861981D01*
X135041764Y-73724579D01*
X135164673Y-73561821D01*
X135255582Y-73379250D01*
X135311397Y-73183083D01*
X135330215Y-72980000D01*
X135329644Y-72973843D01*
X135311397Y-72776917D01*
X135296605Y-72724929D01*
X135255582Y-72580750D01*
X135252850Y-72575264D01*
X135200647Y-72470425D01*
X135164673Y-72398179D01*
X135071844Y-72275253D01*
X135041762Y-72235418D01*
X134891041Y-72098019D01*
X134891039Y-72098017D01*
X134717642Y-71990655D01*
X134717635Y-71990651D01*
X134622546Y-71953814D01*
X134527456Y-71916976D01*
X134326976Y-71879500D01*
X134123024Y-71879500D01*
X133922544Y-71916976D01*
X133922541Y-71916976D01*
X133922541Y-71916977D01*
X133732364Y-71990651D01*
X133732357Y-71990655D01*
X133558960Y-72098017D01*
X133558958Y-72098019D01*
X133408237Y-72235418D01*
X133285327Y-72398178D01*
X133194422Y-72580739D01*
X133194417Y-72580752D01*
X133138602Y-72776917D01*
X133119785Y-72979999D01*
X133119785Y-72980000D01*
X132186393Y-72980000D01*
X132305484Y-72860909D01*
X132305484Y-72860908D01*
X132312552Y-72853841D01*
X132312557Y-72853834D01*
X132328050Y-72838342D01*
X132338109Y-72818598D01*
X132348269Y-72802018D01*
X132361296Y-72784089D01*
X132368142Y-72763017D01*
X132375588Y-72745043D01*
X132385645Y-72725305D01*
X132385646Y-72725304D01*
X132389112Y-72703416D01*
X132393651Y-72684510D01*
X132400500Y-72663433D01*
X132400500Y-72536567D01*
X132400500Y-70657820D01*
X132400500Y-70625906D01*
X132393652Y-70604830D01*
X132389111Y-70585917D01*
X132385646Y-70564035D01*
X132375588Y-70544297D01*
X132368142Y-70526320D01*
X132361296Y-70505249D01*
X132348269Y-70487320D01*
X132338104Y-70470731D01*
X132328050Y-70450997D01*
X132238342Y-70361289D01*
X131819948Y-69942893D01*
X131819917Y-69942864D01*
X131799003Y-69921950D01*
X131799002Y-69921949D01*
X131779261Y-69911890D01*
X131762675Y-69901726D01*
X131744751Y-69888704D01*
X131744752Y-69888704D01*
X131723679Y-69881857D01*
X131705706Y-69874412D01*
X131685968Y-69864355D01*
X131685965Y-69864354D01*
X131664079Y-69860887D01*
X131645168Y-69856346D01*
X131624100Y-69849501D01*
X131624095Y-69849500D01*
X131624094Y-69849500D01*
X131624090Y-69849500D01*
X127854155Y-69849500D01*
X127787116Y-69829815D01*
X127766474Y-69813181D01*
X127565474Y-69612181D01*
X127531989Y-69550858D01*
X127536973Y-69481166D01*
X127578845Y-69425233D01*
X127644309Y-69400816D01*
X127653155Y-69400500D01*
X132567745Y-69400500D01*
X132634784Y-69420185D01*
X132655426Y-69436819D01*
X133157274Y-69938667D01*
X133190759Y-69999990D01*
X133188860Y-70060282D01*
X133138602Y-70236921D01*
X133119785Y-70439999D01*
X133119785Y-70440000D01*
X133138602Y-70643082D01*
X133194417Y-70839247D01*
X133194422Y-70839260D01*
X133285327Y-71021821D01*
X133408237Y-71184581D01*
X133558958Y-71321980D01*
X133558960Y-71321982D01*
X133658141Y-71383392D01*
X133732363Y-71429348D01*
X133922544Y-71503024D01*
X134123024Y-71540500D01*
X134123026Y-71540500D01*
X134326974Y-71540500D01*
X134326976Y-71540500D01*
X134527456Y-71503024D01*
X134717637Y-71429348D01*
X134891041Y-71321981D01*
X135031200Y-71194209D01*
X135041762Y-71184581D01*
X135045220Y-71180002D01*
X135164673Y-71021821D01*
X135255582Y-70839250D01*
X135311397Y-70643083D01*
X135330215Y-70440000D01*
X135311397Y-70236917D01*
X135255582Y-70040750D01*
X135164673Y-69858179D01*
X135069769Y-69732506D01*
X135041762Y-69695418D01*
X134891041Y-69558019D01*
X134891039Y-69558017D01*
X134717642Y-69450655D01*
X134717635Y-69450651D01*
X134592069Y-69402007D01*
X134527456Y-69376976D01*
X134326976Y-69339500D01*
X134123024Y-69339500D01*
X134022784Y-69358238D01*
X133922542Y-69376976D01*
X133922534Y-69376979D01*
X133857927Y-69402007D01*
X133788303Y-69407868D01*
X133726564Y-69375158D01*
X133725454Y-69374061D01*
X133044287Y-68692893D01*
X133044256Y-68692864D01*
X133023342Y-68671950D01*
X133023341Y-68671949D01*
X133003600Y-68661890D01*
X132987014Y-68651726D01*
X132969090Y-68638704D01*
X132969091Y-68638704D01*
X132948018Y-68631857D01*
X132930045Y-68624412D01*
X132910307Y-68614355D01*
X132910304Y-68614354D01*
X132888418Y-68610887D01*
X132869507Y-68606346D01*
X132848439Y-68599501D01*
X132848434Y-68599500D01*
X132848433Y-68599500D01*
X132848429Y-68599500D01*
X127664817Y-68599500D01*
X127597778Y-68579815D01*
X127577136Y-68563181D01*
X127473042Y-68459087D01*
X127439557Y-68397764D01*
X127437788Y-68387620D01*
X127435520Y-68370388D01*
X127380051Y-68236472D01*
X127291811Y-68121476D01*
X127176815Y-68033236D01*
X127176814Y-68033235D01*
X127176812Y-68033234D01*
X127042902Y-67977768D01*
X127042900Y-67977767D01*
X127042899Y-67977767D01*
X126971044Y-67968307D01*
X126899191Y-67958847D01*
X126899189Y-67958847D01*
X126755481Y-67977767D01*
X126755477Y-67977768D01*
X126621566Y-68033235D01*
X126621565Y-68033235D01*
X126584470Y-68061699D01*
X126519300Y-68086892D01*
X126450856Y-68072853D01*
X126410610Y-68038809D01*
X126387991Y-68009332D01*
X126367693Y-67982879D01*
X126252697Y-67894639D01*
X126252696Y-67894638D01*
X126252694Y-67894637D01*
X126118784Y-67839171D01*
X126118782Y-67839170D01*
X126118781Y-67839170D01*
X126015352Y-67825553D01*
X125975073Y-67820250D01*
X125975071Y-67820250D01*
X125831363Y-67839170D01*
X125831359Y-67839171D01*
X125697449Y-67894637D01*
X125582451Y-67982879D01*
X125494209Y-68097877D01*
X125438743Y-68231787D01*
X125438742Y-68231791D01*
X125420496Y-68370384D01*
X125419822Y-68375500D01*
X125433693Y-68480862D01*
X125438742Y-68519208D01*
X125438743Y-68519212D01*
X125494209Y-68653122D01*
X125494210Y-68653124D01*
X125494211Y-68653125D01*
X125582451Y-68768121D01*
X125618239Y-68795582D01*
X125643068Y-68821071D01*
X125647020Y-68826511D01*
X125668025Y-68847516D01*
X125668052Y-68847545D01*
X127208328Y-70387819D01*
X127241813Y-70449142D01*
X127236829Y-70518833D01*
X127194957Y-70574767D01*
X127129493Y-70599184D01*
X127120647Y-70599500D01*
X127001217Y-70599500D01*
X126995178Y-70601462D01*
X126940687Y-70606467D01*
X126907330Y-70602076D01*
X126907324Y-70602076D01*
X126845248Y-70610248D01*
X126776213Y-70599482D01*
X126741383Y-70574990D01*
X124577700Y-68411307D01*
X124572347Y-68405203D01*
X124496899Y-68306879D01*
X124496898Y-68306878D01*
X124398572Y-68231429D01*
X124392469Y-68226076D01*
X122486819Y-66320426D01*
X122453334Y-66259103D01*
X122450500Y-66232745D01*
X122450500Y-65854652D01*
X122465896Y-65797194D01*
X122465751Y-65797134D01*
X122466210Y-65796025D01*
X122467115Y-65792649D01*
X122468856Y-65789631D01*
X122468861Y-65789625D01*
X122524330Y-65655709D01*
X122543250Y-65512000D01*
X122542104Y-65503299D01*
X122532922Y-65433553D01*
X122524330Y-65368291D01*
X122510105Y-65333950D01*
X122502638Y-65264482D01*
X122533914Y-65202003D01*
X122594003Y-65166351D01*
X122624668Y-65162500D01*
X123944745Y-65162500D01*
X124011784Y-65182185D01*
X124032426Y-65198819D01*
X126340986Y-67507380D01*
X126341006Y-67507398D01*
X126361658Y-67528050D01*
X126381398Y-67538108D01*
X126397987Y-67548274D01*
X126415909Y-67561295D01*
X126415910Y-67561295D01*
X126415911Y-67561296D01*
X126436980Y-67568142D01*
X126454949Y-67575584D01*
X126474696Y-67585646D01*
X126496582Y-67589112D01*
X126515497Y-67593653D01*
X126536567Y-67600500D01*
X126568481Y-67600500D01*
X132807745Y-67600500D01*
X132874784Y-67620185D01*
X132895426Y-67636819D01*
X133084161Y-67825553D01*
X133117646Y-67886876D01*
X133119951Y-67901793D01*
X133138602Y-68103082D01*
X133194417Y-68299247D01*
X133194422Y-68299260D01*
X133285327Y-68481821D01*
X133408237Y-68644581D01*
X133558958Y-68781980D01*
X133558960Y-68781982D01*
X133630881Y-68826513D01*
X133732363Y-68889348D01*
X133922544Y-68963024D01*
X134123024Y-69000500D01*
X134123026Y-69000500D01*
X134326974Y-69000500D01*
X134326976Y-69000500D01*
X134527456Y-68963024D01*
X134717637Y-68889348D01*
X134891041Y-68781981D01*
X135027632Y-68657462D01*
X135041762Y-68644581D01*
X135041764Y-68644579D01*
X135164673Y-68481821D01*
X135255582Y-68299250D01*
X135311397Y-68103083D01*
X135330215Y-67900000D01*
X135327484Y-67870532D01*
X135311397Y-67696917D01*
X135294297Y-67636819D01*
X135255582Y-67500750D01*
X135237118Y-67463670D01*
X135211272Y-67411764D01*
X135164673Y-67318179D01*
X135041764Y-67155421D01*
X135041762Y-67155418D01*
X134891041Y-67018019D01*
X134891039Y-67018017D01*
X134717642Y-66910655D01*
X134717635Y-66910651D01*
X134565530Y-66851726D01*
X134527456Y-66836976D01*
X134326976Y-66799500D01*
X134123024Y-66799500D01*
X133922544Y-66836976D01*
X133922541Y-66836976D01*
X133922541Y-66836977D01*
X133732364Y-66910651D01*
X133732357Y-66910655D01*
X133554084Y-67021037D01*
X133553325Y-67019811D01*
X133494475Y-67042029D01*
X133426144Y-67027449D01*
X133397457Y-67006064D01*
X133285909Y-66894516D01*
X133285908Y-66894515D01*
X133284271Y-66892878D01*
X133284256Y-66892864D01*
X133263342Y-66871950D01*
X133263341Y-66871949D01*
X133243600Y-66861890D01*
X133227014Y-66851726D01*
X133209090Y-66838704D01*
X133209091Y-66838704D01*
X133188018Y-66831857D01*
X133170045Y-66824412D01*
X133150307Y-66814355D01*
X133150304Y-66814354D01*
X133128418Y-66810887D01*
X133109507Y-66806346D01*
X133088439Y-66799501D01*
X133088434Y-66799500D01*
X133088433Y-66799500D01*
X133088429Y-66799500D01*
X130406185Y-66799500D01*
X130339146Y-66779815D01*
X130293391Y-66727011D01*
X130283447Y-66657853D01*
X130286296Y-66643960D01*
X130286328Y-66643712D01*
X130286330Y-66643709D01*
X130298066Y-66554563D01*
X130326331Y-66490669D01*
X130333325Y-66483067D01*
X130379577Y-66436817D01*
X130440901Y-66403333D01*
X130467256Y-66400500D01*
X133813435Y-66400500D01*
X133816592Y-66400000D01*
X133821280Y-66400500D01*
X133823192Y-66400500D01*
X133823192Y-66400703D01*
X133880783Y-66406845D01*
X133922544Y-66423024D01*
X134123024Y-66460500D01*
X134123026Y-66460500D01*
X134326974Y-66460500D01*
X134326976Y-66460500D01*
X134527456Y-66423024D01*
X134717637Y-66349348D01*
X134891041Y-66241981D01*
X135039886Y-66106291D01*
X135041762Y-66104581D01*
X135047494Y-66096991D01*
X135164673Y-65941821D01*
X135255582Y-65759250D01*
X135311397Y-65563083D01*
X135330215Y-65360000D01*
X135311397Y-65156917D01*
X135255582Y-64960750D01*
X135164673Y-64778179D01*
X135041764Y-64615421D01*
X135041762Y-64615418D01*
X134891041Y-64478019D01*
X134891039Y-64478017D01*
X134717642Y-64370655D01*
X134717635Y-64370651D01*
X134583558Y-64318710D01*
X134527456Y-64296976D01*
X134326976Y-64259500D01*
X134123024Y-64259500D01*
X133922544Y-64296976D01*
X133922541Y-64296976D01*
X133922541Y-64296977D01*
X133732364Y-64370651D01*
X133732357Y-64370655D01*
X133558960Y-64478017D01*
X133558958Y-64478019D01*
X133408237Y-64615419D01*
X133313682Y-64740630D01*
X133257573Y-64782266D01*
X133187861Y-64786957D01*
X133126679Y-64753215D01*
X133100167Y-64713355D01*
X133099327Y-64711328D01*
X133076352Y-64655859D01*
X133062730Y-64622972D01*
X133062729Y-64622971D01*
X133062729Y-64622970D01*
X132974489Y-64507974D01*
X132859493Y-64419734D01*
X132859492Y-64419733D01*
X132859490Y-64419732D01*
X132725580Y-64364266D01*
X132725578Y-64364265D01*
X132725577Y-64364265D01*
X132672231Y-64357241D01*
X132636430Y-64352528D01*
X132572533Y-64324261D01*
X132564935Y-64317270D01*
X132115558Y-63867891D01*
X132115527Y-63867862D01*
X132094613Y-63846948D01*
X132094612Y-63846947D01*
X132074871Y-63836888D01*
X132058285Y-63826724D01*
X132040361Y-63813702D01*
X132040362Y-63813702D01*
X132019289Y-63806855D01*
X132001316Y-63799410D01*
X131981578Y-63789353D01*
X131981575Y-63789352D01*
X131959689Y-63785885D01*
X131940778Y-63781344D01*
X131919710Y-63774499D01*
X131919705Y-63774498D01*
X131919704Y-63774498D01*
X131919700Y-63774498D01*
X127924446Y-63774498D01*
X127857407Y-63754813D01*
X127848960Y-63748874D01*
X127777625Y-63694137D01*
X127777623Y-63694136D01*
X127643712Y-63638669D01*
X127643710Y-63638668D01*
X127643709Y-63638668D01*
X127571854Y-63629208D01*
X127500001Y-63619748D01*
X127499999Y-63619748D01*
X127356291Y-63638668D01*
X127356287Y-63638669D01*
X127222377Y-63694135D01*
X127107379Y-63782377D01*
X127019137Y-63897375D01*
X126963671Y-64031285D01*
X126963670Y-64031289D01*
X126944750Y-64174997D01*
X126944750Y-64174998D01*
X126963670Y-64318706D01*
X126963671Y-64318710D01*
X127019137Y-64452620D01*
X127019138Y-64452622D01*
X127019139Y-64452623D01*
X127107379Y-64567619D01*
X127222375Y-64655859D01*
X127222376Y-64655859D01*
X127222377Y-64655860D01*
X127254704Y-64669250D01*
X127356291Y-64711328D01*
X127483280Y-64728046D01*
X127499999Y-64730248D01*
X127500000Y-64730248D01*
X127500001Y-64730248D01*
X127514977Y-64728276D01*
X127643709Y-64711328D01*
X127777625Y-64655859D01*
X127830327Y-64615419D01*
X127848960Y-64601122D01*
X127914129Y-64575928D01*
X127924446Y-64575498D01*
X131639016Y-64575498D01*
X131706055Y-64595183D01*
X131726697Y-64611817D01*
X131998543Y-64883662D01*
X132032028Y-64944985D01*
X132033801Y-64955157D01*
X132045538Y-65044302D01*
X132045539Y-65044307D01*
X132101005Y-65178217D01*
X132101006Y-65178219D01*
X132101007Y-65178220D01*
X132189247Y-65293216D01*
X132241525Y-65333331D01*
X132298598Y-65377125D01*
X132339800Y-65433553D01*
X132343955Y-65503299D01*
X132309742Y-65564219D01*
X132248025Y-65596971D01*
X132223111Y-65599500D01*
X130313433Y-65599500D01*
X130186567Y-65599500D01*
X130186564Y-65599500D01*
X130186562Y-65599501D01*
X130165490Y-65606347D01*
X130146582Y-65610886D01*
X130124698Y-65614353D01*
X130124694Y-65614354D01*
X130104951Y-65624413D01*
X130086987Y-65631854D01*
X130065911Y-65638703D01*
X130047985Y-65651727D01*
X130031400Y-65661890D01*
X130011659Y-65671948D01*
X130011659Y-65671949D01*
X129989094Y-65694513D01*
X129989091Y-65694516D01*
X129766930Y-65916676D01*
X129705607Y-65950160D01*
X129695436Y-65951933D01*
X129606289Y-65963670D01*
X129472377Y-66019137D01*
X129357379Y-66107379D01*
X129269137Y-66222377D01*
X129213671Y-66356287D01*
X129213670Y-66356291D01*
X129204885Y-66423022D01*
X129194750Y-66500000D01*
X129208890Y-66607405D01*
X129214731Y-66651766D01*
X129213387Y-66651942D01*
X129211924Y-66713263D01*
X129172758Y-66771124D01*
X129108528Y-66798624D01*
X129093814Y-66799500D01*
X126817255Y-66799500D01*
X126750216Y-66779815D01*
X126729574Y-66763181D01*
X124421287Y-64454893D01*
X124421256Y-64454864D01*
X124400342Y-64433950D01*
X124400341Y-64433949D01*
X124380600Y-64423890D01*
X124364014Y-64413726D01*
X124346090Y-64400704D01*
X124346091Y-64400704D01*
X124325018Y-64393857D01*
X124307045Y-64386412D01*
X124287307Y-64376355D01*
X124287304Y-64376354D01*
X124265418Y-64372887D01*
X124246507Y-64368346D01*
X124225439Y-64361501D01*
X124225434Y-64361500D01*
X124225433Y-64361500D01*
X124193519Y-64361500D01*
X121645820Y-64361500D01*
X121643287Y-64361500D01*
X121643263Y-64361501D01*
X121613903Y-64361501D01*
X121592838Y-64368346D01*
X121573921Y-64372887D01*
X121552039Y-64376352D01*
X121552034Y-64376354D01*
X121532289Y-64386414D01*
X121514325Y-64393855D01*
X121493246Y-64400705D01*
X121475323Y-64413727D01*
X121458738Y-64423890D01*
X121438998Y-64433948D01*
X121416432Y-64456515D01*
X121416430Y-64456517D01*
X121237181Y-64635765D01*
X121175858Y-64669250D01*
X121106166Y-64664266D01*
X121050233Y-64622394D01*
X121025816Y-64556930D01*
X121025500Y-64548084D01*
X121025500Y-64050323D01*
X121025499Y-64050321D01*
X121010967Y-63977264D01*
X121010966Y-63977260D01*
X120955601Y-63894399D01*
X120905608Y-63860995D01*
X120860804Y-63807382D01*
X120850500Y-63757893D01*
X120850500Y-62479386D01*
X120870185Y-62412347D01*
X120886814Y-62391710D01*
X122227821Y-61050702D01*
X122289142Y-61017219D01*
X122358832Y-61022202D01*
X122358834Y-61022203D01*
X122358834Y-61022204D01*
X122417508Y-61044088D01*
X122417511Y-61044088D01*
X122417517Y-61044091D01*
X122477127Y-61050500D01*
X123522872Y-61050499D01*
X123582483Y-61044091D01*
X123717331Y-60993796D01*
X123832546Y-60907546D01*
X123838052Y-60900191D01*
X123893985Y-60858319D01*
X123937320Y-60850500D01*
X124062680Y-60850500D01*
X124129719Y-60870185D01*
X124161948Y-60900191D01*
X124167454Y-60907546D01*
X124167457Y-60907548D01*
X124282664Y-60993793D01*
X124282671Y-60993797D01*
X124417517Y-61044091D01*
X124417516Y-61044091D01*
X124424444Y-61044835D01*
X124477127Y-61050500D01*
X125522872Y-61050499D01*
X125582483Y-61044091D01*
X125717331Y-60993796D01*
X125832546Y-60907546D01*
X125918796Y-60792331D01*
X125969091Y-60657483D01*
X125975500Y-60597873D01*
X125975499Y-60002128D01*
X125969091Y-59942517D01*
X125966430Y-59935383D01*
X125918797Y-59807671D01*
X125918793Y-59807664D01*
X125832547Y-59692455D01*
X125832544Y-59692452D01*
X125717335Y-59606206D01*
X125717330Y-59606203D01*
X125631166Y-59574066D01*
X125575233Y-59532194D01*
X125550816Y-59466730D01*
X125550500Y-59457884D01*
X125550500Y-58779386D01*
X125570185Y-58712347D01*
X125586819Y-58691705D01*
X125635316Y-58643208D01*
X125772604Y-58505920D01*
X125821044Y-58460680D01*
X125844048Y-58422849D01*
X125847613Y-58417611D01*
X125864964Y-58394732D01*
X125874359Y-58382345D01*
X125874359Y-58382344D01*
X125874361Y-58382342D01*
X125880945Y-58365643D01*
X125890344Y-58346719D01*
X125899672Y-58331382D01*
X125911619Y-58288739D01*
X125913632Y-58282753D01*
X125929876Y-58241564D01*
X125931711Y-58223716D01*
X125935658Y-58202944D01*
X125940500Y-58185665D01*
X125940500Y-58141406D01*
X125940825Y-58135061D01*
X125945352Y-58091029D01*
X125942303Y-58073344D01*
X125940500Y-58052276D01*
X125940500Y-57236678D01*
X125960185Y-57169639D01*
X125985836Y-57140824D01*
X126109410Y-57039410D01*
X126235936Y-56885237D01*
X126329954Y-56709342D01*
X126387850Y-56518485D01*
X126407399Y-56320000D01*
X126387850Y-56121515D01*
X126329954Y-55930658D01*
X126329951Y-55930654D01*
X126329951Y-55930651D01*
X126235939Y-55754768D01*
X126235937Y-55754766D01*
X126235936Y-55754763D01*
X126125897Y-55620679D01*
X126109410Y-55600589D01*
X125955238Y-55474065D01*
X125955231Y-55474060D01*
X125779348Y-55380048D01*
X125779342Y-55380046D01*
X125588485Y-55322150D01*
X125588483Y-55322149D01*
X125588481Y-55322149D01*
X125390000Y-55302601D01*
X125191518Y-55322149D01*
X125000651Y-55380048D01*
X124824768Y-55474060D01*
X124824761Y-55474065D01*
X124670589Y-55600589D01*
X124544065Y-55754761D01*
X124544060Y-55754768D01*
X124450048Y-55930651D01*
X124392149Y-56121517D01*
X124389409Y-56149340D01*
X124363247Y-56214127D01*
X124306212Y-56254485D01*
X124249820Y-56260123D01*
X124120012Y-56243033D01*
X124120010Y-56243033D01*
X123976302Y-56261953D01*
X123976298Y-56261954D01*
X123842388Y-56317420D01*
X123727390Y-56405662D01*
X123639148Y-56520660D01*
X123583682Y-56654570D01*
X123583681Y-56654574D01*
X123571944Y-56743720D01*
X123543677Y-56807616D01*
X123536686Y-56815214D01*
X122288720Y-58063181D01*
X122227397Y-58096666D01*
X122201039Y-58099500D01*
X119999500Y-58099500D01*
X119932461Y-58079815D01*
X119886706Y-58027011D01*
X119875500Y-57975500D01*
X119875500Y-57750323D01*
X119875499Y-57750321D01*
X119860967Y-57677264D01*
X119860966Y-57677260D01*
X119805601Y-57594399D01*
X119722740Y-57539034D01*
X119722739Y-57539033D01*
X119722735Y-57539032D01*
X119649677Y-57524500D01*
X119649674Y-57524500D01*
X118320329Y-57524500D01*
X118264443Y-57508089D01*
X118263181Y-57510526D01*
X118255648Y-57506622D01*
X118184968Y-57481503D01*
X118128391Y-57440505D01*
X118102961Y-57375427D01*
X118116752Y-57306932D01*
X118165384Y-57256766D01*
X118168040Y-57255305D01*
X118335231Y-57165939D01*
X118335229Y-57165939D01*
X118335237Y-57165936D01*
X118489410Y-57039410D01*
X118615936Y-56885237D01*
X118709954Y-56709342D01*
X118767850Y-56518485D01*
X118787399Y-56320000D01*
X119292601Y-56320000D01*
X119312149Y-56518481D01*
X119370048Y-56709348D01*
X119464060Y-56885231D01*
X119464065Y-56885238D01*
X119590589Y-57039410D01*
X119633586Y-57074696D01*
X119744763Y-57165936D01*
X119744766Y-57165937D01*
X119744768Y-57165939D01*
X119920651Y-57259951D01*
X119920654Y-57259951D01*
X119920658Y-57259954D01*
X120111515Y-57317850D01*
X120310000Y-57337399D01*
X120508485Y-57317850D01*
X120699342Y-57259954D01*
X120705307Y-57256766D01*
X120875231Y-57165939D01*
X120875229Y-57165939D01*
X120875237Y-57165936D01*
X121029410Y-57039410D01*
X121155936Y-56885237D01*
X121249954Y-56709342D01*
X121307850Y-56518485D01*
X121327399Y-56320000D01*
X121307850Y-56121515D01*
X121249954Y-55930658D01*
X121249951Y-55930654D01*
X121249951Y-55930651D01*
X121155939Y-55754768D01*
X121155937Y-55754766D01*
X121155936Y-55754763D01*
X121045897Y-55620679D01*
X121029410Y-55600589D01*
X120875238Y-55474065D01*
X120875231Y-55474060D01*
X120699348Y-55380048D01*
X120699342Y-55380046D01*
X120508485Y-55322150D01*
X120508483Y-55322149D01*
X120508481Y-55322149D01*
X120310000Y-55302601D01*
X120111518Y-55322149D01*
X119920651Y-55380048D01*
X119744768Y-55474060D01*
X119744761Y-55474065D01*
X119590589Y-55600589D01*
X119464065Y-55754761D01*
X119464060Y-55754768D01*
X119370048Y-55930651D01*
X119312149Y-56121518D01*
X119292601Y-56320000D01*
X118787399Y-56320000D01*
X118767850Y-56121515D01*
X118709954Y-55930658D01*
X118709951Y-55930654D01*
X118709951Y-55930651D01*
X118615939Y-55754768D01*
X118615935Y-55754761D01*
X118615192Y-55753856D01*
X118614951Y-55753288D01*
X118612553Y-55749700D01*
X118613233Y-55749245D01*
X118587879Y-55689547D01*
X118599670Y-55620679D01*
X118646822Y-55569119D01*
X118714364Y-55551235D01*
X118727222Y-55552251D01*
X118750000Y-55555250D01*
X118893709Y-55536330D01*
X119027625Y-55480861D01*
X119142621Y-55392621D01*
X119230861Y-55277625D01*
X119286330Y-55143709D01*
X119305250Y-55000000D01*
X119286330Y-54856291D01*
X119230861Y-54722375D01*
X119142621Y-54607379D01*
X119027625Y-54519139D01*
X119027624Y-54519138D01*
X119027622Y-54519137D01*
X118893712Y-54463671D01*
X118893710Y-54463670D01*
X118893709Y-54463670D01*
X118821854Y-54454210D01*
X118750001Y-54444750D01*
X118749999Y-54444750D01*
X118606291Y-54463670D01*
X118606287Y-54463671D01*
X118472376Y-54519138D01*
X118472374Y-54519139D01*
X118401040Y-54573876D01*
X118335871Y-54599070D01*
X118325554Y-54599500D01*
X113946567Y-54599500D01*
X113925491Y-54606347D01*
X113906582Y-54610887D01*
X113884695Y-54614354D01*
X113864952Y-54624413D01*
X113846988Y-54631854D01*
X113825910Y-54638703D01*
X113825905Y-54638706D01*
X113807977Y-54651731D01*
X113791397Y-54661891D01*
X113771660Y-54671948D01*
X113771659Y-54671949D01*
X113749094Y-54694513D01*
X113749091Y-54694516D01*
X113119787Y-55323818D01*
X113058464Y-55357303D01*
X112996111Y-55354798D01*
X112941089Y-55338107D01*
X112888485Y-55322150D01*
X112888483Y-55322149D01*
X112888485Y-55322149D01*
X112690000Y-55302601D01*
X112491518Y-55322149D01*
X112300651Y-55380048D01*
X112124768Y-55474060D01*
X112124761Y-55474065D01*
X111970589Y-55600589D01*
X111844065Y-55754761D01*
X111844060Y-55754768D01*
X111750048Y-55930651D01*
X111692149Y-56121518D01*
X111672601Y-56320000D01*
X111692149Y-56518481D01*
X111750048Y-56709348D01*
X111844060Y-56885231D01*
X111844065Y-56885238D01*
X111970589Y-57039410D01*
X112013586Y-57074696D01*
X112124763Y-57165936D01*
X112124766Y-57165937D01*
X112124768Y-57165939D01*
X112300651Y-57259951D01*
X112300654Y-57259951D01*
X112300658Y-57259954D01*
X112491515Y-57317850D01*
X112690000Y-57337399D01*
X112888485Y-57317850D01*
X113079342Y-57259954D01*
X113085307Y-57256766D01*
X113255231Y-57165939D01*
X113255229Y-57165939D01*
X113255237Y-57165936D01*
X113409410Y-57039410D01*
X113535936Y-56885237D01*
X113629954Y-56709342D01*
X113687850Y-56518485D01*
X113707399Y-56320000D01*
X113687850Y-56121515D01*
X113655200Y-56013887D01*
X113654576Y-55944022D01*
X113686178Y-55890213D01*
X114139574Y-55436819D01*
X114200897Y-55403334D01*
X114227255Y-55400500D01*
X114412623Y-55400500D01*
X114479662Y-55420185D01*
X114525417Y-55472989D01*
X114535361Y-55542147D01*
X114508477Y-55603164D01*
X114384064Y-55754762D01*
X114384060Y-55754768D01*
X114290048Y-55930651D01*
X114232149Y-56121518D01*
X114212601Y-56320000D01*
X114232149Y-56518481D01*
X114290048Y-56709348D01*
X114384060Y-56885231D01*
X114384065Y-56885238D01*
X114510589Y-57039410D01*
X114553586Y-57074696D01*
X114664763Y-57165936D01*
X114664766Y-57165937D01*
X114664768Y-57165939D01*
X114840651Y-57259951D01*
X114840654Y-57259951D01*
X114840658Y-57259954D01*
X115031515Y-57317850D01*
X115230000Y-57337399D01*
X115428485Y-57317850D01*
X115619342Y-57259954D01*
X115625307Y-57256766D01*
X115795231Y-57165939D01*
X115795229Y-57165939D01*
X115795237Y-57165936D01*
X115949410Y-57039410D01*
X116075936Y-56885237D01*
X116169954Y-56709342D01*
X116227850Y-56518485D01*
X116247399Y-56320000D01*
X116227850Y-56121515D01*
X116169954Y-55930658D01*
X116169951Y-55930654D01*
X116169951Y-55930651D01*
X116075939Y-55754768D01*
X116075935Y-55754762D01*
X116075191Y-55753856D01*
X115965897Y-55620679D01*
X115951523Y-55603164D01*
X115924211Y-55538854D01*
X115936002Y-55469987D01*
X115983155Y-55418427D01*
X116047377Y-55400500D01*
X116952623Y-55400500D01*
X117019662Y-55420185D01*
X117065417Y-55472989D01*
X117075361Y-55542147D01*
X117048477Y-55603164D01*
X116924064Y-55754762D01*
X116924060Y-55754768D01*
X116830048Y-55930651D01*
X116772149Y-56121518D01*
X116752601Y-56320000D01*
X116772149Y-56518481D01*
X116830048Y-56709348D01*
X116924060Y-56885231D01*
X116924065Y-56885238D01*
X117050589Y-57039410D01*
X117093586Y-57074696D01*
X117204763Y-57165936D01*
X117204766Y-57165937D01*
X117204768Y-57165939D01*
X117380652Y-57259951D01*
X117380658Y-57259954D01*
X117452806Y-57281840D01*
X117511243Y-57320137D01*
X117539700Y-57383949D01*
X117529139Y-57453016D01*
X117482914Y-57505410D01*
X117416809Y-57524500D01*
X116350323Y-57524500D01*
X116277264Y-57539032D01*
X116277260Y-57539033D01*
X116194399Y-57594399D01*
X116139033Y-57677260D01*
X116139032Y-57677264D01*
X116124500Y-57750321D01*
X116124500Y-59449678D01*
X116139032Y-59522735D01*
X116139033Y-59522739D01*
X116144794Y-59531361D01*
X116194399Y-59605601D01*
X116277260Y-59660966D01*
X116277264Y-59660967D01*
X116350321Y-59675499D01*
X116350324Y-59675500D01*
X116350326Y-59675500D01*
X117325500Y-59675500D01*
X117392539Y-59695185D01*
X117438294Y-59747989D01*
X117449500Y-59799500D01*
X117449500Y-62375500D01*
X117429815Y-62442539D01*
X117377011Y-62488294D01*
X117325500Y-62499500D01*
X114187320Y-62499500D01*
X114120281Y-62479815D01*
X114088052Y-62449809D01*
X114088051Y-62449808D01*
X114082546Y-62442454D01*
X114070879Y-62433720D01*
X113967335Y-62356206D01*
X113967328Y-62356202D01*
X113832482Y-62305908D01*
X113832483Y-62305908D01*
X113772883Y-62299501D01*
X113772881Y-62299500D01*
X113772873Y-62299500D01*
X113772864Y-62299500D01*
X112727129Y-62299500D01*
X112727123Y-62299501D01*
X112667516Y-62305908D01*
X112532671Y-62356202D01*
X112532664Y-62356206D01*
X112417457Y-62442451D01*
X112417451Y-62442457D01*
X112411948Y-62449809D01*
X112356015Y-62491681D01*
X112312680Y-62499500D01*
X112187320Y-62499500D01*
X112120281Y-62479815D01*
X112088052Y-62449809D01*
X112088051Y-62449808D01*
X112082546Y-62442454D01*
X112070879Y-62433720D01*
X111967335Y-62356206D01*
X111967328Y-62356202D01*
X111832482Y-62305908D01*
X111832483Y-62305908D01*
X111772883Y-62299501D01*
X111772881Y-62299500D01*
X111772873Y-62299500D01*
X111772864Y-62299500D01*
X110727129Y-62299500D01*
X110727123Y-62299501D01*
X110667516Y-62305908D01*
X110532671Y-62356202D01*
X110532669Y-62356204D01*
X110461738Y-62409303D01*
X110396274Y-62433720D01*
X110328001Y-62418869D01*
X110284869Y-62379734D01*
X110241828Y-62316401D01*
X110241826Y-62316398D01*
X110241822Y-62316395D01*
X110241820Y-62316392D01*
X110118544Y-62207710D01*
X110118536Y-62207705D01*
X109972105Y-62133093D01*
X109811702Y-62097239D01*
X109721773Y-62100065D01*
X109654149Y-62082495D01*
X109630199Y-62063807D01*
X107604529Y-60038136D01*
X107571044Y-59976813D01*
X107576028Y-59907121D01*
X107617900Y-59851188D01*
X107644752Y-59835897D01*
X107694309Y-59815370D01*
X107707427Y-59809938D01*
X107754876Y-59800500D01*
X113013931Y-59800500D01*
X113013933Y-59800500D01*
X113035001Y-59793654D01*
X113053917Y-59789112D01*
X113075804Y-59785646D01*
X113095544Y-59775586D01*
X113113511Y-59768144D01*
X113134590Y-59761296D01*
X113152526Y-59748263D01*
X113169088Y-59738114D01*
X113188842Y-59728050D01*
X113204336Y-59712555D01*
X113204340Y-59712552D01*
X113211406Y-59705485D01*
X113211409Y-59705484D01*
X113283070Y-59633821D01*
X113344391Y-59600338D01*
X113354549Y-59598567D01*
X113443709Y-59586830D01*
X113577625Y-59531361D01*
X113692621Y-59443121D01*
X113780861Y-59328125D01*
X113836330Y-59194209D01*
X113855250Y-59050500D01*
X113836330Y-58906791D01*
X113783558Y-58779386D01*
X113780862Y-58772877D01*
X113780861Y-58772876D01*
X113780861Y-58772875D01*
X113692621Y-58657879D01*
X113577625Y-58569639D01*
X113577624Y-58569638D01*
X113577622Y-58569637D01*
X113443712Y-58514171D01*
X113443710Y-58514170D01*
X113443709Y-58514170D01*
X113371854Y-58504710D01*
X113300001Y-58495250D01*
X113299999Y-58495250D01*
X113156291Y-58514170D01*
X113156287Y-58514171D01*
X113022377Y-58569637D01*
X112907379Y-58657879D01*
X112819137Y-58772877D01*
X112763668Y-58906793D01*
X112763453Y-58907599D01*
X112763085Y-58908202D01*
X112760560Y-58914299D01*
X112759608Y-58913905D01*
X112727086Y-58967258D01*
X112664237Y-58997784D01*
X112643680Y-58999500D01*
X108024458Y-58999500D01*
X107957419Y-58979815D01*
X107926083Y-58950987D01*
X107897931Y-58914299D01*
X107892621Y-58907379D01*
X107777625Y-58819139D01*
X107777624Y-58819138D01*
X107777622Y-58819137D01*
X107643712Y-58763671D01*
X107643710Y-58763670D01*
X107643709Y-58763670D01*
X107571854Y-58754210D01*
X107500001Y-58744750D01*
X107499999Y-58744750D01*
X107356291Y-58763670D01*
X107356287Y-58763671D01*
X107222377Y-58819137D01*
X107107379Y-58907379D01*
X107019138Y-59022376D01*
X106964104Y-59155241D01*
X106920263Y-59209644D01*
X106853969Y-59231709D01*
X106786269Y-59214430D01*
X106761862Y-59195469D01*
X106686819Y-59120426D01*
X106653334Y-59059103D01*
X106650500Y-59032745D01*
X106650500Y-58923944D01*
X106670185Y-58856905D01*
X106676125Y-58848457D01*
X106680668Y-58842537D01*
X106730861Y-58777125D01*
X106786330Y-58643209D01*
X106805250Y-58499500D01*
X106804690Y-58495250D01*
X106793078Y-58407048D01*
X106786330Y-58355791D01*
X106739014Y-58241558D01*
X106730862Y-58221877D01*
X106730861Y-58221876D01*
X106730861Y-58221875D01*
X106642621Y-58106879D01*
X106527625Y-58018639D01*
X106527624Y-58018638D01*
X106527622Y-58018637D01*
X106393712Y-57963171D01*
X106393710Y-57963170D01*
X106393709Y-57963170D01*
X106321854Y-57953710D01*
X106250001Y-57944250D01*
X106249999Y-57944250D01*
X106106291Y-57963170D01*
X106106287Y-57963171D01*
X105972377Y-58018637D01*
X105857379Y-58106879D01*
X105769137Y-58221877D01*
X105713671Y-58355787D01*
X105713670Y-58355791D01*
X105695310Y-58495250D01*
X105694750Y-58499500D01*
X105702415Y-58557724D01*
X105713670Y-58643208D01*
X105713671Y-58643212D01*
X105767379Y-58772877D01*
X105769139Y-58777125D01*
X105815930Y-58838104D01*
X105823875Y-58848457D01*
X105849070Y-58913625D01*
X105849500Y-58923944D01*
X105849500Y-59313429D01*
X105849501Y-59313439D01*
X105856346Y-59334507D01*
X105860887Y-59353418D01*
X105864354Y-59375304D01*
X105864355Y-59375307D01*
X105874412Y-59395045D01*
X105881857Y-59413018D01*
X105888704Y-59434090D01*
X105901726Y-59452014D01*
X105911890Y-59468600D01*
X105921950Y-59488342D01*
X105942864Y-59509256D01*
X105942893Y-59509287D01*
X108919149Y-62485542D01*
X108952634Y-62546865D01*
X108947650Y-62616557D01*
X108919151Y-62660902D01*
X108810234Y-62769819D01*
X108748914Y-62803303D01*
X108722555Y-62806137D01*
X103152428Y-62806137D01*
X103030305Y-62821566D01*
X103030302Y-62821566D01*
X102877493Y-62882068D01*
X102877484Y-62882073D01*
X102744527Y-62978671D01*
X102744525Y-62978674D01*
X102639763Y-63105310D01*
X102569783Y-63254024D01*
X102551939Y-63347571D01*
X102538987Y-63415467D01*
X102538987Y-63415469D01*
X102538987Y-63415470D01*
X102549307Y-63579497D01*
X102600095Y-63735808D01*
X102600097Y-63735812D01*
X102688161Y-63874577D01*
X102807966Y-63987082D01*
X102807974Y-63987088D01*
X102923004Y-64050326D01*
X102951995Y-64066264D01*
X103111186Y-64107137D01*
X106042790Y-64107137D01*
X108957858Y-64107137D01*
X108973868Y-64108904D01*
X108973891Y-64108663D01*
X108981652Y-64109395D01*
X108981659Y-64109397D01*
X109053566Y-64107137D01*
X109084288Y-64107137D01*
X109091553Y-64106218D01*
X109097379Y-64105759D01*
X109145932Y-64104234D01*
X109166319Y-64098310D01*
X109185359Y-64094368D01*
X109206421Y-64091708D01*
X109251598Y-64073820D01*
X109257098Y-64071937D01*
X109303761Y-64058381D01*
X109322028Y-64047576D01*
X109339499Y-64039017D01*
X109359234Y-64031205D01*
X109398540Y-64002647D01*
X109403406Y-63999450D01*
X109445228Y-63974718D01*
X109460233Y-63959712D01*
X109475031Y-63947073D01*
X109492200Y-63934600D01*
X109523172Y-63897159D01*
X109527076Y-63892868D01*
X110072375Y-63347570D01*
X110133697Y-63314086D01*
X110203389Y-63319070D01*
X110259322Y-63360942D01*
X110277760Y-63400378D01*
X110278198Y-63400215D01*
X110280223Y-63405646D01*
X110280729Y-63406727D01*
X110280905Y-63407475D01*
X110331202Y-63542328D01*
X110331206Y-63542335D01*
X110417452Y-63657544D01*
X110417455Y-63657547D01*
X110532664Y-63743793D01*
X110532671Y-63743797D01*
X110667517Y-63794091D01*
X110667516Y-63794091D01*
X110674444Y-63794835D01*
X110727127Y-63800500D01*
X111772872Y-63800499D01*
X111832483Y-63794091D01*
X111967331Y-63743796D01*
X112082546Y-63657546D01*
X112088052Y-63650191D01*
X112143985Y-63608319D01*
X112187320Y-63600500D01*
X112312680Y-63600500D01*
X112379719Y-63620185D01*
X112411948Y-63650191D01*
X112417454Y-63657546D01*
X112417457Y-63657548D01*
X112532664Y-63743793D01*
X112532671Y-63743797D01*
X112667517Y-63794091D01*
X112667516Y-63794091D01*
X112674444Y-63794835D01*
X112727127Y-63800500D01*
X113772872Y-63800499D01*
X113832483Y-63794091D01*
X113967331Y-63743796D01*
X114082546Y-63657546D01*
X114088052Y-63650191D01*
X114143985Y-63608319D01*
X114187320Y-63600500D01*
X117325500Y-63600500D01*
X117392539Y-63620185D01*
X117438294Y-63672989D01*
X117449500Y-63724500D01*
X117449500Y-63757893D01*
X117429815Y-63824932D01*
X117394392Y-63860995D01*
X117344399Y-63894399D01*
X117289033Y-63977260D01*
X117289032Y-63977264D01*
X117274500Y-64050321D01*
X117274500Y-65749678D01*
X117289032Y-65822735D01*
X117289033Y-65822739D01*
X117289034Y-65822740D01*
X117344399Y-65905601D01*
X117413741Y-65951933D01*
X117427260Y-65960966D01*
X117427264Y-65960967D01*
X117499691Y-65975374D01*
X117561602Y-66007759D01*
X117596176Y-66068474D01*
X117599500Y-66096991D01*
X117599500Y-66282744D01*
X117579815Y-66349783D01*
X117563181Y-66370425D01*
X116516930Y-67416675D01*
X116455607Y-67450160D01*
X116445436Y-67451933D01*
X116356289Y-67463670D01*
X116222377Y-67519137D01*
X116107379Y-67607379D01*
X116019137Y-67722377D01*
X115963670Y-67856289D01*
X115951933Y-67945436D01*
X115923666Y-68009332D01*
X115916675Y-68016930D01*
X115360513Y-68573094D01*
X115299190Y-68606579D01*
X115272832Y-68609413D01*
X113024500Y-68609413D01*
X112957461Y-68589728D01*
X112911706Y-68536924D01*
X112900500Y-68485413D01*
X112900500Y-66674444D01*
X112920185Y-66607405D01*
X112926125Y-66598957D01*
X112980861Y-66527625D01*
X113036330Y-66393709D01*
X113055250Y-66250000D01*
X113053375Y-66235762D01*
X113049014Y-66202636D01*
X113036330Y-66106291D01*
X112985758Y-65984197D01*
X112980862Y-65972377D01*
X112980861Y-65972376D01*
X112980861Y-65972375D01*
X112892621Y-65857379D01*
X112777625Y-65769139D01*
X112777624Y-65769138D01*
X112777622Y-65769137D01*
X112643712Y-65713671D01*
X112643710Y-65713670D01*
X112643709Y-65713670D01*
X112571854Y-65704210D01*
X112500001Y-65694750D01*
X112499999Y-65694750D01*
X112356291Y-65713670D01*
X112356287Y-65713671D01*
X112222377Y-65769137D01*
X112107379Y-65857379D01*
X112019137Y-65972377D01*
X111963671Y-66106287D01*
X111963670Y-66106291D01*
X111944750Y-66249999D01*
X111944750Y-66250000D01*
X111963670Y-66393708D01*
X111963671Y-66393712D01*
X112019138Y-66527623D01*
X112019139Y-66527625D01*
X112069901Y-66593779D01*
X112073875Y-66598957D01*
X112099070Y-66664125D01*
X112099500Y-66674444D01*
X112099500Y-68592423D01*
X112079815Y-68659462D01*
X112073876Y-68667909D01*
X112024476Y-68732287D01*
X111969008Y-68866202D01*
X111959583Y-68937787D01*
X111931315Y-69001683D01*
X111924325Y-69009281D01*
X111145924Y-69787683D01*
X111084601Y-69821168D01*
X111058243Y-69824002D01*
X110857091Y-69824002D01*
X110790052Y-69804317D01*
X110769410Y-69787683D01*
X109916760Y-68935032D01*
X109883275Y-68873709D01*
X109888259Y-68804017D01*
X109906063Y-68771868D01*
X109958596Y-68703407D01*
X110014065Y-68569491D01*
X110032985Y-68425782D01*
X110014065Y-68282073D01*
X109958596Y-68148157D01*
X109870356Y-68033161D01*
X109755360Y-67944921D01*
X109755359Y-67944920D01*
X109755357Y-67944919D01*
X109621447Y-67889453D01*
X109621445Y-67889452D01*
X109621444Y-67889452D01*
X109549589Y-67879992D01*
X109477736Y-67870532D01*
X109477734Y-67870532D01*
X109334026Y-67889452D01*
X109334022Y-67889453D01*
X109200112Y-67944919D01*
X109085114Y-68033161D01*
X108996872Y-68148159D01*
X108941406Y-68282069D01*
X108941405Y-68282073D01*
X108922485Y-68425781D01*
X108922485Y-68425782D01*
X108941405Y-68569490D01*
X108941406Y-68569494D01*
X108982170Y-68667909D01*
X108996874Y-68703407D01*
X109019035Y-68732288D01*
X109051610Y-68774739D01*
X109076805Y-68839907D01*
X109077235Y-68850226D01*
X109077235Y-69125829D01*
X109077236Y-69125839D01*
X109084081Y-69146907D01*
X109088622Y-69165818D01*
X109092089Y-69187704D01*
X109092090Y-69187707D01*
X109102147Y-69207445D01*
X109109592Y-69225418D01*
X109116439Y-69246490D01*
X109129461Y-69264414D01*
X109139625Y-69281000D01*
X109149685Y-69300742D01*
X109170599Y-69321656D01*
X109170628Y-69321687D01*
X110262681Y-70413738D01*
X110296166Y-70475061D01*
X110299000Y-70501419D01*
X110299000Y-74463427D01*
X110299001Y-74463437D01*
X110305846Y-74484505D01*
X110310387Y-74503416D01*
X110313854Y-74525302D01*
X110313855Y-74525305D01*
X110323912Y-74545043D01*
X110331357Y-74563016D01*
X110338204Y-74584088D01*
X110351226Y-74602012D01*
X110361390Y-74618598D01*
X110371450Y-74638340D01*
X110392364Y-74659254D01*
X110392393Y-74659285D01*
X111216177Y-75483068D01*
X111249662Y-75544391D01*
X111251435Y-75554563D01*
X111263172Y-75643707D01*
X111263173Y-75643712D01*
X111318639Y-75777622D01*
X111318640Y-75777624D01*
X111318641Y-75777625D01*
X111406881Y-75892621D01*
X111521877Y-75980861D01*
X111655793Y-76036330D01*
X111782782Y-76053048D01*
X111799501Y-76055250D01*
X111799502Y-76055250D01*
X111799503Y-76055250D01*
X111814479Y-76053278D01*
X111943211Y-76036330D01*
X112077127Y-75980861D01*
X112192123Y-75892621D01*
X112280363Y-75777625D01*
X112335832Y-75643709D01*
X112354752Y-75500000D01*
X112335832Y-75356291D01*
X112285431Y-75234611D01*
X112280364Y-75222377D01*
X112280363Y-75222376D01*
X112280363Y-75222375D01*
X112192123Y-75107379D01*
X112077127Y-75019139D01*
X112077126Y-75019138D01*
X112077124Y-75019137D01*
X111943214Y-74963671D01*
X111943212Y-74963670D01*
X111943211Y-74963670D01*
X111894511Y-74957258D01*
X111854065Y-74951933D01*
X111790168Y-74923666D01*
X111782570Y-74916675D01*
X111136319Y-74270424D01*
X111102834Y-74209101D01*
X111100000Y-74182743D01*
X111100000Y-70749002D01*
X111119685Y-70681963D01*
X111172489Y-70636208D01*
X111224000Y-70625002D01*
X111338929Y-70625002D01*
X111338931Y-70625002D01*
X111359999Y-70618156D01*
X111378915Y-70613614D01*
X111400802Y-70610148D01*
X111419203Y-70600771D01*
X111487868Y-70587872D01*
X111552609Y-70614145D01*
X111592870Y-70671249D01*
X111599500Y-70711254D01*
X111599500Y-71075553D01*
X111579815Y-71142592D01*
X111573876Y-71151039D01*
X111519139Y-71222374D01*
X111519138Y-71222376D01*
X111463671Y-71356287D01*
X111463670Y-71356291D01*
X111444750Y-71499999D01*
X111444750Y-71500000D01*
X111463670Y-71643708D01*
X111463671Y-71643712D01*
X111519137Y-71777622D01*
X111519138Y-71777624D01*
X111519139Y-71777625D01*
X111607379Y-71892621D01*
X111722375Y-71980861D01*
X111722376Y-71980861D01*
X111722377Y-71980862D01*
X111746013Y-71990652D01*
X111856291Y-72036330D01*
X111983280Y-72053048D01*
X111999999Y-72055250D01*
X112000000Y-72055250D01*
X112000001Y-72055250D01*
X112014977Y-72053278D01*
X112143709Y-72036330D01*
X112277625Y-71980861D01*
X112392621Y-71892621D01*
X112480861Y-71777625D01*
X112536330Y-71643709D01*
X112555250Y-71500000D01*
X112536330Y-71356291D01*
X112480861Y-71222375D01*
X112459251Y-71194212D01*
X112426124Y-71151039D01*
X112400930Y-71085869D01*
X112400500Y-71075553D01*
X112400500Y-69732506D01*
X112420185Y-69665467D01*
X112436818Y-69644826D01*
X112488406Y-69593237D01*
X112549729Y-69559751D01*
X112559887Y-69557980D01*
X112649047Y-69546243D01*
X112782963Y-69490774D01*
X112835252Y-69450651D01*
X112854298Y-69436037D01*
X112919467Y-69410843D01*
X112929784Y-69410413D01*
X115553516Y-69410413D01*
X115553520Y-69410413D01*
X115553523Y-69410411D01*
X115556098Y-69410004D01*
X115559264Y-69410413D01*
X115563279Y-69410413D01*
X115563279Y-69410931D01*
X115625392Y-69418957D01*
X115678845Y-69463952D01*
X115699487Y-69530703D01*
X115699500Y-69532477D01*
X115699500Y-76365474D01*
X115679815Y-76432513D01*
X115673876Y-76440960D01*
X115645421Y-76478042D01*
X115589954Y-76611955D01*
X115589953Y-76611959D01*
X115571033Y-76755668D01*
X115589953Y-76899377D01*
X115598671Y-76920425D01*
X115604177Y-76933717D01*
X115611645Y-77003186D01*
X115580369Y-77065665D01*
X115520280Y-77101317D01*
X115489615Y-77105168D01*
X115430899Y-77105168D01*
X115412957Y-77110996D01*
X115409823Y-77112015D01*
X115390919Y-77116553D01*
X115369028Y-77120021D01*
X115349288Y-77130079D01*
X115331319Y-77137522D01*
X115310244Y-77144370D01*
X115310243Y-77144370D01*
X115292313Y-77157397D01*
X115275729Y-77167559D01*
X115255992Y-77177615D01*
X115255992Y-77177616D01*
X115233426Y-77200181D01*
X115233423Y-77200184D01*
X112766930Y-79666675D01*
X112705607Y-79700160D01*
X112695436Y-79701933D01*
X112606289Y-79713670D01*
X112472377Y-79769137D01*
X112357379Y-79857379D01*
X112269137Y-79972377D01*
X112213671Y-80106287D01*
X112213670Y-80106291D01*
X112194750Y-80249999D01*
X112194750Y-80250000D01*
X112213670Y-80393708D01*
X112213671Y-80393712D01*
X112269137Y-80527622D01*
X112269138Y-80527624D01*
X112269139Y-80527625D01*
X112357379Y-80642621D01*
X112472375Y-80730861D01*
X112472376Y-80730861D01*
X112472377Y-80730862D01*
X112546197Y-80761439D01*
X112600601Y-80805280D01*
X112622666Y-80871574D01*
X112605387Y-80939273D01*
X112554250Y-80986884D01*
X112498745Y-81000000D01*
X108000000Y-81000000D01*
X108000000Y-81903697D01*
X107980315Y-81970736D01*
X107963681Y-81991378D01*
X107902997Y-82052062D01*
X107902991Y-82052069D01*
X107902990Y-82052069D01*
X107893710Y-82062400D01*
X107874532Y-82086199D01*
X107873523Y-82087321D01*
X107872444Y-82088789D01*
X107825511Y-82178512D01*
X107805513Y-82246621D01*
X107805508Y-82246640D01*
X107804195Y-82255772D01*
X107802527Y-82263675D01*
X107795900Y-82287327D01*
X107795899Y-82287331D01*
X107795442Y-82289220D01*
X107793725Y-82296307D01*
X107789689Y-82316003D01*
X107784147Y-82335103D01*
X107782440Y-82339602D01*
X107777455Y-82354016D01*
X107775342Y-82360775D01*
X107767566Y-82379893D01*
X107763781Y-82387351D01*
X107751718Y-82406542D01*
X107752296Y-82405786D01*
X107752235Y-82405869D01*
X107752232Y-82405874D01*
X107748101Y-82411569D01*
X107740306Y-82422955D01*
X107736506Y-82428841D01*
X107736496Y-82428858D01*
X107735989Y-82429690D01*
X107721867Y-82448580D01*
X107720338Y-82450264D01*
X107704040Y-82465271D01*
X107700801Y-82467757D01*
X107695907Y-82471704D01*
X107686506Y-82479668D01*
X107686503Y-82479671D01*
X107681807Y-82483848D01*
X107680845Y-82484746D01*
X107678677Y-82486770D01*
X107641531Y-82510680D01*
X107632096Y-82514589D01*
X107632090Y-82514592D01*
X107617181Y-82521532D01*
X107609092Y-82525722D01*
X107568235Y-82538560D01*
X107559722Y-82539681D01*
X107556410Y-82540117D01*
X107542382Y-82542493D01*
X107532845Y-82544475D01*
X107531632Y-82544727D01*
X107490229Y-82546259D01*
X107478589Y-82544727D01*
X107476675Y-82544475D01*
X107464691Y-82543272D01*
X107463030Y-82543158D01*
X107451947Y-82542400D01*
X107412954Y-82533250D01*
X107398590Y-82527300D01*
X107394485Y-82525722D01*
X107389420Y-82523775D01*
X107375781Y-82518928D01*
X107341821Y-82500464D01*
X107325065Y-82487607D01*
X107325064Y-82487606D01*
X107308643Y-82476015D01*
X107281775Y-82450196D01*
X107273786Y-82439785D01*
X107268508Y-82432906D01*
X107255393Y-82416785D01*
X107237017Y-82385978D01*
X107228406Y-82365186D01*
X107223554Y-82354018D01*
X107219859Y-82345511D01*
X107210654Y-82312294D01*
X107207617Y-82289219D01*
X107204395Y-82265784D01*
X107203506Y-82240780D01*
X107203622Y-82239007D01*
X107203626Y-82238971D01*
X107204722Y-82222267D01*
X107205000Y-82213770D01*
X107205000Y-81626000D01*
X107199070Y-81570841D01*
X107187684Y-81518499D01*
X107187681Y-81518485D01*
X107183736Y-81504110D01*
X107180334Y-81491709D01*
X107130231Y-81403722D01*
X107129306Y-81402655D01*
X107083741Y-81350069D01*
X107070260Y-81337061D01*
X107050449Y-81317944D01*
X107050447Y-81317942D01*
X106960729Y-81271012D01*
X106960725Y-81271011D01*
X106892617Y-81251013D01*
X106892601Y-81251009D01*
X106819500Y-81240500D01*
X105875255Y-81240500D01*
X105808216Y-81220815D01*
X105762461Y-81168011D01*
X105752517Y-81098853D01*
X105781542Y-81035297D01*
X105787574Y-81028819D01*
X107062552Y-79753841D01*
X107062557Y-79753834D01*
X107078050Y-79738342D01*
X107088109Y-79718598D01*
X107098269Y-79702018D01*
X107111296Y-79684089D01*
X107118142Y-79663017D01*
X107125588Y-79645043D01*
X107135645Y-79625305D01*
X107135646Y-79625304D01*
X107139112Y-79603416D01*
X107143651Y-79584510D01*
X107150500Y-79563433D01*
X107150500Y-79436567D01*
X107150500Y-78500000D01*
X111194750Y-78500000D01*
X111213421Y-78641821D01*
X111213670Y-78643708D01*
X111213671Y-78643712D01*
X111269137Y-78777622D01*
X111269138Y-78777624D01*
X111269139Y-78777625D01*
X111357379Y-78892621D01*
X111472375Y-78980861D01*
X111472376Y-78980861D01*
X111472377Y-78980862D01*
X111504431Y-78994139D01*
X111606291Y-79036330D01*
X111726963Y-79052217D01*
X111749999Y-79055250D01*
X111750000Y-79055250D01*
X111750001Y-79055250D01*
X111773037Y-79052217D01*
X111893709Y-79036330D01*
X112027625Y-78980861D01*
X112142621Y-78892621D01*
X112230861Y-78777625D01*
X112286330Y-78643709D01*
X112298066Y-78554562D01*
X112326331Y-78490668D01*
X112333311Y-78483080D01*
X113505484Y-77310909D01*
X113505484Y-77310908D01*
X113512552Y-77303841D01*
X113512557Y-77303834D01*
X113528050Y-77288342D01*
X113538109Y-77268598D01*
X113548269Y-77252018D01*
X113561296Y-77234089D01*
X113568142Y-77213017D01*
X113575588Y-77195043D01*
X113585646Y-77175304D01*
X113589112Y-77153416D01*
X113593652Y-77134508D01*
X113600500Y-77113433D01*
X113600500Y-76986567D01*
X113600500Y-73536530D01*
X113600500Y-73504616D01*
X113593653Y-73483546D01*
X113589111Y-73464626D01*
X113585646Y-73442745D01*
X113575584Y-73422998D01*
X113568140Y-73405025D01*
X113566507Y-73400000D01*
X113561296Y-73383960D01*
X113557881Y-73379260D01*
X113548274Y-73366036D01*
X113538108Y-73349447D01*
X113528050Y-73329707D01*
X113507398Y-73309055D01*
X113507381Y-73309036D01*
X113332824Y-73134480D01*
X113299339Y-73073157D01*
X113297568Y-73062998D01*
X113285831Y-72973841D01*
X113235336Y-72851933D01*
X113230363Y-72839927D01*
X113230362Y-72839926D01*
X113230362Y-72839925D01*
X113142122Y-72724929D01*
X113027126Y-72636689D01*
X113027125Y-72636688D01*
X113027123Y-72636687D01*
X112893213Y-72581221D01*
X112893211Y-72581220D01*
X112893210Y-72581220D01*
X112821355Y-72571760D01*
X112749502Y-72562300D01*
X112749500Y-72562300D01*
X112605792Y-72581220D01*
X112605788Y-72581221D01*
X112471878Y-72636687D01*
X112356880Y-72724929D01*
X112268638Y-72839927D01*
X112213172Y-72973837D01*
X112213171Y-72973841D01*
X112195941Y-73104717D01*
X112194251Y-73117550D01*
X112212516Y-73256287D01*
X112213171Y-73261258D01*
X112213172Y-73261262D01*
X112268638Y-73395172D01*
X112268639Y-73395174D01*
X112268640Y-73395175D01*
X112356880Y-73510171D01*
X112471876Y-73598411D01*
X112605792Y-73653880D01*
X112691686Y-73665188D01*
X112755581Y-73693453D01*
X112794053Y-73751777D01*
X112799500Y-73788126D01*
X112799500Y-76832744D01*
X112779815Y-76899783D01*
X112763181Y-76920425D01*
X111766930Y-77916675D01*
X111705607Y-77950160D01*
X111695436Y-77951933D01*
X111606289Y-77963670D01*
X111472377Y-78019137D01*
X111357379Y-78107379D01*
X111269137Y-78222377D01*
X111213671Y-78356287D01*
X111213670Y-78356291D01*
X111195979Y-78490668D01*
X111194750Y-78500000D01*
X107150500Y-78500000D01*
X107150500Y-78123944D01*
X107170185Y-78056905D01*
X107176125Y-78048457D01*
X107230861Y-77977125D01*
X107286330Y-77843209D01*
X107305250Y-77699500D01*
X107286330Y-77555791D01*
X107230861Y-77421875D01*
X107142621Y-77306879D01*
X107027625Y-77218639D01*
X107027624Y-77218638D01*
X107027622Y-77218637D01*
X106893712Y-77163171D01*
X106893710Y-77163170D01*
X106893709Y-77163170D01*
X106819667Y-77153422D01*
X106750001Y-77144250D01*
X106749999Y-77144250D01*
X106606291Y-77163170D01*
X106606287Y-77163171D01*
X106472377Y-77218637D01*
X106357379Y-77306879D01*
X106269137Y-77421877D01*
X106213671Y-77555787D01*
X106213670Y-77555791D01*
X106194750Y-77699500D01*
X106212420Y-77833718D01*
X106213670Y-77843208D01*
X106213671Y-77843212D01*
X106268725Y-77976125D01*
X106269139Y-77977125D01*
X106309750Y-78030050D01*
X106323875Y-78048457D01*
X106349070Y-78113625D01*
X106349500Y-78123944D01*
X106349500Y-79282745D01*
X106329815Y-79349784D01*
X106313181Y-79370426D01*
X104479426Y-81204181D01*
X104418103Y-81237666D01*
X104391745Y-81240500D01*
X100126000Y-81240500D01*
X100070840Y-81246430D01*
X100018485Y-81257819D01*
X99991708Y-81265166D01*
X99903722Y-81315268D01*
X99903718Y-81315271D01*
X99850069Y-81361759D01*
X99817942Y-81395052D01*
X99771012Y-81484770D01*
X99771011Y-81484774D01*
X99751013Y-81552882D01*
X99751009Y-81552898D01*
X99740500Y-81625999D01*
X99740500Y-85124000D01*
X99746430Y-85179159D01*
X99757819Y-85231515D01*
X99765166Y-85258291D01*
X99815268Y-85346277D01*
X99815271Y-85346281D01*
X99861759Y-85399931D01*
X99895052Y-85432057D01*
X99984770Y-85478987D01*
X100052891Y-85498989D01*
X100126000Y-85509500D01*
X100126002Y-85509500D01*
X100912740Y-85509500D01*
X100968900Y-85503350D01*
X100968903Y-85503349D01*
X100968906Y-85503349D01*
X100990745Y-85498507D01*
X100993884Y-85498719D01*
X101013503Y-85493462D01*
X101022155Y-85491544D01*
X101024955Y-85490592D01*
X101025816Y-85490301D01*
X101029710Y-85489119D01*
X101036452Y-85487312D01*
X101036453Y-85487313D01*
X101216082Y-85439179D01*
X101237355Y-85435428D01*
X101389198Y-85422144D01*
X101410801Y-85422144D01*
X101562630Y-85435427D01*
X101583915Y-85439179D01*
X101604463Y-85444685D01*
X101770292Y-85489121D01*
X101774160Y-85490293D01*
X101777845Y-85491544D01*
X101786497Y-85493462D01*
X101801489Y-85497479D01*
X101809329Y-85498524D01*
X101831093Y-85503349D01*
X101887260Y-85509500D01*
X102483063Y-85509500D01*
X102483064Y-85509500D01*
X102533689Y-85504514D01*
X102581907Y-85494923D01*
X102630590Y-85480155D01*
X102657905Y-85468839D01*
X102689168Y-85460461D01*
X102733822Y-85454583D01*
X102766181Y-85454583D01*
X102810825Y-85460460D01*
X102842088Y-85468837D01*
X102869411Y-85480155D01*
X102869417Y-85480156D01*
X102869420Y-85480158D01*
X102881469Y-85483813D01*
X102918093Y-85494923D01*
X102966311Y-85504514D01*
X103016936Y-85509500D01*
X103016937Y-85509500D01*
X103233063Y-85509500D01*
X103233064Y-85509500D01*
X103283689Y-85504514D01*
X103331907Y-85494923D01*
X103380590Y-85480155D01*
X103407905Y-85468839D01*
X103439168Y-85460461D01*
X103483822Y-85454583D01*
X103516181Y-85454583D01*
X103560825Y-85460460D01*
X103592088Y-85468837D01*
X103619411Y-85480155D01*
X103619417Y-85480156D01*
X103619420Y-85480158D01*
X103631469Y-85483813D01*
X103668093Y-85494923D01*
X103716311Y-85504514D01*
X103766936Y-85509500D01*
X103766937Y-85509500D01*
X103983063Y-85509500D01*
X103983064Y-85509500D01*
X104033689Y-85504514D01*
X104081907Y-85494923D01*
X104130590Y-85480155D01*
X104157905Y-85468839D01*
X104189168Y-85460461D01*
X104233822Y-85454583D01*
X104266181Y-85454583D01*
X104310825Y-85460460D01*
X104342093Y-85468839D01*
X104369398Y-85480150D01*
X104369401Y-85480151D01*
X104369411Y-85480155D01*
X104370150Y-85480379D01*
X104370409Y-85480512D01*
X104372270Y-85481178D01*
X104372219Y-85481318D01*
X104372223Y-85481320D01*
X104372195Y-85481387D01*
X104372182Y-85481422D01*
X104409652Y-85500665D01*
X104447443Y-85529663D01*
X104470330Y-85552550D01*
X104520631Y-85618103D01*
X104522978Y-85621379D01*
X104546205Y-85656140D01*
X104546210Y-85656148D01*
X104578472Y-85695459D01*
X104578482Y-85695470D01*
X107034519Y-88151507D01*
X107034520Y-88151507D01*
X107044848Y-88160785D01*
X107044847Y-88160785D01*
X107044851Y-88160788D01*
X107071234Y-88182050D01*
X107071241Y-88182056D01*
X107160960Y-88228987D01*
X107229081Y-88248989D01*
X107302190Y-88259500D01*
X107302192Y-88259500D01*
X109874000Y-88259500D01*
X109929159Y-88253570D01*
X109981501Y-88242184D01*
X109981500Y-88242184D01*
X109981515Y-88242181D01*
X109993746Y-88238824D01*
X110008291Y-88234834D01*
X110096278Y-88184731D01*
X110134621Y-88151507D01*
X110149931Y-88138241D01*
X110149934Y-88138238D01*
X110182056Y-88104949D01*
X110228987Y-88015230D01*
X110248989Y-87947109D01*
X110259500Y-87874000D01*
X110259500Y-82126000D01*
X110259500Y-82124000D01*
X110279185Y-82056961D01*
X110331989Y-82011206D01*
X110383500Y-82000000D01*
X114600000Y-82000000D01*
X116563681Y-80036319D01*
X116625004Y-80002834D01*
X116651362Y-80000000D01*
X121734245Y-80000000D01*
X121801284Y-80019685D01*
X121847039Y-80072489D01*
X121856983Y-80141647D01*
X121827958Y-80205203D01*
X121821942Y-80211664D01*
X121581058Y-80452547D01*
X121551889Y-80481717D01*
X121490566Y-80515201D01*
X121420874Y-80510217D01*
X121416757Y-80508597D01*
X121410228Y-80505892D01*
X121367441Y-80488170D01*
X121295586Y-80478710D01*
X121223733Y-80469250D01*
X121223731Y-80469250D01*
X121080023Y-80488170D01*
X121080019Y-80488171D01*
X120946109Y-80543637D01*
X120831111Y-80631879D01*
X120742869Y-80746877D01*
X120687403Y-80880787D01*
X120687402Y-80880791D01*
X120668482Y-81024499D01*
X120668482Y-81024500D01*
X120687402Y-81168208D01*
X120687403Y-81168212D01*
X120742869Y-81302122D01*
X120742870Y-81302124D01*
X120742871Y-81302125D01*
X120831111Y-81417121D01*
X120946107Y-81505361D01*
X120946108Y-81505361D01*
X120946109Y-81505362D01*
X120977825Y-81518499D01*
X121080023Y-81560830D01*
X121207012Y-81577548D01*
X121223731Y-81579750D01*
X121223732Y-81579750D01*
X121223733Y-81579750D01*
X121238709Y-81577778D01*
X121367441Y-81560830D01*
X121501357Y-81505361D01*
X121548012Y-81469560D01*
X121572692Y-81450624D01*
X121629621Y-81428615D01*
X121629291Y-81426527D01*
X121638928Y-81425000D01*
X121638933Y-81425000D01*
X121660001Y-81418154D01*
X121678917Y-81413612D01*
X121700804Y-81410146D01*
X121720544Y-81400086D01*
X121738511Y-81392644D01*
X121759590Y-81385796D01*
X121777526Y-81372763D01*
X121794088Y-81362614D01*
X121813842Y-81352550D01*
X121829334Y-81337057D01*
X121829341Y-81337052D01*
X121962212Y-81204181D01*
X122137819Y-81028572D01*
X122199142Y-80995088D01*
X122268833Y-81000072D01*
X122324767Y-81041943D01*
X122349184Y-81107408D01*
X122349500Y-81116254D01*
X122349500Y-91618532D01*
X122329815Y-91685571D01*
X122313181Y-91706213D01*
X116841051Y-97178342D01*
X116824069Y-97190685D01*
X116824816Y-97191712D01*
X116816917Y-97197451D01*
X116794352Y-97220017D01*
X115694516Y-98319852D01*
X115694513Y-98319855D01*
X115671949Y-98342420D01*
X115671948Y-98342421D01*
X115661891Y-98362158D01*
X115651731Y-98378738D01*
X115638706Y-98396666D01*
X115638703Y-98396671D01*
X115631854Y-98417749D01*
X115624413Y-98435713D01*
X115614354Y-98455456D01*
X115610887Y-98477343D01*
X115606347Y-98496252D01*
X115599500Y-98517328D01*
X115599500Y-100426053D01*
X115579815Y-100493092D01*
X115573876Y-100501539D01*
X115519139Y-100572874D01*
X115519138Y-100572876D01*
X115463671Y-100706787D01*
X115463670Y-100706791D01*
X115450390Y-100807664D01*
X115444750Y-100850500D01*
X115456864Y-100942517D01*
X115459076Y-100959314D01*
X115448311Y-101028350D01*
X115401931Y-101080606D01*
X115336137Y-101099500D01*
X113595529Y-101099500D01*
X113567082Y-101094995D01*
X113567077Y-101095032D01*
X113557440Y-101093505D01*
X113557438Y-101093505D01*
X113557435Y-101093505D01*
X113082478Y-101093505D01*
X113015439Y-101073820D01*
X113006992Y-101067881D01*
X112935657Y-101013144D01*
X112935655Y-101013143D01*
X112801744Y-100957676D01*
X112801742Y-100957675D01*
X112801741Y-100957675D01*
X112686607Y-100942517D01*
X112658033Y-100938755D01*
X112658031Y-100938755D01*
X112514323Y-100957675D01*
X112514319Y-100957676D01*
X112380409Y-101013142D01*
X112265411Y-101101384D01*
X112177169Y-101216382D01*
X112121703Y-101350292D01*
X112121702Y-101350296D01*
X112102782Y-101494004D01*
X112102782Y-101494005D01*
X112121702Y-101637713D01*
X112121703Y-101637717D01*
X112177169Y-101771627D01*
X112177170Y-101771629D01*
X112177171Y-101771630D01*
X112265411Y-101886626D01*
X112380407Y-101974866D01*
X112514323Y-102030335D01*
X112641312Y-102047053D01*
X112658031Y-102049255D01*
X112658032Y-102049255D01*
X112658033Y-102049255D01*
X112673009Y-102047283D01*
X112801741Y-102030335D01*
X112935657Y-101974866D01*
X112982312Y-101939065D01*
X113006992Y-101920129D01*
X113072161Y-101894935D01*
X113082478Y-101894505D01*
X113398480Y-101894505D01*
X113426921Y-101899010D01*
X113426928Y-101898972D01*
X113436564Y-101900498D01*
X113436567Y-101900499D01*
X113465924Y-101900499D01*
X113465948Y-101900500D01*
X113468481Y-101900500D01*
X116175501Y-101900500D01*
X116242540Y-101920185D01*
X116288295Y-101972989D01*
X116298437Y-102019611D01*
X116299099Y-102019576D01*
X116299146Y-102019571D01*
X116299146Y-102019573D01*
X116299324Y-102019564D01*
X116299501Y-102022876D01*
X116305908Y-102082483D01*
X116356202Y-102217328D01*
X116356206Y-102217335D01*
X116442452Y-102332544D01*
X116442455Y-102332547D01*
X116533540Y-102400734D01*
X116575411Y-102456668D01*
X116580395Y-102526359D01*
X116546909Y-102587682D01*
X116533540Y-102599266D01*
X116442455Y-102667452D01*
X116442452Y-102667455D01*
X116356206Y-102782664D01*
X116356202Y-102782671D01*
X116305908Y-102917517D01*
X116300999Y-102963181D01*
X116299501Y-102977123D01*
X116299322Y-102980452D01*
X116298065Y-102980384D01*
X116279815Y-103042539D01*
X116227011Y-103088294D01*
X116175500Y-103099500D01*
X115541391Y-103099500D01*
X115476113Y-103080927D01*
X115290019Y-102965702D01*
X115290017Y-102965701D01*
X115165638Y-102917517D01*
X115091198Y-102888679D01*
X114881610Y-102849500D01*
X114668390Y-102849500D01*
X114458802Y-102888679D01*
X114458799Y-102888679D01*
X114458799Y-102888680D01*
X114259982Y-102965701D01*
X114259980Y-102965702D01*
X114078699Y-103077947D01*
X113921127Y-103221593D01*
X113792632Y-103391746D01*
X113697596Y-103582605D01*
X113697596Y-103582607D01*
X113639244Y-103787689D01*
X113624414Y-103947739D01*
X113619571Y-104000000D01*
X113639244Y-104212310D01*
X113667676Y-104312238D01*
X113697596Y-104417392D01*
X113697596Y-104417394D01*
X113792632Y-104608253D01*
X113900053Y-104750500D01*
X113921128Y-104778407D01*
X114078698Y-104922052D01*
X114259981Y-105034298D01*
X114458802Y-105111321D01*
X114668390Y-105150500D01*
X114668392Y-105150500D01*
X114881608Y-105150500D01*
X114881610Y-105150500D01*
X115091198Y-105111321D01*
X115290019Y-105034298D01*
X115471302Y-104922052D01*
X115628872Y-104778407D01*
X115757366Y-104608255D01*
X115783431Y-104555909D01*
X115852403Y-104417394D01*
X115852403Y-104417393D01*
X115852405Y-104417389D01*
X115910756Y-104212310D01*
X115929219Y-104013059D01*
X115955005Y-103948122D01*
X116011805Y-103907434D01*
X116052690Y-103900500D01*
X116175501Y-103900500D01*
X116242540Y-103920185D01*
X116288295Y-103972989D01*
X116298437Y-104019611D01*
X116299099Y-104019576D01*
X116299146Y-104019571D01*
X116299146Y-104019573D01*
X116299324Y-104019564D01*
X116299501Y-104022876D01*
X116305908Y-104082483D01*
X116356202Y-104217328D01*
X116356206Y-104217335D01*
X116442452Y-104332544D01*
X116442455Y-104332547D01*
X116562737Y-104422591D01*
X116604608Y-104478525D01*
X116609592Y-104548216D01*
X116576106Y-104609539D01*
X116562738Y-104621123D01*
X116467452Y-104692455D01*
X116381206Y-104807664D01*
X116381202Y-104807671D01*
X116330908Y-104942517D01*
X116329501Y-104955609D01*
X116324501Y-105002123D01*
X116324500Y-105002135D01*
X116324500Y-105997870D01*
X116324501Y-105997876D01*
X116330908Y-106057483D01*
X116381202Y-106192328D01*
X116381206Y-106192335D01*
X116467452Y-106307544D01*
X116467453Y-106307544D01*
X116467454Y-106307546D01*
X116491575Y-106325603D01*
X116491750Y-106325734D01*
X116533620Y-106381668D01*
X116538604Y-106451360D01*
X116505118Y-106512683D01*
X116491750Y-106524266D01*
X116467452Y-106542455D01*
X116381206Y-106657664D01*
X116381202Y-106657671D01*
X116330908Y-106792517D01*
X116324501Y-106852116D01*
X116324500Y-106852135D01*
X116324500Y-106871453D01*
X116304815Y-106938492D01*
X116252011Y-106984247D01*
X116242022Y-106988136D01*
X116240908Y-106988704D01*
X116222984Y-107001727D01*
X116206399Y-107011890D01*
X116186659Y-107021948D01*
X116177592Y-107031016D01*
X116164091Y-107044517D01*
X115445321Y-107763285D01*
X115313193Y-107895413D01*
X115251870Y-107928898D01*
X115182178Y-107923914D01*
X115180751Y-107923371D01*
X115091198Y-107888679D01*
X114881610Y-107849500D01*
X114668390Y-107849500D01*
X114458802Y-107888679D01*
X114458799Y-107888679D01*
X114458799Y-107888680D01*
X114259982Y-107965701D01*
X114259980Y-107965702D01*
X114078699Y-108077947D01*
X113921127Y-108221593D01*
X113792632Y-108391746D01*
X113697596Y-108582605D01*
X113697596Y-108582607D01*
X113697595Y-108582611D01*
X113639244Y-108787690D01*
X113619571Y-109000000D01*
X113639244Y-109212310D01*
X113696469Y-109413433D01*
X113697596Y-109417392D01*
X113697596Y-109417394D01*
X113792632Y-109608253D01*
X113882652Y-109727457D01*
X113921128Y-109778407D01*
X114078698Y-109922052D01*
X114259981Y-110034298D01*
X114458802Y-110111321D01*
X114668390Y-110150500D01*
X114668392Y-110150500D01*
X114881608Y-110150500D01*
X114881610Y-110150500D01*
X115091198Y-110111321D01*
X115290019Y-110034298D01*
X115471302Y-109922052D01*
X115628872Y-109778407D01*
X115757366Y-109608255D01*
X115781440Y-109559907D01*
X115852403Y-109417394D01*
X115852403Y-109417393D01*
X115852405Y-109417389D01*
X115910756Y-109212310D01*
X115930429Y-109000000D01*
X115910756Y-108787690D01*
X115852405Y-108582611D01*
X115851609Y-108579813D01*
X115852195Y-108509946D01*
X115883192Y-108458199D01*
X116244850Y-108096540D01*
X116306171Y-108063057D01*
X116375862Y-108068041D01*
X116431794Y-108109910D01*
X116467454Y-108157546D01*
X116513643Y-108192123D01*
X116582664Y-108243793D01*
X116582671Y-108243797D01*
X116627618Y-108260561D01*
X116717517Y-108294091D01*
X116777127Y-108300500D01*
X117397872Y-108300499D01*
X117457483Y-108294091D01*
X117592331Y-108243796D01*
X117707546Y-108157546D01*
X117793796Y-108042331D01*
X117844091Y-107907483D01*
X117850500Y-107847873D01*
X117850499Y-107153752D01*
X117870183Y-107086715D01*
X117922987Y-107040960D01*
X117992146Y-107031016D01*
X118055702Y-107060041D01*
X118062180Y-107066073D01*
X118113181Y-107117074D01*
X118146666Y-107178397D01*
X118149500Y-107204755D01*
X118149500Y-107847870D01*
X118149501Y-107847876D01*
X118155908Y-107907483D01*
X118206202Y-108042328D01*
X118206206Y-108042335D01*
X118292452Y-108157544D01*
X118292455Y-108157547D01*
X118407664Y-108243793D01*
X118407671Y-108243797D01*
X118452618Y-108260561D01*
X118542517Y-108294091D01*
X118602127Y-108300500D01*
X119222872Y-108300499D01*
X119282483Y-108294091D01*
X119417331Y-108243796D01*
X119532546Y-108157546D01*
X119618796Y-108042331D01*
X119618797Y-108042326D01*
X119620508Y-108040042D01*
X119676442Y-107998171D01*
X119746133Y-107993187D01*
X119807456Y-108026672D01*
X119835957Y-108071020D01*
X119881202Y-108192328D01*
X119881206Y-108192335D01*
X119967452Y-108307544D01*
X119967455Y-108307547D01*
X120082664Y-108393793D01*
X120082671Y-108393797D01*
X120084591Y-108394513D01*
X120217517Y-108444091D01*
X120277127Y-108450500D01*
X120897872Y-108450499D01*
X120897877Y-108450498D01*
X120897883Y-108450498D01*
X120901766Y-108450080D01*
X120905452Y-108449684D01*
X120974213Y-108462084D01*
X121006398Y-108485291D01*
X121459450Y-108938342D01*
X121549158Y-109028050D01*
X121568895Y-109038106D01*
X121585481Y-109048269D01*
X121603410Y-109061296D01*
X121603412Y-109061296D01*
X121603413Y-109061297D01*
X121624474Y-109068140D01*
X121642453Y-109075586D01*
X121662196Y-109085646D01*
X121684085Y-109089112D01*
X121703001Y-109093653D01*
X121724067Y-109100499D01*
X121753424Y-109100499D01*
X121753448Y-109100500D01*
X121755981Y-109100500D01*
X125232745Y-109100500D01*
X125299784Y-109120185D01*
X125320426Y-109136819D01*
X127162632Y-110979024D01*
X127196117Y-111040347D01*
X127196357Y-111041476D01*
X127226406Y-111186078D01*
X127226410Y-111186090D01*
X127235596Y-111203817D01*
X127249500Y-111260868D01*
X127249500Y-112524678D01*
X127264032Y-112597735D01*
X127264033Y-112597739D01*
X127264034Y-112597740D01*
X127319399Y-112680601D01*
X127402260Y-112735966D01*
X127402264Y-112735967D01*
X127475321Y-112750499D01*
X127475324Y-112750500D01*
X127475326Y-112750500D01*
X130024676Y-112750500D01*
X130024677Y-112750499D01*
X130097740Y-112735966D01*
X130180601Y-112680601D01*
X130235966Y-112597740D01*
X130250500Y-112524674D01*
X130250500Y-110117254D01*
X130270185Y-110050215D01*
X130286819Y-110029573D01*
X130705484Y-109610908D01*
X130708139Y-109608253D01*
X130728050Y-109588342D01*
X130738109Y-109568597D01*
X130748271Y-109552014D01*
X130761296Y-109534090D01*
X130768141Y-109513022D01*
X130775586Y-109495045D01*
X130785646Y-109475304D01*
X130789112Y-109453415D01*
X130793652Y-109434501D01*
X130800499Y-109413433D01*
X130800499Y-109384076D01*
X130800500Y-109384051D01*
X130800500Y-100166159D01*
X130800499Y-100166129D01*
X130800499Y-100136568D01*
X130800499Y-100136567D01*
X130793653Y-100115501D01*
X130789111Y-100096580D01*
X130786879Y-100082483D01*
X130785646Y-100074696D01*
X130780957Y-100065494D01*
X130775586Y-100054952D01*
X130768140Y-100036974D01*
X130761297Y-100015913D01*
X130761296Y-100015912D01*
X130761296Y-100015910D01*
X130748269Y-99997981D01*
X130738104Y-99981392D01*
X130737833Y-99980861D01*
X130728050Y-99961658D01*
X130638342Y-99871950D01*
X130144035Y-99377643D01*
X129636819Y-98870426D01*
X129603334Y-98809103D01*
X129600500Y-98782745D01*
X129600500Y-94217254D01*
X129620185Y-94150215D01*
X129636819Y-94129573D01*
X130555484Y-93210908D01*
X130578050Y-93188342D01*
X130588109Y-93168597D01*
X130598271Y-93152014D01*
X130611296Y-93134090D01*
X130611297Y-93134087D01*
X130618141Y-93113022D01*
X130625586Y-93095045D01*
X130635646Y-93075304D01*
X130639112Y-93053415D01*
X130643652Y-93034501D01*
X130650499Y-93013433D01*
X130650499Y-92984076D01*
X130650500Y-92984051D01*
X130650500Y-91800002D01*
X132444751Y-91800002D01*
X132463685Y-91968056D01*
X132519545Y-92127694D01*
X132519547Y-92127697D01*
X132609518Y-92270884D01*
X132609523Y-92270890D01*
X132729109Y-92390476D01*
X132729115Y-92390481D01*
X132872302Y-92480452D01*
X132872305Y-92480454D01*
X132872309Y-92480455D01*
X132872310Y-92480456D01*
X132944913Y-92505860D01*
X133031943Y-92536314D01*
X133199997Y-92555249D01*
X133200000Y-92555249D01*
X133200003Y-92555249D01*
X133368056Y-92536314D01*
X133368059Y-92536313D01*
X133527690Y-92480456D01*
X133527692Y-92480454D01*
X133527694Y-92480454D01*
X133527697Y-92480452D01*
X133670884Y-92390481D01*
X133670885Y-92390480D01*
X133670890Y-92390477D01*
X133790477Y-92270890D01*
X133790481Y-92270884D01*
X133880452Y-92127697D01*
X133880454Y-92127694D01*
X133880454Y-92127692D01*
X133880456Y-92127690D01*
X133936313Y-91968059D01*
X133936313Y-91968058D01*
X133936314Y-91968056D01*
X133955249Y-91800002D01*
X133955249Y-91799997D01*
X133936314Y-91631943D01*
X133880454Y-91472305D01*
X133880452Y-91472302D01*
X133790481Y-91329115D01*
X133790476Y-91329109D01*
X133670890Y-91209523D01*
X133670884Y-91209518D01*
X133527697Y-91119547D01*
X133527694Y-91119545D01*
X133368056Y-91063685D01*
X133200003Y-91044751D01*
X133199997Y-91044751D01*
X133031943Y-91063685D01*
X132872305Y-91119545D01*
X132872302Y-91119547D01*
X132729115Y-91209518D01*
X132729109Y-91209523D01*
X132609523Y-91329109D01*
X132609518Y-91329115D01*
X132519547Y-91472302D01*
X132519545Y-91472305D01*
X132463685Y-91631943D01*
X132444751Y-91799997D01*
X132444751Y-91800002D01*
X130650500Y-91800002D01*
X130650500Y-90424444D01*
X130670185Y-90357405D01*
X130676125Y-90348957D01*
X130683972Y-90338731D01*
X130730861Y-90277625D01*
X130786330Y-90143709D01*
X130805250Y-90000000D01*
X130786330Y-89856291D01*
X130730861Y-89722375D01*
X130642621Y-89607379D01*
X130527625Y-89519139D01*
X130527624Y-89519138D01*
X130527622Y-89519137D01*
X130393712Y-89463671D01*
X130393710Y-89463670D01*
X130393709Y-89463670D01*
X130321854Y-89454210D01*
X130250001Y-89444750D01*
X130249999Y-89444750D01*
X130106291Y-89463670D01*
X130106287Y-89463671D01*
X129972377Y-89519137D01*
X129857379Y-89607379D01*
X129769137Y-89722377D01*
X129713671Y-89856287D01*
X129713670Y-89856291D01*
X129694750Y-90000000D01*
X129696332Y-90012020D01*
X129713670Y-90143708D01*
X129713671Y-90143712D01*
X129769138Y-90277623D01*
X129769139Y-90277625D01*
X129823875Y-90348957D01*
X129849070Y-90414125D01*
X129849500Y-90424444D01*
X129849500Y-92087194D01*
X129829815Y-92154233D01*
X129777011Y-92199988D01*
X129707853Y-92209932D01*
X129692504Y-92205721D01*
X129692294Y-92206508D01*
X129684444Y-92204404D01*
X129684443Y-92204404D01*
X129612588Y-92194944D01*
X129540735Y-92185484D01*
X129540733Y-92185484D01*
X129397025Y-92204404D01*
X129397021Y-92204405D01*
X129263111Y-92259871D01*
X129148113Y-92348113D01*
X129059871Y-92463111D01*
X129004404Y-92597023D01*
X128992667Y-92686170D01*
X128964400Y-92750066D01*
X128957409Y-92757664D01*
X128294516Y-93420559D01*
X128294513Y-93420562D01*
X128271949Y-93443127D01*
X128271948Y-93443128D01*
X128261891Y-93462865D01*
X128251731Y-93479445D01*
X128238706Y-93497373D01*
X128238703Y-93497378D01*
X128231854Y-93518456D01*
X128224413Y-93536420D01*
X128214354Y-93556163D01*
X128210887Y-93578050D01*
X128206347Y-93596959D01*
X128199500Y-93618035D01*
X128199500Y-98782745D01*
X128179815Y-98849784D01*
X128163181Y-98870426D01*
X127301226Y-99732380D01*
X127239903Y-99765865D01*
X127170211Y-99760881D01*
X127114278Y-99719009D01*
X127089861Y-99653545D01*
X127104713Y-99585272D01*
X127109728Y-99576891D01*
X127230049Y-99392728D01*
X127326610Y-99172591D01*
X127385620Y-98939563D01*
X127396550Y-98807664D01*
X127405471Y-98700005D01*
X127405471Y-98699994D01*
X127388588Y-98496252D01*
X127385620Y-98460437D01*
X127326610Y-98227409D01*
X127230049Y-98007272D01*
X127098571Y-97806031D01*
X126935764Y-97629175D01*
X126935759Y-97629171D01*
X126935757Y-97629169D01*
X126746075Y-97481533D01*
X126746069Y-97481529D01*
X126534657Y-97367118D01*
X126534652Y-97367116D01*
X126307300Y-97289066D01*
X126129468Y-97259391D01*
X126070192Y-97249500D01*
X125829808Y-97249500D01*
X125782387Y-97257413D01*
X125592699Y-97289066D01*
X125365347Y-97367116D01*
X125365342Y-97367118D01*
X125153930Y-97481529D01*
X125153924Y-97481533D01*
X124964242Y-97629169D01*
X124964239Y-97629172D01*
X124801430Y-97806029D01*
X124801427Y-97806033D01*
X124669951Y-98007270D01*
X124573389Y-98227410D01*
X124514379Y-98460440D01*
X124494529Y-98699994D01*
X124494529Y-98700005D01*
X124514379Y-98939559D01*
X124573389Y-99172589D01*
X124669951Y-99392729D01*
X124704560Y-99445701D01*
X124801429Y-99593969D01*
X124964236Y-99770825D01*
X124964239Y-99770827D01*
X124964242Y-99770830D01*
X125153924Y-99918466D01*
X125153930Y-99918470D01*
X125153933Y-99918472D01*
X125302710Y-99998986D01*
X125365336Y-100032878D01*
X125365344Y-100032882D01*
X125365347Y-100032883D01*
X125592699Y-100110933D01*
X125592701Y-100110933D01*
X125592703Y-100110934D01*
X125829808Y-100150500D01*
X125829809Y-100150500D01*
X126070191Y-100150500D01*
X126070192Y-100150500D01*
X126307297Y-100110934D01*
X126321029Y-100106220D01*
X126412861Y-100074694D01*
X126534656Y-100032882D01*
X126746067Y-99918472D01*
X126834894Y-99849335D01*
X126899886Y-99823693D01*
X126968426Y-99837259D01*
X127018751Y-99885727D01*
X127034883Y-99953709D01*
X127011701Y-100019621D01*
X126998736Y-100034870D01*
X125970426Y-101063181D01*
X125909103Y-101096666D01*
X125882745Y-101099500D01*
X123297351Y-101099500D01*
X123230312Y-101079815D01*
X123184557Y-101027011D01*
X123174061Y-100988752D01*
X123169091Y-100942516D01*
X123118797Y-100807671D01*
X123118793Y-100807664D01*
X123032547Y-100692455D01*
X122937261Y-100621123D01*
X122895391Y-100565189D01*
X122890407Y-100495497D01*
X122923893Y-100434175D01*
X122937262Y-100422590D01*
X122942329Y-100418796D01*
X122942331Y-100418796D01*
X123057546Y-100332546D01*
X123143796Y-100217331D01*
X123194091Y-100082483D01*
X123200500Y-100022873D01*
X123200499Y-98977128D01*
X123194091Y-98917517D01*
X123186357Y-98896782D01*
X123143797Y-98782671D01*
X123143793Y-98782664D01*
X123057547Y-98667455D01*
X123057544Y-98667452D01*
X122942335Y-98581206D01*
X122942328Y-98581202D01*
X122807486Y-98530910D01*
X122807485Y-98530909D01*
X122807483Y-98530909D01*
X122747873Y-98524500D01*
X122747863Y-98524500D01*
X122152129Y-98524500D01*
X122152118Y-98524501D01*
X122119708Y-98527985D01*
X122050949Y-98515577D01*
X122030971Y-98503071D01*
X121917394Y-98415921D01*
X121917392Y-98415920D01*
X121783481Y-98360453D01*
X121783479Y-98360452D01*
X121783478Y-98360452D01*
X121697693Y-98349158D01*
X121639770Y-98341532D01*
X121639768Y-98341532D01*
X121496060Y-98360452D01*
X121496056Y-98360453D01*
X121362146Y-98415919D01*
X121247148Y-98504161D01*
X121158906Y-98619159D01*
X121103440Y-98753069D01*
X121103439Y-98753073D01*
X121090707Y-98849784D01*
X121084519Y-98896782D01*
X121098388Y-99002129D01*
X121103439Y-99040490D01*
X121103440Y-99040494D01*
X121158906Y-99174404D01*
X121158907Y-99174406D01*
X121158908Y-99174407D01*
X121247148Y-99289403D01*
X121362144Y-99377643D01*
X121496060Y-99433112D01*
X121591686Y-99445701D01*
X121655582Y-99473967D01*
X121694053Y-99532292D01*
X121699500Y-99568640D01*
X121699500Y-100022870D01*
X121699501Y-100022876D01*
X121705908Y-100082483D01*
X121756202Y-100217328D01*
X121756206Y-100217335D01*
X121823737Y-100307544D01*
X121842454Y-100332546D01*
X121926876Y-100395744D01*
X121968746Y-100451677D01*
X121973730Y-100521369D01*
X121940245Y-100582692D01*
X121912002Y-100603836D01*
X121907671Y-100606201D01*
X121792455Y-100692452D01*
X121792452Y-100692455D01*
X121706206Y-100807664D01*
X121706202Y-100807671D01*
X121655908Y-100942517D01*
X121649501Y-101002116D01*
X121649500Y-101002135D01*
X121649500Y-101982743D01*
X121629815Y-102049782D01*
X121613181Y-102070424D01*
X120720426Y-102963181D01*
X120659103Y-102996666D01*
X120632745Y-102999500D01*
X120150323Y-102999500D01*
X120077264Y-103014032D01*
X120077260Y-103014033D01*
X119994399Y-103069399D01*
X119939033Y-103152260D01*
X119939032Y-103152264D01*
X119924500Y-103225321D01*
X119924500Y-103874678D01*
X119939032Y-103947735D01*
X119939033Y-103947739D01*
X119939034Y-103947740D01*
X119994399Y-104030601D01*
X120068054Y-104079815D01*
X120077260Y-104085966D01*
X120077264Y-104085967D01*
X120150321Y-104100499D01*
X120150324Y-104100500D01*
X120150326Y-104100500D01*
X121249676Y-104100500D01*
X121249677Y-104100499D01*
X121322740Y-104085966D01*
X121405601Y-104030601D01*
X121460966Y-103947740D01*
X121475500Y-103874674D01*
X121475500Y-103392254D01*
X121495185Y-103325215D01*
X121511815Y-103304577D01*
X122329574Y-102486817D01*
X122390897Y-102453333D01*
X122417255Y-102450499D01*
X122722871Y-102450499D01*
X122722872Y-102450499D01*
X122782483Y-102444091D01*
X122917331Y-102393796D01*
X123032546Y-102307546D01*
X123118796Y-102192331D01*
X123169091Y-102057483D01*
X123174062Y-102011242D01*
X123200799Y-101946694D01*
X123258191Y-101906846D01*
X123297351Y-101900500D01*
X126163431Y-101900500D01*
X126163433Y-101900500D01*
X126184501Y-101893654D01*
X126203417Y-101889112D01*
X126225304Y-101885646D01*
X126245044Y-101875586D01*
X126263011Y-101868144D01*
X126284090Y-101861296D01*
X126302026Y-101848263D01*
X126318588Y-101838114D01*
X126338342Y-101828050D01*
X126353834Y-101812557D01*
X126353841Y-101812552D01*
X127562557Y-100603836D01*
X128812319Y-99354072D01*
X128873642Y-99320588D01*
X128943334Y-99325572D01*
X128987681Y-99354073D01*
X129963181Y-100329573D01*
X129996666Y-100390896D01*
X129999500Y-100417254D01*
X129999500Y-101125500D01*
X129979815Y-101192539D01*
X129927011Y-101238294D01*
X129875500Y-101249500D01*
X127475323Y-101249500D01*
X127402264Y-101264032D01*
X127402260Y-101264033D01*
X127319399Y-101319399D01*
X127264033Y-101402260D01*
X127264032Y-101402264D01*
X127249500Y-101475321D01*
X127249500Y-102475500D01*
X127229815Y-102542539D01*
X127177011Y-102588294D01*
X127125500Y-102599500D01*
X126465948Y-102599500D01*
X126465924Y-102599501D01*
X126436564Y-102599501D01*
X126415499Y-102606346D01*
X126396582Y-102610887D01*
X126374700Y-102614352D01*
X126374695Y-102614354D01*
X126354950Y-102624414D01*
X126336986Y-102631855D01*
X126315907Y-102638705D01*
X126297984Y-102651727D01*
X126281399Y-102661890D01*
X126261659Y-102671948D01*
X126250375Y-102683232D01*
X126239091Y-102694517D01*
X125145918Y-103787689D01*
X124870426Y-104063181D01*
X124809103Y-104096666D01*
X124782745Y-104099500D01*
X123725402Y-104099500D01*
X123658363Y-104079815D01*
X123622300Y-104044391D01*
X123605601Y-104019399D01*
X123522739Y-103964033D01*
X123522735Y-103964032D01*
X123449677Y-103949500D01*
X123449674Y-103949500D01*
X122350326Y-103949500D01*
X122350323Y-103949500D01*
X122277264Y-103964032D01*
X122277260Y-103964033D01*
X122194399Y-104019399D01*
X122139033Y-104102260D01*
X122139032Y-104102264D01*
X122124500Y-104175321D01*
X122124500Y-104824678D01*
X122139032Y-104897735D01*
X122139033Y-104897739D01*
X122139034Y-104897740D01*
X122194399Y-104980601D01*
X122274762Y-105034297D01*
X122277260Y-105035966D01*
X122277264Y-105035967D01*
X122350321Y-105050499D01*
X122350324Y-105050500D01*
X122350326Y-105050500D01*
X122375500Y-105050500D01*
X122442539Y-105070185D01*
X122488294Y-105122989D01*
X122499500Y-105174500D01*
X122499500Y-106425500D01*
X122479815Y-106492539D01*
X122427011Y-106538294D01*
X122375500Y-106549500D01*
X122102130Y-106549500D01*
X122102123Y-106549501D01*
X122042516Y-106555908D01*
X121907671Y-106606202D01*
X121907664Y-106606206D01*
X121792455Y-106692452D01*
X121792452Y-106692455D01*
X121706206Y-106807664D01*
X121706202Y-106807671D01*
X121655908Y-106942517D01*
X121652003Y-106978842D01*
X121649501Y-107002123D01*
X121649500Y-107002135D01*
X121649500Y-107696246D01*
X121629815Y-107763285D01*
X121577011Y-107809040D01*
X121507853Y-107818984D01*
X121444297Y-107789959D01*
X121437819Y-107783927D01*
X121386818Y-107732926D01*
X121353333Y-107671603D01*
X121350499Y-107645245D01*
X121350499Y-107002129D01*
X121350498Y-107002123D01*
X121350497Y-107002116D01*
X121344091Y-106942517D01*
X121310266Y-106851828D01*
X121293797Y-106807671D01*
X121293793Y-106807664D01*
X121207547Y-106692455D01*
X121207544Y-106692452D01*
X121092335Y-106606206D01*
X121092328Y-106606202D01*
X120957486Y-106555910D01*
X120957485Y-106555909D01*
X120957483Y-106555909D01*
X120897873Y-106549500D01*
X120897863Y-106549500D01*
X120277129Y-106549500D01*
X120277123Y-106549501D01*
X120217516Y-106555908D01*
X120082671Y-106606202D01*
X120082664Y-106606206D01*
X119967455Y-106692452D01*
X119879490Y-106809958D01*
X119823556Y-106851828D01*
X119753865Y-106856812D01*
X119692542Y-106823326D01*
X119664042Y-106778979D01*
X119618797Y-106657671D01*
X119618793Y-106657664D01*
X119532547Y-106542455D01*
X119532546Y-106542454D01*
X119508251Y-106524267D01*
X119466379Y-106468334D01*
X119461395Y-106398642D01*
X119494880Y-106337319D01*
X119508251Y-106325733D01*
X119532546Y-106307546D01*
X119618796Y-106192331D01*
X119669091Y-106057483D01*
X119675500Y-105997873D01*
X119675499Y-105002128D01*
X119669091Y-104942517D01*
X119653419Y-104900499D01*
X119618797Y-104807671D01*
X119618793Y-104807664D01*
X119532547Y-104692455D01*
X119532544Y-104692452D01*
X119417335Y-104606206D01*
X119417328Y-104606202D01*
X119282482Y-104555908D01*
X119282483Y-104555908D01*
X119222883Y-104549501D01*
X119222881Y-104549500D01*
X119222873Y-104549500D01*
X119222865Y-104549500D01*
X118772511Y-104549500D01*
X118705472Y-104529815D01*
X118659717Y-104477011D01*
X118653047Y-104453793D01*
X118652263Y-104454004D01*
X118650160Y-104446160D01*
X118650160Y-104446154D01*
X118594691Y-104312238D01*
X118506451Y-104197242D01*
X118391455Y-104109002D01*
X118391454Y-104109001D01*
X118391452Y-104109000D01*
X118257542Y-104053534D01*
X118257540Y-104053533D01*
X118257539Y-104053533D01*
X118185684Y-104044073D01*
X118113831Y-104034613D01*
X118113829Y-104034613D01*
X117970121Y-104053533D01*
X117962270Y-104055637D01*
X117961796Y-104053869D01*
X117902466Y-104060240D01*
X117839991Y-104028956D01*
X117804347Y-103968863D01*
X117800499Y-103938220D01*
X117800499Y-102977128D01*
X117794091Y-102917517D01*
X117768722Y-102849500D01*
X117743797Y-102782671D01*
X117743793Y-102782664D01*
X117677805Y-102694517D01*
X117657546Y-102667454D01*
X117566457Y-102599265D01*
X117524588Y-102543333D01*
X117519604Y-102473641D01*
X117553089Y-102412318D01*
X117566452Y-102400738D01*
X117657546Y-102332546D01*
X117743796Y-102217331D01*
X117794091Y-102082483D01*
X117800500Y-102022873D01*
X117800499Y-100977128D01*
X117794091Y-100917517D01*
X117769095Y-100850500D01*
X117743797Y-100782671D01*
X117743793Y-100782664D01*
X117657548Y-100667456D01*
X117657546Y-100667455D01*
X117657546Y-100667454D01*
X117573121Y-100604253D01*
X117531252Y-100548322D01*
X117526268Y-100478630D01*
X117559753Y-100417307D01*
X117588010Y-100396155D01*
X117592323Y-100393798D01*
X117592331Y-100393796D01*
X117707546Y-100307546D01*
X117793796Y-100192331D01*
X117841103Y-100065493D01*
X117882974Y-100009560D01*
X117948438Y-99985143D01*
X118004737Y-99994266D01*
X118105776Y-100036117D01*
X118160180Y-100079957D01*
X118174506Y-100107345D01*
X118206202Y-100192328D01*
X118206206Y-100192335D01*
X118292452Y-100307544D01*
X118292455Y-100307547D01*
X118407664Y-100393793D01*
X118407671Y-100393797D01*
X118452618Y-100410561D01*
X118542517Y-100444091D01*
X118602127Y-100450500D01*
X119222872Y-100450499D01*
X119282483Y-100444091D01*
X119417331Y-100393796D01*
X119532546Y-100307546D01*
X119618796Y-100192331D01*
X119669091Y-100057483D01*
X119675500Y-99997873D01*
X119675499Y-99002128D01*
X119669091Y-98942517D01*
X119667989Y-98939563D01*
X119618797Y-98807671D01*
X119618793Y-98807664D01*
X119532547Y-98692455D01*
X119450188Y-98630800D01*
X119408318Y-98574866D01*
X119400500Y-98531534D01*
X119400500Y-97924359D01*
X119420185Y-97857320D01*
X119436814Y-97836683D01*
X121973492Y-95300005D01*
X124494529Y-95300005D01*
X124514379Y-95539559D01*
X124573389Y-95772589D01*
X124669951Y-95992729D01*
X124795393Y-96184731D01*
X124801429Y-96193969D01*
X124964236Y-96370825D01*
X124964239Y-96370827D01*
X124964242Y-96370830D01*
X125153924Y-96518466D01*
X125153930Y-96518470D01*
X125153933Y-96518472D01*
X125365344Y-96632882D01*
X125365347Y-96632883D01*
X125592699Y-96710933D01*
X125592701Y-96710933D01*
X125592703Y-96710934D01*
X125829808Y-96750500D01*
X125829809Y-96750500D01*
X126070191Y-96750500D01*
X126070192Y-96750500D01*
X126307297Y-96710934D01*
X126534656Y-96632882D01*
X126746067Y-96518472D01*
X126935764Y-96370825D01*
X127098571Y-96193969D01*
X127230049Y-95992728D01*
X127326610Y-95772591D01*
X127385620Y-95539563D01*
X127405471Y-95300000D01*
X127385620Y-95060437D01*
X127326610Y-94827409D01*
X127230049Y-94607272D01*
X127098571Y-94406031D01*
X126935764Y-94229175D01*
X126935759Y-94229171D01*
X126935757Y-94229169D01*
X126746075Y-94081533D01*
X126746069Y-94081529D01*
X126534657Y-93967118D01*
X126534652Y-93967116D01*
X126307300Y-93889066D01*
X126097644Y-93854081D01*
X126070192Y-93849500D01*
X125829808Y-93849500D01*
X125802356Y-93854081D01*
X125592699Y-93889066D01*
X125365347Y-93967116D01*
X125365342Y-93967118D01*
X125153930Y-94081529D01*
X125153924Y-94081533D01*
X124964242Y-94229169D01*
X124964239Y-94229172D01*
X124801430Y-94406029D01*
X124801427Y-94406033D01*
X124669951Y-94607270D01*
X124573389Y-94827410D01*
X124514379Y-95060440D01*
X124494529Y-95299994D01*
X124494529Y-95300005D01*
X121973492Y-95300005D01*
X128206542Y-89066954D01*
X128267863Y-89033471D01*
X128326315Y-89034862D01*
X128331785Y-89036327D01*
X128331791Y-89036330D01*
X128439572Y-89050520D01*
X128475499Y-89055250D01*
X128475500Y-89055250D01*
X128475501Y-89055250D01*
X128493486Y-89052882D01*
X128619209Y-89036330D01*
X128753125Y-88980861D01*
X128868121Y-88892621D01*
X128956361Y-88777625D01*
X129011830Y-88643709D01*
X129030750Y-88500000D01*
X129011830Y-88356291D01*
X129011826Y-88356282D01*
X129010363Y-88350818D01*
X129012024Y-88280968D01*
X129042454Y-88231043D01*
X129836680Y-87436819D01*
X129898003Y-87403334D01*
X129924361Y-87400500D01*
X132825554Y-87400500D01*
X132892593Y-87420185D01*
X132901040Y-87426124D01*
X132950582Y-87464139D01*
X132972375Y-87480861D01*
X133106291Y-87536330D01*
X133233280Y-87553048D01*
X133249999Y-87555250D01*
X133250000Y-87555250D01*
X133250001Y-87555250D01*
X133264977Y-87553278D01*
X133393709Y-87536330D01*
X133527625Y-87480861D01*
X133642621Y-87392621D01*
X133730861Y-87277625D01*
X133786330Y-87143709D01*
X133805250Y-87000000D01*
X133786330Y-86856291D01*
X133749350Y-86767013D01*
X133730862Y-86722377D01*
X133730861Y-86722376D01*
X133730861Y-86722375D01*
X133642621Y-86607379D01*
X133527625Y-86519139D01*
X133527624Y-86519138D01*
X133527622Y-86519137D01*
X133393712Y-86463671D01*
X133393710Y-86463670D01*
X133393709Y-86463670D01*
X133321854Y-86454210D01*
X133250001Y-86444750D01*
X133249999Y-86444750D01*
X133106291Y-86463670D01*
X133106287Y-86463671D01*
X132972376Y-86519138D01*
X132972374Y-86519139D01*
X132901040Y-86573876D01*
X132835871Y-86599070D01*
X132825554Y-86599500D01*
X130266255Y-86599500D01*
X130199216Y-86579815D01*
X130153461Y-86527011D01*
X130143517Y-86457853D01*
X130172542Y-86394297D01*
X130178574Y-86387819D01*
X131562552Y-85003841D01*
X131562557Y-85003834D01*
X131578050Y-84988342D01*
X131588109Y-84968598D01*
X131598269Y-84952018D01*
X131611296Y-84934089D01*
X131611298Y-84934080D01*
X131613140Y-84930469D01*
X131638503Y-84899989D01*
X131636878Y-84898364D01*
X131642621Y-84892621D01*
X131730861Y-84777625D01*
X131786330Y-84643709D01*
X131805250Y-84500000D01*
X131786330Y-84356291D01*
X131730861Y-84222375D01*
X131642621Y-84107379D01*
X131527625Y-84019139D01*
X131527624Y-84019138D01*
X131527622Y-84019137D01*
X131393712Y-83963671D01*
X131393710Y-83963670D01*
X131393709Y-83963670D01*
X131321854Y-83954210D01*
X131250001Y-83944750D01*
X131249999Y-83944750D01*
X131106291Y-83963670D01*
X131106287Y-83963671D01*
X130972377Y-84019137D01*
X130857379Y-84107379D01*
X130769137Y-84222377D01*
X130713671Y-84356287D01*
X130713670Y-84356291D01*
X130694750Y-84499999D01*
X130694750Y-84500000D01*
X130714556Y-84650440D01*
X130703791Y-84719476D01*
X130679298Y-84754307D01*
X123862181Y-91571425D01*
X123800858Y-91604910D01*
X123731166Y-91599926D01*
X123675233Y-91558054D01*
X123650816Y-91492590D01*
X123650500Y-91483744D01*
X123650500Y-82087756D01*
X123670185Y-82020717D01*
X123722989Y-81974962D01*
X123792147Y-81965018D01*
X123821943Y-81973192D01*
X123855791Y-81987212D01*
X123927000Y-81996587D01*
X123999499Y-82006132D01*
X123999500Y-82006132D01*
X123999501Y-82006132D01*
X124014477Y-82004160D01*
X124143209Y-81987212D01*
X124178049Y-81972780D01*
X124247516Y-81965312D01*
X124309995Y-81996587D01*
X124345648Y-82056675D01*
X124349500Y-82087342D01*
X124349500Y-85563429D01*
X124349501Y-85563439D01*
X124356346Y-85584507D01*
X124360887Y-85603418D01*
X124364354Y-85625304D01*
X124364355Y-85625307D01*
X124374412Y-85645045D01*
X124381857Y-85663018D01*
X124388704Y-85684090D01*
X124401726Y-85702014D01*
X124411890Y-85718600D01*
X124421950Y-85738342D01*
X124442864Y-85759256D01*
X124442893Y-85759287D01*
X124666675Y-85983068D01*
X124700160Y-86044391D01*
X124701933Y-86054563D01*
X124713670Y-86143707D01*
X124713671Y-86143712D01*
X124769137Y-86277622D01*
X124769138Y-86277624D01*
X124769139Y-86277625D01*
X124857379Y-86392621D01*
X124972375Y-86480861D01*
X125106291Y-86536330D01*
X125233280Y-86553048D01*
X125249999Y-86555250D01*
X125250000Y-86555250D01*
X125250001Y-86555250D01*
X125264977Y-86553278D01*
X125393709Y-86536330D01*
X125527625Y-86480861D01*
X125642621Y-86392621D01*
X125730861Y-86277625D01*
X125786330Y-86143709D01*
X125805250Y-86000000D01*
X125786330Y-85856291D01*
X125730861Y-85722375D01*
X125642621Y-85607379D01*
X125527625Y-85519139D01*
X125527624Y-85519138D01*
X125527622Y-85519137D01*
X125393712Y-85463671D01*
X125393710Y-85463670D01*
X125393709Y-85463670D01*
X125345009Y-85457258D01*
X125304563Y-85451933D01*
X125240666Y-85423666D01*
X125233068Y-85416675D01*
X125186819Y-85370426D01*
X125153334Y-85309103D01*
X125150500Y-85282745D01*
X125150500Y-81038001D01*
X125170185Y-80970962D01*
X125222989Y-80925207D01*
X125292147Y-80915263D01*
X125355703Y-80944288D01*
X125362168Y-80950308D01*
X125797656Y-81385795D01*
X126316689Y-81904828D01*
X126350174Y-81966151D01*
X126353008Y-81992509D01*
X126353008Y-84046130D01*
X126353009Y-84046140D01*
X126359854Y-84067208D01*
X126364395Y-84086119D01*
X126367862Y-84108005D01*
X126367863Y-84108008D01*
X126377920Y-84127746D01*
X126385365Y-84145719D01*
X126392212Y-84166791D01*
X126405234Y-84184715D01*
X126415398Y-84201301D01*
X126425458Y-84221043D01*
X126446372Y-84241957D01*
X126446401Y-84241988D01*
X126806219Y-84601804D01*
X126895927Y-84691512D01*
X126915664Y-84701568D01*
X126932250Y-84711731D01*
X126950179Y-84724758D01*
X126950181Y-84724758D01*
X126950182Y-84724759D01*
X126971243Y-84731602D01*
X126989222Y-84739048D01*
X127008965Y-84749108D01*
X127030854Y-84752574D01*
X127049770Y-84757115D01*
X127070836Y-84763961D01*
X127100193Y-84763961D01*
X127100217Y-84763962D01*
X127102750Y-84763962D01*
X127992863Y-84763962D01*
X127992865Y-84763962D01*
X128013933Y-84757116D01*
X128032849Y-84752574D01*
X128054736Y-84749108D01*
X128074476Y-84739048D01*
X128092443Y-84731606D01*
X128113522Y-84724758D01*
X128131458Y-84711725D01*
X128148020Y-84701576D01*
X128167774Y-84691512D01*
X128183266Y-84676019D01*
X128183273Y-84676014D01*
X130172468Y-82686819D01*
X130233791Y-82653334D01*
X130260149Y-82650500D01*
X130732745Y-82650500D01*
X130799784Y-82670185D01*
X130820426Y-82686819D01*
X135063181Y-86929574D01*
X135096666Y-86990897D01*
X135099500Y-87017255D01*
X135099500Y-87325553D01*
X135079815Y-87392592D01*
X135073876Y-87401039D01*
X135019139Y-87472374D01*
X135019138Y-87472376D01*
X134963671Y-87606287D01*
X134963670Y-87606291D01*
X134944750Y-87749999D01*
X134944750Y-87750000D01*
X134963670Y-87893708D01*
X134963671Y-87893712D01*
X135019137Y-88027622D01*
X135019138Y-88027624D01*
X135019139Y-88027625D01*
X135107379Y-88142621D01*
X135222375Y-88230861D01*
X135222376Y-88230861D01*
X135222377Y-88230862D01*
X135266133Y-88248986D01*
X135356291Y-88286330D01*
X135483280Y-88303048D01*
X135499999Y-88305250D01*
X135500000Y-88305250D01*
X135500001Y-88305250D01*
X135514977Y-88303278D01*
X135643709Y-88286330D01*
X135777625Y-88230861D01*
X135800013Y-88213682D01*
X135865182Y-88188487D01*
X135933627Y-88202525D01*
X135983617Y-88251338D01*
X135999500Y-88312057D01*
X135999500Y-114998376D01*
X135999415Y-115001622D01*
X135992509Y-115133382D01*
X135982196Y-115317013D01*
X135981530Y-115323240D01*
X135957394Y-115475630D01*
X135929778Y-115638163D01*
X135928541Y-115643827D01*
X135887579Y-115796702D01*
X135842916Y-115951725D01*
X135841221Y-115956781D01*
X135783877Y-116106170D01*
X135722643Y-116254001D01*
X135720604Y-116258423D01*
X135647488Y-116401921D01*
X135570364Y-116541467D01*
X135568097Y-116545246D01*
X135480019Y-116680872D01*
X135387862Y-116810755D01*
X135385480Y-116813896D01*
X135284385Y-116938738D01*
X135282431Y-116941034D01*
X135177260Y-117058721D01*
X135174870Y-117061248D01*
X135061248Y-117174870D01*
X135058721Y-117177260D01*
X134941034Y-117282431D01*
X134938738Y-117284385D01*
X134813896Y-117385480D01*
X134810755Y-117387862D01*
X134680872Y-117480019D01*
X134545246Y-117568097D01*
X134541467Y-117570364D01*
X134401921Y-117647488D01*
X134258423Y-117720604D01*
X134254001Y-117722643D01*
X134106170Y-117783877D01*
X133956781Y-117841221D01*
X133951725Y-117842916D01*
X133796702Y-117887579D01*
X133643827Y-117928541D01*
X133638163Y-117929778D01*
X133475630Y-117957394D01*
X133323240Y-117981530D01*
X133317013Y-117982196D01*
X133133382Y-117992509D01*
X133001622Y-117999415D01*
X132998376Y-117999500D01*
X100001624Y-117999500D01*
X99998378Y-117999415D01*
X99866617Y-117992509D01*
X99682985Y-117982196D01*
X99676758Y-117981530D01*
X99524369Y-117957394D01*
X99361835Y-117929778D01*
X99356171Y-117928541D01*
X99203297Y-117887579D01*
X99048273Y-117842916D01*
X99043217Y-117841221D01*
X98893829Y-117783877D01*
X98745997Y-117722643D01*
X98741575Y-117720604D01*
X98598078Y-117647488D01*
X98458531Y-117570364D01*
X98454767Y-117568106D01*
X98401875Y-117533758D01*
X98319127Y-117480019D01*
X98189243Y-117387862D01*
X98186102Y-117385480D01*
X98061260Y-117284385D01*
X98058964Y-117282431D01*
X97941277Y-117177260D01*
X97938750Y-117174870D01*
X97825128Y-117061248D01*
X97822738Y-117058721D01*
X97717567Y-116941034D01*
X97715613Y-116938738D01*
X97676848Y-116890867D01*
X97614510Y-116813886D01*
X97612136Y-116810755D01*
X97519980Y-116680872D01*
X97487406Y-116630715D01*
X97431882Y-116545215D01*
X97429641Y-116541480D01*
X97394241Y-116477428D01*
X97352511Y-116401921D01*
X97293853Y-116286801D01*
X97279388Y-116258412D01*
X97277358Y-116254007D01*
X97216122Y-116106170D01*
X97158769Y-115956759D01*
X97157082Y-115951724D01*
X97135755Y-115877697D01*
X97112414Y-115796679D01*
X97107316Y-115777652D01*
X97071453Y-115643811D01*
X97070226Y-115638194D01*
X97042601Y-115475606D01*
X97018465Y-115323212D01*
X97017803Y-115317027D01*
X97007490Y-115133382D01*
X97007375Y-115131187D01*
X98249500Y-115131187D01*
X98253429Y-115157250D01*
X98288604Y-115390615D01*
X98288605Y-115390617D01*
X98288606Y-115390623D01*
X98365938Y-115641326D01*
X98479767Y-115877696D01*
X98479768Y-115877697D01*
X98479770Y-115877700D01*
X98479772Y-115877704D01*
X98530239Y-115951725D01*
X98627567Y-116094479D01*
X98806014Y-116286801D01*
X98806018Y-116286804D01*
X98806019Y-116286805D01*
X99011143Y-116450386D01*
X99238357Y-116581568D01*
X99482584Y-116677420D01*
X99738370Y-116735802D01*
X99738376Y-116735802D01*
X99738379Y-116735803D01*
X99934500Y-116750500D01*
X99934506Y-116750500D01*
X100065500Y-116750500D01*
X100261620Y-116735803D01*
X100261622Y-116735802D01*
X100261630Y-116735802D01*
X100517416Y-116677420D01*
X100761643Y-116581568D01*
X100988857Y-116450386D01*
X101193981Y-116286805D01*
X101372433Y-116094479D01*
X101520228Y-115877704D01*
X101634063Y-115641323D01*
X101711396Y-115390615D01*
X101750499Y-115131187D01*
X131249500Y-115131187D01*
X131253429Y-115157250D01*
X131288604Y-115390615D01*
X131288605Y-115390617D01*
X131288606Y-115390623D01*
X131365938Y-115641326D01*
X131479767Y-115877696D01*
X131479768Y-115877697D01*
X131479770Y-115877700D01*
X131479772Y-115877704D01*
X131530239Y-115951725D01*
X131627567Y-116094479D01*
X131806014Y-116286801D01*
X131806018Y-116286804D01*
X131806019Y-116286805D01*
X132011143Y-116450386D01*
X132238357Y-116581568D01*
X132482584Y-116677420D01*
X132738370Y-116735802D01*
X132738376Y-116735802D01*
X132738379Y-116735803D01*
X132934500Y-116750500D01*
X132934506Y-116750500D01*
X133065500Y-116750500D01*
X133261620Y-116735803D01*
X133261622Y-116735802D01*
X133261630Y-116735802D01*
X133517416Y-116677420D01*
X133761643Y-116581568D01*
X133988857Y-116450386D01*
X134193981Y-116286805D01*
X134372433Y-116094479D01*
X134520228Y-115877704D01*
X134634063Y-115641323D01*
X134711396Y-115390615D01*
X134750500Y-115131182D01*
X134750500Y-114868818D01*
X134711396Y-114609385D01*
X134634063Y-114358677D01*
X134622121Y-114333880D01*
X134520232Y-114122303D01*
X134520231Y-114122302D01*
X134520230Y-114122301D01*
X134520228Y-114122296D01*
X134372433Y-113905521D01*
X134362441Y-113894753D01*
X134193985Y-113713198D01*
X134154533Y-113681736D01*
X133988857Y-113549614D01*
X133761643Y-113418432D01*
X133517416Y-113322580D01*
X133517411Y-113322578D01*
X133517402Y-113322576D01*
X133299818Y-113272914D01*
X133261630Y-113264198D01*
X133261629Y-113264197D01*
X133261625Y-113264197D01*
X133261620Y-113264196D01*
X133065500Y-113249500D01*
X133065494Y-113249500D01*
X132934506Y-113249500D01*
X132934500Y-113249500D01*
X132738379Y-113264196D01*
X132738374Y-113264197D01*
X132482597Y-113322576D01*
X132482578Y-113322582D01*
X132238356Y-113418432D01*
X132011143Y-113549614D01*
X131806014Y-113713198D01*
X131627567Y-113905520D01*
X131479768Y-114122302D01*
X131479767Y-114122303D01*
X131365938Y-114358673D01*
X131288606Y-114609376D01*
X131288605Y-114609381D01*
X131288604Y-114609385D01*
X131273853Y-114707247D01*
X131249500Y-114868812D01*
X131249500Y-115131187D01*
X101750499Y-115131187D01*
X101750500Y-115131182D01*
X101750500Y-114868818D01*
X101711396Y-114609385D01*
X101634063Y-114358677D01*
X101622121Y-114333880D01*
X101520232Y-114122303D01*
X101520231Y-114122302D01*
X101520230Y-114122301D01*
X101520228Y-114122296D01*
X101372433Y-113905521D01*
X101362441Y-113894753D01*
X101193985Y-113713198D01*
X101154533Y-113681736D01*
X100988857Y-113549614D01*
X100761643Y-113418432D01*
X100517416Y-113322580D01*
X100517411Y-113322578D01*
X100517402Y-113322576D01*
X100299818Y-113272914D01*
X100261630Y-113264198D01*
X100261629Y-113264197D01*
X100261625Y-113264197D01*
X100261620Y-113264196D01*
X100065500Y-113249500D01*
X100065494Y-113249500D01*
X99934506Y-113249500D01*
X99934500Y-113249500D01*
X99738379Y-113264196D01*
X99738374Y-113264197D01*
X99482597Y-113322576D01*
X99482578Y-113322582D01*
X99238356Y-113418432D01*
X99011143Y-113549614D01*
X98806014Y-113713198D01*
X98627567Y-113905520D01*
X98479768Y-114122302D01*
X98479767Y-114122303D01*
X98365938Y-114358673D01*
X98288606Y-114609376D01*
X98288605Y-114609381D01*
X98288604Y-114609385D01*
X98273853Y-114707247D01*
X98249500Y-114868812D01*
X98249500Y-115131187D01*
X97007375Y-115131187D01*
X97000584Y-115001620D01*
X97000500Y-114998377D01*
X97000500Y-109000000D01*
X99119571Y-109000000D01*
X99139244Y-109212310D01*
X99196469Y-109413433D01*
X99197596Y-109417392D01*
X99197596Y-109417394D01*
X99292632Y-109608253D01*
X99382652Y-109727457D01*
X99421128Y-109778407D01*
X99578698Y-109922052D01*
X99759981Y-110034298D01*
X99958802Y-110111321D01*
X100168390Y-110150500D01*
X100168392Y-110150500D01*
X100381608Y-110150500D01*
X100381610Y-110150500D01*
X100591198Y-110111321D01*
X100790019Y-110034298D01*
X100971302Y-109922052D01*
X101128872Y-109778407D01*
X101257366Y-109608255D01*
X101281440Y-109559907D01*
X101352403Y-109417394D01*
X101352403Y-109417393D01*
X101352405Y-109417389D01*
X101410756Y-109212310D01*
X101430429Y-109000000D01*
X101410756Y-108787690D01*
X101352405Y-108582611D01*
X101352403Y-108582606D01*
X101352403Y-108582605D01*
X101257367Y-108391746D01*
X101128872Y-108221593D01*
X101058614Y-108157544D01*
X100971302Y-108077948D01*
X100790019Y-107965702D01*
X100790017Y-107965701D01*
X100639737Y-107907483D01*
X100591198Y-107888679D01*
X100381610Y-107849500D01*
X100168390Y-107849500D01*
X99958802Y-107888679D01*
X99958799Y-107888679D01*
X99958799Y-107888680D01*
X99759982Y-107965701D01*
X99759980Y-107965702D01*
X99578699Y-108077947D01*
X99421127Y-108221593D01*
X99292632Y-108391746D01*
X99197596Y-108582605D01*
X99197596Y-108582607D01*
X99197595Y-108582611D01*
X99139244Y-108787690D01*
X99119571Y-109000000D01*
X97000500Y-109000000D01*
X97000500Y-90230002D01*
X100144723Y-90230002D01*
X100149061Y-90279590D01*
X100160831Y-90414125D01*
X100163793Y-90447975D01*
X100163793Y-90447979D01*
X100220422Y-90659322D01*
X100220424Y-90659326D01*
X100220425Y-90659330D01*
X100266661Y-90758484D01*
X100312897Y-90857638D01*
X100312898Y-90857639D01*
X100438402Y-91036877D01*
X100521069Y-91119544D01*
X100593124Y-91191599D01*
X100687623Y-91257767D01*
X100731248Y-91312343D01*
X100740500Y-91359342D01*
X100740500Y-92808878D01*
X100741121Y-92821562D01*
X100741122Y-92821568D01*
X100741122Y-92821572D01*
X100744145Y-92852381D01*
X100744146Y-92852382D01*
X100772384Y-92947158D01*
X100772385Y-92947159D01*
X100805251Y-93010089D01*
X100830229Y-93049013D01*
X100830235Y-93049020D01*
X100906707Y-93115374D01*
X100906709Y-93115375D01*
X100968380Y-93150548D01*
X100992121Y-93159907D01*
X101037092Y-93177636D01*
X101037094Y-93177636D01*
X101037098Y-93177638D01*
X101270734Y-93233010D01*
X101277639Y-93235077D01*
X101565845Y-93339976D01*
X101572468Y-93342833D01*
X101846564Y-93480490D01*
X101852811Y-93484096D01*
X102109046Y-93652625D01*
X102114826Y-93656928D01*
X102349785Y-93854081D01*
X102355034Y-93859033D01*
X102565514Y-94082130D01*
X102570150Y-94087653D01*
X102753297Y-94333663D01*
X102757255Y-94339682D01*
X102910613Y-94605306D01*
X102913852Y-94611754D01*
X103035331Y-94893377D01*
X103037799Y-94900158D01*
X103125761Y-95193971D01*
X103127426Y-95200992D01*
X103180687Y-95503044D01*
X103181524Y-95510211D01*
X103199356Y-95816386D01*
X103199356Y-95823601D01*
X103197726Y-95851571D01*
X103197727Y-95851594D01*
X103201720Y-95914434D01*
X103212892Y-95974097D01*
X103212892Y-95974098D01*
X103212894Y-95974105D01*
X103221741Y-96008291D01*
X103271844Y-96096278D01*
X103271846Y-96096281D01*
X103318334Y-96149931D01*
X103351627Y-96182057D01*
X103374400Y-96193969D01*
X103441345Y-96228987D01*
X103509466Y-96248989D01*
X103582575Y-96259500D01*
X103582577Y-96259500D01*
X105544500Y-96259500D01*
X105599659Y-96253570D01*
X105652001Y-96242184D01*
X105652000Y-96242184D01*
X105652015Y-96242181D01*
X105664246Y-96238824D01*
X105678791Y-96234834D01*
X105766778Y-96184731D01*
X105820434Y-96138238D01*
X105852559Y-96104945D01*
X105899488Y-96015226D01*
X105905700Y-95994070D01*
X105943472Y-95935290D01*
X106007026Y-95906263D01*
X106024678Y-95905000D01*
X108945999Y-95905000D01*
X109013038Y-95924685D01*
X109058793Y-95977489D01*
X109069999Y-96029000D01*
X109069999Y-98034268D01*
X109070743Y-98048149D01*
X109070744Y-98048157D01*
X109074363Y-98081825D01*
X109074364Y-98081830D01*
X109074365Y-98081835D01*
X109074367Y-98081840D01*
X109104620Y-98178455D01*
X109104622Y-98178461D01*
X109138645Y-98240767D01*
X109138648Y-98240772D01*
X109182910Y-98299898D01*
X109182914Y-98299902D01*
X109182919Y-98299908D01*
X110784519Y-99901507D01*
X110784520Y-99901507D01*
X110794848Y-99910785D01*
X110794847Y-99910785D01*
X110794851Y-99910788D01*
X110821234Y-99932050D01*
X110821241Y-99932056D01*
X110910960Y-99978987D01*
X110979081Y-99998989D01*
X111052190Y-100009500D01*
X111820736Y-100009500D01*
X111879753Y-100024445D01*
X111890401Y-100030207D01*
X111895344Y-100032882D01*
X111895347Y-100032883D01*
X112122699Y-100110933D01*
X112122701Y-100110933D01*
X112122703Y-100110934D01*
X112359808Y-100150500D01*
X112359809Y-100150500D01*
X112600191Y-100150500D01*
X112600192Y-100150500D01*
X112837297Y-100110934D01*
X112851029Y-100106220D01*
X112942861Y-100074694D01*
X113064656Y-100032882D01*
X113276067Y-99918472D01*
X113285940Y-99910788D01*
X113364893Y-99849336D01*
X113465764Y-99770825D01*
X113628571Y-99593969D01*
X113760049Y-99392728D01*
X113856610Y-99172591D01*
X113915620Y-98939563D01*
X113926550Y-98807664D01*
X113935471Y-98700005D01*
X113935471Y-98699994D01*
X113918588Y-98496252D01*
X113915620Y-98460437D01*
X113856610Y-98227409D01*
X113760049Y-98007272D01*
X113628571Y-97806031D01*
X113465764Y-97629175D01*
X113465759Y-97629171D01*
X113465757Y-97629169D01*
X113276075Y-97481533D01*
X113276069Y-97481529D01*
X113074482Y-97372435D01*
X113024892Y-97323215D01*
X113009500Y-97263380D01*
X113009500Y-96736618D01*
X113029185Y-96669579D01*
X113074480Y-96627565D01*
X113276067Y-96518472D01*
X113465764Y-96370825D01*
X113628571Y-96193969D01*
X113760049Y-95992728D01*
X113856610Y-95772591D01*
X113915620Y-95539563D01*
X113935471Y-95300000D01*
X113915620Y-95060437D01*
X113856610Y-94827409D01*
X113760049Y-94607272D01*
X113628571Y-94406031D01*
X113465764Y-94229175D01*
X113465759Y-94229171D01*
X113465757Y-94229169D01*
X113276075Y-94081533D01*
X113276069Y-94081529D01*
X113064657Y-93967118D01*
X113064652Y-93967116D01*
X112837300Y-93889066D01*
X112627644Y-93854081D01*
X112600192Y-93849500D01*
X112359808Y-93849500D01*
X112332356Y-93854081D01*
X112122699Y-93889066D01*
X111895352Y-93967115D01*
X111895332Y-93967123D01*
X111806425Y-94015237D01*
X111752351Y-94030083D01*
X111668357Y-94033433D01*
X111600586Y-94016436D01*
X111571673Y-93992955D01*
X111291758Y-93685129D01*
X111261220Y-93622287D01*
X111259500Y-93601706D01*
X111259500Y-90545244D01*
X111258756Y-90531363D01*
X111258319Y-90527305D01*
X111255135Y-90497672D01*
X111255134Y-90497664D01*
X111224877Y-90401039D01*
X111190851Y-90338727D01*
X111146589Y-90279601D01*
X111146584Y-90279596D01*
X111146579Y-90279590D01*
X109715481Y-88848493D01*
X109715480Y-88848493D01*
X109705152Y-88839215D01*
X109705153Y-88839215D01*
X109698089Y-88833523D01*
X109678766Y-88817950D01*
X109678759Y-88817944D01*
X109589040Y-88771013D01*
X109589035Y-88771011D01*
X109589034Y-88771011D01*
X109520927Y-88751013D01*
X109520911Y-88751009D01*
X109447810Y-88740500D01*
X109324795Y-88740500D01*
X109257756Y-88720815D01*
X109255905Y-88719602D01*
X109172743Y-88664035D01*
X109172735Y-88664032D01*
X109099677Y-88649500D01*
X109099674Y-88649500D01*
X105900326Y-88649500D01*
X105900323Y-88649500D01*
X105827264Y-88664032D01*
X105827256Y-88664035D01*
X105744095Y-88719602D01*
X105677418Y-88740480D01*
X105675205Y-88740500D01*
X101126000Y-88740500D01*
X101070840Y-88746430D01*
X101018485Y-88757819D01*
X100991708Y-88765166D01*
X100903722Y-88815268D01*
X100903718Y-88815271D01*
X100850069Y-88861759D01*
X100817942Y-88895052D01*
X100771012Y-88984770D01*
X100771011Y-88984774D01*
X100751013Y-89052882D01*
X100751009Y-89052897D01*
X100741871Y-89116459D01*
X100712846Y-89180015D01*
X100690258Y-89200386D01*
X100593125Y-89268400D01*
X100438400Y-89423124D01*
X100312900Y-89602357D01*
X100312898Y-89602361D01*
X100220426Y-89800668D01*
X100220422Y-89800677D01*
X100163793Y-90012020D01*
X100163793Y-90012024D01*
X100144723Y-90229997D01*
X100144723Y-90230002D01*
X97000500Y-90230002D01*
X97000500Y-78800002D01*
X100144723Y-78800002D01*
X100145124Y-78804581D01*
X100157144Y-78941982D01*
X100163793Y-79017975D01*
X100163793Y-79017979D01*
X100220422Y-79229322D01*
X100220424Y-79229326D01*
X100220425Y-79229330D01*
X100230297Y-79250500D01*
X100312897Y-79427638D01*
X100312898Y-79427639D01*
X100438402Y-79606877D01*
X100593123Y-79761598D01*
X100772361Y-79887102D01*
X100970670Y-79979575D01*
X101182023Y-80036207D01*
X101364926Y-80052208D01*
X101399998Y-80055277D01*
X101400000Y-80055277D01*
X101400002Y-80055277D01*
X101428254Y-80052805D01*
X101617977Y-80036207D01*
X101829330Y-79979575D01*
X102027639Y-79887102D01*
X102206877Y-79761598D01*
X102361598Y-79606877D01*
X102487102Y-79427639D01*
X102579575Y-79229330D01*
X102602866Y-79142407D01*
X102639231Y-79082746D01*
X102702078Y-79052217D01*
X102722641Y-79050500D01*
X103201189Y-79050500D01*
X103268228Y-79070185D01*
X103304291Y-79105609D01*
X103340968Y-79160500D01*
X103354399Y-79180601D01*
X103427316Y-79229322D01*
X103437260Y-79235966D01*
X103437264Y-79235967D01*
X103510321Y-79250499D01*
X103510324Y-79250500D01*
X103510326Y-79250500D01*
X105489676Y-79250500D01*
X105489677Y-79250499D01*
X105562740Y-79235966D01*
X105645601Y-79180601D01*
X105700966Y-79097740D01*
X105715500Y-79024674D01*
X105715500Y-77975326D01*
X105715500Y-77975323D01*
X105715499Y-77975321D01*
X105700967Y-77902264D01*
X105700966Y-77902260D01*
X105686933Y-77881258D01*
X105645601Y-77819399D01*
X105590235Y-77782405D01*
X105562739Y-77764033D01*
X105562735Y-77764032D01*
X105489677Y-77749500D01*
X105489674Y-77749500D01*
X103510326Y-77749500D01*
X103510323Y-77749500D01*
X103437264Y-77764032D01*
X103437260Y-77764033D01*
X103354398Y-77819399D01*
X103304291Y-77894391D01*
X103250679Y-77939196D01*
X103201189Y-77949500D01*
X102369337Y-77949500D01*
X102302298Y-77929815D01*
X102281656Y-77913181D01*
X102206881Y-77838406D01*
X102206877Y-77838402D01*
X102027639Y-77712898D01*
X102027640Y-77712898D01*
X102027638Y-77712897D01*
X101928484Y-77666661D01*
X101829330Y-77620425D01*
X101829326Y-77620424D01*
X101829322Y-77620422D01*
X101617977Y-77563793D01*
X101400002Y-77544723D01*
X101399998Y-77544723D01*
X101254682Y-77557436D01*
X101182023Y-77563793D01*
X101182020Y-77563793D01*
X100970677Y-77620422D01*
X100970668Y-77620426D01*
X100772361Y-77712898D01*
X100772357Y-77712900D01*
X100593121Y-77838402D01*
X100438402Y-77993121D01*
X100312900Y-78172357D01*
X100312898Y-78172361D01*
X100220426Y-78370668D01*
X100220422Y-78370677D01*
X100163793Y-78582020D01*
X100163793Y-78582024D01*
X100144723Y-78799997D01*
X100144723Y-78800002D01*
X97000500Y-78800002D01*
X97000500Y-74990002D01*
X100144723Y-74990002D01*
X100152042Y-75073658D01*
X100163051Y-75199500D01*
X100163793Y-75207975D01*
X100163793Y-75207979D01*
X100220422Y-75419322D01*
X100220424Y-75419326D01*
X100220425Y-75419330D01*
X100247374Y-75477122D01*
X100312897Y-75617638D01*
X100335908Y-75650500D01*
X100438402Y-75796877D01*
X100593123Y-75951598D01*
X100772361Y-76077102D01*
X100970670Y-76169575D01*
X101182023Y-76226207D01*
X101364926Y-76242208D01*
X101399998Y-76245277D01*
X101400000Y-76245277D01*
X101400002Y-76245277D01*
X101428254Y-76242805D01*
X101617977Y-76226207D01*
X101829330Y-76169575D01*
X102027639Y-76077102D01*
X102206877Y-75951598D01*
X102361598Y-75796877D01*
X102487102Y-75617639D01*
X102579575Y-75419330D01*
X102636207Y-75207977D01*
X102655277Y-74990000D01*
X102652973Y-74963670D01*
X102651298Y-74944516D01*
X102636207Y-74772023D01*
X102579575Y-74560670D01*
X102487102Y-74362362D01*
X102487100Y-74362359D01*
X102487099Y-74362357D01*
X102361599Y-74183124D01*
X102329359Y-74150884D01*
X102206877Y-74028402D01*
X102027639Y-73902898D01*
X102027640Y-73902898D01*
X102027638Y-73902897D01*
X101928484Y-73856661D01*
X101829330Y-73810425D01*
X101829326Y-73810424D01*
X101829322Y-73810422D01*
X101617977Y-73753793D01*
X101400002Y-73734723D01*
X101399998Y-73734723D01*
X101254682Y-73747436D01*
X101182023Y-73753793D01*
X101182020Y-73753793D01*
X100970677Y-73810422D01*
X100970668Y-73810426D01*
X100772361Y-73902898D01*
X100772357Y-73902900D01*
X100593121Y-74028402D01*
X100438402Y-74183121D01*
X100312900Y-74362357D01*
X100312898Y-74362361D01*
X100220426Y-74560668D01*
X100220422Y-74560677D01*
X100163793Y-74772020D01*
X100163793Y-74772024D01*
X100144723Y-74989997D01*
X100144723Y-74990002D01*
X97000500Y-74990002D01*
X97000500Y-71180002D01*
X100144723Y-71180002D01*
X100145124Y-71184581D01*
X100157144Y-71321982D01*
X100163793Y-71397975D01*
X100163793Y-71397979D01*
X100220422Y-71609322D01*
X100220424Y-71609326D01*
X100220425Y-71609330D01*
X100252714Y-71678573D01*
X100312897Y-71807638D01*
X100312898Y-71807639D01*
X100438402Y-71986877D01*
X100593123Y-72141598D01*
X100772361Y-72267102D01*
X100970670Y-72359575D01*
X101182023Y-72416207D01*
X101360851Y-72431852D01*
X101399998Y-72435277D01*
X101400000Y-72435277D01*
X101400002Y-72435277D01*
X101428254Y-72432805D01*
X101617977Y-72416207D01*
X101829330Y-72359575D01*
X102027639Y-72267102D01*
X102206877Y-72141598D01*
X102361598Y-71986877D01*
X102487102Y-71807639D01*
X102579575Y-71609330D01*
X102636207Y-71397977D01*
X102654876Y-71184581D01*
X102655277Y-71180002D01*
X102655277Y-71179997D01*
X102649822Y-71117647D01*
X102636207Y-70962023D01*
X102579575Y-70750670D01*
X102487102Y-70552362D01*
X102487100Y-70552359D01*
X102487099Y-70552357D01*
X102361599Y-70373124D01*
X102349764Y-70361289D01*
X102206877Y-70218402D01*
X102027639Y-70092898D01*
X102027640Y-70092898D01*
X102027638Y-70092897D01*
X101928484Y-70046661D01*
X101829330Y-70000425D01*
X101829326Y-70000424D01*
X101829322Y-70000422D01*
X101617977Y-69943793D01*
X101400002Y-69924723D01*
X101399998Y-69924723D01*
X101254682Y-69937436D01*
X101182023Y-69943793D01*
X101182020Y-69943793D01*
X100970677Y-70000422D01*
X100970668Y-70000426D01*
X100772361Y-70092898D01*
X100772357Y-70092900D01*
X100593121Y-70218402D01*
X100438402Y-70373121D01*
X100312900Y-70552357D01*
X100312898Y-70552361D01*
X100263722Y-70657820D01*
X100221097Y-70749230D01*
X100220426Y-70750668D01*
X100220422Y-70750677D01*
X100163793Y-70962020D01*
X100163793Y-70962024D01*
X100144723Y-71179997D01*
X100144723Y-71180002D01*
X97000500Y-71180002D01*
X97000500Y-67370000D01*
X100144723Y-67370000D01*
X100162321Y-67571157D01*
X100163793Y-67587975D01*
X100163793Y-67587979D01*
X100220422Y-67799322D01*
X100220424Y-67799326D01*
X100220425Y-67799330D01*
X100250800Y-67864469D01*
X100312897Y-67997638D01*
X100323536Y-68012832D01*
X100438402Y-68176877D01*
X100593123Y-68331598D01*
X100772361Y-68457102D01*
X100970670Y-68549575D01*
X101182023Y-68606207D01*
X101364926Y-68622208D01*
X101399998Y-68625277D01*
X101400000Y-68625277D01*
X101400002Y-68625277D01*
X101428254Y-68622805D01*
X101617977Y-68606207D01*
X101829330Y-68549575D01*
X102027639Y-68457102D01*
X102206877Y-68331598D01*
X102361598Y-68176877D01*
X102487102Y-67997639D01*
X102579575Y-67799330D01*
X102636207Y-67587977D01*
X102655277Y-67370000D01*
X102636207Y-67152023D01*
X102579575Y-66940670D01*
X102487102Y-66742362D01*
X102487100Y-66742359D01*
X102487099Y-66742357D01*
X102361599Y-66563124D01*
X102289144Y-66490669D01*
X102206877Y-66408402D01*
X102027639Y-66282898D01*
X102027640Y-66282898D01*
X102027638Y-66282897D01*
X101928484Y-66236661D01*
X101829330Y-66190425D01*
X101829326Y-66190424D01*
X101829322Y-66190422D01*
X101617977Y-66133793D01*
X101400002Y-66114723D01*
X101399998Y-66114723D01*
X101254682Y-66127436D01*
X101182023Y-66133793D01*
X101182020Y-66133793D01*
X100970677Y-66190422D01*
X100970668Y-66190426D01*
X100772361Y-66282898D01*
X100772357Y-66282900D01*
X100593121Y-66408402D01*
X100438402Y-66563121D01*
X100312900Y-66742357D01*
X100312898Y-66742361D01*
X100220426Y-66940668D01*
X100220422Y-66940677D01*
X100163793Y-67152020D01*
X100163793Y-67152024D01*
X100149257Y-67318179D01*
X100144723Y-67370000D01*
X97000500Y-67370000D01*
X97000500Y-56320000D01*
X106592601Y-56320000D01*
X106612149Y-56518481D01*
X106670048Y-56709348D01*
X106764060Y-56885231D01*
X106764065Y-56885238D01*
X106890589Y-57039410D01*
X106933586Y-57074696D01*
X107044763Y-57165936D01*
X107044766Y-57165937D01*
X107044768Y-57165939D01*
X107220651Y-57259951D01*
X107220654Y-57259951D01*
X107220658Y-57259954D01*
X107411515Y-57317850D01*
X107610000Y-57337399D01*
X107808485Y-57317850D01*
X107999342Y-57259954D01*
X108005307Y-57256766D01*
X108175231Y-57165939D01*
X108175229Y-57165939D01*
X108175237Y-57165936D01*
X108329410Y-57039410D01*
X108455936Y-56885237D01*
X108549954Y-56709342D01*
X108607850Y-56518485D01*
X108627399Y-56320000D01*
X109132601Y-56320000D01*
X109152149Y-56518481D01*
X109210048Y-56709348D01*
X109304060Y-56885231D01*
X109304065Y-56885238D01*
X109430589Y-57039410D01*
X109473586Y-57074696D01*
X109584763Y-57165936D01*
X109584766Y-57165937D01*
X109584768Y-57165939D01*
X109760651Y-57259951D01*
X109760654Y-57259951D01*
X109760658Y-57259954D01*
X109951515Y-57317850D01*
X110150000Y-57337399D01*
X110348485Y-57317850D01*
X110539342Y-57259954D01*
X110545307Y-57256766D01*
X110715231Y-57165939D01*
X110715229Y-57165939D01*
X110715237Y-57165936D01*
X110869410Y-57039410D01*
X110995936Y-56885237D01*
X111089954Y-56709342D01*
X111147850Y-56518485D01*
X111167399Y-56320000D01*
X111147850Y-56121515D01*
X111089954Y-55930658D01*
X111089951Y-55930654D01*
X111089951Y-55930651D01*
X110995939Y-55754768D01*
X110995937Y-55754766D01*
X110995936Y-55754763D01*
X110885897Y-55620679D01*
X110869410Y-55600589D01*
X110715238Y-55474065D01*
X110715231Y-55474060D01*
X110539348Y-55380048D01*
X110539342Y-55380046D01*
X110348485Y-55322150D01*
X110348483Y-55322149D01*
X110348481Y-55322149D01*
X110150000Y-55302601D01*
X109951518Y-55322149D01*
X109760651Y-55380048D01*
X109584768Y-55474060D01*
X109584761Y-55474065D01*
X109430589Y-55600589D01*
X109304065Y-55754761D01*
X109304060Y-55754768D01*
X109210048Y-55930651D01*
X109152149Y-56121518D01*
X109132601Y-56320000D01*
X108627399Y-56320000D01*
X108607850Y-56121515D01*
X108549954Y-55930658D01*
X108549951Y-55930654D01*
X108549951Y-55930651D01*
X108455939Y-55754768D01*
X108455937Y-55754766D01*
X108455936Y-55754763D01*
X108345897Y-55620679D01*
X108329410Y-55600589D01*
X108175238Y-55474065D01*
X108175231Y-55474060D01*
X107999348Y-55380048D01*
X107999342Y-55380046D01*
X107808485Y-55322150D01*
X107808483Y-55322149D01*
X107808481Y-55322149D01*
X107610000Y-55302601D01*
X107411518Y-55322149D01*
X107220651Y-55380048D01*
X107044768Y-55474060D01*
X107044761Y-55474065D01*
X106890589Y-55600589D01*
X106764065Y-55754761D01*
X106764060Y-55754768D01*
X106670048Y-55930651D01*
X106612149Y-56121518D01*
X106592601Y-56320000D01*
X97000500Y-56320000D01*
X97000500Y-53750002D01*
X121244751Y-53750002D01*
X121263685Y-53918056D01*
X121319545Y-54077694D01*
X121319547Y-54077697D01*
X121409518Y-54220884D01*
X121409523Y-54220890D01*
X121529109Y-54340476D01*
X121529115Y-54340481D01*
X121672302Y-54430452D01*
X121672305Y-54430454D01*
X121672309Y-54430455D01*
X121672310Y-54430456D01*
X121713160Y-54444750D01*
X121831943Y-54486314D01*
X121999997Y-54505249D01*
X122000000Y-54505249D01*
X122000003Y-54505249D01*
X122168056Y-54486314D01*
X122232769Y-54463670D01*
X122327690Y-54430456D01*
X122327692Y-54430454D01*
X122327694Y-54430454D01*
X122327697Y-54430452D01*
X122470884Y-54340481D01*
X122470885Y-54340480D01*
X122470890Y-54340477D01*
X122590477Y-54220890D01*
X122680452Y-54077697D01*
X122680454Y-54077694D01*
X122680454Y-54077692D01*
X122680456Y-54077690D01*
X122736313Y-53918059D01*
X122736313Y-53918058D01*
X122736314Y-53918056D01*
X122755249Y-53750002D01*
X123494751Y-53750002D01*
X123513685Y-53918056D01*
X123569545Y-54077694D01*
X123569547Y-54077697D01*
X123659518Y-54220884D01*
X123659523Y-54220890D01*
X123779109Y-54340476D01*
X123779115Y-54340481D01*
X123922302Y-54430452D01*
X123922305Y-54430454D01*
X123922309Y-54430455D01*
X123922310Y-54430456D01*
X123963160Y-54444750D01*
X124081943Y-54486314D01*
X124249997Y-54505249D01*
X124250000Y-54505249D01*
X124250003Y-54505249D01*
X124418056Y-54486314D01*
X124482769Y-54463670D01*
X124577690Y-54430456D01*
X124577692Y-54430454D01*
X124577694Y-54430454D01*
X124577697Y-54430452D01*
X124720884Y-54340481D01*
X124720885Y-54340480D01*
X124720890Y-54340477D01*
X124840477Y-54220890D01*
X124930452Y-54077697D01*
X124930454Y-54077694D01*
X124930454Y-54077692D01*
X124930456Y-54077690D01*
X124986313Y-53918059D01*
X124986313Y-53918058D01*
X124986314Y-53918056D01*
X125005249Y-53750002D01*
X125744751Y-53750002D01*
X125763685Y-53918056D01*
X125819545Y-54077694D01*
X125819547Y-54077697D01*
X125909518Y-54220884D01*
X125909523Y-54220890D01*
X126029109Y-54340476D01*
X126029115Y-54340481D01*
X126172302Y-54430452D01*
X126172305Y-54430454D01*
X126172309Y-54430455D01*
X126172310Y-54430456D01*
X126213160Y-54444750D01*
X126331943Y-54486314D01*
X126499997Y-54505249D01*
X126500000Y-54505249D01*
X126500003Y-54505249D01*
X126668056Y-54486314D01*
X126732769Y-54463670D01*
X126827690Y-54430456D01*
X126827692Y-54430454D01*
X126827694Y-54430454D01*
X126827697Y-54430452D01*
X126970884Y-54340481D01*
X126970885Y-54340480D01*
X126970890Y-54340477D01*
X127090477Y-54220890D01*
X127180452Y-54077697D01*
X127180454Y-54077694D01*
X127180454Y-54077692D01*
X127180456Y-54077690D01*
X127236313Y-53918059D01*
X127236313Y-53918058D01*
X127236314Y-53918056D01*
X127255249Y-53750002D01*
X127255249Y-53749997D01*
X127236314Y-53581943D01*
X127180454Y-53422305D01*
X127180452Y-53422302D01*
X127090481Y-53279115D01*
X127090476Y-53279109D01*
X126970890Y-53159523D01*
X126970884Y-53159518D01*
X126827697Y-53069547D01*
X126827694Y-53069545D01*
X126668056Y-53013685D01*
X126500003Y-52994751D01*
X126499997Y-52994751D01*
X126331943Y-53013685D01*
X126172305Y-53069545D01*
X126172302Y-53069547D01*
X126029115Y-53159518D01*
X126029109Y-53159523D01*
X125909523Y-53279109D01*
X125909518Y-53279115D01*
X125819547Y-53422302D01*
X125819545Y-53422305D01*
X125763685Y-53581943D01*
X125744751Y-53749997D01*
X125744751Y-53750002D01*
X125005249Y-53750002D01*
X125005249Y-53749997D01*
X124986314Y-53581943D01*
X124930454Y-53422305D01*
X124930452Y-53422302D01*
X124840481Y-53279115D01*
X124840476Y-53279109D01*
X124720890Y-53159523D01*
X124720884Y-53159518D01*
X124577697Y-53069547D01*
X124577694Y-53069545D01*
X124418056Y-53013685D01*
X124250003Y-52994751D01*
X124249997Y-52994751D01*
X124081943Y-53013685D01*
X123922305Y-53069545D01*
X123922302Y-53069547D01*
X123779115Y-53159518D01*
X123779109Y-53159523D01*
X123659523Y-53279109D01*
X123659518Y-53279115D01*
X123569547Y-53422302D01*
X123569545Y-53422305D01*
X123513685Y-53581943D01*
X123494751Y-53749997D01*
X123494751Y-53750002D01*
X122755249Y-53750002D01*
X122755249Y-53749997D01*
X122736314Y-53581943D01*
X122680454Y-53422305D01*
X122680452Y-53422302D01*
X122590481Y-53279115D01*
X122590476Y-53279109D01*
X122470890Y-53159523D01*
X122470884Y-53159518D01*
X122327697Y-53069547D01*
X122327694Y-53069545D01*
X122168056Y-53013685D01*
X122000003Y-52994751D01*
X121999997Y-52994751D01*
X121831943Y-53013685D01*
X121672305Y-53069545D01*
X121672302Y-53069547D01*
X121529115Y-53159518D01*
X121529109Y-53159523D01*
X121409523Y-53279109D01*
X121409518Y-53279115D01*
X121319547Y-53422302D01*
X121319545Y-53422305D01*
X121263685Y-53581943D01*
X121244751Y-53749997D01*
X121244751Y-53750002D01*
X97000500Y-53750002D01*
X97000500Y-50131187D01*
X98249500Y-50131187D01*
X98269794Y-50265823D01*
X98288604Y-50390615D01*
X98288605Y-50390617D01*
X98288606Y-50390623D01*
X98365938Y-50641326D01*
X98479767Y-50877696D01*
X98479768Y-50877697D01*
X98479770Y-50877700D01*
X98479772Y-50877704D01*
X98627567Y-51094479D01*
X98806014Y-51286801D01*
X98806018Y-51286804D01*
X98806019Y-51286805D01*
X99011143Y-51450386D01*
X99238357Y-51581568D01*
X99482584Y-51677420D01*
X99738370Y-51735802D01*
X99738376Y-51735802D01*
X99738379Y-51735803D01*
X99934500Y-51750500D01*
X99934506Y-51750500D01*
X100065500Y-51750500D01*
X100261620Y-51735803D01*
X100261622Y-51735802D01*
X100261630Y-51735802D01*
X100517416Y-51677420D01*
X100761643Y-51581568D01*
X100988857Y-51450386D01*
X101193981Y-51286805D01*
X101372433Y-51094479D01*
X101520228Y-50877704D01*
X101634063Y-50641323D01*
X101711396Y-50390615D01*
X101750499Y-50131187D01*
X131249500Y-50131187D01*
X131269794Y-50265823D01*
X131288604Y-50390615D01*
X131288605Y-50390617D01*
X131288606Y-50390623D01*
X131365938Y-50641326D01*
X131479767Y-50877696D01*
X131479768Y-50877697D01*
X131479770Y-50877700D01*
X131479772Y-50877704D01*
X131627567Y-51094479D01*
X131806014Y-51286801D01*
X131806018Y-51286804D01*
X131806019Y-51286805D01*
X132011143Y-51450386D01*
X132238357Y-51581568D01*
X132482584Y-51677420D01*
X132738370Y-51735802D01*
X132738376Y-51735802D01*
X132738379Y-51735803D01*
X132934500Y-51750500D01*
X132934506Y-51750500D01*
X133065500Y-51750500D01*
X133261620Y-51735803D01*
X133261622Y-51735802D01*
X133261630Y-51735802D01*
X133517416Y-51677420D01*
X133761643Y-51581568D01*
X133988857Y-51450386D01*
X134193981Y-51286805D01*
X134372433Y-51094479D01*
X134520228Y-50877704D01*
X134634063Y-50641323D01*
X134711396Y-50390615D01*
X134750500Y-50131182D01*
X134750500Y-49868818D01*
X134711396Y-49609385D01*
X134634063Y-49358677D01*
X134622121Y-49333880D01*
X134520232Y-49122303D01*
X134520231Y-49122302D01*
X134520230Y-49122301D01*
X134520228Y-49122296D01*
X134372433Y-48905521D01*
X134361584Y-48893829D01*
X134193985Y-48713198D01*
X134097096Y-48635932D01*
X133988857Y-48549614D01*
X133761643Y-48418432D01*
X133517416Y-48322580D01*
X133517411Y-48322578D01*
X133517402Y-48322576D01*
X133299818Y-48272914D01*
X133261630Y-48264198D01*
X133261629Y-48264197D01*
X133261625Y-48264197D01*
X133261620Y-48264196D01*
X133065500Y-48249500D01*
X133065494Y-48249500D01*
X132934506Y-48249500D01*
X132934500Y-48249500D01*
X132738379Y-48264196D01*
X132738374Y-48264197D01*
X132482597Y-48322576D01*
X132482578Y-48322582D01*
X132238356Y-48418432D01*
X132011143Y-48549614D01*
X131806014Y-48713198D01*
X131627567Y-48905520D01*
X131479768Y-49122302D01*
X131479767Y-49122303D01*
X131365938Y-49358673D01*
X131288606Y-49609376D01*
X131288605Y-49609381D01*
X131288604Y-49609385D01*
X131276986Y-49686467D01*
X131249500Y-49868812D01*
X131249500Y-50131187D01*
X101750499Y-50131187D01*
X101750500Y-50131182D01*
X101750500Y-49868818D01*
X101711396Y-49609385D01*
X101634063Y-49358677D01*
X101622121Y-49333880D01*
X101520232Y-49122303D01*
X101520231Y-49122302D01*
X101520230Y-49122301D01*
X101520228Y-49122296D01*
X101372433Y-48905521D01*
X101361584Y-48893829D01*
X101193985Y-48713198D01*
X101097096Y-48635932D01*
X100988857Y-48549614D01*
X100761643Y-48418432D01*
X100517416Y-48322580D01*
X100517411Y-48322578D01*
X100517402Y-48322576D01*
X100299818Y-48272914D01*
X100261630Y-48264198D01*
X100261629Y-48264197D01*
X100261625Y-48264197D01*
X100261620Y-48264196D01*
X100065500Y-48249500D01*
X100065494Y-48249500D01*
X99934506Y-48249500D01*
X99934500Y-48249500D01*
X99738379Y-48264196D01*
X99738374Y-48264197D01*
X99482597Y-48322576D01*
X99482578Y-48322582D01*
X99238356Y-48418432D01*
X99011143Y-48549614D01*
X98806014Y-48713198D01*
X98627567Y-48905520D01*
X98479768Y-49122302D01*
X98479767Y-49122303D01*
X98365938Y-49358673D01*
X98288606Y-49609376D01*
X98288605Y-49609381D01*
X98288604Y-49609385D01*
X98276986Y-49686467D01*
X98249500Y-49868812D01*
X98249500Y-50131187D01*
X97000500Y-50131187D01*
X97000500Y-50001622D01*
X97000585Y-49998376D01*
X97007490Y-49866617D01*
X97017803Y-49682968D01*
X97018464Y-49676791D01*
X97042611Y-49524331D01*
X97070227Y-49361796D01*
X97071451Y-49356196D01*
X97112425Y-49203279D01*
X97157083Y-49048268D01*
X97158764Y-49043254D01*
X97216127Y-48893815D01*
X97277366Y-48745972D01*
X97279379Y-48741606D01*
X97352511Y-48598078D01*
X97359688Y-48585090D01*
X97429655Y-48458494D01*
X97431867Y-48454808D01*
X97517736Y-48322582D01*
X97519980Y-48319127D01*
X97558955Y-48264197D01*
X97612154Y-48189220D01*
X97614486Y-48186143D01*
X97715655Y-48061209D01*
X97717537Y-48058998D01*
X97822773Y-47941239D01*
X97825092Y-47938787D01*
X97938787Y-47825092D01*
X97941239Y-47822773D01*
X98058998Y-47717537D01*
X98061209Y-47715655D01*
X98186143Y-47614486D01*
X98189220Y-47612154D01*
X98319127Y-47519980D01*
X98329046Y-47513537D01*
X98454808Y-47431867D01*
X98458494Y-47429655D01*
X98598078Y-47352511D01*
X98610063Y-47346403D01*
X98741606Y-47279379D01*
X98745972Y-47277366D01*
X98893815Y-47216127D01*
X99043254Y-47158764D01*
X99048268Y-47157083D01*
X99203279Y-47112425D01*
X99356196Y-47071451D01*
X99361796Y-47070227D01*
X99524284Y-47042618D01*
X99676791Y-47018464D01*
X99682968Y-47017803D01*
X99866566Y-47007493D01*
X99998380Y-47000584D01*
X100001622Y-47000500D01*
X132998378Y-47000500D01*
X133001619Y-47000584D01*
G37*
%TD.AperFunction*%
%TA.AperFunction,Conductor*%
G36*
X127192539Y-103420185D02*
G01*
X127238294Y-103472989D01*
X127249500Y-103524500D01*
X127249500Y-104524678D01*
X127264032Y-104597735D01*
X127264033Y-104597739D01*
X127271058Y-104608253D01*
X127319399Y-104680601D01*
X127402260Y-104735966D01*
X127402264Y-104735967D01*
X127475321Y-104750499D01*
X127475324Y-104750500D01*
X127475326Y-104750500D01*
X129875500Y-104750500D01*
X129942539Y-104770185D01*
X129988294Y-104822989D01*
X129999500Y-104874500D01*
X129999500Y-109125500D01*
X129979815Y-109192539D01*
X129927011Y-109238294D01*
X129875500Y-109249500D01*
X127475323Y-109249500D01*
X127402264Y-109264032D01*
X127402260Y-109264033D01*
X127319399Y-109319399D01*
X127264033Y-109402260D01*
X127264032Y-109402264D01*
X127249500Y-109475321D01*
X127249500Y-109633744D01*
X127229815Y-109700783D01*
X127177011Y-109746538D01*
X127107853Y-109756482D01*
X127044297Y-109727457D01*
X127037819Y-109721425D01*
X125709287Y-108392893D01*
X125709256Y-108392864D01*
X125688342Y-108371950D01*
X125688341Y-108371949D01*
X125668600Y-108361890D01*
X125652014Y-108351726D01*
X125634090Y-108338704D01*
X125634091Y-108338704D01*
X125613018Y-108331857D01*
X125595045Y-108324412D01*
X125575307Y-108314355D01*
X125575304Y-108314354D01*
X125553418Y-108310887D01*
X125534507Y-108306346D01*
X125513439Y-108299501D01*
X125513434Y-108299500D01*
X125513433Y-108299500D01*
X125513429Y-108299500D01*
X123257418Y-108299500D01*
X123190379Y-108279815D01*
X123144624Y-108227011D01*
X123134680Y-108157853D01*
X123141236Y-108132167D01*
X123154523Y-108096542D01*
X123169091Y-108057483D01*
X123175500Y-107997873D01*
X123175499Y-107354754D01*
X123195183Y-107287716D01*
X123211820Y-107267072D01*
X123228048Y-107250844D01*
X123228050Y-107250842D01*
X123238107Y-107231101D01*
X123248277Y-107214507D01*
X123255363Y-107204755D01*
X123261296Y-107196590D01*
X123268142Y-107175516D01*
X123275585Y-107157547D01*
X123285646Y-107137804D01*
X123289112Y-107115917D01*
X123293655Y-107096998D01*
X123300500Y-107075933D01*
X123300500Y-106949067D01*
X123300500Y-105174500D01*
X123320185Y-105107461D01*
X123372989Y-105061706D01*
X123424500Y-105050500D01*
X123449676Y-105050500D01*
X123449677Y-105050499D01*
X123522740Y-105035966D01*
X123605601Y-104980601D01*
X123622300Y-104955609D01*
X123675912Y-104910804D01*
X123725402Y-104900500D01*
X125063431Y-104900500D01*
X125063433Y-104900500D01*
X125084501Y-104893654D01*
X125103417Y-104889112D01*
X125125304Y-104885646D01*
X125145044Y-104875586D01*
X125163011Y-104868144D01*
X125184090Y-104861296D01*
X125202026Y-104848263D01*
X125218588Y-104838114D01*
X125238342Y-104828050D01*
X125253834Y-104812557D01*
X125253841Y-104812552D01*
X125901487Y-104164906D01*
X126629573Y-103436818D01*
X126690896Y-103403334D01*
X126717254Y-103400500D01*
X127125500Y-103400500D01*
X127192539Y-103420185D01*
G37*
%TD.AperFunction*%
%TA.AperFunction,Conductor*%
G36*
X124744038Y-57099687D02*
G01*
X124794165Y-57140825D01*
X124833499Y-57198570D01*
X124839500Y-57236678D01*
X124839500Y-57830612D01*
X124819815Y-57897651D01*
X124803181Y-57918293D01*
X124617382Y-58104092D01*
X124568957Y-58149317D01*
X124545956Y-58187139D01*
X124542384Y-58192388D01*
X124515639Y-58227658D01*
X124515636Y-58227663D01*
X124509055Y-58244352D01*
X124499653Y-58263283D01*
X124490327Y-58278619D01*
X124478385Y-58321237D01*
X124476362Y-58327255D01*
X124460122Y-58368440D01*
X124458288Y-58386284D01*
X124454342Y-58407048D01*
X124449501Y-58424328D01*
X124449500Y-58424337D01*
X124449500Y-58468594D01*
X124449175Y-58474939D01*
X124444648Y-58518970D01*
X124444648Y-58518975D01*
X124447697Y-58536656D01*
X124449500Y-58557724D01*
X124449500Y-59457884D01*
X124429815Y-59524923D01*
X124377011Y-59570678D01*
X124368834Y-59574066D01*
X124282669Y-59606203D01*
X124282664Y-59606206D01*
X124167457Y-59692451D01*
X124167451Y-59692457D01*
X124161948Y-59699809D01*
X124106015Y-59741681D01*
X124062680Y-59749500D01*
X123937320Y-59749500D01*
X123870281Y-59729815D01*
X123838052Y-59699809D01*
X123832548Y-59692457D01*
X123832546Y-59692454D01*
X123824868Y-59686706D01*
X123717335Y-59606206D01*
X123717328Y-59606202D01*
X123582482Y-59555908D01*
X123582483Y-59555908D01*
X123522883Y-59549501D01*
X123522881Y-59549500D01*
X123522873Y-59549500D01*
X123522864Y-59549500D01*
X122477129Y-59549500D01*
X122477123Y-59549501D01*
X122417516Y-59555908D01*
X122282671Y-59606202D01*
X122282664Y-59606206D01*
X122167457Y-59692451D01*
X122167447Y-59692460D01*
X122151485Y-59713783D01*
X122095550Y-59755652D01*
X122069111Y-59762313D01*
X122050082Y-59764929D01*
X122050081Y-59764929D01*
X122033615Y-59772081D01*
X122013585Y-59778817D01*
X122007701Y-59780251D01*
X121996148Y-59783067D01*
X121977316Y-59793655D01*
X121957566Y-59804759D01*
X121951883Y-59807582D01*
X121944573Y-59810757D01*
X121911278Y-59825220D01*
X121911276Y-59825221D01*
X121897356Y-59836546D01*
X121879886Y-59848436D01*
X121864241Y-59857233D01*
X121864240Y-59857234D01*
X121832934Y-59888539D01*
X121828221Y-59892792D01*
X121793896Y-59920717D01*
X121793891Y-59920722D01*
X121783542Y-59935383D01*
X121769923Y-59951550D01*
X119917381Y-61804093D01*
X119868957Y-61849317D01*
X119845956Y-61887139D01*
X119842384Y-61892388D01*
X119815639Y-61927658D01*
X119815636Y-61927663D01*
X119809055Y-61944352D01*
X119799653Y-61963283D01*
X119790327Y-61978619D01*
X119778385Y-62021237D01*
X119776362Y-62027255D01*
X119760122Y-62068440D01*
X119758288Y-62086284D01*
X119754342Y-62107048D01*
X119749501Y-62124328D01*
X119749500Y-62124337D01*
X119749500Y-62168594D01*
X119749175Y-62174939D01*
X119744648Y-62218970D01*
X119744648Y-62218975D01*
X119747697Y-62236656D01*
X119749500Y-62257724D01*
X119749500Y-63086071D01*
X119729815Y-63153110D01*
X119677011Y-63198865D01*
X119641688Y-63209009D01*
X119621059Y-63211725D01*
X119605690Y-63213749D01*
X119600704Y-63214755D01*
X119600075Y-63214931D01*
X119534964Y-63243214D01*
X119472370Y-63269141D01*
X119466604Y-63272469D01*
X119461934Y-63274822D01*
X119461281Y-63275219D01*
X119408658Y-63318030D01*
X119357375Y-63357382D01*
X119351633Y-63363124D01*
X119351178Y-63362669D01*
X119349521Y-63364372D01*
X119349682Y-63364522D01*
X119343889Y-63370724D01*
X119306575Y-63423587D01*
X119269139Y-63472372D01*
X119265080Y-63479405D01*
X119264963Y-63479337D01*
X119256921Y-63493929D01*
X119256724Y-63494208D01*
X119256622Y-63494354D01*
X119256621Y-63494356D01*
X119236525Y-63550897D01*
X119235387Y-63553858D01*
X119213670Y-63606289D01*
X119213668Y-63606297D01*
X119213513Y-63607480D01*
X119207420Y-63632794D01*
X119205946Y-63636941D01*
X119202088Y-63693324D01*
X119201703Y-63697185D01*
X119194750Y-63749997D01*
X119194750Y-63749999D01*
X119195412Y-63755030D01*
X119196183Y-63779668D01*
X119195618Y-63787917D01*
X119195619Y-63787921D01*
X119206404Y-63839827D01*
X119207170Y-63844348D01*
X119213670Y-63893709D01*
X119217093Y-63901974D01*
X119223934Y-63924185D01*
X119226406Y-63936081D01*
X119226408Y-63936086D01*
X119249184Y-63980040D01*
X119251417Y-63984840D01*
X119269140Y-64027627D01*
X119276940Y-64037792D01*
X119288659Y-64056225D01*
X119293860Y-64066262D01*
X119296029Y-64070447D01*
X119327439Y-64104080D01*
X119331311Y-64108650D01*
X119357376Y-64142618D01*
X119357377Y-64142619D01*
X119357379Y-64142621D01*
X119370616Y-64152779D01*
X119385746Y-64166511D01*
X119399318Y-64181043D01*
X119435644Y-64203133D01*
X119441179Y-64206923D01*
X119472375Y-64230861D01*
X119491358Y-64238724D01*
X119508326Y-64247332D01*
X119514922Y-64251344D01*
X119561977Y-64302992D01*
X119574500Y-64357295D01*
X119574500Y-65749678D01*
X119589032Y-65822735D01*
X119589033Y-65822739D01*
X119589034Y-65822740D01*
X119644399Y-65905601D01*
X119708915Y-65948708D01*
X119753719Y-66002319D01*
X119762869Y-66034925D01*
X119764930Y-66049920D01*
X119772079Y-66066379D01*
X119778819Y-66086420D01*
X119783067Y-66103852D01*
X119804763Y-66142439D01*
X119807582Y-66148115D01*
X119825220Y-66188720D01*
X119825221Y-66188722D01*
X119836541Y-66202636D01*
X119848438Y-66220116D01*
X119855539Y-66232745D01*
X119857235Y-66235760D01*
X119857236Y-66235762D01*
X119888535Y-66267061D01*
X119892791Y-66271776D01*
X119901839Y-66282897D01*
X119920722Y-66306108D01*
X119935381Y-66316455D01*
X119951552Y-66330077D01*
X120134307Y-66512832D01*
X120313181Y-66691705D01*
X120346666Y-66753028D01*
X120349500Y-66779386D01*
X120349500Y-68488162D01*
X120329815Y-68555201D01*
X120277011Y-68600956D01*
X120207853Y-68610900D01*
X120178049Y-68602724D01*
X120170268Y-68599501D01*
X120133190Y-68584143D01*
X120021922Y-68569494D01*
X119989482Y-68565223D01*
X119989480Y-68565223D01*
X119845772Y-68584143D01*
X119845768Y-68584144D01*
X119711858Y-68639610D01*
X119596860Y-68727852D01*
X119508618Y-68842850D01*
X119453152Y-68976760D01*
X119453151Y-68976764D01*
X119434231Y-69120472D01*
X119434231Y-69120473D01*
X119453151Y-69264181D01*
X119453152Y-69264185D01*
X119508618Y-69398095D01*
X119508619Y-69398097D01*
X119508620Y-69398098D01*
X119526745Y-69421719D01*
X119551939Y-69486885D01*
X119537902Y-69555330D01*
X119489089Y-69605320D01*
X119475823Y-69611765D01*
X119415731Y-69636656D01*
X119300735Y-69724896D01*
X119212493Y-69839894D01*
X119157027Y-69973804D01*
X119157026Y-69973808D01*
X119138106Y-70117516D01*
X119138106Y-70117517D01*
X119157026Y-70261225D01*
X119157027Y-70261229D01*
X119212493Y-70395139D01*
X119212494Y-70395141D01*
X119212495Y-70395142D01*
X119300735Y-70510138D01*
X119415731Y-70598378D01*
X119499807Y-70633203D01*
X119554209Y-70677042D01*
X119576275Y-70743336D01*
X119566915Y-70795215D01*
X119520701Y-70906787D01*
X119520700Y-70906791D01*
X119501780Y-71050500D01*
X119519432Y-71184581D01*
X119520700Y-71194208D01*
X119520701Y-71194212D01*
X119576167Y-71328122D01*
X119576168Y-71328124D01*
X119576169Y-71328125D01*
X119664409Y-71443121D01*
X119779405Y-71531361D01*
X119913321Y-71586830D01*
X119994945Y-71597575D01*
X120058840Y-71625841D01*
X120066440Y-71632833D01*
X120226316Y-71792709D01*
X120259801Y-71854032D01*
X120254817Y-71923724D01*
X120212945Y-71979657D01*
X120154822Y-72003329D01*
X120054423Y-72016548D01*
X120054419Y-72016549D01*
X119920509Y-72072015D01*
X119805510Y-72160258D01*
X119738283Y-72247869D01*
X119681855Y-72289071D01*
X119612109Y-72293225D01*
X119551189Y-72259012D01*
X119518436Y-72197294D01*
X119516969Y-72156201D01*
X119531017Y-72049500D01*
X119512097Y-71905791D01*
X119459010Y-71777625D01*
X119456629Y-71771877D01*
X119456628Y-71771876D01*
X119456628Y-71771875D01*
X119368388Y-71656879D01*
X119253392Y-71568639D01*
X119253391Y-71568638D01*
X119253389Y-71568637D01*
X119119479Y-71513171D01*
X119119477Y-71513170D01*
X119119476Y-71513170D01*
X119019442Y-71500000D01*
X118975768Y-71494250D01*
X118975766Y-71494250D01*
X118832058Y-71513170D01*
X118832054Y-71513171D01*
X118698144Y-71568637D01*
X118583146Y-71656879D01*
X118494904Y-71771877D01*
X118439438Y-71905787D01*
X118439437Y-71905791D01*
X118429554Y-71980862D01*
X118420517Y-72049500D01*
X118432641Y-72141593D01*
X118439437Y-72193208D01*
X118439438Y-72193212D01*
X118494905Y-72327123D01*
X118494906Y-72327126D01*
X118551553Y-72400948D01*
X118570822Y-72445792D01*
X118572252Y-72445328D01*
X118582113Y-72475681D01*
X118586654Y-72494592D01*
X118590121Y-72516478D01*
X118590122Y-72516481D01*
X118600179Y-72536219D01*
X118607624Y-72554192D01*
X118614471Y-72575264D01*
X118627493Y-72593188D01*
X118637657Y-72609774D01*
X118647717Y-72629516D01*
X118668631Y-72650430D01*
X118668660Y-72650461D01*
X120563181Y-74544981D01*
X120596666Y-74606304D01*
X120599500Y-74632662D01*
X120599500Y-77763429D01*
X120599501Y-77763439D01*
X120606346Y-77784507D01*
X120610887Y-77803418D01*
X120614354Y-77825304D01*
X120614355Y-77825307D01*
X120624412Y-77845045D01*
X120631857Y-77863018D01*
X120638704Y-77884090D01*
X120651726Y-77902014D01*
X120661890Y-77918600D01*
X120670131Y-77934773D01*
X120671950Y-77938342D01*
X120692864Y-77959256D01*
X120692893Y-77959287D01*
X121271926Y-78538319D01*
X121305411Y-78599642D01*
X121300427Y-78669333D01*
X121258556Y-78725267D01*
X121193091Y-78749684D01*
X121184245Y-78750000D01*
X116249999Y-78750000D01*
X114036319Y-80963681D01*
X113974996Y-80997166D01*
X113948638Y-81000000D01*
X113001255Y-81000000D01*
X112934216Y-80980315D01*
X112888461Y-80927511D01*
X112878517Y-80858353D01*
X112907542Y-80794797D01*
X112953803Y-80761439D01*
X112998870Y-80742771D01*
X113027625Y-80730861D01*
X113142621Y-80642621D01*
X113230861Y-80527625D01*
X113286330Y-80393709D01*
X113298066Y-80304562D01*
X113326331Y-80240668D01*
X113333311Y-80233080D01*
X115623906Y-77942487D01*
X115685229Y-77909002D01*
X115711587Y-77906168D01*
X116507263Y-77906168D01*
X116507265Y-77906168D01*
X116528333Y-77899322D01*
X116547249Y-77894780D01*
X116569136Y-77891314D01*
X116588876Y-77881254D01*
X116606843Y-77873812D01*
X116627922Y-77866964D01*
X116645858Y-77853931D01*
X116662420Y-77843782D01*
X116682174Y-77833718D01*
X116697666Y-77818225D01*
X116697673Y-77818220D01*
X117204988Y-77310905D01*
X118733070Y-75782821D01*
X118794391Y-75749338D01*
X118804545Y-75747568D01*
X118893709Y-75735830D01*
X119027625Y-75680361D01*
X119142621Y-75592121D01*
X119230861Y-75477125D01*
X119286330Y-75343209D01*
X119305250Y-75199500D01*
X119305065Y-75198098D01*
X119297692Y-75142093D01*
X119286330Y-75055791D01*
X119230861Y-74921875D01*
X119142621Y-74806879D01*
X119027625Y-74718639D01*
X119027624Y-74718638D01*
X119027622Y-74718637D01*
X118893712Y-74663171D01*
X118893710Y-74663170D01*
X118893709Y-74663170D01*
X118821854Y-74653710D01*
X118750001Y-74644250D01*
X118749999Y-74644250D01*
X118606291Y-74663170D01*
X118606287Y-74663171D01*
X118472377Y-74718637D01*
X118357379Y-74806879D01*
X118269137Y-74921877D01*
X118213670Y-75055789D01*
X118201933Y-75144936D01*
X118173666Y-75208832D01*
X118166675Y-75216430D01*
X116825626Y-76557479D01*
X116764303Y-76590964D01*
X116694611Y-76585980D01*
X116638678Y-76544108D01*
X116623384Y-76517250D01*
X116607145Y-76478045D01*
X116607144Y-76478044D01*
X116607144Y-76478043D01*
X116526123Y-76372455D01*
X116500930Y-76307287D01*
X116500500Y-76296970D01*
X116500500Y-68663928D01*
X116520185Y-68596889D01*
X116572989Y-68551134D01*
X116608312Y-68540989D01*
X116643709Y-68536330D01*
X116777625Y-68480861D01*
X116892621Y-68392621D01*
X116980861Y-68277625D01*
X117036330Y-68143709D01*
X117048066Y-68054562D01*
X117076331Y-67990668D01*
X117083311Y-67983080D01*
X118305483Y-66760909D01*
X118328050Y-66738342D01*
X118338109Y-66718597D01*
X118348271Y-66702014D01*
X118361296Y-66684090D01*
X118368141Y-66663022D01*
X118375586Y-66645045D01*
X118385646Y-66625304D01*
X118389112Y-66603415D01*
X118393652Y-66584501D01*
X118400499Y-66563433D01*
X118400499Y-66534076D01*
X118400500Y-66534051D01*
X118400500Y-66096991D01*
X118420185Y-66029952D01*
X118472989Y-65984197D01*
X118500309Y-65975374D01*
X118572735Y-65960967D01*
X118572735Y-65960966D01*
X118572740Y-65960966D01*
X118655601Y-65905601D01*
X118710966Y-65822740D01*
X118725500Y-65749674D01*
X118725500Y-64050326D01*
X118725500Y-64050323D01*
X118725499Y-64050321D01*
X118710967Y-63977264D01*
X118710966Y-63977260D01*
X118655601Y-63894399D01*
X118605608Y-63860995D01*
X118560804Y-63807382D01*
X118550500Y-63757893D01*
X118550500Y-63070937D01*
X118550645Y-63066704D01*
X118554381Y-63012079D01*
X118554380Y-63012073D01*
X118553093Y-63005877D01*
X118550500Y-62980653D01*
X118550500Y-59799500D01*
X118570185Y-59732461D01*
X118622989Y-59686706D01*
X118674500Y-59675500D01*
X119649676Y-59675500D01*
X119649677Y-59675499D01*
X119722740Y-59660966D01*
X119805601Y-59605601D01*
X119860966Y-59522740D01*
X119875500Y-59449674D01*
X119875500Y-59024500D01*
X119895185Y-58957461D01*
X119947989Y-58911706D01*
X119999500Y-58900500D01*
X122481725Y-58900500D01*
X122481727Y-58900500D01*
X122502795Y-58893654D01*
X122521711Y-58889112D01*
X122543598Y-58885646D01*
X122563338Y-58875586D01*
X122581305Y-58868144D01*
X122602384Y-58861296D01*
X122620320Y-58848263D01*
X122636882Y-58838114D01*
X122656636Y-58828050D01*
X122672128Y-58812557D01*
X122672135Y-58812552D01*
X122841479Y-58643208D01*
X124103080Y-57381604D01*
X124164401Y-57348121D01*
X124174554Y-57346351D01*
X124263720Y-57334613D01*
X124397636Y-57279144D01*
X124512632Y-57190904D01*
X124566999Y-57120051D01*
X124623425Y-57078851D01*
X124693171Y-57074696D01*
X124744038Y-57099687D01*
G37*
%TD.AperFunction*%
%TD*%
%TA.AperFunction,Conductor*%
%TO.N,Net-(J1-Pin_7)*%
G36*
X109515931Y-89020002D02*
G01*
X109536905Y-89036905D01*
X110963095Y-90463095D01*
X110997121Y-90525407D01*
X111000000Y-90552190D01*
X111000000Y-93750000D01*
X111459416Y-94255225D01*
X111500000Y-94299855D01*
X112618981Y-94255225D01*
X112687842Y-94272496D01*
X112736437Y-94324257D01*
X112750000Y-94381125D01*
X112750000Y-99624000D01*
X112729998Y-99692121D01*
X112676342Y-99738614D01*
X112624000Y-99750000D01*
X111500000Y-99750000D01*
X111052190Y-99750000D01*
X110984069Y-99729998D01*
X110963095Y-99713095D01*
X109366404Y-98116404D01*
X109332378Y-98054092D01*
X109329499Y-98027317D01*
X109329499Y-95874934D01*
X109314734Y-95800699D01*
X109258484Y-95716516D01*
X109258483Y-95716515D01*
X109174302Y-95660266D01*
X109100067Y-95645500D01*
X105899936Y-95645500D01*
X105899927Y-95645501D01*
X105825699Y-95660265D01*
X105741515Y-95716516D01*
X105685266Y-95800697D01*
X105670500Y-95874930D01*
X105669894Y-95881089D01*
X105668459Y-95880947D01*
X105650498Y-95942121D01*
X105596842Y-95988614D01*
X105544500Y-96000000D01*
X103582575Y-96000000D01*
X103514454Y-95979998D01*
X103467961Y-95926342D01*
X103456788Y-95866675D01*
X103459507Y-95820000D01*
X103439496Y-95476422D01*
X103379733Y-95137491D01*
X103281027Y-94807789D01*
X103144712Y-94491776D01*
X102972632Y-94193724D01*
X102951368Y-94165162D01*
X102767117Y-93917669D01*
X102530933Y-93667329D01*
X102267290Y-93446107D01*
X101979761Y-93256996D01*
X101979757Y-93256994D01*
X101979754Y-93256992D01*
X101672201Y-93102533D01*
X101348796Y-92984823D01*
X101096942Y-92925133D01*
X101035271Y-92889960D01*
X101002405Y-92827029D01*
X101000000Y-92802529D01*
X101000000Y-89126000D01*
X101020002Y-89057879D01*
X101073658Y-89011386D01*
X101126000Y-89000000D01*
X109447810Y-89000000D01*
X109515931Y-89020002D01*
G37*
%TD.AperFunction*%
%TD*%
M02*
