%TF.GenerationSoftware,KiCad,Pcbnew,(6.0.10)*%
%TF.CreationDate,2023-05-23T19:13:15+02:00*%
%TF.ProjectId,AxxSolder,41787853-6f6c-4646-9572-2e6b69636164,rev?*%
%TF.SameCoordinates,Original*%
%TF.FileFunction,Soldermask,Top*%
%TF.FilePolarity,Negative*%
%FSLAX46Y46*%
G04 Gerber Fmt 4.6, Leading zero omitted, Abs format (unit mm)*
G04 Created by KiCad (PCBNEW (6.0.10)) date 2023-05-23 19:13:15*
%MOMM*%
%LPD*%
G01*
G04 APERTURE LIST*
G04 Aperture macros list*
%AMRoundRect*
0 Rectangle with rounded corners*
0 $1 Rounding radius*
0 $2 $3 $4 $5 $6 $7 $8 $9 X,Y pos of 4 corners*
0 Add a 4 corners polygon primitive as box body*
4,1,4,$2,$3,$4,$5,$6,$7,$8,$9,$2,$3,0*
0 Add four circle primitives for the rounded corners*
1,1,$1+$1,$2,$3*
1,1,$1+$1,$4,$5*
1,1,$1+$1,$6,$7*
1,1,$1+$1,$8,$9*
0 Add four rect primitives between the rounded corners*
20,1,$1+$1,$2,$3,$4,$5,0*
20,1,$1+$1,$4,$5,$6,$7,0*
20,1,$1+$1,$6,$7,$8,$9,0*
20,1,$1+$1,$8,$9,$2,$3,0*%
G04 Aperture macros list end*
%ADD10RoundRect,0.250000X0.250000X0.475000X-0.250000X0.475000X-0.250000X-0.475000X0.250000X-0.475000X0*%
%ADD11RoundRect,0.250000X-0.250000X-0.475000X0.250000X-0.475000X0.250000X0.475000X-0.250000X0.475000X0*%
%ADD12C,3.000000*%
%ADD13RoundRect,0.250000X-0.475000X0.250000X-0.475000X-0.250000X0.475000X-0.250000X0.475000X0.250000X0*%
%ADD14RoundRect,0.250000X-0.262500X-0.450000X0.262500X-0.450000X0.262500X0.450000X-0.262500X0.450000X0*%
%ADD15R,1.050000X0.600000*%
%ADD16RoundRect,0.250000X0.262500X0.450000X-0.262500X0.450000X-0.262500X-0.450000X0.262500X-0.450000X0*%
%ADD17R,3.150000X2.200000*%
%ADD18R,2.500000X3.000000*%
%ADD19C,5.400000*%
%ADD20C,1.524000*%
%ADD21R,1.930000X1.000000*%
%ADD22R,0.950000X1.650000*%
%ADD23R,3.250000X1.650000*%
%ADD24C,1.800000*%
%ADD25C,4.000000*%
%ADD26C,1.350000*%
%ADD27C,2.000000*%
%ADD28C,1.000000*%
%ADD29C,2.400000*%
%ADD30R,1.700000X1.700000*%
%ADD31O,1.700000X1.700000*%
G04 APERTURE END LIST*
D10*
%TO.C,C9*%
X122450000Y-99500000D03*
X120550000Y-99500000D03*
%TD*%
D11*
%TO.C,C10*%
X117050000Y-103500000D03*
X118950000Y-103500000D03*
%TD*%
D12*
%TO.C,H2*%
X100000000Y-115000000D03*
%TD*%
D13*
%TO.C,C13*%
X123000000Y-60300000D03*
X123000000Y-62200000D03*
%TD*%
D12*
%TO.C,H3*%
X133000000Y-50000000D03*
%TD*%
D14*
%TO.C,R12*%
X117087500Y-99500000D03*
X118912500Y-99500000D03*
%TD*%
D13*
%TO.C,C6*%
X125000000Y-60300000D03*
X125000000Y-62200000D03*
%TD*%
D15*
%TO.C,Q2*%
X120700000Y-103550000D03*
X120700000Y-105450000D03*
X122900000Y-104500000D03*
%TD*%
D16*
%TO.C,R16*%
X122412500Y-101500000D03*
X120587500Y-101500000D03*
%TD*%
D17*
%TO.C,D8*%
X107500000Y-97000000D03*
X107500000Y-90000000D03*
%TD*%
D14*
%TO.C,R14*%
X117087500Y-107500000D03*
X118912500Y-107500000D03*
%TD*%
%TO.C,R11*%
X117087500Y-109500000D03*
X118912500Y-109500000D03*
%TD*%
D18*
%TO.C,LS1*%
X128750000Y-103000000D03*
X128750000Y-111000000D03*
%TD*%
D14*
%TO.C,R17*%
X120587500Y-107500000D03*
X122412500Y-107500000D03*
%TD*%
D13*
%TO.C,C19*%
X111250000Y-63050000D03*
X111250000Y-64950000D03*
%TD*%
D19*
%TO.C,D4*%
X100500000Y-95820000D03*
X132500000Y-95820000D03*
X100500000Y-56320000D03*
X132500000Y-56320000D03*
D20*
X125390000Y-56320000D03*
X122850000Y-56320000D03*
X120310000Y-56320000D03*
X117770000Y-56320000D03*
X115230000Y-56320000D03*
X112690000Y-56320000D03*
X110150000Y-56320000D03*
X107610000Y-56320000D03*
%TD*%
D21*
%TO.C,D7*%
X104500000Y-82900000D03*
X104500000Y-78500000D03*
%TD*%
D20*
%TO.C,TP3*%
X119750000Y-53750000D03*
%TD*%
D22*
%TO.C,PS1*%
X115700000Y-64900000D03*
X118000000Y-64900000D03*
X120300000Y-64900000D03*
D23*
X118000000Y-58600000D03*
%TD*%
D13*
%TO.C,C22*%
X113250000Y-63050000D03*
X113250000Y-64950000D03*
%TD*%
D16*
%TO.C,R13*%
X118912500Y-105500000D03*
X117087500Y-105500000D03*
%TD*%
D24*
%TO.C,U1*%
X100275000Y-109000000D03*
X100275000Y-104000000D03*
X114775000Y-109000000D03*
D25*
X107275000Y-100800000D03*
X107275000Y-112200000D03*
D24*
X114775000Y-106500000D03*
X114775000Y-104000000D03*
%TD*%
D11*
%TO.C,C8*%
X117050000Y-101500000D03*
X118950000Y-101500000D03*
%TD*%
D12*
%TO.C,H4*%
X100000000Y-50000000D03*
%TD*%
D26*
%TO.C,PS2*%
X108477680Y-61098500D03*
X111017680Y-61098500D03*
X113557680Y-61098500D03*
%TD*%
D27*
%TO.C,J1*%
X101400000Y-67370000D03*
X101400000Y-71180000D03*
X101400000Y-74990000D03*
X101400000Y-78800000D03*
X101400000Y-82610000D03*
X101400000Y-86420000D03*
X101400000Y-90230000D03*
%TD*%
D28*
%TO.C,TP1*%
X133200000Y-91800000D03*
%TD*%
D29*
%TO.C,F1*%
X125935000Y-98700000D03*
X125935000Y-95300000D03*
X112465000Y-98700000D03*
X112465000Y-95300000D03*
%TD*%
D30*
%TO.C,J4*%
X134225000Y-80600000D03*
D31*
X134225000Y-78060000D03*
X134225000Y-75520000D03*
X134225000Y-72980000D03*
X134225000Y-70440000D03*
X134225000Y-67900000D03*
X134225000Y-65360000D03*
%TD*%
D28*
%TO.C,TP9*%
X122000000Y-53750000D03*
%TD*%
D12*
%TO.C,H1*%
X133000000Y-115000000D03*
%TD*%
D28*
%TO.C,TP7*%
X124250000Y-53750000D03*
%TD*%
%TO.C,TP8*%
X126500000Y-53750000D03*
%TD*%
M02*
