%TF.GenerationSoftware,KiCad,Pcbnew,7.0.8*%
%TF.CreationDate,2023-10-06T19:47:04+02:00*%
%TF.ProjectId,AxxSolder,41787853-6f6c-4646-9572-2e6b69636164,rev?*%
%TF.SameCoordinates,Original*%
%TF.FileFunction,Paste,Bot*%
%TF.FilePolarity,Positive*%
%FSLAX46Y46*%
G04 Gerber Fmt 4.6, Leading zero omitted, Abs format (unit mm)*
G04 Created by KiCad (PCBNEW 7.0.8) date 2023-10-06 19:47:04*
%MOMM*%
%LPD*%
G01*
G04 APERTURE LIST*
G04 Aperture macros list*
%AMRoundRect*
0 Rectangle with rounded corners*
0 $1 Rounding radius*
0 $2 $3 $4 $5 $6 $7 $8 $9 X,Y pos of 4 corners*
0 Add a 4 corners polygon primitive as box body*
4,1,4,$2,$3,$4,$5,$6,$7,$8,$9,$2,$3,0*
0 Add four circle primitives for the rounded corners*
1,1,$1+$1,$2,$3*
1,1,$1+$1,$4,$5*
1,1,$1+$1,$6,$7*
1,1,$1+$1,$8,$9*
0 Add four rect primitives between the rounded corners*
20,1,$1+$1,$2,$3,$4,$5,0*
20,1,$1+$1,$4,$5,$6,$7,0*
20,1,$1+$1,$6,$7,$8,$9,0*
20,1,$1+$1,$8,$9,$2,$3,0*%
G04 Aperture macros list end*
%ADD10R,0.600000X1.050000*%
%ADD11R,1.450000X3.450000*%
%ADD12RoundRect,0.250000X-0.450000X0.262500X-0.450000X-0.262500X0.450000X-0.262500X0.450000X0.262500X0*%
%ADD13RoundRect,0.250000X0.475000X-0.250000X0.475000X0.250000X-0.475000X0.250000X-0.475000X-0.250000X0*%
%ADD14R,0.500000X0.925000*%
%ADD15R,0.600000X0.800000*%
%ADD16R,4.410000X3.655000*%
%ADD17RoundRect,0.250000X0.450000X-0.262500X0.450000X0.262500X-0.450000X0.262500X-0.450000X-0.262500X0*%
%ADD18RoundRect,0.250000X0.250000X0.475000X-0.250000X0.475000X-0.250000X-0.475000X0.250000X-0.475000X0*%
%ADD19R,2.850000X3.200000*%
%ADD20RoundRect,0.250000X0.650000X-0.325000X0.650000X0.325000X-0.650000X0.325000X-0.650000X-0.325000X0*%
%ADD21RoundRect,0.250000X-0.250000X-0.475000X0.250000X-0.475000X0.250000X0.475000X-0.250000X0.475000X0*%
%ADD22RoundRect,0.250000X-0.475000X0.250000X-0.475000X-0.250000X0.475000X-0.250000X0.475000X0.250000X0*%
%ADD23RoundRect,0.250000X-0.262500X-0.450000X0.262500X-0.450000X0.262500X0.450000X-0.262500X0.450000X0*%
%ADD24R,1.050000X0.600000*%
%ADD25R,0.600000X1.250000*%
%ADD26R,1.250000X0.600000*%
%ADD27R,1.200000X1.200000*%
%ADD28R,1.425000X0.450000*%
%ADD29R,1.680000X1.880000*%
%ADD30RoundRect,0.250000X-0.325000X-0.650000X0.325000X-0.650000X0.325000X0.650000X-0.325000X0.650000X0*%
%ADD31RoundRect,0.250000X0.455000X-0.455000X0.455000X0.455000X-0.455000X0.455000X-0.455000X-0.455000X0*%
%ADD32RoundRect,0.062500X0.062500X-0.375000X0.062500X0.375000X-0.062500X0.375000X-0.062500X-0.375000X0*%
%ADD33RoundRect,0.062500X0.375000X-0.062500X0.375000X0.062500X-0.375000X0.062500X-0.375000X-0.062500X0*%
%ADD34R,0.850000X0.350000*%
%ADD35R,1.700000X2.450000*%
%ADD36R,4.150000X2.100000*%
%ADD37R,0.600000X1.475000*%
%ADD38R,1.475000X0.600000*%
G04 APERTURE END LIST*
D10*
%TO.C,D3*%
X109950000Y-69525000D03*
X111850000Y-69525000D03*
X110900000Y-71725000D03*
%TD*%
D11*
%TO.C,R10*%
X112200000Y-83100000D03*
X106400000Y-83100000D03*
%TD*%
D12*
%TO.C,R28*%
X106500000Y-60337500D03*
X106500000Y-62162500D03*
%TD*%
D13*
%TO.C,C1*%
X126500000Y-84450000D03*
X126500000Y-82550000D03*
%TD*%
D14*
%TO.C,U2*%
X110895000Y-86272500D03*
X112165000Y-86272500D03*
X113435000Y-86272500D03*
X114705000Y-86272500D03*
D15*
X110895000Y-92062500D03*
X112165000Y-92062500D03*
D16*
X112800000Y-89837500D03*
D15*
X113435000Y-92062500D03*
X114705000Y-92062500D03*
%TD*%
D12*
%TO.C,R6*%
X108250000Y-69387500D03*
X108250000Y-71212500D03*
%TD*%
%TO.C,R21*%
X108250000Y-76587500D03*
X108250000Y-78412500D03*
%TD*%
D17*
%TO.C,R19*%
X106250000Y-74812500D03*
X106250000Y-72987500D03*
%TD*%
D18*
%TO.C,C3*%
X123950000Y-89500000D03*
X122050000Y-89500000D03*
%TD*%
D19*
%TO.C,L1*%
X119600000Y-61250000D03*
X113900000Y-61250000D03*
%TD*%
D20*
%TO.C,C17*%
X119750000Y-91725000D03*
X119750000Y-88775000D03*
%TD*%
D17*
%TO.C,R20*%
X106250000Y-78412500D03*
X106250000Y-76587500D03*
%TD*%
D21*
%TO.C,C5*%
X133300000Y-83250000D03*
X135200000Y-83250000D03*
%TD*%
D22*
%TO.C,C14*%
X101000000Y-61550000D03*
X101000000Y-63450000D03*
%TD*%
%TO.C,C16*%
X116500000Y-78300000D03*
X116500000Y-80200000D03*
%TD*%
D23*
%TO.C,R2*%
X122087500Y-91500000D03*
X123912500Y-91500000D03*
%TD*%
%TO.C,R3*%
X125587500Y-91500000D03*
X127412500Y-91500000D03*
%TD*%
D24*
%TO.C,D12*%
X127800000Y-85950000D03*
X127800000Y-87850000D03*
X125600000Y-86900000D03*
%TD*%
D10*
%TO.C,D1*%
X109950000Y-66150000D03*
X111850000Y-66150000D03*
X110900000Y-68350000D03*
%TD*%
D17*
%TO.C,R8*%
X106250000Y-67662500D03*
X106250000Y-65837500D03*
%TD*%
D20*
%TO.C,C18*%
X117250000Y-91725000D03*
X117250000Y-88775000D03*
%TD*%
D17*
%TO.C,R22*%
X108250000Y-74812500D03*
X108250000Y-72987500D03*
%TD*%
D25*
%TO.C,IC3*%
X133300000Y-85200000D03*
X135200000Y-85200000D03*
X134250000Y-87300000D03*
%TD*%
D17*
%TO.C,R26*%
X120750000Y-79412500D03*
X120750000Y-77587500D03*
%TD*%
D12*
%TO.C,R23*%
X120750000Y-74087500D03*
X120750000Y-75912500D03*
%TD*%
D17*
%TO.C,R5*%
X108250000Y-67662500D03*
X108250000Y-65837500D03*
%TD*%
D22*
%TO.C,C11*%
X118600000Y-69050000D03*
X118600000Y-70950000D03*
%TD*%
D23*
%TO.C,R18*%
X124587500Y-80300000D03*
X126412500Y-80300000D03*
%TD*%
D26*
%TO.C,IC6*%
X111000000Y-60300000D03*
X111000000Y-61250000D03*
X111000000Y-62200000D03*
X108500000Y-62200000D03*
X108500000Y-61250000D03*
X108500000Y-60300000D03*
%TD*%
D27*
%TO.C,D2*%
X121200000Y-86250000D03*
X124000000Y-86250000D03*
%TD*%
D10*
%TO.C,D5*%
X109950000Y-72925000D03*
X111850000Y-72925000D03*
X110900000Y-75125000D03*
%TD*%
D28*
%TO.C,IC1*%
X122462000Y-82325000D03*
X122462000Y-82975000D03*
X122462000Y-83625000D03*
X122462000Y-84275000D03*
X118038000Y-84275000D03*
X118038000Y-83625000D03*
X118038000Y-82975000D03*
X118038000Y-82325000D03*
D29*
X120250000Y-83300000D03*
%TD*%
D30*
%TO.C,C4*%
X116625000Y-86300000D03*
X119575000Y-86300000D03*
%TD*%
D12*
%TO.C,R24*%
X118750000Y-77587500D03*
X118750000Y-79412500D03*
%TD*%
D31*
%TO.C,IC5*%
X125500000Y-69750000D03*
D32*
X127250000Y-72187500D03*
X126750000Y-72187500D03*
X126250000Y-72187500D03*
X125750000Y-72187500D03*
X125250000Y-72187500D03*
X124750000Y-72187500D03*
X124250000Y-72187500D03*
X123750000Y-72187500D03*
D33*
X123062500Y-71500000D03*
X123062500Y-71000000D03*
X123062500Y-70500000D03*
X123062500Y-70000000D03*
X123062500Y-69500000D03*
X123062500Y-69000000D03*
X123062500Y-68500000D03*
X123062500Y-68000000D03*
D32*
X123750000Y-67312500D03*
X124250000Y-67312500D03*
X124750000Y-67312500D03*
X125250000Y-67312500D03*
X125750000Y-67312500D03*
X126250000Y-67312500D03*
X126750000Y-67312500D03*
X127250000Y-67312500D03*
D33*
X127937500Y-68000000D03*
X127937500Y-68500000D03*
X127937500Y-69000000D03*
X127937500Y-69500000D03*
X127937500Y-70000000D03*
X127937500Y-70500000D03*
X127937500Y-71000000D03*
X127937500Y-71500000D03*
%TD*%
D18*
%TO.C,C7*%
X128200000Y-76250000D03*
X126300000Y-76250000D03*
%TD*%
D12*
%TO.C,R9*%
X106250000Y-69387500D03*
X106250000Y-71212500D03*
%TD*%
D13*
%TO.C,C25*%
X123000000Y-62450000D03*
X123000000Y-60550000D03*
%TD*%
D22*
%TO.C,C21*%
X103250000Y-61550000D03*
X103250000Y-63450000D03*
%TD*%
D23*
%TO.C,R15*%
X126337500Y-78250000D03*
X128162500Y-78250000D03*
%TD*%
%TO.C,R1*%
X125587500Y-89500000D03*
X127412500Y-89500000D03*
%TD*%
D34*
%TO.C,IC4*%
X113450000Y-75775000D03*
X113450000Y-75125000D03*
X113450000Y-74475000D03*
X113450000Y-73825000D03*
X116350000Y-73825000D03*
X116350000Y-74475000D03*
X116350000Y-75125000D03*
X116350000Y-75775000D03*
D35*
X114900000Y-74800000D03*
%TD*%
D12*
%TO.C,R25*%
X118750000Y-74087500D03*
X118750000Y-75912500D03*
%TD*%
D22*
%TO.C,C12*%
X116600000Y-69050000D03*
X116600000Y-70950000D03*
%TD*%
D21*
%TO.C,C24*%
X108800000Y-58500000D03*
X110700000Y-58500000D03*
%TD*%
D13*
%TO.C,C2*%
X124500000Y-84450000D03*
X124500000Y-82550000D03*
%TD*%
D36*
%TO.C,C23*%
X130750000Y-106000000D03*
X122250000Y-106000000D03*
%TD*%
D23*
%TO.C,R27*%
X108837500Y-64000000D03*
X110662500Y-64000000D03*
%TD*%
D10*
%TO.C,D6*%
X109950000Y-76375000D03*
X111850000Y-76375000D03*
X110900000Y-78575000D03*
%TD*%
D18*
%TO.C,C20*%
X135150000Y-89300000D03*
X133250000Y-89300000D03*
%TD*%
D22*
%TO.C,C15*%
X114250000Y-78300000D03*
X114250000Y-80200000D03*
%TD*%
D37*
%TO.C,IC2*%
X128300000Y-73988000D03*
X127500000Y-73988000D03*
X126700000Y-73988000D03*
X125900000Y-73988000D03*
X125100000Y-73988000D03*
X124300000Y-73988000D03*
X123500000Y-73988000D03*
X122700000Y-73988000D03*
D38*
X121262000Y-72550000D03*
X121262000Y-71750000D03*
X121262000Y-70950000D03*
X121262000Y-70150000D03*
X121262000Y-69350000D03*
X121262000Y-68550000D03*
X121262000Y-67750000D03*
X121262000Y-66950000D03*
D37*
X122700000Y-65512000D03*
X123500000Y-65512000D03*
X124300000Y-65512000D03*
X125100000Y-65512000D03*
X125900000Y-65512000D03*
X126700000Y-65512000D03*
X127500000Y-65512000D03*
X128300000Y-65512000D03*
D38*
X129738000Y-66950000D03*
X129738000Y-67750000D03*
X129738000Y-68550000D03*
X129738000Y-69350000D03*
X129738000Y-70150000D03*
X129738000Y-70950000D03*
X129738000Y-71750000D03*
X129738000Y-72550000D03*
%TD*%
M02*
