%TF.GenerationSoftware,KiCad,Pcbnew,7.0.8*%
%TF.CreationDate,2023-10-06T19:47:04+02:00*%
%TF.ProjectId,AxxSolder,41787853-6f6c-4646-9572-2e6b69636164,rev?*%
%TF.SameCoordinates,Original*%
%TF.FileFunction,Legend,Bot*%
%TF.FilePolarity,Positive*%
%FSLAX46Y46*%
G04 Gerber Fmt 4.6, Leading zero omitted, Abs format (unit mm)*
G04 Created by KiCad (PCBNEW 7.0.8) date 2023-10-06 19:47:04*
%MOMM*%
%LPD*%
G01*
G04 APERTURE LIST*
%ADD10C,0.200000*%
%ADD11C,0.150000*%
%ADD12C,0.600000*%
%ADD13C,0.254000*%
%ADD14C,0.120000*%
%ADD15C,0.100000*%
%ADD16C,0.250000*%
%ADD17C,0.400000*%
G04 APERTURE END LIST*
D10*
X120868034Y-53750000D02*
G75*
G03*
X120868034Y-53750000I-1118034J0D01*
G01*
D11*
X124185713Y-78454819D02*
X123614285Y-78454819D01*
X123899999Y-79454819D02*
X123899999Y-78454819D01*
D12*
X105657142Y-86486200D02*
X107942857Y-86486200D01*
D11*
X126204819Y-49666667D02*
X127204819Y-50000000D01*
X127204819Y-50000000D02*
X126204819Y-50333333D01*
X127204819Y-50666667D02*
X126204819Y-50666667D01*
X126204819Y-50666667D02*
X126204819Y-50904762D01*
X126204819Y-50904762D02*
X126252438Y-51047619D01*
X126252438Y-51047619D02*
X126347676Y-51142857D01*
X126347676Y-51142857D02*
X126442914Y-51190476D01*
X126442914Y-51190476D02*
X126633390Y-51238095D01*
X126633390Y-51238095D02*
X126776247Y-51238095D01*
X126776247Y-51238095D02*
X126966723Y-51190476D01*
X126966723Y-51190476D02*
X127061961Y-51142857D01*
X127061961Y-51142857D02*
X127157200Y-51047619D01*
X127157200Y-51047619D02*
X127204819Y-50904762D01*
X127204819Y-50904762D02*
X127204819Y-50666667D01*
X127204819Y-51666667D02*
X126204819Y-51666667D01*
X126204819Y-51666667D02*
X126204819Y-51904762D01*
X126204819Y-51904762D02*
X126252438Y-52047619D01*
X126252438Y-52047619D02*
X126347676Y-52142857D01*
X126347676Y-52142857D02*
X126442914Y-52190476D01*
X126442914Y-52190476D02*
X126633390Y-52238095D01*
X126633390Y-52238095D02*
X126776247Y-52238095D01*
X126776247Y-52238095D02*
X126966723Y-52190476D01*
X126966723Y-52190476D02*
X127061961Y-52142857D01*
X127061961Y-52142857D02*
X127157200Y-52047619D01*
X127157200Y-52047619D02*
X127204819Y-51904762D01*
X127204819Y-51904762D02*
X127204819Y-51666667D01*
X131761904Y-80252438D02*
X131857142Y-80204819D01*
X131857142Y-80204819D02*
X131999999Y-80204819D01*
X131999999Y-80204819D02*
X132142856Y-80252438D01*
X132142856Y-80252438D02*
X132238094Y-80347676D01*
X132238094Y-80347676D02*
X132285713Y-80442914D01*
X132285713Y-80442914D02*
X132333332Y-80633390D01*
X132333332Y-80633390D02*
X132333332Y-80776247D01*
X132333332Y-80776247D02*
X132285713Y-80966723D01*
X132285713Y-80966723D02*
X132238094Y-81061961D01*
X132238094Y-81061961D02*
X132142856Y-81157200D01*
X132142856Y-81157200D02*
X131999999Y-81204819D01*
X131999999Y-81204819D02*
X131904761Y-81204819D01*
X131904761Y-81204819D02*
X131761904Y-81157200D01*
X131761904Y-81157200D02*
X131714285Y-81109580D01*
X131714285Y-81109580D02*
X131714285Y-80776247D01*
X131714285Y-80776247D02*
X131904761Y-80776247D01*
X131285713Y-81204819D02*
X131285713Y-80204819D01*
X131285713Y-80204819D02*
X130714285Y-81204819D01*
X130714285Y-81204819D02*
X130714285Y-80204819D01*
X130238094Y-81204819D02*
X130238094Y-80204819D01*
X130238094Y-80204819D02*
X129999999Y-80204819D01*
X129999999Y-80204819D02*
X129857142Y-80252438D01*
X129857142Y-80252438D02*
X129761904Y-80347676D01*
X129761904Y-80347676D02*
X129714285Y-80442914D01*
X129714285Y-80442914D02*
X129666666Y-80633390D01*
X129666666Y-80633390D02*
X129666666Y-80776247D01*
X129666666Y-80776247D02*
X129714285Y-80966723D01*
X129714285Y-80966723D02*
X129761904Y-81061961D01*
X129761904Y-81061961D02*
X129857142Y-81157200D01*
X129857142Y-81157200D02*
X129999999Y-81204819D01*
X129999999Y-81204819D02*
X130238094Y-81204819D01*
X134454819Y-90892857D02*
X134454819Y-91464285D01*
X135454819Y-91178571D02*
X134454819Y-91178571D01*
X135454819Y-91797619D02*
X134454819Y-91797619D01*
X134454819Y-91797619D02*
X135169104Y-92130952D01*
X135169104Y-92130952D02*
X134454819Y-92464285D01*
X134454819Y-92464285D02*
X135454819Y-92464285D01*
X135454819Y-92940476D02*
X134454819Y-92940476D01*
X134454819Y-92940476D02*
X134454819Y-93321428D01*
X134454819Y-93321428D02*
X134502438Y-93416666D01*
X134502438Y-93416666D02*
X134550057Y-93464285D01*
X134550057Y-93464285D02*
X134645295Y-93511904D01*
X134645295Y-93511904D02*
X134788152Y-93511904D01*
X134788152Y-93511904D02*
X134883390Y-93464285D01*
X134883390Y-93464285D02*
X134931009Y-93416666D01*
X134931009Y-93416666D02*
X134978628Y-93321428D01*
X134978628Y-93321428D02*
X134978628Y-92940476D01*
X121454819Y-49333334D02*
X121454819Y-49952381D01*
X121454819Y-49952381D02*
X121835771Y-49619048D01*
X121835771Y-49619048D02*
X121835771Y-49761905D01*
X121835771Y-49761905D02*
X121883390Y-49857143D01*
X121883390Y-49857143D02*
X121931009Y-49904762D01*
X121931009Y-49904762D02*
X122026247Y-49952381D01*
X122026247Y-49952381D02*
X122264342Y-49952381D01*
X122264342Y-49952381D02*
X122359580Y-49904762D01*
X122359580Y-49904762D02*
X122407200Y-49857143D01*
X122407200Y-49857143D02*
X122454819Y-49761905D01*
X122454819Y-49761905D02*
X122454819Y-49476191D01*
X122454819Y-49476191D02*
X122407200Y-49380953D01*
X122407200Y-49380953D02*
X122359580Y-49333334D01*
X122359580Y-50380953D02*
X122407200Y-50428572D01*
X122407200Y-50428572D02*
X122454819Y-50380953D01*
X122454819Y-50380953D02*
X122407200Y-50333334D01*
X122407200Y-50333334D02*
X122359580Y-50380953D01*
X122359580Y-50380953D02*
X122454819Y-50380953D01*
X121454819Y-50761905D02*
X121454819Y-51380952D01*
X121454819Y-51380952D02*
X121835771Y-51047619D01*
X121835771Y-51047619D02*
X121835771Y-51190476D01*
X121835771Y-51190476D02*
X121883390Y-51285714D01*
X121883390Y-51285714D02*
X121931009Y-51333333D01*
X121931009Y-51333333D02*
X122026247Y-51380952D01*
X122026247Y-51380952D02*
X122264342Y-51380952D01*
X122264342Y-51380952D02*
X122359580Y-51333333D01*
X122359580Y-51333333D02*
X122407200Y-51285714D01*
X122407200Y-51285714D02*
X122454819Y-51190476D01*
X122454819Y-51190476D02*
X122454819Y-50904762D01*
X122454819Y-50904762D02*
X122407200Y-50809524D01*
X122407200Y-50809524D02*
X122359580Y-50761905D01*
X121454819Y-51666667D02*
X122454819Y-52000000D01*
X122454819Y-52000000D02*
X121454819Y-52333333D01*
X132407200Y-66242857D02*
X132454819Y-66385714D01*
X132454819Y-66385714D02*
X132454819Y-66623809D01*
X132454819Y-66623809D02*
X132407200Y-66719047D01*
X132407200Y-66719047D02*
X132359580Y-66766666D01*
X132359580Y-66766666D02*
X132264342Y-66814285D01*
X132264342Y-66814285D02*
X132169104Y-66814285D01*
X132169104Y-66814285D02*
X132073866Y-66766666D01*
X132073866Y-66766666D02*
X132026247Y-66719047D01*
X132026247Y-66719047D02*
X131978628Y-66623809D01*
X131978628Y-66623809D02*
X131931009Y-66433333D01*
X131931009Y-66433333D02*
X131883390Y-66338095D01*
X131883390Y-66338095D02*
X131835771Y-66290476D01*
X131835771Y-66290476D02*
X131740533Y-66242857D01*
X131740533Y-66242857D02*
X131645295Y-66242857D01*
X131645295Y-66242857D02*
X131550057Y-66290476D01*
X131550057Y-66290476D02*
X131502438Y-66338095D01*
X131502438Y-66338095D02*
X131454819Y-66433333D01*
X131454819Y-66433333D02*
X131454819Y-66671428D01*
X131454819Y-66671428D02*
X131502438Y-66814285D01*
X131454819Y-67147619D02*
X132454819Y-67385714D01*
X132454819Y-67385714D02*
X131740533Y-67576190D01*
X131740533Y-67576190D02*
X132454819Y-67766666D01*
X132454819Y-67766666D02*
X131454819Y-68004762D01*
X132454819Y-68385714D02*
X131454819Y-68385714D01*
X131454819Y-68385714D02*
X131454819Y-68623809D01*
X131454819Y-68623809D02*
X131502438Y-68766666D01*
X131502438Y-68766666D02*
X131597676Y-68861904D01*
X131597676Y-68861904D02*
X131692914Y-68909523D01*
X131692914Y-68909523D02*
X131883390Y-68957142D01*
X131883390Y-68957142D02*
X132026247Y-68957142D01*
X132026247Y-68957142D02*
X132216723Y-68909523D01*
X132216723Y-68909523D02*
X132311961Y-68861904D01*
X132311961Y-68861904D02*
X132407200Y-68766666D01*
X132407200Y-68766666D02*
X132454819Y-68623809D01*
X132454819Y-68623809D02*
X132454819Y-68385714D01*
X119302105Y-50142857D02*
X119254486Y-50047619D01*
X119254486Y-50047619D02*
X119254486Y-49904762D01*
X119254486Y-49904762D02*
X119302105Y-49761905D01*
X119302105Y-49761905D02*
X119397343Y-49666667D01*
X119397343Y-49666667D02*
X119492581Y-49619048D01*
X119492581Y-49619048D02*
X119683057Y-49571429D01*
X119683057Y-49571429D02*
X119825914Y-49571429D01*
X119825914Y-49571429D02*
X120016390Y-49619048D01*
X120016390Y-49619048D02*
X120111628Y-49666667D01*
X120111628Y-49666667D02*
X120206867Y-49761905D01*
X120206867Y-49761905D02*
X120254486Y-49904762D01*
X120254486Y-49904762D02*
X120254486Y-50000000D01*
X120254486Y-50000000D02*
X120206867Y-50142857D01*
X120206867Y-50142857D02*
X120159247Y-50190476D01*
X120159247Y-50190476D02*
X119825914Y-50190476D01*
X119825914Y-50190476D02*
X119825914Y-50000000D01*
X120254486Y-50619048D02*
X119254486Y-50619048D01*
X119254486Y-50619048D02*
X120254486Y-51190476D01*
X120254486Y-51190476D02*
X119254486Y-51190476D01*
X120254486Y-51666667D02*
X119254486Y-51666667D01*
X119254486Y-51666667D02*
X119254486Y-51904762D01*
X119254486Y-51904762D02*
X119302105Y-52047619D01*
X119302105Y-52047619D02*
X119397343Y-52142857D01*
X119397343Y-52142857D02*
X119492581Y-52190476D01*
X119492581Y-52190476D02*
X119683057Y-52238095D01*
X119683057Y-52238095D02*
X119825914Y-52238095D01*
X119825914Y-52238095D02*
X120016390Y-52190476D01*
X120016390Y-52190476D02*
X120111628Y-52142857D01*
X120111628Y-52142857D02*
X120206867Y-52047619D01*
X120206867Y-52047619D02*
X120254486Y-51904762D01*
X120254486Y-51904762D02*
X120254486Y-51666667D01*
X122090476Y-78759580D02*
X122138095Y-78807200D01*
X122138095Y-78807200D02*
X122280952Y-78854819D01*
X122280952Y-78854819D02*
X122376190Y-78854819D01*
X122376190Y-78854819D02*
X122519047Y-78807200D01*
X122519047Y-78807200D02*
X122614285Y-78711961D01*
X122614285Y-78711961D02*
X122661904Y-78616723D01*
X122661904Y-78616723D02*
X122709523Y-78426247D01*
X122709523Y-78426247D02*
X122709523Y-78283390D01*
X122709523Y-78283390D02*
X122661904Y-78092914D01*
X122661904Y-78092914D02*
X122614285Y-77997676D01*
X122614285Y-77997676D02*
X122519047Y-77902438D01*
X122519047Y-77902438D02*
X122376190Y-77854819D01*
X122376190Y-77854819D02*
X122280952Y-77854819D01*
X122280952Y-77854819D02*
X122138095Y-77902438D01*
X122138095Y-77902438D02*
X122090476Y-77950057D01*
D12*
X107942857Y-90413800D02*
X105657143Y-90413800D01*
X106800000Y-91556657D02*
X106800000Y-89270942D01*
D11*
X123704819Y-51333332D02*
X123704819Y-50857142D01*
X123704819Y-50857142D02*
X124181009Y-50809523D01*
X124181009Y-50809523D02*
X124133390Y-50857142D01*
X124133390Y-50857142D02*
X124085771Y-50952380D01*
X124085771Y-50952380D02*
X124085771Y-51190475D01*
X124085771Y-51190475D02*
X124133390Y-51285713D01*
X124133390Y-51285713D02*
X124181009Y-51333332D01*
X124181009Y-51333332D02*
X124276247Y-51380951D01*
X124276247Y-51380951D02*
X124514342Y-51380951D01*
X124514342Y-51380951D02*
X124609580Y-51333332D01*
X124609580Y-51333332D02*
X124657200Y-51285713D01*
X124657200Y-51285713D02*
X124704819Y-51190475D01*
X124704819Y-51190475D02*
X124704819Y-50952380D01*
X124704819Y-50952380D02*
X124657200Y-50857142D01*
X124657200Y-50857142D02*
X124609580Y-50809523D01*
X123704819Y-51666666D02*
X124704819Y-51999999D01*
X124704819Y-51999999D02*
X123704819Y-52333332D01*
X99333333Y-66454819D02*
X99333333Y-67169104D01*
X99333333Y-67169104D02*
X99380952Y-67311961D01*
X99380952Y-67311961D02*
X99476190Y-67407200D01*
X99476190Y-67407200D02*
X99619047Y-67454819D01*
X99619047Y-67454819D02*
X99714285Y-67454819D01*
X98333333Y-67454819D02*
X98904761Y-67454819D01*
X98619047Y-67454819D02*
X98619047Y-66454819D01*
X98619047Y-66454819D02*
X98714285Y-66597676D01*
X98714285Y-66597676D02*
X98809523Y-66692914D01*
X98809523Y-66692914D02*
X98904761Y-66740533D01*
X109942857Y-81104819D02*
X110276190Y-80628628D01*
X110514285Y-81104819D02*
X110514285Y-80104819D01*
X110514285Y-80104819D02*
X110133333Y-80104819D01*
X110133333Y-80104819D02*
X110038095Y-80152438D01*
X110038095Y-80152438D02*
X109990476Y-80200057D01*
X109990476Y-80200057D02*
X109942857Y-80295295D01*
X109942857Y-80295295D02*
X109942857Y-80438152D01*
X109942857Y-80438152D02*
X109990476Y-80533390D01*
X109990476Y-80533390D02*
X110038095Y-80581009D01*
X110038095Y-80581009D02*
X110133333Y-80628628D01*
X110133333Y-80628628D02*
X110514285Y-80628628D01*
X108990476Y-81104819D02*
X109561904Y-81104819D01*
X109276190Y-81104819D02*
X109276190Y-80104819D01*
X109276190Y-80104819D02*
X109371428Y-80247676D01*
X109371428Y-80247676D02*
X109466666Y-80342914D01*
X109466666Y-80342914D02*
X109561904Y-80390533D01*
X108371428Y-80104819D02*
X108276190Y-80104819D01*
X108276190Y-80104819D02*
X108180952Y-80152438D01*
X108180952Y-80152438D02*
X108133333Y-80200057D01*
X108133333Y-80200057D02*
X108085714Y-80295295D01*
X108085714Y-80295295D02*
X108038095Y-80485771D01*
X108038095Y-80485771D02*
X108038095Y-80723866D01*
X108038095Y-80723866D02*
X108085714Y-80914342D01*
X108085714Y-80914342D02*
X108133333Y-81009580D01*
X108133333Y-81009580D02*
X108180952Y-81057200D01*
X108180952Y-81057200D02*
X108276190Y-81104819D01*
X108276190Y-81104819D02*
X108371428Y-81104819D01*
X108371428Y-81104819D02*
X108466666Y-81057200D01*
X108466666Y-81057200D02*
X108514285Y-81009580D01*
X108514285Y-81009580D02*
X108561904Y-80914342D01*
X108561904Y-80914342D02*
X108609523Y-80723866D01*
X108609523Y-80723866D02*
X108609523Y-80485771D01*
X108609523Y-80485771D02*
X108561904Y-80295295D01*
X108561904Y-80295295D02*
X108514285Y-80200057D01*
X108514285Y-80200057D02*
X108466666Y-80152438D01*
X108466666Y-80152438D02*
X108371428Y-80104819D01*
X105454819Y-60607142D02*
X104978628Y-60273809D01*
X105454819Y-60035714D02*
X104454819Y-60035714D01*
X104454819Y-60035714D02*
X104454819Y-60416666D01*
X104454819Y-60416666D02*
X104502438Y-60511904D01*
X104502438Y-60511904D02*
X104550057Y-60559523D01*
X104550057Y-60559523D02*
X104645295Y-60607142D01*
X104645295Y-60607142D02*
X104788152Y-60607142D01*
X104788152Y-60607142D02*
X104883390Y-60559523D01*
X104883390Y-60559523D02*
X104931009Y-60511904D01*
X104931009Y-60511904D02*
X104978628Y-60416666D01*
X104978628Y-60416666D02*
X104978628Y-60035714D01*
X104550057Y-60988095D02*
X104502438Y-61035714D01*
X104502438Y-61035714D02*
X104454819Y-61130952D01*
X104454819Y-61130952D02*
X104454819Y-61369047D01*
X104454819Y-61369047D02*
X104502438Y-61464285D01*
X104502438Y-61464285D02*
X104550057Y-61511904D01*
X104550057Y-61511904D02*
X104645295Y-61559523D01*
X104645295Y-61559523D02*
X104740533Y-61559523D01*
X104740533Y-61559523D02*
X104883390Y-61511904D01*
X104883390Y-61511904D02*
X105454819Y-60940476D01*
X105454819Y-60940476D02*
X105454819Y-61559523D01*
X104883390Y-62130952D02*
X104835771Y-62035714D01*
X104835771Y-62035714D02*
X104788152Y-61988095D01*
X104788152Y-61988095D02*
X104692914Y-61940476D01*
X104692914Y-61940476D02*
X104645295Y-61940476D01*
X104645295Y-61940476D02*
X104550057Y-61988095D01*
X104550057Y-61988095D02*
X104502438Y-62035714D01*
X104502438Y-62035714D02*
X104454819Y-62130952D01*
X104454819Y-62130952D02*
X104454819Y-62321428D01*
X104454819Y-62321428D02*
X104502438Y-62416666D01*
X104502438Y-62416666D02*
X104550057Y-62464285D01*
X104550057Y-62464285D02*
X104645295Y-62511904D01*
X104645295Y-62511904D02*
X104692914Y-62511904D01*
X104692914Y-62511904D02*
X104788152Y-62464285D01*
X104788152Y-62464285D02*
X104835771Y-62416666D01*
X104835771Y-62416666D02*
X104883390Y-62321428D01*
X104883390Y-62321428D02*
X104883390Y-62130952D01*
X104883390Y-62130952D02*
X104931009Y-62035714D01*
X104931009Y-62035714D02*
X104978628Y-61988095D01*
X104978628Y-61988095D02*
X105073866Y-61940476D01*
X105073866Y-61940476D02*
X105264342Y-61940476D01*
X105264342Y-61940476D02*
X105359580Y-61988095D01*
X105359580Y-61988095D02*
X105407200Y-62035714D01*
X105407200Y-62035714D02*
X105454819Y-62130952D01*
X105454819Y-62130952D02*
X105454819Y-62321428D01*
X105454819Y-62321428D02*
X105407200Y-62416666D01*
X105407200Y-62416666D02*
X105359580Y-62464285D01*
X105359580Y-62464285D02*
X105264342Y-62511904D01*
X105264342Y-62511904D02*
X105073866Y-62511904D01*
X105073866Y-62511904D02*
X104978628Y-62464285D01*
X104978628Y-62464285D02*
X104931009Y-62416666D01*
X104931009Y-62416666D02*
X104883390Y-62321428D01*
X111888095Y-88992680D02*
X111888095Y-88183157D01*
X111888095Y-88183157D02*
X111935714Y-88087919D01*
X111935714Y-88087919D02*
X111983333Y-88040300D01*
X111983333Y-88040300D02*
X112078571Y-87992680D01*
X112078571Y-87992680D02*
X112269047Y-87992680D01*
X112269047Y-87992680D02*
X112364285Y-88040300D01*
X112364285Y-88040300D02*
X112411904Y-88087919D01*
X112411904Y-88087919D02*
X112459523Y-88183157D01*
X112459523Y-88183157D02*
X112459523Y-88992680D01*
X112888095Y-88897442D02*
X112935714Y-88945061D01*
X112935714Y-88945061D02*
X113030952Y-88992680D01*
X113030952Y-88992680D02*
X113269047Y-88992680D01*
X113269047Y-88992680D02*
X113364285Y-88945061D01*
X113364285Y-88945061D02*
X113411904Y-88897442D01*
X113411904Y-88897442D02*
X113459523Y-88802204D01*
X113459523Y-88802204D02*
X113459523Y-88706966D01*
X113459523Y-88706966D02*
X113411904Y-88564109D01*
X113411904Y-88564109D02*
X112840476Y-87992680D01*
X112840476Y-87992680D02*
X113459523Y-87992680D01*
X129416666Y-89859580D02*
X129464285Y-89907200D01*
X129464285Y-89907200D02*
X129607142Y-89954819D01*
X129607142Y-89954819D02*
X129702380Y-89954819D01*
X129702380Y-89954819D02*
X129845237Y-89907200D01*
X129845237Y-89907200D02*
X129940475Y-89811961D01*
X129940475Y-89811961D02*
X129988094Y-89716723D01*
X129988094Y-89716723D02*
X130035713Y-89526247D01*
X130035713Y-89526247D02*
X130035713Y-89383390D01*
X130035713Y-89383390D02*
X129988094Y-89192914D01*
X129988094Y-89192914D02*
X129940475Y-89097676D01*
X129940475Y-89097676D02*
X129845237Y-89002438D01*
X129845237Y-89002438D02*
X129702380Y-88954819D01*
X129702380Y-88954819D02*
X129607142Y-88954819D01*
X129607142Y-88954819D02*
X129464285Y-89002438D01*
X129464285Y-89002438D02*
X129416666Y-89050057D01*
X129083332Y-88954819D02*
X128464285Y-88954819D01*
X128464285Y-88954819D02*
X128797618Y-89335771D01*
X128797618Y-89335771D02*
X128654761Y-89335771D01*
X128654761Y-89335771D02*
X128559523Y-89383390D01*
X128559523Y-89383390D02*
X128511904Y-89431009D01*
X128511904Y-89431009D02*
X128464285Y-89526247D01*
X128464285Y-89526247D02*
X128464285Y-89764342D01*
X128464285Y-89764342D02*
X128511904Y-89859580D01*
X128511904Y-89859580D02*
X128559523Y-89907200D01*
X128559523Y-89907200D02*
X128654761Y-89954819D01*
X128654761Y-89954819D02*
X128940475Y-89954819D01*
X128940475Y-89954819D02*
X129035713Y-89907200D01*
X129035713Y-89907200D02*
X129083332Y-89859580D01*
D13*
X116961666Y-61824318D02*
X117566428Y-61824318D01*
X117566428Y-61824318D02*
X117566428Y-60554318D01*
X115873094Y-61824318D02*
X116598809Y-61824318D01*
X116235952Y-61824318D02*
X116235952Y-60554318D01*
X116235952Y-60554318D02*
X116356904Y-60735746D01*
X116356904Y-60735746D02*
X116477856Y-60856699D01*
X116477856Y-60856699D02*
X116598809Y-60917175D01*
D11*
X120109580Y-94607142D02*
X120157200Y-94559523D01*
X120157200Y-94559523D02*
X120204819Y-94416666D01*
X120204819Y-94416666D02*
X120204819Y-94321428D01*
X120204819Y-94321428D02*
X120157200Y-94178571D01*
X120157200Y-94178571D02*
X120061961Y-94083333D01*
X120061961Y-94083333D02*
X119966723Y-94035714D01*
X119966723Y-94035714D02*
X119776247Y-93988095D01*
X119776247Y-93988095D02*
X119633390Y-93988095D01*
X119633390Y-93988095D02*
X119442914Y-94035714D01*
X119442914Y-94035714D02*
X119347676Y-94083333D01*
X119347676Y-94083333D02*
X119252438Y-94178571D01*
X119252438Y-94178571D02*
X119204819Y-94321428D01*
X119204819Y-94321428D02*
X119204819Y-94416666D01*
X119204819Y-94416666D02*
X119252438Y-94559523D01*
X119252438Y-94559523D02*
X119300057Y-94607142D01*
X120204819Y-95559523D02*
X120204819Y-94988095D01*
X120204819Y-95273809D02*
X119204819Y-95273809D01*
X119204819Y-95273809D02*
X119347676Y-95178571D01*
X119347676Y-95178571D02*
X119442914Y-95083333D01*
X119442914Y-95083333D02*
X119490533Y-94988095D01*
X119204819Y-95892857D02*
X119204819Y-96559523D01*
X119204819Y-96559523D02*
X120204819Y-96130952D01*
X131666666Y-83609580D02*
X131714285Y-83657200D01*
X131714285Y-83657200D02*
X131857142Y-83704819D01*
X131857142Y-83704819D02*
X131952380Y-83704819D01*
X131952380Y-83704819D02*
X132095237Y-83657200D01*
X132095237Y-83657200D02*
X132190475Y-83561961D01*
X132190475Y-83561961D02*
X132238094Y-83466723D01*
X132238094Y-83466723D02*
X132285713Y-83276247D01*
X132285713Y-83276247D02*
X132285713Y-83133390D01*
X132285713Y-83133390D02*
X132238094Y-82942914D01*
X132238094Y-82942914D02*
X132190475Y-82847676D01*
X132190475Y-82847676D02*
X132095237Y-82752438D01*
X132095237Y-82752438D02*
X131952380Y-82704819D01*
X131952380Y-82704819D02*
X131857142Y-82704819D01*
X131857142Y-82704819D02*
X131714285Y-82752438D01*
X131714285Y-82752438D02*
X131666666Y-82800057D01*
X130761904Y-82704819D02*
X131238094Y-82704819D01*
X131238094Y-82704819D02*
X131285713Y-83181009D01*
X131285713Y-83181009D02*
X131238094Y-83133390D01*
X131238094Y-83133390D02*
X131142856Y-83085771D01*
X131142856Y-83085771D02*
X130904761Y-83085771D01*
X130904761Y-83085771D02*
X130809523Y-83133390D01*
X130809523Y-83133390D02*
X130761904Y-83181009D01*
X130761904Y-83181009D02*
X130714285Y-83276247D01*
X130714285Y-83276247D02*
X130714285Y-83514342D01*
X130714285Y-83514342D02*
X130761904Y-83609580D01*
X130761904Y-83609580D02*
X130809523Y-83657200D01*
X130809523Y-83657200D02*
X130904761Y-83704819D01*
X130904761Y-83704819D02*
X131142856Y-83704819D01*
X131142856Y-83704819D02*
X131238094Y-83657200D01*
X131238094Y-83657200D02*
X131285713Y-83609580D01*
X98359580Y-61857142D02*
X98407200Y-61809523D01*
X98407200Y-61809523D02*
X98454819Y-61666666D01*
X98454819Y-61666666D02*
X98454819Y-61571428D01*
X98454819Y-61571428D02*
X98407200Y-61428571D01*
X98407200Y-61428571D02*
X98311961Y-61333333D01*
X98311961Y-61333333D02*
X98216723Y-61285714D01*
X98216723Y-61285714D02*
X98026247Y-61238095D01*
X98026247Y-61238095D02*
X97883390Y-61238095D01*
X97883390Y-61238095D02*
X97692914Y-61285714D01*
X97692914Y-61285714D02*
X97597676Y-61333333D01*
X97597676Y-61333333D02*
X97502438Y-61428571D01*
X97502438Y-61428571D02*
X97454819Y-61571428D01*
X97454819Y-61571428D02*
X97454819Y-61666666D01*
X97454819Y-61666666D02*
X97502438Y-61809523D01*
X97502438Y-61809523D02*
X97550057Y-61857142D01*
X98454819Y-62809523D02*
X98454819Y-62238095D01*
X98454819Y-62523809D02*
X97454819Y-62523809D01*
X97454819Y-62523809D02*
X97597676Y-62428571D01*
X97597676Y-62428571D02*
X97692914Y-62333333D01*
X97692914Y-62333333D02*
X97740533Y-62238095D01*
X97788152Y-63666666D02*
X98454819Y-63666666D01*
X97407200Y-63428571D02*
X98121485Y-63190476D01*
X98121485Y-63190476D02*
X98121485Y-63809523D01*
X129416666Y-91954819D02*
X129749999Y-91478628D01*
X129988094Y-91954819D02*
X129988094Y-90954819D01*
X129988094Y-90954819D02*
X129607142Y-90954819D01*
X129607142Y-90954819D02*
X129511904Y-91002438D01*
X129511904Y-91002438D02*
X129464285Y-91050057D01*
X129464285Y-91050057D02*
X129416666Y-91145295D01*
X129416666Y-91145295D02*
X129416666Y-91288152D01*
X129416666Y-91288152D02*
X129464285Y-91383390D01*
X129464285Y-91383390D02*
X129511904Y-91431009D01*
X129511904Y-91431009D02*
X129607142Y-91478628D01*
X129607142Y-91478628D02*
X129988094Y-91478628D01*
X129035713Y-91050057D02*
X128988094Y-91002438D01*
X128988094Y-91002438D02*
X128892856Y-90954819D01*
X128892856Y-90954819D02*
X128654761Y-90954819D01*
X128654761Y-90954819D02*
X128559523Y-91002438D01*
X128559523Y-91002438D02*
X128511904Y-91050057D01*
X128511904Y-91050057D02*
X128464285Y-91145295D01*
X128464285Y-91145295D02*
X128464285Y-91240533D01*
X128464285Y-91240533D02*
X128511904Y-91383390D01*
X128511904Y-91383390D02*
X129083332Y-91954819D01*
X129083332Y-91954819D02*
X128464285Y-91954819D01*
X131416666Y-91954819D02*
X131749999Y-91478628D01*
X131988094Y-91954819D02*
X131988094Y-90954819D01*
X131988094Y-90954819D02*
X131607142Y-90954819D01*
X131607142Y-90954819D02*
X131511904Y-91002438D01*
X131511904Y-91002438D02*
X131464285Y-91050057D01*
X131464285Y-91050057D02*
X131416666Y-91145295D01*
X131416666Y-91145295D02*
X131416666Y-91288152D01*
X131416666Y-91288152D02*
X131464285Y-91383390D01*
X131464285Y-91383390D02*
X131511904Y-91431009D01*
X131511904Y-91431009D02*
X131607142Y-91478628D01*
X131607142Y-91478628D02*
X131988094Y-91478628D01*
X131083332Y-90954819D02*
X130464285Y-90954819D01*
X130464285Y-90954819D02*
X130797618Y-91335771D01*
X130797618Y-91335771D02*
X130654761Y-91335771D01*
X130654761Y-91335771D02*
X130559523Y-91383390D01*
X130559523Y-91383390D02*
X130511904Y-91431009D01*
X130511904Y-91431009D02*
X130464285Y-91526247D01*
X130464285Y-91526247D02*
X130464285Y-91764342D01*
X130464285Y-91764342D02*
X130511904Y-91859580D01*
X130511904Y-91859580D02*
X130559523Y-91907200D01*
X130559523Y-91907200D02*
X130654761Y-91954819D01*
X130654761Y-91954819D02*
X130940475Y-91954819D01*
X130940475Y-91954819D02*
X131035713Y-91907200D01*
X131035713Y-91907200D02*
X131083332Y-91859580D01*
X131189285Y-88554819D02*
X131189285Y-87554819D01*
X131189285Y-87554819D02*
X130951190Y-87554819D01*
X130951190Y-87554819D02*
X130808333Y-87602438D01*
X130808333Y-87602438D02*
X130713095Y-87697676D01*
X130713095Y-87697676D02*
X130665476Y-87792914D01*
X130665476Y-87792914D02*
X130617857Y-87983390D01*
X130617857Y-87983390D02*
X130617857Y-88126247D01*
X130617857Y-88126247D02*
X130665476Y-88316723D01*
X130665476Y-88316723D02*
X130713095Y-88411961D01*
X130713095Y-88411961D02*
X130808333Y-88507200D01*
X130808333Y-88507200D02*
X130951190Y-88554819D01*
X130951190Y-88554819D02*
X131189285Y-88554819D01*
X129665476Y-88554819D02*
X130236904Y-88554819D01*
X129951190Y-88554819D02*
X129951190Y-87554819D01*
X129951190Y-87554819D02*
X130046428Y-87697676D01*
X130046428Y-87697676D02*
X130141666Y-87792914D01*
X130141666Y-87792914D02*
X130236904Y-87840533D01*
X129284523Y-87650057D02*
X129236904Y-87602438D01*
X129236904Y-87602438D02*
X129141666Y-87554819D01*
X129141666Y-87554819D02*
X128903571Y-87554819D01*
X128903571Y-87554819D02*
X128808333Y-87602438D01*
X128808333Y-87602438D02*
X128760714Y-87650057D01*
X128760714Y-87650057D02*
X128713095Y-87745295D01*
X128713095Y-87745295D02*
X128713095Y-87840533D01*
X128713095Y-87840533D02*
X128760714Y-87983390D01*
X128760714Y-87983390D02*
X129332142Y-88554819D01*
X129332142Y-88554819D02*
X128713095Y-88554819D01*
X124333333Y-96931009D02*
X124666666Y-96931009D01*
X124666666Y-97454819D02*
X124666666Y-96454819D01*
X124666666Y-96454819D02*
X124190476Y-96454819D01*
X123285714Y-97454819D02*
X123857142Y-97454819D01*
X123571428Y-97454819D02*
X123571428Y-96454819D01*
X123571428Y-96454819D02*
X123666666Y-96597676D01*
X123666666Y-96597676D02*
X123761904Y-96692914D01*
X123761904Y-96692914D02*
X123857142Y-96740533D01*
X117559580Y-94607142D02*
X117607200Y-94559523D01*
X117607200Y-94559523D02*
X117654819Y-94416666D01*
X117654819Y-94416666D02*
X117654819Y-94321428D01*
X117654819Y-94321428D02*
X117607200Y-94178571D01*
X117607200Y-94178571D02*
X117511961Y-94083333D01*
X117511961Y-94083333D02*
X117416723Y-94035714D01*
X117416723Y-94035714D02*
X117226247Y-93988095D01*
X117226247Y-93988095D02*
X117083390Y-93988095D01*
X117083390Y-93988095D02*
X116892914Y-94035714D01*
X116892914Y-94035714D02*
X116797676Y-94083333D01*
X116797676Y-94083333D02*
X116702438Y-94178571D01*
X116702438Y-94178571D02*
X116654819Y-94321428D01*
X116654819Y-94321428D02*
X116654819Y-94416666D01*
X116654819Y-94416666D02*
X116702438Y-94559523D01*
X116702438Y-94559523D02*
X116750057Y-94607142D01*
X117654819Y-95559523D02*
X117654819Y-94988095D01*
X117654819Y-95273809D02*
X116654819Y-95273809D01*
X116654819Y-95273809D02*
X116797676Y-95178571D01*
X116797676Y-95178571D02*
X116892914Y-95083333D01*
X116892914Y-95083333D02*
X116940533Y-94988095D01*
X117083390Y-96130952D02*
X117035771Y-96035714D01*
X117035771Y-96035714D02*
X116988152Y-95988095D01*
X116988152Y-95988095D02*
X116892914Y-95940476D01*
X116892914Y-95940476D02*
X116845295Y-95940476D01*
X116845295Y-95940476D02*
X116750057Y-95988095D01*
X116750057Y-95988095D02*
X116702438Y-96035714D01*
X116702438Y-96035714D02*
X116654819Y-96130952D01*
X116654819Y-96130952D02*
X116654819Y-96321428D01*
X116654819Y-96321428D02*
X116702438Y-96416666D01*
X116702438Y-96416666D02*
X116750057Y-96464285D01*
X116750057Y-96464285D02*
X116845295Y-96511904D01*
X116845295Y-96511904D02*
X116892914Y-96511904D01*
X116892914Y-96511904D02*
X116988152Y-96464285D01*
X116988152Y-96464285D02*
X117035771Y-96416666D01*
X117035771Y-96416666D02*
X117083390Y-96321428D01*
X117083390Y-96321428D02*
X117083390Y-96130952D01*
X117083390Y-96130952D02*
X117131009Y-96035714D01*
X117131009Y-96035714D02*
X117178628Y-95988095D01*
X117178628Y-95988095D02*
X117273866Y-95940476D01*
X117273866Y-95940476D02*
X117464342Y-95940476D01*
X117464342Y-95940476D02*
X117559580Y-95988095D01*
X117559580Y-95988095D02*
X117607200Y-96035714D01*
X117607200Y-96035714D02*
X117654819Y-96130952D01*
X117654819Y-96130952D02*
X117654819Y-96321428D01*
X117654819Y-96321428D02*
X117607200Y-96416666D01*
X117607200Y-96416666D02*
X117559580Y-96464285D01*
X117559580Y-96464285D02*
X117464342Y-96511904D01*
X117464342Y-96511904D02*
X117273866Y-96511904D01*
X117273866Y-96511904D02*
X117178628Y-96464285D01*
X117178628Y-96464285D02*
X117131009Y-96416666D01*
X117131009Y-96416666D02*
X117083390Y-96321428D01*
X134558333Y-62754819D02*
X134558333Y-63469104D01*
X134558333Y-63469104D02*
X134605952Y-63611961D01*
X134605952Y-63611961D02*
X134701190Y-63707200D01*
X134701190Y-63707200D02*
X134844047Y-63754819D01*
X134844047Y-63754819D02*
X134939285Y-63754819D01*
X133653571Y-63088152D02*
X133653571Y-63754819D01*
X133891666Y-62707200D02*
X134129761Y-63421485D01*
X134129761Y-63421485D02*
X133510714Y-63421485D01*
X132226189Y-85354819D02*
X132226189Y-84354819D01*
X131178571Y-85259580D02*
X131226190Y-85307200D01*
X131226190Y-85307200D02*
X131369047Y-85354819D01*
X131369047Y-85354819D02*
X131464285Y-85354819D01*
X131464285Y-85354819D02*
X131607142Y-85307200D01*
X131607142Y-85307200D02*
X131702380Y-85211961D01*
X131702380Y-85211961D02*
X131749999Y-85116723D01*
X131749999Y-85116723D02*
X131797618Y-84926247D01*
X131797618Y-84926247D02*
X131797618Y-84783390D01*
X131797618Y-84783390D02*
X131749999Y-84592914D01*
X131749999Y-84592914D02*
X131702380Y-84497676D01*
X131702380Y-84497676D02*
X131607142Y-84402438D01*
X131607142Y-84402438D02*
X131464285Y-84354819D01*
X131464285Y-84354819D02*
X131369047Y-84354819D01*
X131369047Y-84354819D02*
X131226190Y-84402438D01*
X131226190Y-84402438D02*
X131178571Y-84450057D01*
X130845237Y-84354819D02*
X130226190Y-84354819D01*
X130226190Y-84354819D02*
X130559523Y-84735771D01*
X130559523Y-84735771D02*
X130416666Y-84735771D01*
X130416666Y-84735771D02*
X130321428Y-84783390D01*
X130321428Y-84783390D02*
X130273809Y-84831009D01*
X130273809Y-84831009D02*
X130226190Y-84926247D01*
X130226190Y-84926247D02*
X130226190Y-85164342D01*
X130226190Y-85164342D02*
X130273809Y-85259580D01*
X130273809Y-85259580D02*
X130321428Y-85307200D01*
X130321428Y-85307200D02*
X130416666Y-85354819D01*
X130416666Y-85354819D02*
X130702380Y-85354819D01*
X130702380Y-85354819D02*
X130797618Y-85307200D01*
X130797618Y-85307200D02*
X130845237Y-85259580D01*
X118959580Y-66107142D02*
X119007200Y-66059523D01*
X119007200Y-66059523D02*
X119054819Y-65916666D01*
X119054819Y-65916666D02*
X119054819Y-65821428D01*
X119054819Y-65821428D02*
X119007200Y-65678571D01*
X119007200Y-65678571D02*
X118911961Y-65583333D01*
X118911961Y-65583333D02*
X118816723Y-65535714D01*
X118816723Y-65535714D02*
X118626247Y-65488095D01*
X118626247Y-65488095D02*
X118483390Y-65488095D01*
X118483390Y-65488095D02*
X118292914Y-65535714D01*
X118292914Y-65535714D02*
X118197676Y-65583333D01*
X118197676Y-65583333D02*
X118102438Y-65678571D01*
X118102438Y-65678571D02*
X118054819Y-65821428D01*
X118054819Y-65821428D02*
X118054819Y-65916666D01*
X118054819Y-65916666D02*
X118102438Y-66059523D01*
X118102438Y-66059523D02*
X118150057Y-66107142D01*
X119054819Y-67059523D02*
X119054819Y-66488095D01*
X119054819Y-66773809D02*
X118054819Y-66773809D01*
X118054819Y-66773809D02*
X118197676Y-66678571D01*
X118197676Y-66678571D02*
X118292914Y-66583333D01*
X118292914Y-66583333D02*
X118340533Y-66488095D01*
X119054819Y-68011904D02*
X119054819Y-67440476D01*
X119054819Y-67726190D02*
X118054819Y-67726190D01*
X118054819Y-67726190D02*
X118197676Y-67630952D01*
X118197676Y-67630952D02*
X118292914Y-67535714D01*
X118292914Y-67535714D02*
X118340533Y-67440476D01*
X112362295Y-62969048D02*
X111562295Y-62969048D01*
X112286104Y-63807143D02*
X112324200Y-63769047D01*
X112324200Y-63769047D02*
X112362295Y-63654762D01*
X112362295Y-63654762D02*
X112362295Y-63578571D01*
X112362295Y-63578571D02*
X112324200Y-63464285D01*
X112324200Y-63464285D02*
X112248009Y-63388095D01*
X112248009Y-63388095D02*
X112171819Y-63350000D01*
X112171819Y-63350000D02*
X112019438Y-63311904D01*
X112019438Y-63311904D02*
X111905152Y-63311904D01*
X111905152Y-63311904D02*
X111752771Y-63350000D01*
X111752771Y-63350000D02*
X111676580Y-63388095D01*
X111676580Y-63388095D02*
X111600390Y-63464285D01*
X111600390Y-63464285D02*
X111562295Y-63578571D01*
X111562295Y-63578571D02*
X111562295Y-63654762D01*
X111562295Y-63654762D02*
X111600390Y-63769047D01*
X111600390Y-63769047D02*
X111638485Y-63807143D01*
X111562295Y-64492857D02*
X111562295Y-64340476D01*
X111562295Y-64340476D02*
X111600390Y-64264285D01*
X111600390Y-64264285D02*
X111638485Y-64226190D01*
X111638485Y-64226190D02*
X111752771Y-64150000D01*
X111752771Y-64150000D02*
X111905152Y-64111904D01*
X111905152Y-64111904D02*
X112209914Y-64111904D01*
X112209914Y-64111904D02*
X112286104Y-64150000D01*
X112286104Y-64150000D02*
X112324200Y-64188095D01*
X112324200Y-64188095D02*
X112362295Y-64264285D01*
X112362295Y-64264285D02*
X112362295Y-64416666D01*
X112362295Y-64416666D02*
X112324200Y-64492857D01*
X112324200Y-64492857D02*
X112286104Y-64530952D01*
X112286104Y-64530952D02*
X112209914Y-64569047D01*
X112209914Y-64569047D02*
X112019438Y-64569047D01*
X112019438Y-64569047D02*
X111943247Y-64530952D01*
X111943247Y-64530952D02*
X111905152Y-64492857D01*
X111905152Y-64492857D02*
X111867057Y-64416666D01*
X111867057Y-64416666D02*
X111867057Y-64264285D01*
X111867057Y-64264285D02*
X111905152Y-64188095D01*
X111905152Y-64188095D02*
X111943247Y-64150000D01*
X111943247Y-64150000D02*
X112019438Y-64111904D01*
X123338094Y-88454819D02*
X123338094Y-87454819D01*
X123338094Y-87454819D02*
X123099999Y-87454819D01*
X123099999Y-87454819D02*
X122957142Y-87502438D01*
X122957142Y-87502438D02*
X122861904Y-87597676D01*
X122861904Y-87597676D02*
X122814285Y-87692914D01*
X122814285Y-87692914D02*
X122766666Y-87883390D01*
X122766666Y-87883390D02*
X122766666Y-88026247D01*
X122766666Y-88026247D02*
X122814285Y-88216723D01*
X122814285Y-88216723D02*
X122861904Y-88311961D01*
X122861904Y-88311961D02*
X122957142Y-88407200D01*
X122957142Y-88407200D02*
X123099999Y-88454819D01*
X123099999Y-88454819D02*
X123338094Y-88454819D01*
X122385713Y-87550057D02*
X122338094Y-87502438D01*
X122338094Y-87502438D02*
X122242856Y-87454819D01*
X122242856Y-87454819D02*
X122004761Y-87454819D01*
X122004761Y-87454819D02*
X121909523Y-87502438D01*
X121909523Y-87502438D02*
X121861904Y-87550057D01*
X121861904Y-87550057D02*
X121814285Y-87645295D01*
X121814285Y-87645295D02*
X121814285Y-87740533D01*
X121814285Y-87740533D02*
X121861904Y-87883390D01*
X121861904Y-87883390D02*
X122433332Y-88454819D01*
X122433332Y-88454819D02*
X121814285Y-88454819D01*
X121226189Y-81504819D02*
X121226189Y-80504819D01*
X120178571Y-81409580D02*
X120226190Y-81457200D01*
X120226190Y-81457200D02*
X120369047Y-81504819D01*
X120369047Y-81504819D02*
X120464285Y-81504819D01*
X120464285Y-81504819D02*
X120607142Y-81457200D01*
X120607142Y-81457200D02*
X120702380Y-81361961D01*
X120702380Y-81361961D02*
X120749999Y-81266723D01*
X120749999Y-81266723D02*
X120797618Y-81076247D01*
X120797618Y-81076247D02*
X120797618Y-80933390D01*
X120797618Y-80933390D02*
X120749999Y-80742914D01*
X120749999Y-80742914D02*
X120702380Y-80647676D01*
X120702380Y-80647676D02*
X120607142Y-80552438D01*
X120607142Y-80552438D02*
X120464285Y-80504819D01*
X120464285Y-80504819D02*
X120369047Y-80504819D01*
X120369047Y-80504819D02*
X120226190Y-80552438D01*
X120226190Y-80552438D02*
X120178571Y-80600057D01*
X119226190Y-81504819D02*
X119797618Y-81504819D01*
X119511904Y-81504819D02*
X119511904Y-80504819D01*
X119511904Y-80504819D02*
X119607142Y-80647676D01*
X119607142Y-80647676D02*
X119702380Y-80742914D01*
X119702380Y-80742914D02*
X119797618Y-80790533D01*
X118266666Y-86659580D02*
X118314285Y-86707200D01*
X118314285Y-86707200D02*
X118457142Y-86754819D01*
X118457142Y-86754819D02*
X118552380Y-86754819D01*
X118552380Y-86754819D02*
X118695237Y-86707200D01*
X118695237Y-86707200D02*
X118790475Y-86611961D01*
X118790475Y-86611961D02*
X118838094Y-86516723D01*
X118838094Y-86516723D02*
X118885713Y-86326247D01*
X118885713Y-86326247D02*
X118885713Y-86183390D01*
X118885713Y-86183390D02*
X118838094Y-85992914D01*
X118838094Y-85992914D02*
X118790475Y-85897676D01*
X118790475Y-85897676D02*
X118695237Y-85802438D01*
X118695237Y-85802438D02*
X118552380Y-85754819D01*
X118552380Y-85754819D02*
X118457142Y-85754819D01*
X118457142Y-85754819D02*
X118314285Y-85802438D01*
X118314285Y-85802438D02*
X118266666Y-85850057D01*
X117409523Y-86088152D02*
X117409523Y-86754819D01*
X117647618Y-85707200D02*
X117885713Y-86421485D01*
X117885713Y-86421485D02*
X117266666Y-86421485D01*
X130166666Y-76859580D02*
X130214285Y-76907200D01*
X130214285Y-76907200D02*
X130357142Y-76954819D01*
X130357142Y-76954819D02*
X130452380Y-76954819D01*
X130452380Y-76954819D02*
X130595237Y-76907200D01*
X130595237Y-76907200D02*
X130690475Y-76811961D01*
X130690475Y-76811961D02*
X130738094Y-76716723D01*
X130738094Y-76716723D02*
X130785713Y-76526247D01*
X130785713Y-76526247D02*
X130785713Y-76383390D01*
X130785713Y-76383390D02*
X130738094Y-76192914D01*
X130738094Y-76192914D02*
X130690475Y-76097676D01*
X130690475Y-76097676D02*
X130595237Y-76002438D01*
X130595237Y-76002438D02*
X130452380Y-75954819D01*
X130452380Y-75954819D02*
X130357142Y-75954819D01*
X130357142Y-75954819D02*
X130214285Y-76002438D01*
X130214285Y-76002438D02*
X130166666Y-76050057D01*
X129833332Y-75954819D02*
X129166666Y-75954819D01*
X129166666Y-75954819D02*
X129595237Y-76954819D01*
X125039580Y-60857142D02*
X125087200Y-60809523D01*
X125087200Y-60809523D02*
X125134819Y-60666666D01*
X125134819Y-60666666D02*
X125134819Y-60571428D01*
X125134819Y-60571428D02*
X125087200Y-60428571D01*
X125087200Y-60428571D02*
X124991961Y-60333333D01*
X124991961Y-60333333D02*
X124896723Y-60285714D01*
X124896723Y-60285714D02*
X124706247Y-60238095D01*
X124706247Y-60238095D02*
X124563390Y-60238095D01*
X124563390Y-60238095D02*
X124372914Y-60285714D01*
X124372914Y-60285714D02*
X124277676Y-60333333D01*
X124277676Y-60333333D02*
X124182438Y-60428571D01*
X124182438Y-60428571D02*
X124134819Y-60571428D01*
X124134819Y-60571428D02*
X124134819Y-60666666D01*
X124134819Y-60666666D02*
X124182438Y-60809523D01*
X124182438Y-60809523D02*
X124230057Y-60857142D01*
X124230057Y-61238095D02*
X124182438Y-61285714D01*
X124182438Y-61285714D02*
X124134819Y-61380952D01*
X124134819Y-61380952D02*
X124134819Y-61619047D01*
X124134819Y-61619047D02*
X124182438Y-61714285D01*
X124182438Y-61714285D02*
X124230057Y-61761904D01*
X124230057Y-61761904D02*
X124325295Y-61809523D01*
X124325295Y-61809523D02*
X124420533Y-61809523D01*
X124420533Y-61809523D02*
X124563390Y-61761904D01*
X124563390Y-61761904D02*
X125134819Y-61190476D01*
X125134819Y-61190476D02*
X125134819Y-61809523D01*
X124134819Y-62714285D02*
X124134819Y-62238095D01*
X124134819Y-62238095D02*
X124611009Y-62190476D01*
X124611009Y-62190476D02*
X124563390Y-62238095D01*
X124563390Y-62238095D02*
X124515771Y-62333333D01*
X124515771Y-62333333D02*
X124515771Y-62571428D01*
X124515771Y-62571428D02*
X124563390Y-62666666D01*
X124563390Y-62666666D02*
X124611009Y-62714285D01*
X124611009Y-62714285D02*
X124706247Y-62761904D01*
X124706247Y-62761904D02*
X124944342Y-62761904D01*
X124944342Y-62761904D02*
X125039580Y-62714285D01*
X125039580Y-62714285D02*
X125087200Y-62666666D01*
X125087200Y-62666666D02*
X125134819Y-62571428D01*
X125134819Y-62571428D02*
X125134819Y-62333333D01*
X125134819Y-62333333D02*
X125087200Y-62238095D01*
X125087200Y-62238095D02*
X125039580Y-62190476D01*
X99609580Y-61857142D02*
X99657200Y-61809523D01*
X99657200Y-61809523D02*
X99704819Y-61666666D01*
X99704819Y-61666666D02*
X99704819Y-61571428D01*
X99704819Y-61571428D02*
X99657200Y-61428571D01*
X99657200Y-61428571D02*
X99561961Y-61333333D01*
X99561961Y-61333333D02*
X99466723Y-61285714D01*
X99466723Y-61285714D02*
X99276247Y-61238095D01*
X99276247Y-61238095D02*
X99133390Y-61238095D01*
X99133390Y-61238095D02*
X98942914Y-61285714D01*
X98942914Y-61285714D02*
X98847676Y-61333333D01*
X98847676Y-61333333D02*
X98752438Y-61428571D01*
X98752438Y-61428571D02*
X98704819Y-61571428D01*
X98704819Y-61571428D02*
X98704819Y-61666666D01*
X98704819Y-61666666D02*
X98752438Y-61809523D01*
X98752438Y-61809523D02*
X98800057Y-61857142D01*
X98800057Y-62238095D02*
X98752438Y-62285714D01*
X98752438Y-62285714D02*
X98704819Y-62380952D01*
X98704819Y-62380952D02*
X98704819Y-62619047D01*
X98704819Y-62619047D02*
X98752438Y-62714285D01*
X98752438Y-62714285D02*
X98800057Y-62761904D01*
X98800057Y-62761904D02*
X98895295Y-62809523D01*
X98895295Y-62809523D02*
X98990533Y-62809523D01*
X98990533Y-62809523D02*
X99133390Y-62761904D01*
X99133390Y-62761904D02*
X99704819Y-62190476D01*
X99704819Y-62190476D02*
X99704819Y-62809523D01*
X99704819Y-63761904D02*
X99704819Y-63190476D01*
X99704819Y-63476190D02*
X98704819Y-63476190D01*
X98704819Y-63476190D02*
X98847676Y-63380952D01*
X98847676Y-63380952D02*
X98942914Y-63285714D01*
X98942914Y-63285714D02*
X98990533Y-63190476D01*
X131142857Y-78704819D02*
X131476190Y-78228628D01*
X131714285Y-78704819D02*
X131714285Y-77704819D01*
X131714285Y-77704819D02*
X131333333Y-77704819D01*
X131333333Y-77704819D02*
X131238095Y-77752438D01*
X131238095Y-77752438D02*
X131190476Y-77800057D01*
X131190476Y-77800057D02*
X131142857Y-77895295D01*
X131142857Y-77895295D02*
X131142857Y-78038152D01*
X131142857Y-78038152D02*
X131190476Y-78133390D01*
X131190476Y-78133390D02*
X131238095Y-78181009D01*
X131238095Y-78181009D02*
X131333333Y-78228628D01*
X131333333Y-78228628D02*
X131714285Y-78228628D01*
X130190476Y-78704819D02*
X130761904Y-78704819D01*
X130476190Y-78704819D02*
X130476190Y-77704819D01*
X130476190Y-77704819D02*
X130571428Y-77847676D01*
X130571428Y-77847676D02*
X130666666Y-77942914D01*
X130666666Y-77942914D02*
X130761904Y-77990533D01*
X129285714Y-77704819D02*
X129761904Y-77704819D01*
X129761904Y-77704819D02*
X129809523Y-78181009D01*
X129809523Y-78181009D02*
X129761904Y-78133390D01*
X129761904Y-78133390D02*
X129666666Y-78085771D01*
X129666666Y-78085771D02*
X129428571Y-78085771D01*
X129428571Y-78085771D02*
X129333333Y-78133390D01*
X129333333Y-78133390D02*
X129285714Y-78181009D01*
X129285714Y-78181009D02*
X129238095Y-78276247D01*
X129238095Y-78276247D02*
X129238095Y-78514342D01*
X129238095Y-78514342D02*
X129285714Y-78609580D01*
X129285714Y-78609580D02*
X129333333Y-78657200D01*
X129333333Y-78657200D02*
X129428571Y-78704819D01*
X129428571Y-78704819D02*
X129666666Y-78704819D01*
X129666666Y-78704819D02*
X129761904Y-78657200D01*
X129761904Y-78657200D02*
X129809523Y-78609580D01*
X131416666Y-89954819D02*
X131749999Y-89478628D01*
X131988094Y-89954819D02*
X131988094Y-88954819D01*
X131988094Y-88954819D02*
X131607142Y-88954819D01*
X131607142Y-88954819D02*
X131511904Y-89002438D01*
X131511904Y-89002438D02*
X131464285Y-89050057D01*
X131464285Y-89050057D02*
X131416666Y-89145295D01*
X131416666Y-89145295D02*
X131416666Y-89288152D01*
X131416666Y-89288152D02*
X131464285Y-89383390D01*
X131464285Y-89383390D02*
X131511904Y-89431009D01*
X131511904Y-89431009D02*
X131607142Y-89478628D01*
X131607142Y-89478628D02*
X131988094Y-89478628D01*
X130464285Y-89954819D02*
X131035713Y-89954819D01*
X130749999Y-89954819D02*
X130749999Y-88954819D01*
X130749999Y-88954819D02*
X130845237Y-89097676D01*
X130845237Y-89097676D02*
X130940475Y-89192914D01*
X130940475Y-89192914D02*
X131035713Y-89240533D01*
X115876189Y-72954819D02*
X115876189Y-71954819D01*
X114828571Y-72859580D02*
X114876190Y-72907200D01*
X114876190Y-72907200D02*
X115019047Y-72954819D01*
X115019047Y-72954819D02*
X115114285Y-72954819D01*
X115114285Y-72954819D02*
X115257142Y-72907200D01*
X115257142Y-72907200D02*
X115352380Y-72811961D01*
X115352380Y-72811961D02*
X115399999Y-72716723D01*
X115399999Y-72716723D02*
X115447618Y-72526247D01*
X115447618Y-72526247D02*
X115447618Y-72383390D01*
X115447618Y-72383390D02*
X115399999Y-72192914D01*
X115399999Y-72192914D02*
X115352380Y-72097676D01*
X115352380Y-72097676D02*
X115257142Y-72002438D01*
X115257142Y-72002438D02*
X115114285Y-71954819D01*
X115114285Y-71954819D02*
X115019047Y-71954819D01*
X115019047Y-71954819D02*
X114876190Y-72002438D01*
X114876190Y-72002438D02*
X114828571Y-72050057D01*
X113971428Y-72288152D02*
X113971428Y-72954819D01*
X114209523Y-71907200D02*
X114447618Y-72621485D01*
X114447618Y-72621485D02*
X113828571Y-72621485D01*
X116959580Y-66107142D02*
X117007200Y-66059523D01*
X117007200Y-66059523D02*
X117054819Y-65916666D01*
X117054819Y-65916666D02*
X117054819Y-65821428D01*
X117054819Y-65821428D02*
X117007200Y-65678571D01*
X117007200Y-65678571D02*
X116911961Y-65583333D01*
X116911961Y-65583333D02*
X116816723Y-65535714D01*
X116816723Y-65535714D02*
X116626247Y-65488095D01*
X116626247Y-65488095D02*
X116483390Y-65488095D01*
X116483390Y-65488095D02*
X116292914Y-65535714D01*
X116292914Y-65535714D02*
X116197676Y-65583333D01*
X116197676Y-65583333D02*
X116102438Y-65678571D01*
X116102438Y-65678571D02*
X116054819Y-65821428D01*
X116054819Y-65821428D02*
X116054819Y-65916666D01*
X116054819Y-65916666D02*
X116102438Y-66059523D01*
X116102438Y-66059523D02*
X116150057Y-66107142D01*
X117054819Y-67059523D02*
X117054819Y-66488095D01*
X117054819Y-66773809D02*
X116054819Y-66773809D01*
X116054819Y-66773809D02*
X116197676Y-66678571D01*
X116197676Y-66678571D02*
X116292914Y-66583333D01*
X116292914Y-66583333D02*
X116340533Y-66488095D01*
X116150057Y-67440476D02*
X116102438Y-67488095D01*
X116102438Y-67488095D02*
X116054819Y-67583333D01*
X116054819Y-67583333D02*
X116054819Y-67821428D01*
X116054819Y-67821428D02*
X116102438Y-67916666D01*
X116102438Y-67916666D02*
X116150057Y-67964285D01*
X116150057Y-67964285D02*
X116245295Y-68011904D01*
X116245295Y-68011904D02*
X116340533Y-68011904D01*
X116340533Y-68011904D02*
X116483390Y-67964285D01*
X116483390Y-67964285D02*
X117054819Y-67392857D01*
X117054819Y-67392857D02*
X117054819Y-68011904D01*
X107392857Y-58859580D02*
X107440476Y-58907200D01*
X107440476Y-58907200D02*
X107583333Y-58954819D01*
X107583333Y-58954819D02*
X107678571Y-58954819D01*
X107678571Y-58954819D02*
X107821428Y-58907200D01*
X107821428Y-58907200D02*
X107916666Y-58811961D01*
X107916666Y-58811961D02*
X107964285Y-58716723D01*
X107964285Y-58716723D02*
X108011904Y-58526247D01*
X108011904Y-58526247D02*
X108011904Y-58383390D01*
X108011904Y-58383390D02*
X107964285Y-58192914D01*
X107964285Y-58192914D02*
X107916666Y-58097676D01*
X107916666Y-58097676D02*
X107821428Y-58002438D01*
X107821428Y-58002438D02*
X107678571Y-57954819D01*
X107678571Y-57954819D02*
X107583333Y-57954819D01*
X107583333Y-57954819D02*
X107440476Y-58002438D01*
X107440476Y-58002438D02*
X107392857Y-58050057D01*
X107011904Y-58050057D02*
X106964285Y-58002438D01*
X106964285Y-58002438D02*
X106869047Y-57954819D01*
X106869047Y-57954819D02*
X106630952Y-57954819D01*
X106630952Y-57954819D02*
X106535714Y-58002438D01*
X106535714Y-58002438D02*
X106488095Y-58050057D01*
X106488095Y-58050057D02*
X106440476Y-58145295D01*
X106440476Y-58145295D02*
X106440476Y-58240533D01*
X106440476Y-58240533D02*
X106488095Y-58383390D01*
X106488095Y-58383390D02*
X107059523Y-58954819D01*
X107059523Y-58954819D02*
X106440476Y-58954819D01*
X105583333Y-58288152D02*
X105583333Y-58954819D01*
X105821428Y-57907200D02*
X106059523Y-58621485D01*
X106059523Y-58621485D02*
X105440476Y-58621485D01*
X127142857Y-106359580D02*
X127190476Y-106407200D01*
X127190476Y-106407200D02*
X127333333Y-106454819D01*
X127333333Y-106454819D02*
X127428571Y-106454819D01*
X127428571Y-106454819D02*
X127571428Y-106407200D01*
X127571428Y-106407200D02*
X127666666Y-106311961D01*
X127666666Y-106311961D02*
X127714285Y-106216723D01*
X127714285Y-106216723D02*
X127761904Y-106026247D01*
X127761904Y-106026247D02*
X127761904Y-105883390D01*
X127761904Y-105883390D02*
X127714285Y-105692914D01*
X127714285Y-105692914D02*
X127666666Y-105597676D01*
X127666666Y-105597676D02*
X127571428Y-105502438D01*
X127571428Y-105502438D02*
X127428571Y-105454819D01*
X127428571Y-105454819D02*
X127333333Y-105454819D01*
X127333333Y-105454819D02*
X127190476Y-105502438D01*
X127190476Y-105502438D02*
X127142857Y-105550057D01*
X126761904Y-105550057D02*
X126714285Y-105502438D01*
X126714285Y-105502438D02*
X126619047Y-105454819D01*
X126619047Y-105454819D02*
X126380952Y-105454819D01*
X126380952Y-105454819D02*
X126285714Y-105502438D01*
X126285714Y-105502438D02*
X126238095Y-105550057D01*
X126238095Y-105550057D02*
X126190476Y-105645295D01*
X126190476Y-105645295D02*
X126190476Y-105740533D01*
X126190476Y-105740533D02*
X126238095Y-105883390D01*
X126238095Y-105883390D02*
X126809523Y-106454819D01*
X126809523Y-106454819D02*
X126190476Y-106454819D01*
X125857142Y-105454819D02*
X125238095Y-105454819D01*
X125238095Y-105454819D02*
X125571428Y-105835771D01*
X125571428Y-105835771D02*
X125428571Y-105835771D01*
X125428571Y-105835771D02*
X125333333Y-105883390D01*
X125333333Y-105883390D02*
X125285714Y-105931009D01*
X125285714Y-105931009D02*
X125238095Y-106026247D01*
X125238095Y-106026247D02*
X125238095Y-106264342D01*
X125238095Y-106264342D02*
X125285714Y-106359580D01*
X125285714Y-106359580D02*
X125333333Y-106407200D01*
X125333333Y-106407200D02*
X125428571Y-106454819D01*
X125428571Y-106454819D02*
X125714285Y-106454819D01*
X125714285Y-106454819D02*
X125809523Y-106407200D01*
X125809523Y-106407200D02*
X125857142Y-106359580D01*
X107142857Y-64454819D02*
X107476190Y-63978628D01*
X107714285Y-64454819D02*
X107714285Y-63454819D01*
X107714285Y-63454819D02*
X107333333Y-63454819D01*
X107333333Y-63454819D02*
X107238095Y-63502438D01*
X107238095Y-63502438D02*
X107190476Y-63550057D01*
X107190476Y-63550057D02*
X107142857Y-63645295D01*
X107142857Y-63645295D02*
X107142857Y-63788152D01*
X107142857Y-63788152D02*
X107190476Y-63883390D01*
X107190476Y-63883390D02*
X107238095Y-63931009D01*
X107238095Y-63931009D02*
X107333333Y-63978628D01*
X107333333Y-63978628D02*
X107714285Y-63978628D01*
X106761904Y-63550057D02*
X106714285Y-63502438D01*
X106714285Y-63502438D02*
X106619047Y-63454819D01*
X106619047Y-63454819D02*
X106380952Y-63454819D01*
X106380952Y-63454819D02*
X106285714Y-63502438D01*
X106285714Y-63502438D02*
X106238095Y-63550057D01*
X106238095Y-63550057D02*
X106190476Y-63645295D01*
X106190476Y-63645295D02*
X106190476Y-63740533D01*
X106190476Y-63740533D02*
X106238095Y-63883390D01*
X106238095Y-63883390D02*
X106809523Y-64454819D01*
X106809523Y-64454819D02*
X106190476Y-64454819D01*
X105857142Y-63454819D02*
X105190476Y-63454819D01*
X105190476Y-63454819D02*
X105619047Y-64454819D01*
X131742857Y-87059580D02*
X131790476Y-87107200D01*
X131790476Y-87107200D02*
X131933333Y-87154819D01*
X131933333Y-87154819D02*
X132028571Y-87154819D01*
X132028571Y-87154819D02*
X132171428Y-87107200D01*
X132171428Y-87107200D02*
X132266666Y-87011961D01*
X132266666Y-87011961D02*
X132314285Y-86916723D01*
X132314285Y-86916723D02*
X132361904Y-86726247D01*
X132361904Y-86726247D02*
X132361904Y-86583390D01*
X132361904Y-86583390D02*
X132314285Y-86392914D01*
X132314285Y-86392914D02*
X132266666Y-86297676D01*
X132266666Y-86297676D02*
X132171428Y-86202438D01*
X132171428Y-86202438D02*
X132028571Y-86154819D01*
X132028571Y-86154819D02*
X131933333Y-86154819D01*
X131933333Y-86154819D02*
X131790476Y-86202438D01*
X131790476Y-86202438D02*
X131742857Y-86250057D01*
X131361904Y-86250057D02*
X131314285Y-86202438D01*
X131314285Y-86202438D02*
X131219047Y-86154819D01*
X131219047Y-86154819D02*
X130980952Y-86154819D01*
X130980952Y-86154819D02*
X130885714Y-86202438D01*
X130885714Y-86202438D02*
X130838095Y-86250057D01*
X130838095Y-86250057D02*
X130790476Y-86345295D01*
X130790476Y-86345295D02*
X130790476Y-86440533D01*
X130790476Y-86440533D02*
X130838095Y-86583390D01*
X130838095Y-86583390D02*
X131409523Y-87154819D01*
X131409523Y-87154819D02*
X130790476Y-87154819D01*
X130171428Y-86154819D02*
X130076190Y-86154819D01*
X130076190Y-86154819D02*
X129980952Y-86202438D01*
X129980952Y-86202438D02*
X129933333Y-86250057D01*
X129933333Y-86250057D02*
X129885714Y-86345295D01*
X129885714Y-86345295D02*
X129838095Y-86535771D01*
X129838095Y-86535771D02*
X129838095Y-86773866D01*
X129838095Y-86773866D02*
X129885714Y-86964342D01*
X129885714Y-86964342D02*
X129933333Y-87059580D01*
X129933333Y-87059580D02*
X129980952Y-87107200D01*
X129980952Y-87107200D02*
X130076190Y-87154819D01*
X130076190Y-87154819D02*
X130171428Y-87154819D01*
X130171428Y-87154819D02*
X130266666Y-87107200D01*
X130266666Y-87107200D02*
X130314285Y-87059580D01*
X130314285Y-87059580D02*
X130361904Y-86964342D01*
X130361904Y-86964342D02*
X130409523Y-86773866D01*
X130409523Y-86773866D02*
X130409523Y-86535771D01*
X130409523Y-86535771D02*
X130361904Y-86345295D01*
X130361904Y-86345295D02*
X130314285Y-86250057D01*
X130314285Y-86250057D02*
X130266666Y-86202438D01*
X130266666Y-86202438D02*
X130171428Y-86154819D01*
D10*
%TO.C,D3*%
X109400000Y-69000000D02*
X109400000Y-70050000D01*
X112350000Y-70400000D02*
X109450000Y-70400000D01*
X109450000Y-70400000D02*
X109450000Y-70850000D01*
X112350000Y-70850000D02*
X112350000Y-70400000D01*
X109450000Y-70850000D02*
X112350000Y-70850000D01*
D14*
%TO.C,J1*%
X97900000Y-65465000D02*
X104900000Y-65465000D01*
X104900000Y-65465000D02*
X104900000Y-92135000D01*
X104900000Y-92135000D02*
X97900000Y-92135000D01*
X97900000Y-92135000D02*
X97900000Y-65465000D01*
D10*
%TO.C,R10*%
X109300000Y-81610000D02*
X109300000Y-84590000D01*
D14*
%TO.C,R28*%
X107235000Y-61022936D02*
X107235000Y-61477064D01*
X105765000Y-61022936D02*
X105765000Y-61477064D01*
%TO.C,C1*%
X125765000Y-83761252D02*
X125765000Y-83238748D01*
X127235000Y-83761252D02*
X127235000Y-83238748D01*
%TO.C,TP6*%
X123574571Y-77019520D02*
G75*
G03*
X123574571Y-77019520I-700000J0D01*
G01*
D15*
%TO.C,U2*%
X110140000Y-92212500D02*
X110140000Y-86062500D01*
D10*
X110895000Y-84937500D02*
X110895000Y-84937500D01*
X110895000Y-85137500D02*
X110895000Y-85137500D01*
D15*
X115460000Y-92212500D02*
X115460000Y-86062500D01*
D10*
X110895000Y-85137500D02*
G75*
G03*
X110895000Y-84937500I0J100000D01*
G01*
X110895000Y-84937500D02*
G75*
G03*
X110895000Y-85137500I0J-100000D01*
G01*
D14*
%TO.C,TP1*%
X133900000Y-91800000D02*
G75*
G03*
X133900000Y-91800000I-700000J0D01*
G01*
%TO.C,R6*%
X108985000Y-70072936D02*
X108985000Y-70527064D01*
X107515000Y-70072936D02*
X107515000Y-70527064D01*
%TO.C,R21*%
X108985000Y-77272936D02*
X108985000Y-77727064D01*
X107515000Y-77272936D02*
X107515000Y-77727064D01*
%TO.C,R19*%
X105515000Y-74127064D02*
X105515000Y-73672936D01*
X106985000Y-74127064D02*
X106985000Y-73672936D01*
%TO.C,C3*%
X123261252Y-90235000D02*
X122738748Y-90235000D01*
X123261252Y-88765000D02*
X122738748Y-88765000D01*
D10*
%TO.C,L1*%
X120400000Y-64550000D02*
X113100000Y-64550000D01*
X113100000Y-57950000D02*
X120400000Y-57950000D01*
D14*
%TO.C,TP2*%
X130700000Y-74250000D02*
G75*
G03*
X130700000Y-74250000I-700000J0D01*
G01*
%TO.C,C17*%
X118840000Y-90961252D02*
X118840000Y-89538748D01*
X120660000Y-90961252D02*
X120660000Y-89538748D01*
%TO.C,R20*%
X105515000Y-77727064D02*
X105515000Y-77272936D01*
X106985000Y-77727064D02*
X106985000Y-77272936D01*
%TO.C,C5*%
X133988748Y-82515000D02*
X134511252Y-82515000D01*
X133988748Y-83985000D02*
X134511252Y-83985000D01*
%TO.C,C14*%
X101735000Y-62238748D02*
X101735000Y-62761252D01*
X100265000Y-62238748D02*
X100265000Y-62761252D01*
%TO.C,C16*%
X117235000Y-78988748D02*
X117235000Y-79511252D01*
X115765000Y-78988748D02*
X115765000Y-79511252D01*
%TO.C,R2*%
X122772936Y-90765000D02*
X123227064Y-90765000D01*
X122772936Y-92235000D02*
X123227064Y-92235000D01*
%TO.C,R3*%
X126272936Y-90765000D02*
X126727064Y-90765000D01*
X126272936Y-92235000D02*
X126727064Y-92235000D01*
D10*
%TO.C,D12*%
X128325000Y-85400000D02*
X127275000Y-85400000D01*
X126925000Y-88350000D02*
X126925000Y-85450000D01*
X126925000Y-85450000D02*
X126475000Y-85450000D01*
X126475000Y-88350000D02*
X126925000Y-88350000D01*
X126475000Y-85450000D02*
X126475000Y-88350000D01*
%TO.C,D1*%
X109400000Y-65625000D02*
X109400000Y-66675000D01*
X112350000Y-67025000D02*
X109450000Y-67025000D01*
X109450000Y-67025000D02*
X109450000Y-67475000D01*
X112350000Y-67475000D02*
X112350000Y-67025000D01*
X109450000Y-67475000D02*
X112350000Y-67475000D01*
D15*
%TO.C,F1*%
X129105000Y-100365000D02*
X109295000Y-100365000D01*
X129105000Y-93635000D02*
X129105000Y-100365000D01*
X109295000Y-100365000D02*
X109295000Y-93635000D01*
X109295000Y-93635000D02*
X129105000Y-93635000D01*
D14*
%TO.C,R8*%
X105515000Y-66977064D02*
X105515000Y-66522936D01*
X106985000Y-66977064D02*
X106985000Y-66522936D01*
%TO.C,C18*%
X116340000Y-90961252D02*
X116340000Y-89538748D01*
X118160000Y-90961252D02*
X118160000Y-89538748D01*
%TO.C,R22*%
X107515000Y-74127064D02*
X107515000Y-73672936D01*
X108985000Y-74127064D02*
X108985000Y-73672936D01*
%TO.C,J4*%
X132895000Y-64030000D02*
X135555000Y-64030000D01*
X132895000Y-79330000D02*
X132895000Y-64030000D01*
X132895000Y-79330000D02*
X135555000Y-79330000D01*
X134225000Y-81930000D02*
X135555000Y-81930000D01*
X135555000Y-79330000D02*
X135555000Y-64030000D01*
X135555000Y-81930000D02*
X135555000Y-80600000D01*
D10*
%TO.C,IC3*%
X132750000Y-84575000D02*
X132750000Y-85825000D01*
X135710000Y-86175000D02*
X132790000Y-86175000D01*
X132790000Y-86175000D02*
X132790000Y-86325000D01*
X135710000Y-86325000D02*
X135710000Y-86175000D01*
X132790000Y-86325000D02*
X135710000Y-86325000D01*
D14*
%TO.C,R26*%
X120015000Y-78727064D02*
X120015000Y-78272936D01*
X121485000Y-78727064D02*
X121485000Y-78272936D01*
%TO.C,TP9*%
X122700000Y-53750000D02*
G75*
G03*
X122700000Y-53750000I-700000J0D01*
G01*
%TO.C,R23*%
X121485000Y-74772936D02*
X121485000Y-75227064D01*
X120015000Y-74772936D02*
X120015000Y-75227064D01*
%TO.C,R5*%
X107515000Y-66977064D02*
X107515000Y-66522936D01*
X108985000Y-66977064D02*
X108985000Y-66522936D01*
%TO.C,C11*%
X119335000Y-69738748D02*
X119335000Y-70261252D01*
X117865000Y-69738748D02*
X117865000Y-70261252D01*
%TO.C,R18*%
X125272936Y-79565000D02*
X125727064Y-79565000D01*
X125272936Y-81035000D02*
X125727064Y-81035000D01*
%TO.C,TP5*%
X125400000Y-77700000D02*
G75*
G03*
X125400000Y-77700000I-700000J0D01*
G01*
%TO.C,TP7*%
X124950000Y-53750000D02*
G75*
G03*
X124950000Y-53750000I-700000J0D01*
G01*
D10*
%TO.C,IC6*%
X111625000Y-59650000D02*
X110375000Y-59650000D01*
X110025000Y-62700000D02*
X110025000Y-59800000D01*
X110025000Y-59800000D02*
X109475000Y-59800000D01*
X109475000Y-62700000D02*
X110025000Y-62700000D01*
X109475000Y-59800000D02*
X109475000Y-62700000D01*
D15*
%TO.C,D2*%
X120000000Y-86250000D02*
X120000000Y-86250000D01*
X120100000Y-86250000D02*
X120100000Y-86250000D01*
D10*
X122200000Y-85400000D02*
X123000000Y-85400000D01*
X122200000Y-87100000D02*
X123000000Y-87100000D01*
D15*
X120100000Y-86250000D02*
G75*
G03*
X120000000Y-86250000I-50000J0D01*
G01*
X120000000Y-86250000D02*
G75*
G03*
X120100000Y-86250000I50000J0D01*
G01*
D10*
%TO.C,D5*%
X109400000Y-72400000D02*
X109400000Y-73450000D01*
X112350000Y-73800000D02*
X109450000Y-73800000D01*
X109450000Y-73800000D02*
X109450000Y-74250000D01*
X112350000Y-74250000D02*
X112350000Y-73800000D01*
X109450000Y-74250000D02*
X112350000Y-74250000D01*
%TO.C,IC1*%
X123175000Y-81750000D02*
X121750000Y-81750000D01*
D14*
%TO.C,C4*%
X117388748Y-85390000D02*
X118811252Y-85390000D01*
X117388748Y-87210000D02*
X118811252Y-87210000D01*
%TO.C,R24*%
X119485000Y-78272936D02*
X119485000Y-78727064D01*
X118015000Y-78272936D02*
X118015000Y-78727064D01*
%TO.C,IC5*%
X122890000Y-72360000D02*
X123365000Y-72360000D01*
X122890000Y-71885000D02*
X122890000Y-72360000D01*
X128110000Y-71885000D02*
X128110000Y-72360000D01*
X122890000Y-67615000D02*
X122890000Y-67140000D01*
X128110000Y-67615000D02*
X128110000Y-67140000D01*
X122890000Y-67140000D02*
X123365000Y-67140000D01*
X128110000Y-67140000D02*
X127635000Y-67140000D01*
%TO.C,C7*%
X127511252Y-76985000D02*
X126988748Y-76985000D01*
X127511252Y-75515000D02*
X126988748Y-75515000D01*
%TO.C,R9*%
X106985000Y-70072936D02*
X106985000Y-70527064D01*
X105515000Y-70072936D02*
X105515000Y-70527064D01*
%TO.C,C25*%
X122265000Y-61761252D02*
X122265000Y-61238748D01*
X123735000Y-61761252D02*
X123735000Y-61238748D01*
%TO.C,TP8*%
X127200000Y-53750000D02*
G75*
G03*
X127200000Y-53750000I-700000J0D01*
G01*
%TO.C,C21*%
X103985000Y-62238748D02*
X103985000Y-62761252D01*
X102515000Y-62238748D02*
X102515000Y-62761252D01*
%TO.C,R15*%
X127022936Y-77515000D02*
X127477064Y-77515000D01*
X127022936Y-78985000D02*
X127477064Y-78985000D01*
%TO.C,R1*%
X126272936Y-88765000D02*
X126727064Y-88765000D01*
X126272936Y-90235000D02*
X126727064Y-90235000D01*
D16*
%TO.C,IC4*%
X113150000Y-76450000D02*
G75*
G03*
X113150000Y-76450000I-125000J0D01*
G01*
D14*
%TO.C,R25*%
X119485000Y-74772936D02*
X119485000Y-75227064D01*
X118015000Y-74772936D02*
X118015000Y-75227064D01*
%TO.C,C12*%
X117335000Y-69738748D02*
X117335000Y-70261252D01*
X115865000Y-69738748D02*
X115865000Y-70261252D01*
%TO.C,C24*%
X109488748Y-57765000D02*
X110011252Y-57765000D01*
X109488748Y-59235000D02*
X110011252Y-59235000D01*
%TO.C,C2*%
X123765000Y-83761252D02*
X123765000Y-83238748D01*
X125235000Y-83761252D02*
X125235000Y-83238748D01*
D10*
%TO.C,C23*%
X132825000Y-100850000D02*
X121350000Y-100850000D01*
X129075000Y-111150000D02*
X121350000Y-111150000D01*
D14*
%TO.C,R27*%
X109522936Y-63265000D02*
X109977064Y-63265000D01*
X109522936Y-64735000D02*
X109977064Y-64735000D01*
D10*
%TO.C,D6*%
X109400000Y-75850000D02*
X109400000Y-76900000D01*
X112350000Y-77250000D02*
X109450000Y-77250000D01*
X109450000Y-77250000D02*
X109450000Y-77700000D01*
X112350000Y-77700000D02*
X112350000Y-77250000D01*
X109450000Y-77700000D02*
X112350000Y-77700000D01*
D14*
%TO.C,C20*%
X134461252Y-90035000D02*
X133938748Y-90035000D01*
X134461252Y-88565000D02*
X133938748Y-88565000D01*
%TO.C,C15*%
X114985000Y-78988748D02*
X114985000Y-79511252D01*
X113515000Y-78988748D02*
X113515000Y-79511252D01*
D10*
%TO.C,IC2*%
X122350000Y-72900000D02*
X128650000Y-72900000D01*
X128650000Y-72900000D02*
X128650000Y-66600000D01*
X122350000Y-66600000D02*
X122350000Y-72900000D01*
X128650000Y-66600000D02*
X122350000Y-66600000D01*
D17*
X129410000Y-73560000D02*
G75*
G03*
X129410000Y-73560000I-100000J0D01*
G01*
%TD*%
M02*
