%TF.GenerationSoftware,KiCad,Pcbnew,(6.0.10)*%
%TF.CreationDate,2023-05-23T19:13:15+02:00*%
%TF.ProjectId,AxxSolder,41787853-6f6c-4646-9572-2e6b69636164,rev?*%
%TF.SameCoordinates,Original*%
%TF.FileFunction,Legend,Top*%
%TF.FilePolarity,Positive*%
%FSLAX46Y46*%
G04 Gerber Fmt 4.6, Leading zero omitted, Abs format (unit mm)*
G04 Created by KiCad (PCBNEW (6.0.10)) date 2023-05-23 19:13:15*
%MOMM*%
%LPD*%
G01*
G04 APERTURE LIST*
%ADD10C,0.300000*%
%ADD11C,0.150000*%
%ADD12C,0.200000*%
%ADD13C,0.120000*%
%ADD14C,0.100000*%
G04 APERTURE END LIST*
D10*
X104018809Y-49533333D02*
X104828333Y-49533333D01*
X103856904Y-50019047D02*
X104423571Y-48319047D01*
X104990238Y-50019047D01*
X105395000Y-50019047D02*
X106285476Y-48885714D01*
X105395000Y-48885714D02*
X106285476Y-50019047D01*
X106771190Y-50019047D02*
X107661666Y-48885714D01*
X106771190Y-48885714D02*
X107661666Y-50019047D01*
X108228333Y-49938095D02*
X108471190Y-50019047D01*
X108875952Y-50019047D01*
X109037857Y-49938095D01*
X109118809Y-49857142D01*
X109199761Y-49695238D01*
X109199761Y-49533333D01*
X109118809Y-49371428D01*
X109037857Y-49290476D01*
X108875952Y-49209523D01*
X108552142Y-49128571D01*
X108390238Y-49047619D01*
X108309285Y-48966666D01*
X108228333Y-48804761D01*
X108228333Y-48642857D01*
X108309285Y-48480952D01*
X108390238Y-48400000D01*
X108552142Y-48319047D01*
X108956904Y-48319047D01*
X109199761Y-48400000D01*
X110171190Y-50019047D02*
X110009285Y-49938095D01*
X109928333Y-49857142D01*
X109847380Y-49695238D01*
X109847380Y-49209523D01*
X109928333Y-49047619D01*
X110009285Y-48966666D01*
X110171190Y-48885714D01*
X110414047Y-48885714D01*
X110575952Y-48966666D01*
X110656904Y-49047619D01*
X110737857Y-49209523D01*
X110737857Y-49695238D01*
X110656904Y-49857142D01*
X110575952Y-49938095D01*
X110414047Y-50019047D01*
X110171190Y-50019047D01*
X111709285Y-50019047D02*
X111547380Y-49938095D01*
X111466428Y-49776190D01*
X111466428Y-48319047D01*
X113085476Y-50019047D02*
X113085476Y-48319047D01*
X113085476Y-49938095D02*
X112923571Y-50019047D01*
X112599761Y-50019047D01*
X112437857Y-49938095D01*
X112356904Y-49857142D01*
X112275952Y-49695238D01*
X112275952Y-49209523D01*
X112356904Y-49047619D01*
X112437857Y-48966666D01*
X112599761Y-48885714D01*
X112923571Y-48885714D01*
X113085476Y-48966666D01*
X114542619Y-49938095D02*
X114380714Y-50019047D01*
X114056904Y-50019047D01*
X113895000Y-49938095D01*
X113814047Y-49776190D01*
X113814047Y-49128571D01*
X113895000Y-48966666D01*
X114056904Y-48885714D01*
X114380714Y-48885714D01*
X114542619Y-48966666D01*
X114623571Y-49128571D01*
X114623571Y-49290476D01*
X113814047Y-49452380D01*
X115352142Y-50019047D02*
X115352142Y-48885714D01*
X115352142Y-49209523D02*
X115433095Y-49047619D01*
X115514047Y-48966666D01*
X115675952Y-48885714D01*
X115837857Y-48885714D01*
X117456904Y-48319047D02*
X118023571Y-50019047D01*
X118590238Y-48319047D01*
X119075952Y-48480952D02*
X119156904Y-48400000D01*
X119318809Y-48319047D01*
X119723571Y-48319047D01*
X119885476Y-48400000D01*
X119966428Y-48480952D01*
X120047380Y-48642857D01*
X120047380Y-48804761D01*
X119966428Y-49047619D01*
X118995000Y-50019047D01*
X120047380Y-50019047D01*
X120775952Y-49857142D02*
X120856904Y-49938095D01*
X120775952Y-50019047D01*
X120695000Y-49938095D01*
X120775952Y-49857142D01*
X120775952Y-50019047D01*
X121909285Y-48319047D02*
X122071190Y-48319047D01*
X122233095Y-48400000D01*
X122314047Y-48480952D01*
X122395000Y-48642857D01*
X122475952Y-48966666D01*
X122475952Y-49371428D01*
X122395000Y-49695238D01*
X122314047Y-49857142D01*
X122233095Y-49938095D01*
X122071190Y-50019047D01*
X121909285Y-50019047D01*
X121747380Y-49938095D01*
X121666428Y-49857142D01*
X121585476Y-49695238D01*
X121504523Y-49371428D01*
X121504523Y-48966666D01*
X121585476Y-48642857D01*
X121666428Y-48480952D01*
X121747380Y-48400000D01*
X121909285Y-48319047D01*
D11*
X130238095Y-80250000D02*
X130142857Y-80202380D01*
X130000000Y-80202380D01*
X129857142Y-80250000D01*
X129761904Y-80345238D01*
X129714285Y-80440476D01*
X129666666Y-80630952D01*
X129666666Y-80773809D01*
X129714285Y-80964285D01*
X129761904Y-81059523D01*
X129857142Y-81154761D01*
X130000000Y-81202380D01*
X130095238Y-81202380D01*
X130238095Y-81154761D01*
X130285714Y-81107142D01*
X130285714Y-80773809D01*
X130095238Y-80773809D01*
X130714285Y-81202380D02*
X130714285Y-80202380D01*
X131285714Y-81202380D01*
X131285714Y-80202380D01*
X131761904Y-81202380D02*
X131761904Y-80202380D01*
X132000000Y-80202380D01*
X132142857Y-80250000D01*
X132238095Y-80345238D01*
X132285714Y-80440476D01*
X132333333Y-80630952D01*
X132333333Y-80773809D01*
X132285714Y-80964285D01*
X132238095Y-81059523D01*
X132142857Y-81154761D01*
X132000000Y-81202380D01*
X131761904Y-81202380D01*
X106440476Y-78528571D02*
X106583333Y-78576190D01*
X106630952Y-78623809D01*
X106678571Y-78719047D01*
X106678571Y-78861904D01*
X106630952Y-78957142D01*
X106583333Y-79004761D01*
X106488095Y-79052380D01*
X106107142Y-79052380D01*
X106107142Y-78052380D01*
X106440476Y-78052380D01*
X106535714Y-78100000D01*
X106583333Y-78147619D01*
X106630952Y-78242857D01*
X106630952Y-78338095D01*
X106583333Y-78433333D01*
X106535714Y-78480952D01*
X106440476Y-78528571D01*
X106107142Y-78528571D01*
X107583333Y-79052380D02*
X107107142Y-79052380D01*
X107107142Y-78052380D01*
X107916666Y-78052380D02*
X107916666Y-78861904D01*
X107964285Y-78957142D01*
X108011904Y-79004761D01*
X108107142Y-79052380D01*
X108297619Y-79052380D01*
X108392857Y-79004761D01*
X108440476Y-78957142D01*
X108488095Y-78861904D01*
X108488095Y-78052380D01*
X108964285Y-78528571D02*
X109297619Y-78528571D01*
X109440476Y-79052380D02*
X108964285Y-79052380D01*
X108964285Y-78052380D01*
X109440476Y-78052380D01*
X129523809Y-77452380D02*
X130142857Y-77452380D01*
X129809523Y-77833333D01*
X129952380Y-77833333D01*
X130047619Y-77880952D01*
X130095238Y-77928571D01*
X130142857Y-78023809D01*
X130142857Y-78261904D01*
X130095238Y-78357142D01*
X130047619Y-78404761D01*
X129952380Y-78452380D01*
X129666666Y-78452380D01*
X129571428Y-78404761D01*
X129523809Y-78357142D01*
X130571428Y-78357142D02*
X130619047Y-78404761D01*
X130571428Y-78452380D01*
X130523809Y-78404761D01*
X130571428Y-78357142D01*
X130571428Y-78452380D01*
X130952380Y-77452380D02*
X131571428Y-77452380D01*
X131238095Y-77833333D01*
X131380952Y-77833333D01*
X131476190Y-77880952D01*
X131523809Y-77928571D01*
X131571428Y-78023809D01*
X131571428Y-78261904D01*
X131523809Y-78357142D01*
X131476190Y-78404761D01*
X131380952Y-78452380D01*
X131095238Y-78452380D01*
X131000000Y-78404761D01*
X130952380Y-78357142D01*
X131857142Y-77452380D02*
X132190476Y-78452380D01*
X132523809Y-77452380D01*
X103830952Y-67604761D02*
X103973809Y-67652380D01*
X104211904Y-67652380D01*
X104307142Y-67604761D01*
X104354761Y-67557142D01*
X104402380Y-67461904D01*
X104402380Y-67366666D01*
X104354761Y-67271428D01*
X104307142Y-67223809D01*
X104211904Y-67176190D01*
X104021428Y-67128571D01*
X103926190Y-67080952D01*
X103878571Y-67033333D01*
X103830952Y-66938095D01*
X103830952Y-66842857D01*
X103878571Y-66747619D01*
X103926190Y-66700000D01*
X104021428Y-66652380D01*
X104259523Y-66652380D01*
X104402380Y-66700000D01*
X104688095Y-66652380D02*
X105259523Y-66652380D01*
X104973809Y-67652380D02*
X104973809Y-66652380D01*
X105545238Y-67366666D02*
X106021428Y-67366666D01*
X105450000Y-67652380D02*
X105783333Y-66652380D01*
X106116666Y-67652380D01*
X106450000Y-67652380D02*
X106450000Y-66652380D01*
X107021428Y-67652380D01*
X107021428Y-66652380D01*
X107497619Y-67652380D02*
X107497619Y-66652380D01*
X107735714Y-66652380D01*
X107878571Y-66700000D01*
X107973809Y-66795238D01*
X108021428Y-66890476D01*
X108069047Y-67080952D01*
X108069047Y-67223809D01*
X108021428Y-67414285D01*
X107973809Y-67509523D01*
X107878571Y-67604761D01*
X107735714Y-67652380D01*
X107497619Y-67652380D01*
X116523809Y-66202380D02*
X117142857Y-66202380D01*
X116809523Y-66583333D01*
X116952380Y-66583333D01*
X117047619Y-66630952D01*
X117095238Y-66678571D01*
X117142857Y-66773809D01*
X117142857Y-67011904D01*
X117095238Y-67107142D01*
X117047619Y-67154761D01*
X116952380Y-67202380D01*
X116666666Y-67202380D01*
X116571428Y-67154761D01*
X116523809Y-67107142D01*
X117571428Y-67107142D02*
X117619047Y-67154761D01*
X117571428Y-67202380D01*
X117523809Y-67154761D01*
X117571428Y-67107142D01*
X117571428Y-67202380D01*
X117952380Y-66202380D02*
X118571428Y-66202380D01*
X118238095Y-66583333D01*
X118380952Y-66583333D01*
X118476190Y-66630952D01*
X118523809Y-66678571D01*
X118571428Y-66773809D01*
X118571428Y-67011904D01*
X118523809Y-67107142D01*
X118476190Y-67154761D01*
X118380952Y-67202380D01*
X118095238Y-67202380D01*
X118000000Y-67154761D01*
X117952380Y-67107142D01*
X118857142Y-66202380D02*
X119190476Y-67202380D01*
X119523809Y-66202380D01*
X127988095Y-73404761D02*
X128130952Y-73452380D01*
X128369047Y-73452380D01*
X128464285Y-73404761D01*
X128511904Y-73357142D01*
X128559523Y-73261904D01*
X128559523Y-73166666D01*
X128511904Y-73071428D01*
X128464285Y-73023809D01*
X128369047Y-72976190D01*
X128178571Y-72928571D01*
X128083333Y-72880952D01*
X128035714Y-72833333D01*
X127988095Y-72738095D01*
X127988095Y-72642857D01*
X128035714Y-72547619D01*
X128083333Y-72500000D01*
X128178571Y-72452380D01*
X128416666Y-72452380D01*
X128559523Y-72500000D01*
X128892857Y-72452380D02*
X129130952Y-73452380D01*
X129321428Y-72738095D01*
X129511904Y-73452380D01*
X129750000Y-72452380D01*
X130702380Y-73357142D02*
X130654761Y-73404761D01*
X130511904Y-73452380D01*
X130416666Y-73452380D01*
X130273809Y-73404761D01*
X130178571Y-73309523D01*
X130130952Y-73214285D01*
X130083333Y-73023809D01*
X130083333Y-72880952D01*
X130130952Y-72690476D01*
X130178571Y-72595238D01*
X130273809Y-72500000D01*
X130416666Y-72452380D01*
X130511904Y-72452380D01*
X130654761Y-72500000D01*
X130702380Y-72547619D01*
X131607142Y-73452380D02*
X131130952Y-73452380D01*
X131130952Y-72452380D01*
X131940476Y-73452380D02*
X131940476Y-72452380D01*
X132511904Y-73452380D02*
X132083333Y-72880952D01*
X132511904Y-72452380D02*
X131940476Y-73023809D01*
X104333333Y-74250000D02*
X104238095Y-74202380D01*
X104095238Y-74202380D01*
X103952380Y-74250000D01*
X103857142Y-74345238D01*
X103809523Y-74440476D01*
X103761904Y-74630952D01*
X103761904Y-74773809D01*
X103809523Y-74964285D01*
X103857142Y-75059523D01*
X103952380Y-75154761D01*
X104095238Y-75202380D01*
X104190476Y-75202380D01*
X104333333Y-75154761D01*
X104380952Y-75107142D01*
X104380952Y-74773809D01*
X104190476Y-74773809D01*
X105380952Y-75202380D02*
X105047619Y-74726190D01*
X104809523Y-75202380D02*
X104809523Y-74202380D01*
X105190476Y-74202380D01*
X105285714Y-74250000D01*
X105333333Y-74297619D01*
X105380952Y-74392857D01*
X105380952Y-74535714D01*
X105333333Y-74630952D01*
X105285714Y-74678571D01*
X105190476Y-74726190D01*
X104809523Y-74726190D01*
X105809523Y-74678571D02*
X106142857Y-74678571D01*
X106285714Y-75202380D02*
X105809523Y-75202380D01*
X105809523Y-74202380D01*
X106285714Y-74202380D01*
X106714285Y-74678571D02*
X107047619Y-74678571D01*
X107190476Y-75202380D02*
X106714285Y-75202380D01*
X106714285Y-74202380D01*
X107190476Y-74202380D01*
X107619047Y-75202380D02*
X107619047Y-74202380D01*
X108190476Y-75202380D01*
X108190476Y-74202380D01*
X106757142Y-82952380D02*
X106423809Y-82476190D01*
X106185714Y-82952380D02*
X106185714Y-81952380D01*
X106566666Y-81952380D01*
X106661904Y-82000000D01*
X106709523Y-82047619D01*
X106757142Y-82142857D01*
X106757142Y-82285714D01*
X106709523Y-82380952D01*
X106661904Y-82428571D01*
X106566666Y-82476190D01*
X106185714Y-82476190D01*
X107185714Y-82428571D02*
X107519047Y-82428571D01*
X107661904Y-82952380D02*
X107185714Y-82952380D01*
X107185714Y-81952380D01*
X107661904Y-81952380D01*
X108090476Y-82952380D02*
X108090476Y-81952380D01*
X108328571Y-81952380D01*
X108471428Y-82000000D01*
X108566666Y-82095238D01*
X108614285Y-82190476D01*
X108661904Y-82380952D01*
X108661904Y-82523809D01*
X108614285Y-82714285D01*
X108566666Y-82809523D01*
X108471428Y-82904761D01*
X108328571Y-82952380D01*
X108090476Y-82952380D01*
X103988095Y-85700000D02*
X103892857Y-85652380D01*
X103750000Y-85652380D01*
X103607142Y-85700000D01*
X103511904Y-85795238D01*
X103464285Y-85890476D01*
X103416666Y-86080952D01*
X103416666Y-86223809D01*
X103464285Y-86414285D01*
X103511904Y-86509523D01*
X103607142Y-86604761D01*
X103750000Y-86652380D01*
X103845238Y-86652380D01*
X103988095Y-86604761D01*
X104035714Y-86557142D01*
X104035714Y-86223809D01*
X103845238Y-86223809D01*
X104464285Y-86652380D02*
X104464285Y-85652380D01*
X105035714Y-86652380D01*
X105035714Y-85652380D01*
X105511904Y-86652380D02*
X105511904Y-85652380D01*
X105750000Y-85652380D01*
X105892857Y-85700000D01*
X105988095Y-85795238D01*
X106035714Y-85890476D01*
X106083333Y-86080952D01*
X106083333Y-86223809D01*
X106035714Y-86414285D01*
X105988095Y-86509523D01*
X105892857Y-86604761D01*
X105750000Y-86652380D01*
X105511904Y-86652380D01*
X103604761Y-87702380D02*
X103938095Y-88702380D01*
X104271428Y-87702380D01*
X104604761Y-88702380D02*
X104604761Y-87702380D01*
X105080952Y-88702380D02*
X105080952Y-87702380D01*
X105652380Y-88702380D01*
X105652380Y-87702380D01*
X131583333Y-65702380D02*
X131250000Y-65226190D01*
X131011904Y-65702380D02*
X131011904Y-64702380D01*
X131392857Y-64702380D01*
X131488095Y-64750000D01*
X131535714Y-64797619D01*
X131583333Y-64892857D01*
X131583333Y-65035714D01*
X131535714Y-65130952D01*
X131488095Y-65178571D01*
X131392857Y-65226190D01*
X131011904Y-65226190D01*
X131916666Y-64702380D02*
X132583333Y-65702380D01*
X132583333Y-64702380D02*
X131916666Y-65702380D01*
X128380952Y-70904761D02*
X128523809Y-70952380D01*
X128761904Y-70952380D01*
X128857142Y-70904761D01*
X128904761Y-70857142D01*
X128952380Y-70761904D01*
X128952380Y-70666666D01*
X128904761Y-70571428D01*
X128857142Y-70523809D01*
X128761904Y-70476190D01*
X128571428Y-70428571D01*
X128476190Y-70380952D01*
X128428571Y-70333333D01*
X128380952Y-70238095D01*
X128380952Y-70142857D01*
X128428571Y-70047619D01*
X128476190Y-70000000D01*
X128571428Y-69952380D01*
X128809523Y-69952380D01*
X128952380Y-70000000D01*
X129285714Y-69952380D02*
X129523809Y-70952380D01*
X129714285Y-70238095D01*
X129904761Y-70952380D01*
X130142857Y-69952380D01*
X130523809Y-70952380D02*
X130523809Y-69952380D01*
X130761904Y-69952380D01*
X130904761Y-70000000D01*
X131000000Y-70095238D01*
X131047619Y-70190476D01*
X131095238Y-70380952D01*
X131095238Y-70523809D01*
X131047619Y-70714285D01*
X131000000Y-70809523D01*
X130904761Y-70904761D01*
X130761904Y-70952380D01*
X130523809Y-70952380D01*
X131523809Y-70952380D02*
X131523809Y-69952380D01*
X132190476Y-69952380D02*
X132380952Y-69952380D01*
X132476190Y-70000000D01*
X132571428Y-70095238D01*
X132619047Y-70285714D01*
X132619047Y-70619047D01*
X132571428Y-70809523D01*
X132476190Y-70904761D01*
X132380952Y-70952380D01*
X132190476Y-70952380D01*
X132095238Y-70904761D01*
X132000000Y-70809523D01*
X131952380Y-70619047D01*
X131952380Y-70285714D01*
X132000000Y-70095238D01*
X132095238Y-70000000D01*
X132190476Y-69952380D01*
X130702380Y-75952380D02*
X130369047Y-75476190D01*
X130130952Y-75952380D02*
X130130952Y-74952380D01*
X130511904Y-74952380D01*
X130607142Y-75000000D01*
X130654761Y-75047619D01*
X130702380Y-75142857D01*
X130702380Y-75285714D01*
X130654761Y-75380952D01*
X130607142Y-75428571D01*
X130511904Y-75476190D01*
X130130952Y-75476190D01*
X131083333Y-75904761D02*
X131226190Y-75952380D01*
X131464285Y-75952380D01*
X131559523Y-75904761D01*
X131607142Y-75857142D01*
X131654761Y-75761904D01*
X131654761Y-75666666D01*
X131607142Y-75571428D01*
X131559523Y-75523809D01*
X131464285Y-75476190D01*
X131273809Y-75428571D01*
X131178571Y-75380952D01*
X131130952Y-75333333D01*
X131083333Y-75238095D01*
X131083333Y-75142857D01*
X131130952Y-75047619D01*
X131178571Y-75000000D01*
X131273809Y-74952380D01*
X131511904Y-74952380D01*
X131654761Y-75000000D01*
X131940476Y-74952380D02*
X132511904Y-74952380D01*
X132226190Y-75952380D02*
X132226190Y-74952380D01*
D12*
X103987142Y-52428571D02*
X103987142Y-50928571D01*
X104701428Y-51428571D02*
X104701428Y-52428571D01*
X104701428Y-51571428D02*
X104772857Y-51500000D01*
X104915714Y-51428571D01*
X105130000Y-51428571D01*
X105272857Y-51500000D01*
X105344285Y-51642857D01*
X105344285Y-52428571D01*
X106058571Y-51428571D02*
X106058571Y-52928571D01*
X106058571Y-51500000D02*
X106201428Y-51428571D01*
X106487142Y-51428571D01*
X106630000Y-51500000D01*
X106701428Y-51571428D01*
X106772857Y-51714285D01*
X106772857Y-52142857D01*
X106701428Y-52285714D01*
X106630000Y-52357142D01*
X106487142Y-52428571D01*
X106201428Y-52428571D01*
X106058571Y-52357142D01*
X108058571Y-51428571D02*
X108058571Y-52428571D01*
X107415714Y-51428571D02*
X107415714Y-52214285D01*
X107487142Y-52357142D01*
X107630000Y-52428571D01*
X107844285Y-52428571D01*
X107987142Y-52357142D01*
X108058571Y-52285714D01*
X108558571Y-51428571D02*
X109130000Y-51428571D01*
X108772857Y-50928571D02*
X108772857Y-52214285D01*
X108844285Y-52357142D01*
X108987142Y-52428571D01*
X109130000Y-52428571D01*
X109630000Y-52285714D02*
X109701428Y-52357142D01*
X109630000Y-52428571D01*
X109558571Y-52357142D01*
X109630000Y-52285714D01*
X109630000Y-52428571D01*
X109630000Y-51500000D02*
X109701428Y-51571428D01*
X109630000Y-51642857D01*
X109558571Y-51571428D01*
X109630000Y-51500000D01*
X109630000Y-51642857D01*
X111558571Y-52428571D02*
X111844285Y-52428571D01*
X111987142Y-52357142D01*
X112058571Y-52285714D01*
X112201428Y-52071428D01*
X112272857Y-51785714D01*
X112272857Y-51214285D01*
X112201428Y-51071428D01*
X112130000Y-51000000D01*
X111987142Y-50928571D01*
X111701428Y-50928571D01*
X111558571Y-51000000D01*
X111487142Y-51071428D01*
X111415714Y-51214285D01*
X111415714Y-51571428D01*
X111487142Y-51714285D01*
X111558571Y-51785714D01*
X111701428Y-51857142D01*
X111987142Y-51857142D01*
X112130000Y-51785714D01*
X112201428Y-51714285D01*
X112272857Y-51571428D01*
X112915714Y-51857142D02*
X114058571Y-51857142D01*
X114701428Y-51071428D02*
X114772857Y-51000000D01*
X114915714Y-50928571D01*
X115272857Y-50928571D01*
X115415714Y-51000000D01*
X115487142Y-51071428D01*
X115558571Y-51214285D01*
X115558571Y-51357142D01*
X115487142Y-51571428D01*
X114630000Y-52428571D01*
X115558571Y-52428571D01*
X116844285Y-50928571D02*
X116558571Y-50928571D01*
X116415714Y-51000000D01*
X116344285Y-51071428D01*
X116201428Y-51285714D01*
X116130000Y-51571428D01*
X116130000Y-52142857D01*
X116201428Y-52285714D01*
X116272857Y-52357142D01*
X116415714Y-52428571D01*
X116701428Y-52428571D01*
X116844285Y-52357142D01*
X116915714Y-52285714D01*
X116987142Y-52142857D01*
X116987142Y-51785714D01*
X116915714Y-51642857D01*
X116844285Y-51571428D01*
X116701428Y-51500000D01*
X116415714Y-51500000D01*
X116272857Y-51571428D01*
X116201428Y-51642857D01*
X116130000Y-51785714D01*
X118558571Y-50928571D02*
X119058571Y-52428571D01*
X119558571Y-50928571D01*
D11*
X130988095Y-67452380D02*
X131559523Y-67452380D01*
X131273809Y-68452380D02*
X131273809Y-67452380D01*
X131797619Y-67452380D02*
X132464285Y-68452380D01*
X132464285Y-67452380D02*
X131797619Y-68452380D01*
X113738095Y-66250000D02*
X113642857Y-66202380D01*
X113500000Y-66202380D01*
X113357142Y-66250000D01*
X113261904Y-66345238D01*
X113214285Y-66440476D01*
X113166666Y-66630952D01*
X113166666Y-66773809D01*
X113214285Y-66964285D01*
X113261904Y-67059523D01*
X113357142Y-67154761D01*
X113500000Y-67202380D01*
X113595238Y-67202380D01*
X113738095Y-67154761D01*
X113785714Y-67107142D01*
X113785714Y-66773809D01*
X113595238Y-66773809D01*
X114214285Y-67202380D02*
X114214285Y-66202380D01*
X114785714Y-67202380D01*
X114785714Y-66202380D01*
X115261904Y-67202380D02*
X115261904Y-66202380D01*
X115500000Y-66202380D01*
X115642857Y-66250000D01*
X115738095Y-66345238D01*
X115785714Y-66440476D01*
X115833333Y-66630952D01*
X115833333Y-66773809D01*
X115785714Y-66964285D01*
X115738095Y-67059523D01*
X115642857Y-67154761D01*
X115500000Y-67202380D01*
X115261904Y-67202380D01*
X120809523Y-66202380D02*
X120333333Y-66202380D01*
X120285714Y-66678571D01*
X120333333Y-66630952D01*
X120428571Y-66583333D01*
X120666666Y-66583333D01*
X120761904Y-66630952D01*
X120809523Y-66678571D01*
X120857142Y-66773809D01*
X120857142Y-67011904D01*
X120809523Y-67107142D01*
X120761904Y-67154761D01*
X120666666Y-67202380D01*
X120428571Y-67202380D01*
X120333333Y-67154761D01*
X120285714Y-67107142D01*
X121142857Y-66202380D02*
X121476190Y-67202380D01*
X121809523Y-66202380D01*
X103854761Y-71402380D02*
X103854761Y-70402380D01*
X103854761Y-70878571D02*
X104426190Y-70878571D01*
X104426190Y-71402380D02*
X104426190Y-70402380D01*
X104854761Y-71116666D02*
X105330952Y-71116666D01*
X104759523Y-71402380D02*
X105092857Y-70402380D01*
X105426190Y-71402380D01*
X105759523Y-71402380D02*
X105759523Y-70402380D01*
X106330952Y-71402380D01*
X106330952Y-70402380D01*
X106807142Y-71402380D02*
X106807142Y-70402380D01*
X107045238Y-70402380D01*
X107188095Y-70450000D01*
X107283333Y-70545238D01*
X107330952Y-70640476D01*
X107378571Y-70830952D01*
X107378571Y-70973809D01*
X107330952Y-71164285D01*
X107283333Y-71259523D01*
X107188095Y-71354761D01*
X107045238Y-71402380D01*
X106807142Y-71402380D01*
X108283333Y-71402380D02*
X107807142Y-71402380D01*
X107807142Y-70402380D01*
X108616666Y-70878571D02*
X108950000Y-70878571D01*
X109092857Y-71402380D02*
X108616666Y-71402380D01*
X108616666Y-70402380D01*
X109092857Y-70402380D01*
%TO.C,C9*%
X120833333Y-93857142D02*
X120785714Y-93904761D01*
X120642857Y-93952380D01*
X120547619Y-93952380D01*
X120404761Y-93904761D01*
X120309523Y-93809523D01*
X120261904Y-93714285D01*
X120214285Y-93523809D01*
X120214285Y-93380952D01*
X120261904Y-93190476D01*
X120309523Y-93095238D01*
X120404761Y-93000000D01*
X120547619Y-92952380D01*
X120642857Y-92952380D01*
X120785714Y-93000000D01*
X120833333Y-93047619D01*
X121309523Y-93952380D02*
X121500000Y-93952380D01*
X121595238Y-93904761D01*
X121642857Y-93857142D01*
X121738095Y-93714285D01*
X121785714Y-93523809D01*
X121785714Y-93142857D01*
X121738095Y-93047619D01*
X121690476Y-93000000D01*
X121595238Y-92952380D01*
X121404761Y-92952380D01*
X121309523Y-93000000D01*
X121261904Y-93047619D01*
X121214285Y-93142857D01*
X121214285Y-93380952D01*
X121261904Y-93476190D01*
X121309523Y-93523809D01*
X121404761Y-93571428D01*
X121595238Y-93571428D01*
X121690476Y-93523809D01*
X121738095Y-93476190D01*
X121785714Y-93380952D01*
%TO.C,C10*%
X117357142Y-93857142D02*
X117309523Y-93904761D01*
X117166666Y-93952380D01*
X117071428Y-93952380D01*
X116928571Y-93904761D01*
X116833333Y-93809523D01*
X116785714Y-93714285D01*
X116738095Y-93523809D01*
X116738095Y-93380952D01*
X116785714Y-93190476D01*
X116833333Y-93095238D01*
X116928571Y-93000000D01*
X117071428Y-92952380D01*
X117166666Y-92952380D01*
X117309523Y-93000000D01*
X117357142Y-93047619D01*
X118309523Y-93952380D02*
X117738095Y-93952380D01*
X118023809Y-93952380D02*
X118023809Y-92952380D01*
X117928571Y-93095238D01*
X117833333Y-93190476D01*
X117738095Y-93238095D01*
X118928571Y-92952380D02*
X119023809Y-92952380D01*
X119119047Y-93000000D01*
X119166666Y-93047619D01*
X119214285Y-93142857D01*
X119261904Y-93333333D01*
X119261904Y-93571428D01*
X119214285Y-93761904D01*
X119166666Y-93857142D01*
X119119047Y-93904761D01*
X119023809Y-93952380D01*
X118928571Y-93952380D01*
X118833333Y-93904761D01*
X118785714Y-93857142D01*
X118738095Y-93761904D01*
X118690476Y-93571428D01*
X118690476Y-93333333D01*
X118738095Y-93142857D01*
X118785714Y-93047619D01*
X118833333Y-93000000D01*
X118928571Y-92952380D01*
%TO.C,C13*%
X123357142Y-65142857D02*
X123404761Y-65190476D01*
X123452380Y-65333333D01*
X123452380Y-65428571D01*
X123404761Y-65571428D01*
X123309523Y-65666666D01*
X123214285Y-65714285D01*
X123023809Y-65761904D01*
X122880952Y-65761904D01*
X122690476Y-65714285D01*
X122595238Y-65666666D01*
X122500000Y-65571428D01*
X122452380Y-65428571D01*
X122452380Y-65333333D01*
X122500000Y-65190476D01*
X122547619Y-65142857D01*
X123452380Y-64190476D02*
X123452380Y-64761904D01*
X123452380Y-64476190D02*
X122452380Y-64476190D01*
X122595238Y-64571428D01*
X122690476Y-64666666D01*
X122738095Y-64761904D01*
X122452380Y-63857142D02*
X122452380Y-63238095D01*
X122833333Y-63571428D01*
X122833333Y-63428571D01*
X122880952Y-63333333D01*
X122928571Y-63285714D01*
X123023809Y-63238095D01*
X123261904Y-63238095D01*
X123357142Y-63285714D01*
X123404761Y-63333333D01*
X123452380Y-63428571D01*
X123452380Y-63714285D01*
X123404761Y-63809523D01*
X123357142Y-63857142D01*
%TO.C,R12*%
X117357142Y-90952380D02*
X117023809Y-90476190D01*
X116785714Y-90952380D02*
X116785714Y-89952380D01*
X117166666Y-89952380D01*
X117261904Y-90000000D01*
X117309523Y-90047619D01*
X117357142Y-90142857D01*
X117357142Y-90285714D01*
X117309523Y-90380952D01*
X117261904Y-90428571D01*
X117166666Y-90476190D01*
X116785714Y-90476190D01*
X118309523Y-90952380D02*
X117738095Y-90952380D01*
X118023809Y-90952380D02*
X118023809Y-89952380D01*
X117928571Y-90095238D01*
X117833333Y-90190476D01*
X117738095Y-90238095D01*
X118690476Y-90047619D02*
X118738095Y-90000000D01*
X118833333Y-89952380D01*
X119071428Y-89952380D01*
X119166666Y-90000000D01*
X119214285Y-90047619D01*
X119261904Y-90142857D01*
X119261904Y-90238095D01*
X119214285Y-90380952D01*
X118642857Y-90952380D01*
X119261904Y-90952380D01*
%TO.C,C6*%
X125357142Y-64166666D02*
X125404761Y-64214285D01*
X125452380Y-64357142D01*
X125452380Y-64452380D01*
X125404761Y-64595238D01*
X125309523Y-64690476D01*
X125214285Y-64738095D01*
X125023809Y-64785714D01*
X124880952Y-64785714D01*
X124690476Y-64738095D01*
X124595238Y-64690476D01*
X124500000Y-64595238D01*
X124452380Y-64452380D01*
X124452380Y-64357142D01*
X124500000Y-64214285D01*
X124547619Y-64166666D01*
X124452380Y-63309523D02*
X124452380Y-63500000D01*
X124500000Y-63595238D01*
X124547619Y-63642857D01*
X124690476Y-63738095D01*
X124880952Y-63785714D01*
X125261904Y-63785714D01*
X125357142Y-63738095D01*
X125404761Y-63690476D01*
X125452380Y-63595238D01*
X125452380Y-63404761D01*
X125404761Y-63309523D01*
X125357142Y-63261904D01*
X125261904Y-63214285D01*
X125023809Y-63214285D01*
X124928571Y-63261904D01*
X124880952Y-63309523D01*
X124833333Y-63404761D01*
X124833333Y-63595238D01*
X124880952Y-63690476D01*
X124928571Y-63738095D01*
X125023809Y-63785714D01*
%TO.C,Q2*%
X120904761Y-97047619D02*
X120809523Y-97000000D01*
X120714285Y-96904761D01*
X120571428Y-96761904D01*
X120476190Y-96714285D01*
X120380952Y-96714285D01*
X120428571Y-96952380D02*
X120333333Y-96904761D01*
X120238095Y-96809523D01*
X120190476Y-96619047D01*
X120190476Y-96285714D01*
X120238095Y-96095238D01*
X120333333Y-96000000D01*
X120428571Y-95952380D01*
X120619047Y-95952380D01*
X120714285Y-96000000D01*
X120809523Y-96095238D01*
X120857142Y-96285714D01*
X120857142Y-96619047D01*
X120809523Y-96809523D01*
X120714285Y-96904761D01*
X120619047Y-96952380D01*
X120428571Y-96952380D01*
X121238095Y-96047619D02*
X121285714Y-96000000D01*
X121380952Y-95952380D01*
X121619047Y-95952380D01*
X121714285Y-96000000D01*
X121761904Y-96047619D01*
X121809523Y-96142857D01*
X121809523Y-96238095D01*
X121761904Y-96380952D01*
X121190476Y-96952380D01*
X121809523Y-96952380D01*
%TO.C,R16*%
X120857142Y-95452380D02*
X120523809Y-94976190D01*
X120285714Y-95452380D02*
X120285714Y-94452380D01*
X120666666Y-94452380D01*
X120761904Y-94500000D01*
X120809523Y-94547619D01*
X120857142Y-94642857D01*
X120857142Y-94785714D01*
X120809523Y-94880952D01*
X120761904Y-94928571D01*
X120666666Y-94976190D01*
X120285714Y-94976190D01*
X121809523Y-95452380D02*
X121238095Y-95452380D01*
X121523809Y-95452380D02*
X121523809Y-94452380D01*
X121428571Y-94595238D01*
X121333333Y-94690476D01*
X121238095Y-94738095D01*
X122666666Y-94452380D02*
X122476190Y-94452380D01*
X122380952Y-94500000D01*
X122333333Y-94547619D01*
X122238095Y-94690476D01*
X122190476Y-94880952D01*
X122190476Y-95261904D01*
X122238095Y-95357142D01*
X122285714Y-95404761D01*
X122380952Y-95452380D01*
X122571428Y-95452380D01*
X122666666Y-95404761D01*
X122714285Y-95357142D01*
X122761904Y-95261904D01*
X122761904Y-95023809D01*
X122714285Y-94928571D01*
X122666666Y-94880952D01*
X122571428Y-94833333D01*
X122380952Y-94833333D01*
X122285714Y-94880952D01*
X122238095Y-94928571D01*
X122190476Y-95023809D01*
%TO.C,D8*%
X106761904Y-93952380D02*
X106761904Y-92952380D01*
X107000000Y-92952380D01*
X107142857Y-93000000D01*
X107238095Y-93095238D01*
X107285714Y-93190476D01*
X107333333Y-93380952D01*
X107333333Y-93523809D01*
X107285714Y-93714285D01*
X107238095Y-93809523D01*
X107142857Y-93904761D01*
X107000000Y-93952380D01*
X106761904Y-93952380D01*
X107904761Y-93380952D02*
X107809523Y-93333333D01*
X107761904Y-93285714D01*
X107714285Y-93190476D01*
X107714285Y-93142857D01*
X107761904Y-93047619D01*
X107809523Y-93000000D01*
X107904761Y-92952380D01*
X108095238Y-92952380D01*
X108190476Y-93000000D01*
X108238095Y-93047619D01*
X108285714Y-93142857D01*
X108285714Y-93190476D01*
X108238095Y-93285714D01*
X108190476Y-93333333D01*
X108095238Y-93380952D01*
X107904761Y-93380952D01*
X107809523Y-93428571D01*
X107761904Y-93476190D01*
X107714285Y-93571428D01*
X107714285Y-93761904D01*
X107761904Y-93857142D01*
X107809523Y-93904761D01*
X107904761Y-93952380D01*
X108095238Y-93952380D01*
X108190476Y-93904761D01*
X108238095Y-93857142D01*
X108285714Y-93761904D01*
X108285714Y-93571428D01*
X108238095Y-93476190D01*
X108190476Y-93428571D01*
X108095238Y-93380952D01*
%TO.C,R14*%
X117357142Y-96952380D02*
X117023809Y-96476190D01*
X116785714Y-96952380D02*
X116785714Y-95952380D01*
X117166666Y-95952380D01*
X117261904Y-96000000D01*
X117309523Y-96047619D01*
X117357142Y-96142857D01*
X117357142Y-96285714D01*
X117309523Y-96380952D01*
X117261904Y-96428571D01*
X117166666Y-96476190D01*
X116785714Y-96476190D01*
X118309523Y-96952380D02*
X117738095Y-96952380D01*
X118023809Y-96952380D02*
X118023809Y-95952380D01*
X117928571Y-96095238D01*
X117833333Y-96190476D01*
X117738095Y-96238095D01*
X119166666Y-96285714D02*
X119166666Y-96952380D01*
X118928571Y-95904761D02*
X118690476Y-96619047D01*
X119309523Y-96619047D01*
%TO.C,R11*%
X117357142Y-98452380D02*
X117023809Y-97976190D01*
X116785714Y-98452380D02*
X116785714Y-97452380D01*
X117166666Y-97452380D01*
X117261904Y-97500000D01*
X117309523Y-97547619D01*
X117357142Y-97642857D01*
X117357142Y-97785714D01*
X117309523Y-97880952D01*
X117261904Y-97928571D01*
X117166666Y-97976190D01*
X116785714Y-97976190D01*
X118309523Y-98452380D02*
X117738095Y-98452380D01*
X118023809Y-98452380D02*
X118023809Y-97452380D01*
X117928571Y-97595238D01*
X117833333Y-97690476D01*
X117738095Y-97738095D01*
X119261904Y-98452380D02*
X118690476Y-98452380D01*
X118976190Y-98452380D02*
X118976190Y-97452380D01*
X118880952Y-97595238D01*
X118785714Y-97690476D01*
X118690476Y-97738095D01*
%TO.C,LS1*%
X128107142Y-107202380D02*
X127630952Y-107202380D01*
X127630952Y-106202380D01*
X128392857Y-107154761D02*
X128535714Y-107202380D01*
X128773809Y-107202380D01*
X128869047Y-107154761D01*
X128916666Y-107107142D01*
X128964285Y-107011904D01*
X128964285Y-106916666D01*
X128916666Y-106821428D01*
X128869047Y-106773809D01*
X128773809Y-106726190D01*
X128583333Y-106678571D01*
X128488095Y-106630952D01*
X128440476Y-106583333D01*
X128392857Y-106488095D01*
X128392857Y-106392857D01*
X128440476Y-106297619D01*
X128488095Y-106250000D01*
X128583333Y-106202380D01*
X128821428Y-106202380D01*
X128964285Y-106250000D01*
X129916666Y-107202380D02*
X129345238Y-107202380D01*
X129630952Y-107202380D02*
X129630952Y-106202380D01*
X129535714Y-106345238D01*
X129440476Y-106440476D01*
X129345238Y-106488095D01*
%TO.C,R17*%
X120857142Y-98452380D02*
X120523809Y-97976190D01*
X120285714Y-98452380D02*
X120285714Y-97452380D01*
X120666666Y-97452380D01*
X120761904Y-97500000D01*
X120809523Y-97547619D01*
X120857142Y-97642857D01*
X120857142Y-97785714D01*
X120809523Y-97880952D01*
X120761904Y-97928571D01*
X120666666Y-97976190D01*
X120285714Y-97976190D01*
X121809523Y-98452380D02*
X121238095Y-98452380D01*
X121523809Y-98452380D02*
X121523809Y-97452380D01*
X121428571Y-97595238D01*
X121333333Y-97690476D01*
X121238095Y-97738095D01*
X122142857Y-97452380D02*
X122809523Y-97452380D01*
X122380952Y-98452380D01*
%TO.C,C19*%
X108357142Y-64392857D02*
X108404761Y-64440476D01*
X108452380Y-64583333D01*
X108452380Y-64678571D01*
X108404761Y-64821428D01*
X108309523Y-64916666D01*
X108214285Y-64964285D01*
X108023809Y-65011904D01*
X107880952Y-65011904D01*
X107690476Y-64964285D01*
X107595238Y-64916666D01*
X107500000Y-64821428D01*
X107452380Y-64678571D01*
X107452380Y-64583333D01*
X107500000Y-64440476D01*
X107547619Y-64392857D01*
X108452380Y-63440476D02*
X108452380Y-64011904D01*
X108452380Y-63726190D02*
X107452380Y-63726190D01*
X107595238Y-63821428D01*
X107690476Y-63916666D01*
X107738095Y-64011904D01*
X108452380Y-62964285D02*
X108452380Y-62773809D01*
X108404761Y-62678571D01*
X108357142Y-62630952D01*
X108214285Y-62535714D01*
X108023809Y-62488095D01*
X107642857Y-62488095D01*
X107547619Y-62535714D01*
X107500000Y-62583333D01*
X107452380Y-62678571D01*
X107452380Y-62869047D01*
X107500000Y-62964285D01*
X107547619Y-63011904D01*
X107642857Y-63059523D01*
X107880952Y-63059523D01*
X107976190Y-63011904D01*
X108023809Y-62964285D01*
X108071428Y-62869047D01*
X108071428Y-62678571D01*
X108023809Y-62583333D01*
X107976190Y-62535714D01*
X107880952Y-62488095D01*
%TO.C,D7*%
X103761904Y-81152380D02*
X103761904Y-80152380D01*
X104000000Y-80152380D01*
X104142857Y-80200000D01*
X104238095Y-80295238D01*
X104285714Y-80390476D01*
X104333333Y-80580952D01*
X104333333Y-80723809D01*
X104285714Y-80914285D01*
X104238095Y-81009523D01*
X104142857Y-81104761D01*
X104000000Y-81152380D01*
X103761904Y-81152380D01*
X104666666Y-80152380D02*
X105333333Y-80152380D01*
X104904761Y-81152380D01*
%TO.C,PS1*%
X116785714Y-62202380D02*
X116785714Y-61202380D01*
X117166666Y-61202380D01*
X117261904Y-61250000D01*
X117309523Y-61297619D01*
X117357142Y-61392857D01*
X117357142Y-61535714D01*
X117309523Y-61630952D01*
X117261904Y-61678571D01*
X117166666Y-61726190D01*
X116785714Y-61726190D01*
X117738095Y-62154761D02*
X117880952Y-62202380D01*
X118119047Y-62202380D01*
X118214285Y-62154761D01*
X118261904Y-62107142D01*
X118309523Y-62011904D01*
X118309523Y-61916666D01*
X118261904Y-61821428D01*
X118214285Y-61773809D01*
X118119047Y-61726190D01*
X117928571Y-61678571D01*
X117833333Y-61630952D01*
X117785714Y-61583333D01*
X117738095Y-61488095D01*
X117738095Y-61392857D01*
X117785714Y-61297619D01*
X117833333Y-61250000D01*
X117928571Y-61202380D01*
X118166666Y-61202380D01*
X118309523Y-61250000D01*
X119261904Y-62202380D02*
X118690476Y-62202380D01*
X118976190Y-62202380D02*
X118976190Y-61202380D01*
X118880952Y-61345238D01*
X118785714Y-61440476D01*
X118690476Y-61488095D01*
%TO.C,C22*%
X109857142Y-64392857D02*
X109904761Y-64440476D01*
X109952380Y-64583333D01*
X109952380Y-64678571D01*
X109904761Y-64821428D01*
X109809523Y-64916666D01*
X109714285Y-64964285D01*
X109523809Y-65011904D01*
X109380952Y-65011904D01*
X109190476Y-64964285D01*
X109095238Y-64916666D01*
X109000000Y-64821428D01*
X108952380Y-64678571D01*
X108952380Y-64583333D01*
X109000000Y-64440476D01*
X109047619Y-64392857D01*
X109047619Y-64011904D02*
X109000000Y-63964285D01*
X108952380Y-63869047D01*
X108952380Y-63630952D01*
X109000000Y-63535714D01*
X109047619Y-63488095D01*
X109142857Y-63440476D01*
X109238095Y-63440476D01*
X109380952Y-63488095D01*
X109952380Y-64059523D01*
X109952380Y-63440476D01*
X109047619Y-63059523D02*
X109000000Y-63011904D01*
X108952380Y-62916666D01*
X108952380Y-62678571D01*
X109000000Y-62583333D01*
X109047619Y-62535714D01*
X109142857Y-62488095D01*
X109238095Y-62488095D01*
X109380952Y-62535714D01*
X109952380Y-63107142D01*
X109952380Y-62488095D01*
%TO.C,R13*%
X117357142Y-95452380D02*
X117023809Y-94976190D01*
X116785714Y-95452380D02*
X116785714Y-94452380D01*
X117166666Y-94452380D01*
X117261904Y-94500000D01*
X117309523Y-94547619D01*
X117357142Y-94642857D01*
X117357142Y-94785714D01*
X117309523Y-94880952D01*
X117261904Y-94928571D01*
X117166666Y-94976190D01*
X116785714Y-94976190D01*
X118309523Y-95452380D02*
X117738095Y-95452380D01*
X118023809Y-95452380D02*
X118023809Y-94452380D01*
X117928571Y-94595238D01*
X117833333Y-94690476D01*
X117738095Y-94738095D01*
X118642857Y-94452380D02*
X119261904Y-94452380D01*
X118928571Y-94833333D01*
X119071428Y-94833333D01*
X119166666Y-94880952D01*
X119214285Y-94928571D01*
X119261904Y-95023809D01*
X119261904Y-95261904D01*
X119214285Y-95357142D01*
X119166666Y-95404761D01*
X119071428Y-95452380D01*
X118785714Y-95452380D01*
X118690476Y-95404761D01*
X118642857Y-95357142D01*
%TO.C,U1*%
X106488095Y-105952380D02*
X106488095Y-106761904D01*
X106535714Y-106857142D01*
X106583333Y-106904761D01*
X106678571Y-106952380D01*
X106869047Y-106952380D01*
X106964285Y-106904761D01*
X107011904Y-106857142D01*
X107059523Y-106761904D01*
X107059523Y-105952380D01*
X108059523Y-106952380D02*
X107488095Y-106952380D01*
X107773809Y-106952380D02*
X107773809Y-105952380D01*
X107678571Y-106095238D01*
X107583333Y-106190476D01*
X107488095Y-106238095D01*
%TO.C,C8*%
X117333333Y-92357142D02*
X117285714Y-92404761D01*
X117142857Y-92452380D01*
X117047619Y-92452380D01*
X116904761Y-92404761D01*
X116809523Y-92309523D01*
X116761904Y-92214285D01*
X116714285Y-92023809D01*
X116714285Y-91880952D01*
X116761904Y-91690476D01*
X116809523Y-91595238D01*
X116904761Y-91500000D01*
X117047619Y-91452380D01*
X117142857Y-91452380D01*
X117285714Y-91500000D01*
X117333333Y-91547619D01*
X117904761Y-91880952D02*
X117809523Y-91833333D01*
X117761904Y-91785714D01*
X117714285Y-91690476D01*
X117714285Y-91642857D01*
X117761904Y-91547619D01*
X117809523Y-91500000D01*
X117904761Y-91452380D01*
X118095238Y-91452380D01*
X118190476Y-91500000D01*
X118238095Y-91547619D01*
X118285714Y-91642857D01*
X118285714Y-91690476D01*
X118238095Y-91785714D01*
X118190476Y-91833333D01*
X118095238Y-91880952D01*
X117904761Y-91880952D01*
X117809523Y-91928571D01*
X117761904Y-91976190D01*
X117714285Y-92071428D01*
X117714285Y-92261904D01*
X117761904Y-92357142D01*
X117809523Y-92404761D01*
X117904761Y-92452380D01*
X118095238Y-92452380D01*
X118190476Y-92404761D01*
X118238095Y-92357142D01*
X118285714Y-92261904D01*
X118285714Y-92071428D01*
X118238095Y-91976190D01*
X118190476Y-91928571D01*
X118095238Y-91880952D01*
D13*
%TO.C,C9*%
X121761252Y-98765000D02*
X121238748Y-98765000D01*
X121761252Y-100235000D02*
X121238748Y-100235000D01*
%TO.C,C10*%
X117738748Y-102765000D02*
X118261252Y-102765000D01*
X117738748Y-104235000D02*
X118261252Y-104235000D01*
%TO.C,C13*%
X123735000Y-60988748D02*
X123735000Y-61511252D01*
X122265000Y-60988748D02*
X122265000Y-61511252D01*
%TO.C,R12*%
X117772936Y-100235000D02*
X118227064Y-100235000D01*
X117772936Y-98765000D02*
X118227064Y-98765000D01*
%TO.C,C6*%
X124265000Y-60988748D02*
X124265000Y-61511252D01*
X125735000Y-60988748D02*
X125735000Y-61511252D01*
D12*
%TO.C,Q2*%
X121575000Y-105950000D02*
X121575000Y-103050000D01*
X122025000Y-103050000D02*
X122025000Y-105950000D01*
X121575000Y-103050000D02*
X122025000Y-103050000D01*
X120175000Y-103000000D02*
X121225000Y-103000000D01*
X122025000Y-105950000D02*
X121575000Y-105950000D01*
D13*
%TO.C,R16*%
X121727064Y-100765000D02*
X121272936Y-100765000D01*
X121727064Y-102235000D02*
X121272936Y-102235000D01*
D12*
%TO.C,D8*%
X110928000Y-97470000D02*
X110928000Y-89530000D01*
X104072000Y-89530000D02*
X104072000Y-97470000D01*
D13*
%TO.C,R14*%
X117772936Y-108235000D02*
X118227064Y-108235000D01*
X117772936Y-106765000D02*
X118227064Y-106765000D01*
%TO.C,R11*%
X117772936Y-110235000D02*
X118227064Y-110235000D01*
X117772936Y-108765000D02*
X118227064Y-108765000D01*
D12*
%TO.C,LS1*%
X128850000Y-101100000D02*
X128850000Y-101100000D01*
D14*
X126750000Y-102200000D02*
X123950000Y-102200000D01*
X123950000Y-111800000D02*
X126750000Y-111800000D01*
D12*
X128650000Y-101100000D02*
X128650000Y-101100000D01*
D14*
X130750000Y-102200000D02*
X133550000Y-102200000D01*
X123950000Y-102200000D02*
X123950000Y-111800000D01*
X133550000Y-102200000D02*
X133550000Y-111800000D01*
X130750000Y-111800000D02*
X133550000Y-111800000D01*
D12*
X128650000Y-101100000D02*
G75*
G03*
X128850000Y-101100000I100000J0D01*
G01*
X128850000Y-101100000D02*
G75*
G03*
X128650000Y-101100000I-100000J0D01*
G01*
D13*
%TO.C,R17*%
X121272936Y-106765000D02*
X121727064Y-106765000D01*
X121272936Y-108235000D02*
X121727064Y-108235000D01*
%TO.C,C19*%
X110515000Y-63738748D02*
X110515000Y-64261252D01*
X111985000Y-63738748D02*
X111985000Y-64261252D01*
%TO.C,D4*%
X135000000Y-53820000D02*
X98000000Y-53820000D01*
X98000000Y-53820000D02*
X98000000Y-98820000D01*
X98000000Y-98820000D02*
X135000000Y-98820000D01*
X135000000Y-98820000D02*
X135000000Y-53820000D01*
D12*
%TO.C,D7*%
X103250000Y-83400000D02*
X103250000Y-78800000D01*
X105750000Y-82600000D02*
X105750000Y-78800000D01*
%TO.C,PS1*%
X114750000Y-60000000D02*
X121250000Y-60000000D01*
X114750000Y-63500000D02*
X114750000Y-60000000D01*
X121250000Y-63500000D02*
X114750000Y-63500000D01*
X114875000Y-65725000D02*
X114875000Y-64075000D01*
X121250000Y-60000000D02*
X121250000Y-63500000D01*
D13*
%TO.C,C22*%
X112515000Y-63738748D02*
X112515000Y-64261252D01*
X113985000Y-63738748D02*
X113985000Y-64261252D01*
%TO.C,R13*%
X118227064Y-106235000D02*
X117772936Y-106235000D01*
X118227064Y-104765000D02*
X117772936Y-104765000D01*
D14*
%TO.C,U1*%
X101525000Y-112400000D02*
X101525000Y-100600000D01*
X110025000Y-112400000D02*
X113525000Y-112400000D01*
D12*
X98925000Y-109100000D02*
X98925000Y-109100000D01*
D14*
X101525000Y-100600000D02*
X105025000Y-100600000D01*
X113525000Y-100600000D02*
X110025000Y-100600000D01*
X105025000Y-112400000D02*
X101525000Y-112400000D01*
X113525000Y-112400000D02*
X113525000Y-100600000D01*
D12*
X98925000Y-108900000D02*
X98925000Y-108900000D01*
X98925000Y-109100000D02*
G75*
G03*
X98925000Y-108900000I0J100000D01*
G01*
X98925000Y-108900000D02*
G75*
G03*
X98925000Y-109100000I0J-100000D01*
G01*
D13*
%TO.C,C8*%
X117738748Y-100765000D02*
X118261252Y-100765000D01*
X117738748Y-102235000D02*
X118261252Y-102235000D01*
%TD*%
M02*
