M48
; DRILL file {KiCad 7.0.8} date Fri Oct  6 19:47:01 2023
; FORMAT={-:-/ absolute / inch / decimal}
; #@! TF.CreationDate,2023-10-06T19:47:01+02:00
; #@! TF.GenerationSoftware,Kicad,Pcbnew,7.0.8
; #@! TF.FileFunction,Plated,1,2,PTH
FMAT,2
INCH
; #@! TA.AperFunction,Plated,PTH,ViaDrill
T1C0.0118
; #@! TA.AperFunction,Plated,PTH,ComponentDrill
T2C0.0197
; #@! TA.AperFunction,Plated,PTH,ComponentDrill
T3C0.0300
; #@! TA.AperFunction,Plated,PTH,ComponentDrill
T4C0.0394
; #@! TA.AperFunction,Plated,PTH,ComponentDrill
T5C0.0472
; #@! TA.AperFunction,Plated,PTH,ComponentDrill
T6C0.0630
; #@! TA.AperFunction,Plated,PTH,ComponentDrill
T7C0.0984
%
G90
G05
T1
X3.8543Y-2.6181
X3.8543Y-2.7411
X3.8543Y-2.8642
X3.8543Y-2.9872
X3.8543Y-3.1102
X3.8543Y-3.2333
X3.8543Y-3.3563
X4.0453Y-3.376
X4.0453Y-3.4055
X4.0453Y-3.435
X4.065Y-3.937
X4.065Y-3.9665
X4.065Y-3.9961
X4.065Y-4.3898
X4.065Y-4.4193
X4.065Y-4.4488
X4.0748Y-3.376
X4.0748Y-3.4055
X4.0748Y-3.435
X4.0945Y-3.937
X4.0945Y-3.9665
X4.0945Y-3.9961
X4.0945Y-4.3898
X4.0945Y-4.4193
X4.0945Y-4.4488
X4.1043Y-3.376
X4.1043Y-3.4055
X4.1043Y-3.435
X4.124Y-3.937
X4.124Y-3.9665
X4.124Y-3.9961
X4.124Y-4.3898
X4.124Y-4.4193
X4.124Y-4.4488
X4.1339Y-3.435
X4.1781Y-2.4983
X4.2028Y-3.059
X4.2224Y-3.3858
X4.2224Y-3.4154
X4.2224Y-3.4449
X4.2323Y-2.3327
X4.2323Y-3.2382
X4.252Y-3.059
X4.252Y-3.3858
X4.252Y-3.4154
X4.252Y-3.4449
X4.2815Y-3.3858
X4.2815Y-3.4154
X4.2815Y-3.4449
X4.3101Y-2.6939
X4.311Y-3.3858
X4.311Y-3.4154
X4.311Y-3.4449
X4.3209Y-2.4705
X4.3228Y-4.3878
X4.3228Y-4.4173
X4.3228Y-4.4469
X4.3248Y-3.9659
X4.3248Y-3.9954
X4.3248Y-2.8396
X4.3268Y-2.9518
X4.3524Y-4.3878
X4.3524Y-4.4173
X4.3524Y-4.4469
X4.3543Y-3.9659
X4.3543Y-3.9954
X4.3681Y-2.7352
X4.3799Y-4.3878
X4.3799Y-4.4173
X4.3799Y-4.4469
X4.3839Y-3.9659
X4.3839Y-3.9954
X4.3996Y-3.0906
X4.4016Y-2.9724
X4.4094Y-2.815
X4.4193Y-2.313
X4.4291Y-2.6083
X4.4293Y-2.7169
X4.4354Y-3.9958
X4.439Y-2.8786
X4.439Y-3.1102
X4.439Y-3.1594
X4.5039Y-2.8858
X4.5079Y-3.2677
X4.5414Y-2.8871
X4.5472Y-3.2283
X4.5571Y-2.5984
X4.5571Y-3.9567
X4.5719Y-3.0219
X4.5866Y-2.6772
X4.6161Y-4.3701
X4.6161Y-4.3996
X4.6161Y-4.4291
X4.6191Y-3.8652
X4.626Y-3.4547
X4.6346Y-3.1681
X4.6457Y-3.4547
X4.6457Y-4.3701
X4.6457Y-4.3996
X4.6457Y-4.4291
X4.6476Y-2.8563
X4.6502Y-4.1177
X4.6516Y-4.0748
X4.6555Y-3.9173
X4.6654Y-3.4547
X4.6732Y-4.3701
X4.6732Y-4.3996
X4.6732Y-4.4291
X4.6752Y-2.1654
X4.6752Y-2.9606
X4.6764Y-2.6279
X4.6841Y-2.8366
X4.685Y-3.4547
X4.6939Y-2.5492
X4.7047Y-3.4547
X4.7087Y-2.685
X4.7093Y-4.2646
X4.7123Y-2.7605
X4.7146Y-2.5098
X4.7146Y-2.9528
X4.724Y-2.7213
X4.7244Y-3.4547
X4.7267Y-2.7973
X4.7322Y-2.8564
X4.7343Y-3.1988
X4.7343Y-3.248
X4.7343Y-3.3071
X4.7441Y-3.4547
X4.7638Y-3.4547
X4.7726Y-3.1899
X4.7845Y-3.1215
X4.7873Y-2.4814
X4.789Y-3.8936
X4.7933Y-4.0354
X4.8027Y-2.5792
X4.872Y-2.9879
X4.8819Y-3.2067
X4.886Y-2.7047
X4.8866Y-2.2361
X4.9016Y-2.8043
X4.9311Y-3.3858
X4.9488Y-2.7992
X4.9596Y-2.6888
X4.9681Y-3.2052
X4.996Y-2.6974
X4.9961Y-2.7368
X4.9964Y-2.8015
X5.004Y-2.9888
X5.0159Y-3.2958
X5.0197Y-2.5266
X5.0581Y-3.4843
X5.065Y-2.8563
X5.0677Y-3.3476
X5.072Y-2.9004
X5.1033Y-2.997
X5.1083Y-2.6181
X5.128Y-3.5433
X5.1378Y-3.2677
X5.1654Y-2.8898
X5.1673Y-2.7953
X5.1673Y-3.3268
X5.2198Y-2.5551
X5.2461Y-3.4252
X5.3346Y-3.4547
T2
X4.8031Y-2.1161
X4.8917Y-2.1161
X4.9803Y-2.1161
X5.2441Y-3.6142
T3
X4.2366Y-2.2173
X4.3366Y-2.2173
X4.4366Y-2.2173
X4.5366Y-2.2173
X4.6366Y-2.2173
X4.7366Y-2.2173
X4.8366Y-2.2173
X4.9366Y-2.2173
T4
X4.7146Y-2.1161
X5.2844Y-2.5732
X5.2844Y-2.6732
X5.2844Y-2.7732
X5.2844Y-2.8732
X5.2844Y-2.9732
X5.2844Y-3.0732
X5.2844Y-3.1732
T5
X3.9478Y-4.0945
X3.9478Y-4.2913
X3.9921Y-2.6524
X3.9921Y-2.8024
X3.9921Y-2.9524
X3.9921Y-3.1024
X3.9921Y-3.2524
X3.9921Y-3.4024
X3.9921Y-3.5524
X4.5187Y-4.0945
X4.5187Y-4.1929
X4.5187Y-4.2913
T6
X4.4278Y-3.752
X4.4278Y-3.8858
X4.9581Y-3.752
X4.9581Y-3.8858
T7
X4.2234Y-3.9685
X4.2234Y-4.4173
T0
M30
