%TF.GenerationSoftware,KiCad,Pcbnew,7.0.8*%
%TF.CreationDate,2023-10-15T13:57:05+02:00*%
%TF.ProjectId,AxxSolder,41787853-6f6c-4646-9572-2e6b69636164,rev?*%
%TF.SameCoordinates,Original*%
%TF.FileFunction,Legend,Top*%
%TF.FilePolarity,Positive*%
%FSLAX46Y46*%
G04 Gerber Fmt 4.6, Leading zero omitted, Abs format (unit mm)*
G04 Created by KiCad (PCBNEW 7.0.8) date 2023-10-15 13:57:05*
%MOMM*%
%LPD*%
G01*
G04 APERTURE LIST*
%ADD10C,0.300000*%
%ADD11C,0.150000*%
%ADD12C,0.200000*%
%ADD13C,0.120000*%
%ADD14C,0.100000*%
G04 APERTURE END LIST*
D10*
X104021177Y-49535139D02*
X104830701Y-49535139D01*
X103859272Y-50020853D02*
X104425939Y-48320853D01*
X104425939Y-48320853D02*
X104992606Y-50020853D01*
X105397368Y-50020853D02*
X106287844Y-48887520D01*
X105397368Y-48887520D02*
X106287844Y-50020853D01*
X106773558Y-50020853D02*
X107664034Y-48887520D01*
X106773558Y-48887520D02*
X107664034Y-50020853D01*
X108230700Y-49939901D02*
X108473557Y-50020853D01*
X108473557Y-50020853D02*
X108878319Y-50020853D01*
X108878319Y-50020853D02*
X109040224Y-49939901D01*
X109040224Y-49939901D02*
X109121176Y-49858948D01*
X109121176Y-49858948D02*
X109202129Y-49697043D01*
X109202129Y-49697043D02*
X109202129Y-49535139D01*
X109202129Y-49535139D02*
X109121176Y-49373234D01*
X109121176Y-49373234D02*
X109040224Y-49292281D01*
X109040224Y-49292281D02*
X108878319Y-49211329D01*
X108878319Y-49211329D02*
X108554510Y-49130377D01*
X108554510Y-49130377D02*
X108392605Y-49049424D01*
X108392605Y-49049424D02*
X108311652Y-48968472D01*
X108311652Y-48968472D02*
X108230700Y-48806567D01*
X108230700Y-48806567D02*
X108230700Y-48644662D01*
X108230700Y-48644662D02*
X108311652Y-48482758D01*
X108311652Y-48482758D02*
X108392605Y-48401805D01*
X108392605Y-48401805D02*
X108554510Y-48320853D01*
X108554510Y-48320853D02*
X108959271Y-48320853D01*
X108959271Y-48320853D02*
X109202129Y-48401805D01*
X110173558Y-50020853D02*
X110011653Y-49939901D01*
X110011653Y-49939901D02*
X109930700Y-49858948D01*
X109930700Y-49858948D02*
X109849748Y-49697043D01*
X109849748Y-49697043D02*
X109849748Y-49211329D01*
X109849748Y-49211329D02*
X109930700Y-49049424D01*
X109930700Y-49049424D02*
X110011653Y-48968472D01*
X110011653Y-48968472D02*
X110173558Y-48887520D01*
X110173558Y-48887520D02*
X110416415Y-48887520D01*
X110416415Y-48887520D02*
X110578319Y-48968472D01*
X110578319Y-48968472D02*
X110659272Y-49049424D01*
X110659272Y-49049424D02*
X110740224Y-49211329D01*
X110740224Y-49211329D02*
X110740224Y-49697043D01*
X110740224Y-49697043D02*
X110659272Y-49858948D01*
X110659272Y-49858948D02*
X110578319Y-49939901D01*
X110578319Y-49939901D02*
X110416415Y-50020853D01*
X110416415Y-50020853D02*
X110173558Y-50020853D01*
X111711653Y-50020853D02*
X111549748Y-49939901D01*
X111549748Y-49939901D02*
X111468795Y-49777996D01*
X111468795Y-49777996D02*
X111468795Y-48320853D01*
X113087843Y-50020853D02*
X113087843Y-48320853D01*
X113087843Y-49939901D02*
X112925938Y-50020853D01*
X112925938Y-50020853D02*
X112602129Y-50020853D01*
X112602129Y-50020853D02*
X112440224Y-49939901D01*
X112440224Y-49939901D02*
X112359271Y-49858948D01*
X112359271Y-49858948D02*
X112278319Y-49697043D01*
X112278319Y-49697043D02*
X112278319Y-49211329D01*
X112278319Y-49211329D02*
X112359271Y-49049424D01*
X112359271Y-49049424D02*
X112440224Y-48968472D01*
X112440224Y-48968472D02*
X112602129Y-48887520D01*
X112602129Y-48887520D02*
X112925938Y-48887520D01*
X112925938Y-48887520D02*
X113087843Y-48968472D01*
X114544985Y-49939901D02*
X114383081Y-50020853D01*
X114383081Y-50020853D02*
X114059271Y-50020853D01*
X114059271Y-50020853D02*
X113897366Y-49939901D01*
X113897366Y-49939901D02*
X113816414Y-49777996D01*
X113816414Y-49777996D02*
X113816414Y-49130377D01*
X113816414Y-49130377D02*
X113897366Y-48968472D01*
X113897366Y-48968472D02*
X114059271Y-48887520D01*
X114059271Y-48887520D02*
X114383081Y-48887520D01*
X114383081Y-48887520D02*
X114544985Y-48968472D01*
X114544985Y-48968472D02*
X114625938Y-49130377D01*
X114625938Y-49130377D02*
X114625938Y-49292281D01*
X114625938Y-49292281D02*
X113816414Y-49454186D01*
X115354509Y-50020853D02*
X115354509Y-48887520D01*
X115354509Y-49211329D02*
X115435462Y-49049424D01*
X115435462Y-49049424D02*
X115516414Y-48968472D01*
X115516414Y-48968472D02*
X115678319Y-48887520D01*
X115678319Y-48887520D02*
X115840224Y-48887520D01*
X117459271Y-48320853D02*
X118025938Y-50020853D01*
X118025938Y-50020853D02*
X118592605Y-48320853D01*
X119078319Y-48482758D02*
X119159271Y-48401805D01*
X119159271Y-48401805D02*
X119321176Y-48320853D01*
X119321176Y-48320853D02*
X119725938Y-48320853D01*
X119725938Y-48320853D02*
X119887843Y-48401805D01*
X119887843Y-48401805D02*
X119968795Y-48482758D01*
X119968795Y-48482758D02*
X120049748Y-48644662D01*
X120049748Y-48644662D02*
X120049748Y-48806567D01*
X120049748Y-48806567D02*
X119968795Y-49049424D01*
X119968795Y-49049424D02*
X118997367Y-50020853D01*
X118997367Y-50020853D02*
X120049748Y-50020853D01*
X120778319Y-49858948D02*
X120859272Y-49939901D01*
X120859272Y-49939901D02*
X120778319Y-50020853D01*
X120778319Y-50020853D02*
X120697367Y-49939901D01*
X120697367Y-49939901D02*
X120778319Y-49858948D01*
X120778319Y-49858948D02*
X120778319Y-50020853D01*
X122478320Y-50020853D02*
X121506891Y-50020853D01*
X121992605Y-50020853D02*
X121992605Y-48320853D01*
X121992605Y-48320853D02*
X121830701Y-48563710D01*
X121830701Y-48563710D02*
X121668796Y-48725615D01*
X121668796Y-48725615D02*
X121506891Y-48806567D01*
D11*
X130390476Y-80350390D02*
X130314286Y-80312295D01*
X130314286Y-80312295D02*
X130200000Y-80312295D01*
X130200000Y-80312295D02*
X130085714Y-80350390D01*
X130085714Y-80350390D02*
X130009524Y-80426580D01*
X130009524Y-80426580D02*
X129971429Y-80502771D01*
X129971429Y-80502771D02*
X129933333Y-80655152D01*
X129933333Y-80655152D02*
X129933333Y-80769438D01*
X129933333Y-80769438D02*
X129971429Y-80921819D01*
X129971429Y-80921819D02*
X130009524Y-80998009D01*
X130009524Y-80998009D02*
X130085714Y-81074200D01*
X130085714Y-81074200D02*
X130200000Y-81112295D01*
X130200000Y-81112295D02*
X130276191Y-81112295D01*
X130276191Y-81112295D02*
X130390476Y-81074200D01*
X130390476Y-81074200D02*
X130428572Y-81036104D01*
X130428572Y-81036104D02*
X130428572Y-80769438D01*
X130428572Y-80769438D02*
X130276191Y-80769438D01*
X130771429Y-81112295D02*
X130771429Y-80312295D01*
X130771429Y-80312295D02*
X131228572Y-81112295D01*
X131228572Y-81112295D02*
X131228572Y-80312295D01*
X131609524Y-81112295D02*
X131609524Y-80312295D01*
X131609524Y-80312295D02*
X131800000Y-80312295D01*
X131800000Y-80312295D02*
X131914286Y-80350390D01*
X131914286Y-80350390D02*
X131990476Y-80426580D01*
X131990476Y-80426580D02*
X132028571Y-80502771D01*
X132028571Y-80502771D02*
X132066667Y-80655152D01*
X132066667Y-80655152D02*
X132066667Y-80769438D01*
X132066667Y-80769438D02*
X132028571Y-80921819D01*
X132028571Y-80921819D02*
X131990476Y-80998009D01*
X131990476Y-80998009D02*
X131914286Y-81074200D01*
X131914286Y-81074200D02*
X131800000Y-81112295D01*
X131800000Y-81112295D02*
X131609524Y-81112295D01*
X106702380Y-78543247D02*
X106816666Y-78581342D01*
X106816666Y-78581342D02*
X106854761Y-78619438D01*
X106854761Y-78619438D02*
X106892857Y-78695628D01*
X106892857Y-78695628D02*
X106892857Y-78809914D01*
X106892857Y-78809914D02*
X106854761Y-78886104D01*
X106854761Y-78886104D02*
X106816666Y-78924200D01*
X106816666Y-78924200D02*
X106740476Y-78962295D01*
X106740476Y-78962295D02*
X106435714Y-78962295D01*
X106435714Y-78962295D02*
X106435714Y-78162295D01*
X106435714Y-78162295D02*
X106702380Y-78162295D01*
X106702380Y-78162295D02*
X106778571Y-78200390D01*
X106778571Y-78200390D02*
X106816666Y-78238485D01*
X106816666Y-78238485D02*
X106854761Y-78314676D01*
X106854761Y-78314676D02*
X106854761Y-78390866D01*
X106854761Y-78390866D02*
X106816666Y-78467057D01*
X106816666Y-78467057D02*
X106778571Y-78505152D01*
X106778571Y-78505152D02*
X106702380Y-78543247D01*
X106702380Y-78543247D02*
X106435714Y-78543247D01*
X107616666Y-78962295D02*
X107235714Y-78962295D01*
X107235714Y-78962295D02*
X107235714Y-78162295D01*
X107883333Y-78162295D02*
X107883333Y-78809914D01*
X107883333Y-78809914D02*
X107921428Y-78886104D01*
X107921428Y-78886104D02*
X107959523Y-78924200D01*
X107959523Y-78924200D02*
X108035714Y-78962295D01*
X108035714Y-78962295D02*
X108188095Y-78962295D01*
X108188095Y-78962295D02*
X108264285Y-78924200D01*
X108264285Y-78924200D02*
X108302380Y-78886104D01*
X108302380Y-78886104D02*
X108340476Y-78809914D01*
X108340476Y-78809914D02*
X108340476Y-78162295D01*
X108721428Y-78543247D02*
X108988094Y-78543247D01*
X109102380Y-78962295D02*
X108721428Y-78962295D01*
X108721428Y-78962295D02*
X108721428Y-78162295D01*
X108721428Y-78162295D02*
X109102380Y-78162295D01*
X129819047Y-77562295D02*
X130314285Y-77562295D01*
X130314285Y-77562295D02*
X130047619Y-77867057D01*
X130047619Y-77867057D02*
X130161904Y-77867057D01*
X130161904Y-77867057D02*
X130238095Y-77905152D01*
X130238095Y-77905152D02*
X130276190Y-77943247D01*
X130276190Y-77943247D02*
X130314285Y-78019438D01*
X130314285Y-78019438D02*
X130314285Y-78209914D01*
X130314285Y-78209914D02*
X130276190Y-78286104D01*
X130276190Y-78286104D02*
X130238095Y-78324200D01*
X130238095Y-78324200D02*
X130161904Y-78362295D01*
X130161904Y-78362295D02*
X129933333Y-78362295D01*
X129933333Y-78362295D02*
X129857142Y-78324200D01*
X129857142Y-78324200D02*
X129819047Y-78286104D01*
X130657143Y-78286104D02*
X130695238Y-78324200D01*
X130695238Y-78324200D02*
X130657143Y-78362295D01*
X130657143Y-78362295D02*
X130619047Y-78324200D01*
X130619047Y-78324200D02*
X130657143Y-78286104D01*
X130657143Y-78286104D02*
X130657143Y-78362295D01*
X130961904Y-77562295D02*
X131457142Y-77562295D01*
X131457142Y-77562295D02*
X131190476Y-77867057D01*
X131190476Y-77867057D02*
X131304761Y-77867057D01*
X131304761Y-77867057D02*
X131380952Y-77905152D01*
X131380952Y-77905152D02*
X131419047Y-77943247D01*
X131419047Y-77943247D02*
X131457142Y-78019438D01*
X131457142Y-78019438D02*
X131457142Y-78209914D01*
X131457142Y-78209914D02*
X131419047Y-78286104D01*
X131419047Y-78286104D02*
X131380952Y-78324200D01*
X131380952Y-78324200D02*
X131304761Y-78362295D01*
X131304761Y-78362295D02*
X131076190Y-78362295D01*
X131076190Y-78362295D02*
X130999999Y-78324200D01*
X130999999Y-78324200D02*
X130961904Y-78286104D01*
X131685714Y-77562295D02*
X131952381Y-78362295D01*
X131952381Y-78362295D02*
X132219047Y-77562295D01*
X102929761Y-67699200D02*
X103044047Y-67737295D01*
X103044047Y-67737295D02*
X103234523Y-67737295D01*
X103234523Y-67737295D02*
X103310714Y-67699200D01*
X103310714Y-67699200D02*
X103348809Y-67661104D01*
X103348809Y-67661104D02*
X103386904Y-67584914D01*
X103386904Y-67584914D02*
X103386904Y-67508723D01*
X103386904Y-67508723D02*
X103348809Y-67432533D01*
X103348809Y-67432533D02*
X103310714Y-67394438D01*
X103310714Y-67394438D02*
X103234523Y-67356342D01*
X103234523Y-67356342D02*
X103082142Y-67318247D01*
X103082142Y-67318247D02*
X103005952Y-67280152D01*
X103005952Y-67280152D02*
X102967857Y-67242057D01*
X102967857Y-67242057D02*
X102929761Y-67165866D01*
X102929761Y-67165866D02*
X102929761Y-67089676D01*
X102929761Y-67089676D02*
X102967857Y-67013485D01*
X102967857Y-67013485D02*
X103005952Y-66975390D01*
X103005952Y-66975390D02*
X103082142Y-66937295D01*
X103082142Y-66937295D02*
X103272619Y-66937295D01*
X103272619Y-66937295D02*
X103386904Y-66975390D01*
X103615476Y-66937295D02*
X104072619Y-66937295D01*
X103844047Y-67737295D02*
X103844047Y-66937295D01*
X104301190Y-67508723D02*
X104682143Y-67508723D01*
X104225000Y-67737295D02*
X104491667Y-66937295D01*
X104491667Y-66937295D02*
X104758333Y-67737295D01*
X105025000Y-67737295D02*
X105025000Y-66937295D01*
X105025000Y-66937295D02*
X105482143Y-67737295D01*
X105482143Y-67737295D02*
X105482143Y-66937295D01*
X105863095Y-67737295D02*
X105863095Y-66937295D01*
X105863095Y-66937295D02*
X106053571Y-66937295D01*
X106053571Y-66937295D02*
X106167857Y-66975390D01*
X106167857Y-66975390D02*
X106244047Y-67051580D01*
X106244047Y-67051580D02*
X106282142Y-67127771D01*
X106282142Y-67127771D02*
X106320238Y-67280152D01*
X106320238Y-67280152D02*
X106320238Y-67394438D01*
X106320238Y-67394438D02*
X106282142Y-67546819D01*
X106282142Y-67546819D02*
X106244047Y-67623009D01*
X106244047Y-67623009D02*
X106167857Y-67699200D01*
X106167857Y-67699200D02*
X106053571Y-67737295D01*
X106053571Y-67737295D02*
X105863095Y-67737295D01*
X116819047Y-66312295D02*
X117314285Y-66312295D01*
X117314285Y-66312295D02*
X117047619Y-66617057D01*
X117047619Y-66617057D02*
X117161904Y-66617057D01*
X117161904Y-66617057D02*
X117238095Y-66655152D01*
X117238095Y-66655152D02*
X117276190Y-66693247D01*
X117276190Y-66693247D02*
X117314285Y-66769438D01*
X117314285Y-66769438D02*
X117314285Y-66959914D01*
X117314285Y-66959914D02*
X117276190Y-67036104D01*
X117276190Y-67036104D02*
X117238095Y-67074200D01*
X117238095Y-67074200D02*
X117161904Y-67112295D01*
X117161904Y-67112295D02*
X116933333Y-67112295D01*
X116933333Y-67112295D02*
X116857142Y-67074200D01*
X116857142Y-67074200D02*
X116819047Y-67036104D01*
X117657143Y-67036104D02*
X117695238Y-67074200D01*
X117695238Y-67074200D02*
X117657143Y-67112295D01*
X117657143Y-67112295D02*
X117619047Y-67074200D01*
X117619047Y-67074200D02*
X117657143Y-67036104D01*
X117657143Y-67036104D02*
X117657143Y-67112295D01*
X117961904Y-66312295D02*
X118457142Y-66312295D01*
X118457142Y-66312295D02*
X118190476Y-66617057D01*
X118190476Y-66617057D02*
X118304761Y-66617057D01*
X118304761Y-66617057D02*
X118380952Y-66655152D01*
X118380952Y-66655152D02*
X118419047Y-66693247D01*
X118419047Y-66693247D02*
X118457142Y-66769438D01*
X118457142Y-66769438D02*
X118457142Y-66959914D01*
X118457142Y-66959914D02*
X118419047Y-67036104D01*
X118419047Y-67036104D02*
X118380952Y-67074200D01*
X118380952Y-67074200D02*
X118304761Y-67112295D01*
X118304761Y-67112295D02*
X118076190Y-67112295D01*
X118076190Y-67112295D02*
X117999999Y-67074200D01*
X117999999Y-67074200D02*
X117961904Y-67036104D01*
X118685714Y-66312295D02*
X118952381Y-67112295D01*
X118952381Y-67112295D02*
X119219047Y-66312295D01*
X128440475Y-73324200D02*
X128554761Y-73362295D01*
X128554761Y-73362295D02*
X128745237Y-73362295D01*
X128745237Y-73362295D02*
X128821428Y-73324200D01*
X128821428Y-73324200D02*
X128859523Y-73286104D01*
X128859523Y-73286104D02*
X128897618Y-73209914D01*
X128897618Y-73209914D02*
X128897618Y-73133723D01*
X128897618Y-73133723D02*
X128859523Y-73057533D01*
X128859523Y-73057533D02*
X128821428Y-73019438D01*
X128821428Y-73019438D02*
X128745237Y-72981342D01*
X128745237Y-72981342D02*
X128592856Y-72943247D01*
X128592856Y-72943247D02*
X128516666Y-72905152D01*
X128516666Y-72905152D02*
X128478571Y-72867057D01*
X128478571Y-72867057D02*
X128440475Y-72790866D01*
X128440475Y-72790866D02*
X128440475Y-72714676D01*
X128440475Y-72714676D02*
X128478571Y-72638485D01*
X128478571Y-72638485D02*
X128516666Y-72600390D01*
X128516666Y-72600390D02*
X128592856Y-72562295D01*
X128592856Y-72562295D02*
X128783333Y-72562295D01*
X128783333Y-72562295D02*
X128897618Y-72600390D01*
X129164285Y-72562295D02*
X129354761Y-73362295D01*
X129354761Y-73362295D02*
X129507142Y-72790866D01*
X129507142Y-72790866D02*
X129659523Y-73362295D01*
X129659523Y-73362295D02*
X129850000Y-72562295D01*
X130611905Y-73286104D02*
X130573809Y-73324200D01*
X130573809Y-73324200D02*
X130459524Y-73362295D01*
X130459524Y-73362295D02*
X130383333Y-73362295D01*
X130383333Y-73362295D02*
X130269047Y-73324200D01*
X130269047Y-73324200D02*
X130192857Y-73248009D01*
X130192857Y-73248009D02*
X130154762Y-73171819D01*
X130154762Y-73171819D02*
X130116666Y-73019438D01*
X130116666Y-73019438D02*
X130116666Y-72905152D01*
X130116666Y-72905152D02*
X130154762Y-72752771D01*
X130154762Y-72752771D02*
X130192857Y-72676580D01*
X130192857Y-72676580D02*
X130269047Y-72600390D01*
X130269047Y-72600390D02*
X130383333Y-72562295D01*
X130383333Y-72562295D02*
X130459524Y-72562295D01*
X130459524Y-72562295D02*
X130573809Y-72600390D01*
X130573809Y-72600390D02*
X130611905Y-72638485D01*
X131335714Y-73362295D02*
X130954762Y-73362295D01*
X130954762Y-73362295D02*
X130954762Y-72562295D01*
X131602381Y-73362295D02*
X131602381Y-72562295D01*
X132059524Y-73362295D02*
X131716666Y-72905152D01*
X132059524Y-72562295D02*
X131602381Y-73019438D01*
X103366666Y-74625390D02*
X103290476Y-74587295D01*
X103290476Y-74587295D02*
X103176190Y-74587295D01*
X103176190Y-74587295D02*
X103061904Y-74625390D01*
X103061904Y-74625390D02*
X102985714Y-74701580D01*
X102985714Y-74701580D02*
X102947619Y-74777771D01*
X102947619Y-74777771D02*
X102909523Y-74930152D01*
X102909523Y-74930152D02*
X102909523Y-75044438D01*
X102909523Y-75044438D02*
X102947619Y-75196819D01*
X102947619Y-75196819D02*
X102985714Y-75273009D01*
X102985714Y-75273009D02*
X103061904Y-75349200D01*
X103061904Y-75349200D02*
X103176190Y-75387295D01*
X103176190Y-75387295D02*
X103252381Y-75387295D01*
X103252381Y-75387295D02*
X103366666Y-75349200D01*
X103366666Y-75349200D02*
X103404762Y-75311104D01*
X103404762Y-75311104D02*
X103404762Y-75044438D01*
X103404762Y-75044438D02*
X103252381Y-75044438D01*
X104204762Y-75387295D02*
X103938095Y-75006342D01*
X103747619Y-75387295D02*
X103747619Y-74587295D01*
X103747619Y-74587295D02*
X104052381Y-74587295D01*
X104052381Y-74587295D02*
X104128571Y-74625390D01*
X104128571Y-74625390D02*
X104166666Y-74663485D01*
X104166666Y-74663485D02*
X104204762Y-74739676D01*
X104204762Y-74739676D02*
X104204762Y-74853961D01*
X104204762Y-74853961D02*
X104166666Y-74930152D01*
X104166666Y-74930152D02*
X104128571Y-74968247D01*
X104128571Y-74968247D02*
X104052381Y-75006342D01*
X104052381Y-75006342D02*
X103747619Y-75006342D01*
X104547619Y-74968247D02*
X104814285Y-74968247D01*
X104928571Y-75387295D02*
X104547619Y-75387295D01*
X104547619Y-75387295D02*
X104547619Y-74587295D01*
X104547619Y-74587295D02*
X104928571Y-74587295D01*
X105271429Y-74968247D02*
X105538095Y-74968247D01*
X105652381Y-75387295D02*
X105271429Y-75387295D01*
X105271429Y-75387295D02*
X105271429Y-74587295D01*
X105271429Y-74587295D02*
X105652381Y-74587295D01*
X105995239Y-75387295D02*
X105995239Y-74587295D01*
X105995239Y-74587295D02*
X106452382Y-75387295D01*
X106452382Y-75387295D02*
X106452382Y-74587295D01*
X106885714Y-82862295D02*
X106619047Y-82481342D01*
X106428571Y-82862295D02*
X106428571Y-82062295D01*
X106428571Y-82062295D02*
X106733333Y-82062295D01*
X106733333Y-82062295D02*
X106809523Y-82100390D01*
X106809523Y-82100390D02*
X106847618Y-82138485D01*
X106847618Y-82138485D02*
X106885714Y-82214676D01*
X106885714Y-82214676D02*
X106885714Y-82328961D01*
X106885714Y-82328961D02*
X106847618Y-82405152D01*
X106847618Y-82405152D02*
X106809523Y-82443247D01*
X106809523Y-82443247D02*
X106733333Y-82481342D01*
X106733333Y-82481342D02*
X106428571Y-82481342D01*
X107228571Y-82443247D02*
X107495237Y-82443247D01*
X107609523Y-82862295D02*
X107228571Y-82862295D01*
X107228571Y-82862295D02*
X107228571Y-82062295D01*
X107228571Y-82062295D02*
X107609523Y-82062295D01*
X107952381Y-82862295D02*
X107952381Y-82062295D01*
X107952381Y-82062295D02*
X108142857Y-82062295D01*
X108142857Y-82062295D02*
X108257143Y-82100390D01*
X108257143Y-82100390D02*
X108333333Y-82176580D01*
X108333333Y-82176580D02*
X108371428Y-82252771D01*
X108371428Y-82252771D02*
X108409524Y-82405152D01*
X108409524Y-82405152D02*
X108409524Y-82519438D01*
X108409524Y-82519438D02*
X108371428Y-82671819D01*
X108371428Y-82671819D02*
X108333333Y-82748009D01*
X108333333Y-82748009D02*
X108257143Y-82824200D01*
X108257143Y-82824200D02*
X108142857Y-82862295D01*
X108142857Y-82862295D02*
X107952381Y-82862295D01*
X104140476Y-85800390D02*
X104064286Y-85762295D01*
X104064286Y-85762295D02*
X103950000Y-85762295D01*
X103950000Y-85762295D02*
X103835714Y-85800390D01*
X103835714Y-85800390D02*
X103759524Y-85876580D01*
X103759524Y-85876580D02*
X103721429Y-85952771D01*
X103721429Y-85952771D02*
X103683333Y-86105152D01*
X103683333Y-86105152D02*
X103683333Y-86219438D01*
X103683333Y-86219438D02*
X103721429Y-86371819D01*
X103721429Y-86371819D02*
X103759524Y-86448009D01*
X103759524Y-86448009D02*
X103835714Y-86524200D01*
X103835714Y-86524200D02*
X103950000Y-86562295D01*
X103950000Y-86562295D02*
X104026191Y-86562295D01*
X104026191Y-86562295D02*
X104140476Y-86524200D01*
X104140476Y-86524200D02*
X104178572Y-86486104D01*
X104178572Y-86486104D02*
X104178572Y-86219438D01*
X104178572Y-86219438D02*
X104026191Y-86219438D01*
X104521429Y-86562295D02*
X104521429Y-85762295D01*
X104521429Y-85762295D02*
X104978572Y-86562295D01*
X104978572Y-86562295D02*
X104978572Y-85762295D01*
X105359524Y-86562295D02*
X105359524Y-85762295D01*
X105359524Y-85762295D02*
X105550000Y-85762295D01*
X105550000Y-85762295D02*
X105664286Y-85800390D01*
X105664286Y-85800390D02*
X105740476Y-85876580D01*
X105740476Y-85876580D02*
X105778571Y-85952771D01*
X105778571Y-85952771D02*
X105816667Y-86105152D01*
X105816667Y-86105152D02*
X105816667Y-86219438D01*
X105816667Y-86219438D02*
X105778571Y-86371819D01*
X105778571Y-86371819D02*
X105740476Y-86448009D01*
X105740476Y-86448009D02*
X105664286Y-86524200D01*
X105664286Y-86524200D02*
X105550000Y-86562295D01*
X105550000Y-86562295D02*
X105359524Y-86562295D01*
X103823810Y-87812295D02*
X104090477Y-88612295D01*
X104090477Y-88612295D02*
X104357143Y-87812295D01*
X104623810Y-88612295D02*
X104623810Y-87812295D01*
X105004762Y-88612295D02*
X105004762Y-87812295D01*
X105004762Y-87812295D02*
X105461905Y-88612295D01*
X105461905Y-88612295D02*
X105461905Y-87812295D01*
X131616667Y-65612295D02*
X131350000Y-65231342D01*
X131159524Y-65612295D02*
X131159524Y-64812295D01*
X131159524Y-64812295D02*
X131464286Y-64812295D01*
X131464286Y-64812295D02*
X131540476Y-64850390D01*
X131540476Y-64850390D02*
X131578571Y-64888485D01*
X131578571Y-64888485D02*
X131616667Y-64964676D01*
X131616667Y-64964676D02*
X131616667Y-65078961D01*
X131616667Y-65078961D02*
X131578571Y-65155152D01*
X131578571Y-65155152D02*
X131540476Y-65193247D01*
X131540476Y-65193247D02*
X131464286Y-65231342D01*
X131464286Y-65231342D02*
X131159524Y-65231342D01*
X131883333Y-64812295D02*
X132416667Y-65612295D01*
X132416667Y-64812295D02*
X131883333Y-65612295D01*
X128804761Y-70824200D02*
X128919047Y-70862295D01*
X128919047Y-70862295D02*
X129109523Y-70862295D01*
X129109523Y-70862295D02*
X129185714Y-70824200D01*
X129185714Y-70824200D02*
X129223809Y-70786104D01*
X129223809Y-70786104D02*
X129261904Y-70709914D01*
X129261904Y-70709914D02*
X129261904Y-70633723D01*
X129261904Y-70633723D02*
X129223809Y-70557533D01*
X129223809Y-70557533D02*
X129185714Y-70519438D01*
X129185714Y-70519438D02*
X129109523Y-70481342D01*
X129109523Y-70481342D02*
X128957142Y-70443247D01*
X128957142Y-70443247D02*
X128880952Y-70405152D01*
X128880952Y-70405152D02*
X128842857Y-70367057D01*
X128842857Y-70367057D02*
X128804761Y-70290866D01*
X128804761Y-70290866D02*
X128804761Y-70214676D01*
X128804761Y-70214676D02*
X128842857Y-70138485D01*
X128842857Y-70138485D02*
X128880952Y-70100390D01*
X128880952Y-70100390D02*
X128957142Y-70062295D01*
X128957142Y-70062295D02*
X129147619Y-70062295D01*
X129147619Y-70062295D02*
X129261904Y-70100390D01*
X129528571Y-70062295D02*
X129719047Y-70862295D01*
X129719047Y-70862295D02*
X129871428Y-70290866D01*
X129871428Y-70290866D02*
X130023809Y-70862295D01*
X130023809Y-70862295D02*
X130214286Y-70062295D01*
X130519048Y-70862295D02*
X130519048Y-70062295D01*
X130519048Y-70062295D02*
X130709524Y-70062295D01*
X130709524Y-70062295D02*
X130823810Y-70100390D01*
X130823810Y-70100390D02*
X130900000Y-70176580D01*
X130900000Y-70176580D02*
X130938095Y-70252771D01*
X130938095Y-70252771D02*
X130976191Y-70405152D01*
X130976191Y-70405152D02*
X130976191Y-70519438D01*
X130976191Y-70519438D02*
X130938095Y-70671819D01*
X130938095Y-70671819D02*
X130900000Y-70748009D01*
X130900000Y-70748009D02*
X130823810Y-70824200D01*
X130823810Y-70824200D02*
X130709524Y-70862295D01*
X130709524Y-70862295D02*
X130519048Y-70862295D01*
X131319048Y-70862295D02*
X131319048Y-70062295D01*
X131852381Y-70062295D02*
X132004762Y-70062295D01*
X132004762Y-70062295D02*
X132080952Y-70100390D01*
X132080952Y-70100390D02*
X132157143Y-70176580D01*
X132157143Y-70176580D02*
X132195238Y-70328961D01*
X132195238Y-70328961D02*
X132195238Y-70595628D01*
X132195238Y-70595628D02*
X132157143Y-70748009D01*
X132157143Y-70748009D02*
X132080952Y-70824200D01*
X132080952Y-70824200D02*
X132004762Y-70862295D01*
X132004762Y-70862295D02*
X131852381Y-70862295D01*
X131852381Y-70862295D02*
X131776190Y-70824200D01*
X131776190Y-70824200D02*
X131700000Y-70748009D01*
X131700000Y-70748009D02*
X131661904Y-70595628D01*
X131661904Y-70595628D02*
X131661904Y-70328961D01*
X131661904Y-70328961D02*
X131700000Y-70176580D01*
X131700000Y-70176580D02*
X131776190Y-70100390D01*
X131776190Y-70100390D02*
X131852381Y-70062295D01*
X130811905Y-75862295D02*
X130545238Y-75481342D01*
X130354762Y-75862295D02*
X130354762Y-75062295D01*
X130354762Y-75062295D02*
X130659524Y-75062295D01*
X130659524Y-75062295D02*
X130735714Y-75100390D01*
X130735714Y-75100390D02*
X130773809Y-75138485D01*
X130773809Y-75138485D02*
X130811905Y-75214676D01*
X130811905Y-75214676D02*
X130811905Y-75328961D01*
X130811905Y-75328961D02*
X130773809Y-75405152D01*
X130773809Y-75405152D02*
X130735714Y-75443247D01*
X130735714Y-75443247D02*
X130659524Y-75481342D01*
X130659524Y-75481342D02*
X130354762Y-75481342D01*
X131116666Y-75824200D02*
X131230952Y-75862295D01*
X131230952Y-75862295D02*
X131421428Y-75862295D01*
X131421428Y-75862295D02*
X131497619Y-75824200D01*
X131497619Y-75824200D02*
X131535714Y-75786104D01*
X131535714Y-75786104D02*
X131573809Y-75709914D01*
X131573809Y-75709914D02*
X131573809Y-75633723D01*
X131573809Y-75633723D02*
X131535714Y-75557533D01*
X131535714Y-75557533D02*
X131497619Y-75519438D01*
X131497619Y-75519438D02*
X131421428Y-75481342D01*
X131421428Y-75481342D02*
X131269047Y-75443247D01*
X131269047Y-75443247D02*
X131192857Y-75405152D01*
X131192857Y-75405152D02*
X131154762Y-75367057D01*
X131154762Y-75367057D02*
X131116666Y-75290866D01*
X131116666Y-75290866D02*
X131116666Y-75214676D01*
X131116666Y-75214676D02*
X131154762Y-75138485D01*
X131154762Y-75138485D02*
X131192857Y-75100390D01*
X131192857Y-75100390D02*
X131269047Y-75062295D01*
X131269047Y-75062295D02*
X131459524Y-75062295D01*
X131459524Y-75062295D02*
X131573809Y-75100390D01*
X131802381Y-75062295D02*
X132259524Y-75062295D01*
X132030952Y-75862295D02*
X132030952Y-75062295D01*
D12*
X103988720Y-52433528D02*
X103988720Y-50933528D01*
X104703006Y-51433528D02*
X104703006Y-52433528D01*
X104703006Y-51576385D02*
X104774435Y-51504957D01*
X104774435Y-51504957D02*
X104917292Y-51433528D01*
X104917292Y-51433528D02*
X105131578Y-51433528D01*
X105131578Y-51433528D02*
X105274435Y-51504957D01*
X105274435Y-51504957D02*
X105345864Y-51647814D01*
X105345864Y-51647814D02*
X105345864Y-52433528D01*
X106060149Y-51433528D02*
X106060149Y-52933528D01*
X106060149Y-51504957D02*
X106203007Y-51433528D01*
X106203007Y-51433528D02*
X106488721Y-51433528D01*
X106488721Y-51433528D02*
X106631578Y-51504957D01*
X106631578Y-51504957D02*
X106703007Y-51576385D01*
X106703007Y-51576385D02*
X106774435Y-51719242D01*
X106774435Y-51719242D02*
X106774435Y-52147814D01*
X106774435Y-52147814D02*
X106703007Y-52290671D01*
X106703007Y-52290671D02*
X106631578Y-52362100D01*
X106631578Y-52362100D02*
X106488721Y-52433528D01*
X106488721Y-52433528D02*
X106203007Y-52433528D01*
X106203007Y-52433528D02*
X106060149Y-52362100D01*
X108060150Y-51433528D02*
X108060150Y-52433528D01*
X107417292Y-51433528D02*
X107417292Y-52219242D01*
X107417292Y-52219242D02*
X107488721Y-52362100D01*
X107488721Y-52362100D02*
X107631578Y-52433528D01*
X107631578Y-52433528D02*
X107845864Y-52433528D01*
X107845864Y-52433528D02*
X107988721Y-52362100D01*
X107988721Y-52362100D02*
X108060150Y-52290671D01*
X108560150Y-51433528D02*
X109131578Y-51433528D01*
X108774435Y-50933528D02*
X108774435Y-52219242D01*
X108774435Y-52219242D02*
X108845864Y-52362100D01*
X108845864Y-52362100D02*
X108988721Y-52433528D01*
X108988721Y-52433528D02*
X109131578Y-52433528D01*
X109631578Y-52290671D02*
X109703007Y-52362100D01*
X109703007Y-52362100D02*
X109631578Y-52433528D01*
X109631578Y-52433528D02*
X109560150Y-52362100D01*
X109560150Y-52362100D02*
X109631578Y-52290671D01*
X109631578Y-52290671D02*
X109631578Y-52433528D01*
X109631578Y-51504957D02*
X109703007Y-51576385D01*
X109703007Y-51576385D02*
X109631578Y-51647814D01*
X109631578Y-51647814D02*
X109560150Y-51576385D01*
X109560150Y-51576385D02*
X109631578Y-51504957D01*
X109631578Y-51504957D02*
X109631578Y-51647814D01*
X111560150Y-52433528D02*
X111845864Y-52433528D01*
X111845864Y-52433528D02*
X111988721Y-52362100D01*
X111988721Y-52362100D02*
X112060150Y-52290671D01*
X112060150Y-52290671D02*
X112203007Y-52076385D01*
X112203007Y-52076385D02*
X112274436Y-51790671D01*
X112274436Y-51790671D02*
X112274436Y-51219242D01*
X112274436Y-51219242D02*
X112203007Y-51076385D01*
X112203007Y-51076385D02*
X112131579Y-51004957D01*
X112131579Y-51004957D02*
X111988721Y-50933528D01*
X111988721Y-50933528D02*
X111703007Y-50933528D01*
X111703007Y-50933528D02*
X111560150Y-51004957D01*
X111560150Y-51004957D02*
X111488721Y-51076385D01*
X111488721Y-51076385D02*
X111417293Y-51219242D01*
X111417293Y-51219242D02*
X111417293Y-51576385D01*
X111417293Y-51576385D02*
X111488721Y-51719242D01*
X111488721Y-51719242D02*
X111560150Y-51790671D01*
X111560150Y-51790671D02*
X111703007Y-51862100D01*
X111703007Y-51862100D02*
X111988721Y-51862100D01*
X111988721Y-51862100D02*
X112131579Y-51790671D01*
X112131579Y-51790671D02*
X112203007Y-51719242D01*
X112203007Y-51719242D02*
X112274436Y-51576385D01*
X112917292Y-51862100D02*
X114060150Y-51862100D01*
X114703007Y-51076385D02*
X114774435Y-51004957D01*
X114774435Y-51004957D02*
X114917293Y-50933528D01*
X114917293Y-50933528D02*
X115274435Y-50933528D01*
X115274435Y-50933528D02*
X115417293Y-51004957D01*
X115417293Y-51004957D02*
X115488721Y-51076385D01*
X115488721Y-51076385D02*
X115560150Y-51219242D01*
X115560150Y-51219242D02*
X115560150Y-51362100D01*
X115560150Y-51362100D02*
X115488721Y-51576385D01*
X115488721Y-51576385D02*
X114631578Y-52433528D01*
X114631578Y-52433528D02*
X115560150Y-52433528D01*
X116845864Y-51433528D02*
X116845864Y-52433528D01*
X116488721Y-50862100D02*
X116131578Y-51933528D01*
X116131578Y-51933528D02*
X117060149Y-51933528D01*
X118560149Y-50933528D02*
X119060149Y-52433528D01*
X119060149Y-52433528D02*
X119560149Y-50933528D01*
D11*
X131140476Y-67562295D02*
X131597619Y-67562295D01*
X131369047Y-68362295D02*
X131369047Y-67562295D01*
X131788095Y-67562295D02*
X132321429Y-68362295D01*
X132321429Y-67562295D02*
X131788095Y-68362295D01*
X113890476Y-66350390D02*
X113814286Y-66312295D01*
X113814286Y-66312295D02*
X113700000Y-66312295D01*
X113700000Y-66312295D02*
X113585714Y-66350390D01*
X113585714Y-66350390D02*
X113509524Y-66426580D01*
X113509524Y-66426580D02*
X113471429Y-66502771D01*
X113471429Y-66502771D02*
X113433333Y-66655152D01*
X113433333Y-66655152D02*
X113433333Y-66769438D01*
X113433333Y-66769438D02*
X113471429Y-66921819D01*
X113471429Y-66921819D02*
X113509524Y-66998009D01*
X113509524Y-66998009D02*
X113585714Y-67074200D01*
X113585714Y-67074200D02*
X113700000Y-67112295D01*
X113700000Y-67112295D02*
X113776191Y-67112295D01*
X113776191Y-67112295D02*
X113890476Y-67074200D01*
X113890476Y-67074200D02*
X113928572Y-67036104D01*
X113928572Y-67036104D02*
X113928572Y-66769438D01*
X113928572Y-66769438D02*
X113776191Y-66769438D01*
X114271429Y-67112295D02*
X114271429Y-66312295D01*
X114271429Y-66312295D02*
X114728572Y-67112295D01*
X114728572Y-67112295D02*
X114728572Y-66312295D01*
X115109524Y-67112295D02*
X115109524Y-66312295D01*
X115109524Y-66312295D02*
X115300000Y-66312295D01*
X115300000Y-66312295D02*
X115414286Y-66350390D01*
X115414286Y-66350390D02*
X115490476Y-66426580D01*
X115490476Y-66426580D02*
X115528571Y-66502771D01*
X115528571Y-66502771D02*
X115566667Y-66655152D01*
X115566667Y-66655152D02*
X115566667Y-66769438D01*
X115566667Y-66769438D02*
X115528571Y-66921819D01*
X115528571Y-66921819D02*
X115490476Y-66998009D01*
X115490476Y-66998009D02*
X115414286Y-67074200D01*
X115414286Y-67074200D02*
X115300000Y-67112295D01*
X115300000Y-67112295D02*
X115109524Y-67112295D01*
X120847619Y-66312295D02*
X120466667Y-66312295D01*
X120466667Y-66312295D02*
X120428571Y-66693247D01*
X120428571Y-66693247D02*
X120466667Y-66655152D01*
X120466667Y-66655152D02*
X120542857Y-66617057D01*
X120542857Y-66617057D02*
X120733333Y-66617057D01*
X120733333Y-66617057D02*
X120809524Y-66655152D01*
X120809524Y-66655152D02*
X120847619Y-66693247D01*
X120847619Y-66693247D02*
X120885714Y-66769438D01*
X120885714Y-66769438D02*
X120885714Y-66959914D01*
X120885714Y-66959914D02*
X120847619Y-67036104D01*
X120847619Y-67036104D02*
X120809524Y-67074200D01*
X120809524Y-67074200D02*
X120733333Y-67112295D01*
X120733333Y-67112295D02*
X120542857Y-67112295D01*
X120542857Y-67112295D02*
X120466667Y-67074200D01*
X120466667Y-67074200D02*
X120428571Y-67036104D01*
X121114286Y-66312295D02*
X121380953Y-67112295D01*
X121380953Y-67112295D02*
X121647619Y-66312295D01*
X103073810Y-71587295D02*
X103073810Y-70787295D01*
X103073810Y-71168247D02*
X103530953Y-71168247D01*
X103530953Y-71587295D02*
X103530953Y-70787295D01*
X103873809Y-71358723D02*
X104254762Y-71358723D01*
X103797619Y-71587295D02*
X104064286Y-70787295D01*
X104064286Y-70787295D02*
X104330952Y-71587295D01*
X104597619Y-71587295D02*
X104597619Y-70787295D01*
X104597619Y-70787295D02*
X105054762Y-71587295D01*
X105054762Y-71587295D02*
X105054762Y-70787295D01*
X105435714Y-71587295D02*
X105435714Y-70787295D01*
X105435714Y-70787295D02*
X105626190Y-70787295D01*
X105626190Y-70787295D02*
X105740476Y-70825390D01*
X105740476Y-70825390D02*
X105816666Y-70901580D01*
X105816666Y-70901580D02*
X105854761Y-70977771D01*
X105854761Y-70977771D02*
X105892857Y-71130152D01*
X105892857Y-71130152D02*
X105892857Y-71244438D01*
X105892857Y-71244438D02*
X105854761Y-71396819D01*
X105854761Y-71396819D02*
X105816666Y-71473009D01*
X105816666Y-71473009D02*
X105740476Y-71549200D01*
X105740476Y-71549200D02*
X105626190Y-71587295D01*
X105626190Y-71587295D02*
X105435714Y-71587295D01*
X106616666Y-71587295D02*
X106235714Y-71587295D01*
X106235714Y-71587295D02*
X106235714Y-70787295D01*
X106883333Y-71168247D02*
X107149999Y-71168247D01*
X107264285Y-71587295D02*
X106883333Y-71587295D01*
X106883333Y-71587295D02*
X106883333Y-70787295D01*
X106883333Y-70787295D02*
X107264285Y-70787295D01*
X120866667Y-94086104D02*
X120828571Y-94124200D01*
X120828571Y-94124200D02*
X120714286Y-94162295D01*
X120714286Y-94162295D02*
X120638095Y-94162295D01*
X120638095Y-94162295D02*
X120523809Y-94124200D01*
X120523809Y-94124200D02*
X120447619Y-94048009D01*
X120447619Y-94048009D02*
X120409524Y-93971819D01*
X120409524Y-93971819D02*
X120371428Y-93819438D01*
X120371428Y-93819438D02*
X120371428Y-93705152D01*
X120371428Y-93705152D02*
X120409524Y-93552771D01*
X120409524Y-93552771D02*
X120447619Y-93476580D01*
X120447619Y-93476580D02*
X120523809Y-93400390D01*
X120523809Y-93400390D02*
X120638095Y-93362295D01*
X120638095Y-93362295D02*
X120714286Y-93362295D01*
X120714286Y-93362295D02*
X120828571Y-93400390D01*
X120828571Y-93400390D02*
X120866667Y-93438485D01*
X121247619Y-94162295D02*
X121400000Y-94162295D01*
X121400000Y-94162295D02*
X121476190Y-94124200D01*
X121476190Y-94124200D02*
X121514286Y-94086104D01*
X121514286Y-94086104D02*
X121590476Y-93971819D01*
X121590476Y-93971819D02*
X121628571Y-93819438D01*
X121628571Y-93819438D02*
X121628571Y-93514676D01*
X121628571Y-93514676D02*
X121590476Y-93438485D01*
X121590476Y-93438485D02*
X121552381Y-93400390D01*
X121552381Y-93400390D02*
X121476190Y-93362295D01*
X121476190Y-93362295D02*
X121323809Y-93362295D01*
X121323809Y-93362295D02*
X121247619Y-93400390D01*
X121247619Y-93400390D02*
X121209524Y-93438485D01*
X121209524Y-93438485D02*
X121171428Y-93514676D01*
X121171428Y-93514676D02*
X121171428Y-93705152D01*
X121171428Y-93705152D02*
X121209524Y-93781342D01*
X121209524Y-93781342D02*
X121247619Y-93819438D01*
X121247619Y-93819438D02*
X121323809Y-93857533D01*
X121323809Y-93857533D02*
X121476190Y-93857533D01*
X121476190Y-93857533D02*
X121552381Y-93819438D01*
X121552381Y-93819438D02*
X121590476Y-93781342D01*
X121590476Y-93781342D02*
X121628571Y-93705152D01*
X117485714Y-95386104D02*
X117447618Y-95424200D01*
X117447618Y-95424200D02*
X117333333Y-95462295D01*
X117333333Y-95462295D02*
X117257142Y-95462295D01*
X117257142Y-95462295D02*
X117142856Y-95424200D01*
X117142856Y-95424200D02*
X117066666Y-95348009D01*
X117066666Y-95348009D02*
X117028571Y-95271819D01*
X117028571Y-95271819D02*
X116990475Y-95119438D01*
X116990475Y-95119438D02*
X116990475Y-95005152D01*
X116990475Y-95005152D02*
X117028571Y-94852771D01*
X117028571Y-94852771D02*
X117066666Y-94776580D01*
X117066666Y-94776580D02*
X117142856Y-94700390D01*
X117142856Y-94700390D02*
X117257142Y-94662295D01*
X117257142Y-94662295D02*
X117333333Y-94662295D01*
X117333333Y-94662295D02*
X117447618Y-94700390D01*
X117447618Y-94700390D02*
X117485714Y-94738485D01*
X118247618Y-95462295D02*
X117790475Y-95462295D01*
X118019047Y-95462295D02*
X118019047Y-94662295D01*
X118019047Y-94662295D02*
X117942856Y-94776580D01*
X117942856Y-94776580D02*
X117866666Y-94852771D01*
X117866666Y-94852771D02*
X117790475Y-94890866D01*
X118742857Y-94662295D02*
X118819047Y-94662295D01*
X118819047Y-94662295D02*
X118895238Y-94700390D01*
X118895238Y-94700390D02*
X118933333Y-94738485D01*
X118933333Y-94738485D02*
X118971428Y-94814676D01*
X118971428Y-94814676D02*
X119009523Y-94967057D01*
X119009523Y-94967057D02*
X119009523Y-95157533D01*
X119009523Y-95157533D02*
X118971428Y-95309914D01*
X118971428Y-95309914D02*
X118933333Y-95386104D01*
X118933333Y-95386104D02*
X118895238Y-95424200D01*
X118895238Y-95424200D02*
X118819047Y-95462295D01*
X118819047Y-95462295D02*
X118742857Y-95462295D01*
X118742857Y-95462295D02*
X118666666Y-95424200D01*
X118666666Y-95424200D02*
X118628571Y-95386104D01*
X118628571Y-95386104D02*
X118590476Y-95309914D01*
X118590476Y-95309914D02*
X118552380Y-95157533D01*
X118552380Y-95157533D02*
X118552380Y-94967057D01*
X118552380Y-94967057D02*
X118590476Y-94814676D01*
X118590476Y-94814676D02*
X118628571Y-94738485D01*
X118628571Y-94738485D02*
X118666666Y-94700390D01*
X118666666Y-94700390D02*
X118742857Y-94662295D01*
X123286104Y-58864285D02*
X123324200Y-58902381D01*
X123324200Y-58902381D02*
X123362295Y-59016666D01*
X123362295Y-59016666D02*
X123362295Y-59092857D01*
X123362295Y-59092857D02*
X123324200Y-59207143D01*
X123324200Y-59207143D02*
X123248009Y-59283333D01*
X123248009Y-59283333D02*
X123171819Y-59321428D01*
X123171819Y-59321428D02*
X123019438Y-59359524D01*
X123019438Y-59359524D02*
X122905152Y-59359524D01*
X122905152Y-59359524D02*
X122752771Y-59321428D01*
X122752771Y-59321428D02*
X122676580Y-59283333D01*
X122676580Y-59283333D02*
X122600390Y-59207143D01*
X122600390Y-59207143D02*
X122562295Y-59092857D01*
X122562295Y-59092857D02*
X122562295Y-59016666D01*
X122562295Y-59016666D02*
X122600390Y-58902381D01*
X122600390Y-58902381D02*
X122638485Y-58864285D01*
X123362295Y-58102381D02*
X123362295Y-58559524D01*
X123362295Y-58330952D02*
X122562295Y-58330952D01*
X122562295Y-58330952D02*
X122676580Y-58407143D01*
X122676580Y-58407143D02*
X122752771Y-58483333D01*
X122752771Y-58483333D02*
X122790866Y-58559524D01*
X122562295Y-57835714D02*
X122562295Y-57340476D01*
X122562295Y-57340476D02*
X122867057Y-57607142D01*
X122867057Y-57607142D02*
X122867057Y-57492857D01*
X122867057Y-57492857D02*
X122905152Y-57416666D01*
X122905152Y-57416666D02*
X122943247Y-57378571D01*
X122943247Y-57378571D02*
X123019438Y-57340476D01*
X123019438Y-57340476D02*
X123209914Y-57340476D01*
X123209914Y-57340476D02*
X123286104Y-57378571D01*
X123286104Y-57378571D02*
X123324200Y-57416666D01*
X123324200Y-57416666D02*
X123362295Y-57492857D01*
X123362295Y-57492857D02*
X123362295Y-57721428D01*
X123362295Y-57721428D02*
X123324200Y-57797619D01*
X123324200Y-57797619D02*
X123286104Y-57835714D01*
X117485714Y-92862295D02*
X117219047Y-92481342D01*
X117028571Y-92862295D02*
X117028571Y-92062295D01*
X117028571Y-92062295D02*
X117333333Y-92062295D01*
X117333333Y-92062295D02*
X117409523Y-92100390D01*
X117409523Y-92100390D02*
X117447618Y-92138485D01*
X117447618Y-92138485D02*
X117485714Y-92214676D01*
X117485714Y-92214676D02*
X117485714Y-92328961D01*
X117485714Y-92328961D02*
X117447618Y-92405152D01*
X117447618Y-92405152D02*
X117409523Y-92443247D01*
X117409523Y-92443247D02*
X117333333Y-92481342D01*
X117333333Y-92481342D02*
X117028571Y-92481342D01*
X118247618Y-92862295D02*
X117790475Y-92862295D01*
X118019047Y-92862295D02*
X118019047Y-92062295D01*
X118019047Y-92062295D02*
X117942856Y-92176580D01*
X117942856Y-92176580D02*
X117866666Y-92252771D01*
X117866666Y-92252771D02*
X117790475Y-92290866D01*
X118552380Y-92138485D02*
X118590476Y-92100390D01*
X118590476Y-92100390D02*
X118666666Y-92062295D01*
X118666666Y-92062295D02*
X118857142Y-92062295D01*
X118857142Y-92062295D02*
X118933333Y-92100390D01*
X118933333Y-92100390D02*
X118971428Y-92138485D01*
X118971428Y-92138485D02*
X119009523Y-92214676D01*
X119009523Y-92214676D02*
X119009523Y-92290866D01*
X119009523Y-92290866D02*
X118971428Y-92405152D01*
X118971428Y-92405152D02*
X118514285Y-92862295D01*
X118514285Y-92862295D02*
X119009523Y-92862295D01*
X125286104Y-58808332D02*
X125324200Y-58846428D01*
X125324200Y-58846428D02*
X125362295Y-58960713D01*
X125362295Y-58960713D02*
X125362295Y-59036904D01*
X125362295Y-59036904D02*
X125324200Y-59151190D01*
X125324200Y-59151190D02*
X125248009Y-59227380D01*
X125248009Y-59227380D02*
X125171819Y-59265475D01*
X125171819Y-59265475D02*
X125019438Y-59303571D01*
X125019438Y-59303571D02*
X124905152Y-59303571D01*
X124905152Y-59303571D02*
X124752771Y-59265475D01*
X124752771Y-59265475D02*
X124676580Y-59227380D01*
X124676580Y-59227380D02*
X124600390Y-59151190D01*
X124600390Y-59151190D02*
X124562295Y-59036904D01*
X124562295Y-59036904D02*
X124562295Y-58960713D01*
X124562295Y-58960713D02*
X124600390Y-58846428D01*
X124600390Y-58846428D02*
X124638485Y-58808332D01*
X124562295Y-58122618D02*
X124562295Y-58274999D01*
X124562295Y-58274999D02*
X124600390Y-58351190D01*
X124600390Y-58351190D02*
X124638485Y-58389285D01*
X124638485Y-58389285D02*
X124752771Y-58465475D01*
X124752771Y-58465475D02*
X124905152Y-58503571D01*
X124905152Y-58503571D02*
X125209914Y-58503571D01*
X125209914Y-58503571D02*
X125286104Y-58465475D01*
X125286104Y-58465475D02*
X125324200Y-58427380D01*
X125324200Y-58427380D02*
X125362295Y-58351190D01*
X125362295Y-58351190D02*
X125362295Y-58198809D01*
X125362295Y-58198809D02*
X125324200Y-58122618D01*
X125324200Y-58122618D02*
X125286104Y-58084523D01*
X125286104Y-58084523D02*
X125209914Y-58046428D01*
X125209914Y-58046428D02*
X125019438Y-58046428D01*
X125019438Y-58046428D02*
X124943247Y-58084523D01*
X124943247Y-58084523D02*
X124905152Y-58122618D01*
X124905152Y-58122618D02*
X124867057Y-58198809D01*
X124867057Y-58198809D02*
X124867057Y-58351190D01*
X124867057Y-58351190D02*
X124905152Y-58427380D01*
X124905152Y-58427380D02*
X124943247Y-58465475D01*
X124943247Y-58465475D02*
X125019438Y-58503571D01*
X120923809Y-96938485D02*
X120847619Y-96900390D01*
X120847619Y-96900390D02*
X120771428Y-96824200D01*
X120771428Y-96824200D02*
X120657142Y-96709914D01*
X120657142Y-96709914D02*
X120580952Y-96671819D01*
X120580952Y-96671819D02*
X120504761Y-96671819D01*
X120542857Y-96862295D02*
X120466666Y-96824200D01*
X120466666Y-96824200D02*
X120390476Y-96748009D01*
X120390476Y-96748009D02*
X120352380Y-96595628D01*
X120352380Y-96595628D02*
X120352380Y-96328961D01*
X120352380Y-96328961D02*
X120390476Y-96176580D01*
X120390476Y-96176580D02*
X120466666Y-96100390D01*
X120466666Y-96100390D02*
X120542857Y-96062295D01*
X120542857Y-96062295D02*
X120695238Y-96062295D01*
X120695238Y-96062295D02*
X120771428Y-96100390D01*
X120771428Y-96100390D02*
X120847619Y-96176580D01*
X120847619Y-96176580D02*
X120885714Y-96328961D01*
X120885714Y-96328961D02*
X120885714Y-96595628D01*
X120885714Y-96595628D02*
X120847619Y-96748009D01*
X120847619Y-96748009D02*
X120771428Y-96824200D01*
X120771428Y-96824200D02*
X120695238Y-96862295D01*
X120695238Y-96862295D02*
X120542857Y-96862295D01*
X121190475Y-96138485D02*
X121228571Y-96100390D01*
X121228571Y-96100390D02*
X121304761Y-96062295D01*
X121304761Y-96062295D02*
X121495237Y-96062295D01*
X121495237Y-96062295D02*
X121571428Y-96100390D01*
X121571428Y-96100390D02*
X121609523Y-96138485D01*
X121609523Y-96138485D02*
X121647618Y-96214676D01*
X121647618Y-96214676D02*
X121647618Y-96290866D01*
X121647618Y-96290866D02*
X121609523Y-96405152D01*
X121609523Y-96405152D02*
X121152380Y-96862295D01*
X121152380Y-96862295D02*
X121647618Y-96862295D01*
X120885714Y-95462295D02*
X120619047Y-95081342D01*
X120428571Y-95462295D02*
X120428571Y-94662295D01*
X120428571Y-94662295D02*
X120733333Y-94662295D01*
X120733333Y-94662295D02*
X120809523Y-94700390D01*
X120809523Y-94700390D02*
X120847618Y-94738485D01*
X120847618Y-94738485D02*
X120885714Y-94814676D01*
X120885714Y-94814676D02*
X120885714Y-94928961D01*
X120885714Y-94928961D02*
X120847618Y-95005152D01*
X120847618Y-95005152D02*
X120809523Y-95043247D01*
X120809523Y-95043247D02*
X120733333Y-95081342D01*
X120733333Y-95081342D02*
X120428571Y-95081342D01*
X121647618Y-95462295D02*
X121190475Y-95462295D01*
X121419047Y-95462295D02*
X121419047Y-94662295D01*
X121419047Y-94662295D02*
X121342856Y-94776580D01*
X121342856Y-94776580D02*
X121266666Y-94852771D01*
X121266666Y-94852771D02*
X121190475Y-94890866D01*
X122333333Y-94662295D02*
X122180952Y-94662295D01*
X122180952Y-94662295D02*
X122104761Y-94700390D01*
X122104761Y-94700390D02*
X122066666Y-94738485D01*
X122066666Y-94738485D02*
X121990476Y-94852771D01*
X121990476Y-94852771D02*
X121952380Y-95005152D01*
X121952380Y-95005152D02*
X121952380Y-95309914D01*
X121952380Y-95309914D02*
X121990476Y-95386104D01*
X121990476Y-95386104D02*
X122028571Y-95424200D01*
X122028571Y-95424200D02*
X122104761Y-95462295D01*
X122104761Y-95462295D02*
X122257142Y-95462295D01*
X122257142Y-95462295D02*
X122333333Y-95424200D01*
X122333333Y-95424200D02*
X122371428Y-95386104D01*
X122371428Y-95386104D02*
X122409523Y-95309914D01*
X122409523Y-95309914D02*
X122409523Y-95119438D01*
X122409523Y-95119438D02*
X122371428Y-95043247D01*
X122371428Y-95043247D02*
X122333333Y-95005152D01*
X122333333Y-95005152D02*
X122257142Y-94967057D01*
X122257142Y-94967057D02*
X122104761Y-94967057D01*
X122104761Y-94967057D02*
X122028571Y-95005152D01*
X122028571Y-95005152D02*
X121990476Y-95043247D01*
X121990476Y-95043247D02*
X121952380Y-95119438D01*
X106909524Y-93862295D02*
X106909524Y-93062295D01*
X106909524Y-93062295D02*
X107100000Y-93062295D01*
X107100000Y-93062295D02*
X107214286Y-93100390D01*
X107214286Y-93100390D02*
X107290476Y-93176580D01*
X107290476Y-93176580D02*
X107328571Y-93252771D01*
X107328571Y-93252771D02*
X107366667Y-93405152D01*
X107366667Y-93405152D02*
X107366667Y-93519438D01*
X107366667Y-93519438D02*
X107328571Y-93671819D01*
X107328571Y-93671819D02*
X107290476Y-93748009D01*
X107290476Y-93748009D02*
X107214286Y-93824200D01*
X107214286Y-93824200D02*
X107100000Y-93862295D01*
X107100000Y-93862295D02*
X106909524Y-93862295D01*
X107823809Y-93405152D02*
X107747619Y-93367057D01*
X107747619Y-93367057D02*
X107709524Y-93328961D01*
X107709524Y-93328961D02*
X107671428Y-93252771D01*
X107671428Y-93252771D02*
X107671428Y-93214676D01*
X107671428Y-93214676D02*
X107709524Y-93138485D01*
X107709524Y-93138485D02*
X107747619Y-93100390D01*
X107747619Y-93100390D02*
X107823809Y-93062295D01*
X107823809Y-93062295D02*
X107976190Y-93062295D01*
X107976190Y-93062295D02*
X108052381Y-93100390D01*
X108052381Y-93100390D02*
X108090476Y-93138485D01*
X108090476Y-93138485D02*
X108128571Y-93214676D01*
X108128571Y-93214676D02*
X108128571Y-93252771D01*
X108128571Y-93252771D02*
X108090476Y-93328961D01*
X108090476Y-93328961D02*
X108052381Y-93367057D01*
X108052381Y-93367057D02*
X107976190Y-93405152D01*
X107976190Y-93405152D02*
X107823809Y-93405152D01*
X107823809Y-93405152D02*
X107747619Y-93443247D01*
X107747619Y-93443247D02*
X107709524Y-93481342D01*
X107709524Y-93481342D02*
X107671428Y-93557533D01*
X107671428Y-93557533D02*
X107671428Y-93709914D01*
X107671428Y-93709914D02*
X107709524Y-93786104D01*
X107709524Y-93786104D02*
X107747619Y-93824200D01*
X107747619Y-93824200D02*
X107823809Y-93862295D01*
X107823809Y-93862295D02*
X107976190Y-93862295D01*
X107976190Y-93862295D02*
X108052381Y-93824200D01*
X108052381Y-93824200D02*
X108090476Y-93786104D01*
X108090476Y-93786104D02*
X108128571Y-93709914D01*
X108128571Y-93709914D02*
X108128571Y-93557533D01*
X108128571Y-93557533D02*
X108090476Y-93481342D01*
X108090476Y-93481342D02*
X108052381Y-93443247D01*
X108052381Y-93443247D02*
X107976190Y-93405152D01*
X117485714Y-98412295D02*
X117219047Y-98031342D01*
X117028571Y-98412295D02*
X117028571Y-97612295D01*
X117028571Y-97612295D02*
X117333333Y-97612295D01*
X117333333Y-97612295D02*
X117409523Y-97650390D01*
X117409523Y-97650390D02*
X117447618Y-97688485D01*
X117447618Y-97688485D02*
X117485714Y-97764676D01*
X117485714Y-97764676D02*
X117485714Y-97878961D01*
X117485714Y-97878961D02*
X117447618Y-97955152D01*
X117447618Y-97955152D02*
X117409523Y-97993247D01*
X117409523Y-97993247D02*
X117333333Y-98031342D01*
X117333333Y-98031342D02*
X117028571Y-98031342D01*
X118247618Y-98412295D02*
X117790475Y-98412295D01*
X118019047Y-98412295D02*
X118019047Y-97612295D01*
X118019047Y-97612295D02*
X117942856Y-97726580D01*
X117942856Y-97726580D02*
X117866666Y-97802771D01*
X117866666Y-97802771D02*
X117790475Y-97840866D01*
X119009523Y-98412295D02*
X118552380Y-98412295D01*
X118780952Y-98412295D02*
X118780952Y-97612295D01*
X118780952Y-97612295D02*
X118704761Y-97726580D01*
X118704761Y-97726580D02*
X118628571Y-97802771D01*
X118628571Y-97802771D02*
X118552380Y-97840866D01*
X124485714Y-101562295D02*
X124104762Y-101562295D01*
X124104762Y-101562295D02*
X124104762Y-100762295D01*
X124714285Y-101524200D02*
X124828571Y-101562295D01*
X124828571Y-101562295D02*
X125019047Y-101562295D01*
X125019047Y-101562295D02*
X125095238Y-101524200D01*
X125095238Y-101524200D02*
X125133333Y-101486104D01*
X125133333Y-101486104D02*
X125171428Y-101409914D01*
X125171428Y-101409914D02*
X125171428Y-101333723D01*
X125171428Y-101333723D02*
X125133333Y-101257533D01*
X125133333Y-101257533D02*
X125095238Y-101219438D01*
X125095238Y-101219438D02*
X125019047Y-101181342D01*
X125019047Y-101181342D02*
X124866666Y-101143247D01*
X124866666Y-101143247D02*
X124790476Y-101105152D01*
X124790476Y-101105152D02*
X124752381Y-101067057D01*
X124752381Y-101067057D02*
X124714285Y-100990866D01*
X124714285Y-100990866D02*
X124714285Y-100914676D01*
X124714285Y-100914676D02*
X124752381Y-100838485D01*
X124752381Y-100838485D02*
X124790476Y-100800390D01*
X124790476Y-100800390D02*
X124866666Y-100762295D01*
X124866666Y-100762295D02*
X125057143Y-100762295D01*
X125057143Y-100762295D02*
X125171428Y-100800390D01*
X125933333Y-101562295D02*
X125476190Y-101562295D01*
X125704762Y-101562295D02*
X125704762Y-100762295D01*
X125704762Y-100762295D02*
X125628571Y-100876580D01*
X125628571Y-100876580D02*
X125552381Y-100952771D01*
X125552381Y-100952771D02*
X125476190Y-100990866D01*
X120985714Y-98362295D02*
X120719047Y-97981342D01*
X120528571Y-98362295D02*
X120528571Y-97562295D01*
X120528571Y-97562295D02*
X120833333Y-97562295D01*
X120833333Y-97562295D02*
X120909523Y-97600390D01*
X120909523Y-97600390D02*
X120947618Y-97638485D01*
X120947618Y-97638485D02*
X120985714Y-97714676D01*
X120985714Y-97714676D02*
X120985714Y-97828961D01*
X120985714Y-97828961D02*
X120947618Y-97905152D01*
X120947618Y-97905152D02*
X120909523Y-97943247D01*
X120909523Y-97943247D02*
X120833333Y-97981342D01*
X120833333Y-97981342D02*
X120528571Y-97981342D01*
X121747618Y-98362295D02*
X121290475Y-98362295D01*
X121519047Y-98362295D02*
X121519047Y-97562295D01*
X121519047Y-97562295D02*
X121442856Y-97676580D01*
X121442856Y-97676580D02*
X121366666Y-97752771D01*
X121366666Y-97752771D02*
X121290475Y-97790866D01*
X122014285Y-97562295D02*
X122547619Y-97562295D01*
X122547619Y-97562295D02*
X122204761Y-98362295D01*
X108336104Y-64539285D02*
X108374200Y-64577381D01*
X108374200Y-64577381D02*
X108412295Y-64691666D01*
X108412295Y-64691666D02*
X108412295Y-64767857D01*
X108412295Y-64767857D02*
X108374200Y-64882143D01*
X108374200Y-64882143D02*
X108298009Y-64958333D01*
X108298009Y-64958333D02*
X108221819Y-64996428D01*
X108221819Y-64996428D02*
X108069438Y-65034524D01*
X108069438Y-65034524D02*
X107955152Y-65034524D01*
X107955152Y-65034524D02*
X107802771Y-64996428D01*
X107802771Y-64996428D02*
X107726580Y-64958333D01*
X107726580Y-64958333D02*
X107650390Y-64882143D01*
X107650390Y-64882143D02*
X107612295Y-64767857D01*
X107612295Y-64767857D02*
X107612295Y-64691666D01*
X107612295Y-64691666D02*
X107650390Y-64577381D01*
X107650390Y-64577381D02*
X107688485Y-64539285D01*
X108412295Y-63777381D02*
X108412295Y-64234524D01*
X108412295Y-64005952D02*
X107612295Y-64005952D01*
X107612295Y-64005952D02*
X107726580Y-64082143D01*
X107726580Y-64082143D02*
X107802771Y-64158333D01*
X107802771Y-64158333D02*
X107840866Y-64234524D01*
X108412295Y-63396428D02*
X108412295Y-63244047D01*
X108412295Y-63244047D02*
X108374200Y-63167857D01*
X108374200Y-63167857D02*
X108336104Y-63129761D01*
X108336104Y-63129761D02*
X108221819Y-63053571D01*
X108221819Y-63053571D02*
X108069438Y-63015476D01*
X108069438Y-63015476D02*
X107764676Y-63015476D01*
X107764676Y-63015476D02*
X107688485Y-63053571D01*
X107688485Y-63053571D02*
X107650390Y-63091666D01*
X107650390Y-63091666D02*
X107612295Y-63167857D01*
X107612295Y-63167857D02*
X107612295Y-63320238D01*
X107612295Y-63320238D02*
X107650390Y-63396428D01*
X107650390Y-63396428D02*
X107688485Y-63434523D01*
X107688485Y-63434523D02*
X107764676Y-63472619D01*
X107764676Y-63472619D02*
X107955152Y-63472619D01*
X107955152Y-63472619D02*
X108031342Y-63434523D01*
X108031342Y-63434523D02*
X108069438Y-63396428D01*
X108069438Y-63396428D02*
X108107533Y-63320238D01*
X108107533Y-63320238D02*
X108107533Y-63167857D01*
X108107533Y-63167857D02*
X108069438Y-63091666D01*
X108069438Y-63091666D02*
X108031342Y-63053571D01*
X108031342Y-63053571D02*
X107955152Y-63015476D01*
X103909524Y-81062295D02*
X103909524Y-80262295D01*
X103909524Y-80262295D02*
X104100000Y-80262295D01*
X104100000Y-80262295D02*
X104214286Y-80300390D01*
X104214286Y-80300390D02*
X104290476Y-80376580D01*
X104290476Y-80376580D02*
X104328571Y-80452771D01*
X104328571Y-80452771D02*
X104366667Y-80605152D01*
X104366667Y-80605152D02*
X104366667Y-80719438D01*
X104366667Y-80719438D02*
X104328571Y-80871819D01*
X104328571Y-80871819D02*
X104290476Y-80948009D01*
X104290476Y-80948009D02*
X104214286Y-81024200D01*
X104214286Y-81024200D02*
X104100000Y-81062295D01*
X104100000Y-81062295D02*
X103909524Y-81062295D01*
X104633333Y-80262295D02*
X105166667Y-80262295D01*
X105166667Y-80262295D02*
X104823809Y-81062295D01*
X117028571Y-62112295D02*
X117028571Y-61312295D01*
X117028571Y-61312295D02*
X117333333Y-61312295D01*
X117333333Y-61312295D02*
X117409523Y-61350390D01*
X117409523Y-61350390D02*
X117447618Y-61388485D01*
X117447618Y-61388485D02*
X117485714Y-61464676D01*
X117485714Y-61464676D02*
X117485714Y-61578961D01*
X117485714Y-61578961D02*
X117447618Y-61655152D01*
X117447618Y-61655152D02*
X117409523Y-61693247D01*
X117409523Y-61693247D02*
X117333333Y-61731342D01*
X117333333Y-61731342D02*
X117028571Y-61731342D01*
X117790475Y-62074200D02*
X117904761Y-62112295D01*
X117904761Y-62112295D02*
X118095237Y-62112295D01*
X118095237Y-62112295D02*
X118171428Y-62074200D01*
X118171428Y-62074200D02*
X118209523Y-62036104D01*
X118209523Y-62036104D02*
X118247618Y-61959914D01*
X118247618Y-61959914D02*
X118247618Y-61883723D01*
X118247618Y-61883723D02*
X118209523Y-61807533D01*
X118209523Y-61807533D02*
X118171428Y-61769438D01*
X118171428Y-61769438D02*
X118095237Y-61731342D01*
X118095237Y-61731342D02*
X117942856Y-61693247D01*
X117942856Y-61693247D02*
X117866666Y-61655152D01*
X117866666Y-61655152D02*
X117828571Y-61617057D01*
X117828571Y-61617057D02*
X117790475Y-61540866D01*
X117790475Y-61540866D02*
X117790475Y-61464676D01*
X117790475Y-61464676D02*
X117828571Y-61388485D01*
X117828571Y-61388485D02*
X117866666Y-61350390D01*
X117866666Y-61350390D02*
X117942856Y-61312295D01*
X117942856Y-61312295D02*
X118133333Y-61312295D01*
X118133333Y-61312295D02*
X118247618Y-61350390D01*
X119009523Y-62112295D02*
X118552380Y-62112295D01*
X118780952Y-62112295D02*
X118780952Y-61312295D01*
X118780952Y-61312295D02*
X118704761Y-61426580D01*
X118704761Y-61426580D02*
X118628571Y-61502771D01*
X118628571Y-61502771D02*
X118552380Y-61540866D01*
X109836104Y-64539285D02*
X109874200Y-64577381D01*
X109874200Y-64577381D02*
X109912295Y-64691666D01*
X109912295Y-64691666D02*
X109912295Y-64767857D01*
X109912295Y-64767857D02*
X109874200Y-64882143D01*
X109874200Y-64882143D02*
X109798009Y-64958333D01*
X109798009Y-64958333D02*
X109721819Y-64996428D01*
X109721819Y-64996428D02*
X109569438Y-65034524D01*
X109569438Y-65034524D02*
X109455152Y-65034524D01*
X109455152Y-65034524D02*
X109302771Y-64996428D01*
X109302771Y-64996428D02*
X109226580Y-64958333D01*
X109226580Y-64958333D02*
X109150390Y-64882143D01*
X109150390Y-64882143D02*
X109112295Y-64767857D01*
X109112295Y-64767857D02*
X109112295Y-64691666D01*
X109112295Y-64691666D02*
X109150390Y-64577381D01*
X109150390Y-64577381D02*
X109188485Y-64539285D01*
X109188485Y-64234524D02*
X109150390Y-64196428D01*
X109150390Y-64196428D02*
X109112295Y-64120238D01*
X109112295Y-64120238D02*
X109112295Y-63929762D01*
X109112295Y-63929762D02*
X109150390Y-63853571D01*
X109150390Y-63853571D02*
X109188485Y-63815476D01*
X109188485Y-63815476D02*
X109264676Y-63777381D01*
X109264676Y-63777381D02*
X109340866Y-63777381D01*
X109340866Y-63777381D02*
X109455152Y-63815476D01*
X109455152Y-63815476D02*
X109912295Y-64272619D01*
X109912295Y-64272619D02*
X109912295Y-63777381D01*
X109188485Y-63472619D02*
X109150390Y-63434523D01*
X109150390Y-63434523D02*
X109112295Y-63358333D01*
X109112295Y-63358333D02*
X109112295Y-63167857D01*
X109112295Y-63167857D02*
X109150390Y-63091666D01*
X109150390Y-63091666D02*
X109188485Y-63053571D01*
X109188485Y-63053571D02*
X109264676Y-63015476D01*
X109264676Y-63015476D02*
X109340866Y-63015476D01*
X109340866Y-63015476D02*
X109455152Y-63053571D01*
X109455152Y-63053571D02*
X109912295Y-63510714D01*
X109912295Y-63510714D02*
X109912295Y-63015476D01*
X117485714Y-96962295D02*
X117219047Y-96581342D01*
X117028571Y-96962295D02*
X117028571Y-96162295D01*
X117028571Y-96162295D02*
X117333333Y-96162295D01*
X117333333Y-96162295D02*
X117409523Y-96200390D01*
X117409523Y-96200390D02*
X117447618Y-96238485D01*
X117447618Y-96238485D02*
X117485714Y-96314676D01*
X117485714Y-96314676D02*
X117485714Y-96428961D01*
X117485714Y-96428961D02*
X117447618Y-96505152D01*
X117447618Y-96505152D02*
X117409523Y-96543247D01*
X117409523Y-96543247D02*
X117333333Y-96581342D01*
X117333333Y-96581342D02*
X117028571Y-96581342D01*
X118247618Y-96962295D02*
X117790475Y-96962295D01*
X118019047Y-96962295D02*
X118019047Y-96162295D01*
X118019047Y-96162295D02*
X117942856Y-96276580D01*
X117942856Y-96276580D02*
X117866666Y-96352771D01*
X117866666Y-96352771D02*
X117790475Y-96390866D01*
X118514285Y-96162295D02*
X119009523Y-96162295D01*
X119009523Y-96162295D02*
X118742857Y-96467057D01*
X118742857Y-96467057D02*
X118857142Y-96467057D01*
X118857142Y-96467057D02*
X118933333Y-96505152D01*
X118933333Y-96505152D02*
X118971428Y-96543247D01*
X118971428Y-96543247D02*
X119009523Y-96619438D01*
X119009523Y-96619438D02*
X119009523Y-96809914D01*
X119009523Y-96809914D02*
X118971428Y-96886104D01*
X118971428Y-96886104D02*
X118933333Y-96924200D01*
X118933333Y-96924200D02*
X118857142Y-96962295D01*
X118857142Y-96962295D02*
X118628571Y-96962295D01*
X118628571Y-96962295D02*
X118552380Y-96924200D01*
X118552380Y-96924200D02*
X118514285Y-96886104D01*
X106640476Y-106062295D02*
X106640476Y-106709914D01*
X106640476Y-106709914D02*
X106678571Y-106786104D01*
X106678571Y-106786104D02*
X106716666Y-106824200D01*
X106716666Y-106824200D02*
X106792857Y-106862295D01*
X106792857Y-106862295D02*
X106945238Y-106862295D01*
X106945238Y-106862295D02*
X107021428Y-106824200D01*
X107021428Y-106824200D02*
X107059523Y-106786104D01*
X107059523Y-106786104D02*
X107097619Y-106709914D01*
X107097619Y-106709914D02*
X107097619Y-106062295D01*
X107897618Y-106862295D02*
X107440475Y-106862295D01*
X107669047Y-106862295D02*
X107669047Y-106062295D01*
X107669047Y-106062295D02*
X107592856Y-106176580D01*
X107592856Y-106176580D02*
X107516666Y-106252771D01*
X107516666Y-106252771D02*
X107440475Y-106290866D01*
X113261905Y-58254819D02*
X113261905Y-57254819D01*
X113261905Y-57254819D02*
X113500000Y-57254819D01*
X113500000Y-57254819D02*
X113642857Y-57302438D01*
X113642857Y-57302438D02*
X113738095Y-57397676D01*
X113738095Y-57397676D02*
X113785714Y-57492914D01*
X113785714Y-57492914D02*
X113833333Y-57683390D01*
X113833333Y-57683390D02*
X113833333Y-57826247D01*
X113833333Y-57826247D02*
X113785714Y-58016723D01*
X113785714Y-58016723D02*
X113738095Y-58111961D01*
X113738095Y-58111961D02*
X113642857Y-58207200D01*
X113642857Y-58207200D02*
X113500000Y-58254819D01*
X113500000Y-58254819D02*
X113261905Y-58254819D01*
X114690476Y-57588152D02*
X114690476Y-58254819D01*
X114452381Y-57207200D02*
X114214286Y-57921485D01*
X114214286Y-57921485D02*
X114833333Y-57921485D01*
X117491667Y-94111104D02*
X117453571Y-94149200D01*
X117453571Y-94149200D02*
X117339286Y-94187295D01*
X117339286Y-94187295D02*
X117263095Y-94187295D01*
X117263095Y-94187295D02*
X117148809Y-94149200D01*
X117148809Y-94149200D02*
X117072619Y-94073009D01*
X117072619Y-94073009D02*
X117034524Y-93996819D01*
X117034524Y-93996819D02*
X116996428Y-93844438D01*
X116996428Y-93844438D02*
X116996428Y-93730152D01*
X116996428Y-93730152D02*
X117034524Y-93577771D01*
X117034524Y-93577771D02*
X117072619Y-93501580D01*
X117072619Y-93501580D02*
X117148809Y-93425390D01*
X117148809Y-93425390D02*
X117263095Y-93387295D01*
X117263095Y-93387295D02*
X117339286Y-93387295D01*
X117339286Y-93387295D02*
X117453571Y-93425390D01*
X117453571Y-93425390D02*
X117491667Y-93463485D01*
X117948809Y-93730152D02*
X117872619Y-93692057D01*
X117872619Y-93692057D02*
X117834524Y-93653961D01*
X117834524Y-93653961D02*
X117796428Y-93577771D01*
X117796428Y-93577771D02*
X117796428Y-93539676D01*
X117796428Y-93539676D02*
X117834524Y-93463485D01*
X117834524Y-93463485D02*
X117872619Y-93425390D01*
X117872619Y-93425390D02*
X117948809Y-93387295D01*
X117948809Y-93387295D02*
X118101190Y-93387295D01*
X118101190Y-93387295D02*
X118177381Y-93425390D01*
X118177381Y-93425390D02*
X118215476Y-93463485D01*
X118215476Y-93463485D02*
X118253571Y-93539676D01*
X118253571Y-93539676D02*
X118253571Y-93577771D01*
X118253571Y-93577771D02*
X118215476Y-93653961D01*
X118215476Y-93653961D02*
X118177381Y-93692057D01*
X118177381Y-93692057D02*
X118101190Y-93730152D01*
X118101190Y-93730152D02*
X117948809Y-93730152D01*
X117948809Y-93730152D02*
X117872619Y-93768247D01*
X117872619Y-93768247D02*
X117834524Y-93806342D01*
X117834524Y-93806342D02*
X117796428Y-93882533D01*
X117796428Y-93882533D02*
X117796428Y-94034914D01*
X117796428Y-94034914D02*
X117834524Y-94111104D01*
X117834524Y-94111104D02*
X117872619Y-94149200D01*
X117872619Y-94149200D02*
X117948809Y-94187295D01*
X117948809Y-94187295D02*
X118101190Y-94187295D01*
X118101190Y-94187295D02*
X118177381Y-94149200D01*
X118177381Y-94149200D02*
X118215476Y-94111104D01*
X118215476Y-94111104D02*
X118253571Y-94034914D01*
X118253571Y-94034914D02*
X118253571Y-93882533D01*
X118253571Y-93882533D02*
X118215476Y-93806342D01*
X118215476Y-93806342D02*
X118177381Y-93768247D01*
X118177381Y-93768247D02*
X118101190Y-93730152D01*
D13*
%TO.C,C9*%
X121761252Y-100235000D02*
X121238748Y-100235000D01*
X121761252Y-98765000D02*
X121238748Y-98765000D01*
%TO.C,C10*%
X117738748Y-102765000D02*
X118261252Y-102765000D01*
X117738748Y-104235000D02*
X118261252Y-104235000D01*
%TO.C,C13*%
X122265000Y-61511252D02*
X122265000Y-60988748D01*
X123735000Y-61511252D02*
X123735000Y-60988748D01*
%TO.C,R12*%
X118227064Y-100235000D02*
X117772936Y-100235000D01*
X118227064Y-98765000D02*
X117772936Y-98765000D01*
%TO.C,C6*%
X124265000Y-61511252D02*
X124265000Y-60988748D01*
X125735000Y-61511252D02*
X125735000Y-60988748D01*
D12*
%TO.C,Q2*%
X120175000Y-103000000D02*
X121225000Y-103000000D01*
X121575000Y-103050000D02*
X122025000Y-103050000D01*
X121575000Y-105950000D02*
X121575000Y-103050000D01*
X122025000Y-103050000D02*
X122025000Y-105950000D01*
X122025000Y-105950000D02*
X121575000Y-105950000D01*
D13*
%TO.C,R16*%
X121727064Y-102235000D02*
X121272936Y-102235000D01*
X121727064Y-100765000D02*
X121272936Y-100765000D01*
D12*
%TO.C,D8*%
X110928000Y-97470000D02*
X110928000Y-89530000D01*
X104072000Y-89530000D02*
X104072000Y-97470000D01*
D13*
%TO.C,R11*%
X117772936Y-106615000D02*
X118227064Y-106615000D01*
X117772936Y-108085000D02*
X118227064Y-108085000D01*
D12*
%TO.C,LS1*%
X128850000Y-101100000D02*
X128850000Y-101100000D01*
X128650000Y-101100000D02*
X128650000Y-101100000D01*
D14*
X133550000Y-102200000D02*
X133550000Y-111800000D01*
X130750000Y-102200000D02*
X133550000Y-102200000D01*
X126750000Y-102200000D02*
X123950000Y-102200000D01*
X123950000Y-102200000D02*
X123950000Y-111800000D01*
X130750000Y-111800000D02*
X133550000Y-111800000D01*
X123950000Y-111800000D02*
X126750000Y-111800000D01*
D12*
X128650000Y-101100000D02*
G75*
G03*
X128850000Y-101100000I100000J0D01*
G01*
X128850000Y-101100000D02*
G75*
G03*
X128650000Y-101100000I-100000J0D01*
G01*
D13*
%TO.C,R17*%
X121272936Y-106765000D02*
X121727064Y-106765000D01*
X121272936Y-108235000D02*
X121727064Y-108235000D01*
%TO.C,C19*%
X111985000Y-63738748D02*
X111985000Y-64261252D01*
X110515000Y-63738748D02*
X110515000Y-64261252D01*
D12*
%TO.C,D7*%
X103250000Y-83400000D02*
X103250000Y-78800000D01*
X105750000Y-82600000D02*
X105750000Y-78800000D01*
D13*
%TO.C,TP3*%
X120450000Y-53750000D02*
G75*
G03*
X120450000Y-53750000I-700000J0D01*
G01*
D12*
%TO.C,PS1*%
X114875000Y-65725000D02*
X114875000Y-64075000D01*
X114750000Y-63500000D02*
X114750000Y-60000000D01*
X121250000Y-63500000D02*
X114750000Y-63500000D01*
X114750000Y-60000000D02*
X121250000Y-60000000D01*
X121250000Y-60000000D02*
X121250000Y-63500000D01*
D13*
%TO.C,C22*%
X113985000Y-63738748D02*
X113985000Y-64261252D01*
X112515000Y-63738748D02*
X112515000Y-64261252D01*
%TO.C,R13*%
X118227064Y-106235000D02*
X117772936Y-106235000D01*
X118227064Y-104765000D02*
X117772936Y-104765000D01*
D14*
%TO.C,U1*%
X101525000Y-112400000D02*
X101525000Y-100600000D01*
X105025000Y-112400000D02*
X101525000Y-112400000D01*
X110025000Y-112400000D02*
X113525000Y-112400000D01*
X113525000Y-112400000D02*
X113525000Y-100600000D01*
D12*
X98925000Y-109100000D02*
X98925000Y-109100000D01*
X98925000Y-108900000D02*
X98925000Y-108900000D01*
D14*
X101525000Y-100600000D02*
X105025000Y-100600000D01*
X113525000Y-100600000D02*
X110025000Y-100600000D01*
D12*
X98925000Y-108900000D02*
G75*
G03*
X98925000Y-109100000I0J-100000D01*
G01*
X98925000Y-109100000D02*
G75*
G03*
X98925000Y-108900000I0J100000D01*
G01*
D13*
%TO.C,C8*%
X117738748Y-100765000D02*
X118261252Y-100765000D01*
X117738748Y-102235000D02*
X118261252Y-102235000D01*
%TD*%
M02*
